<svg width="24" height="24" viewBox="0 0 24 24" fill="none" xmlns="http://www.w3.org/2000/svg">
<g clip-path="url(#clip0_979_377)">
<rect x="3" y="7" width="18" height="13" rx="1" fill="url(#paint0_linear_979_377)"/>
<path d="M3 11L21 11V8C21 7.44772 20.5523 7 20 7L4 7C3.44772 7 3 7.44772 3 8L3 11Z" fill="url(#paint1_linear_979_377)"/>
<path d="M8 6.5V7.5C8 7.77614 7.77614 8 7.5 8C7.22386 8 7 7.77614 7 7.5V6C7 4.89543 7.89543 4 9 4H15C16.1046 4 17 4.89543 17 6V7.5C17 7.77614 16.7761 8 16.5 8C16.2239 8 16 7.77614 16 7.5V6.5C16 5.67157 15.3284 5 14.5 5H9.5C8.67157 5 8 5.67157 8 6.5Z" fill="url(#paint2_linear_979_377)"/>
<path d="M8 11.5V10.5C8 10.2239 7.77614 10 7.5 10C7.22386 10 7 10.2239 7 10.5V11.5C7 11.7761 7.22386 12 7.5 12C7.77614 12 8 11.7761 8 11.5Z" fill="url(#paint3_linear_979_377)"/>
<path d="M17 11.5V10.5C17 10.2239 16.7761 10 16.5 10C16.2239 10 16 10.2239 16 10.5V11.5C16 11.7761 16.2239 12 16.5 12C16.7761 12 17 11.7761 17 11.5Z" fill="url(#paint4_linear_979_377)"/>
</g>
<defs>
<linearGradient id="paint0_linear_979_377" x1="12" y1="7" x2="12.826" y2="19.9473" gradientUnits="userSpaceOnUse">
<stop stop-color="#F95D5D"/>
<stop offset="1" stop-color="#CD4242"/>
</linearGradient>
<linearGradient id="paint1_linear_979_377" x1="13.5" y1="7" x2="13.7502" y2="10.8874" gradientUnits="userSpaceOnUse">
<stop stop-color="#F95D5D"/>
<stop offset="1" stop-color="#CD4242"/>
</linearGradient>
<linearGradient id="paint2_linear_979_377" x1="10.627" y1="4.50909" x2="11.5411" y2="8.46932" gradientUnits="userSpaceOnUse">
<stop stop-color="#5A6978"/>
<stop offset="1" stop-color="#3C3B3B"/>
</linearGradient>
<linearGradient id="paint3_linear_979_377" x1="7.5" y1="10.0541" x2="7.5" y2="12" gradientUnits="userSpaceOnUse">
<stop stop-color="#EFF3F5"/>
<stop offset="1" stop-color="#B4D8F1"/>
</linearGradient>
<linearGradient id="paint4_linear_979_377" x1="16.5" y1="10.0541" x2="16.5" y2="12" gradientUnits="userSpaceOnUse">
<stop stop-color="#EFF3F5"/>
<stop offset="1" stop-color="#B4D8F1"/>
</linearGradient>
<clipPath id="clip0_979_377">
<rect width="24" height="24" fill="white"/>
</clipPath>
</defs>
</svg>
