<svg width="24" height="24" viewBox="0 0 24 24" fill="none" xmlns="http://www.w3.org/2000/svg">
<g clip-path="url(#clip0_979_366)">
<rect x="2" y="3" width="20" height="18" rx="2" fill="url(#paint0_linear_979_366)"/>
<path d="M5.5 8L13.5 8C13.7761 8 14 8.22386 14 8.5C14 8.77614 13.7761 9 13.5 9L5.5 9C5.22386 9 5 8.77614 5 8.5C5 8.22386 5.22386 8 5.5 8Z" fill="url(#paint1_linear_979_366)"/>
<path d="M15.5 8L18.5 8C18.7761 8 19 8.22386 19 8.5C19 8.77614 18.7761 9 18.5 9L15.5 9C15.2239 9 15 8.77614 15 8.5C15 8.22386 15.2239 8 15.5 8Z" fill="white" fill-opacity="0.2"/>
<circle cx="14.5" cy="8.5" r="1.5" fill="#EEEEEE"/>
<path d="M5.5 15L11.5 15C11.7761 15 12 15.2239 12 15.5C12 15.7761 11.7761 16 11.5 16L5.5 16C5.22386 16 5 15.7761 5 15.5C5 15.2239 5.22386 15 5.5 15Z" fill="url(#paint2_linear_979_366)"/>
<path d="M13.5 15L18.5 15C18.7761 15 19 15.2239 19 15.5C19 15.7761 18.7761 16 18.5 16L13.5 16C13.2239 16 13 15.7761 13 15.5C13 15.2239 13.2239 15 13.5 15Z" fill="white" fill-opacity="0.2"/>
<circle cx="12.5" cy="15.5" r="1.5" fill="#EEEEEE"/>
</g>
<defs>
<linearGradient id="paint0_linear_979_366" x1="9.25395" y1="5.29091" x2="16.9319" y2="20.0738" gradientUnits="userSpaceOnUse">
<stop stop-color="#5A6978"/>
<stop offset="1" stop-color="#3C3B3B"/>
</linearGradient>
<linearGradient id="paint1_linear_979_366" x1="5" y1="8.5" x2="14" y2="8.5" gradientUnits="userSpaceOnUse">
<stop stop-color="#64B4F4"/>
<stop offset="1" stop-color="#4989D5"/>
</linearGradient>
<linearGradient id="paint2_linear_979_366" x1="5" y1="15.5" x2="12" y2="15.5" gradientUnits="userSpaceOnUse">
<stop stop-color="#64B4F4"/>
<stop offset="1" stop-color="#4989D5"/>
</linearGradient>
<clipPath id="clip0_979_366">
<rect width="24" height="24" fill="white"/>
</clipPath>
</defs>
</svg>
