<?xml version="1.0" encoding="UTF-8" standalone="no"?>
<svg
   width="128"
   height="128"
   viewBox="0 0 128 128"
   fill="none"
   version="1.1"
   id="svg17"
   sodipodi:docname="folder-public.svg"
   inkscape:version="1.4 (e7c3feb100, 2024-10-09)"
   xmlns:inkscape="http://www.inkscape.org/namespaces/inkscape"
   xmlns:sodipodi="http://sodipodi.sourceforge.net/DTD/sodipodi-0.dtd"
   xmlns="http://www.w3.org/2000/svg"
   xmlns:svg="http://www.w3.org/2000/svg">
  <sodipodi:namedview
     id="namedview17"
     pagecolor="#ffffff"
     bordercolor="#000000"
     borderopacity="0.25"
     inkscape:showpageshadow="2"
     inkscape:pageopacity="0.0"
     inkscape:pagecheckerboard="0"
     inkscape:deskcolor="#d1d1d1"
     inkscape:zoom="5.8046875"
     inkscape:cx="63.913863"
     inkscape:cy="64"
     inkscape:window-width="1920"
     inkscape:window-height="952"
     inkscape:window-x="0"
     inkscape:window-y="0"
     inkscape:window-maximized="1"
     inkscape:current-layer="svg17" />
  <defs
     id="defs1">
    <style
       id="current-color-scheme"
       type="text/css">
        .ColorScheme-Text { color:#e6f0f5; }
        .ColorScheme-Highlight { color:#2179cb; }
        .ColorScheme-Background { color:#e4e4e4; }
    </style>
  </defs>
  <path
     style="fill:currentColor;opacity:0.5"
     class="ColorScheme-Highlight"
     d="M20 20V88C20 91.3137 22.6863 94 26 94H102C105.314 94 108 91.3137 108 88V26.4C108 23.0863 105.314 20.4 102 20.4H63.7061C62.0242 20.4 60.4196 19.6941 59.2832 18.4544L56.9835 15.9457C55.8471 14.7059 54.2424 14 52.5606 14L26 14C22.6863 14 20 16.6863 20 20Z"
     id="path1" />
  <path
     style="fill:currentColor"
     class="ColorScheme-Background"
     d="M14 50.4C14 45.9817 17.5817 42.4 22 42.4H48.7224C50.9612 42.4 53.0975 41.4619 54.6125 39.8136L55.7405 38.5864C57.2554 36.9381 59.3918 36 61.6305 36H106C110.418 36 114 39.5817 114 44V108C114 112.418 110.418 116 106 116H22C17.5817 116 14 112.418 14 108L14 50.4Z"
     fill-opacity="0.15"
     id="path2" />
  <path
     d="M14 48.4C14 43.9817 17.5817 40.4 22 40.4H48.7224C50.9612 40.4 53.0975 39.4619 54.6125 37.8136L55.7405 36.5864C57.2554 34.9381 59.3918 34 61.6305 34H106C110.418 34 114 37.5817 114 42V106C114 110.418 110.418 114 106 114H22C17.5817 114 14 110.418 14 106L14 48.4Z"
     fill="url(#paint0_linear_817_315)"
     id="path3" />
  <path
     fill-rule="evenodd"
     clip-rule="evenodd"
     d="M74 74C78.4183 74 82 70.4183 82 66C82 61.5817 78.4183 58 74 58C69.5817 58 66 61.5817 66 66C66 70.4183 69.5817 74 74 74ZM62 84.7273C62 79.9073 67.3726 76 74 76C80.6274 76 86 79.9073 86 84.7273V86C86 87.1046 85.1046 88 84 88H64C62.8954 88 62 87.1046 62 86V84.7273Z"
     fill="url(#paint1_linear_817_315)"
     id="path4"
     style="fill:#ffffff;fill-opacity:1" />
  <mask
     style="fill:currentColor"
     class="ColorScheme-Background"
     id="path-5-outside-1_817_315"
     maskUnits="userSpaceOnUse"
     x="44"
     y="52"
     width="36"
     height="44">
    <rect
       fill="white"
       x="44"
       y="52"
       width="36"
       height="44"
       id="rect4" />
    <path
       fill-rule="evenodd"
       clip-rule="evenodd"
       d="M62 74C67.5228 74 72 69.5228 72 64C72 58.4772 67.5228 54 62 54C56.4772 54 52 58.4772 52 64C52 69.5228 56.4772 74 62 74ZM46 89.6364C46 83.2098 53.1634 78 62 78C70.8366 78 78 83.2098 78 89.6364V92C78 93.1046 77.1046 94 76 94H48C46.8954 94 46 93.1046 46 92V89.6364Z"
       id="path5" />
  </mask>
  <path
     fill-rule="evenodd"
     clip-rule="evenodd"
     d="M62 74C67.5228 74 72 69.5228 72 64C72 58.4772 67.5228 54 62 54C56.4772 54 52 58.4772 52 64C52 69.5228 56.4772 74 62 74ZM46 89.6364C46 83.2098 53.1634 78 62 78C70.8366 78 78 83.2098 78 89.6364V92C78 93.1046 77.1046 94 76 94H48C46.8954 94 46 93.1046 46 92V89.6364Z"
     fill="url(#paint2_linear_817_315)"
     id="path6" />
  <path
     d="M70 64C70 68.4183 66.4183 72 62 72V76C68.6274 76 74 70.6274 74 64H70ZM62 56C66.4183 56 70 59.5817 70 64H74C74 57.3726 68.6274 52 62 52V56ZM54 64C54 59.5817 57.5817 56 62 56V52C55.3726 52 50 57.3726 50 64H54ZM62 72C57.5817 72 54 68.4183 54 64H50C50 70.6274 55.3726 76 62 76V72ZM62 76C57.2049 76 52.7826 77.4107 49.5099 79.7907C46.2393 82.1694 44 85.6255 44 89.6364H48C48 87.2206 49.3424 84.8586 51.8626 83.0257C54.3809 81.1942 57.9585 80 62 80V76ZM80 89.6364C80 85.6255 77.7607 82.1694 74.4901 79.7907C71.2174 77.4107 66.7951 76 62 76V80C66.0415 80 69.6191 81.1942 72.1374 83.0257C74.6576 84.8586 76 87.2206 76 89.6364H80ZM80 92V89.6364H76V92H80ZM76 96C78.2091 96 80 94.2091 80 92H76V96ZM48 96H76V92H48V96ZM44 92C44 94.2091 45.7909 96 48 96V92H44ZM44 89.6364V92H48V89.6364H44Z"
     fill="url(#paint3_linear_817_315)"
     mask="url(#path-5-outside-1_817_315)"
     id="path7" />
  <path
     fill-rule="evenodd"
     clip-rule="evenodd"
     d="M62 74C67.5228 74 72 69.5228 72 64C72 58.4772 67.5228 54 62 54C56.4772 54 52 58.4772 52 64C52 69.5228 56.4772 74 62 74ZM46 89.6364C46 83.2098 53.1634 78 62 78C70.8366 78 78 83.2098 78 89.6364V92C78 93.1046 77.1046 94 76 94H48C46.8954 94 46 93.1046 46 92V89.6364Z"
     fill="url(#paint4_linear_817_315)"
     id="path8"
     style="fill:#ffffff;fill-opacity:1" />
  <defs
     id="defs17">
    <linearGradient
       id="paint0_linear_817_315"
       x1="58.1176"
       y1="37.8209"
       x2="63.072"
       y2="110.28"
       gradientUnits="userSpaceOnUse">
      <stop
         style="stop-color:currentColor"
         class="ColorScheme-Highlight"
         id="stop8" />
      <stop
         offset="1"
         style="stop-color:currentColor"
         class="ColorScheme-Highlight"
         id="stop9" />
    </linearGradient>
    <linearGradient
       id="paint1_linear_817_315"
       x1="76"
       y1="58"
       x2="76"
       y2="88"
       gradientUnits="userSpaceOnUse">
      <stop
         stop-color="#EFF3F5"
         id="stop10" />
      <stop
         offset="1"
         stop-color="#B4D8F1"
         id="stop11" />
    </linearGradient>
    <linearGradient
       id="paint2_linear_817_315"
       x1="62"
       y1="54"
       x2="62"
       y2="94"
       gradientUnits="userSpaceOnUse">
      <stop
         stop-color="#EFF3F5"
         id="stop12" />
      <stop
         offset="1"
         stop-color="#B4D8F1"
         id="stop13" />
    </linearGradient>
    <linearGradient
       id="paint3_linear_817_315"
       x1="62"
       y1="54"
       x2="62"
       y2="94"
       gradientUnits="userSpaceOnUse">
      <stop
         offset="1"
         style="stop-color:currentColor"
         class="ColorScheme-Highlight"
         id="stop14" />
      <stop
         offset="1"
         stop-color="#217EE4"
         id="stop15" />
    </linearGradient>
    <linearGradient
       id="paint4_linear_817_315"
       x1="62"
       y1="54"
       x2="62"
       y2="94"
       gradientUnits="userSpaceOnUse">
      <stop
         stop-color="#EFF3F5"
         id="stop16" />
      <stop
         offset="1"
         stop-color="#B4D8F1"
         id="stop17" />
    </linearGradient>
  </defs>
</svg>
