<?xml version="1.0" encoding="UTF-8" standalone="no"?>
<svg
   width="128"
   height="128"
   viewBox="0 0 128 128"
   fill="none"
   version="1.1"
   id="svg7"
   sodipodi:docname="folder-recent.svg"
   inkscape:version="1.4 (e7c3feb100, 2024-10-09)"
   xmlns:inkscape="http://www.inkscape.org/namespaces/inkscape"
   xmlns:sodipodi="http://sodipodi.sourceforge.net/DTD/sodipodi-0.dtd"
   xmlns="http://www.w3.org/2000/svg"
   xmlns:svg="http://www.w3.org/2000/svg">
  <sodipodi:namedview
     id="namedview7"
     pagecolor="#ffffff"
     bordercolor="#000000"
     borderopacity="0.25"
     inkscape:showpageshadow="2"
     inkscape:pageopacity="0.0"
     inkscape:pagecheckerboard="0"
     inkscape:deskcolor="#d1d1d1"
     inkscape:zoom="5.8046875"
     inkscape:cx="63.913863"
     inkscape:cy="64"
     inkscape:window-width="1920"
     inkscape:window-height="952"
     inkscape:window-x="0"
     inkscape:window-y="0"
     inkscape:window-maximized="1"
     inkscape:current-layer="svg7" />
  <defs
     id="defs1">
    <style
       id="current-color-scheme"
       type="text/css">
        .ColorScheme-Text { color:#e6f0f5; }
        .ColorScheme-Highlight { color:#2179cb; }
        .ColorScheme-Background { color:#e4e4e4; }
    </style>
  </defs>
  <path
     style="fill:currentColor;opacity:0.5"
     class="ColorScheme-Highlight"
     d="M20 20V88C20 91.3137 22.6863 94 26 94H102C105.314 94 108 91.3137 108 88V26.4C108 23.0863 105.314 20.4 102 20.4H63.7061C62.0242 20.4 60.4196 19.6941 59.2832 18.4544L56.9835 15.9457C55.8471 14.7059 54.2424 14 52.5606 14L26 14C22.6863 14 20 16.6863 20 20Z"
     id="path1" />
  <path
     style="fill:currentColor"
     class="ColorScheme-Background"
     d="M14 50.4C14 45.9817 17.5817 42.4 22 42.4H48.7224C50.9612 42.4 53.0975 41.4619 54.6125 39.8136L55.7405 38.5864C57.2554 36.9381 59.3918 36 61.6305 36H106C110.418 36 114 39.5817 114 44V108C114 112.418 110.418 116 106 116H22C17.5817 116 14 112.418 14 108L14 50.4Z"
     fill-opacity="0.15"
     id="path2" />
  <path
     d="M14 48.4C14 43.9817 17.5817 40.4 22 40.4H48.7224C50.9612 40.4 53.0975 39.4619 54.6125 37.8136L55.7405 36.5864C57.2554 34.9381 59.3918 34 61.6305 34H106C110.418 34 114 37.5817 114 42V106C114 110.418 110.418 114 106 114H22C17.5817 114 14 110.418 14 106L14 48.4Z"
     fill="url(#paint0_linear_877_103)"
     id="path3" />
  <path
     id="circle3"
     style="fill:#ffffff;fill-opacity:1"
     d="M 64 53 A 21 21 0 0 0 43 74 A 21 21 0 0 0 64 95 A 21 21 0 0 0 85 74 A 21 21 0 0 0 64 53 z M 63.939453 60 L 64.080078 60 C 64.600178 60 65.032972 60.399669 65.076172 60.917969 L 65.931641 71.169922 C 65.971641 71.650422 66.348425 72.034031 66.828125 72.082031 L 75.099609 72.910156 C 75.610809 72.961256 76 73.390497 76 73.904297 L 76 74.068359 C 76 74.592959 75.593713 75.029106 75.070312 75.066406 L 63.140625 75.917969 C 62.536925 75.961069 62.034566 75.463475 62.072266 74.859375 L 62.941406 60.9375 C 62.974306 60.4105 63.411353 60 63.939453 60 z " />
  <defs
     id="defs7">
    <linearGradient
       id="paint0_linear_877_103"
       x1="58.1176"
       y1="37.8209"
       x2="63.072"
       y2="110.28"
       gradientUnits="userSpaceOnUse">
      <stop
         style="stop-color:currentColor"
         class="ColorScheme-Highlight"
         id="stop4" />
      <stop
         offset="1"
         style="stop-color:currentColor"
         class="ColorScheme-Highlight"
         id="stop5" />
    </linearGradient>
    <linearGradient
       id="paint1_linear_877_103"
       x1="64"
       y1="54.1351"
       x2="64"
       y2="95"
       gradientUnits="userSpaceOnUse">
      <stop
         stop-color="#EFF3F5"
         id="stop6" />
      <stop
         offset="1"
         stop-color="#B4D8F1"
         id="stop7" />
    </linearGradient>
  </defs>
</svg>
