<?xml version="1.0" encoding="UTF-8" standalone="no"?>
<svg xmlns:inkscape="http://www.inkscape.org/namespaces/inkscape" xmlns:sodipodi="http://sodipodi.sourceforge.net/DTD/sodipodi-0.dtd" xmlns="http://www.w3.org/2000/svg" xmlns:svg="http://www.w3.org/2000/svg" width="24" height="24" viewBox="0 0 24 24" fill="none" version="1.1" id="svg2" sodipodi:docname="folder-documents.svg" inkscape:version="1.4 (e7c3feb100, 2024-10-09)">
  <defs id="defs1">
    <style id="current-color-scheme" type="text/css">
      .ColorScheme-Text { color:#e6f0f5; }
      .ColorScheme-Highlight { color:#2179cb; }
      .ColorScheme-Background { color:#e4e4e4; }
    </style>
  </defs>
  <sodipodi:namedview id="namedview2" pagecolor="#ffffff" bordercolor="#000000" borderopacity="0.25" inkscape:showpageshadow="2" inkscape:pageopacity="0.0" inkscape:pagecheckerboard="0" inkscape:deskcolor="#d1d1d1" inkscape:zoom="33.291667" inkscape:cx="11.984981" inkscape:cy="12" inkscape:window-width="1920" inkscape:window-height="1008" inkscape:window-x="0" inkscape:window-y="0" inkscape:window-maximized="1" inkscape:current-layer="svg2"/>
  <g clip-path="url(#clip0_889_185)" id="g2">
    <path id="path2" d="m 14,4 v 3 c 0,0.55228 0.4477,1 1,1 h 3 M 6,5 C 6,4.44772 6.44772,4 7,4 h 7 c 0.2568,0 0.5037,0.09877 0.6897,0.27586 l 3,2.85715 C 17.8878,7.32175 18,7.58347 18,7.85714 V 19 c 0,0.5523 -0.4477,1 -1,1 H 7 C 6.44772,20 6,19.5523 6,19 Z" style="stroke:#000000;stroke-opacity:1"/>
    <path id="path2" d="m 14,4 v 3 c 0,0.55228 0.4477,1 1,1 h 3 M 6,5 C 6,4.44772 6.44772,4 7,4 h 7 c 0.2568,0 0.5037,0.09877 0.6897,0.27586 l 3,2.85715 C 17.8878,7.32175 18,7.58347 18,7.85714 V 19 c 0,0.5523 -0.4477,1 -1,1 H 7 C 6.44772,20 6,19.5523 6,19 Z" style="stroke:currentColor;opacity:0.5;" class="ColorScheme-Highlight"/>
  </g>
  <defs id="defs2">
    <clipPath id="clip0_889_185">
      <rect width="24" height="24" fill="white" id="rect2"/>
    </clipPath>
  </defs>
</svg>
