<?xml version="1.0"?>
<svg xmlns="http://www.w3.org/2000/svg" width="24" height="24" viewBox="0 0 24 24" fill="none">
    <defs id="defs1">
        <style id="current-color-scheme" type="text/css">
            .ColorScheme-Text { color:#e6f0f5; }
            .ColorScheme-Highlight { color:#2179cb; }
            .ColorScheme-Background { color:#e4e4e4; }
        </style>
    </defs>
    <g clip-path="url(#clip0_950_514)">
        <path d="M8.5 5.75686L10.5514 4.72715C11.2164 4.39335 12 4.87681 12 5.62087V9.5M4.91674 7.55552L3.55139 8.24087C3.21337 8.41054 3 8.75639 3 9.1346V12V14.8654C3 15.2436 3.21337 15.5895 3.55138 15.7591L10.5514 19.2729C11.2164 19.6067 12 19.1232 12 18.3791V14.5" stroke="#111111" stroke-width="1.2" stroke-linecap="round"/>
        <path opacity="0.2" d="M15 9C16.2183 9.70015 17 10.7837 17 12C17 12.5825 16.8207 13.1346 16.5 13.6287" stroke="black" stroke-width="1.2" stroke-linecap="round"/>
        <path opacity="0.2" d="M18 6C19.8274 7.4003 21 9.56749 21 12C21 13.6756 20.4436 15.2254 19.5 16.4853" stroke="black" stroke-width="1.2" stroke-linecap="round"/>
        <path d="M4 4L20 20" stroke="#111111" stroke-width="1.2" stroke-linecap="round"/>
        <path d="M8.5 5.75686L10.5514 4.72715C11.2164 4.39335 12 4.87681 12 5.62087V9.5M4.91674 7.55552L3.55139 8.24087C3.21337 8.41054 3 8.75639 3 9.1346V12V14.8654C3 15.2436 3.21337 15.5895 3.55138 15.7591L10.5514 19.2729C11.2164 19.6067 12 19.1232 12 18.3791V14.5" style="stroke:currentColor;opacity:0.5;stroke-width:1.2" class="ColorScheme-Highlight" stroke-width="1.2" stroke-linecap="round"/>
        <path opacity="0.2" d="M15 9C16.2183 9.70015 17 10.7837 17 12C17 12.5825 16.8207 13.1346 16.5 13.6287" stroke="black" stroke-width="1.2" stroke-linecap="round"/>
        <path opacity="0.2" d="M18 6C19.8274 7.4003 21 9.56749 21 12C21 13.6756 20.4436 15.2254 19.5 16.4853" stroke="black" stroke-width="1.2" stroke-linecap="round"/>
        <path d="M4 4L20 20" style="stroke:currentColor;opacity:0.5;stroke-width:1.2" class="ColorScheme-Highlight" stroke-width="1.2" stroke-linecap="round"/>
    </g>
    <defs>
        <clipPath id="clip0_950_514">
            <rect width="24" height="24" fill="white"/>
        </clipPath>
    </defs>
</svg>
