<?xml version="1.0" encoding="UTF-8" standalone="no"?>
<svg xmlns:inkscape="http://www.inkscape.org/namespaces/inkscape" xmlns:sodipodi="http://sodipodi.sourceforge.net/DTD/sodipodi-0.dtd" xmlns="http://www.w3.org/2000/svg" xmlns:svg="http://www.w3.org/2000/svg" width="24" height="24" viewBox="0 0 24 24" fill="none" version="1.1" id="svg1" sodipodi:docname="media-playback-playing.svg" inkscape:version="1.4 (e7c3feb100, 2024-10-09)">
  <defs id="defs1">
    <style id="current-color-scheme" type="text/css">
      .ColorScheme-Text { color:#e6f0f5; }
      .ColorScheme-Highlight { color:#2179cb; }
      .ColorScheme-Background { color:#e4e4e4; }
    </style>
  </defs>
  <sodipodi:namedview id="namedview1" pagecolor="#ffffff" bordercolor="#000000" borderopacity="0.25" inkscape:showpageshadow="2" inkscape:pageopacity="0.0" inkscape:pagecheckerboard="0" inkscape:deskcolor="#d1d1d1" inkscape:zoom="30.958333" inkscape:cx="11.983849" inkscape:cy="12" inkscape:window-width="1920" inkscape:window-height="952" inkscape:window-x="0" inkscape:window-y="0" inkscape:window-maximized="1" inkscape:current-layer="svg1"/>
  <g clip-path="url(#clip0_963_97)" id="g1">
    <circle cx="12" cy="12" r="8" stroke="#111111" stroke-width="1.2" id="circle1"/>
    <path d="m 11.264116,8.2115487 4.087164,2.7247293 c 0.759089,0.506102 0.759089,1.621341 0,2.127443 l -4.087164,2.724691 c -0.849597,0.56644 -1.9874626,-0.04257 -1.9874626,-1.063594 V 9.2752061 c 0,-1.0210241 1.1378656,-1.6300208 1.9874626,-1.0636574 z" fill="#111111" stroke="#111111" stroke-width="1.53403" id="path1" style="stroke:none"/>
    <circle cx="12" cy="12" r="8" style="stroke:currentColor;opacity:0.5;stroke-width:1.2" class="ColorScheme-Highlight" stroke-width="1.2" id="circle1"/>
    <path d="m 11.264116,8.2115487 4.087164,2.7247293 c 0.759089,0.506102 0.759089,1.621341 0,2.127443 l -4.087164,2.724691 c -0.849597,0.56644 -1.9874626,-0.04257 -1.9874626,-1.063594 V 9.2752061 c 0,-1.0210241 1.1378656,-1.6300208 1.9874626,-1.0636574 z" id="path1" style="fill:currentColor;opacity:0.5;stroke-width:1.2" class="ColorScheme-Highlight"/>
  </g>
  <defs id="defs1">
    <clipPath id="clip0_963_97">
      <rect width="24" height="24" fill="white" id="rect1"/>
    </clipPath>
  </defs>
</svg>
