<svg width="24" height="24" viewBox="0 0 24 24" fill="none" xmlns="http://www.w3.org/2000/svg">
<path d="M12 8L15 12.3787L13.2414 12.3787L13.2414 14.2702C13.2414 15.2224 12.4695 15.9943 11.5172 15.9943C11.0411 15.9943 10.6552 15.6084 10.6552 15.1323L10.6552 12.3787L9 12.3787L12 8Z" stroke="#111111" stroke-width="1.2" stroke-linejoin="round"/>
<path d="M4 18V15H7" stroke="#111111" stroke-width="1.2" stroke-linecap="round" stroke-linejoin="round"/>
<path d="M4 12C4 7.58172 7.58172 4 12 4C16.4183 4 20 7.58172 20 12C20 13.0609 19.7935 14.0736 19.4185 15M4.64957 15.1629C5.87552 18.0081 8.70515 20 12 20C13.0609 20 14.0736 19.7935 15 19.4185" stroke="#111111" stroke-width="1.2" stroke-linecap="round"/>
<circle cx="18" cy="18" r="2" fill="#111111"/>
</svg>
