<svg width="128" height="128" viewBox="0 0 128 128" fill="none" xmlns="http://www.w3.org/2000/svg">
<g clip-path="url(#clip0_731_706)">
<rect x="9" y="26" width="110" height="80" rx="6" fill="black" fill-opacity="0.15"/>
<rect x="9" y="24" width="110" height="80" rx="6" fill="url(#paint0_linear_731_706)"/>
<path d="M28.4415 86.6365L22.5585 100.364C21.613 102.57 19.4438 104 17.0436 104H30H98H110.956C108.556 104 106.387 102.57 105.442 100.364L99.5585 86.6365C98.613 84.4304 96.4438 83 94.0436 83H64H33.9564C31.5562 83 29.387 84.4304 28.4415 86.6365Z" fill="url(#paint1_linear_731_706)"/>
<rect x="14" y="33" width="100" height="42" rx="4" fill="url(#paint2_linear_731_706)"/>
<rect x="27" y="44" width="74" height="24" rx="12" fill="black" fill-opacity="0.15"/>
<rect x="27" y="42" width="74" height="24" rx="12" fill="url(#paint3_linear_731_706)"/>
<rect x="32" y="48" width="14" height="14" rx="7" fill="black" fill-opacity="0.15"/>
<rect x="82" y="48" width="14" height="14" rx="7" fill="black" fill-opacity="0.15"/>
<rect x="32" y="47" width="14" height="14" rx="7" fill="url(#paint4_linear_731_706)"/>
<rect x="82" y="47" width="14" height="14" rx="7" fill="url(#paint5_linear_731_706)"/>
</g>
<defs>
<linearGradient id="paint0_linear_731_706" x1="45.5666" y1="34.1818" x2="72.3105" y2="107.905" gradientUnits="userSpaceOnUse">
<stop stop-color="#505A62"/>
<stop offset="1" stop-color="#1F1F1F"/>
</linearGradient>
<linearGradient id="paint1_linear_731_706" x1="49.5884" y1="85.6727" x2="52.2167" y2="107.252" gradientUnits="userSpaceOnUse">
<stop stop-color="#5A6978"/>
<stop offset="1" stop-color="#3C3B3B"/>
</linearGradient>
<linearGradient id="paint2_linear_731_706" x1="61.2222" y1="35.8" x2="59.7487" y2="69.081" gradientUnits="userSpaceOnUse">
<stop stop-color="#7DCCB0"/>
<stop offset="1" stop-color="#38B8E1"/>
</linearGradient>
<linearGradient id="paint3_linear_731_706" x1="51.5993" y1="45.0545" x2="55.5448" y2="69.4438" gradientUnits="userSpaceOnUse">
<stop stop-color="#505A62"/>
<stop offset="1" stop-color="#1F1F1F"/>
</linearGradient>
<linearGradient id="paint4_linear_731_706" x1="39" y1="47" x2="39" y2="61" gradientUnits="userSpaceOnUse">
<stop stop-color="#EFF3F5"/>
<stop offset="1" stop-color="#D9E0E4"/>
</linearGradient>
<linearGradient id="paint5_linear_731_706" x1="89" y1="47" x2="89" y2="61" gradientUnits="userSpaceOnUse">
<stop stop-color="#EFF3F5"/>
<stop offset="1" stop-color="#D9E0E4"/>
</linearGradient>
<clipPath id="clip0_731_706">
<rect width="128" height="128" fill="white"/>
</clipPath>
</defs>
</svg>
