<svg width="128" height="128" viewBox="0 0 128 128" fill="none" xmlns="http://www.w3.org/2000/svg">
<g clip-path="url(#clip0_731_721)">
<rect x="19" y="16" width="90" height="100" rx="6" fill="black" fill-opacity="0.15"/>
<rect x="19" y="14" width="90" height="100" rx="6" fill="url(#paint0_linear_731_721)"/>
<rect x="24" y="19" width="8" height="10" rx="2" fill="url(#paint1_linear_731_721)"/>
<rect x="44" y="19" width="40" height="38" rx="2" fill="url(#paint2_linear_731_721)"/>
<rect x="44" y="71" width="40" height="38" rx="2" fill="url(#paint3_linear_731_721)"/>
<rect x="96" y="19" width="8" height="10" rx="2" fill="url(#paint4_linear_731_721)"/>
<rect x="24" y="35" width="8" height="10" rx="2" fill="url(#paint5_linear_731_721)"/>
<rect x="96" y="35" width="8" height="10" rx="2" fill="url(#paint6_linear_731_721)"/>
<rect x="24" y="51" width="8" height="10" rx="2" fill="url(#paint7_linear_731_721)"/>
<rect x="96" y="51" width="8" height="10" rx="2" fill="url(#paint8_linear_731_721)"/>
<rect x="24" y="67" width="8" height="10" rx="2" fill="url(#paint9_linear_731_721)"/>
<rect x="96" y="67" width="8" height="10" rx="2" fill="url(#paint10_linear_731_721)"/>
<rect x="24" y="83" width="8" height="10" rx="2" fill="url(#paint11_linear_731_721)"/>
<rect x="96" y="83" width="8" height="10" rx="2" fill="url(#paint12_linear_731_721)"/>
<rect x="24" y="99" width="8" height="10" rx="2" fill="url(#paint13_linear_731_721)"/>
<rect x="96" y="99" width="8" height="10" rx="2" fill="url(#paint14_linear_731_721)"/>
</g>
<defs>
<linearGradient id="paint0_linear_731_721" x1="48.9181" y1="26.7273" x2="93.132" y2="106.505" gradientUnits="userSpaceOnUse">
<stop stop-color="#505A62"/>
<stop offset="1" stop-color="#1F1F1F"/>
</linearGradient>
<linearGradient id="paint1_linear_731_721" x1="28" y1="19" x2="28" y2="29" gradientUnits="userSpaceOnUse">
<stop stop-color="#DBE4E8"/>
<stop offset="1" stop-color="#B9C3C7"/>
</linearGradient>
<linearGradient id="paint2_linear_731_721" x1="64" y1="19" x2="64" y2="57" gradientUnits="userSpaceOnUse">
<stop stop-color="#DBE4E8"/>
<stop offset="1" stop-color="#B9C3C7"/>
</linearGradient>
<linearGradient id="paint3_linear_731_721" x1="64" y1="71" x2="64" y2="109" gradientUnits="userSpaceOnUse">
<stop stop-color="#DBE4E8"/>
<stop offset="1" stop-color="#B9C3C7"/>
</linearGradient>
<linearGradient id="paint4_linear_731_721" x1="100" y1="19" x2="100" y2="29" gradientUnits="userSpaceOnUse">
<stop stop-color="#DBE4E8"/>
<stop offset="1" stop-color="#B9C3C7"/>
</linearGradient>
<linearGradient id="paint5_linear_731_721" x1="28" y1="35" x2="28" y2="45" gradientUnits="userSpaceOnUse">
<stop stop-color="#DBE4E8"/>
<stop offset="1" stop-color="#B9C3C7"/>
</linearGradient>
<linearGradient id="paint6_linear_731_721" x1="100" y1="35" x2="100" y2="45" gradientUnits="userSpaceOnUse">
<stop stop-color="#DBE4E8"/>
<stop offset="1" stop-color="#B9C3C7"/>
</linearGradient>
<linearGradient id="paint7_linear_731_721" x1="28" y1="51" x2="28" y2="61" gradientUnits="userSpaceOnUse">
<stop stop-color="#DBE4E8"/>
<stop offset="1" stop-color="#B9C3C7"/>
</linearGradient>
<linearGradient id="paint8_linear_731_721" x1="100" y1="51" x2="100" y2="61" gradientUnits="userSpaceOnUse">
<stop stop-color="#DBE4E8"/>
<stop offset="1" stop-color="#B9C3C7"/>
</linearGradient>
<linearGradient id="paint9_linear_731_721" x1="28" y1="67" x2="28" y2="77" gradientUnits="userSpaceOnUse">
<stop stop-color="#DBE4E8"/>
<stop offset="1" stop-color="#B9C3C7"/>
</linearGradient>
<linearGradient id="paint10_linear_731_721" x1="100" y1="67" x2="100" y2="77" gradientUnits="userSpaceOnUse">
<stop stop-color="#DBE4E8"/>
<stop offset="1" stop-color="#B9C3C7"/>
</linearGradient>
<linearGradient id="paint11_linear_731_721" x1="28" y1="83" x2="28" y2="93" gradientUnits="userSpaceOnUse">
<stop stop-color="#DBE4E8"/>
<stop offset="1" stop-color="#B9C3C7"/>
</linearGradient>
<linearGradient id="paint12_linear_731_721" x1="100" y1="83" x2="100" y2="93" gradientUnits="userSpaceOnUse">
<stop stop-color="#DBE4E8"/>
<stop offset="1" stop-color="#B9C3C7"/>
</linearGradient>
<linearGradient id="paint13_linear_731_721" x1="28" y1="99" x2="28" y2="109" gradientUnits="userSpaceOnUse">
<stop stop-color="#DBE4E8"/>
<stop offset="1" stop-color="#B9C3C7"/>
</linearGradient>
<linearGradient id="paint14_linear_731_721" x1="100" y1="99" x2="100" y2="109" gradientUnits="userSpaceOnUse">
<stop stop-color="#DBE4E8"/>
<stop offset="1" stop-color="#B9C3C7"/>
</linearGradient>
<clipPath id="clip0_731_721">
<rect width="128" height="128" fill="white"/>
</clipPath>
</defs>
</svg>
