<svg width="128" height="128" viewBox="0 0 128 128" fill="none" xmlns="http://www.w3.org/2000/svg">
<path fill-rule="evenodd" clip-rule="evenodd" d="M64 116C91.6142 116 114 93.6142 114 66C114 38.3858 91.6142 16 64 16C36.3858 16 14 38.3858 14 66C14 93.6142 36.3858 116 64 116ZM64 91C77.8071 91 89 79.8071 89 66C89 52.1929 77.8071 41 64 41C50.1929 41 39 52.1929 39 66C39 79.8071 50.1929 91 64 91Z" fill="black" fill-opacity="0.15"/>
<path fill-rule="evenodd" clip-rule="evenodd" d="M64 114C91.6142 114 114 91.6142 114 64C114 36.3858 91.6142 14 64 14C36.3858 14 14 36.3858 14 64C14 91.6142 36.3858 114 64 114ZM64 89C77.8071 89 89 77.8071 89 64C89 50.1929 77.8071 39 64 39C50.1929 39 39 50.1929 39 64C39 77.8071 50.1929 89 64 89Z" fill="url(#paint0_linear_731_427)"/>
<rect x="56" y="11" width="16" height="36" rx="6" fill="black" fill-opacity="0.15"/>
<rect x="56" y="85" width="16" height="36" rx="6" fill="black" fill-opacity="0.15"/>
<rect x="119" y="58" width="16" height="36" rx="6" transform="rotate(90 119 58)" fill="black" fill-opacity="0.15"/>
<rect x="45" y="58" width="16" height="36" rx="6" transform="rotate(90 45 58)" fill="black" fill-opacity="0.15"/>
<rect x="56" y="9" width="16" height="36" rx="6" fill="url(#paint1_linear_731_427)"/>
<rect x="56" y="83" width="16" height="36" rx="6" fill="url(#paint2_linear_731_427)"/>
<rect x="119" y="56" width="16" height="36" rx="6" transform="rotate(90 119 56)" fill="url(#paint3_linear_731_427)"/>
<rect x="45" y="56" width="16" height="36" rx="6" transform="rotate(90 45 56)" fill="url(#paint4_linear_731_427)"/>
<defs>
<linearGradient id="paint0_linear_731_427" x1="64" y1="14" x2="64" y2="114" gradientUnits="userSpaceOnUse">
<stop stop-color="#FF9C71"/>
<stop offset="0.606666" stop-color="#FF6B00"/>
<stop offset="1" stop-color="#D05C1B"/>
</linearGradient>
<linearGradient id="paint1_linear_731_427" x1="64" y1="9" x2="64" y2="45" gradientUnits="userSpaceOnUse">
<stop stop-color="#EFF3F5"/>
<stop offset="1" stop-color="#D9E0E4"/>
</linearGradient>
<linearGradient id="paint2_linear_731_427" x1="64" y1="83" x2="64" y2="119" gradientUnits="userSpaceOnUse">
<stop stop-color="#E0EAEE"/>
<stop offset="1" stop-color="#CCD1D4"/>
</linearGradient>
<linearGradient id="paint3_linear_731_427" x1="119" y1="74" x2="135" y2="74" gradientUnits="userSpaceOnUse">
<stop stop-color="#EFF3F5"/>
<stop offset="1" stop-color="#D9E0E4"/>
</linearGradient>
<linearGradient id="paint4_linear_731_427" x1="45" y1="74" x2="61" y2="74" gradientUnits="userSpaceOnUse">
<stop stop-color="#EFF3F5"/>
<stop offset="1" stop-color="#D9E0E4"/>
</linearGradient>
</defs>
</svg>
