<svg width="128" height="128" viewBox="0 0 128 128" fill="none" xmlns="http://www.w3.org/2000/svg">
<g clip-path="url(#clip0_731_763)">
<rect x="14" y="16" width="100" height="100" rx="10" fill="black" fill-opacity="0.15"/>
<rect x="14" y="14" width="100" height="100" rx="10" fill="url(#paint0_linear_731_763)"/>
<path d="M67.9419 43.0373C70.3979 43.0373 71.8656 40.3031 70.5083 38.2562L66.1122 31.6266C65.4386 30.6107 64.3008 30 63.0819 30C59.9469 30 58.2815 33.7019 60.361 36.0479L65.6376 42.0006C66.222 42.6599 67.0609 43.0373 67.9419 43.0373Z" fill="black" fill-opacity="0.15"/>
<path d="M74.0112 89.8645V65.0428C74.0112 63.1414 73.623 61.4926 72.8466 60.0963C72.1 58.6702 70.9653 57.571 69.4423 56.7986C67.9194 56.0261 66.0381 55.6399 63.7984 55.6399C61.7081 55.6399 59.8716 55.9964 58.2889 56.7094C56.7361 57.4225 55.5118 58.3583 54.6159 59.5169C54.5034 59.6674 54.3983 59.8419 54.3004 60.0317C53.4049 61.7685 51.8854 63.2602 49.9313 63.2602H49.5863C47.1716 63.2602 45.1967 61.0853 46.0631 58.8313C46.1599 58.5794 46.2636 58.3442 46.374 58.1355C47.2699 56.4421 48.5539 54.9121 50.2262 53.5455C51.9283 52.1491 53.9589 51.0499 56.318 50.2478C58.707 49.4159 61.3647 49 64.2912 49C67.8149 49 70.9205 49.5942 73.6081 50.7825C76.3255 51.9709 78.4457 53.7683 79.9686 56.1747C81.5215 58.5514 82.2979 61.5371 82.2979 65.1319V87.5918C82.2979 89.1961 82.4323 90.9043 82.701 92.7166C82.9725 94.3643 83.3551 94.6495 83.8488 95.6702C83.953 95.8855 84 96.1234 84 96.3626C84 97.327 83.2182 98.1087 82.2539 98.1087H78.2272C76.5107 98.1087 74.9545 97.0196 74.57 95.3468C74.489 94.9943 74.4186 94.6441 74.3695 94.3209C74.1306 92.7166 74.0112 91.2311 74.0112 89.8645ZM75.4446 68.8752L75.5342 74.6684H67.1579C64.7988 74.6684 62.6935 74.8616 60.8421 75.2478C58.9907 75.6043 57.4378 76.1539 56.1837 76.8966C54.9295 77.6393 53.9739 78.5752 53.3169 79.7041C52.6599 80.8033 52.3315 82.0957 52.3315 83.5811C52.3315 85.0963 52.6749 86.4777 53.3617 87.7255C54.0485 88.9733 55.0788 89.9685 56.4524 90.7112C57.8559 91.4242 59.573 91.7807 61.6036 91.7807C64.1418 91.7807 66.3815 91.246 68.3225 90.1765C70.2635 89.1069 71.8014 87.7998 72.9362 86.2549C74.1008 84.71 74.7279 83.2097 74.8175 81.754L78.3561 85.7201C78.1471 86.9679 77.5797 88.3494 76.654 89.8645C75.7283 91.3797 74.489 92.8354 72.9362 94.2317C71.4132 95.5983 69.5916 96.7421 67.4714 97.6631C65.3811 98.5544 63.022 99 60.3942 99C57.1094 99 54.2277 98.3613 51.7492 97.0838C49.3005 95.8063 47.3893 94.098 46.0157 91.959C44.6719 89.7903 44 87.369 44 84.6952C44 82.1105 44.5077 79.8378 45.523 77.877C46.5383 75.8865 48.0015 74.2377 49.9127 72.9305C51.8238 71.5936 54.1232 70.5835 56.8108 69.9002C59.4983 69.2169 62.4994 68.8752 65.8141 68.8752H75.4446Z" fill="black" fill-opacity="0.15"/>
<path d="M67.9419 41.0373C70.3979 41.0373 71.8656 38.3031 70.5083 36.2562L66.1122 29.6266C65.4386 28.6107 64.3008 28 63.0819 28C59.9469 28 58.2815 31.7019 60.361 34.0479L65.6376 40.0006C66.222 40.6599 67.0609 41.0373 67.9419 41.0373Z" fill="#ECF7FD"/>
<path d="M74.0112 87.8645V63.0428C74.0112 61.1414 73.623 59.4926 72.8466 58.0963C72.1 56.6702 70.9653 55.571 69.4423 54.7986C67.9194 54.0261 66.0381 53.6399 63.7984 53.6399C61.7081 53.6399 59.8716 53.9964 58.2889 54.7094C56.7361 55.4225 55.5118 56.3583 54.6159 57.5169C54.5034 57.6674 54.3983 57.8419 54.3004 58.0317C53.4049 59.7685 51.8854 61.2602 49.9313 61.2602H49.5863C47.1716 61.2602 45.1967 59.0853 46.0631 56.8313C46.1599 56.5794 46.2636 56.3442 46.374 56.1355C47.2699 54.4421 48.5539 52.9121 50.2262 51.5455C51.9283 50.1491 53.9589 49.0499 56.318 48.2478C58.707 47.4159 61.3647 47 64.2912 47C67.8149 47 70.9205 47.5942 73.6081 48.7825C76.3255 49.9709 78.4457 51.7683 79.9686 54.1747C81.5215 56.5514 82.2979 59.5371 82.2979 63.1319V85.5918C82.2979 87.1961 82.4323 88.9043 82.701 90.7166C82.9725 92.3643 83.3551 92.6495 83.8488 93.6702C83.953 93.8855 84 94.1234 84 94.3626C84 95.327 83.2182 96.1087 82.2539 96.1087H78.2272C76.5107 96.1087 74.9545 95.0196 74.57 93.3468C74.489 92.9943 74.4186 92.6441 74.3695 92.3209C74.1306 90.7166 74.0112 89.2311 74.0112 87.8645ZM75.4446 66.8752L75.5342 72.6684H67.1579C64.7988 72.6684 62.6935 72.8616 60.8421 73.2478C58.9907 73.6043 57.4378 74.1539 56.1837 74.8966C54.9295 75.6393 53.9739 76.5752 53.3169 77.7041C52.6599 78.8033 52.3315 80.0957 52.3315 81.5811C52.3315 83.0963 52.6749 84.4777 53.3617 85.7255C54.0485 86.9733 55.0788 87.9685 56.4524 88.7112C57.8559 89.4242 59.573 89.7807 61.6036 89.7807C64.1418 89.7807 66.3815 89.246 68.3225 88.1765C70.2635 87.1069 71.8014 85.7998 72.9362 84.2549C74.1008 82.71 74.7279 81.2097 74.8175 79.754L78.3561 83.7201C78.1471 84.9679 77.5797 86.3494 76.654 87.8645C75.7283 89.3797 74.489 90.8354 72.9362 92.2317C71.4132 93.5983 69.5916 94.7421 67.4714 95.6631C65.3811 96.5544 63.022 97 60.3942 97C57.1094 97 54.2277 96.3613 51.7492 95.0838C49.3005 93.8063 47.3893 92.098 46.0157 89.959C44.6719 87.7903 44 85.369 44 82.6952C44 80.1105 44.5077 77.8378 45.523 75.877C46.5383 73.8865 48.0015 72.2377 49.9127 70.9305C51.8238 69.5936 54.1232 68.5835 56.8108 67.9002C59.4983 67.2169 62.4994 66.8752 65.8141 66.8752H75.4446Z" fill="url(#paint1_linear_731_763)"/>
</g>
<defs>
<linearGradient id="paint0_linear_731_763" x1="47.2423" y1="26.7273" x2="88.8944" y2="110.233" gradientUnits="userSpaceOnUse">
<stop stop-color="#505A62"/>
<stop offset="1" stop-color="#1F1F1F"/>
</linearGradient>
<linearGradient id="paint1_linear_731_763" x1="64.0672" y1="47" x2="64.0672" y2="98" gradientUnits="userSpaceOnUse">
<stop stop-color="#EEF9FF"/>
<stop offset="1" stop-color="#B9C3C7"/>
</linearGradient>
<clipPath id="clip0_731_763">
<rect width="128" height="128" fill="white"/>
</clipPath>
</defs>
</svg>
