<svg width="128" height="128" viewBox="0 0 128 128" fill="none" xmlns="http://www.w3.org/2000/svg">
<g clip-path="url(#clip0_731_1305)">
<path d="M19 17C19 13.6863 21.6863 11 25 11L86.5147 11C88.106 11 89.6321 11.6321 90.7574 12.7574L107.243 29.2426C108.368 30.3679 109 31.894 109 33.4853V115C109 118.314 106.314 121 103 121H25C21.6863 121 19 118.314 19 115V17Z" fill="black" fill-opacity="0.15"/>
<path d="M19 15C19 11.6863 21.6863 9 25 9L86.5147 9C88.106 9 89.6321 9.63214 90.7574 10.7574L107.243 27.2426C108.368 28.3679 109 29.894 109 31.4853V113C109 116.314 106.314 119 103 119H25C21.6863 119 19 116.314 19 113V15Z" fill="url(#paint0_linear_731_1305)"/>
<path d="M86 9H86.576C88.2116 9 89.7762 9.6677 90.9079 10.8486L107.332 27.9867C108.402 29.1037 109 30.591 109 32.1381V33C108.361 31.6666 107.014 30.8182 105.535 30.8182H94.0909C90.7772 30.8182 88.0909 28.1319 88.0909 24.8182V12.4493C88.0909 10.9998 87.2851 9.67049 86 9Z" fill="black" fill-opacity="0.15"/>
<path d="M87 9H87.5147C89.106 9 90.6321 9.63214 91.7574 10.7574L107.243 26.2426C108.368 27.3679 109 28.894 109 30.4853V31C108.387 29.7743 107.134 29 105.764 29H95C91.6863 29 89 26.3137 89 23V12.2361C89 10.8657 88.2257 9.61287 87 9Z" fill="url(#paint1_linear_731_1305)"/>
<path fill-rule="evenodd" clip-rule="evenodd" d="M44 63C44 53.6112 51.6112 46 61 46C70.3888 46 78 53.6112 78 63C78 67.3335 76.3786 71.2882 73.7093 74.2907L72.2907 75.7093C69.2882 78.3786 65.3335 80 61 80C51.6112 80 44 72.3888 44 63ZM76.2453 82.4879C75.5351 81.7778 74.4134 81.7128 73.5729 82.2625C69.9593 84.6259 65.6401 86 61 86C48.2975 86 38 75.7025 38 63C38 50.2975 48.2975 40 61 40C73.7025 40 84 50.2975 84 63C84 67.6401 82.6259 71.9593 80.2625 75.5729C79.7128 76.4134 79.7778 77.5351 80.4879 78.2453L89.7071 87.4645C90.4882 88.2455 90.4882 89.5118 89.7071 90.2929L88.2929 91.7071C87.5118 92.4882 86.2455 92.4882 85.4645 91.7071L76.2453 82.4879Z" fill="url(#paint2_linear_731_1305)"/>
</g>
<defs>
<linearGradient id="paint0_linear_731_1305" x1="58.7059" y1="14.2537" x2="69.0492" y2="113.271" gradientUnits="userSpaceOnUse">
<stop stop-color="#42B0FF"/>
<stop offset="0.506666" stop-color="#3397F5"/>
<stop offset="1" stop-color="#126CD7"/>
</linearGradient>
<linearGradient id="paint1_linear_731_1305" x1="98" y1="9" x2="98" y2="31" gradientUnits="userSpaceOnUse">
<stop stop-color="#667585"/>
<stop offset="1" stop-color="#374653"/>
</linearGradient>
<linearGradient id="paint2_linear_731_1305" x1="64.1464" y1="40" x2="64.1464" y2="92.2929" gradientUnits="userSpaceOnUse">
<stop stop-color="#EFF3F5"/>
<stop offset="1" stop-color="#B4D8F1"/>
</linearGradient>
<clipPath id="clip0_731_1305">
<rect width="128" height="128" fill="white"/>
</clipPath>
</defs>
</svg>
