<svg width="128" height="128" viewBox="0 0 128 128" fill="none" xmlns="http://www.w3.org/2000/svg">
<g clip-path="url(#clip0_731_1148)">
<path d="M64 116C91.6142 116 114 93.6142 114 66C114 38.3858 91.6142 16 64 16C36.3858 16 14 38.3858 14 66C14 93.6142 36.3858 116 64 116Z" fill="black" fill-opacity="0.15"/>
<path d="M64 114C91.6142 114 114 91.6142 114 64C114 36.3858 91.6142 14 64 14C36.3858 14 14 36.3858 14 64C14 91.6142 36.3858 114 64 114Z" fill="white"/>
<path d="M64.001 114C91.6152 114 114.001 91.6142 114.001 64C114.001 36.3858 91.6152 14 64.001 14C36.3867 14 14.001 36.3858 14.001 64C14.001 91.6142 36.3867 114 64.001 114Z" fill="url(#paint0_linear_731_1148)"/>
<path d="M64 114C91.6142 114 114 91.6142 114 64C114 36.3858 91.6142 14 64 14C36.3858 14 14 36.3858 14 64C14 91.6142 36.3858 114 64 114Z" fill="url(#paint1_linear_731_1148)"/>
<path d="M14 64C14 91.6142 36.3858 114 64 114C91.6142 114 114 91.6142 114 64C114 36.3858 91.6142 14 64 14C36.3858 14 14 36.3858 14 64Z" fill="url(#paint2_linear_731_1148)"/>
<path d="M82.6645 72.6237C51.3906 100.661 25.8116 73.7907 21.8484 64.4825C24.1921 80.6388 35.0252 95.0968 51.3906 100.661C63.7505 104.863 83.4734 104.766 92.3156 88.7563L82.6645 72.6237Z" fill="url(#paint3_linear_731_1148)"/>
<path d="M69.8096 67.2083C61.7965 74.7223 46.3803 62.8036 39.8733 55.3181C33.1806 47.619 8.19039 21.6519 6.3638 19.9678C4.53729 18.2837 3.08257 16.204 4.69767 14.1348C6.37904 12.1197 8.70419 13.1209 10.7208 14.5694C12.7375 16.018 43.1774 35.2327 52.0549 40.225C60.6859 45.0787 75.472 57.7782 69.8096 67.2083Z" fill="black" fill-opacity="0.15"/>
<path d="M82.7903 76.3052C82.6041 76.9004 82.1958 77.4051 81.6531 77.7122C80.0091 78.6426 79.955 79.239 77.9886 78.9212C76.5891 78.695 65.596 70.4094 63.2933 68.6645C63.0117 68.4512 62.7863 68.1751 62.7097 67.8303C62.356 66.2372 63.1628 64.2298 64.5562 62.6072C65.8472 60.9039 67.633 59.6969 69.2559 59.7137C69.6105 59.7173 69.9281 59.883 70.1949 60.1167C72.3724 62.024 82.7034 71.1198 83.2123 72.449C83.928 74.3182 83.3573 74.4935 82.7903 76.3052Z" fill="black" fill-opacity="0.15"/>
<path d="M84.7466 97.8467C84.5516 98.3569 85.1612 98.9818 85.6084 98.6683C93.9535 92.8186 95.9775 83.8263 92.2844 77.0502C89.1865 71.3663 84.1 70.2917 80.5868 73.04C77.1016 75.7664 76.7944 79.0152 77.834 82.2418C79.7215 88.1006 86.896 92.2232 84.7466 97.8467Z" fill="black" fill-opacity="0.15"/>
<path d="M69.8096 65.2083C61.7965 72.7223 46.3803 60.8036 39.8733 53.3181C33.1806 45.619 8.19039 19.6519 6.3638 17.9678C4.53729 16.2837 3.08257 14.204 4.69767 12.1348C6.37904 10.1197 8.70419 11.1209 10.7208 12.5694C12.7375 14.018 43.1774 33.2327 52.0549 38.225C60.6859 43.0787 75.472 55.7782 69.8096 65.2083Z" fill="url(#paint4_linear_731_1148)"/>
<path d="M82.7903 74.3052C82.6041 74.9004 82.1958 75.4051 81.6531 75.7122C80.0091 76.6426 79.955 77.239 77.9886 76.9212C76.5891 76.695 65.596 68.4094 63.2933 66.6645C63.0117 66.4512 62.7863 66.1751 62.7097 65.8303C62.356 64.2372 63.1628 62.2298 64.5562 60.6072C65.8472 58.9039 67.633 57.6969 69.2559 57.7137C69.6105 57.7173 69.9281 57.883 70.1949 58.1167C72.3724 60.024 82.7034 69.1198 83.2123 70.449C83.928 72.3182 83.3573 72.4935 82.7903 74.3052Z" fill="url(#paint5_linear_731_1148)"/>
<path d="M84.7466 95.8467C84.5516 96.3569 85.1612 96.9818 85.6084 96.6683C93.9535 90.8186 95.9775 81.8263 92.2844 75.0502C89.1865 69.3663 84.1 68.2917 80.5868 71.04C77.1016 73.7664 76.7944 77.0152 77.834 80.2418C79.7215 86.1006 86.896 90.2232 84.7466 95.8467Z" fill="url(#paint6_linear_731_1148)"/>
</g>
<defs>
<linearGradient id="paint0_linear_731_1148" x1="108" y1="88.5" x2="46.4998" y2="52.5" gradientUnits="userSpaceOnUse">
<stop stop-color="#FFE34F"/>
<stop offset="0.496666" stop-color="#FFFF00" stop-opacity="0.503334"/>
<stop offset="1" stop-color="#FFFF00" stop-opacity="0"/>
</linearGradient>
<linearGradient id="paint1_linear_731_1148" x1="22.9998" y1="90.5" x2="89.4998" y2="51.5" gradientUnits="userSpaceOnUse">
<stop stop-color="#00E0FF"/>
<stop offset="0.5" stop-color="#00FFFF" stop-opacity="0.5"/>
<stop offset="1" stop-color="#00FFFF" stop-opacity="0"/>
</linearGradient>
<linearGradient id="paint2_linear_731_1148" x1="64" y1="14" x2="64" y2="88.9831" gradientUnits="userSpaceOnUse">
<stop stop-color="#FF17B0"/>
<stop offset="0.5" stop-color="#FF00FF" stop-opacity="0.5"/>
<stop offset="1" stop-color="#FF00FF" stop-opacity="0"/>
</linearGradient>
<linearGradient id="paint3_linear_731_1148" x1="85.4146" y1="82.6607" x2="23.6516" y2="82.1744" gradientUnits="userSpaceOnUse">
<stop stop-color="#5596EA"/>
<stop offset="1" stop-color="#64B4F4" stop-opacity="0"/>
</linearGradient>
<linearGradient id="paint4_linear_731_1148" x1="15" y1="19.5" x2="66.3407" y2="23.9071" gradientUnits="userSpaceOnUse">
<stop stop-color="#505A62"/>
<stop offset="1" stop-color="#1F1F1F"/>
</linearGradient>
<linearGradient id="paint5_linear_731_1148" x1="73.0869" y1="57.7135" x2="73.0869" y2="77.0074" gradientUnits="userSpaceOnUse">
<stop stop-color="#DBE4E8"/>
<stop offset="1" stop-color="#B9C3C7"/>
</linearGradient>
<linearGradient id="paint6_linear_731_1148" x1="80.519" y1="68.5986" x2="100.718" y2="88.1844" gradientUnits="userSpaceOnUse">
<stop stop-color="#363D43"/>
<stop offset="1" stop-color="#181818"/>
</linearGradient>
<clipPath id="clip0_731_1148">
<rect width="128" height="128" fill="white"/>
</clipPath>
</defs>
</svg>
