<svg width="128" height="128" viewBox="0 0 128 128" fill="none" xmlns="http://www.w3.org/2000/svg">
<g clip-path="url(#clip0_731_891)">
<rect x="14" y="16" width="100" height="100" rx="10" fill="black" fill-opacity="0.15"/>
<rect x="14" y="14" width="100" height="100" rx="10" fill="url(#paint0_linear_731_891)"/>
<path d="M19 25C19 21.6863 21.6863 19 25 19H41C44.3137 19 47 21.6863 47 25V43C47 45.2091 45.2091 47 43 47H25C21.6863 47 19 44.3137 19 41V25Z" fill="url(#paint1_linear_731_891)"/>
<path d="M19 56C19 52.6863 21.6863 50 25 50H43C45.2091 50 47 51.7909 47 54V74C47 76.2091 45.2091 78 43 78H25C21.6863 78 19 75.3137 19 72V56Z" fill="url(#paint2_linear_731_891)"/>
<path d="M19 87C19 83.6863 21.6863 81 25 81H43C45.2091 81 47 82.7909 47 85V103C47 106.314 44.3137 109 41 109H25C21.6863 109 19 106.314 19 103V87Z" fill="url(#paint3_linear_731_891)"/>
<path d="M50 25C50 21.6863 52.6863 19 56 19H72C75.3137 19 78 21.6863 78 25V43C78 45.2091 76.2091 47 74 47H54C51.7909 47 50 45.2091 50 43V25Z" fill="url(#paint4_linear_731_891)"/>
<rect x="50" y="50" width="28" height="28" rx="4" fill="url(#paint5_linear_731_891)"/>
<path d="M50 85C50 82.7909 51.7909 81 54 81H74C76.2091 81 78 82.7909 78 85V103C78 106.314 75.3137 109 72 109H56C52.6863 109 50 106.314 50 103V85Z" fill="url(#paint6_linear_731_891)"/>
<rect x="81" y="19" width="28" height="28" rx="6" fill="url(#paint7_linear_731_891)"/>
<path d="M81 25C81 21.6863 83.6863 19 87 19H103C106.314 19 109 21.6863 109 25V41C109 44.3137 106.314 47 103 47H85C82.7909 47 81 45.2091 81 43V25Z" fill="url(#paint8_linear_731_891)"/>
<path d="M81 54C81 51.7909 82.7909 50 85 50H103C106.314 50 109 52.6863 109 56V72C109 75.3137 106.314 78 103 78H85C82.7909 78 81 76.2091 81 74V54Z" fill="url(#paint9_linear_731_891)"/>
<path d="M81 85C81 82.7909 82.7909 81 85 81H103C106.314 81 109 83.6863 109 87V103C109 106.314 106.314 109 103 109H87C83.6863 109 81 106.314 81 103V85Z" fill="url(#paint10_linear_731_891)"/>
<path d="M62.1543 34.666C62.1543 34.2022 62.5303 33.8262 62.9941 33.8262H63.5605C64.1074 33.8262 64.5599 33.7318 64.918 33.543C65.2826 33.3542 65.5527 33.0938 65.7285 32.7617C65.9043 32.4297 65.9922 32.0488 65.9922 31.6191C65.9922 31.1699 65.9108 30.7858 65.748 30.4668C65.5918 30.1413 65.3509 29.8906 65.0254 29.7148C64.7064 29.5391 64.2995 29.4512 63.8047 29.4512C63.388 29.4512 63.0104 29.5358 62.6719 29.7051C62.3398 29.8678 62.0762 30.1022 61.8809 30.4082C61.5401 30.9307 61.0822 31.4824 60.4584 31.4824H60.4062C59.7536 31.4824 59.1995 30.9394 59.4028 30.3193C59.5012 30.0191 59.6404 29.7362 59.8203 29.4707C60.2174 28.8848 60.7578 28.4258 61.4414 28.0938C62.1315 27.7552 62.9062 27.5859 63.7656 27.5859C64.6836 27.5859 65.4844 27.7389 66.168 28.0449C66.8581 28.3444 67.3952 28.7936 67.7793 29.3926C68.1634 29.9915 68.3555 30.7337 68.3555 31.6191C68.3555 32.0228 68.2611 32.4329 68.0723 32.8496C67.8835 33.2663 67.6035 33.6471 67.2324 33.9922C66.8613 34.3307 66.3991 34.6074 65.8457 34.8223C65.2923 35.0306 64.651 35.1348 63.9219 35.1348L62.1543 34.666ZM63.1504 35.6621C62.6003 35.6621 62.1543 35.2161 62.1543 34.666L63.9219 34.373C64.7552 34.373 65.4648 34.4707 66.0508 34.666C66.6432 34.8613 67.125 35.1315 67.4961 35.4766C67.8672 35.8151 68.1374 36.2025 68.3066 36.6387C68.4824 37.0749 68.5703 37.5371 68.5703 38.0254C68.5703 38.6895 68.4499 39.2819 68.209 39.8027C67.9746 40.3171 67.6393 40.7533 67.2031 41.1113C66.7669 41.4694 66.2559 41.7396 65.6699 41.9219C65.0905 42.1042 64.459 42.1953 63.7754 42.1953C63.1634 42.1953 62.5775 42.1107 62.0176 41.9414C61.4577 41.7721 60.9564 41.5215 60.5137 41.1895C60.071 40.8509 59.7194 40.431 59.459 39.9297C59.3652 39.7421 59.2888 39.5439 59.2296 39.3351C59.0525 38.7098 59.6057 38.1719 60.2556 38.1719C60.9047 38.1719 61.3907 38.7384 61.7246 39.2949C61.9264 39.6139 62.2064 39.8646 62.5645 40.0469C62.929 40.2292 63.3457 40.3203 63.8145 40.3203C64.3092 40.3203 64.7357 40.2324 65.0938 40.0566C65.4518 39.8809 65.7253 39.6204 65.9141 39.2754C66.1094 38.9303 66.207 38.5137 66.207 38.0254C66.207 37.472 66.0996 37.0228 65.8848 36.6777C65.6699 36.3327 65.3639 36.0788 64.9668 35.916C64.5697 35.7467 64.1009 35.6621 63.5605 35.6621H63.1504Z" fill="black" fill-opacity="0.15"/>
<path d="M30.5 41C30.5 40.4477 30.948 40.0121 31.5 39.9946C31.9613 39.98 32.3674 39.9335 32.7266 39.793C33.332 39.5521 33.8138 39.2201 34.1719 38.7969C34.5299 38.3737 34.7871 37.8757 34.9434 37.3027C35.0996 36.7298 35.1777 36.1081 35.1777 35.4375V32.9863C35.1777 32.4069 35.1159 31.8991 34.9922 31.4629C34.875 31.0202 34.7057 30.6523 34.4844 30.3594C34.2695 30.0599 34.0189 29.8353 33.7324 29.6855C33.4525 29.5358 33.1497 29.4609 32.8242 29.4609C32.4661 29.4609 32.1439 29.5423 31.8574 29.7051C31.5775 29.8613 31.3398 30.0794 31.1445 30.3594C30.9557 30.6328 30.8092 30.9551 30.7051 31.3262C30.6074 31.6908 30.5586 32.0814 30.5586 32.498C30.5586 32.8887 30.6042 33.2663 30.6953 33.6309C30.793 33.9889 30.9362 34.3079 31.125 34.5879C31.3138 34.8678 31.5514 35.0892 31.8379 35.252C32.1243 35.4147 32.4596 35.4961 32.8438 35.4961C33.2083 35.4961 33.5436 35.4277 33.8496 35.291C34.1556 35.1478 34.4225 34.9557 34.6504 34.7148C34.8783 34.474 35.0573 34.2038 35.1875 33.9043C35.3177 33.6048 35.3893 33.2988 35.4023 32.9863L36.3008 33.2598C36.3008 33.7546 36.1966 34.2428 35.9883 34.7246C35.7865 35.1999 35.5033 35.6361 35.1387 36.0332C34.7806 36.4238 34.3607 36.7363 33.8789 36.9707C33.4036 37.2051 32.8861 37.3223 32.3262 37.3223C31.6491 37.3223 31.0501 37.1953 30.5293 36.9414C30.015 36.681 29.5853 36.3294 29.2402 35.8867C28.9017 35.444 28.6478 34.9362 28.4785 34.3633C28.3092 33.7904 28.2246 33.1882 28.2246 32.5566C28.2246 31.873 28.3288 31.2318 28.5371 30.6328C28.7454 30.0339 29.0482 29.5065 29.4453 29.0508C29.8424 28.5885 30.3242 28.2305 30.8906 27.9766C31.4635 27.7161 32.1113 27.5859 32.834 27.5859C33.6022 27.5859 34.276 27.7357 34.8555 28.0352C35.4349 28.3346 35.9232 28.748 36.3203 29.2754C36.7174 29.8027 37.0169 30.4147 37.2188 31.1113C37.4206 31.8079 37.5215 32.5566 37.5215 33.3574V34.1875C37.5215 35.0273 37.4466 35.8379 37.2969 36.6191C37.1471 37.3939 36.903 38.1133 36.5645 38.7773C36.2324 39.4349 35.793 40.0143 35.2461 40.5156C34.7057 41.0104 34.0417 41.3978 33.2539 41.6777C32.754 41.8527 32.1981 41.9717 31.5862 42.0347C30.9885 42.0962 30.5 41.6008 30.5 41Z" fill="black" fill-opacity="0.15"/>
<path d="M67.9844 71.125C68.5021 71.125 68.9219 71.5447 68.9219 72.0625C68.9219 72.5803 68.5021 73 67.9844 73H60.5507C59.91 73 59.3906 72.4806 59.3906 71.84C59.3906 71.5497 59.4994 71.27 59.6956 71.056L64.0195 66.3398C64.5273 65.7669 64.9277 65.2721 65.2207 64.8555C65.5137 64.4388 65.7188 64.0645 65.8359 63.7324C65.9596 63.3939 66.0215 63.0651 66.0215 62.7461C66.0215 62.2969 65.9368 61.903 65.7676 61.5645C65.6048 61.2194 65.3639 60.9492 65.0449 60.7539C64.7259 60.5521 64.3385 60.4512 63.8828 60.4512C63.3555 60.4512 62.9128 60.5651 62.5547 60.793C62.1966 61.0208 61.9264 61.3366 61.7441 61.7402C61.7126 61.8089 61.6838 61.8794 61.6577 61.9516C61.437 62.5628 60.9439 63.1074 60.2939 63.1074C59.644 63.1074 59.099 62.5727 59.2537 61.9414C59.3481 61.5563 59.4914 61.1898 59.6836 60.8418C60.0612 60.1517 60.6081 59.6048 61.3242 59.2012C62.0404 58.791 62.903 58.5859 63.9121 58.5859C64.8626 58.5859 65.6699 58.7454 66.334 59.0645C66.998 59.3835 67.5026 59.8359 67.8477 60.4219C68.1992 61.0078 68.375 61.7012 68.375 62.502C68.375 62.9447 68.3034 63.3841 68.1602 63.8203C68.0169 64.2565 67.8118 64.6927 67.5449 65.1289C67.2845 65.5586 66.9753 65.9915 66.6172 66.4277C66.2591 66.8574 65.8652 67.2936 65.4355 67.7363L62.3594 71.125H67.9844Z" fill="black" fill-opacity="0.15"/>
<path d="M33.4879 90.1945C34.1377 89.9685 34.8164 90.451 34.8164 91.139V102.823C34.8164 103.473 34.2896 104 33.6396 104C32.9897 104 32.4629 103.473 32.4629 102.823V92.5254L30.1957 93.2938C29.5973 93.4967 28.9766 93.0517 28.9766 92.4198C28.9766 92.027 29.2252 91.6772 29.5963 91.5481L33.4879 90.1945Z" fill="black" fill-opacity="0.15"/>
<path d="M62.1543 32.666C62.1543 32.2022 62.5303 31.8262 62.9941 31.8262H63.5605C64.1074 31.8262 64.5599 31.7318 64.918 31.543C65.2826 31.3542 65.5527 31.0938 65.7285 30.7617C65.9043 30.4297 65.9922 30.0488 65.9922 29.6191C65.9922 29.1699 65.9108 28.7858 65.748 28.4668C65.5918 28.1413 65.3509 27.8906 65.0254 27.7148C64.7064 27.5391 64.2995 27.4512 63.8047 27.4512C63.388 27.4512 63.0104 27.5358 62.6719 27.7051C62.3398 27.8678 62.0762 28.1022 61.8809 28.4082C61.5401 28.9307 61.0822 29.4824 60.4584 29.4824H60.4062C59.7536 29.4824 59.1995 28.9394 59.4028 28.3193C59.5012 28.0191 59.6404 27.7362 59.8203 27.4707C60.2174 26.8848 60.7578 26.4258 61.4414 26.0938C62.1315 25.7552 62.9062 25.5859 63.7656 25.5859C64.6836 25.5859 65.4844 25.7389 66.168 26.0449C66.8581 26.3444 67.3952 26.7936 67.7793 27.3926C68.1634 27.9915 68.3555 28.7337 68.3555 29.6191C68.3555 30.0228 68.2611 30.4329 68.0723 30.8496C67.8835 31.2663 67.6035 31.6471 67.2324 31.9922C66.8613 32.3307 66.3991 32.6074 65.8457 32.8223C65.2923 33.0306 64.651 33.1348 63.9219 33.1348L62.1543 32.666ZM63.1504 33.6621C62.6003 33.6621 62.1543 33.2161 62.1543 32.666L63.9219 32.373C64.7552 32.373 65.4648 32.4707 66.0508 32.666C66.6432 32.8613 67.125 33.1315 67.4961 33.4766C67.8672 33.8151 68.1374 34.2025 68.3066 34.6387C68.4824 35.0749 68.5703 35.5371 68.5703 36.0254C68.5703 36.6895 68.4499 37.2819 68.209 37.8027C67.9746 38.3171 67.6393 38.7533 67.2031 39.1113C66.7669 39.4694 66.2559 39.7396 65.6699 39.9219C65.0905 40.1042 64.459 40.1953 63.7754 40.1953C63.1634 40.1953 62.5775 40.1107 62.0176 39.9414C61.4577 39.7721 60.9564 39.5215 60.5137 39.1895C60.071 38.8509 59.7194 38.431 59.459 37.9297C59.3652 37.7421 59.2888 37.5439 59.2296 37.3351C59.0525 36.7098 59.6057 36.1719 60.2556 36.1719C60.9047 36.1719 61.3907 36.7384 61.7246 37.2949C61.9264 37.6139 62.2064 37.8646 62.5645 38.0469C62.929 38.2292 63.3457 38.3203 63.8145 38.3203C64.3092 38.3203 64.7357 38.2324 65.0938 38.0566C65.4518 37.8809 65.7253 37.6204 65.9141 37.2754C66.1094 36.9303 66.207 36.5137 66.207 36.0254C66.207 35.472 66.0996 35.0228 65.8848 34.6777C65.6699 34.3327 65.3639 34.0788 64.9668 33.916C64.5697 33.7467 64.1009 33.6621 63.5605 33.6621H63.1504Z" fill="url(#paint11_linear_731_891)"/>
<path d="M30.5 39C30.5 38.4477 30.948 38.0121 31.5 37.9946C31.9613 37.98 32.3674 37.9335 32.7266 37.793C33.332 37.5521 33.8138 37.2201 34.1719 36.7969C34.5299 36.3737 34.7871 35.8757 34.9434 35.3027C35.0996 34.7298 35.1777 34.1081 35.1777 33.4375V30.9863C35.1777 30.4069 35.1159 29.8991 34.9922 29.4629C34.875 29.0202 34.7057 28.6523 34.4844 28.3594C34.2695 28.0599 34.0189 27.8353 33.7324 27.6855C33.4525 27.5358 33.1497 27.4609 32.8242 27.4609C32.4661 27.4609 32.1439 27.5423 31.8574 27.7051C31.5775 27.8613 31.3398 28.0794 31.1445 28.3594C30.9557 28.6328 30.8092 28.9551 30.7051 29.3262C30.6074 29.6908 30.5586 30.0814 30.5586 30.498C30.5586 30.8887 30.6042 31.2663 30.6953 31.6309C30.793 31.9889 30.9362 32.3079 31.125 32.5879C31.3138 32.8678 31.5514 33.0892 31.8379 33.252C32.1243 33.4147 32.4596 33.4961 32.8438 33.4961C33.2083 33.4961 33.5436 33.4277 33.8496 33.291C34.1556 33.1478 34.4225 32.9557 34.6504 32.7148C34.8783 32.474 35.0573 32.2038 35.1875 31.9043C35.3177 31.6048 35.3893 31.2988 35.4023 30.9863L36.3008 31.2598C36.3008 31.7546 36.1966 32.2428 35.9883 32.7246C35.7865 33.1999 35.5033 33.6361 35.1387 34.0332C34.7806 34.4238 34.3607 34.7363 33.8789 34.9707C33.4036 35.2051 32.8861 35.3223 32.3262 35.3223C31.6491 35.3223 31.0501 35.1953 30.5293 34.9414C30.015 34.681 29.5853 34.3294 29.2402 33.8867C28.9017 33.444 28.6478 32.9362 28.4785 32.3633C28.3092 31.7904 28.2246 31.1882 28.2246 30.5566C28.2246 29.873 28.3288 29.2318 28.5371 28.6328C28.7454 28.0339 29.0482 27.5065 29.4453 27.0508C29.8424 26.5885 30.3242 26.2305 30.8906 25.9766C31.4635 25.7161 32.1113 25.5859 32.834 25.5859C33.6022 25.5859 34.276 25.7357 34.8555 26.0352C35.4349 26.3346 35.9232 26.748 36.3203 27.2754C36.7174 27.8027 37.0169 28.4147 37.2188 29.1113C37.4206 29.8079 37.5215 30.5566 37.5215 31.3574V32.1875C37.5215 33.0273 37.4466 33.8379 37.2969 34.6191C37.1471 35.3939 36.903 36.1133 36.5645 36.7773C36.2324 37.4349 35.793 38.0143 35.2461 38.5156C34.7057 39.0104 34.0417 39.3978 33.2539 39.6777C32.754 39.8527 32.1981 39.9717 31.5862 40.0347C30.9885 40.0962 30.5 39.6008 30.5 39Z" fill="url(#paint12_linear_731_891)"/>
<path d="M67.9844 69.125C68.5021 69.125 68.9219 69.5447 68.9219 70.0625C68.9219 70.5803 68.5021 71 67.9844 71H60.5507C59.91 71 59.3906 70.4806 59.3906 69.84C59.3906 69.5497 59.4994 69.27 59.6956 69.056L64.0195 64.3398C64.5273 63.7669 64.9277 63.2721 65.2207 62.8555C65.5137 62.4388 65.7188 62.0645 65.8359 61.7324C65.9596 61.3939 66.0215 61.0651 66.0215 60.7461C66.0215 60.2969 65.9368 59.903 65.7676 59.5645C65.6048 59.2194 65.3639 58.9492 65.0449 58.7539C64.7259 58.5521 64.3385 58.4512 63.8828 58.4512C63.3555 58.4512 62.9128 58.5651 62.5547 58.793C62.1966 59.0208 61.9264 59.3366 61.7441 59.7402C61.7126 59.8089 61.6838 59.8794 61.6577 59.9516C61.437 60.5628 60.9439 61.1074 60.2939 61.1074C59.644 61.1074 59.099 60.5727 59.2537 59.9414C59.3481 59.5563 59.4914 59.1898 59.6836 58.8418C60.0612 58.1517 60.6081 57.6048 61.3242 57.2012C62.0404 56.791 62.903 56.5859 63.9121 56.5859C64.8626 56.5859 65.6699 56.7454 66.334 57.0645C66.998 57.3835 67.5026 57.8359 67.8477 58.4219C68.1992 59.0078 68.375 59.7012 68.375 60.502C68.375 60.9447 68.3034 61.3841 68.1602 61.8203C68.0169 62.2565 67.8118 62.6927 67.5449 63.1289C67.2845 63.5586 66.9753 63.9915 66.6172 64.4277C66.2591 64.8574 65.8652 65.2936 65.4355 65.7363L62.3594 69.125H67.9844Z" fill="url(#paint13_linear_731_891)"/>
<path d="M33.4879 88.1945C34.1377 87.9685 34.8164 88.451 34.8164 89.139V100.823C34.8164 101.473 34.2896 102 33.6396 102C32.9897 102 32.4629 101.473 32.4629 100.823V90.5254L30.1957 91.2938C29.5973 91.4967 28.9766 91.0517 28.9766 90.4198C28.9766 90.027 29.2252 89.6772 29.5963 89.5481L33.4879 88.1945Z" fill="url(#paint14_linear_731_891)"/>
</g>
<defs>
<linearGradient id="paint0_linear_731_891" x1="47.2423" y1="26.7273" x2="88.8944" y2="110.233" gradientUnits="userSpaceOnUse">
<stop stop-color="#505A62"/>
<stop offset="1" stop-color="#1F1F1F"/>
</linearGradient>
<linearGradient id="paint1_linear_731_891" x1="33" y1="19" x2="33" y2="47" gradientUnits="userSpaceOnUse">
<stop stop-color="#DBE4E8"/>
<stop offset="1" stop-color="#B9C3C7"/>
</linearGradient>
<linearGradient id="paint2_linear_731_891" x1="33" y1="50" x2="33" y2="78" gradientUnits="userSpaceOnUse">
<stop stop-color="#DBE4E8"/>
<stop offset="1" stop-color="#B9C3C7"/>
</linearGradient>
<linearGradient id="paint3_linear_731_891" x1="33" y1="81" x2="33" y2="109" gradientUnits="userSpaceOnUse">
<stop stop-color="#DBE4E8"/>
<stop offset="1" stop-color="#B9C3C7"/>
</linearGradient>
<linearGradient id="paint4_linear_731_891" x1="64" y1="19" x2="64" y2="47" gradientUnits="userSpaceOnUse">
<stop stop-color="#DBE4E8"/>
<stop offset="1" stop-color="#B9C3C7"/>
</linearGradient>
<linearGradient id="paint5_linear_731_891" x1="64" y1="50" x2="64" y2="78" gradientUnits="userSpaceOnUse">
<stop stop-color="#DBE4E8"/>
<stop offset="1" stop-color="#B9C3C7"/>
</linearGradient>
<linearGradient id="paint6_linear_731_891" x1="64" y1="81" x2="64" y2="109" gradientUnits="userSpaceOnUse">
<stop stop-color="#DBE4E8"/>
<stop offset="1" stop-color="#B9C3C7"/>
</linearGradient>
<linearGradient id="paint7_linear_731_891" x1="95" y1="19" x2="95" y2="47" gradientUnits="userSpaceOnUse">
<stop stop-color="#DBE4E8"/>
<stop offset="1" stop-color="#B9C3C7"/>
</linearGradient>
<linearGradient id="paint8_linear_731_891" x1="95" y1="19" x2="95" y2="47" gradientUnits="userSpaceOnUse">
<stop stop-color="#DBE4E8"/>
<stop offset="1" stop-color="#B9C3C7"/>
</linearGradient>
<linearGradient id="paint9_linear_731_891" x1="95" y1="50" x2="95" y2="78" gradientUnits="userSpaceOnUse">
<stop stop-color="#DBE4E8"/>
<stop offset="1" stop-color="#B9C3C7"/>
</linearGradient>
<linearGradient id="paint10_linear_731_891" x1="95" y1="81" x2="95" y2="109" gradientUnits="userSpaceOnUse">
<stop stop-color="#DBE4E8"/>
<stop offset="1" stop-color="#B9C3C7"/>
</linearGradient>
<linearGradient id="paint11_linear_731_891" x1="62.2335" y1="27.4453" x2="69.5923" y2="37.0309" gradientUnits="userSpaceOnUse">
<stop stop-color="#505A62"/>
<stop offset="1" stop-color="#1F1F1F"/>
</linearGradient>
<linearGradient id="paint12_linear_731_891" x1="31.3151" y1="27.4316" x2="38.6445" y2="36.8518" gradientUnits="userSpaceOnUse">
<stop stop-color="#505A62"/>
<stop offset="1" stop-color="#1F1F1F"/>
</linearGradient>
<linearGradient id="paint13_linear_731_891" x1="62.3765" y1="58.4205" x2="69.5444" y2="68.1955" gradientUnits="userSpaceOnUse">
<stop stop-color="#505A62"/>
<stop offset="1" stop-color="#1F1F1F"/>
</linearGradient>
<linearGradient id="paint14_linear_731_891" x1="30.9179" y1="89.5483" x2="38.214" y2="95.5355" gradientUnits="userSpaceOnUse">
<stop stop-color="#505A62"/>
<stop offset="1" stop-color="#1F1F1F"/>
</linearGradient>
<clipPath id="clip0_731_891">
<rect width="128" height="128" fill="white"/>
</clipPath>
</defs>
</svg>
