<svg width="128" height="128" viewBox="0 0 128 128" fill="none" xmlns="http://www.w3.org/2000/svg">
<g clip-path="url(#clip0_731_839)">
<rect x="59" y="32" width="60" height="90" rx="6" fill="black" fill-opacity="0.15"/>
<rect x="59" y="30" width="60" height="90" rx="6" fill="url(#paint0_linear_731_839)"/>
<path d="M102.625 70.75C102.625 79.5 91.1771 85.7075 90.6246 86C90.5488 86.0408 90.0095 86.3088 89.51 86.5563C88.9521 86.8328 88.2972 86.8328 87.7392 86.5563C87.2398 86.3088 86.7005 86.0408 86.6246 86C86.0721 85.7075 74.6246 79.5 74.6246 70.75C74.6269 68.6953 75.4442 66.7254 76.8971 65.2725C78.35 63.8196 80.3199 63.0023 82.3746 63C84.4647 63 86.3441 63.7277 87.7315 65.0007C88.2224 65.4511 89.0268 65.4511 89.5177 65.0007C90.9052 63.7277 92.7846 63 94.8746 63C96.9293 63.0023 98.8992 63.8196 100.352 65.2725C101.805 66.7254 102.622 68.6953 102.625 70.75Z" fill="url(#paint1_linear_731_839)"/>
<rect x="31.2937" y="11.7688" width="60" height="90" rx="6" transform="rotate(15 31.2937 11.7688)" fill="black" fill-opacity="0.15"/>
<rect x="31.2937" y="9.76877" width="60" height="90" rx="6" transform="rotate(15 31.2937 9.76877)" fill="url(#paint2_linear_731_839)"/>
<rect x="35.3302" y="16" width="50" height="80" rx="4" transform="rotate(15 35.3302 16)" fill="url(#paint3_linear_731_839)"/>
<rect x="8.62463" y="11" width="60" height="90" rx="6" fill="black" fill-opacity="0.15"/>
<rect x="8.62463" y="9" width="60" height="90" rx="6" fill="url(#paint4_linear_731_839)"/>
<rect x="13.6246" y="14" width="50" height="80" rx="4" fill="url(#paint5_linear_731_839)"/>
</g>
<defs>
<linearGradient id="paint0_linear_731_839" x1="89" y1="30" x2="89" y2="120" gradientUnits="userSpaceOnUse">
<stop stop-color="#EFF3F5"/>
<stop offset="1" stop-color="#D9E0E4"/>
</linearGradient>
<linearGradient id="paint1_linear_731_839" x1="87.0296" y1="64.4" x2="89.426" y2="85.5228" gradientUnits="userSpaceOnUse">
<stop stop-color="#F95D5D"/>
<stop offset="1" stop-color="#CD4242"/>
</linearGradient>
<linearGradient id="paint2_linear_731_839" x1="61.2937" y1="9.76877" x2="61.2937" y2="99.7688" gradientUnits="userSpaceOnUse">
<stop stop-color="#D9E0E4"/>
<stop offset="1" stop-color="#B9C3C7"/>
</linearGradient>
<linearGradient id="paint3_linear_731_839" x1="51.9969" y1="16" x2="101.689" y2="55.4381" gradientUnits="userSpaceOnUse">
<stop stop-color="#FFA4D5"/>
<stop offset="1" stop-color="#BF3DED"/>
</linearGradient>
<linearGradient id="paint4_linear_731_839" x1="38.6246" y1="9" x2="38.6246" y2="99" gradientUnits="userSpaceOnUse">
<stop stop-color="#EFF3F5"/>
<stop offset="1" stop-color="#D9E0E4"/>
</linearGradient>
<linearGradient id="paint5_linear_731_839" x1="30.2913" y1="14" x2="79.9833" y2="53.4381" gradientUnits="userSpaceOnUse">
<stop stop-color="#FFA4D5"/>
<stop offset="1" stop-color="#BF3DED"/>
</linearGradient>
<clipPath id="clip0_731_839">
<rect width="128" height="128" fill="white"/>
</clipPath>
</defs>
</svg>
