<svg width="128" height="128" viewBox="0 0 128 128" fill="none" xmlns="http://www.w3.org/2000/svg">
<g clip-path="url(#clip0_731_655)">
<path d="M19 17C19 13.6863 21.6863 11 25 11L86.5147 11C88.106 11 89.6321 11.6321 90.7574 12.7574L107.243 29.2426C108.368 30.3679 109 31.894 109 33.4853V115C109 118.314 106.314 121 103 121H25C21.6863 121 19 118.314 19 115V17Z" fill="black" fill-opacity="0.15"/>
<path d="M19 15C19 11.6863 21.6863 9 25 9L86.5147 9C88.106 9 89.6321 9.63214 90.7574 10.7574L107.243 27.2426C108.368 28.3679 109 29.894 109 31.4853V113C109 116.314 106.314 119 103 119H25C21.6863 119 19 116.314 19 113V15Z" fill="url(#paint0_linear_731_655)"/>
<path d="M64 29C64 48.33 77.4315 64 94 64C99.4643 64 104.587 62.2956 109 59.3176V45.5364C105.335 50.7265 99.9735 54 94 54C82.9543 54 74 42.8071 74 29C74 20.822 77.1414 13.5611 81.9981 9H69.3772C65.9878 14.6692 64 21.5638 64 29Z" fill="url(#paint1_linear_731_655)"/>
<path d="M86 9H86.576C88.2116 9 89.7762 9.6677 90.9079 10.8486L107.332 27.9867C108.402 29.1037 109 30.591 109 32.1381V33C108.361 31.6666 107.014 30.8182 105.535 30.8182H94.0909C90.7772 30.8182 88.0909 28.1319 88.0909 24.8182V12.4493C88.0909 10.9998 87.2851 9.67049 86 9Z" fill="black" fill-opacity="0.15"/>
<path d="M87 9H87.3963C88.9805 9 90.5004 9.62652 91.6244 10.7429L107.228 26.2402C108.362 27.3666 109 28.8989 109 30.4973V31C108.387 29.7743 107.134 29 105.764 29H95C91.6863 29 89 26.3137 89 23V12.2361C89 10.8657 88.2257 9.61287 87 9Z" fill="url(#paint2_linear_731_655)"/>
<path d="M87 9H87.3963C88.9805 9 90.5004 9.62652 91.6244 10.7429L107.228 26.2402C108.362 27.3666 109 28.8989 109 30.4973V31C108.387 29.7743 107.134 29 105.764 29H95C91.6863 29 89 26.3137 89 23V12.2361C89 10.8657 88.2257 9.61287 87 9Z" fill="url(#paint3_linear_731_655)" fill-opacity="0.2"/>
<path d="M51.0136 113.701C48.9232 114.227 46.8589 114.594 44.9169 114.849C37.8298 115.777 31.7302 110.819 29.5837 104.001C28.5567 100.739 29.5522 97.2011 32.5342 95.5263C35.5005 93.8603 39.9542 91.8226 46.0748 90.1826C52.2066 88.5396 57.4308 87.9872 61.1856 87.8539C64.8935 87.7223 67.7408 90.6542 68.0763 94.3493L68.336 97.2091C68.8063 102.388 66.3812 107.445 61.6944 109.698C58.5958 111.187 54.8306 112.741 51.0136 113.701Z" fill="black" fill-opacity="0.15"/>
<path d="M102.341 99.9479C104.414 99.3579 106.385 98.6442 108.194 97.8935C114.796 95.1538 117.599 87.8102 116.049 80.8327C115.308 77.494 112.677 74.928 109.257 74.9685C105.855 75.0089 100.979 75.4711 94.8585 77.1111C88.7268 78.7541 83.9263 80.8877 80.6079 82.6497C77.3309 84.3898 76.3311 88.3525 77.888 91.7203L79.093 94.3268C81.2751 99.0468 85.9041 102.214 91.0893 101.822C94.5173 101.562 98.5551 101.025 102.341 99.9479Z" fill="black" fill-opacity="0.15"/>
<path d="M67.7076 92.6684C67.7076 92.6684 69.6745 90.119 71.8473 89.4894C74.1328 88.8272 77.3668 90.0802 77.3668 90.0802" stroke="black" stroke-opacity="0.15" stroke-width="2"/>
<path d="M51.0136 111.701C48.9232 112.227 46.8589 112.594 44.9169 112.849C37.8298 113.777 31.7302 108.819 29.5837 102.001C28.5567 98.7388 29.5522 95.2011 32.5342 93.5263C35.5005 91.8603 39.9542 89.8226 46.0748 88.1826C52.2066 86.5396 57.4308 85.9872 61.1856 85.8539C64.8935 85.7223 67.7408 88.6542 68.0763 92.3493L68.336 95.2091C68.8063 100.388 66.3812 105.445 61.6944 107.698C58.5958 109.187 54.8306 110.741 51.0136 111.701Z" fill="url(#paint4_linear_731_655)" fill-opacity="0.6" stroke="url(#paint5_linear_731_655)" stroke-width="2"/>
<path d="M102.341 97.9479C104.414 97.3579 106.385 96.6442 108.194 95.8935C114.796 93.1538 117.599 85.8102 116.049 78.8327C115.308 75.494 112.677 72.928 109.257 72.9685C105.855 73.0089 100.979 73.4711 94.8585 75.1111C88.7268 76.7541 83.9263 78.8877 80.6079 80.6497C77.3309 82.3898 76.3311 86.3525 77.888 89.7203L79.093 92.3268C81.2751 97.0468 85.9041 100.214 91.0893 99.8217C94.5173 99.5622 98.5551 99.0252 102.341 97.9479Z" fill="url(#paint6_linear_731_655)" fill-opacity="0.6" stroke="url(#paint7_linear_731_655)" stroke-width="2"/>
<path d="M67.7076 90.6684C67.7076 90.6684 69.6745 88.119 71.8473 87.4894C74.1328 86.8272 77.3668 88.0802 77.3668 88.0802" stroke="url(#paint8_linear_731_655)" stroke-width="2"/>
</g>
<defs>
<linearGradient id="paint0_linear_731_655" x1="64" y1="9" x2="64" y2="119" gradientUnits="userSpaceOnUse">
<stop stop-color="#EFF3F5"/>
<stop offset="1" stop-color="#D9E0E4"/>
</linearGradient>
<linearGradient id="paint1_linear_731_655" x1="82.3529" y1="13.984" x2="87.5246" y2="63.4925" gradientUnits="userSpaceOnUse">
<stop stop-color="#42B0FF"/>
<stop offset="1" stop-color="#247FEA"/>
</linearGradient>
<linearGradient id="paint2_linear_731_655" x1="98" y1="9" x2="98" y2="31" gradientUnits="userSpaceOnUse">
<stop stop-color="#D9E0E4"/>
<stop offset="1" stop-color="#DBE4E8"/>
</linearGradient>
<linearGradient id="paint3_linear_731_655" x1="98" y1="9" x2="98" y2="31" gradientUnits="userSpaceOnUse">
<stop stop-color="#EEF3F5"/>
<stop offset="1" stop-color="#EBF0F2"/>
</linearGradient>
<linearGradient id="paint4_linear_731_655" x1="44.7686" y1="89.7193" x2="51.4597" y2="110.48" gradientUnits="userSpaceOnUse">
<stop stop-color="#42B0FF"/>
<stop offset="1" stop-color="#247FEA"/>
</linearGradient>
<linearGradient id="paint5_linear_731_655" x1="53.0131" y1="111.17" x2="46.8015" y2="87.9879" gradientUnits="userSpaceOnUse">
<stop/>
<stop offset="1" stop-color="#666666"/>
</linearGradient>
<linearGradient id="paint6_linear_731_655" x1="96.7581" y1="75.7888" x2="101.344" y2="97.1135" gradientUnits="userSpaceOnUse">
<stop stop-color="#42B0FF"/>
<stop offset="1" stop-color="#247FEA"/>
</linearGradient>
<linearGradient id="paint7_linear_731_655" x1="100.344" y1="98.488" x2="94.1319" y2="75.3058" gradientUnits="userSpaceOnUse">
<stop/>
<stop offset="1" stop-color="#666666"/>
</linearGradient>
<linearGradient id="paint8_linear_731_655" x1="72.5372" y1="89.3743" x2="72.0196" y2="87.4424" gradientUnits="userSpaceOnUse">
<stop stop-color="#444444"/>
<stop offset="1" stop-color="#666666"/>
</linearGradient>
<clipPath id="clip0_731_655">
<rect width="128" height="128" fill="white"/>
</clipPath>
</defs>
</svg>
