<svg width="128" height="128" viewBox="0 0 128 128" fill="none" xmlns="http://www.w3.org/2000/svg">
<g clip-path="url(#clip0_3718_661)">
<path d="M114 105V25C114 19.4772 109.523 15 104 15H24C18.4772 15 14 19.4772 14 25V105C14 110.523 18.4772 115 24 115H104C109.523 115 114 110.523 114 105Z" fill="black" fill-opacity="0.15"/>
<path d="M114 103V23C114 17.4772 109.523 13 104 13H24C18.4772 13 14 17.4772 14 23V103C14 108.523 18.4772 113 24 113H104C109.523 113 114 108.523 114 103Z" fill="url(#paint0_linear_3718_661)"/>
<rect x="19" y="17" width="90" height="90" rx="6" fill="url(#paint1_linear_3718_661)"/>
<path d="M40 100H30C27.7909 100 26 98.2091 26 96V86" stroke="#B4D8F1" stroke-width="4"/>
<path d="M88 100H98C100.209 100 102 98.2091 102 96V86" stroke="#B4D8F1" stroke-width="4"/>
<path d="M88 24H98C100.209 24 102 25.7909 102 28V38" stroke="#EFF3F5" stroke-width="4"/>
<path d="M40 24H30C27.7909 24 26 25.7909 26 28V38" stroke="#EFF3F5" stroke-width="4"/>
<path d="M58.2797 70.355C52.1149 72.2247 29.9066 78.744 28.4211 77.2679C26.9355 75.7918 29.1638 67.5013 38.5968 60.6376C46.1431 55.1467 58.4977 49.2998 59.0968 47.599C59.9633 45.139 65.5092 38.9809 66.6481 40.1449C67.5146 41.0305 64.9738 41.1535 65.5092 45.4095C66.1777 50.7234 76.2791 47.7958 85.7369 54.7333C95.1946 61.6708 96.2344 72.8889 97.8437 74.488C99.453 76.0871 99.9234 75.3491 99.9977 75.9395C100.072 76.5299 98.3141 78.129 97.8437 79.5312C97.1515 81.5947 95.9677 81.8593 95.2991 79.7881C94.5076 77.3364 92.8435 73.9009 87.8661 71.0193C82.5262 67.9279 78.3093 66.8863 71.3274 66.8863C67.3661 66.8863 64.4446 68.4853 58.2797 70.355Z" fill="url(#paint2_linear_3718_661)"/>
<path d="M55.0164 62.4404C55.941 62.0247 57.0484 62.3688 57.5662 63.2656L59.2801 66.2334L59.3728 66.416C59.7608 67.2791 59.4871 68.3011 58.7195 68.8545L58.5476 68.9658L55.5799 70.6797L55.3972 70.7725C54.5342 71.1604 53.5122 70.8867 52.9588 70.1191L52.8474 69.9473L51.1336 66.9795C50.6158 66.0826 50.8718 64.9513 51.6941 64.3584L51.866 64.2471L54.8338 62.5332L55.0164 62.4404ZM56.7 63.7656C56.4239 63.2874 55.812 63.1233 55.3338 63.3994L52.366 65.1133C51.8877 65.3894 51.7236 66.0012 51.9998 66.4795L53.7137 69.4473C53.9898 69.9255 54.6016 70.0896 55.0799 69.8135L58.0476 68.0996C58.5258 67.8235 58.6899 67.2116 58.4138 66.7334L56.7 63.7656ZM60.2244 59.75C61.149 59.3344 62.2564 59.6775 62.7742 60.5742L62.9207 60.8281L63.0135 61.0098C63.4014 61.8728 63.1276 62.8958 62.3601 63.4492L62.1883 63.5605L61.9353 63.707L61.7527 63.7998C60.8897 64.1877 59.8677 63.913 59.3142 63.1455L59.2029 62.9746L59.0564 62.7207C58.5042 61.7641 58.8323 60.5415 59.7888 59.9893L60.0418 59.8428L60.2244 59.75ZM50.659 54.666C51.5836 54.2504 52.691 54.5944 53.2088 55.4912L54.9226 58.459L55.0154 58.6416C55.4034 59.5046 55.1296 60.5266 54.3621 61.0801L54.1902 61.1914L51.2224 62.9053L51.0398 62.998C50.1767 63.3861 49.1548 63.1123 48.6013 62.3447L48.49 62.1729L46.7762 59.2051C46.2583 58.3082 46.5143 57.1769 47.3367 56.584L47.5086 56.4727L50.4763 54.7588L50.659 54.666ZM61.908 61.0742C61.6318 60.5961 61.02 60.4321 60.5418 60.708L60.2888 60.8545C59.8106 61.1306 59.6465 61.7424 59.9226 62.2207L60.0691 62.4746C60.3454 62.9526 60.9572 63.1169 61.4353 62.8408L61.6883 62.6943C62.1663 62.4182 62.3304 61.8063 62.0545 61.3281L61.908 61.0742ZM52.3426 55.9912C52.0664 55.5129 51.4546 55.3489 50.9763 55.625L48.0086 57.3389C47.5303 57.615 47.3662 58.2268 47.6424 58.7051L49.3562 61.6729C49.6324 62.1511 50.2442 62.3152 50.7224 62.0391L53.6902 60.3252C54.1684 60.049 54.3325 59.4372 54.0564 58.959L52.3426 55.9912ZM58.6316 50.1602C59.5562 49.7447 60.6637 50.0886 61.1814 50.9854L62.8953 53.9531L62.9881 54.1357C63.3758 54.9987 63.1021 56.0208 62.3347 56.5742L62.1629 56.6855L59.1941 58.3994L59.0125 58.4922C58.1495 58.8802 57.1275 58.6062 56.574 57.8389L56.4627 57.667L54.7488 54.6992C54.231 53.8023 54.4869 52.671 55.3094 52.0781L55.4803 51.9668L58.449 50.2529L58.6316 50.1602ZM60.3152 51.4854C60.0391 51.0071 59.4273 50.8431 58.949 51.1191L55.9803 52.833C55.5022 53.1092 55.338 53.721 55.614 54.1992L57.3279 57.167C57.604 57.6452 58.2159 57.8092 58.6941 57.5332L61.6629 55.8193C62.141 55.5432 62.3051 54.9314 62.0291 54.4531L60.3152 51.4854Z" fill="url(#paint3_linear_3718_661)"/>
<path d="M70.8068 61.3331C68.7687 64.2787 69.1912 66.1237 67.4514 67.3861C68.0479 67.2376 69.1512 66.9736 70.2352 66.9158C71.6271 66.8416 72.5467 66.8663 73.3918 66.8911C73.6652 65.8267 76.1508 64.2044 77.6421 64.2044C79.1334 64.2044 81.1964 64.8728 81.9172 62.6698C82.6197 60.523 78.686 58.8579 76.3745 58.6104L76.3649 58.6094C74.1447 58.3716 72.945 58.2431 70.8068 61.3331Z" fill="#D9E0E4"/>
<path d="M29 77.4851C32.2064 76.5445 37.0283 69.6004 44.2612 69.6004C47.0202 69.6004 45.9763 71.5806 46.3491 72.2242C46.7219 72.8678 47.5587 73.2194 47.9896 73.3514C45.6531 73.995 41.204 75.2079 37.8982 76C35.2345 76.6382 30.8642 77.6336 29 77.4851Z" fill="#D9E0E4"/>
</g>
<defs>
<linearGradient id="paint0_linear_3718_661" x1="47.2423" y1="25.7273" x2="88.8944" y2="109.233" gradientUnits="userSpaceOnUse">
<stop stop-color="#505A62"/>
<stop offset="1" stop-color="#1F1F1F"/>
</linearGradient>
<linearGradient id="paint1_linear_3718_661" x1="64" y1="17" x2="64" y2="107" gradientUnits="userSpaceOnUse">
<stop stop-color="#64B4F4"/>
<stop offset="1" stop-color="#4989D5"/>
</linearGradient>
<linearGradient id="paint2_linear_3718_661" x1="54.1142" y1="44.4203" x2="63.4712" y2="78.0333" gradientUnits="userSpaceOnUse">
<stop stop-color="#677B8D"/>
<stop offset="1" stop-color="#39464D"/>
</linearGradient>
<linearGradient id="paint3_linear_3718_661" x1="54.8852" y1="49.1535" x2="54.8852" y2="71.6798" gradientUnits="userSpaceOnUse">
<stop stop-color="#EFF3F5"/>
<stop offset="1" stop-color="#D9E0E4"/>
</linearGradient>
<clipPath id="clip0_3718_661">
<rect width="128" height="128" fill="white"/>
</clipPath>
</defs>
</svg>
