<svg width="128" height="128" viewBox="0 0 128 128" fill="none" xmlns="http://www.w3.org/2000/svg">
<g clip-path="url(#clip0_731_550)">
<rect x="9" y="26" width="110" height="80" rx="10" fill="black" fill-opacity="0.15"/>
<rect x="9" y="24" width="110" height="80" rx="10" fill="url(#paint0_linear_731_550)"/>
<rect x="18" y="32" width="12" height="12" rx="2" fill="url(#paint1_linear_731_550)"/>
<rect x="34" y="32" width="12" height="12" rx="2" fill="url(#paint2_linear_731_550)"/>
<rect x="50" y="32" width="12" height="12" rx="2" fill="url(#paint3_linear_731_550)"/>
<rect x="66" y="32" width="12" height="12" rx="2" fill="url(#paint4_linear_731_550)"/>
<rect x="82" y="32" width="12" height="12" rx="2" fill="url(#paint5_linear_731_550)"/>
<rect x="98" y="32" width="12" height="12" rx="2" fill="url(#paint6_linear_731_550)"/>
<rect x="26" y="49" width="12" height="12" rx="2" fill="url(#paint7_linear_731_550)"/>
<rect x="42" y="49" width="12" height="12" rx="2" fill="url(#paint8_linear_731_550)"/>
<rect x="58" y="49" width="12" height="12" rx="2" fill="url(#paint9_linear_731_550)"/>
<rect x="74" y="49" width="12" height="12" rx="2" fill="url(#paint10_linear_731_550)"/>
<rect x="90" y="49" width="12" height="12" rx="2" fill="url(#paint11_linear_731_550)"/>
<rect x="18" y="66" width="12" height="12" rx="2" fill="url(#paint12_linear_731_550)"/>
<rect x="34" y="66" width="12" height="12" rx="2" fill="url(#paint13_linear_731_550)"/>
<rect x="50" y="66" width="12" height="12" rx="2" fill="url(#paint14_linear_731_550)"/>
<rect x="66" y="66" width="12" height="12" rx="2" fill="url(#paint15_linear_731_550)"/>
<rect x="82" y="66" width="12" height="12" rx="2" fill="url(#paint16_linear_731_550)"/>
<rect x="98" y="66" width="12" height="12" rx="2" fill="url(#paint17_linear_731_550)"/>
<rect x="42" y="83" width="44" height="12" rx="2" fill="url(#paint18_linear_731_550)"/>
</g>
<defs>
<linearGradient id="paint0_linear_731_550" x1="45.5666" y1="34.1818" x2="72.3105" y2="107.905" gradientUnits="userSpaceOnUse">
<stop stop-color="#505A62"/>
<stop offset="1" stop-color="#1F1F1F"/>
</linearGradient>
<linearGradient id="paint1_linear_731_550" x1="24" y1="32" x2="24" y2="44" gradientUnits="userSpaceOnUse">
<stop stop-color="#DBE4E8"/>
<stop offset="1" stop-color="#B9C3C7"/>
</linearGradient>
<linearGradient id="paint2_linear_731_550" x1="40" y1="32" x2="40" y2="44" gradientUnits="userSpaceOnUse">
<stop stop-color="#DBE4E8"/>
<stop offset="1" stop-color="#B9C3C7"/>
</linearGradient>
<linearGradient id="paint3_linear_731_550" x1="56" y1="32" x2="56" y2="44" gradientUnits="userSpaceOnUse">
<stop stop-color="#DBE4E8"/>
<stop offset="1" stop-color="#B9C3C7"/>
</linearGradient>
<linearGradient id="paint4_linear_731_550" x1="72" y1="32" x2="72" y2="44" gradientUnits="userSpaceOnUse">
<stop stop-color="#DBE4E8"/>
<stop offset="1" stop-color="#B9C3C7"/>
</linearGradient>
<linearGradient id="paint5_linear_731_550" x1="88" y1="32" x2="88" y2="44" gradientUnits="userSpaceOnUse">
<stop stop-color="#DBE4E8"/>
<stop offset="1" stop-color="#B9C3C7"/>
</linearGradient>
<linearGradient id="paint6_linear_731_550" x1="104" y1="32" x2="104" y2="44" gradientUnits="userSpaceOnUse">
<stop stop-color="#DBE4E8"/>
<stop offset="1" stop-color="#B9C3C7"/>
</linearGradient>
<linearGradient id="paint7_linear_731_550" x1="32" y1="49" x2="32" y2="61" gradientUnits="userSpaceOnUse">
<stop stop-color="#DBE4E8"/>
<stop offset="1" stop-color="#B9C3C7"/>
</linearGradient>
<linearGradient id="paint8_linear_731_550" x1="48" y1="49" x2="48" y2="61" gradientUnits="userSpaceOnUse">
<stop stop-color="#DBE4E8"/>
<stop offset="1" stop-color="#B9C3C7"/>
</linearGradient>
<linearGradient id="paint9_linear_731_550" x1="64" y1="49" x2="64" y2="61" gradientUnits="userSpaceOnUse">
<stop stop-color="#DBE4E8"/>
<stop offset="1" stop-color="#B9C3C7"/>
</linearGradient>
<linearGradient id="paint10_linear_731_550" x1="80" y1="49" x2="80" y2="61" gradientUnits="userSpaceOnUse">
<stop stop-color="#DBE4E8"/>
<stop offset="1" stop-color="#B9C3C7"/>
</linearGradient>
<linearGradient id="paint11_linear_731_550" x1="96" y1="49" x2="96" y2="61" gradientUnits="userSpaceOnUse">
<stop stop-color="#DBE4E8"/>
<stop offset="1" stop-color="#B9C3C7"/>
</linearGradient>
<linearGradient id="paint12_linear_731_550" x1="24" y1="66" x2="24" y2="78" gradientUnits="userSpaceOnUse">
<stop stop-color="#DBE4E8"/>
<stop offset="1" stop-color="#B9C3C7"/>
</linearGradient>
<linearGradient id="paint13_linear_731_550" x1="40" y1="66" x2="40" y2="78" gradientUnits="userSpaceOnUse">
<stop stop-color="#DBE4E8"/>
<stop offset="1" stop-color="#B9C3C7"/>
</linearGradient>
<linearGradient id="paint14_linear_731_550" x1="56" y1="66" x2="56" y2="78" gradientUnits="userSpaceOnUse">
<stop stop-color="#DBE4E8"/>
<stop offset="1" stop-color="#B9C3C7"/>
</linearGradient>
<linearGradient id="paint15_linear_731_550" x1="72" y1="66" x2="72" y2="78" gradientUnits="userSpaceOnUse">
<stop stop-color="#DBE4E8"/>
<stop offset="1" stop-color="#B9C3C7"/>
</linearGradient>
<linearGradient id="paint16_linear_731_550" x1="88" y1="66" x2="88" y2="78" gradientUnits="userSpaceOnUse">
<stop stop-color="#DBE4E8"/>
<stop offset="1" stop-color="#B9C3C7"/>
</linearGradient>
<linearGradient id="paint17_linear_731_550" x1="104" y1="66" x2="104" y2="78" gradientUnits="userSpaceOnUse">
<stop stop-color="#DBE4E8"/>
<stop offset="1" stop-color="#B9C3C7"/>
</linearGradient>
<linearGradient id="paint18_linear_731_550" x1="64" y1="83" x2="64" y2="95" gradientUnits="userSpaceOnUse">
<stop stop-color="#DBE4E8"/>
<stop offset="1" stop-color="#B9C3C7"/>
</linearGradient>
<clipPath id="clip0_731_550">
<rect width="128" height="128" fill="white"/>
</clipPath>
</defs>
</svg>
