<svg width="128" height="128" viewBox="0 0 128 128" fill="none" xmlns="http://www.w3.org/2000/svg">
<g clip-path="url(#clip0_3816_671)">
<path d="M114 102V18C114 13.5817 110.418 10 106 10H22C17.5817 10 14 13.5817 14 18V102C14 106.418 17.5817 110 22 110H106C110.418 110 114 106.418 114 102Z" fill="black" fill-opacity="0.15"/>
<path d="M114 100V16C114 11.5817 110.418 8 106 8H22C17.5817 8 14 11.5817 14 16V100C14 104.418 17.5817 108 22 108H106C110.418 108 114 104.418 114 100Z" fill="url(#paint0_linear_3816_671)"/>
<path d="M108 30V18C108 15.7909 106.209 14 104 14H62C59.7909 14 58 15.7909 58 18V30C58 32.2091 59.7909 34 62 34H104C106.209 34 108 32.2091 108 30Z" fill="url(#paint1_linear_3816_671)"/>
<path d="M108 96V48C108 45.7909 106.209 44 104 44H62C59.7909 44 58 45.7909 58 48V96C58 98.2091 59.7909 100 62 100H104C106.209 100 108 98.2091 108 96Z" fill="url(#paint2_linear_3816_671)"/>
<circle cx="89" cy="85" r="35" fill="black" fill-opacity="0.15"/>
<circle cx="89" cy="83" r="35" fill="url(#paint3_linear_3816_671)"/>
<circle cx="89" cy="83" r="17" fill="url(#paint4_linear_3816_671)"/>
<circle cx="89" cy="83" r="17" fill="url(#paint5_linear_3816_671)"/>
<circle cx="89" cy="83" r="10" fill="url(#paint6_linear_3816_671)"/>
<circle cx="89" cy="83" r="7" fill="url(#paint7_linear_3816_671)"/>
<path d="M64 114V68C64 64.6863 61.3137 62 58 62H10C6.68629 62 4 64.6863 4 68V109.335C4 110.962 4.66039 112.518 5.82987 113.649L10.6558 118.314C11.7746 119.395 13.2698 120 14.8259 120H58C61.3137 120 64 117.314 64 114Z" fill="black" fill-opacity="0.15"/>
<path d="M64 112V66C64 62.6863 61.3137 60 58 60H10C6.68629 60 4 62.6863 4 66V107.335C4 108.962 4.66039 110.518 5.82987 111.649L10.6558 116.314C11.7746 117.395 13.2698 118 14.8259 118H58C61.3137 118 64 115.314 64 112Z" fill="url(#paint8_linear_3816_671)"/>
<rect x="10" y="66" width="48" height="30" rx="4" fill="url(#paint9_linear_3816_671)"/>
<rect x="19" y="106" width="30" height="12" rx="2" fill="url(#paint10_linear_3816_671)"/>
</g>
<defs>
<linearGradient id="paint0_linear_3816_671" x1="50.2697" y1="18.2797" x2="82.5221" y2="87.4738" gradientUnits="userSpaceOnUse">
<stop stop-color="#677B8D"/>
<stop offset="1" stop-color="#39464D"/>
</linearGradient>
<linearGradient id="paint1_linear_3816_671" x1="80.1517" y1="15.1669" x2="81.0934" y2="32.9502" gradientUnits="userSpaceOnUse">
<stop stop-color="#FD8989"/>
<stop offset="1" stop-color="#F95D5D"/>
</linearGradient>
<linearGradient id="paint2_linear_3816_671" x1="83" y1="44" x2="83" y2="100" gradientUnits="userSpaceOnUse">
<stop stop-color="#64B4F4"/>
<stop offset="1" stop-color="#4989D5"/>
</linearGradient>
<linearGradient id="paint3_linear_3816_671" x1="89" y1="48" x2="102.417" y2="118" gradientUnits="userSpaceOnUse">
<stop stop-color="#E9F8FF"/>
<stop offset="1" stop-color="#AFC4CE"/>
</linearGradient>
<linearGradient id="paint4_linear_3816_671" x1="89" y1="66" x2="89" y2="100" gradientUnits="userSpaceOnUse">
<stop stop-color="#D9E0E4"/>
<stop offset="1" stop-color="#B9C3C7"/>
</linearGradient>
<linearGradient id="paint5_linear_3816_671" x1="89" y1="66" x2="89" y2="100" gradientUnits="userSpaceOnUse">
<stop stop-color="#D9E0E4"/>
<stop offset="1" stop-color="#B9C3C7"/>
</linearGradient>
<linearGradient id="paint6_linear_3816_671" x1="89" y1="93" x2="89" y2="73" gradientUnits="userSpaceOnUse">
<stop stop-color="#677B8D"/>
<stop offset="1" stop-color="#919FA6"/>
</linearGradient>
<linearGradient id="paint7_linear_3816_671" x1="84.6833" y1="75.51" x2="93.5248" y2="90.0545" gradientUnits="userSpaceOnUse">
<stop stop-color="#363D43"/>
<stop offset="1" stop-color="#181818"/>
</linearGradient>
<linearGradient id="paint8_linear_3816_671" x1="34" y1="60" x2="34" y2="118" gradientUnits="userSpaceOnUse">
<stop stop-color="#64B4F4"/>
<stop offset="1" stop-color="#4989D5"/>
</linearGradient>
<linearGradient id="paint9_linear_3816_671" x1="34" y1="66" x2="34" y2="96" gradientUnits="userSpaceOnUse">
<stop stop-color="#EFF3F5"/>
<stop offset="1" stop-color="#D9E0E4"/>
</linearGradient>
<linearGradient id="paint10_linear_3816_671" x1="34" y1="106" x2="34" y2="118" gradientUnits="userSpaceOnUse">
<stop stop-color="#BFCAD0"/>
<stop offset="1" stop-color="#919FA6"/>
</linearGradient>
<clipPath id="clip0_3816_671">
<rect width="128" height="128" fill="white"/>
</clipPath>
</defs>
</svg>
