<svg width="128" height="128" viewBox="0 0 128 128" fill="none" xmlns="http://www.w3.org/2000/svg">
<g clip-path="url(#clip0_731_1116)">
<path d="M124 106V26C124 20.4772 119.523 16 114 16H14C8.47715 16 4 20.4772 4 26V106C4 111.523 8.47715 116 14 116H114C119.523 116 124 111.523 124 106Z" fill="black" fill-opacity="0.15"/>
<path d="M124 104V24C124 18.4772 119.523 14 114 14H14C8.47715 14 4 18.4772 4 24V104C4 109.523 8.47715 114 14 114H114C119.523 114 124 109.523 124 104Z" fill="url(#paint0_linear_731_1116)"/>
<rect x="12" y="22" width="12" height="12" rx="2" fill="#434C55"/>
<rect x="12" y="77" width="12" height="12" rx="2" fill="#434C55"/>
<rect x="12" y="39" width="12" height="12" rx="2" fill="#434C55"/>
<rect x="12" y="94" width="12" height="12" rx="2" fill="#434C55"/>
<circle cx="18" cy="64" r="8" fill="#434C55"/>
<path d="M113.532 120.829C116.136 124.597 119.252 126.766 120.928 125.799C122.604 124.831 122.284 121.048 120.322 116.909C119.849 115.911 118.617 115.586 117.66 116.138L114.196 118.138C113.24 118.691 112.905 119.92 113.532 120.829Z" fill="black" fill-opacity="0.15"/>
<path d="M113.532 118.829C116.136 122.597 119.252 124.766 120.928 123.799C122.604 122.831 122.284 119.048 120.322 114.909C119.849 113.911 118.617 113.586 117.66 114.138L114.196 116.138C113.24 116.691 112.904 117.92 113.532 118.829Z" fill="url(#paint1_linear_731_1116)"/>
<path d="M71.3424 55.3979C70.6309 54.4311 70.9161 53.0595 71.9557 52.4593L81.9007 46.7176C82.9403 46.1174 84.2707 46.5561 84.7522 47.6558C86.7107 52.1288 91.5265 62.8735 95.6244 69.9711C104.158 84.7519 117.425 107.732 121.133 114.153C121.685 115.109 121.349 116.318 120.392 116.87L113.464 120.87C112.508 121.423 111.293 121.109 110.74 120.153C107.033 113.732 93.7658 90.7519 85.2321 75.9711C81.1342 68.8735 74.237 59.3305 71.3424 55.3979Z" fill="black" fill-opacity="0.15"/>
<path d="M68.6412 38.9489L70.6975 53.2211C70.8616 54.3601 71.9451 55.0978 73.0295 54.7127C74.3486 54.2442 76.2296 53.4559 78.4282 52.1865C80.6268 50.9171 82.25 49.6823 83.3153 48.7742C84.191 48.0277 84.0938 46.7204 83.1895 46.0088L71.8576 37.0919C70.4387 35.9755 68.3838 37.1619 68.6412 38.9489Z" fill="black" fill-opacity="0.15"/>
<path d="M71.3424 53.3979C70.6309 52.4311 70.9161 51.0595 71.9557 50.4593L81.9007 44.7176C82.9403 44.1174 84.2707 44.5561 84.7522 45.6558C86.7107 50.1288 91.5265 60.8735 95.6244 67.9711C104.158 82.7519 117.425 105.732 121.133 112.153C121.685 113.109 121.349 114.318 120.392 114.87L113.464 118.87C112.508 119.423 111.293 119.109 110.74 118.153C107.033 111.732 93.7658 88.7519 85.2321 73.9711C81.1342 66.8735 74.237 57.3305 71.3424 53.3979Z" fill="url(#paint2_linear_731_1116)"/>
<path d="M68.6412 36.9489L70.6975 51.2211C70.8616 52.3601 71.9451 53.0978 73.0295 52.7127C74.3486 52.2442 76.2296 51.4559 78.4282 50.1865C80.6268 48.9171 82.25 47.6823 83.3153 46.7742C84.191 46.0277 84.0938 44.7204 83.1895 44.0088L71.8576 35.0919C70.4387 33.9755 68.3838 35.1619 68.6412 36.9489Z" fill="url(#paint3_linear_731_1116)"/>
<path d="M82.1962 61.7128C81.6439 60.7562 81.9716 59.5331 82.9282 58.9808C83.8848 58.4285 85.108 58.7562 85.6603 59.7128L88.1603 64.043C88.4364 64.5212 88.2725 65.1328 87.7942 65.409L86.0622 66.409C85.5839 66.6851 84.9723 66.5212 84.6962 66.043L82.1962 61.7128Z" fill="black" fill-opacity="0.15"/>
<path d="M90.6962 76.4352C91.2485 77.3918 92.4716 77.7196 93.4282 77.1673C94.3848 76.615 94.7126 75.3918 94.1603 74.4352L89.6603 66.641C89.3841 66.1627 88.7725 65.9989 88.2942 66.275L86.5622 67.275C86.0839 67.5511 85.92 68.1627 86.1962 68.641L90.6962 76.4352Z" fill="black" fill-opacity="0.15"/>
<path d="M82.1962 60.7128C81.6439 59.7562 81.9716 58.5331 82.9282 57.9808C83.8848 57.4285 85.108 57.7562 85.6603 58.7128L88.1603 63.043C88.4364 63.5212 88.2725 64.1328 87.7942 64.409L86.0622 65.409C85.5839 65.6851 84.9723 65.5212 84.6962 65.043L82.1962 60.7128Z" fill="url(#paint4_linear_731_1116)"/>
<path d="M90.6962 75.4352C91.2485 76.3918 92.4716 76.7196 93.4282 76.1673C94.3848 75.615 94.7126 74.3918 94.1603 73.4352L89.6603 65.641C89.3841 65.1627 88.7725 64.9989 88.2942 65.275L86.5622 66.275C86.0839 66.5511 85.92 67.1627 86.1962 67.641L90.6962 75.4352Z" fill="url(#paint5_linear_731_1116)"/>
</g>
<defs>
<linearGradient id="paint0_linear_731_1116" x1="27" y1="10.5" x2="84.3563" y2="123.724" gradientUnits="userSpaceOnUse">
<stop stop-color="#363D43"/>
<stop offset="1" stop-color="#181818"/>
</linearGradient>
<linearGradient id="paint1_linear_731_1116" x1="116.428" y1="116.004" x2="119.247" y2="123.791" gradientUnits="userSpaceOnUse">
<stop stop-color="#505A62"/>
<stop offset="1" stop-color="#1F1F1F"/>
</linearGradient>
<linearGradient id="paint2_linear_731_1116" x1="77" y1="50" x2="111.156" y2="49.5459" gradientUnits="userSpaceOnUse">
<stop stop-color="#505A62"/>
<stop offset="1" stop-color="#1F2528"/>
</linearGradient>
<linearGradient id="paint3_linear_731_1116" x1="66.8789" y1="35.545" x2="82.4971" y2="43.8693" gradientUnits="userSpaceOnUse">
<stop stop-color="#505A62"/>
<stop offset="1" stop-color="#2B353E"/>
</linearGradient>
<linearGradient id="paint4_linear_731_1116" x1="82.8326" y1="59.1557" x2="88.3564" y2="60.7884" gradientUnits="userSpaceOnUse">
<stop stop-color="#39464D"/>
<stop offset="1" stop-color="#31363B"/>
</linearGradient>
<linearGradient id="paint5_linear_731_1116" x1="87.4952" y1="66.891" x2="86.5644" y2="73.7268" gradientUnits="userSpaceOnUse">
<stop stop-color="#272B2F"/>
<stop offset="1" stop-color="#1F1F1F"/>
</linearGradient>
<clipPath id="clip0_731_1116">
<rect width="128" height="128" fill="white"/>
</clipPath>
</defs>
</svg>
