<svg width="128" height="128" viewBox="0 0 128 128" fill="none" xmlns="http://www.w3.org/2000/svg">
<path d="M20 20V88C20 91.3137 22.6863 94 26 94H102C105.314 94 108 91.3137 108 88V26.4C108 23.0863 105.314 20.4 102 20.4H63.7061C62.0242 20.4 60.4196 19.6941 59.2832 18.4544L56.9835 15.9457C55.8471 14.7059 54.2424 14 52.5606 14L26 14C22.6863 14 20 16.6863 20 20Z" fill="#2179CB"/>
<path d="M14 50.4C14 45.9817 17.5817 42.4 22 42.4H48.7224C50.9612 42.4 53.0975 41.4619 54.6125 39.8136L55.7405 38.5864C57.2554 36.9381 59.3918 36 61.6305 36H106C110.418 36 114 39.5817 114 44V108C114 112.418 110.418 116 106 116H22C17.5817 116 14 112.418 14 108L14 50.4Z" fill="black" fill-opacity="0.15"/>
<path d="M14 48.4C14 43.9817 17.5817 40.4 22 40.4H48.7224C50.9612 40.4 53.0975 39.4619 54.6125 37.8136L55.7405 36.5864C57.2554 34.9381 59.3918 34 61.6305 34H106C110.418 34 114 37.5817 114 42V106C114 110.418 110.418 114 106 114H22C17.5817 114 14 110.418 14 106L14 48.4Z" fill="url(#paint0_linear_853_313)"/>
<rect x="44" y="54" width="40" height="40" rx="4" fill="url(#paint1_linear_853_313)"/>
<path d="M48 88V83.5067C48 82.8519 48.3205 82.2386 48.858 81.8648L56.12 76.814C56.8204 76.3269 57.7526 76.3376 58.4415 76.8407L66.4617 82.6977C67.1506 83.2009 68.0828 83.2116 68.7832 82.7245L72.6645 80.025C73.3509 79.5476 74.262 79.5476 74.9484 80.025L79.142 82.9417C79.6795 83.3156 80 83.9289 80 84.5836V88C80 89.1046 79.1046 90 78 90H50C48.8954 90 48 89.1046 48 88Z" fill="#2484E6"/>
<circle cx="70.667" cy="67.3334" r="4" fill="#2D91EB"/>
<defs>
<linearGradient id="paint0_linear_853_313" x1="58.1176" y1="37.8209" x2="63.072" y2="110.28" gradientUnits="userSpaceOnUse">
<stop stop-color="#54B2F7"/>
<stop offset="0.106666" stop-color="#38A4F2"/>
<stop offset="0.866666" stop-color="#1C77E1"/>
<stop offset="1" stop-color="#1B71D7"/>
</linearGradient>
<linearGradient id="paint1_linear_853_313" x1="64" y1="54" x2="64" y2="94" gradientUnits="userSpaceOnUse">
<stop stop-color="#EFF3F5"/>
<stop offset="1" stop-color="#B4D8F1"/>
</linearGradient>
</defs>
</svg>
