<?xml version="1.0" encoding="UTF-8" standalone="no"?>
<svg xmlns:inkscape="http://www.inkscape.org/namespaces/inkscape" xmlns:sodipodi="http://sodipodi.sourceforge.net/DTD/sodipodi-0.dtd" xmlns="http://www.w3.org/2000/svg" xmlns:svg="http://www.w3.org/2000/svg" width="24" height="24" viewBox="0 0 24 24" fill="none" version="1.1" id="svg3" sodipodi:docname="document-open-recent.svg" inkscape:version="1.4 (e7c3feb100, 2024-10-09)">
  <defs id="defs1">
    <style id="current-color-scheme" type="text/css">
      .ColorScheme-Text { color:#e6f0f5; }
      .ColorScheme-Text { color:#2179cb; }
      .ColorScheme-Background { color:#e4e4e4; }
    </style>
  </defs>
  <sodipodi:namedview id="namedview3" pagecolor="#ffffff" bordercolor="#ffffff" borderopacity="0.25" inkscape:showpageshadow="2" inkscape:pageopacity="0.0" inkscape:pagecheckerboard="0" inkscape:deskcolor="#d1d1d1" inkscape:zoom="33.291667" inkscape:cx="11.984981" inkscape:cy="12" inkscape:window-width="1920" inkscape:window-height="1008" inkscape:window-x="0" inkscape:window-y="0" inkscape:window-maximized="1" inkscape:current-layer="svg3"/>
  <g clip-path="url(#clip0_927_194)" id="g3" style="paint-order:stroke fill markers">
    <path id="path2" d="m 14,4 v 3 c 0,0.55228 0.4477,1 1,1 h 3 M 11,20 H 7 C 6.44772,20 6,19.5523 6,19 V 5 C 6,4.44772 6.44772,4 7,4 h 7 c 0.2568,0 0.5037,0.09877 0.6897,0.27586 l 3,2.85715 C 17.8878,7.32175 18,7.58347 18,7.85714 V 13" style="stroke:#ffffff;stroke-opacity:1;paint-order:stroke fill markers;fill:none;stroke-linecap:round"/>
    <path d="M15 15.5V17L15.5 17.5" stroke="#ffffff" stroke-width="1.2" stroke-linecap="round" stroke-linejoin="round" id="path3" style="paint-order:stroke fill markers"/>
    <circle cx="15" cy="17" r="3" stroke="#ffffff" stroke-width="1.2" id="circle3" style="paint-order:stroke fill markers"/>
    <path id="path2" d="m 14,4 v 3 c 0,0.55228 0.4477,1 1,1 h 3 M 11,20 H 7 C 6.44772,20 6,19.5523 6,19 V 5 C 6,4.44772 6.44772,4 7,4 h 7 c 0.2568,0 0.5037,0.09877 0.6897,0.27586 l 3,2.85715 C 17.8878,7.32175 18,7.58347 18,7.85714 V 13" style="stroke:currentColor;opacity:1;paint-order:stroke fill markers;fill:none;stroke-linecap:round" class="ColorScheme-Text"/>
    <path d="M15 15.5V17L15.5 17.5" style="stroke:currentColor;opacity:1;paint-order:stroke fill markers" class="ColorScheme-Text" stroke-width="1.2" stroke-linecap="round" stroke-linejoin="round" id="path3"/>
    <circle cx="15" cy="17" r="3" style="stroke:currentColor;opacity:1;paint-order:stroke fill markers" class="ColorScheme-Text" stroke-width="1.2" id="circle3"/>
  </g>
  <defs id="defs3">
    <clipPath id="clip0_927_194">
      <rect width="24" height="24" fill="white" id="rect3"/>
    </clipPath>
  </defs>
</svg>
