<?xml version="1.0" encoding="UTF-8" standalone="no"?>
<svg xmlns:inkscape="http://www.inkscape.org/namespaces/inkscape" xmlns:sodipodi="http://sodipodi.sourceforge.net/DTD/sodipodi-0.dtd" xmlns="http://www.w3.org/2000/svg" xmlns:svg="http://www.w3.org/2000/svg" width="24" height="24" viewBox="0 0 24 24" fill="none" version="1.1" id="svg4" sodipodi:docname="user-trash-full.svg" inkscape:version="1.4 (e7c3feb100, 2024-10-09)">
  <sodipodi:namedview id="namedview4" pagecolor="#ffffff" bordercolor="#ffffff" borderopacity="0.25" inkscape:showpageshadow="2" inkscape:pageopacity="0.0" inkscape:pagecheckerboard="0" inkscape:deskcolor="#d1d1d1" inkscape:zoom="33.291667" inkscape:cx="11.984981" inkscape:cy="12" inkscape:window-width="1920" inkscape:window-height="1008" inkscape:window-x="0" inkscape:window-y="0" inkscape:window-maximized="1" inkscape:current-layer="g4"/>
  <defs id="defs1">
    <style id="current-color-scheme" type="text/css">
            .ColorScheme-Text { color:#e6f0f5; }
            .ColorScheme-Text { color:#2179cb; }
            .ColorScheme-Background { color:#e4e4e4; }
        </style>
  </defs>
  <g clip-path="url(#clip0_899_232)" id="g4">
    <path d="M 6,10 V 7 C 6,5.89543 6.89543,5 8,5 h 8 c 1.1046,0 2,0.89543 2,2 v 3 l -0.8023,7.2209 C 17.0851,18.2337 16.229,19 15.2099,19 H 8.79009 C 7.77099,19 6.91486,18.2337 6.80232,17.2209 Z" stroke="#ffffff" stroke-width="1.2" id="path1" style="display:inline"/>
    <rect style="fill:#ffffff;fill-opacity:1;stroke:none;stroke-width:1.3922;stroke-linecap:round;paint-order:stroke fill markers" id="rect5" width="8.951189" height="3.2740929" x="7.5093865" y="6.6983728" ry="0.70159131"/>
    <path d="M 6,10 V 7 C 6,5.89543 6.89543,5 8,5 h 8 c 1.1046,0 2,0.89543 2,2 v 3 l -0.8023,7.2209 C 17.0851,18.2337 16.229,19 15.2099,19 H 8.79009 C 7.77099,19 6.91486,18.2337 6.80232,17.2209 Z" style="stroke:currentColor;opacity:1;display:inline" class="ColorScheme-Text" stroke-width="1.2" id="path1"/>
    <rect style="fill:currentColor;opacity:1;stroke:none;stroke-width:1.3922;stroke-linecap:round;paint-order:stroke fill markers" class="ColorScheme-Text" id="rect5" width="8.951189" height="3.2740929" x="7.5093865" y="6.6983728" ry="0.70159131"/>
  </g>
  <defs id="defs4">
    <clipPath id="clip0_899_232">
      <rect width="24" height="24" fill="white" id="rect4"/>
    </clipPath>
  </defs>
</svg>
