<svg width="24" height="24" viewBox="0 0 24 24" fill="none" xmlns="http://www.w3.org/2000/svg">
<g clip-path="url(#clip0_3017_2327)">
<mask id="mask0_3017_2327" style="mask-type:luminance" maskUnits="userSpaceOnUse" x="0" y="0" width="24" height="24">
<path d="M24 0H0V24H24V0Z" fill="white"/>
</mask>
<g mask="url(#mask0_3017_2327)">
<path d="M6 5C6 4.44772 6.44772 4 7 4H14C14.2568 4 14.5037 4.09877 14.6897 4.27586L17.6897 7.13301C17.8878 7.32175 18 7.58347 18 7.85714V19C18 19.5523 17.5523 20 17 20H7C6.44772 20 6 19.5523 6 19V5Z" stroke="#DDDDDD" stroke-width="1.2"/>
<path d="M14 4V7C14 7.55228 14.4477 8 15 8H18" stroke="#DDDDDD" stroke-width="1.2" stroke-linecap="round" stroke-linejoin="round"/>
</g>
</g>
<defs>
<clipPath id="clip0_3017_2327">
<rect width="24" height="24" fill="white"/>
</clipPath>
</defs>
</svg>
