<svg width="24" height="24" viewBox="0 0 24 24" fill="none" xmlns="http://www.w3.org/2000/svg">
<g clip-path="url(#clip0_3017_2165)">
<mask id="mask0_3017_2165" style="mask-type:luminance" maskUnits="userSpaceOnUse" x="0" y="0" width="24" height="24">
<path d="M24 0H0V24H24V0Z" fill="white"/>
</mask>
<g mask="url(#mask0_3017_2165)">
<path d="M17 5H7C5.89543 5 5 5.89543 5 7V17C5 18.1046 5.89543 19 7 19H17C18.1046 19 19 18.1046 19 17V7C19 5.89543 18.1046 5 17 5Z" stroke="#DDDDDD" stroke-width="1.2"/>
<path d="M5 16L9.23748 13.3585C9.58472 13.142 10.0288 13.1589 10.3586 13.4012L12.7539 15.1611C13.0899 15.4079 13.5438 15.4204 13.8928 15.1925L15.3714 14.2268C15.7134 14.0035 16.1568 14.0106 16.4915 14.2448L19 16" stroke="#DDDDDD" stroke-width="1.2" stroke-linecap="round" stroke-linejoin="round"/>
<path d="M14.5 11C15.3284 11 16 10.3284 16 9.5C16 8.67157 15.3284 8 14.5 8C13.6716 8 13 8.67157 13 9.5C13 10.3284 13.6716 11 14.5 11Z" stroke="#DDDDDD" stroke-width="1.2"/>
</g>
</g>
<defs>
<clipPath id="clip0_3017_2165">
<rect width="24" height="24" fill="white"/>
</clipPath>
</defs>
</svg>
