<svg width="24" height="24" viewBox="0 0 24 24" fill="none" xmlns="http://www.w3.org/2000/svg">
<g clip-path="url(#clip0_3017_2182)">
<mask id="mask0_3017_2182" style="mask-type:luminance" maskUnits="userSpaceOnUse" x="0" y="0" width="24" height="24">
<path d="M24 0H0V24H24V0Z" fill="white"/>
</mask>
<g mask="url(#mask0_3017_2182)">
<path d="M17 15.5V17L17.5 17.5" stroke="#DDDDDD" stroke-width="1.2" stroke-linecap="round" stroke-linejoin="round"/>
<path d="M17 20C18.6569 20 20 18.6569 20 17C20 15.3431 18.6569 14 17 14C15.3431 14 14 15.3431 14 17C14 18.6569 15.3431 20 17 20Z" stroke="#DDDDDD" stroke-width="1.2"/>
<path d="M13 20H6C4.89543 20 4 19.1046 4 18V11.5C4 10.9477 4.44772 10.5 5 10.5H8.17157C8.70201 10.5 9.21071 10.2893 9.58579 9.91421L10.4142 9.08579C10.7893 8.71071 11.298 8.5 11.8284 8.5H19C19.5523 8.5 20 8.94772 20 9.5V13" stroke="#DDDDDD" stroke-width="1.2" stroke-linecap="round"/>
<path d="M5 10.5V6C5 4.89543 5.89543 4 7 4H9.17157C9.70201 4 10.2107 4.21071 10.5858 4.58579L11.4142 5.41421C11.7893 5.78929 12.298 6 12.8284 6H17C18.1046 6 19 6.89543 19 8V8.5" stroke="#DDDDDD" stroke-width="1.2" stroke-linecap="round" stroke-linejoin="round"/>
</g>
</g>
<defs>
<clipPath id="clip0_3017_2182">
<rect width="24" height="24" fill="white"/>
</clipPath>
</defs>
</svg>
