<svg width="24" height="24" viewBox="0 0 24 24" fill="none" xmlns="http://www.w3.org/2000/svg">
<g clip-path="url(#clip0_3017_2306)">
<mask id="mask0_3017_2306" style="mask-type:luminance" maskUnits="userSpaceOnUse" x="0" y="0" width="24" height="24">
<path d="M24 0H0V24H24V0Z" fill="white"/>
</mask>
<g mask="url(#mask0_3017_2306)">
<path d="M6 10V7C6 5.89543 6.89543 5 8 5H16C17.1046 5 18 5.89543 18 7V10L17.1977 17.2209C17.0851 18.2337 16.229 19 15.2099 19H8.79009C7.77099 19 6.91486 18.2337 6.80232 17.2209L6 10Z" stroke="#DDDDDD" stroke-width="1.2"/>
<path d="M16 9C16 9.55228 15.5523 10 15 10H9C8.44772 10 8 9.55229 8 9V8C8 7.44772 8.44772 7 9 7H15C15.5523 7 16 7.44771 16 8V9Z" stroke="#DDDDDD" stroke-width="1.2"/>
</g>
</g>
<defs>
<clipPath id="clip0_3017_2306">
<rect width="24" height="24" fill="white"/>
</clipPath>
</defs>
</svg>
