<svg width="128" height="128" viewBox="0 0 128 128" fill="none" xmlns="http://www.w3.org/2000/svg">
<g clip-path="url(#clip0_731_1201)">
<path d="M124 106V26C124 20.4772 119.523 16 114 16H14C8.47715 16 4 20.4772 4 26V106C4 111.523 8.47715 116 14 116H114C119.523 116 124 111.523 124 106Z" fill="black" fill-opacity="0.15"/>
<path d="M124 104V24C124 18.4772 119.523 14 114 14H14C8.47715 14 4 18.4772 4 24V104C4 109.523 8.47715 114 14 114H114C119.523 114 124 109.523 124 104Z" fill="url(#paint0_linear_731_1201)"/>
<path d="M4.00015 24.0787L9.00015 29.0787L9.00015 25.0442C9.00015 21.6579 11.6118 20.0574 11.6118 20.0574L7.6547 16.2309C6.63545 17.131 4.00016 19.5 4.00015 24.0787Z" fill="url(#paint1_linear_731_1201)"/>
<path d="M124 103.882L119 98.8821L119 102.917C119 106.303 116.388 107.903 116.388 107.903L120.346 111.73C121.365 110.83 124 108.461 124 103.882Z" fill="url(#paint2_linear_731_1201)"/>
<path d="M22.1436 14.0067H33.5143L38.5344 19H27.1637L22.1436 14.0067Z" fill="url(#paint3_linear_731_1201)"/>
<path d="M78.8455 14.0067H90.2162L95.2363 19H83.8656L78.8455 14.0067Z" fill="url(#paint4_linear_731_1201)"/>
<path d="M60.3508 109H71.7216L76.7417 113.993H65.3709L60.3508 109Z" fill="url(#paint5_linear_731_1201)"/>
<path d="M119 43L119 54.3707L123.993 59.3908L123.993 48.0201L119 43Z" fill="url(#paint6_linear_731_1201)"/>
<path d="M4.00659 41.3749L4.00659 52.7456L8.99994 57.7657L8.99994 46.395L4.00659 41.3749Z" fill="url(#paint7_linear_731_1201)"/>
<path d="M119 71.1357L119 82.5064L123.993 87.5265L123.993 76.1558L119 71.1357Z" fill="url(#paint8_linear_731_1201)"/>
<path d="M4.00659 69.5106L4.00659 80.8813L8.99994 85.9014L8.99994 74.5307L4.00659 69.5106Z" fill="url(#paint9_linear_731_1201)"/>
<path d="M4.00879 104V97.6713L9.00087 102.663V102.974C9.00087 106.288 11.6872 108.974 15.0009 108.974H15.4058L20.3978 114H14.0088C8.48594 114 4.00879 109.523 4.00879 104Z" fill="url(#paint10_linear_731_1201)"/>
<path d="M123.993 24V30.3287L119.001 25.3366V25.0259C119.001 21.7122 116.315 19.0259 113.001 19.0259H112.596L107.604 14H113.993C119.516 14 123.993 18.4772 123.993 24Z" fill="url(#paint11_linear_731_1201)"/>
<path d="M50.4946 14.0067H61.8654L66.8855 19H55.5147L50.4946 14.0067Z" fill="url(#paint12_linear_731_1201)"/>
<path d="M32 109H43.3707L48.3908 113.993H37.0201L32 109Z" fill="url(#paint13_linear_731_1201)"/>
<path d="M88.7017 109H100.072L105.092 113.993H93.7218L88.7017 109Z" fill="url(#paint14_linear_731_1201)"/>
<rect x="9" y="19" width="110" height="90" rx="6" fill="#EFF3F5"/>
<rect x="100" y="27" width="12" height="16" rx="2" fill="url(#paint15_linear_731_1201)"/>
<rect x="82" y="50" width="4" height="24" transform="rotate(90 82 50)" fill="#B9C3C7"/>
<rect x="32" y="27" width="4" height="16" transform="rotate(90 32 27)" fill="#B9C3C7"/>
<rect x="78" y="74" width="4" height="20" transform="rotate(90 78 74)" fill="#B9C3C7"/>
<rect x="100" y="74" width="4" height="16" transform="rotate(90 100 74)" fill="#B9C3C7"/>
<rect x="88" y="62" width="4" height="30" transform="rotate(90 88 62)" fill="#B9C3C7"/>
<rect x="38" y="39" width="4" height="22" transform="rotate(90 38 39)" fill="#B9C3C7"/>
<rect x="100" y="62" width="4" height="6" transform="rotate(90 100 62)" fill="#B9C3C7"/>
<circle cx="27" cy="89" r="9" stroke="url(#paint16_linear_731_1201)"/>
<circle cx="27" cy="89" r="5" stroke="url(#paint17_linear_731_1201)"/>
<path d="M28.0353 87.0754C33.214 85.6877 34.3428 81.2442 38.5911 80.1058C42.8395 78.9675 46.0388 82.2513 51.2175 80.8637" stroke="url(#paint18_linear_731_1201)" stroke-linecap="round"/>
<path d="M29.0706 90.9391C34.2493 89.5515 35.378 85.1079 39.6264 83.9695C43.8747 82.8312 47.0741 86.1151 52.2528 84.7274" stroke="url(#paint19_linear_731_1201)" stroke-linecap="round"/>
<path d="M30.1058 94.8028C35.2845 93.4152 36.4133 88.9716 40.6617 87.8333C44.91 86.6949 48.1094 89.9788 53.2881 88.5911" stroke="url(#paint20_linear_731_1201)" stroke-linecap="round"/>
</g>
<defs>
<linearGradient id="paint0_linear_731_1201" x1="64" y1="14" x2="64" y2="114" gradientUnits="userSpaceOnUse">
<stop stop-color="#EFF3F5"/>
<stop offset="1" stop-color="#BAD8E6"/>
</linearGradient>
<linearGradient id="paint1_linear_731_1201" x1="4.10017" y1="19.6064" x2="12.1066" y2="26.1012" gradientUnits="userSpaceOnUse">
<stop stop-color="#F95D5D"/>
<stop offset="1" stop-color="#CD4242"/>
</linearGradient>
<linearGradient id="paint2_linear_731_1201" x1="123.9" y1="108.354" x2="115.894" y2="101.86" gradientUnits="userSpaceOnUse">
<stop stop-color="#F95D5D"/>
<stop offset="1" stop-color="#CD4242"/>
</linearGradient>
<linearGradient id="paint3_linear_731_1201" x1="27.4073" y1="14.0067" x2="31.6693" y2="19.4508" gradientUnits="userSpaceOnUse">
<stop stop-color="#3397F5"/>
<stop offset="1" stop-color="#3B92EB"/>
</linearGradient>
<linearGradient id="paint4_linear_731_1201" x1="84.1092" y1="14.0067" x2="88.3712" y2="19.4508" gradientUnits="userSpaceOnUse">
<stop stop-color="#3397F5"/>
<stop offset="1" stop-color="#3B92EB"/>
</linearGradient>
<linearGradient id="paint5_linear_731_1201" x1="65.6145" y1="109" x2="69.8766" y2="114.444" gradientUnits="userSpaceOnUse">
<stop stop-color="#3397F5"/>
<stop offset="1" stop-color="#3B92EB"/>
</linearGradient>
<linearGradient id="paint6_linear_731_1201" x1="119" y1="48.2637" x2="124.444" y2="52.5258" gradientUnits="userSpaceOnUse">
<stop stop-color="#3397F5"/>
<stop offset="1" stop-color="#3B92EB"/>
</linearGradient>
<linearGradient id="paint7_linear_731_1201" x1="4.00659" y1="46.6386" x2="9.45078" y2="50.9006" gradientUnits="userSpaceOnUse">
<stop stop-color="#3397F5"/>
<stop offset="1" stop-color="#3B92EB"/>
</linearGradient>
<linearGradient id="paint8_linear_731_1201" x1="122.031" y1="70.9867" x2="117.658" y2="86.634" gradientUnits="userSpaceOnUse">
<stop stop-color="#F95D5D"/>
<stop offset="1" stop-color="#CD4242"/>
</linearGradient>
<linearGradient id="paint9_linear_731_1201" x1="7.03727" y1="69.3616" x2="2.66426" y2="85.0089" gradientUnits="userSpaceOnUse">
<stop stop-color="#F95D5D"/>
<stop offset="1" stop-color="#CD4242"/>
</linearGradient>
<linearGradient id="paint10_linear_731_1201" x1="9.27192" y1="97.6713" x2="19.0025" y2="101.472" gradientUnits="userSpaceOnUse">
<stop stop-color="#3397F5"/>
<stop offset="1" stop-color="#3B92EB"/>
</linearGradient>
<linearGradient id="paint11_linear_731_1201" x1="114.238" y1="14.808" x2="115.628" y2="31.0755" gradientUnits="userSpaceOnUse">
<stop stop-color="#F95D5D"/>
<stop offset="1" stop-color="#CD4242"/>
</linearGradient>
<linearGradient id="paint12_linear_731_1201" x1="50.3456" y1="17.0373" x2="65.993" y2="12.6643" gradientUnits="userSpaceOnUse">
<stop stop-color="#F95D5D"/>
<stop offset="1" stop-color="#CD4242"/>
</linearGradient>
<linearGradient id="paint13_linear_731_1201" x1="31.851" y1="112.031" x2="47.4984" y2="107.658" gradientUnits="userSpaceOnUse">
<stop stop-color="#F95D5D"/>
<stop offset="1" stop-color="#CD4242"/>
</linearGradient>
<linearGradient id="paint14_linear_731_1201" x1="88.5527" y1="112.031" x2="104.2" y2="107.658" gradientUnits="userSpaceOnUse">
<stop stop-color="#F95D5D"/>
<stop offset="1" stop-color="#CD4242"/>
</linearGradient>
<linearGradient id="paint15_linear_731_1201" x1="105.294" y1="27.699" x2="106.667" y2="40.874" gradientUnits="userSpaceOnUse">
<stop stop-color="#3FD383"/>
<stop offset="1" stop-color="#15B279"/>
</linearGradient>
<linearGradient id="paint16_linear_731_1201" x1="27" y1="98" x2="27" y2="80" gradientUnits="userSpaceOnUse">
<stop stop-color="#505A62"/>
<stop offset="1" stop-color="#8395A6"/>
</linearGradient>
<linearGradient id="paint17_linear_731_1201" x1="27" y1="94" x2="27" y2="84" gradientUnits="userSpaceOnUse">
<stop stop-color="#505A62"/>
<stop offset="1" stop-color="#8395A6"/>
</linearGradient>
<linearGradient id="paint18_linear_731_1201" x1="50" y1="80.5" x2="49.5793" y2="87.7272" gradientUnits="userSpaceOnUse">
<stop stop-color="#505A62"/>
<stop offset="1" stop-color="#8395A6"/>
</linearGradient>
<linearGradient id="paint19_linear_731_1201" x1="51.0353" y1="84.3637" x2="50.6145" y2="91.5909" gradientUnits="userSpaceOnUse">
<stop stop-color="#505A62"/>
<stop offset="1" stop-color="#8395A6"/>
</linearGradient>
<linearGradient id="paint20_linear_731_1201" x1="52.0706" y1="88.2274" x2="51.6498" y2="95.4546" gradientUnits="userSpaceOnUse">
<stop stop-color="#505A62"/>
<stop offset="1" stop-color="#8395A6"/>
</linearGradient>
<clipPath id="clip0_731_1201">
<rect width="128" height="128" fill="white"/>
</clipPath>
</defs>
</svg>
