<svg width="128" height="128" viewBox="0 0 128 128" fill="none" xmlns="http://www.w3.org/2000/svg">
<g clip-path="url(#clip0_731_632)">
<rect x="13" y="14" width="50" height="90" rx="6" fill="black" fill-opacity="0.15"/>
<g filter="url(#filter0_i_731_632)">
<rect x="67" y="28" width="50" height="90" rx="6" fill="black" fill-opacity="0.15"/>
</g>
<rect x="13" y="12" width="50" height="90" rx="6" fill="url(#paint0_linear_731_632)"/>
<rect x="67" y="26" width="50" height="90" rx="6" fill="url(#paint1_linear_731_632)"/>
<rect x="16" y="29" width="44" height="12" rx="2" fill="url(#paint2_linear_731_632)"/>
<rect x="70" y="43" width="44" height="12" rx="2" fill="url(#paint3_linear_731_632)"/>
<rect x="40" y="33" width="4" height="20" transform="rotate(90 40 33)" fill="#DBE4E8"/>
<rect x="90" y="47" width="4" height="16" transform="rotate(90 90 47)" fill="#DBE4E8"/>
<rect x="40" y="19" width="4" height="20" transform="rotate(90 40 19)" fill="#B9C3C7"/>
<rect x="94" y="33" width="4" height="20" transform="rotate(90 94 33)" fill="#B9C3C7"/>
<rect x="40" y="61" width="4" height="20" transform="rotate(90 40 61)" fill="#B9C3C7"/>
<rect x="94" y="75" width="4" height="20" transform="rotate(90 94 75)" fill="#B9C3C7"/>
<rect x="36" y="75" width="4" height="16" transform="rotate(90 36 75)" fill="#B9C3C7"/>
<rect x="98" y="89" width="4" height="24" transform="rotate(90 98 89)" fill="#B9C3C7"/>
<rect x="44" y="89" width="4" height="24" transform="rotate(90 44 89)" fill="#B9C3C7"/>
<rect x="102" y="103" width="4" height="28" transform="rotate(90 102 103)" fill="#B9C3C7"/>
<rect x="48" y="47" width="4" height="28" transform="rotate(90 48 47)" fill="#B9C3C7"/>
<rect x="94" y="61" width="4" height="20" transform="rotate(90 94 61)" fill="#B9C3C7"/>
<path d="M75.3992 101.335L56.2163 113.978C55.5514 114.416 54.666 113.94 54.666 113.143L54.666 107.5C54.666 106.948 54.2038 106.502 53.6519 106.482C39.0719 105.966 37.8175 94.2324 39.6547 85.2619C39.8779 84.1724 41.764 84.3222 42.141 85.3685C43.6038 89.4288 46.9443 93.5964 53.6661 93.9725C54.2175 94.0033 54.666 93.5523 54.666 93L54.666 87.8567C54.666 87.0604 55.5514 86.5836 56.2163 87.0218L75.3992 99.665C75.9988 100.06 75.9988 100.94 75.3992 101.335Z" fill="black" fill-opacity="0.15"/>
<path d="M75.3992 99.335L56.2163 111.978C55.5514 112.416 54.666 111.94 54.666 111.143L54.666 105.5C54.666 104.948 54.2038 104.502 53.6519 104.482C39.0719 103.966 37.8175 92.2324 39.6547 83.2619C39.8779 82.1724 41.764 82.3222 42.141 83.3685C43.6038 87.4288 46.9443 91.5964 53.6661 91.9725C54.2175 92.0033 54.666 91.5523 54.666 91L54.666 85.8567C54.666 85.0604 55.5514 84.5836 56.2163 85.0218L75.3992 97.665C75.9988 98.0602 75.9988 98.9398 75.3992 99.335Z" fill="url(#paint4_linear_731_632)"/>
</g>
<defs>
<filter id="filter0_i_731_632" x="67" y="24" width="50" height="94" filterUnits="userSpaceOnUse" color-interpolation-filters="sRGB">
<feFlood flood-opacity="0" result="BackgroundImageFix"/>
<feBlend mode="normal" in="SourceGraphic" in2="BackgroundImageFix" result="shape"/>
<feColorMatrix in="SourceAlpha" type="matrix" values="0 0 0 0 0 0 0 0 0 0 0 0 0 0 0 0 0 0 127 0" result="hardAlpha"/>
<feOffset dy="-4"/>
<feGaussianBlur stdDeviation="4"/>
<feComposite in2="hardAlpha" operator="arithmetic" k2="-1" k3="1"/>
<feColorMatrix type="matrix" values="0 0 0 0 0 0 0 0 0 0 0 0 0 0 0 0 0 0 0.05 0"/>
<feBlend mode="normal" in2="shape" result="effect1_innerShadow_731_632"/>
</filter>
<linearGradient id="paint0_linear_731_632" x1="38" y1="12" x2="38" y2="102" gradientUnits="userSpaceOnUse">
<stop stop-color="#EFF3F5"/>
<stop offset="1" stop-color="#D9E0E4"/>
</linearGradient>
<linearGradient id="paint1_linear_731_632" x1="92" y1="26" x2="92" y2="116" gradientUnits="userSpaceOnUse">
<stop stop-color="#EFF3F5"/>
<stop offset="1" stop-color="#D9E0E4"/>
</linearGradient>
<linearGradient id="paint2_linear_731_632" x1="38" y1="29" x2="38" y2="41" gradientUnits="userSpaceOnUse">
<stop stop-color="#64B4F4"/>
<stop offset="1" stop-color="#4989D5"/>
</linearGradient>
<linearGradient id="paint3_linear_731_632" x1="92" y1="43" x2="92" y2="55" gradientUnits="userSpaceOnUse">
<stop stop-color="#64B4F4"/>
<stop offset="1" stop-color="#4989D5"/>
</linearGradient>
<linearGradient id="paint4_linear_731_632" x1="55.6174" y1="79.5291" x2="57.7227" y2="108.51" gradientUnits="userSpaceOnUse">
<stop stop-color="#42B0FF"/>
<stop offset="1" stop-color="#39C190"/>
</linearGradient>
<clipPath id="clip0_731_632">
<rect width="128" height="128" fill="white"/>
</clipPath>
</defs>
</svg>
