<svg width="128" height="128" viewBox="0 0 128 128" fill="none" xmlns="http://www.w3.org/2000/svg">
<g clip-path="url(#clip0_731_914)">
<path d="M9 22C9 18.6863 11.6863 16 15 16H113C116.314 16 119 18.6863 119 22V90C119 93.3137 116.314 96 113 96H67.6992C65.3121 96 63.0038 96.8539 61.1913 98.4074L35.6032 120.34C33.0085 122.564 29 120.721 29 117.303V102C29 98.6863 26.3137 96 23 96H15C11.6863 96 9 93.3137 9 90V22Z" fill="black" fill-opacity="0.15"/>
<path d="M9 20C9 16.6863 11.6863 14 15 14H113C116.314 14 119 16.6863 119 20V88C119 91.3137 116.314 94 113 94H67.6992C65.3121 94 63.0038 94.8539 61.1913 96.4074L35.6032 118.34C33.0085 120.564 29 118.721 29 115.303V100C29 96.6863 26.3137 94 23 94H15C11.6863 94 9 91.3137 9 88V20Z" fill="url(#paint0_linear_731_914)"/>
<path d="M89 42.5065V55V67.4935C89 71.3406 85.4305 74.1937 81.678 73.3461L42.1187 64.4103C40.295 63.9984 39 62.3782 39 60.5086V55V49.4914C39 47.6218 40.295 46.0016 42.1187 45.5897L81.678 36.6539C85.4305 35.8063 89 38.6594 89 42.5065Z" fill="black" fill-opacity="0.15"/>
<path d="M94.9638 60.6713C97.3131 59.8579 99 57.6259 99 55C99 52.3741 97.3131 50.1421 94.9638 49.3287C93.92 48.9674 93 49.8954 93 51V59C93 60.1046 93.92 61.0326 94.9638 60.6713Z" fill="black" fill-opacity="0.15"/>
<path d="M33.0362 60.6713C30.6869 59.8579 29 57.6259 29 55C29 52.3741 30.6869 50.1421 33.0362 49.3287C34.08 48.9674 35 49.8954 35 51V59C35 60.1046 34.08 61.0326 33.0362 60.6713Z" fill="black" fill-opacity="0.15"/>
<path d="M89 40.5065V53V65.4935C89 69.3406 85.4305 72.1937 81.678 71.3461L42.1187 62.4103C40.295 61.9984 39 60.3782 39 58.5086V53V47.4914C39 45.6218 40.295 44.0016 42.1187 43.5897L81.678 34.6539C85.4305 33.8063 89 36.6594 89 40.5065Z" fill="url(#paint1_linear_731_914)"/>
<path d="M94.9638 58.6713C97.3131 57.8579 99 55.6259 99 53C99 50.3741 97.3131 48.1421 94.9638 47.3287C93.92 46.9674 93 47.8954 93 49V57C93 58.1046 93.92 59.0326 94.9638 58.6713Z" fill="url(#paint2_linear_731_914)"/>
<path d="M33.0362 58.6713C30.6869 57.8579 29 55.6259 29 53C29 50.3741 30.6869 48.1421 33.0362 47.3287C34.08 46.9674 35 47.8954 35 49V57C35 58.1046 34.08 59.0326 33.0362 58.6713Z" fill="url(#paint3_linear_731_914)"/>
</g>
<defs>
<linearGradient id="paint0_linear_731_914" x1="64" y1="14" x2="64" y2="124" gradientUnits="userSpaceOnUse">
<stop stop-color="#64B4F4"/>
<stop offset="1" stop-color="#4989D5"/>
</linearGradient>
<linearGradient id="paint1_linear_731_914" x1="64" y1="33" x2="64" y2="73" gradientUnits="userSpaceOnUse">
<stop stop-color="#E3EEF8"/>
<stop offset="1" stop-color="#C1DEF6"/>
</linearGradient>
<linearGradient id="paint2_linear_731_914" x1="96" y1="47" x2="96" y2="59" gradientUnits="userSpaceOnUse">
<stop stop-color="#E3EEF8"/>
<stop offset="1" stop-color="#C1DEF6"/>
</linearGradient>
<linearGradient id="paint3_linear_731_914" x1="32" y1="47" x2="32" y2="59" gradientUnits="userSpaceOnUse">
<stop stop-color="#E3EEF8"/>
<stop offset="1" stop-color="#C1DEF6"/>
</linearGradient>
<clipPath id="clip0_731_914">
<rect width="128" height="128" fill="white"/>
</clipPath>
</defs>
</svg>
