<svg width="128" height="128" viewBox="0 0 128 128" fill="none" xmlns="http://www.w3.org/2000/svg">
<g clip-path="url(#clip0_731_740)">
<rect x="24" y="16" width="80" height="100" rx="6" fill="black" fill-opacity="0.15"/>
<rect x="24" y="14" width="80" height="100" rx="6" fill="url(#paint0_linear_731_740)"/>
<rect x="29" y="47" width="20" height="18" rx="2" fill="black" fill-opacity="0.15"/>
<rect x="54" y="47" width="20" height="18" rx="2" fill="black" fill-opacity="0.15"/>
<rect x="79" y="47" width="20" height="18" rx="2" fill="black" fill-opacity="0.15"/>
<rect x="54" y="70" width="20" height="18" rx="2" fill="black" fill-opacity="0.15"/>
<rect x="29" y="70" width="20" height="18" rx="2" fill="black" fill-opacity="0.15"/>
<rect x="54" y="93" width="20" height="18" rx="2" fill="black" fill-opacity="0.15"/>
<rect x="79" y="70" width="20" height="41" rx="2" fill="black" fill-opacity="0.15"/>
<rect x="29" y="93" width="20" height="18" rx="2" fill="black" fill-opacity="0.15"/>
<rect x="29" y="19" width="70" height="20" rx="2" fill="url(#paint1_linear_731_740)"/>
<rect x="29" y="45" width="20" height="18" rx="2" fill="url(#paint2_linear_731_740)"/>
<rect x="54" y="45" width="20" height="18" rx="2" fill="url(#paint3_linear_731_740)"/>
<rect x="79" y="45" width="20" height="18" rx="2" fill="url(#paint4_linear_731_740)"/>
<rect x="54" y="68" width="20" height="18" rx="2" fill="url(#paint5_linear_731_740)"/>
<rect x="29" y="68" width="20" height="18" rx="2" fill="url(#paint6_linear_731_740)"/>
<rect x="54" y="91" width="20" height="18" rx="2" fill="url(#paint7_linear_731_740)"/>
<rect x="79" y="68" width="20" height="41" rx="2" fill="url(#paint8_linear_731_740)"/>
<rect x="29" y="91" width="20" height="18" rx="2" fill="url(#paint9_linear_731_740)"/>
</g>
<defs>
<linearGradient id="paint0_linear_731_740" x1="50.5939" y1="26.7273" x2="97.4122" y2="101.818" gradientUnits="userSpaceOnUse">
<stop stop-color="#505A62"/>
<stop offset="1" stop-color="#1F1F1F"/>
</linearGradient>
<linearGradient id="paint1_linear_731_740" x1="59.8824" y1="19.8738" x2="60.254" y2="36.5131" gradientUnits="userSpaceOnUse">
<stop stop-color="#C1F6C9"/>
<stop offset="1" stop-color="#43D39F"/>
</linearGradient>
<linearGradient id="paint2_linear_731_740" x1="39" y1="45" x2="39" y2="63" gradientUnits="userSpaceOnUse">
<stop stop-color="#DBE4E8"/>
<stop offset="1" stop-color="#B9C3C7"/>
</linearGradient>
<linearGradient id="paint3_linear_731_740" x1="64" y1="45" x2="64" y2="63" gradientUnits="userSpaceOnUse">
<stop stop-color="#DBE4E8"/>
<stop offset="1" stop-color="#B9C3C7"/>
</linearGradient>
<linearGradient id="paint4_linear_731_740" x1="89" y1="45" x2="89" y2="63" gradientUnits="userSpaceOnUse">
<stop stop-color="#DBE4E8"/>
<stop offset="1" stop-color="#B9C3C7"/>
</linearGradient>
<linearGradient id="paint5_linear_731_740" x1="64" y1="68" x2="64" y2="86" gradientUnits="userSpaceOnUse">
<stop stop-color="#DBE4E8"/>
<stop offset="1" stop-color="#B9C3C7"/>
</linearGradient>
<linearGradient id="paint6_linear_731_740" x1="39" y1="68" x2="39" y2="86" gradientUnits="userSpaceOnUse">
<stop stop-color="#DBE4E8"/>
<stop offset="1" stop-color="#B9C3C7"/>
</linearGradient>
<linearGradient id="paint7_linear_731_740" x1="64" y1="91" x2="64" y2="109" gradientUnits="userSpaceOnUse">
<stop stop-color="#DBE4E8"/>
<stop offset="1" stop-color="#B9C3C7"/>
</linearGradient>
<linearGradient id="paint8_linear_731_740" x1="87.8235" y1="69.9582" x2="94.1657" y2="106.156" gradientUnits="userSpaceOnUse">
<stop stop-color="#42B0FF"/>
<stop offset="0.506666" stop-color="#3397F5"/>
<stop offset="1" stop-color="#126CD7"/>
</linearGradient>
<linearGradient id="paint9_linear_731_740" x1="39" y1="91" x2="39" y2="109" gradientUnits="userSpaceOnUse">
<stop stop-color="#DBE4E8"/>
<stop offset="1" stop-color="#B9C3C7"/>
</linearGradient>
<clipPath id="clip0_731_740">
<rect width="128" height="128" fill="white"/>
</clipPath>
</defs>
</svg>
