<svg width="128" height="128" viewBox="0 0 128 128" fill="none" xmlns="http://www.w3.org/2000/svg">
<g clip-path="url(#clip0_731_1087)">
<path d="M68.2426 118.326L116.326 70.2426C118.669 67.8995 118.669 64.1005 116.326 61.7574L68.2426 13.6741C65.8995 11.331 62.1005 11.331 59.7574 13.6741L11.6741 61.7574C9.33095 64.1005 9.33095 67.8995 11.6741 70.2426L59.7574 118.326C62.1005 120.669 65.8995 120.669 68.2426 118.326Z" fill="black" fill-opacity="0.15"/>
<path d="M68.2426 116.326L116.326 68.2426C118.669 65.8995 118.669 62.1005 116.326 59.7574L68.2426 11.6741C65.8995 9.33095 62.1005 9.33095 59.7574 11.6741L11.6741 59.7574C9.33095 62.1005 9.33095 65.8995 11.6741 68.2426L59.7574 116.326C62.1005 118.669 65.8995 118.669 68.2426 116.326Z" fill="url(#paint0_linear_731_1087)"/>
<rect x="16" y="20" width="40" height="10" rx="2" fill="black" fill-opacity="0.15"/>
<rect x="78" y="20" width="33" height="10" rx="2" fill="black" fill-opacity="0.15"/>
<path d="M23 111V29C23 27.8954 23.8954 27 25 27H43.5C44.6046 27 45.5 27.8954 45.5 29V64.6315C45.5 66.4516 47.7336 67.3256 48.9688 65.9889L84.4062 27.6426C84.7847 27.2329 85.3172 27 85.875 27H108.505C110.238 27 111.151 29.0521 109.991 30.3389L36.0958 112.339C35.7165 112.76 35.1766 113 34.61 113H25C23.8954 113 23 112.105 23 111Z" fill="black" fill-opacity="0.15"/>
<rect x="16" y="18" width="40" height="10" rx="2" fill="#D9D9D9"/>
<rect x="78" y="18" width="33" height="10" rx="2" fill="#D9D9D9"/>
<path d="M23 109V27C23 25.8954 23.8954 25 25 25H43.5C44.6046 25 45.5 25.8954 45.5 27V62.6315C45.5 64.4516 47.7336 65.3256 48.9688 63.9889L84.4062 25.6426C84.7847 25.2329 85.3172 25 85.875 25H108.505C110.238 25 111.151 27.0521 109.991 28.3389L36.0958 110.339C35.7165 110.76 35.1766 111 34.61 111H25C23.8954 111 23 110.105 23 109Z" fill="#D9D9D9"/>
<path d="M111.096 29.0246C111.108 29.012 111.123 28.9966 111.14 28.9785C111.18 28.9355 111.233 28.8767 111.295 28.8043C111.418 28.661 111.582 28.4563 111.748 28.207C112.048 27.7573 112.5 26.9509 112.5 26V20C112.5 19.0122 112.021 18.1499 111.436 17.5643C110.85 16.9788 109.988 16.5 109 16.5H80C79.0122 16.5 78.1499 16.9788 77.5643 17.5643C76.9788 18.1499 76.5 19.0122 76.5 20V26C76.5 26.9886 76.9796 27.8524 77.5709 28.4395C77.9856 28.8513 78.5346 29.2059 79.1661 29.3818L78.0735 30.5566C75.9953 32.791 73.089 35.916 69.7765 39.4786C63.1514 46.6036 54.9012 55.4789 48.4008 62.4793C47.6569 63.2804 47.1456 63.3105 47.0487 63.3013C47.0436 63.2907 47.0371 63.2747 47.0304 63.2523C47.0157 63.2028 47 63.1209 47 63V29.5H54C54.9878 29.5 55.8501 29.0212 56.4357 28.4357C57.0212 27.8501 57.5 26.9878 57.5 26V20C57.5 19.0122 57.0212 18.1499 56.4357 17.5643C55.8501 16.9788 54.9878 16.5 54 16.5H18C17.0122 16.5 16.1499 16.9788 15.5643 17.5643C14.9788 18.1499 14.5 19.0122 14.5 20L14.5 26C14.5 26 14.5 26 14.5 26C14.5 26.9878 14.9788 27.8501 15.5643 28.4357C16.1499 29.0212 17.0122 29.5 18 29.5H21.5V109C21.5 109.988 21.9788 110.85 22.5643 111.436C23.1499 112.021 24.0122 112.5 25 112.5H34C35.3632 112.5 36.5478 111.618 37.4025 110.852C38.2112 110.127 39.0397 109.202 39.807 108.347C39.9108 108.231 40.0135 108.116 40.1149 108.003C51.3654 95.5029 69.1158 75.7525 84.0533 59.1275C91.5221 50.815 98.2877 43.2837 103.186 37.8305L108.988 31.3715L110.566 29.6149L110.976 29.158L111.081 29.0415L111.096 29.0246Z" stroke="url(#paint1_linear_731_1087)" stroke-width="3"/>
<path d="M61.7708 78.3675C62.0431 77.5509 62.8073 77 63.6682 77H67.4518C68.8169 77 69.7809 78.3374 69.3492 79.6325L68.6825 81.6325C68.4103 82.4491 67.646 83 66.7852 83H63.0015C61.6364 83 60.6725 81.6626 61.1042 80.3675L61.7708 78.3675Z" fill="black" fill-opacity="0.15"/>
<path d="M56.8848 90.0257C57.089 89.4131 57.6622 89 58.3078 89H63.4518C64.8169 89 65.7809 90.3374 65.3492 91.6325L59.701 108.577C59.4677 109.277 59.9887 110 60.7267 110C61.4646 110 61.9857 110.723 61.7523 111.423L61.5686 111.974C61.3644 112.587 60.7912 113 60.1455 113H54.0015C52.6364 113 51.6725 111.663 52.1042 110.368L57.9105 92.9487C58.066 92.482 57.7186 92 57.2267 92C56.7347 92 56.3873 91.518 56.5429 91.0513L56.8848 90.0257Z" fill="black" fill-opacity="0.15"/>
<path d="M71.8848 90.0257C72.089 89.4131 72.6622 89 73.3078 89H81.2267L74.701 108.577C74.4677 109.277 74.9887 110 75.7267 110C76.4646 110 76.9857 110.723 76.7523 111.423L76.5686 111.974C76.3644 112.587 75.7912 113 75.1455 113H69.0015C67.6364 113 66.6725 111.663 67.1042 110.368L72.9105 92.9487C73.066 92.482 72.7186 92 72.2267 92C71.7347 92 71.3873 91.518 71.5429 91.0513L71.8848 90.0257Z" fill="black" fill-opacity="0.15"/>
<path d="M86.8848 90.0257C87.089 89.4131 87.6622 89 88.3078 89H96.2267L89.701 108.577C89.4677 109.277 89.9887 110 90.7267 110C91.4646 110 91.9857 110.723 91.7523 111.423L91.5686 111.974C91.3644 112.587 90.7912 113 90.1455 113H84.0015C82.6364 113 81.6725 111.663 82.1042 110.368L87.9105 92.9487C88.066 92.482 87.7186 92 87.2267 92C86.7347 92 86.3873 91.518 86.5429 91.0513L86.8848 90.0257Z" fill="black" fill-opacity="0.15"/>
<path d="M101.885 90.0257C102.089 89.4131 102.662 89 103.308 89H108.452C109.817 89 110.781 90.3374 110.349 91.6325L104.701 108.577C104.468 109.277 104.989 110 105.727 110C106.465 110 106.986 110.723 106.752 111.423L106.569 111.974C106.364 112.587 105.791 113 105.146 113H99.0015C97.6364 113 96.6725 111.663 97.1042 110.368L102.91 92.9487C103.066 92.482 102.719 92 102.227 92C101.735 92 101.387 91.518 101.543 91.0513L101.885 90.0257Z" fill="black" fill-opacity="0.15"/>
<path d="M88.2267 93H85.2313C84.147 93 83.2894 92.0818 83.3633 91C83.4373 89.9182 82.5797 89 81.4953 89H81.169C80.2025 89 79.3743 89.6912 79.2013 90.6421L78.2267 96H88.2267V93Z" fill="black" fill-opacity="0.15"/>
<path d="M103.227 93H100.231C99.147 93 98.2894 92.0818 98.3633 91C98.4373 89.9182 97.5797 89 96.4953 89H96.169C95.2025 89 94.3743 89.6912 94.2013 90.6421L93.2267 96H103.227V93Z" fill="black" fill-opacity="0.15"/>
<path d="M61.7708 76.3675C62.0431 75.5509 62.8073 75 63.6682 75H67.4518C68.8169 75 69.7809 76.3374 69.3492 77.6325L68.6825 79.6325C68.4103 80.4491 67.646 81 66.7852 81H63.0015C61.6364 81 60.6725 79.6626 61.1042 78.3675L61.7708 76.3675Z" fill="#D9D9D9"/>
<path d="M56.8848 88.0257C57.089 87.4131 57.6622 87 58.3078 87H63.4518C64.8169 87 65.7809 88.3374 65.3492 89.6325L59.701 106.577C59.4677 107.277 59.9887 108 60.7267 108C61.4646 108 61.9857 108.723 61.7523 109.423L61.5686 109.974C61.3644 110.587 60.7912 111 60.1455 111H54.0015C52.6364 111 51.6725 109.663 52.1042 108.368L57.9105 90.9487C58.066 90.482 57.7186 90 57.2267 90C56.7347 90 56.3873 89.518 56.5429 89.0513L56.8848 88.0257Z" fill="#D9D9D9"/>
<path d="M71.8848 88.0257C72.089 87.4131 72.6622 87 73.3078 87H81.2267L74.701 106.577C74.4677 107.277 74.9887 108 75.7267 108C76.4646 108 76.9857 108.723 76.7523 109.423L76.5686 109.974C76.3644 110.587 75.7912 111 75.1455 111H69.0015C67.6364 111 66.6725 109.663 67.1042 108.368L72.9105 90.9487C73.066 90.482 72.7186 90 72.2267 90C71.7347 90 71.3873 89.518 71.5429 89.0513L71.8848 88.0257Z" fill="#D9D9D9"/>
<path d="M86.7708 88.3675C87.0431 87.5509 87.8073 87 88.6682 87H96.2267L89.701 106.577C89.4677 107.277 89.9887 108 90.7267 108C91.4646 108 91.9857 108.723 91.7523 109.423L91.5686 109.974C91.3644 110.587 90.7912 111 90.1455 111H83.6393C82.3861 111 81.4416 109.861 81.674 108.629L84.8646 91.7178C84.952 91.2543 85.2005 90.8365 85.5662 90.5384L85.7766 90.3669C86.0706 90.1272 86.2904 89.809 86.4103 89.4492L86.7708 88.3675Z" fill="#D9D9D9"/>
<path d="M101.771 88.3675C102.043 87.5509 102.807 87 103.668 87H108.452C109.817 87 110.781 88.3374 110.349 89.6325L104.701 106.577C104.468 107.277 104.989 108 105.727 108V108C106.465 108 106.986 108.723 106.752 109.423L106.569 109.974C106.364 110.587 105.791 111 105.146 111H98.6393C97.3861 111 96.4416 109.861 96.674 108.629L99.8646 91.7178C99.952 91.2543 100.201 90.8365 100.566 90.5384L100.777 90.3669C101.071 90.1272 101.29 89.809 101.41 89.4492L101.771 88.3675Z" fill="#D9D9D9"/>
<path d="M88.2267 91H86C84.8954 91 84 90.1046 84 89C84 87.8954 83.1046 87 82 87H81.169C80.2025 87 79.3743 87.6912 79.2013 88.6421L78.2267 94H88.2267V91Z" fill="#D9D9D9"/>
<path d="M103.227 91H100.5C99.3954 91 98.5 90.1046 98.5 89C98.5 87.8954 97.6046 87 96.5 87H96.169C95.2025 87 94.3743 87.6912 94.2013 88.6421L93.2267 94H103.227V91Z" fill="#D9D9D9"/>
<path d="M56.2354 91.2612C55.2115 94.3596 53.3676 99.8958 51.9219 104.237C51.4512 105.65 51.0227 106.936 50.6785 107.971C49.8687 110.404 51.8471 112.5 54.1246 112.5H60.0285C60.7798 112.5 61.4457 112.279 61.9777 111.871C62.4949 111.475 62.8078 110.963 62.9783 110.49L62.9803 110.484L62.987 110.466C63.0617 110.258 63.1521 110.007 63.2286 109.726C63.3842 109.154 63.332 108.396 62.9379 107.74C62.5786 107.142 61.9961 106.726 61.267 106.569C62.2727 103.605 63.7335 99.1978 64.9605 95.4959C65.693 93.2858 66.3423 91.327 66.7617 90.0767C67.4893 87.9075 65.8652 85.5 63.387 85.5L58.3192 85.5C56.8309 85.5 55.7974 86.568 55.4862 87.4881C55.385 87.7873 55.2646 88.148 55.1538 88.4814C54.9249 89.1704 54.9753 89.957 55.4464 90.5984C55.6632 90.8937 55.9363 91.1126 56.2354 91.2612Z" stroke="url(#paint2_linear_731_1087)" stroke-width="3"/>
<path d="M91.5473 110.021C91.6874 109.598 91.7045 109.553 91.7199 109.508C91.7289 109.481 91.7374 109.454 91.7703 109.348C91.9846 108.661 91.4022 108 90.654 108C90.0958 108 89.4329 107.397 89.7156 106.545C91.2849 101.821 93.8886 94 93.8886 94H97.9111L95.3117 94.4738L95.3117 94.4741L95.3113 94.4752L95.3099 94.4794L95.3043 94.4963L95.2822 94.5627L95.1968 94.819L94.9702 95.5M91.5473 110.021L92.9711 110.493C92.6911 111.337 91.7777 112.5 90.0594 112.5L83.7486 112.5C82.4291 112.5 81.3813 111.905 80.7669 110.955C80.1954 110.072 80.0785 109.011 80.2552 108.104C80.801 105.301 81.482 101.708 82.0268 98.8125C82.2688 97.5261 82.4839 96.3783 82.6482 95.5H79.9731L79.8933 95.7401C79.6307 96.5307 79.2635 97.6349 78.8455 98.8894C78.0504 101.276 77.071 104.209 76.2776 106.561C77.7757 106.883 78.6066 108.438 78.1597 109.891C78.0812 110.146 78.0291 110.313 77.9275 110.593C77.6113 111.462 76.6171 112.5 75.1182 112.5L69.0891 112.5C67.9798 112.5 66.9058 112.021 66.2183 111.126C65.5078 110.201 65.3211 108.978 65.7318 107.748C67.2683 103.149 70.3297 93.9886 71.2412 91.2696C70.8573 91.078 70.546 90.7781 70.3368 90.4216C69.9869 89.8253 69.9314 89.1036 70.1572 88.4566C70.1816 88.3867 70.2061 88.3081 70.2415 88.1938L70.2424 88.1906C70.2749 88.0859 70.3162 87.9523 70.3641 87.8149C70.46 87.54 70.6067 87.1742 70.8552 86.8177C71.4361 85.9845 72.3588 85.5 73.6058 85.5L81.8038 85.5C83.0477 85.5 83.9773 86.0878 84.551 86.8621C85.0246 87.5012 85.2495 88.2496 85.2934 88.8988C85.34 88.7725 85.389 88.6353 85.4429 88.4838C85.4534 88.4541 85.4643 88.4232 85.4756 88.3911C85.6539 87.8848 85.9321 87.0949 86.5245 86.4971C87.2546 85.7605 88.226 85.4961 89.3476 85.4961H89.3484L96.5023 85.5C96.5025 85.5 96.5026 85.5 96.5027 85.5C96.5029 85.5 96.503 85.5 96.5031 85.5C97.7466 85.5002 98.6759 86.0879 99.2495 86.8621C99.7231 87.5012 99.948 88.2496 99.9919 88.8988C100.039 88.7725 100.088 88.6353 100.141 88.4838C100.152 88.4541 100.163 88.4232 100.174 88.3911C100.352 87.8848 100.631 87.0949 101.223 86.4971C101.953 85.7605 102.924 85.4961 104.046 85.4961H108.41C109.489 85.4961 110.538 85.9942 111.212 86.8614C111.918 87.7701 112.146 88.9964 111.718 90.2619C110.693 93.2896 108.71 99.1903 106.266 106.563C107.006 106.72 107.569 107.157 107.913 107.716C108.273 108.302 108.395 109.034 108.238 109.636C108.192 109.814 108.129 110.015 108.084 110.151C108.06 110.223 108.039 110.287 108.023 110.332L108.005 110.384C108.005 110.385 108.005 110.386 108.004 110.387C107.996 110.412 107.986 110.441 107.974 110.474C107.95 110.54 107.916 110.624 107.871 110.719C107.783 110.907 107.643 111.159 107.43 111.415C106.98 111.955 106.21 112.5 105.084 112.5H98.7177C97.5822 112.5 96.5589 112.022 95.8926 111.165C95.2336 110.318 95.016 109.221 95.2246 108.137C95.7864 105.214 96.4711 101.611 97.0154 98.7374C97.2539 97.4783 97.4655 96.3596 97.6279 95.5H94.9702M91.5473 110.021L92.9711 110.493C93.0796 110.165 93.1117 110.073 93.1261 110.031L93.1267 110.029C93.1512 109.959 93.1584 109.936 93.1967 109.813L93.2023 109.795C93.7035 108.187 92.5816 106.903 91.285 106.579M91.5473 110.021L91.285 106.579M94.9702 95.5L94.8805 95.7696L93.8139 98.9748C93.0183 101.366 92.0498 104.277 91.285 106.579" stroke="url(#paint3_linear_731_1087)" stroke-width="3"/>
<path d="M60.3489 75.8657L61.7719 76.3401L60.3489 75.8657C60.3256 75.9356 60.2995 76.0133 60.2709 76.0987C60.1145 76.5652 59.8826 77.257 59.6199 78.1057C59.2963 79.1512 59.6211 80.2394 60.1505 81.0004C60.7008 81.7914 61.6599 82.5 62.9103 82.5H66.876C68.4051 82.5 69.5943 81.3991 70.0248 80.3246C70.2253 79.8242 70.404 79.2517 70.5678 78.7272C70.644 78.4832 70.7169 78.2495 70.7873 78.0383C71.5117 75.8652 69.9128 73.5 67.3434 73.5L63.6414 73.5C61.9262 73.5 60.7226 74.7444 60.3489 75.8657Z" stroke="url(#paint4_linear_731_1087)" stroke-width="3"/>
</g>
<defs>
<linearGradient id="paint0_linear_731_1087" x1="55" y1="28" x2="84.5254" y2="87.2414" gradientUnits="userSpaceOnUse">
<stop stop-color="#58E44B"/>
<stop offset="1" stop-color="#06953F"/>
</linearGradient>
<linearGradient id="paint1_linear_731_1087" x1="63.5" y1="18" x2="63.5" y2="111" gradientUnits="userSpaceOnUse">
<stop stop-color="#39464D"/>
<stop offset="1" stop-color="#1A2228"/>
</linearGradient>
<linearGradient id="paint2_linear_731_1087" x1="59" y1="87" x2="59" y2="111" gradientUnits="userSpaceOnUse">
<stop stop-color="#39464D"/>
<stop offset="1" stop-color="#1A2228"/>
</linearGradient>
<linearGradient id="paint3_linear_731_1087" x1="88.5" y1="87" x2="88.5" y2="111" gradientUnits="userSpaceOnUse">
<stop stop-color="#39464D"/>
<stop offset="1" stop-color="#1A2228"/>
</linearGradient>
<linearGradient id="paint4_linear_731_1087" x1="65" y1="75" x2="65" y2="81" gradientUnits="userSpaceOnUse">
<stop stop-color="#39464D"/>
<stop offset="1" stop-color="#1A2228"/>
</linearGradient>
<clipPath id="clip0_731_1087">
<rect width="128" height="128" fill="white"/>
</clipPath>
</defs>
</svg>
