<svg width="128" height="128" viewBox="0 0 128 128" fill="none" xmlns="http://www.w3.org/2000/svg">
<g clip-path="url(#clip0_731_956)">
<path d="M19 17C19 13.6863 21.6863 11 25 11L77.0147 11C78.606 11 80.1321 11.6321 81.2574 12.7574L107.243 38.7426C108.368 39.8679 109 41.394 109 42.9853V115C109 118.314 106.314 121 103 121H25C21.6863 121 19 118.314 19 115V17Z" fill="black" fill-opacity="0.15"/>
<path d="M21 15C21 12.7909 22.7909 11 25 11H77.0147C78.0756 11 79.093 11.4214 79.8431 12.1716L105.828 38.1569C106.579 38.907 107 39.9244 107 40.9853V113C107 115.209 105.209 117 103 117H25C22.7909 117 21 115.209 21 113V15Z" fill="url(#paint0_linear_731_956)" stroke="url(#paint1_linear_731_956)" stroke-width="4"/>
<path d="M74 9H76.2378C77.8584 9 79.4101 9.65557 80.5398 10.8175L107.302 38.3444C108.391 39.4643 109 40.9648 109 42.5268V45C108.027 42.998 105.996 41.7273 103.77 41.7273H83.1818C79.8681 41.7273 77.1818 39.041 77.1818 35.7273V14.2143C77.1818 12.0174 75.9537 10.0048 74 9Z" fill="black" fill-opacity="0.15"/>
<path d="M75 9H77.1511C78.7424 9 80.2685 9.63214 81.3937 10.7574L107.243 36.6063C108.368 37.7315 109 39.2576 109 40.8489V43C108.053 41.1057 106.117 39.9091 103.999 39.9091H84.0909C80.7772 39.9091 78.0909 37.2228 78.0909 33.9091V14.0012C78.0909 11.8833 76.8943 9.94716 75 9Z" fill="url(#paint2_linear_731_956)"/>
<rect x="67" y="60" width="20" height="18" rx="2" fill="url(#paint3_linear_731_956)"/>
<rect x="41" y="60" width="20" height="18" rx="2" fill="url(#paint4_linear_731_956)"/>
<rect x="67" y="84" width="20" height="18" rx="2" fill="url(#paint5_linear_731_956)"/>
<rect x="41" y="84" width="20" height="18" rx="2" fill="url(#paint6_linear_731_956)"/>
</g>
<defs>
<linearGradient id="paint0_linear_731_956" x1="64" y1="9" x2="64" y2="119" gradientUnits="userSpaceOnUse">
<stop stop-color="#EFF3F5"/>
<stop offset="1" stop-color="#B7E5CE"/>
</linearGradient>
<linearGradient id="paint1_linear_731_956" x1="64" y1="9" x2="64" y2="119" gradientUnits="userSpaceOnUse">
<stop stop-color="#10B67A"/>
<stop offset="1" stop-color="#1E874E"/>
</linearGradient>
<linearGradient id="paint2_linear_731_956" x1="90" y1="10.4854" x2="92.1991" y2="38.6145" gradientUnits="userSpaceOnUse">
<stop stop-color="#15C183"/>
<stop offset="1" stop-color="#1E874E"/>
</linearGradient>
<linearGradient id="paint3_linear_731_956" x1="75.8235" y1="60.7864" x2="76.8726" y2="75.6954" gradientUnits="userSpaceOnUse">
<stop stop-color="#2CC673"/>
<stop offset="1" stop-color="#008867"/>
</linearGradient>
<linearGradient id="paint4_linear_731_956" x1="49.8235" y1="60.7864" x2="50.8726" y2="75.6954" gradientUnits="userSpaceOnUse">
<stop stop-color="#3FD383"/>
<stop offset="1" stop-color="#15B279"/>
</linearGradient>
<linearGradient id="paint5_linear_731_956" x1="75.8235" y1="84.7864" x2="76.8726" y2="99.6954" gradientUnits="userSpaceOnUse">
<stop stop-color="#2CC673"/>
<stop offset="1" stop-color="#008867"/>
</linearGradient>
<linearGradient id="paint6_linear_731_956" x1="49.8235" y1="84.7864" x2="50.8726" y2="99.6954" gradientUnits="userSpaceOnUse">
<stop stop-color="#2CC673"/>
<stop offset="1" stop-color="#008867"/>
</linearGradient>
<clipPath id="clip0_731_956">
<rect width="128" height="128" fill="white"/>
</clipPath>
</defs>
</svg>
