<svg width="128" height="128" viewBox="0 0 128 128" fill="none" xmlns="http://www.w3.org/2000/svg">
<path d="M13.2162 73.8573C18.5539 76.939 27.7456 82.5841 33.5 88C37.5 87 40.7082 84.9 45.5 90.5C49.7838 95.5063 54.3976 107.013 56.7592 113.802C57.161 114.958 58.4819 115.508 59.5572 114.925C64.0104 112.511 70.931 108.251 74 104.5C78.5 99 89.5 83.5 98 83.5C103.955 83.5 111.752 92.7041 117.627 97.0058C118.386 97.5614 119.237 96.7943 118.859 95.9333C101.615 56.7034 92.7864 16 83 16C80.7218 16 74.5448 34.2296 58.5 47C43.8827 58.6342 22.7754 66.7713 13.5753 69.9797C11.8917 70.5668 11.672 72.9657 13.2162 73.8573Z" fill="black" fill-opacity="0.15"/>
<path d="M39 58L55.5 68L82.5 14.5C81.8333 14.6667 79.8 15.8 77 19C73.5 23 65 41 56 43C48.8 44.6 41.1667 54.3333 39 58Z" fill="url(#paint0_linear_3663_672)"/>
<path d="M12.866 72.0733L31.2814 85.3951C32.6188 86.3625 34.4131 86.4092 35.7989 85.5125L54.1159 73.6603C56.4711 72.1363 56.5669 68.7245 54.3008 67.0708L42.3357 58.3396C41.1974 57.5089 39.7058 57.3385 38.4095 57.8911L13.2541 68.613C11.823 69.223 11.6056 71.1615 12.866 72.0733Z" fill="url(#paint1_linear_3663_672)"/>
<path d="M61 57C55.375 69 44.5 81.5 33.5 86.5C37.5 85.5 40.7082 83.4 45.5 89C49.7838 94.0063 54.3976 105.513 56.7592 112.302C57.161 113.458 58.4818 114.008 59.5572 113.425C64.0103 111.011 70.931 106.751 74 103C78.5 97.5 89.5 82 98 82C103.955 82 111.752 91.2041 117.627 95.5058C118.386 96.0614 119.237 95.2943 118.859 94.4333C101.615 55.2034 92.7864 14.5 83 14.5C78 14.5 68.5 41 61 57Z" fill="url(#paint2_linear_3663_672)"/>
<defs>
<linearGradient id="paint0_linear_3663_672" x1="61.5" y1="14.5" x2="61.5" y2="66.5" gradientUnits="userSpaceOnUse">
<stop stop-color="#B9C3C7"/>
<stop offset="1" stop-color="#5A6978"/>
</linearGradient>
<linearGradient id="paint1_linear_3663_672" x1="33.3458" y1="51.2958" x2="37.0955" y2="94.525" gradientUnits="userSpaceOnUse">
<stop stop-color="#42B0FF"/>
<stop offset="0.506666" stop-color="#3397F5"/>
<stop offset="1" stop-color="#126CD7"/>
</linearGradient>
<linearGradient id="paint2_linear_3663_672" x1="71.8224" y1="20.3347" x2="85.1573" y2="107.459" gradientUnits="userSpaceOnUse">
<stop stop-color="#FFB951"/>
<stop offset="1" stop-color="#FF6B00"/>
</linearGradient>
</defs>
</svg>
