<svg width="128" height="128" viewBox="0 0 128 128" fill="none" xmlns="http://www.w3.org/2000/svg">
<g clip-path="url(#clip0_731_484)">
<g filter="url(#filter0_i_731_484)">
<path fill-rule="evenodd" clip-rule="evenodd" d="M35.8309 101.915C34.2752 101.915 33.014 103.177 33.014 104.732V113.183C33.014 114.739 34.2752 116 35.8309 116C37.3867 116 38.6478 114.739 38.6478 113.183V104.732C38.6478 103.177 37.3867 101.915 35.8309 101.915ZM47.0985 101.915C45.5428 101.915 44.2816 103.177 44.2816 104.732V113.183C44.2816 114.739 45.5428 116 47.0985 116C48.6543 116 49.9154 114.739 49.9154 113.183V104.732C49.9154 103.177 48.6543 101.915 47.0985 101.915ZM55.5493 104.732C55.5493 103.177 56.8104 101.915 58.3662 101.915C59.9219 101.915 61.1831 103.177 61.1831 104.732V113.183C61.1831 114.739 59.9219 116 58.3662 116C56.8104 116 55.5493 114.739 55.5493 113.183V104.732ZM69.6338 101.915C68.078 101.915 66.8169 103.177 66.8169 104.732V113.183C66.8169 114.739 68.078 116 69.6338 116C71.1895 116 72.4507 114.739 72.4507 113.183V104.732C72.4507 103.177 71.1895 101.915 69.6338 101.915ZM78.0845 104.732C78.0845 103.177 79.3456 101.915 80.9014 101.915C82.4571 101.915 83.7183 103.177 83.7183 104.732V113.183C83.7183 114.739 82.4571 116 80.9014 116C79.3456 116 78.0845 114.739 78.0845 113.183V104.732ZM92.169 101.915C90.6132 101.915 89.3521 103.177 89.3521 104.732V113.183C89.3521 114.739 90.6132 116 92.169 116C93.7247 116 94.9859 114.739 94.9859 113.183V104.732C94.9859 103.177 93.7247 101.915 92.169 101.915Z" fill="black" fill-opacity="0.15"/>
</g>
<g filter="url(#filter1_i_731_484)">
<path fill-rule="evenodd" clip-rule="evenodd" d="M35.8309 16C34.2752 16 33.014 17.2612 33.014 18.8169V27.2676C33.014 28.8233 34.2752 30.0845 35.8309 30.0845C37.3867 30.0845 38.6478 28.8233 38.6478 27.2676V18.8169C38.6478 17.2612 37.3867 16 35.8309 16ZM47.0985 16C45.5428 16 44.2816 17.2612 44.2816 18.8169V27.2676C44.2816 28.8233 45.5428 30.0845 47.0985 30.0845C48.6543 30.0845 49.9154 28.8233 49.9154 27.2676V18.8169C49.9154 17.2612 48.6543 16 47.0985 16ZM55.5493 18.8169C55.5493 17.2612 56.8104 16 58.3662 16C59.9219 16 61.1831 17.2612 61.1831 18.8169V27.2676C61.1831 28.8233 59.9219 30.0845 58.3662 30.0845C56.8104 30.0845 55.5493 28.8233 55.5493 27.2676V18.8169ZM69.6338 16C68.078 16 66.8169 17.2612 66.8169 18.8169V27.2676C66.8169 28.8233 68.078 30.0845 69.6338 30.0845C71.1895 30.0845 72.4507 28.8233 72.4507 27.2676V18.8169C72.4507 17.2612 71.1895 16 69.6338 16ZM78.0845 18.8169C78.0845 17.2612 79.3456 16 80.9014 16C82.4571 16 83.7183 17.2612 83.7183 18.8169V27.2676C83.7183 28.8233 82.4571 30.0845 80.9014 30.0845C79.3456 30.0845 78.0845 28.8233 78.0845 27.2676V18.8169ZM92.169 16C90.6132 16 89.3521 17.2612 89.3521 18.8169V27.2676C89.3521 28.8233 90.6132 30.0845 92.169 30.0845C93.7247 30.0845 94.9859 28.8233 94.9859 27.2676V18.8169C94.9859 17.2612 93.7247 16 92.169 16Z" fill="black" fill-opacity="0.15"/>
</g>
<g filter="url(#filter2_i_731_484)">
<path fill-rule="evenodd" clip-rule="evenodd" d="M99.9155 94.169C99.9155 95.7248 101.177 96.9859 102.732 96.9859L111.183 96.9859C112.739 96.9859 114 95.7248 114 94.169C114 92.6133 112.739 91.3521 111.183 91.3521L102.732 91.3521C101.177 91.3521 99.9155 92.6133 99.9155 94.169ZM99.9155 82.9014C99.9155 84.4571 101.177 85.7183 102.732 85.7183L111.183 85.7183C112.739 85.7183 114 84.4571 114 82.9014C114 81.3457 112.739 80.0845 111.183 80.0845L102.732 80.0845C101.177 80.0845 99.9155 81.3457 99.9155 82.9014ZM102.732 74.4507C101.177 74.4507 99.9155 73.1896 99.9155 71.6338C99.9155 70.0781 101.177 68.8169 102.732 68.8169L111.183 68.8169C112.739 68.8169 114 70.0781 114 71.6338C114 73.1896 112.739 74.4507 111.183 74.4507L102.732 74.4507ZM99.9155 60.3662C99.9155 61.9219 101.177 63.1831 102.732 63.1831L111.183 63.1831C112.739 63.1831 114 61.9219 114 60.3662C114 58.8105 112.739 57.5493 111.183 57.5493L102.732 57.5493C101.177 57.5493 99.9155 58.8105 99.9155 60.3662ZM102.732 51.9155C101.177 51.9155 99.9155 50.6543 99.9155 49.0986C99.9155 47.5429 101.177 46.2817 102.732 46.2817L111.183 46.2817C112.739 46.2817 114 47.5429 114 49.0986C114 50.6543 112.739 51.9155 111.183 51.9155L102.732 51.9155ZM99.9155 37.831C99.9155 39.3867 101.177 40.6479 102.732 40.6479L111.183 40.6479C112.739 40.6479 114 39.3867 114 37.831C114 36.2753 112.739 35.0141 111.183 35.0141L102.732 35.0141C101.177 35.0141 99.9155 36.2753 99.9155 37.831Z" fill="black" fill-opacity="0.15"/>
</g>
<g filter="url(#filter3_i_731_484)">
<path fill-rule="evenodd" clip-rule="evenodd" d="M14 60.3662C14 61.9219 15.2612 63.1831 16.8169 63.1831L25.2676 63.1831C26.8233 63.1831 28.0845 61.9219 28.0845 60.3662C28.0845 58.8105 26.8233 57.5493 25.2676 57.5493L16.8169 57.5493C15.2612 57.5493 14 58.8105 14 60.3662ZM14 94.169C14 95.7248 15.2612 96.9859 16.8169 96.9859L25.2676 96.9859C26.8233 96.9859 28.0845 95.7248 28.0845 94.169C28.0845 92.6133 26.8233 91.3521 25.2676 91.3521L16.8169 91.3521C15.2612 91.3521 14 92.6133 14 94.169ZM14 82.9014C14 84.4571 15.2612 85.7183 16.8169 85.7183L25.2676 85.7183C26.8233 85.7183 28.0845 84.4571 28.0845 82.9014C28.0845 81.3457 26.8233 80.0845 25.2676 80.0845L16.8169 80.0845C15.2612 80.0845 14 81.3457 14 82.9014ZM16.8169 74.4507C15.2612 74.4507 14 73.1896 14 71.6338C14 70.0781 15.2612 68.8169 16.8169 68.8169L25.2676 68.8169C26.8233 68.8169 28.0845 70.0781 28.0845 71.6338C28.0845 73.1896 26.8233 74.4507 25.2676 74.4507L16.8169 74.4507ZM16.8169 51.9155C15.2612 51.9155 14 50.6543 14 49.0986C14 47.5429 15.2612 46.2817 16.8169 46.2817L25.2676 46.2817C26.8233 46.2817 28.0845 47.5429 28.0845 49.0986C28.0845 50.6543 26.8233 51.9155 25.2676 51.9155L16.8169 51.9155ZM14 37.831C14 39.3867 15.2612 40.6479 16.8169 40.6479L25.2676 40.6479C26.8233 40.6479 28.0845 39.3867 28.0845 37.831C28.0845 36.2753 26.8233 35.0141 25.2676 35.0141L16.8169 35.0141C15.2612 35.0141 14 36.2753 14 37.831Z" fill="black" fill-opacity="0.15"/>
</g>
<path fill-rule="evenodd" clip-rule="evenodd" d="M35.8309 99.9155C34.2752 99.9155 33.014 101.177 33.014 102.732V111.183C33.014 112.739 34.2752 114 35.8309 114C37.3867 114 38.6478 112.739 38.6478 111.183V102.732C38.6478 101.177 37.3867 99.9155 35.8309 99.9155ZM47.0985 99.9155C45.5428 99.9155 44.2816 101.177 44.2816 102.732V111.183C44.2816 112.739 45.5428 114 47.0985 114C48.6543 114 49.9154 112.739 49.9154 111.183V102.732C49.9154 101.177 48.6543 99.9155 47.0985 99.9155ZM55.5493 102.732C55.5493 101.177 56.8104 99.9155 58.3662 99.9155C59.9219 99.9155 61.1831 101.177 61.1831 102.732V111.183C61.1831 112.739 59.9219 114 58.3662 114C56.8104 114 55.5493 112.739 55.5493 111.183V102.732ZM69.6338 99.9155C68.078 99.9155 66.8169 101.177 66.8169 102.732V111.183C66.8169 112.739 68.078 114 69.6338 114C71.1895 114 72.4507 112.739 72.4507 111.183V102.732C72.4507 101.177 71.1895 99.9155 69.6338 99.9155ZM78.0845 102.732C78.0845 101.177 79.3456 99.9155 80.9014 99.9155C82.4571 99.9155 83.7183 101.177 83.7183 102.732V111.183C83.7183 112.739 82.4571 114 80.9014 114C79.3456 114 78.0845 112.739 78.0845 111.183V102.732ZM92.169 99.9155C90.6132 99.9155 89.3521 101.177 89.3521 102.732V111.183C89.3521 112.739 90.6132 114 92.169 114C93.7247 114 94.9859 112.739 94.9859 111.183V102.732C94.9859 101.177 93.7247 99.9155 92.169 99.9155Z" fill="url(#paint0_linear_731_484)"/>
<path fill-rule="evenodd" clip-rule="evenodd" d="M35.8309 14C34.2752 14 33.014 15.2612 33.014 16.8169V25.2676C33.014 26.8233 34.2752 28.0845 35.8309 28.0845C37.3867 28.0845 38.6478 26.8233 38.6478 25.2676V16.8169C38.6478 15.2612 37.3867 14 35.8309 14ZM47.0985 14C45.5428 14 44.2816 15.2612 44.2816 16.8169V25.2676C44.2816 26.8233 45.5428 28.0845 47.0985 28.0845C48.6543 28.0845 49.9154 26.8233 49.9154 25.2676V16.8169C49.9154 15.2612 48.6543 14 47.0985 14ZM55.5493 16.8169C55.5493 15.2612 56.8104 14 58.3662 14C59.9219 14 61.1831 15.2612 61.1831 16.8169V25.2676C61.1831 26.8233 59.9219 28.0845 58.3662 28.0845C56.8104 28.0845 55.5493 26.8233 55.5493 25.2676V16.8169ZM69.6338 14C68.078 14 66.8169 15.2612 66.8169 16.8169V25.2676C66.8169 26.8233 68.078 28.0845 69.6338 28.0845C71.1895 28.0845 72.4507 26.8233 72.4507 25.2676V16.8169C72.4507 15.2612 71.1895 14 69.6338 14ZM78.0845 16.8169C78.0845 15.2612 79.3456 14 80.9014 14C82.4571 14 83.7183 15.2612 83.7183 16.8169V25.2676C83.7183 26.8233 82.4571 28.0845 80.9014 28.0845C79.3456 28.0845 78.0845 26.8233 78.0845 25.2676V16.8169ZM92.169 14C90.6132 14 89.3521 15.2612 89.3521 16.8169V25.2676C89.3521 26.8233 90.6132 28.0845 92.169 28.0845C93.7247 28.0845 94.9859 26.8233 94.9859 25.2676V16.8169C94.9859 15.2612 93.7247 14 92.169 14Z" fill="url(#paint1_linear_731_484)"/>
<path fill-rule="evenodd" clip-rule="evenodd" d="M99.9155 92.169C99.9155 93.7248 101.177 94.9859 102.732 94.9859L111.183 94.9859C112.739 94.9859 114 93.7248 114 92.169C114 90.6133 112.739 89.3521 111.183 89.3521L102.732 89.3521C101.177 89.3521 99.9155 90.6133 99.9155 92.169ZM99.9155 80.9014C99.9155 82.4571 101.177 83.7183 102.732 83.7183L111.183 83.7183C112.739 83.7183 114 82.4571 114 80.9014C114 79.3457 112.739 78.0845 111.183 78.0845L102.732 78.0845C101.177 78.0845 99.9155 79.3457 99.9155 80.9014ZM102.732 72.4507C101.177 72.4507 99.9155 71.1896 99.9155 69.6338C99.9155 68.0781 101.177 66.8169 102.732 66.8169L111.183 66.8169C112.739 66.8169 114 68.0781 114 69.6338C114 71.1896 112.739 72.4507 111.183 72.4507L102.732 72.4507ZM99.9155 58.3662C99.9155 59.9219 101.177 61.1831 102.732 61.1831L111.183 61.1831C112.739 61.1831 114 59.9219 114 58.3662C114 56.8105 112.739 55.5493 111.183 55.5493L102.732 55.5493C101.177 55.5493 99.9155 56.8105 99.9155 58.3662ZM102.732 49.9155C101.177 49.9155 99.9155 48.6543 99.9155 47.0986C99.9155 45.5429 101.177 44.2817 102.732 44.2817L111.183 44.2817C112.739 44.2817 114 45.5429 114 47.0986C114 48.6543 112.739 49.9155 111.183 49.9155L102.732 49.9155ZM99.9155 35.831C99.9155 37.3867 101.177 38.6479 102.732 38.6479L111.183 38.6479C112.739 38.6479 114 37.3867 114 35.831C114 34.2753 112.739 33.0141 111.183 33.0141L102.732 33.0141C101.177 33.0141 99.9155 34.2753 99.9155 35.831Z" fill="url(#paint2_linear_731_484)"/>
<path fill-rule="evenodd" clip-rule="evenodd" d="M14 58.3662C14 59.9219 15.2612 61.1831 16.8169 61.1831L25.2676 61.1831C26.8233 61.1831 28.0845 59.9219 28.0845 58.3662C28.0845 56.8105 26.8233 55.5493 25.2676 55.5493L16.8169 55.5493C15.2612 55.5493 14 56.8105 14 58.3662ZM14 92.169C14 93.7248 15.2612 94.9859 16.8169 94.9859L25.2676 94.9859C26.8233 94.9859 28.0845 93.7248 28.0845 92.169C28.0845 90.6133 26.8233 89.3521 25.2676 89.3521L16.8169 89.3521C15.2612 89.3521 14 90.6133 14 92.169ZM14 80.9014C14 82.4571 15.2612 83.7183 16.8169 83.7183L25.2676 83.7183C26.8233 83.7183 28.0845 82.4571 28.0845 80.9014C28.0845 79.3457 26.8233 78.0845 25.2676 78.0845L16.8169 78.0845C15.2612 78.0845 14 79.3457 14 80.9014ZM16.8169 72.4507C15.2612 72.4507 14 71.1896 14 69.6338C14 68.0781 15.2612 66.8169 16.8169 66.8169L25.2676 66.8169C26.8233 66.8169 28.0845 68.0781 28.0845 69.6338C28.0845 71.1896 26.8233 72.4507 25.2676 72.4507L16.8169 72.4507ZM16.8169 49.9155C15.2612 49.9155 14 48.6543 14 47.0986C14 45.5429 15.2612 44.2817 16.8169 44.2817L25.2676 44.2817C26.8233 44.2817 28.0845 45.5429 28.0845 47.0986C28.0845 48.6543 26.8233 49.9155 25.2676 49.9155L16.8169 49.9155ZM14 35.831C14 37.3867 15.2612 38.6479 16.8169 38.6479L25.2676 38.6479C26.8233 38.6479 28.0845 37.3867 28.0845 35.831C28.0845 34.2753 26.8233 33.0141 25.2676 33.0141L16.8169 33.0141C15.2612 33.0141 14 34.2753 14 35.831Z" fill="url(#paint3_linear_731_484)"/>
<rect x="24" y="26" width="80" height="80" rx="6" fill="black" fill-opacity="0.15"/>
<rect x="24" y="24" width="80" height="80" rx="6" fill="url(#paint4_linear_731_484)"/>
<circle cx="64" cy="64" r="25" fill="url(#paint5_linear_731_484)"/>
<circle cx="64" cy="55" r="4" fill="black" fill-opacity="0.15"/>
<rect x="60" y="63" width="8" height="18" rx="4" fill="black" fill-opacity="0.15"/>
<circle cx="64" cy="53" r="4" fill="url(#paint6_linear_731_484)"/>
<rect x="60" y="61" width="8" height="18" rx="4" fill="url(#paint7_linear_731_484)"/>
</g>
<defs>
<filter id="filter0_i_731_484" x="33.014" y="97.9155" width="61.9718" height="18.0845" filterUnits="userSpaceOnUse" color-interpolation-filters="sRGB">
<feFlood flood-opacity="0" result="BackgroundImageFix"/>
<feBlend mode="normal" in="SourceGraphic" in2="BackgroundImageFix" result="shape"/>
<feColorMatrix in="SourceAlpha" type="matrix" values="0 0 0 0 0 0 0 0 0 0 0 0 0 0 0 0 0 0 127 0" result="hardAlpha"/>
<feOffset dy="-4"/>
<feGaussianBlur stdDeviation="4"/>
<feComposite in2="hardAlpha" operator="arithmetic" k2="-1" k3="1"/>
<feColorMatrix type="matrix" values="0 0 0 0 0 0 0 0 0 0 0 0 0 0 0 0 0 0 0.05 0"/>
<feBlend mode="normal" in2="shape" result="effect1_innerShadow_731_484"/>
</filter>
<filter id="filter1_i_731_484" x="33.014" y="12" width="61.9718" height="18.0845" filterUnits="userSpaceOnUse" color-interpolation-filters="sRGB">
<feFlood flood-opacity="0" result="BackgroundImageFix"/>
<feBlend mode="normal" in="SourceGraphic" in2="BackgroundImageFix" result="shape"/>
<feColorMatrix in="SourceAlpha" type="matrix" values="0 0 0 0 0 0 0 0 0 0 0 0 0 0 0 0 0 0 127 0" result="hardAlpha"/>
<feOffset dy="-4"/>
<feGaussianBlur stdDeviation="4"/>
<feComposite in2="hardAlpha" operator="arithmetic" k2="-1" k3="1"/>
<feColorMatrix type="matrix" values="0 0 0 0 0 0 0 0 0 0 0 0 0 0 0 0 0 0 0.05 0"/>
<feBlend mode="normal" in2="shape" result="effect1_innerShadow_731_484"/>
</filter>
<filter id="filter2_i_731_484" x="99.9155" y="31.0141" width="14.0845" height="65.9718" filterUnits="userSpaceOnUse" color-interpolation-filters="sRGB">
<feFlood flood-opacity="0" result="BackgroundImageFix"/>
<feBlend mode="normal" in="SourceGraphic" in2="BackgroundImageFix" result="shape"/>
<feColorMatrix in="SourceAlpha" type="matrix" values="0 0 0 0 0 0 0 0 0 0 0 0 0 0 0 0 0 0 127 0" result="hardAlpha"/>
<feOffset dy="-4"/>
<feGaussianBlur stdDeviation="4"/>
<feComposite in2="hardAlpha" operator="arithmetic" k2="-1" k3="1"/>
<feColorMatrix type="matrix" values="0 0 0 0 0 0 0 0 0 0 0 0 0 0 0 0 0 0 0.05 0"/>
<feBlend mode="normal" in2="shape" result="effect1_innerShadow_731_484"/>
</filter>
<filter id="filter3_i_731_484" x="14" y="31.0141" width="14.0845" height="65.9718" filterUnits="userSpaceOnUse" color-interpolation-filters="sRGB">
<feFlood flood-opacity="0" result="BackgroundImageFix"/>
<feBlend mode="normal" in="SourceGraphic" in2="BackgroundImageFix" result="shape"/>
<feColorMatrix in="SourceAlpha" type="matrix" values="0 0 0 0 0 0 0 0 0 0 0 0 0 0 0 0 0 0 127 0" result="hardAlpha"/>
<feOffset dy="-4"/>
<feGaussianBlur stdDeviation="4"/>
<feComposite in2="hardAlpha" operator="arithmetic" k2="-1" k3="1"/>
<feColorMatrix type="matrix" values="0 0 0 0 0 0 0 0 0 0 0 0 0 0 0 0 0 0 0.05 0"/>
<feBlend mode="normal" in2="shape" result="effect1_innerShadow_731_484"/>
</filter>
<linearGradient id="paint0_linear_731_484" x1="92.169" y1="99.9155" x2="92.169" y2="114" gradientUnits="userSpaceOnUse">
<stop stop-color="#F7C33B"/>
<stop offset="1" stop-color="#F8E9B3"/>
</linearGradient>
<linearGradient id="paint1_linear_731_484" x1="92.169" y1="14" x2="92.169" y2="28.0845" gradientUnits="userSpaceOnUse">
<stop stop-color="#F7C33B"/>
<stop offset="1" stop-color="#F8E9B3"/>
</linearGradient>
<linearGradient id="paint2_linear_731_484" x1="99.9155" y1="35.831" x2="114" y2="35.831" gradientUnits="userSpaceOnUse">
<stop stop-color="#F7C33B"/>
<stop offset="1" stop-color="#F8E9B3"/>
</linearGradient>
<linearGradient id="paint3_linear_731_484" x1="14" y1="35.831" x2="28.0845" y2="35.831" gradientUnits="userSpaceOnUse">
<stop stop-color="#F7C33B"/>
<stop offset="1" stop-color="#F8E9B3"/>
</linearGradient>
<linearGradient id="paint4_linear_731_484" x1="50.5939" y1="34.1818" x2="83.9155" y2="100.986" gradientUnits="userSpaceOnUse">
<stop stop-color="#505A62"/>
<stop offset="1" stop-color="#1F1F1F"/>
</linearGradient>
<linearGradient id="paint5_linear_731_484" x1="64" y1="39" x2="64" y2="89" gradientUnits="userSpaceOnUse">
<stop stop-color="#64B4F4"/>
<stop offset="1" stop-color="#4989D5"/>
</linearGradient>
<linearGradient id="paint6_linear_731_484" x1="64" y1="49" x2="64" y2="57" gradientUnits="userSpaceOnUse">
<stop stop-color="#E3EEF8"/>
<stop offset="1" stop-color="#C1DEF6"/>
</linearGradient>
<linearGradient id="paint7_linear_731_484" x1="64" y1="61" x2="64" y2="79" gradientUnits="userSpaceOnUse">
<stop stop-color="#E3EEF8"/>
<stop offset="1" stop-color="#C1DEF6"/>
</linearGradient>
<clipPath id="clip0_731_484">
<rect width="128" height="128" fill="white"/>
</clipPath>
</defs>
</svg>
