<svg width="24" height="24" viewBox="0 0 24 24" fill="none" xmlns="http://www.w3.org/2000/svg">
<defs>
<style type="text/css" id="current-color-scheme">
.ColorScheme-Text { color:#111111; }
</style>
</defs>
<g clip-path="url(#clip0_3570_703)">
<path d="M6 10V7C6 5.89543 6.89543 5 8 5H16C17.1046 5 18 5.89543 18 7V10L17.1977 17.2209C17.0851 18.2337 16.229 19 15.2099 19H8.79009C7.77099 19 6.91486 18.2337 6.80232 17.2209L6 10Z" stroke="currentColor" stroke-width="1.2" class="ColorScheme-Text" />
<path d="M6 7V7C6 8.10457 6.89543 9 8 9L16 9C17.1046 9 18 8.10457 18 7V7" stroke="currentColor" stroke-width="1.2" class="ColorScheme-Text" />
<path d="M10 12V16" stroke="currentColor" stroke-width="1.2" stroke-linecap="round" class="ColorScheme-Text" />
<path d="M14 12V16" stroke="currentColor" stroke-width="1.2" stroke-linecap="round" class="ColorScheme-Text" />
</g>
<defs>
<clipPath id="clip0_3570_703">
<rect width="24" height="24" fill="white"/>
</clipPath>
</defs>
</svg>
