<svg width="24" height="24" viewBox="0 0 24 24" fill="none" xmlns="http://www.w3.org/2000/svg">
<defs>
<style type="text/css" id="current-color-scheme">
.ColorScheme-Text { color:#111111; }
</style>
</defs>
<path d="M7.5 9.58337V11.1112C7.5 11.1112 7.5 10.7223 7.5 11.9445C7.5 13.1667 6.5 14.4908 6 15H13" stroke="currentColor" stroke-width="1.2" stroke-linecap="round" stroke-linejoin="round" class="ColorScheme-Text" />
<path d="M8.76172 6.40061C9.58009 5.53707 10.7284 5 11.9998 5C14.4851 5 16.4998 7.05203 16.4998 9.58333C16.4998 10.0926 16.4998 10.7222 16.4998 11.9444C16.4998 13.1667 17.4998 14.4907 17.9998 15H16.9998" stroke="currentColor" stroke-width="1.2" stroke-linecap="round" stroke-linejoin="round" class="ColorScheme-Text" />
<path d="M14 17C14 18.1046 13.1046 19 12 19C10.8954 19 10 18.1046 10 17" stroke="currentColor" stroke-width="1.2" stroke-linecap="round" stroke-linejoin="round" class="ColorScheme-Text" />
<path d="M6 6L18 18" stroke="#F95D5D" stroke-width="1.2" stroke-linecap="round" stroke-linejoin="round"/>
</svg>
