<svg width="24" height="24" viewBox="0 0 24 24" fill="none" xmlns="http://www.w3.org/2000/svg">
<path d="M16.5 9.58333C16.5 7.05203 14.4853 5 12 5C9.51472 5 7.5 7.05203 7.5 9.58333L7.5 11.9444C7.5 13.1667 6.5 14.4907 6 15H12.0002H18C17.5 14.4907 16.5 13.1667 16.5 11.9444L16.5 9.58333Z" stroke="#111111" stroke-width="1.2" stroke-linecap="round" stroke-linejoin="round"/>
<path d="M14 17C14 18.1046 13.1046 19 12 19C10.8954 19 10 18.1046 10 17" stroke="#111111" stroke-width="1.2" stroke-linecap="round" stroke-linejoin="round"/>
<path d="M17 4L17.4 4.3C18.4072 5.05542 19 6.24097 19 7.5V7.5" stroke="black" stroke-width="1.2" stroke-linecap="round"/>
<path d="M7 4L6.6 4.3C5.59278 5.05542 5 6.24097 5 7.5V7.5" stroke="black" stroke-width="1.2" stroke-linecap="round"/>
</svg>
