<svg width="24" height="24" viewBox="0 0 24 24" fill="none" xmlns="http://www.w3.org/2000/svg">
<defs>
<style type="text/css" id="current-color-scheme">
.ColorScheme-Text { color:#111111; }
</style>
</defs>
<g clip-path="url(#clip0_3062_227)">
<path d="M12 20H6C4.89543 20 4 19.1046 4 18V6C4 4.89543 4.89543 4 6 4H8C9.10457 4 10 4.89543 10 6V7H18C19.1046 7 20 7.89543 20 9V13" stroke="currentColor" stroke-width="1.2" stroke-linecap="round" class="ColorScheme-Text" />
<path d="M15 19H21" stroke="currentColor" stroke-width="1.2" stroke-linecap="round" class="ColorScheme-Text" />
<path d="M18 16L18 22" stroke="currentColor" stroke-width="1.2" stroke-linecap="round" class="ColorScheme-Text" />
<path d="M16 7V6C16 4.89543 15.1046 4 14 4H12C10.8954 4 10 4.89543 10 6V7" stroke="currentColor" stroke-width="1.2" stroke-linecap="round" class="ColorScheme-Text" />
</g>
<defs>
<clipPath id="clip0_3062_227">
<rect width="24" height="24" fill="white"/>
</clipPath>
</defs>
</svg>
