<svg width="24" height="24" viewBox="0 0 24 24" fill="none" xmlns="http://www.w3.org/2000/svg">
<path d="M3 12C4.22727 10.6667 7.74545 8 12 8C12.6881 8 13.357 8.06976 14 8.19235M21 12C20.3688 11.3143 19.1316 10.2758 17.5 9.4289" stroke="#111111" stroke-width="1.2" stroke-linecap="round"/>
<path d="M14 8.41604C13.3875 8.14845 12.7111 8 12 8C9.23858 8 7 10.2386 7 13C7 13.7111 7.14845 14.3875 7.41604 15M16.3576 10.5463C16.7666 11.2712 17 12.1083 17 13C17 15.7614 14.7614 18 12 18C11.0893 18 10.2354 17.7565 9.5 17.3311" stroke="#111111" stroke-width="1.2" stroke-linecap="round"/>
<path d="M13.2856 12.8455L10.6372 15.669C11.244 16.0191 12.6044 16.3014 13.7525 15.424C14.9006 14.5466 15.0009 13.5922 15.0009 12.7405C14.6548 12.8922 13.8271 13.1255 13.2856 12.8455Z" fill="#111111"/>
<path d="M5 19.5L19 5.5" stroke="#111111" stroke-width="1.2" stroke-linecap="round"/>
<path d="M12.0149 10.8153L9.07446 13.6155C8.8988 13.2072 8.95041 11.7721 9.80915 10.932C10.6679 10.092 11.6291 9.92861 12.2831 9.9986C12.1781 10.1386 12.0149 10.4886 12.0149 10.8153Z" fill="#111111"/>
</svg>
