<svg width="24" height="24" viewBox="0 0 24 24" fill="none" xmlns="http://www.w3.org/2000/svg">
<defs>
<style type="text/css" id="current-color-scheme">
.ColorScheme-Text { color:#111111; }
</style>
</defs>
<g clip-path="url(#clip0_3067_306)">
<rect x="4" y="4" width="16" height="16" rx="2" stroke="currentColor" stroke-width="1.2" class="ColorScheme-Text" />
<path d="M8.65989 14.136L4.62861 15.7486C4.24895 15.9004 4 16.2681 4 16.677V18C4 19.1046 4.89543 20 6 20H18C19.1046 20 20 19.1046 20 18V15.618C20 15.2393 19.786 14.893 19.4472 14.7236L16.4472 13.2236C16.1657 13.0828 15.8343 13.0828 15.5528 13.2236L12.3705 14.8148C12.1333 14.9334 11.8586 14.9529 11.607 14.869L9.34751 14.1158C9.12313 14.041 8.8795 14.0482 8.65989 14.136Z" stroke="currentColor" stroke-width="1.2" stroke-linecap="round" stroke-linejoin="round" class="ColorScheme-Text" />
<circle cx="9" cy="9" r="2" stroke="currentColor" stroke-width="1.2" class="ColorScheme-Text" />
</g>
<defs>
<clipPath id="clip0_3067_306">
<rect width="24" height="24" fill="white"/>
</clipPath>
</defs>
</svg>
