<?xml version="1.0" encoding="UTF-8" standalone="no"?>
<svg xmlns:inkscape="http://www.inkscape.org/namespaces/inkscape" xmlns:sodipodi="http://sodipodi.sourceforge.net/DTD/sodipodi-0.dtd" xmlns="http://www.w3.org/2000/svg" xmlns:svg="http://www.w3.org/2000/svg" width="24" height="24" viewBox="0 0 24 24" fill="none" version="1.1" id="svg3" sodipodi:docname="edit-cut.svg" inkscape:version="1.4 (e7c3feb100, 2024-10-09)">
  <defs id="defs1">
    <style id="current-color-scheme" type="text/css">
      .ColorScheme-Text { color:#e6f0f5; }
      .ColorScheme-Highlight { color:#2179cb; }
      .ColorScheme-Background { color:#e4e4e4; }
    </style>
  </defs>
  <sodipodi:namedview id="namedview3" pagecolor="#ffffff" bordercolor="#000000" borderopacity="0.25" inkscape:showpageshadow="2" inkscape:pageopacity="0.0" inkscape:pagecheckerboard="0" inkscape:deskcolor="#d1d1d1" inkscape:zoom="33.291667" inkscape:cx="11.984981" inkscape:cy="12" inkscape:window-width="1920" inkscape:window-height="1008" inkscape:window-x="0" inkscape:window-y="0" inkscape:window-maximized="1" inkscape:current-layer="svg3"/>
  <g clip-path="url(#clip0_1126_159)" id="g3">
    <path id="path3" d="M 9.34814,13 16.3481,3 m -2,10 L 7.34814,3 M 18.946177,15 A 3.5,3 60 0 1 18.098101,19.531088 3.5,3 60 0 1 13.750025,17.999999 3.5,3 60 0 1 14.598101,13.468911 3.5,3 60 0 1 18.946177,15 Z M 9.9461562,18 A 3,3.5 30 0 1 5.5980802,19.531089 3,3.5 30 0 1 4.750004,15 3,3.5 30 0 1 9.0980802,13.468911 3,3.5 30 0 1 9.9461562,18 Z" style="stroke:#000000;stroke-opacity:1;stroke-linejoin:round;stroke-linecap:round;stroke-width:1.2;stroke-dasharray:none"/>
    <path id="path3" d="M 9.34814,13 16.3481,3 m -2,10 L 7.34814,3 M 18.946177,15 A 3.5,3 60 0 1 18.098101,19.531088 3.5,3 60 0 1 13.750025,17.999999 3.5,3 60 0 1 14.598101,13.468911 3.5,3 60 0 1 18.946177,15 Z M 9.9461562,18 A 3,3.5 30 0 1 5.5980802,19.531089 3,3.5 30 0 1 4.750004,15 3,3.5 30 0 1 9.0980802,13.468911 3,3.5 30 0 1 9.9461562,18 Z" style="stroke:currentColor;opacity:0.5;stroke-linejoin:round;stroke-linecap:round;stroke-width:1.2;stroke-dasharray:none" class="ColorScheme-Highlight"/>
  </g>
  <defs id="defs3">
    <clipPath id="clip0_1126_159">
      <rect width="24" height="24" fill="white" id="rect3"/>
    </clipPath>
  </defs>
</svg>
