<?xml version="1.0" encoding="UTF-8" standalone="no"?>
<svg xmlns:inkscape="http://www.inkscape.org/namespaces/inkscape" xmlns:sodipodi="http://sodipodi.sourceforge.net/DTD/sodipodi-0.dtd" xmlns="http://www.w3.org/2000/svg" xmlns:svg="http://www.w3.org/2000/svg" width="24" height="24" viewBox="0 0 24 24" fill="none" version="1.1" id="svg4" sodipodi:docname="trash-empty.svg" inkscape:version="1.4 (e7c3feb100, 2024-10-09)">
  <defs id="defs1">
    <style id="current-color-scheme" type="text/css">
      .ColorScheme-Text { color:#e6f0f5; }
      .ColorScheme-Highlight { color:#2179cb; }
      .ColorScheme-Background { color:#e4e4e4; }
    </style>
  </defs>
  <sodipodi:namedview id="namedview4" pagecolor="#ffffff" bordercolor="#000000" borderopacity="0.25" inkscape:showpageshadow="2" inkscape:pageopacity="0.0" inkscape:pagecheckerboard="0" inkscape:deskcolor="#d1d1d1" inkscape:zoom="33.291667" inkscape:cx="11.984981" inkscape:cy="12" inkscape:window-width="1920" inkscape:window-height="1008" inkscape:window-x="0" inkscape:window-y="0" inkscape:window-maximized="1" inkscape:current-layer="svg4"/>
  <g clip-path="url(#clip0_889_210)" id="g4">
    <path id="path2" d="m 18,7 c 0,1.10457 -0.8954,2 -2,2 H 8 C 6.89543,9 6,8.10457 6,7 V 7 C 6,5.89543 6.89543,5 8,5 h 8 c 1.1046,0 2,0.89543 2,2 z M 6,10 V 7 C 6,5.89543 6.89543,5 8,5 h 8 c 1.1046,0 2,0.89543 2,2 v 3 l -0.8023,7.2209 C 17.0851,18.2337 16.229,19 15.2099,19 H 8.79009 C 7.77099,19 6.91486,18.2337 6.80232,17.2209 Z" style="stroke:#000000;stroke-opacity:1;stroke-linejoin:round;stroke-linecap:round"/>
    <path d="M10 12V16" stroke="#111111" stroke-width="1.2" stroke-linecap="round" id="path3"/>
    <path d="M14 12V16" stroke="#111111" stroke-width="1.2" stroke-linecap="round" id="path4"/>
    <path id="path2" d="m 18,7 c 0,1.10457 -0.8954,2 -2,2 H 8 C 6.89543,9 6,8.10457 6,7 V 7 C 6,5.89543 6.89543,5 8,5 h 8 c 1.1046,0 2,0.89543 2,2 z M 6,10 V 7 C 6,5.89543 6.89543,5 8,5 h 8 c 1.1046,0 2,0.89543 2,2 v 3 l -0.8023,7.2209 C 17.0851,18.2337 16.229,19 15.2099,19 H 8.79009 C 7.77099,19 6.91486,18.2337 6.80232,17.2209 Z" style="stroke:currentColor;opacity:0.5;stroke-linejoin:round;stroke-linecap:round" class="ColorScheme-Highlight"/>
    <path d="M10 12V16" style="stroke:currentColor;opacity:0.5" class="ColorScheme-Highlight" stroke-width="1.2" stroke-linecap="round" id="path3"/>
    <path d="M14 12V16" style="stroke:currentColor;opacity:0.5" class="ColorScheme-Highlight" stroke-width="1.2" stroke-linecap="round" id="path4"/>
  </g>
  <defs id="defs4">
    <clipPath id="clip0_889_210">
      <rect width="24" height="24" fill="white" id="rect4"/>
    </clipPath>
  </defs>
</svg>
