<?xml version="1.0" encoding="UTF-8" standalone="no"?>
<svg xmlns:inkscape="http://www.inkscape.org/namespaces/inkscape" xmlns:sodipodi="http://sodipodi.sourceforge.net/DTD/sodipodi-0.dtd" xmlns="http://www.w3.org/2000/svg" xmlns:svg="http://www.w3.org/2000/svg" width="24" height="24" viewBox="0 0 24 24" fill="none" version="1.1" id="svg3" sodipodi:docname="edit-copy-path.svg" inkscape:version="1.4 (e7c3feb100, 2024-10-09)">
  <defs id="defs1">
    <style id="current-color-scheme" type="text/css">
      .ColorScheme-Text { color:#e6f0f5; }
      .ColorScheme-Highlight { color:#2179cb; }
      .ColorScheme-Background { color:#e4e4e4; }
    </style>
  </defs>
  <sodipodi:namedview id="namedview3" pagecolor="#ffffff" bordercolor="#000000" borderopacity="0.25" inkscape:showpageshadow="2" inkscape:pageopacity="0.0" inkscape:pagecheckerboard="0" inkscape:deskcolor="#d1d1d1" inkscape:zoom="33.291667" inkscape:cx="11.984981" inkscape:cy="12" inkscape:window-width="1920" inkscape:window-height="1008" inkscape:window-x="0" inkscape:window-y="0" inkscape:window-maximized="1" inkscape:current-layer="g3"/>
  <g clip-path="url(#clip0_3049_210)" id="g3">
    <rect x="5" y="8" width="10" height="12" rx="2" stroke="#111111" stroke-width="1.2" stroke-linejoin="round" id="rect1"/>
    <path d="M 15.570713,16 H 17 c 1.1046,0 2,-0.8954 2,-2 V 6 C 19,4.89543 18.1046,4 17,4 H 11.0001 C 9.89548,4 9.00005,4.89543 9.00005,6 l 0,1.4292866" stroke="#111111" stroke-width="1.2" stroke-linecap="round" stroke-linejoin="round" id="path1" style="stroke-linecap:butt" sodipodi:nodetypes="cssssssc"/>
    <path d="M10 11L8 17" stroke="#111111" stroke-width="1.2" stroke-linecap="round" id="path2"/>
    <path d="M12 11L10 17" stroke="#111111" stroke-width="1.2" stroke-linecap="round" id="path3"/>
    <rect x="5" y="8" width="10" height="12" rx="2" style="stroke:currentColor;opacity:0.5" class="ColorScheme-Highlight" stroke-width="1.2" stroke-linejoin="round" id="rect1"/>
    <path d="M 15.570713,16 H 17 c 1.1046,0 2,-0.8954 2,-2 V 6 C 19,4.89543 18.1046,4 17,4 H 11.0001 C 9.89548,4 9.00005,4.89543 9.00005,6 l 0,1.4292866" style="stroke:currentColor;opacity:0.5;stroke-linecap:butt" class="ColorScheme-Highlight" stroke-width="1.2" stroke-linecap="round" stroke-linejoin="round" id="path1" sodipodi:nodetypes="cssssssc"/>
    <path d="M10 11L8 17" style="stroke:currentColor;opacity:0.5" class="ColorScheme-Highlight" stroke-width="1.2" stroke-linecap="round" id="path2"/>
    <path d="M12 11L10 17" style="stroke:currentColor;opacity:0.5" class="ColorScheme-Highlight" stroke-width="1.2" stroke-linecap="round" id="path3"/>
  </g>
  <defs id="defs3">
    <clipPath id="clip0_3049_210">
      <rect width="24" height="24" fill="white" id="rect3"/>
    </clipPath>
  </defs>
</svg>
