<?xml version="1.0" encoding="UTF-8" standalone="no"?>
<svg xmlns:inkscape="http://www.inkscape.org/namespaces/inkscape" xmlns:sodipodi="http://sodipodi.sourceforge.net/DTD/sodipodi-0.dtd" xmlns="http://www.w3.org/2000/svg" xmlns:svg="http://www.w3.org/2000/svg" width="24" height="24" viewBox="0 0 24 24" fill="none" version="1.1" id="svg6" sodipodi:docname="help-contents.svg" inkscape:version="1.4 (e7c3feb100, 2024-10-09)">
  <defs id="defs1">
    <style id="current-color-scheme" type="text/css">
      .ColorScheme-Text { color:#e6f0f5; }
      .ColorScheme-Highlight { color:#2179cb; }
      .ColorScheme-Background { color:#e4e4e4; }
    </style>
  </defs>
  <sodipodi:namedview id="namedview6" pagecolor="#ffffff" bordercolor="#000000" borderopacity="0.25" inkscape:showpageshadow="2" inkscape:pageopacity="0.0" inkscape:pagecheckerboard="0" inkscape:deskcolor="#d1d1d1" inkscape:zoom="33.291667" inkscape:cx="11.984981" inkscape:cy="12" inkscape:window-width="1920" inkscape:window-height="1008" inkscape:window-x="0" inkscape:window-y="0" inkscape:window-maximized="1" inkscape:current-layer="svg6"/>
  <g clip-path="url(#clip0_979_391)" id="g5">
    <path id="rect5" style="stroke:#000000;stroke-width:1.2" transform="rotate(90 8 10)" d="m 9,10 h 2 c 0.554,0 1,0.446 1,1 v 4 c 0,0.554 -0.446,1 -1,1 H 9 C 8.446,16 8,15.554 8,15 V 11 C 8,10.446 8.446,10 9,10 Z M 9,-4 h 2 c 0.554,0 1,0.446 1,1 v 4 c 0,0.554 -0.446,1 -1,1 H 9 C 8.446,2 8,1.554 8,1 V -3 C 8,-3.554 8.446,-4 9,-4 Z M 14,7 V 5 c 0,-0.554 0.446,-1 1,-1 h 4 c 0.554,0 1,0.446 1,1 v 2 c 0,0.554 -0.446,1 -1,1 H 15 C 14.446,8 14,7.554 14,7 Z M 0,7 V 5 C 0,4.446 0.446,4 1,4 H 5 C 5.554,4 6,4.446 6,5 V 7 C 6,7.554 5.554,8 5,8 H 1 C 0.446,8 0,7.554 0,7 Z M 5,7.7672 C 5.53244,9.27363 6.72637,10.46756 8.2328,11 M 5,4.2328 C 5.53244,2.7264 6.72637,1.5324 8.2328,1 m 3.5344,0 C 13.2736,1.5324 14.4676,2.7264 15,4.2328 m 0,3.5344 C 14.4676,9.27363 13.2736,10.46756 11.7672,11 M 1,8.05082 C 1.7829,11.50107 4.49893,14.2171 7.94918,15 M 1,3.9492 C 1.7829,0.4989 4.49893,-2.2171 7.94918,-3 m 4.10162,0 C 15.5011,-2.2171 18.2171,0.4989 19,3.9492 m 0,4.10162 C 18.2171,11.50107 15.5011,14.2171 12.0508,15"/>
    <path id="rect5" style="stroke:currentColor;opacity:0.5;stroke-width:1.2" class="ColorScheme-Highlight" transform="rotate(90 8 10)" d="m 9,10 h 2 c 0.554,0 1,0.446 1,1 v 4 c 0,0.554 -0.446,1 -1,1 H 9 C 8.446,16 8,15.554 8,15 V 11 C 8,10.446 8.446,10 9,10 Z M 9,-4 h 2 c 0.554,0 1,0.446 1,1 v 4 c 0,0.554 -0.446,1 -1,1 H 9 C 8.446,2 8,1.554 8,1 V -3 C 8,-3.554 8.446,-4 9,-4 Z M 14,7 V 5 c 0,-0.554 0.446,-1 1,-1 h 4 c 0.554,0 1,0.446 1,1 v 2 c 0,0.554 -0.446,1 -1,1 H 15 C 14.446,8 14,7.554 14,7 Z M 0,7 V 5 C 0,4.446 0.446,4 1,4 H 5 C 5.554,4 6,4.446 6,5 V 7 C 6,7.554 5.554,8 5,8 H 1 C 0.446,8 0,7.554 0,7 Z M 5,7.7672 C 5.53244,9.27363 6.72637,10.46756 8.2328,11 M 5,4.2328 C 5.53244,2.7264 6.72637,1.5324 8.2328,1 m 3.5344,0 C 13.2736,1.5324 14.4676,2.7264 15,4.2328 m 0,3.5344 C 14.4676,9.27363 13.2736,10.46756 11.7672,11 M 1,8.05082 C 1.7829,11.50107 4.49893,14.2171 7.94918,15 M 1,3.9492 C 1.7829,0.4989 4.49893,-2.2171 7.94918,-3 m 4.10162,0 C 15.5011,-2.2171 18.2171,0.4989 19,3.9492 m 0,4.10162 C 18.2171,11.50107 15.5011,14.2171 12.0508,15"/>
  </g>
  <defs id="defs6">
    <clipPath id="clip0_979_391">
      <rect width="24" height="24" fill="white" id="rect6"/>
    </clipPath>
  </defs>
</svg>
