<?xml version="1.0" encoding="UTF-8" standalone="no"?>
<svg
   width="24"
   height="24"
   viewBox="0 0 24 24"
   fill="none"
   version="1.1"
   id="svg4"
   sodipodi:docname="media-skip-backward.svg"
   inkscape:version="1.4 (e7c3feb100, 2024-10-09)"
   xmlns:inkscape="http://www.inkscape.org/namespaces/inkscape"
   xmlns:sodipodi="http://sodipodi.sourceforge.net/DTD/sodipodi-0.dtd"
   xmlns="http://www.w3.org/2000/svg"
   xmlns:svg="http://www.w3.org/2000/svg">
  <sodipodi:namedview
     id="namedview4"
     pagecolor="#ffffff"
     bordercolor="#000000"
     borderopacity="0.25"
     inkscape:showpageshadow="2"
     inkscape:pageopacity="0.0"
     inkscape:pagecheckerboard="0"
     inkscape:deskcolor="#d1d1d1"
     inkscape:zoom="33.291667"
     inkscape:cx="11.984981"
     inkscape:cy="12"
     inkscape:window-width="1920"
     inkscape:window-height="1008"
     inkscape:window-x="0"
     inkscape:window-y="0"
     inkscape:window-maximized="1"
     inkscape:current-layer="svg4" />
  <defs
     id="defs1">
    <style
       id="current-color-scheme"
       type="text/css">
            .ColorScheme-Text { color:#e6f0f5; }
            .ColorScheme-Highlight { color:#2179cb; }
            .ColorScheme-Background { color:#e4e4e4; }
        </style>
  </defs>
  <g
     id="g4"
     transform="matrix(-1,0,0,1,24,0)">
    <path
       d="m 7.03688,17.522 8.13732,-5.1783 c 0.6175,-0.393 0.6175,-1.2944 0,-1.6874 L 7.03688,5.47801 C 6.37115,5.05437 5.5,5.53258 5.5,6.32167 V 16.6783 c 0,0.7891 0.87115,1.2673 1.53688,0.8437 z"
       stroke="#111111"
       stroke-width="1.2"
       stroke-linecap="round"
       stroke-linejoin="round"
       id="path1" />
    <path
       d="M 18.5,17.5 V 5.5"
       stroke="#111111"
       stroke-width="1.2"
       stroke-linecap="round"
       stroke-linejoin="round"
       id="path2" />
    <path
       d="m 7.03688,17.522 8.13732,-5.1783 c 0.6175,-0.393 0.6175,-1.2944 0,-1.6874 L 7.03688,5.47801 C 6.37115,5.05437 5.5,5.53258 5.5,6.32167 V 16.6783 c 0,0.7891 0.87115,1.2673 1.53688,0.8437 z"
       style="opacity:0.5;stroke:currentColor"
       class="ColorScheme-Highlight"
       stroke-width="1.2"
       stroke-linecap="round"
       stroke-linejoin="round"
       id="path3" />
    <path
       d="M 18.5,17.5 V 5.5"
       style="opacity:0.5;stroke:currentColor"
       class="ColorScheme-Highlight"
       stroke-width="1.2"
       stroke-linecap="round"
       stroke-linejoin="round"
       id="path4" />
  </g>
</svg>
