<?xml version="1.0"?>
<svg xmlns="http://www.w3.org/2000/svg" width="24" height="24" viewBox="0 0 24 24" fill="none">
    <defs id="defs1">
        <style id="current-color-scheme" type="text/css">
            .ColorScheme-Text { color:#e6f0f5; }
            .ColorScheme-Highlight { color:#2179cb; }
            .ColorScheme-Background { color:#e4e4e4; }
        </style>
    </defs>
    <path d="M5.97801 6.53688L11.1563 14.6742C11.5493 15.2917 12.4507 15.2917 12.8437 14.6742L18.022 6.53688C18.4456 5.87115 17.9674 5 17.1783 5H6.82167C6.03258 5 5.55437 5.87115 5.97801 6.53688Z" stroke="#000000" stroke-width="1.2" stroke-linecap="round" stroke-linejoin="round"/>
    <path d="M6 18L18 18" stroke="#000000" stroke-width="1.2" stroke-linecap="round" stroke-linejoin="round"/>
    <path d="M5.97801 6.53688L11.1563 14.6742C11.5493 15.2917 12.4507 15.2917 12.8437 14.6742L18.022 6.53688C18.4456 5.87115 17.9674 5 17.1783 5H6.82167C6.03258 5 5.55437 5.87115 5.97801 6.53688Z" style="stroke:currentColor;opacity:0.5;" class="ColorScheme-Highlight" stroke-width="1.2" stroke-linecap="round" stroke-linejoin="round"/>
    <path d="M6 18L18 18" style="stroke:currentColor;opacity:0.5;" class="ColorScheme-Highlight" stroke-width="1.2" stroke-linecap="round" stroke-linejoin="round"/>
</svg>
