<?xml version="1.0" encoding="UTF-8" standalone="no"?>
<svg xmlns:inkscape="http://www.inkscape.org/namespaces/inkscape" xmlns:sodipodi="http://sodipodi.sourceforge.net/DTD/sodipodi-0.dtd" xmlns="http://www.w3.org/2000/svg" xmlns:svg="http://www.w3.org/2000/svg" width="24" height="24" viewBox="0 0 24 24" fill="none" version="1.1" id="svg5" sodipodi:docname="system-switch-user.svg" inkscape:version="1.4 (e7c3feb100, 2024-10-09)">
   <defs id="defs1">
      <style id="current-color-scheme" type="text/css">
         .ColorScheme-Text { color:#e6f0f5; }
         .ColorScheme-Highlight { color:#2179cb; }
         .ColorScheme-Background { color:#e4e4e4; }
      </style>
   </defs>
   <defs id="defs5"/>
   <sodipodi:namedview id="namedview5" pagecolor="#000000" bordercolor="#000000" borderopacity="0.25" inkscape:showpageshadow="2" inkscape:pageopacity="0.0" inkscape:pagecheckerboard="0" inkscape:deskcolor="#d1d1d1" inkscape:zoom="30.958333" inkscape:cx="11.983849" inkscape:cy="12" inkscape:window-width="1920" inkscape:window-height="952" inkscape:window-x="0" inkscape:window-y="0" inkscape:window-maximized="1" inkscape:current-layer="svg5"/>
   <circle cx="12" cy="9" r="2" stroke="#000000" stroke-width="1.2" id="circle1" style="stroke:#000000;stroke-opacity:1"/>
   <path d="M15 16H9C9 14.5 10.1419 13 12 13C13.8581 13 15 14.5 15 16Z" stroke="#000000" stroke-width="1.2" stroke-linecap="round" stroke-linejoin="round" id="path1" style="stroke:#000000;stroke-opacity:1"/>
   <path id="path4" d="M 20,6 V 9 H 17 M 4.00016,12 c 0,-4.41828 3.58172,-8 8.00004,-8 3.2948,0 6.1244,1.99185 7.3504,4.8371" style="stroke:#000000;stroke-opacity:1;stroke-linejoin:round;stroke-linecap:round;stroke-width:1.2;stroke-dasharray:none"/>
   <path id="path5" d="m 4,18 v -3 h 3 m 12.9998,-3 c 0,4.4183 -3.5817,8 -8,8 -3.29481,0 -6.12444,-1.9919 -7.35039,-4.8371" style="stroke:#000000;stroke-opacity:1;stroke-linejoin:round;stroke-linecap:round;stroke-width:1.2;stroke-dasharray:none"/>
   <circle cx="12" cy="9" r="2" style="stroke:currentColor;opacity:0.5;" class="ColorScheme-Highlight" stroke-width="1.2" id="circle1"/>
   <path d="M15 16H9C9 14.5 10.1419 13 12 13C13.8581 13 15 14.5 15 16Z" stroke-width="1.2" stroke-linecap="round" stroke-linejoin="round" id="path1" style="stroke:currentColor;opacity:0.5;" class="ColorScheme-Highlight"/>
   <path id="path4" d="M 20,6 V 9 H 17 M 4.00016,12 c 0,-4.41828 3.58172,-8 8.00004,-8 3.2948,0 6.1244,1.99185 7.3504,4.8371" style="stroke:currentColor;opacity:0.5;stroke-linejoin:round;stroke-linecap:round;stroke-width:1.2;stroke-dasharray:none" class="ColorScheme-Highlight"/>
   <path id="path5" d="m 4,18 v -3 h 3 m 12.9998,-3 c 0,4.4183 -3.5817,8 -8,8 -3.29481,0 -6.12444,-1.9919 -7.35039,-4.8371" style="stroke:currentColor;opacity:0.5;stroke-linejoin:round;stroke-linecap:round;stroke-width:1.2;stroke-dasharray:none" class="ColorScheme-Highlight"/>
</svg>
