<?xml version="1.0" encoding="UTF-8" standalone="no"?>
<svg xmlns:inkscape="http://www.inkscape.org/namespaces/inkscape" xmlns:sodipodi="http://sodipodi.sourceforge.net/DTD/sodipodi-0.dtd" xmlns="http://www.w3.org/2000/svg" xmlns:svg="http://www.w3.org/2000/svg" width="24" height="24" viewBox="0 0 24 24" fill="none" version="1.1" id="svg2" sodipodi:docname="system-run.svg" inkscape:version="1.4 (e7c3feb100, 2024-10-09)">
  <defs id="defs1">
    <style id="current-color-scheme" type="text/css">
      .ColorScheme-Text { color:#e6f0f5; }
      .ColorScheme-Highlight { color:#2179cb; }
      .ColorScheme-Background { color:#e4e4e4; }
    </style>
  </defs>
  <sodipodi:namedview id="namedview2" pagecolor="#ffffff" bordercolor="#000000" borderopacity="0.25" inkscape:showpageshadow="2" inkscape:pageopacity="0.0" inkscape:pagecheckerboard="0" inkscape:deskcolor="#d1d1d1" inkscape:zoom="33.291667" inkscape:cx="11.984981" inkscape:cy="12" inkscape:window-width="1920" inkscape:window-height="1008" inkscape:window-x="0" inkscape:window-y="0" inkscape:window-maximized="1" inkscape:current-layer="svg2"/>
  <g clip-path="url(#clip0_3069_326)" id="g2">
    <path id="path1" d="M 4,8 H 20 M 6,4 h 12 c 1.108,0 2,0.892 2,2 v 12 c 0,1.108 -0.892,2 -2,2 H 6 C 4.892,20 4,19.108 4,18 V 6 C 4,4.892 4.892,4 6,4 Z" style="stroke:#000000;stroke-opacity:1;stroke-linejoin:round;stroke-linecap:round"/>
    <path d="M11.5547 11.0365L14.7519 13.1679C15.3457 13.5638 15.3457 14.4362 14.7519 14.8321L11.5547 16.9635C10.8901 17.4066 10 16.9302 10 16.1315V11.8685C10 11.0698 10.8901 10.5934 11.5547 11.0365Z" stroke="#111111" stroke-width="1.2" id="path2"/>
    <path id="path1" d="M 4,8 H 20 M 6,4 h 12 c 1.108,0 2,0.892 2,2 v 12 c 0,1.108 -0.892,2 -2,2 H 6 C 4.892,20 4,19.108 4,18 V 6 C 4,4.892 4.892,4 6,4 Z" style="stroke:currentColor;opacity:0.5;stroke-linejoin:round;stroke-linecap:round" class="ColorScheme-Highlight"/>
    <path d="M11.5547 11.0365L14.7519 13.1679C15.3457 13.5638 15.3457 14.4362 14.7519 14.8321L11.5547 16.9635C10.8901 17.4066 10 16.9302 10 16.1315V11.8685C10 11.0698 10.8901 10.5934 11.5547 11.0365Z" style="stroke:currentColor;opacity:0.5" class="ColorScheme-Highlight" stroke-width="1.2" id="path2"/>
  </g>
  <defs id="defs2">
    <clipPath id="clip0_3069_326">
      <rect width="24" height="24" fill="white" id="rect2"/>
    </clipPath>
  </defs>
</svg>
