<?xml version="1.0" encoding="UTF-8" standalone="no"?>
<svg xmlns:inkscape="http://www.inkscape.org/namespaces/inkscape" xmlns:sodipodi="http://sodipodi.sourceforge.net/DTD/sodipodi-0.dtd" xmlns="http://www.w3.org/2000/svg" xmlns:svg="http://www.w3.org/2000/svg" width="24" height="24" viewBox="0 0 24 24" fill="none" version="1.1" id="svg2" sodipodi:docname="tag.svg" inkscape:version="1.4 (e7c3feb100, 2024-10-09)">
   <defs id="defs1">
      <style id="current-color-scheme" type="text/css">
         .ColorScheme-Text { color:#e6f0f5; }
         .ColorScheme-Highlight { color:#2179cb; }
         .ColorScheme-Background { color:#e4e4e4; }
      </style>
   </defs>
   <defs id="defs2"/>
   <sodipodi:namedview id="namedview2" pagecolor="#ffffff" bordercolor="#000000" borderopacity="0.25" inkscape:showpageshadow="2" inkscape:pageopacity="0.0" inkscape:pagecheckerboard="0" inkscape:deskcolor="#d1d1d1" inkscape:zoom="33.291667" inkscape:cx="11.984981" inkscape:cy="12" inkscape:window-width="1920" inkscape:window-height="1008" inkscape:window-x="0" inkscape:window-y="0" inkscape:window-maximized="1" inkscape:current-layer="svg2"/>
   <circle cx="7.5" cy="7.5" r="1.5" fill="#111111" id="circle1"/>
   <path id="path2" d="m 4,11 5.4453,8.1679 c 0.30635,0.4596 0.9272,0.5838 1.3868,0.2774 L 11.5,19 M 4,10.5858 V 5 C 4,4.44772 4.44772,4 5,4 h 5.5858 c 0.2652,0 0.5196,0.10536 0.7071,0.29289 l 8,8.00001 c 0.3905,0.3905 0.3905,1.0237 0,1.4142 l -5.5858,5.5858 c -0.3905,0.3905 -1.0237,0.3905 -1.4142,0 l -8.00001,-8 C 4.10536,11.1054 4,10.851 4,10.5858 Z" style="stroke:#000000;stroke-opacity:1;stroke-width:1.1;stroke-dasharray:none;stroke-linecap:round"/>
   <circle cx="7.5" cy="7.5" r="1.5" style="fill:currentColor;opacity:0.5" class="ColorScheme-Highlight" id="circle1"/>
   <path id="path2" d="m 4,11 5.4453,8.1679 c 0.30635,0.4596 0.9272,0.5838 1.3868,0.2774 L 11.5,19 M 4,10.5858 V 5 C 4,4.44772 4.44772,4 5,4 h 5.5858 c 0.2652,0 0.5196,0.10536 0.7071,0.29289 l 8,8.00001 c 0.3905,0.3905 0.3905,1.0237 0,1.4142 l -5.5858,5.5858 c -0.3905,0.3905 -1.0237,0.3905 -1.4142,0 l -8.00001,-8 C 4.10536,11.1054 4,10.851 4,10.5858 Z" style="stroke:currentColor;opacity:0.5;stroke-width:1.1;stroke-dasharray:none;stroke-linecap:round" class="ColorScheme-Highlight"/>
</svg>
