<svg width="24" height="24" viewBox="0 0 24 24" fill="none" xmlns="http://www.w3.org/2000/svg">
<g clip-path="url(#clip0_889_210)">
<path d="M6 10V7C6 5.89543 6.89543 5 8 5H16C17.1046 5 18 5.89543 18 7V10L17.1977 17.2209C17.0851 18.2337 16.229 19 15.2099 19H8.79009C7.77099 19 6.91486 18.2337 6.80232 17.2209L6 10Z" stroke="#111111" stroke-width="1.2"/>
<path d="M18 7C18 8.10457 17.1046 9 16 9L8 9C6.89543 9 6 8.10457 6 7V7C6 5.89543 6.89543 5 8 5L16 5C17.1046 5 18 5.89543 18 7V7Z" stroke="#111111" stroke-width="1.2"/>
<path d="M10 12V16" stroke="#111111" stroke-width="1.2" stroke-linecap="round"/>
<path d="M14 12V16" stroke="#111111" stroke-width="1.2" stroke-linecap="round"/>
</g>
<defs>
<clipPath id="clip0_889_210">
<rect width="24" height="24" fill="white"/>
</clipPath>
</defs>
</svg>
