<?xml version="1.0" encoding="UTF-8" standalone="no"?>
<svg xmlns:inkscape="http://www.inkscape.org/namespaces/inkscape" xmlns:sodipodi="http://sodipodi.sourceforge.net/DTD/sodipodi-0.dtd" xmlns="http://www.w3.org/2000/svg" xmlns:svg="http://www.w3.org/2000/svg" width="24" height="24" viewBox="0 0 24 24" fill="none" version="1.1" id="svg5" sodipodi:docname="view-hidden.svg" inkscape:version="1.4 (e7c3feb100, 2024-10-09)">
   <defs id="defs1">
      <style id="current-color-scheme" type="text/css">
         .ColorScheme-Text { color:#e6f0f5; }
         .ColorScheme-Highlight { color:#2179cb; }
         .ColorScheme-Background { color:#e4e4e4; }
      </style>
   </defs>
   <defs id="defs5"/>
   <sodipodi:namedview id="namedview5" pagecolor="#ffffff" bordercolor="#000000" borderopacity="0.25" inkscape:showpageshadow="2" inkscape:pageopacity="0.0" inkscape:pagecheckerboard="0" inkscape:deskcolor="#d1d1d1" inkscape:zoom="16.645833" inkscape:cx="8.2302879" inkscape:cy="19.434293" inkscape:window-width="1920" inkscape:window-height="1008" inkscape:window-x="0" inkscape:window-y="0" inkscape:window-maximized="1" inkscape:current-layer="svg5"/>
   <path id="path2" d="M 14,8.41604 C 13.3875,8.14845 12.7111,8 12,8 9.23858,8 7,10.2386 7,13 c 0,0.7111 0.14845,1.3875 0.41604,2 M 16.3576,10.5463 C 16.7666,11.2712 17,12.1083 17,13 c 0,2.7614 -2.2386,5 -5,5 -0.9107,0 -1.7646,-0.2435 -2.5,-0.6689 M 3,12 C 3.7590698,11.17535 5.3945173,9.8406143 7.5385296,8.9422376 8.860973,8.388112 10.376901,8 12,8 c 0.6881,0 0.455873,-0.020358 1.098873,0.1022374 M 21,12 C 20.3688,11.3143 19.1316,10.2758 17.5,9.4289" style="stroke:#000000;stroke-linecap:round;stroke-linejoin:round;stroke-opacity:1" sodipodi:nodetypes="cssccssccssccc"/>
   <path d="M13.2856 12.8455L10.6372 15.669C11.244 16.0191 12.6044 16.3014 13.7525 15.424C14.9006 14.5466 15.0009 13.5922 15.0009 12.7405C14.6548 12.8922 13.8271 13.1255 13.2856 12.8455Z" fill="#111111" id="path3"/>
   <path d="M5 19.5L19 5.5" stroke="#111111" stroke-width="1.2" stroke-linecap="round" id="path4"/>
   <path d="M12.0149 10.8153L9.07446 13.6155C8.8988 13.2072 8.95041 11.7721 9.80915 10.932C10.6679 10.092 11.6291 9.92861 12.2831 9.9986C12.1781 10.1386 12.0149 10.4886 12.0149 10.8153Z" fill="#111111" id="path5"/>
   <path id="path2" d="M 14,8.41604 C 13.3875,8.14845 12.7111,8 12,8 9.23858,8 7,10.2386 7,13 c 0,0.7111 0.14845,1.3875 0.41604,2 M 16.3576,10.5463 C 16.7666,11.2712 17,12.1083 17,13 c 0,2.7614 -2.2386,5 -5,5 -0.9107,0 -1.7646,-0.2435 -2.5,-0.6689 M 3,12 C 3.7590698,11.17535 5.3945173,9.8406143 7.5385296,8.9422376 8.860973,8.388112 10.376901,8 12,8 c 0.6881,0 0.455873,-0.020358 1.098873,0.1022374 M 21,12 C 20.3688,11.3143 19.1316,10.2758 17.5,9.4289" style="stroke:currentColor;stroke-linecap:round;stroke-linejoin:round;opacity:0.5" class="ColorScheme-Highlight" sodipodi:nodetypes="cssccssccssccc"/>
   <path d="M13.2856 12.8455L10.6372 15.669C11.244 16.0191 12.6044 16.3014 13.7525 15.424C14.9006 14.5466 15.0009 13.5922 15.0009 12.7405C14.6548 12.8922 13.8271 13.1255 13.2856 12.8455Z" style="fill:currentColor;opacity:0.5" class="ColorScheme-Highlight" id="path3"/>
   <path d="M5 19.5L19 5.5" style="stroke:currentColor;opacity:0.5" class="ColorScheme-Highlight" stroke-width="1.2" stroke-linecap="round" id="path4"/>
   <path d="M12.0149 10.8153L9.07446 13.6155C8.8988 13.2072 8.95041 11.7721 9.80915 10.932C10.6679 10.092 11.6291 9.92861 12.2831 9.9986C12.1781 10.1386 12.0149 10.4886 12.0149 10.8153Z" style="fill:currentColor;opacity:0.5" class="ColorScheme-Highlight" id="path5"/>
</svg>
