<svg width="128" height="128" viewBox="0 0 128 128" fill="none" xmlns="http://www.w3.org/2000/svg">
<g clip-path="url(#clip0_3163_290)">
<path d="M19 17C19 13.6863 21.6863 11 25 11L86.5147 11C88.106 11 89.6321 11.6321 90.7574 12.7574L107.243 29.2426C108.368 30.3679 109 31.894 109 33.4853V115C109 118.314 106.314 121 103 121H25C21.6863 121 19 118.314 19 115V17Z" fill="black" fill-opacity="0.15"/>
<path d="M19 15C19 11.6863 21.6863 9 25 9L86.5147 9C88.106 9 89.6321 9.63214 90.7574 10.7574L107.243 27.2426C108.368 28.3679 109 29.894 109 31.4853V113C109 116.314 106.314 119 103 119H25C21.6863 119 19 116.314 19 113V15Z" fill="url(#paint0_linear_3163_290)"/>
<path d="M86 9H86.576C88.2116 9 89.7762 9.6677 90.9079 10.8486L107.332 27.9867C108.402 29.1037 109 30.591 109 32.1381V33C108.361 31.6666 107.014 30.8182 105.535 30.8182H94.0909C90.7772 30.8182 88.0909 28.1319 88.0909 24.8182V12.4493C88.0909 10.9998 87.2851 9.67049 86 9Z" fill="black" fill-opacity="0.15"/>
<path d="M87 9H87.5147C89.106 9 90.6321 9.63214 91.7574 10.7574L107.243 26.2426C108.368 27.3679 109 28.894 109 30.4853V31C108.387 29.7743 107.134 29 105.764 29H95C91.6863 29 89 26.3137 89 23V12.2361C89 10.8657 88.2257 9.61287 87 9Z" fill="#FFD4A0"/>
<rect x="39" y="49.9075" width="35" height="5" rx="2.5" fill="url(#paint1_linear_3163_290)"/>
<rect x="66.9561" y="36.6709" width="28.8963" height="4.9406" rx="2.4703" transform="rotate(45 66.9561 36.6709)" fill="url(#paint2_linear_3163_290)"/>
<rect x="36" y="78.5796" width="29.1129" height="5.01034" rx="2.50517" transform="rotate(-45 36 78.5796)" fill="url(#paint3_linear_3163_290)"/>
<path d="M92 70.4075C92 81.7293 83.0457 90.9075 72 90.9075C60.9543 90.9075 52 81.7293 52 70.4075C52 59.0856 60.9543 49.9075 72 49.9075C83.0457 49.9075 92 59.0856 92 70.4075ZM57.2419 70.4075C57.2419 78.7619 63.8493 85.5346 72 85.5346C80.1507 85.5346 86.7581 78.7619 86.7581 70.4075C86.7581 62.053 80.1507 55.2804 72 55.2804C63.8493 55.2804 57.2419 62.053 57.2419 70.4075Z" fill="url(#paint4_linear_3163_290)"/>
<ellipse cx="72" cy="70.4075" rx="9" ry="8.5" fill="url(#paint5_linear_3163_290)"/>
</g>
<defs>
<linearGradient id="paint0_linear_3163_290" x1="64" y1="9" x2="64" y2="119" gradientUnits="userSpaceOnUse">
<stop stop-color="#FFBE71"/>
<stop offset="1" stop-color="#FFA943"/>
</linearGradient>
<linearGradient id="paint1_linear_3163_290" x1="56.5" y1="49.9075" x2="56.5" y2="54.9075" gradientUnits="userSpaceOnUse">
<stop stop-color="#BB8444"/>
<stop offset="1" stop-color="#976020"/>
</linearGradient>
<linearGradient id="paint2_linear_3163_290" x1="81.4042" y1="36.6709" x2="81.4042" y2="41.6115" gradientUnits="userSpaceOnUse">
<stop stop-color="#BB8444"/>
<stop offset="1" stop-color="#976020"/>
</linearGradient>
<linearGradient id="paint3_linear_3163_290" x1="50.5565" y1="78.5796" x2="50.5565" y2="83.5899" gradientUnits="userSpaceOnUse">
<stop stop-color="#BB8444"/>
<stop offset="1" stop-color="#976020"/>
</linearGradient>
<linearGradient id="paint4_linear_3163_290" x1="72" y1="49.9075" x2="72" y2="90.9075" gradientUnits="userSpaceOnUse">
<stop stop-color="#BB8444"/>
<stop offset="1" stop-color="#976020"/>
</linearGradient>
<linearGradient id="paint5_linear_3163_290" x1="72" y1="61.9075" x2="72" y2="78.9075" gradientUnits="userSpaceOnUse">
<stop stop-color="#BB8444"/>
<stop offset="1" stop-color="#976020"/>
</linearGradient>
<clipPath id="clip0_3163_290">
<rect width="128" height="128" fill="white"/>
</clipPath>
</defs>
</svg>
