<svg width="128" height="128" viewBox="0 0 128 128" fill="none" xmlns="http://www.w3.org/2000/svg">
<g clip-path="url(#clip0_3209_305)">
<path d="M19 17C19 13.6863 21.6863 11 25 11L86.5147 11C88.106 11 89.6321 11.6321 90.7574 12.7574L107.243 29.2426C108.368 30.3679 109 31.894 109 33.4853V115C109 118.314 106.314 121 103 121H25C21.6863 121 19 118.314 19 115V17Z" fill="black" fill-opacity="0.15"/>
<path d="M19 15C19 11.6863 21.6863 9 25 9L86.5147 9C88.106 9 89.6321 9.63214 90.7574 10.7574L107.243 27.2426C108.368 28.3679 109 29.894 109 31.4853V113C109 116.314 106.314 119 103 119H25C21.6863 119 19 116.314 19 113V15Z" fill="url(#paint0_linear_3209_305)"/>
<path d="M86 9H86.576C88.2116 9 89.7762 9.6677 90.9079 10.8486L107.332 27.9867C108.402 29.1037 109 30.591 109 32.1381V33C108.361 31.6666 107.014 30.8182 105.535 30.8182H94.0909C90.7772 30.8182 88.0909 28.1319 88.0909 24.8182V12.4493C88.0909 10.9998 87.2851 9.67049 86 9Z" fill="black" fill-opacity="0.15"/>
<path d="M87 9H87.5147C89.106 9 90.6321 9.63214 91.7574 10.7574L107.243 26.2426C108.368 27.3679 109 28.894 109 30.4853V31C108.387 29.7743 107.134 29 105.764 29H95C91.6863 29 89 26.3137 89 23V12.2361C89 10.8657 88.2257 9.61287 87 9Z" fill="#1B71D7"/>
<path fill-rule="evenodd" clip-rule="evenodd" d="M59 9C57.8954 9 57 9.89543 57 11V13C57 14.1046 57.8954 15 59 15H62C63.1046 15 64 14.1046 64 13V11C64 9.89543 63.1046 9 62 9H59ZM59 21C57.8954 21 57 21.8954 57 23V25C57 26.1046 57.8954 27 59 27H62C63.1046 27 64 26.1046 64 25V23C64 21.8954 63.1046 21 62 21H59ZM64 29C64 27.8954 64.8954 27 66 27H69C70.1046 27 71 27.8954 71 29V31C71 32.1046 70.1046 33 69 33H66C64.8954 33 64 32.1046 64 31V29ZM66 15C64.8954 15 64 15.8954 64 17V19C64 20.1046 64.8954 21 66 21H69C70.1046 21 71 20.1046 71 19V17C71 15.8954 70.1046 15 69 15H66ZM57 35C57 33.8954 57.8954 33 59 33H62C63.1046 33 64 33.8954 64 35V37C64 38.1046 63.1046 39 62 39H59C57.8954 39 57 38.1046 57 37V35ZM66 39C64.8954 39 64 39.8954 64 41V43C64 44.1046 64.8954 45 66 45H69C70.1046 45 71 44.1046 71 43V41C71 39.8954 70.1046 39 69 39H66ZM64 53C64 51.8954 64.8954 51 66 51H69C70.1046 51 71 51.8954 71 53V60C71 61.1046 70.1046 62 69 62H66C64.8954 62 64 61.1046 64 60V53ZM59 45C57.8954 45 57 45.8954 57 47V49C57 50.1046 57.8954 51 59 51H62C63.1046 51 64 50.1046 64 49V47C64 45.8954 63.1046 45 62 45H59Z" fill="url(#paint1_linear_3209_305)"/>
</g>
<defs>
<linearGradient id="paint0_linear_3209_305" x1="58.7059" y1="14.2537" x2="69.0492" y2="113.271" gradientUnits="userSpaceOnUse">
<stop stop-color="#3397F5"/>
<stop offset="1" stop-color="#126CD7"/>
</linearGradient>
<linearGradient id="paint1_linear_3209_305" x1="64" y1="10.4324" x2="64" y2="62" gradientUnits="userSpaceOnUse">
<stop stop-color="#EFF3F5"/>
<stop offset="1" stop-color="#B4D8F1"/>
</linearGradient>
<clipPath id="clip0_3209_305">
<rect width="128" height="128" fill="white"/>
</clipPath>
</defs>
</svg>
