<svg width="128" height="128" viewBox="0 0 128 128" fill="none" xmlns="http://www.w3.org/2000/svg">
<g clip-path="url(#clip0_3163_270)">
<path d="M19 17C19 13.6863 21.6863 11 25 11L86.5147 11C88.106 11 89.6321 11.6321 90.7574 12.7574L107.243 29.2426C108.368 30.3679 109 31.894 109 33.4853V115C109 118.314 106.314 121 103 121H25C21.6863 121 19 118.314 19 115V17Z" fill="black" fill-opacity="0.15"/>
<path d="M19 13C19 10.7909 20.7909 9 23 9L87.3431 9C88.404 9 89.4214 9.42143 90.1716 10.1716L107.828 27.8284C108.579 28.5786 109 29.596 109 30.6569V115C109 117.209 107.209 119 105 119H23C20.7909 119 19 117.209 19 115V13Z" fill="url(#paint0_linear_3163_270)"/>
<path d="M86 9H86.576C88.2116 9 89.7762 9.6677 90.9079 10.8486L107.332 27.9867C108.402 29.1037 109 30.591 109 32.1381V33C108.361 31.6666 107.014 30.8182 105.535 30.8182H94.0909C90.7772 30.8182 88.0909 28.1319 88.0909 24.8182V12.4493C88.0909 10.9998 87.2851 9.67049 86 9Z" fill="black" fill-opacity="0.15"/>
<path d="M87 9H87.5147C89.106 9 90.6321 9.63214 91.7574 10.7574L107.243 26.2426C108.368 27.3679 109 28.894 109 30.4853V31C108.387 29.7743 107.134 29 105.764 29H95C91.6863 29 89 26.3137 89 23V12.2361C89 10.8657 88.2257 9.61287 87 9Z" fill="#CF74E0"/>
<path d="M64 38C57.1044 38 50.4912 40.7393 45.6152 45.6152C40.7393 50.4912 38 57.1044 38 64C38 70.8956 40.7393 77.5088 45.6152 82.3848C50.4912 87.2607 57.1044 90 64 90V86.9984C57.9004 86.9984 52.0507 84.5753 47.7377 80.2623C43.4247 75.9493 41.0016 70.0995 41.0016 64C41.0016 57.9004 43.4247 52.0507 47.7377 47.7377C52.0507 43.4247 57.9005 41.0016 64 41.0016V38Z" fill="#EAC8F1"/>
<path d="M70.3451 46.0908C67.7353 45.1662 64.9549 44.8231 62.1987 45.0856C59.4424 45.3481 56.7768 46.2098 54.3884 47.6104C52.0001 49.0111 49.9467 50.9168 48.372 53.1941C46.7974 55.4715 45.7395 58.0655 45.2723 60.7945C44.8052 63.5236 44.9402 66.3218 45.6678 68.9932C46.3955 71.6646 47.6982 74.1447 49.4847 76.26C51.2713 78.3752 53.4985 80.0744 56.0106 81.2386C58.5227 82.4029 61.2589 83.004 64.0276 83L64.0232 79.9971C61.6921 80.0005 59.3883 79.4944 57.2733 78.5141C55.1582 77.5339 53.283 76.1033 51.7788 74.3223C50.2746 72.5414 49.1778 70.4533 48.5651 68.204C47.9525 65.9548 47.8389 63.5989 48.2321 61.3011C48.6254 59.0034 49.5162 56.8194 50.842 54.9019C52.1678 52.9845 53.8966 51.38 55.9075 50.2007C57.9184 49.0214 60.1627 48.2959 62.4833 48.0749C64.804 47.8539 67.1449 48.1427 69.3423 48.9212L70.3451 46.0908Z" fill="#EAC8F1"/>
<path d="M72.4853 55.5147C71.0899 54.1193 69.3719 53.0896 67.4834 52.5167C65.595 51.9439 63.5944 51.8456 61.6589 52.2306C59.7234 52.6156 57.9127 53.472 56.3873 54.7239C54.8618 55.9758 53.6686 57.5846 52.9134 59.4078C52.1583 61.231 51.8644 63.2123 52.0578 65.1762C52.2512 67.1401 52.926 69.026 54.0224 70.6668C55.1187 72.3077 56.6028 73.6528 58.3432 74.5831C60.0836 75.5133 62.0266 76 64 76V73.0048C62.5191 73.0048 61.0612 72.6396 59.7552 71.9415C58.4492 71.2435 57.3355 70.2341 56.5128 69.0028C55.69 67.7715 55.1837 66.3563 55.0385 64.8826C54.8934 63.4089 55.1139 61.9221 55.6806 60.554C56.2473 59.1859 57.1427 57.9786 58.2874 57.0392C59.4321 56.0997 60.7908 55.4571 62.2432 55.1682C63.6956 54.8793 65.1969 54.9531 66.614 55.3829C68.031 55.8128 69.3202 56.5855 70.3674 57.6326L72.4853 55.5147Z" fill="#EAC8F1"/>
<rect x="64" y="73" width="20" height="3" fill="#EAC8F1"/>
<rect x="64" y="80" width="21" height="3" fill="#EAC8F1"/>
<rect x="64" y="87" width="22" height="3" fill="#EAC8F1"/>
</g>
<defs>
<linearGradient id="paint0_linear_3163_270" x1="49" y1="9" x2="119.108" y2="81.8396" gradientUnits="userSpaceOnUse">
<stop stop-color="#BF3DED"/>
<stop offset="1" stop-color="#8F15BA"/>
</linearGradient>
<clipPath id="clip0_3163_270">
<rect width="128" height="128" fill="white"/>
</clipPath>
</defs>
</svg>
