<svg width="128" height="128" viewBox="0 0 128 128" fill="none" xmlns="http://www.w3.org/2000/svg">
<g clip-path="url(#clip0_3145_353)">
<path d="M19 17C19 13.6863 21.6863 11 25 11L86.5147 11C88.106 11 89.6321 11.6321 90.7574 12.7574L107.243 29.2426C108.368 30.3679 109 31.894 109 33.4853V115C109 118.314 106.314 121 103 121H25C21.6863 121 19 118.314 19 115V17Z" fill="black" fill-opacity="0.15"/>
<path d="M19 15C19 11.6863 21.6863 9 25 9L86.5147 9C88.106 9 89.6321 9.63214 90.7574 10.7574L107.243 27.2426C108.368 28.3679 109 29.894 109 31.4853V113C109 116.314 106.314 119 103 119H25C21.6863 119 19 116.314 19 113V15Z" fill="url(#paint0_linear_3145_353)"/>
<path d="M86 9H86.576C88.2116 9 89.7762 9.6677 90.9079 10.8486L107.332 27.9867C108.402 29.1037 109 30.591 109 32.1381V33C108.361 31.6666 107.014 30.8182 105.535 30.8182H94.0909C90.7772 30.8182 88.0909 28.1319 88.0909 24.8182V12.4493C88.0909 10.9998 87.2851 9.67049 86 9Z" fill="black" fill-opacity="0.15"/>
<path d="M87 9H87.5147C89.106 9 90.6321 9.63214 91.7574 10.7574L107.243 26.2426C108.368 27.3679 109 28.894 109 30.4853V31C108.387 29.7743 107.134 29 105.764 29H95C91.6863 29 89 26.3137 89 23V12.2361C89 10.8657 88.2257 9.61287 87 9Z" fill="#247FEA"/>
<circle cx="64" cy="77" r="11" stroke="url(#paint1_linear_3145_353)" stroke-width="4"/>
<rect x="75" y="74" width="8" height="4" rx="2" fill="#D3E6F3"/>
<rect x="45" y="74" width="8" height="4" rx="2" fill="#D3E6F3"/>
<rect x="73.1006" y="83.0603" width="8" height="4" rx="2" transform="rotate(45 73.1006 83.0603)" fill="#BCDCF2"/>
<rect x="51.8286" y="61" width="8" height="4" rx="2" transform="rotate(45 51.8286 61)" fill="#E5EFF5"/>
<rect x="66" y="88" width="8" height="4" rx="2" transform="rotate(90 66 88)" fill="#B7D9F1"/>
<rect x="66" y="58" width="8" height="4" rx="2" transform="rotate(90 66 58)" fill="#EFF3F5"/>
<rect x="70.0601" y="66.8982" width="8" height="4" rx="2" transform="rotate(-45 70.0601 66.8982)" fill="#E5EFF5"/>
<rect x="48.8394" y="89.1218" width="8" height="4" rx="2" transform="rotate(-45 48.8394 89.1218)" fill="#BCDCF2"/>
<path d="M62.3852 49.7905L57.8352 43.5644C57.0726 42.5209 57.8179 41.0532 59.1103 41.0532C59.9826 41.0532 60.6903 40.3441 60.6821 39.4719C60.6101 31.7457 60.1266 32.1001 64 32.0142C67.9139 31.9273 67.6365 32.004 67.591 39.5638C67.586 40.3847 68.2517 41.0532 69.0726 41.0532C70.2891 41.0532 70.9905 42.4346 70.2727 43.4167L65.6148 49.7905C64.8158 50.8837 63.1842 50.8837 62.3852 49.7905Z" fill="url(#paint2_linear_3145_353)"/>
</g>
<defs>
<linearGradient id="paint0_linear_3145_353" x1="64" y1="9" x2="64" y2="119" gradientUnits="userSpaceOnUse">
<stop stop-color="#64B4F4"/>
<stop offset="1" stop-color="#4989D5"/>
</linearGradient>
<linearGradient id="paint1_linear_3145_353" x1="64" y1="66" x2="64" y2="88" gradientUnits="userSpaceOnUse">
<stop stop-color="#EFF3F5"/>
<stop offset="1" stop-color="#B4D8F1"/>
</linearGradient>
<linearGradient id="paint2_linear_3145_353" x1="64.2162" y1="32.173" x2="64.2162" y2="51.827" gradientUnits="userSpaceOnUse">
<stop stop-color="#EFF3F5"/>
<stop offset="1" stop-color="#DBE4E8"/>
</linearGradient>
<clipPath id="clip0_3145_353">
<rect width="128" height="128" fill="white"/>
</clipPath>
</defs>
</svg>
