<svg width="128" height="128" viewBox="0 0 128 128" fill="none" xmlns="http://www.w3.org/2000/svg">
<g clip-path="url(#clip0_3140_283)">
<path d="M19 17C19 13.6863 21.6863 11 25 11L86.5147 11C88.106 11 89.6321 11.6321 90.7574 12.7574L107.243 29.2426C108.368 30.3679 109 31.894 109 33.4853V115C109 118.314 106.314 121 103 121H25C21.6863 121 19 118.314 19 115V17Z" fill="black" fill-opacity="0.15"/>
<path d="M19 15C19 11.6863 21.6863 9 25 9L86.5147 9C88.106 9 89.6321 9.63214 90.7574 10.7574L107.243 27.2426C108.368 28.3679 109 29.894 109 31.4853V113C109 116.314 106.314 119 103 119H25C21.6863 119 19 116.314 19 113V15Z" fill="url(#paint0_linear_3140_283)"/>
<path d="M86 9H86.576C88.2116 9 89.7762 9.6677 90.9079 10.8486L107.332 27.9867C108.402 29.1037 109 30.591 109 32.1381V33C108.361 31.6666 107.014 30.8182 105.535 30.8182H94.0909C90.7772 30.8182 88.0909 28.1319 88.0909 24.8182V12.4493C88.0909 10.9998 87.2851 9.67049 86 9Z" fill="black" fill-opacity="0.15"/>
<path d="M87 9H87.5147C89.106 9 90.6321 9.63214 91.7574 10.7574L107.243 26.2426C108.368 27.3679 109 28.894 109 30.4853V31C108.387 29.7743 107.134 29 105.764 29H95C91.6863 29 89 26.3137 89 23V12.2361C89 10.8657 88.2257 9.61287 87 9Z" fill="#CB7007"/>
<path d="M63.36 74.96H53.4L51.92 79H46.32L58.12 50.64H58.52L70.36 79H64.92L63.36 74.96ZM61.88 71.08L58.96 63.48L58.28 61.24L57.64 63.48L54.84 71.08H61.88ZM72.4953 50.52H78.0953V55.84H72.4953V50.52ZM72.6953 59.08H77.8953V79H72.6953V59.08Z" fill="url(#paint1_linear_3140_283)"/>
</g>
<defs>
<linearGradient id="paint0_linear_3140_283" x1="64" y1="9" x2="64" y2="119" gradientUnits="userSpaceOnUse">
<stop stop-color="#774000"/>
<stop offset="1" stop-color="#2D1800"/>
</linearGradient>
<linearGradient id="paint1_linear_3140_283" x1="64" y1="39" x2="64" y2="90" gradientUnits="userSpaceOnUse">
<stop stop-color="#FFBE71"/>
<stop offset="1" stop-color="#FFA943"/>
</linearGradient>
<clipPath id="clip0_3140_283">
<rect width="128" height="128" fill="white"/>
</clipPath>
</defs>
</svg>
