<svg width="128" height="128" viewBox="0 0 128 128" fill="none" xmlns="http://www.w3.org/2000/svg">
<g clip-path="url(#clip0_3197_281)">
<path d="M19 17C19 13.6863 21.6863 11 25 11L86.5147 11C88.106 11 89.6321 11.6321 90.7574 12.7574L107.243 29.2426C108.368 30.3679 109 31.894 109 33.4853V115C109 118.314 106.314 121 103 121H25C21.6863 121 19 118.314 19 115V17Z" fill="black" fill-opacity="0.15"/>
<path d="M19 15C19 11.6863 21.6863 9 25 9L86.5147 9C88.106 9 89.6321 9.63214 90.7574 10.7574L107.243 27.2426C108.368 28.3679 109 29.894 109 31.4853V113C109 116.314 106.314 119 103 119H25C21.6863 119 19 116.314 19 113V15Z" fill="url(#paint0_linear_3197_281)"/>
<path d="M86 9H86.576C88.2116 9 89.7762 9.6677 90.9079 10.8486L107.332 27.9867C108.402 29.1037 109 30.591 109 32.1381V33C108.361 31.6666 107.014 30.8182 105.535 30.8182H94.0909C90.7772 30.8182 88.0909 28.1319 88.0909 24.8182V12.4493C88.0909 10.9998 87.2851 9.67049 86 9Z" fill="black" fill-opacity="0.15"/>
<path d="M87 9H87.5147C89.106 9 90.6321 9.63214 91.7574 10.7574L107.243 26.2426C108.368 27.3679 109 28.894 109 30.4853V31C108.387 29.7743 107.134 29 105.764 29H95C91.6863 29 89 26.3137 89 23V12.2361C89 10.8657 88.2257 9.61287 87 9Z" fill="#8395A6"/>
<rect x="40" y="45" width="48" height="38" rx="3" stroke="url(#paint1_linear_3197_281)" stroke-width="2"/>
<rect x="53" y="55" width="10" height="10" fill="url(#paint2_linear_3197_281)"/>
<rect x="53" y="67" width="10" height="10" fill="url(#paint3_linear_3197_281)"/>
<rect x="65" y="55" width="10" height="10" fill="url(#paint4_linear_3197_281)"/>
<rect x="65" y="67" width="10" height="10" fill="url(#paint5_linear_3197_281)"/>
<rect x="83" y="48" width="2" height="2" fill="#DBE4E8"/>
<rect x="79" y="48" width="2" height="2" fill="#DBE4E8"/>
<rect x="75" y="48" width="2" height="2" fill="#DBE4E8"/>
</g>
<defs>
<linearGradient id="paint0_linear_3197_281" x1="51.6428" y1="20.3077" x2="91.4919" y2="90.2559" gradientUnits="userSpaceOnUse">
<stop stop-color="#677B8D"/>
<stop offset="1" stop-color="#39464D"/>
</linearGradient>
<linearGradient id="paint1_linear_3197_281" x1="64" y1="44" x2="64" y2="84" gradientUnits="userSpaceOnUse">
<stop stop-color="#DBE4E8"/>
<stop offset="1" stop-color="#B9C3C7"/>
</linearGradient>
<linearGradient id="paint2_linear_3197_281" x1="58" y1="55" x2="58" y2="65" gradientUnits="userSpaceOnUse">
<stop stop-color="#DBE4E8"/>
<stop offset="1" stop-color="#B9C3C7"/>
</linearGradient>
<linearGradient id="paint3_linear_3197_281" x1="58" y1="67" x2="58" y2="77" gradientUnits="userSpaceOnUse">
<stop stop-color="#DBE4E8"/>
<stop offset="1" stop-color="#B9C3C7"/>
</linearGradient>
<linearGradient id="paint4_linear_3197_281" x1="70" y1="55" x2="70" y2="65" gradientUnits="userSpaceOnUse">
<stop stop-color="#DBE4E8"/>
<stop offset="1" stop-color="#B9C3C7"/>
</linearGradient>
<linearGradient id="paint5_linear_3197_281" x1="70" y1="67" x2="70" y2="77" gradientUnits="userSpaceOnUse">
<stop stop-color="#DBE4E8"/>
<stop offset="1" stop-color="#B9C3C7"/>
</linearGradient>
<clipPath id="clip0_3197_281">
<rect width="128" height="128" fill="white"/>
</clipPath>
</defs>
</svg>
