<svg width="128" height="128" viewBox="0 0 128 128" fill="none" xmlns="http://www.w3.org/2000/svg">
<g clip-path="url(#clip0_3201_371)">
<path d="M19 17C19 13.6863 21.6863 11 25 11L86.5147 11C88.106 11 89.6321 11.6321 90.7574 12.7574L107.243 29.2426C108.368 30.3679 109 31.894 109 33.4853V115C109 118.314 106.314 121 103 121H25C21.6863 121 19 118.314 19 115V17Z" fill="black" fill-opacity="0.15"/>
<path d="M19 15C19 11.6863 21.6863 9 25 9L86.5147 9C88.106 9 89.6321 9.63214 90.7574 10.7574L107.243 27.2426C108.368 28.3679 109 29.894 109 31.4853V113C109 116.314 106.314 119 103 119H25C21.6863 119 19 116.314 19 113V15Z" fill="url(#paint0_linear_3201_371)"/>
<path d="M86 9H86.576C88.2116 9 89.7762 9.6677 90.9079 10.8486L107.332 27.9867C108.402 29.1037 109 30.591 109 32.1381V33C108.361 31.6666 107.014 30.8182 105.535 30.8182H94.0909C90.7772 30.8182 88.0909 28.1319 88.0909 24.8182V12.4493C88.0909 10.9998 87.2851 9.67049 86 9Z" fill="black" fill-opacity="0.15"/>
<path d="M87 9H87.5147C89.106 9 90.6321 9.63214 91.7574 10.7574L107.243 26.2426C108.368 27.3679 109 28.894 109 30.4853V31C108.387 29.7743 107.134 29 105.764 29H95C91.6863 29 89 26.3137 89 23V12.2361C89 10.8657 88.2257 9.61287 87 9Z" fill="#DB3333"/>
<path d="M91.2128 86.0232C91.731 86.2141 92.3076 85.9492 92.4811 85.4249C93.896 81.1491 94.3314 76.6053 93.7494 72.1306C93.1244 67.3251 91.3445 62.7426 88.5622 58.775C85.7798 54.8074 82.0776 51.5729 77.7725 49.3482C73.4674 47.1235 68.6874 45.9748 63.8415 46.0004C58.9956 46.026 54.228 47.2252 49.9466 49.4952C45.6652 51.7653 41.9975 55.0388 39.2572 59.0355C36.5169 63.0323 34.7856 67.6334 34.2113 72.4453C33.6767 76.9258 34.1601 81.4648 35.6201 85.7253C35.7991 86.2478 36.3785 86.5066 36.8947 86.3102L37.8293 85.9547C38.3455 85.7584 38.603 85.1812 38.4259 84.6581C37.137 80.8511 36.713 76.8 37.1902 72.8007C37.707 68.4701 39.2652 64.3291 41.7315 60.732C44.1977 57.1349 47.4987 54.1888 51.3519 52.1457C55.2052 50.1026 59.496 49.0234 63.8573 49.0004C68.2186 48.9773 72.5206 50.0111 76.3952 52.0134C80.2699 54.0156 83.6018 56.9267 86.1059 60.4975C88.6101 64.0683 90.212 68.1926 90.7745 72.5176C91.294 76.5116 90.9128 80.5669 89.6642 84.3874C89.4927 84.9123 89.7562 85.4867 90.2744 85.6776L91.2128 86.0232Z" fill="url(#paint1_linear_3201_371)"/>
<path d="M85.5825 83.9495C86.1008 84.1403 86.6778 83.8754 86.8469 83.3497C88.5143 78.167 88.3726 72.5599 86.4269 67.4539C84.4812 62.348 80.8555 58.0685 76.1619 55.3097C75.6858 55.0299 75.0788 55.2161 74.8191 55.7035L73.0988 58.9307C72.839 59.4181 73.0252 60.0215 73.4977 60.3074C76.9867 62.419 79.6816 65.6397 81.1406 69.4683C82.5996 73.297 82.7314 77.4944 81.5324 81.3924C81.37 81.9203 81.6326 82.4946 82.1509 82.6855L85.5825 83.9495Z" fill="url(#paint2_linear_3201_371)"/>
<path d="M82.0833 64.2845L59.9998 81.799L64.2425 86.0416L82.0833 64.2845Z" fill="url(#paint3_linear_3201_371)"/>
<circle cx="64" cy="82" r="6" fill="url(#paint4_linear_3201_371)"/>
</g>
<defs>
<linearGradient id="paint0_linear_3201_371" x1="64" y1="9" x2="64" y2="119" gradientUnits="userSpaceOnUse">
<stop stop-color="#FF7373"/>
<stop offset="1" stop-color="#FF3E3E"/>
</linearGradient>
<linearGradient id="paint1_linear_3201_371" x1="64" y1="46" x2="64" y2="106" gradientUnits="userSpaceOnUse">
<stop stop-color="#FFEEEE"/>
<stop offset="1" stop-color="#FBD2BF"/>
</linearGradient>
<linearGradient id="paint2_linear_3201_371" x1="64" y1="52" x2="64" y2="100" gradientUnits="userSpaceOnUse">
<stop stop-color="#FFEEEE"/>
<stop offset="1" stop-color="#FBD2BF"/>
</linearGradient>
<linearGradient id="paint3_linear_3201_371" x1="81.9201" y1="64.1213" x2="62.1212" y2="83.9203" gradientUnits="userSpaceOnUse">
<stop stop-color="#FFEEEE"/>
<stop offset="1" stop-color="#FBD2BF"/>
</linearGradient>
<linearGradient id="paint4_linear_3201_371" x1="64" y1="76" x2="64" y2="88" gradientUnits="userSpaceOnUse">
<stop stop-color="#FFEEEE"/>
<stop offset="1" stop-color="#FBD2BF"/>
</linearGradient>
<clipPath id="clip0_3201_371">
<rect width="128" height="128" fill="white"/>
</clipPath>
</defs>
</svg>
