<svg width="128" height="128" viewBox="0 0 128 128" fill="none" xmlns="http://www.w3.org/2000/svg">
<g clip-path="url(#clip0_3209_289)">
<path d="M19 17C19 13.6863 21.6863 11 25 11L86.5147 11C88.106 11 89.6321 11.6321 90.7574 12.7574L107.243 29.2426C108.368 30.3679 109 31.894 109 33.4853V115C109 118.314 106.314 121 103 121H25C21.6863 121 19 118.314 19 115V17Z" fill="black" fill-opacity="0.15"/>
<path d="M19 15C19 11.6863 21.6863 9 25 9L86.5147 9C88.106 9 89.6321 9.63214 90.7574 10.7574L107.243 27.2426C108.368 28.3679 109 29.894 109 31.4853V113C109 116.314 106.314 119 103 119H25C21.6863 119 19 116.314 19 113V15Z" fill="url(#paint0_linear_3209_289)"/>
<path d="M86 9H86.576C88.2116 9 89.7762 9.6677 90.9079 10.8486L107.332 27.9867C108.402 29.1037 109 30.591 109 32.1381V33C108.361 31.6666 107.014 30.8182 105.535 30.8182H94.0909C90.7772 30.8182 88.0909 28.1319 88.0909 24.8182V12.4493C88.0909 10.9998 87.2851 9.67049 86 9Z" fill="black" fill-opacity="0.15"/>
<path d="M87 9H87.5147C89.106 9 90.6321 9.63214 91.7574 10.7574L107.243 26.2426C108.368 27.3679 109 28.894 109 30.4853V31C108.387 29.7743 107.134 29 105.764 29H95C91.6863 29 89 26.3137 89 23V12.2361C89 10.8657 88.2257 9.61287 87 9Z" fill="#8395A6"/>
<rect x="40" y="45" width="48" height="38" rx="3" stroke="url(#paint1_linear_3209_289)" stroke-width="2"/>
<rect x="83" y="48" width="2" height="2" fill="#DBE4E8"/>
<rect x="79" y="48" width="2" height="2" fill="#DBE4E8"/>
<rect x="75" y="48" width="2" height="2" fill="#DBE4E8"/>
<path fill-rule="evenodd" clip-rule="evenodd" d="M61.0036 57.7972C60.2806 58.3647 59.8 59.1909 59.8 60.3736H57C57 58.2596 57.9194 56.6133 59.2964 55.5325C60.635 54.4818 62.3516 54 64 54C65.6484 54 67.365 54.4818 68.7036 55.5325C70.0806 56.6133 71 58.2596 71 60.3736C71 62.2343 70.6023 63.6593 69.9003 64.766C69.2019 65.8668 68.2841 66.5219 67.4819 66.9784C67.1578 67.1629 66.8294 67.3271 66.5528 67.4654C66.4968 67.4934 66.4429 67.5204 66.3915 67.5462C66.0627 67.7118 65.833 67.8354 65.6567 67.9564C65.4862 68.0735 65.4337 68.1437 65.42 68.1657C65.4172 68.1692 65.4 68.1914 65.4 68.2857H62.6C62.6 67.6712 62.7561 67.1128 63.0613 66.626C63.3538 66.1595 63.7388 65.8296 64.0933 65.5862C64.442 65.3466 64.8248 65.1491 65.1522 64.9842C65.2167 64.9517 65.2797 64.9202 65.3413 64.8893C65.6157 64.752 65.8648 64.6272 66.1181 64.4831C66.7159 64.1429 67.1981 63.7678 67.5497 63.2134C67.8977 62.6649 68.2 61.8096 68.2 60.3736C68.2 59.1909 67.7194 58.3647 66.9964 57.7972C66.235 57.1995 65.1516 56.8571 64 56.8571C62.8484 56.8571 61.765 57.1995 61.0036 57.7972Z" fill="#CDD6DA"/>
<circle cx="64" cy="74" r="2" fill="#C1CBCF"/>
</g>
<defs>
<linearGradient id="paint0_linear_3209_289" x1="51.6428" y1="20.3077" x2="91.4919" y2="90.2559" gradientUnits="userSpaceOnUse">
<stop stop-color="#677B8D"/>
<stop offset="1" stop-color="#39464D"/>
</linearGradient>
<linearGradient id="paint1_linear_3209_289" x1="64" y1="44" x2="64" y2="84" gradientUnits="userSpaceOnUse">
<stop stop-color="#DBE4E8"/>
<stop offset="1" stop-color="#B9C3C7"/>
</linearGradient>
<clipPath id="clip0_3209_289">
<rect width="128" height="128" fill="white"/>
</clipPath>
</defs>
</svg>
