<svg width="128" height="128" viewBox="0 0 128 128" fill="none" xmlns="http://www.w3.org/2000/svg">
<g clip-path="url(#clip0_3202_388)">
<path d="M19 17C19 13.6863 21.6863 11 25 11L86.5147 11C88.106 11 89.6321 11.6321 90.7574 12.7574L107.243 29.2426C108.368 30.3679 109 31.894 109 33.4853V115C109 118.314 106.314 121 103 121H25C21.6863 121 19 118.314 19 115V17Z" fill="black" fill-opacity="0.15"/>
<path d="M19 15C19 11.6863 21.6863 9 25 9L86.5147 9C88.106 9 89.6321 9.63214 90.7574 10.7574L107.243 27.2426C108.368 28.3679 109 29.894 109 31.4853V113C109 116.314 106.314 119 103 119H25C21.6863 119 19 116.314 19 113V15Z" fill="url(#paint0_linear_3202_388)"/>
<path d="M86 9H86.576C88.2116 9 89.7762 9.6677 90.9079 10.8486L107.332 27.9867C108.402 29.1037 109 30.591 109 32.1381V33C108.361 31.6666 107.014 30.8182 105.535 30.8182H94.0909C90.7772 30.8182 88.0909 28.1319 88.0909 24.8182V12.4493C88.0909 10.9998 87.2851 9.67049 86 9Z" fill="black" fill-opacity="0.15"/>
<path d="M87 9H87.5147C89.106 9 90.6321 9.63214 91.7574 10.7574L107.243 26.2426C108.368 27.3679 109 28.894 109 30.4853V31C108.387 29.7743 107.134 29 105.764 29H95C91.6863 29 89 26.3137 89 23V12.2361C89 10.8657 88.2257 9.61287 87 9Z" fill="#DB3333"/>
<path d="M62.9569 62.0825C56.0988 69.0097 48.0381 72.0991 44.9528 68.9828C41.8676 65.8664 44.9261 57.7245 51.7843 50.7973C57.7383 44.7833 64.5987 41.662 68.3229 42.9827C68.8884 43.1833 69.3816 43.4863 69.7883 43.8971C69.8745 43.9842 69.956 44.0752 70.0327 44.17C72.6996 47.4676 69.6233 55.3489 62.9569 62.0825Z" fill="url(#paint1_linear_3202_388)"/>
<path d="M68.7731 57.2947L73.2718 74.4736L56.813 68.5995L68.7731 57.2947Z" fill="url(#paint2_linear_3202_388)"/>
<path d="M83.586 83.8942L63.3965 82.1209C64.2743 81.6037 66.5786 80.1481 68.7731 78.4635C70.9676 76.7788 72.7598 75.1755 73.3815 74.5844L83.586 83.8942Z" fill="url(#paint3_linear_3202_388)"/>
<path d="M80.9526 65.0529L83.6958 83.7834L85.1222 56.0756C84.8296 57.1469 84.0908 59.6 83.4763 60.8413C82.8618 62.0826 81.5378 64.1662 80.9526 65.0529Z" fill="url(#paint4_linear_3202_388)"/>
<path d="M80.9526 64.9421L68.9925 57.073L85.0125 56.1864C84.8296 56.8883 84.2883 58.6912 83.586 60.2872C82.8838 61.8831 81.5378 64.0554 80.9526 64.9421Z" fill="url(#paint5_linear_3202_388)"/>
<path d="M72.2843 45.7683L85.0125 55.9647C85.3416 55.0781 86 52.9058 86 51.3098C86 49.7139 85.8537 48.2804 85.7805 47.7632L72.2843 45.7683Z" fill="url(#paint6_linear_3202_388)"/>
<path d="M79.197 42H66.9077L68.3229 42.9827C68.8884 43.1833 69.3816 43.4863 69.7883 43.8971C69.8745 43.9842 69.956 44.0752 70.0327 44.17L72.1746 45.6574L79.197 42Z" fill="url(#paint7_linear_3202_388)"/>
<path d="M56.4838 68.932L51.4364 86C52.5337 86 55.2988 85.7562 57.581 84.7809C59.8633 83.8055 62.1895 82.6012 63.0673 82.1209L56.4838 68.932Z" fill="url(#paint8_linear_3202_388)"/>
<path d="M45.182 84.1159V72.4786L51.217 86C50.266 85.9631 48.7591 86.0222 47.7057 85.6675C46.6524 85.3128 45.3649 84.4114 45.182 84.1159Z" fill="url(#paint9_linear_3202_388)"/>
<path d="M42.6584 64.3879L45.182 72.0353L42 77.2443L42.6584 64.3879Z" fill="url(#paint10_linear_3202_388)"/>
</g>
<defs>
<linearGradient id="paint0_linear_3202_388" x1="64" y1="9" x2="64" y2="119" gradientUnits="userSpaceOnUse">
<stop stop-color="#FF7373"/>
<stop offset="1" stop-color="#FF3E3E"/>
</linearGradient>
<linearGradient id="paint1_linear_3202_388" x1="64" y1="42" x2="64" y2="86" gradientUnits="userSpaceOnUse">
<stop stop-color="#FFEEEE"/>
<stop offset="1" stop-color="#FBD2BF"/>
</linearGradient>
<linearGradient id="paint2_linear_3202_388" x1="64" y1="42" x2="64" y2="86" gradientUnits="userSpaceOnUse">
<stop stop-color="#FFEEEE"/>
<stop offset="1" stop-color="#FBD2BF"/>
</linearGradient>
<linearGradient id="paint3_linear_3202_388" x1="64" y1="42" x2="64" y2="86" gradientUnits="userSpaceOnUse">
<stop stop-color="#FFEEEE"/>
<stop offset="1" stop-color="#FBD2BF"/>
</linearGradient>
<linearGradient id="paint4_linear_3202_388" x1="64" y1="42" x2="64" y2="86" gradientUnits="userSpaceOnUse">
<stop stop-color="#FFEEEE"/>
<stop offset="1" stop-color="#FBD2BF"/>
</linearGradient>
<linearGradient id="paint5_linear_3202_388" x1="64" y1="42" x2="64" y2="86" gradientUnits="userSpaceOnUse">
<stop stop-color="#FFEEEE"/>
<stop offset="1" stop-color="#FBD2BF"/>
</linearGradient>
<linearGradient id="paint6_linear_3202_388" x1="64" y1="42" x2="64" y2="86" gradientUnits="userSpaceOnUse">
<stop stop-color="#FFEEEE"/>
<stop offset="1" stop-color="#FBD2BF"/>
</linearGradient>
<linearGradient id="paint7_linear_3202_388" x1="64" y1="42" x2="64" y2="86" gradientUnits="userSpaceOnUse">
<stop stop-color="#FFEEEE"/>
<stop offset="1" stop-color="#FBD2BF"/>
</linearGradient>
<linearGradient id="paint8_linear_3202_388" x1="64" y1="42" x2="64" y2="86" gradientUnits="userSpaceOnUse">
<stop stop-color="#FFEEEE"/>
<stop offset="1" stop-color="#FBD2BF"/>
</linearGradient>
<linearGradient id="paint9_linear_3202_388" x1="64" y1="42" x2="64" y2="86" gradientUnits="userSpaceOnUse">
<stop stop-color="#FFEEEE"/>
<stop offset="1" stop-color="#FBD2BF"/>
</linearGradient>
<linearGradient id="paint10_linear_3202_388" x1="64" y1="42" x2="64" y2="86" gradientUnits="userSpaceOnUse">
<stop stop-color="#FFEEEE"/>
<stop offset="1" stop-color="#FBD2BF"/>
</linearGradient>
<clipPath id="clip0_3202_388">
<rect width="128" height="128" fill="white"/>
</clipPath>
</defs>
</svg>
