<svg width="128" height="128" viewBox="0 0 128 128" fill="none" xmlns="http://www.w3.org/2000/svg">
<g clip-path="url(#clip0_3206_469)">
<path d="M19 17C19 13.6863 21.6863 11 25 11L86.5147 11C88.106 11 89.6321 11.6321 90.7574 12.7574L107.243 29.2426C108.368 30.3679 109 31.894 109 33.4853V115C109 118.314 106.314 121 103 121H25C21.6863 121 19 118.314 19 115V17Z" fill="black" fill-opacity="0.15"/>
<path d="M19 15C19 11.6863 21.6863 9 25 9L86.5147 9C88.106 9 89.6321 9.63214 90.7574 10.7574L107.243 27.2426C108.368 28.3679 109 29.894 109 31.4853V113C109 116.314 106.314 119 103 119H25C21.6863 119 19 116.314 19 113V15Z" fill="url(#paint0_linear_3206_469)"/>
<path d="M86 9H86.576C88.2116 9 89.7762 9.6677 90.9079 10.8486L107.332 27.9867C108.402 29.1037 109 30.591 109 32.1381V33C108.361 31.6666 107.014 30.8182 105.535 30.8182H94.0909C90.7772 30.8182 88.0909 28.1319 88.0909 24.8182V12.4493C88.0909 10.9998 87.2851 9.67049 86 9Z" fill="black" fill-opacity="0.15"/>
<path d="M87 9H87.5147C89.106 9 90.6321 9.63214 91.7574 10.7574L107.243 26.2426C108.368 27.3679 109 28.894 109 30.4853V31C108.387 29.7743 107.134 29 105.764 29H95C91.6863 29 89 26.3137 89 23V12.2361C89 10.8657 88.2257 9.61287 87 9Z" fill="#DB3333"/>
<path d="M41 63.1786C41 60.9694 42.7909 59.1786 45 59.1786H46.5714C47.1237 59.1786 47.5714 59.6263 47.5714 60.1786V62.9643C47.5714 64.0689 48.4669 64.9643 49.5714 64.9643H78.4286C79.5331 64.9643 80.4286 64.0689 80.4286 62.9643V60.1786C80.4286 59.6263 80.8763 59.1786 81.4286 59.1786H83C85.2091 59.1786 87 60.9694 87 63.1786V83.1429C87 85.352 85.2091 87.1429 83 87.1429H81.4286C80.8763 87.1429 80.4286 86.6951 80.4286 86.1429V80.4643C80.4286 79.3597 79.5331 78.4643 78.4286 78.4643H49.5714C48.4669 78.4643 47.5714 79.3597 47.5714 80.4643V86.1429C47.5714 86.6951 47.1237 87.1429 46.5714 87.1429H45C42.7909 87.1429 41 85.352 41 83.1429V63.1786Z" fill="url(#paint1_linear_3206_469)"/>
<path d="M49.449 81.3571C49.449 80.8246 49.8693 80.3929 50.3878 80.3929H77.6122C78.1307 80.3929 78.551 80.8246 78.551 81.3571V89.0714C78.551 90.1366 77.7104 91 76.6735 91H51.3265C50.2896 91 49.449 90.1366 49.449 89.0714V81.3571Z" fill="url(#paint2_linear_3206_469)"/>
<path d="M49.449 38.9286C49.449 37.8635 50.2896 37 51.3265 37H76.6735C77.7104 37 78.551 37.8635 78.551 38.9286V62.0714C78.551 62.604 78.1307 63.0357 77.6122 63.0357H50.3878C49.8693 63.0357 49.449 62.604 49.449 62.0714V38.9286Z" fill="url(#paint3_linear_3206_469)"/>
</g>
<defs>
<linearGradient id="paint0_linear_3206_469" x1="64" y1="9" x2="64" y2="119" gradientUnits="userSpaceOnUse">
<stop stop-color="#FF7373"/>
<stop offset="1" stop-color="#FF3E3E"/>
</linearGradient>
<linearGradient id="paint1_linear_3206_469" x1="57.6841" y1="62.7377" x2="66.7935" y2="88.7034" gradientUnits="userSpaceOnUse">
<stop stop-color="#FFEEEE"/>
<stop offset="1" stop-color="#FBD2BF"/>
</linearGradient>
<linearGradient id="paint2_linear_3206_469" x1="57.6841" y1="62.7377" x2="66.7935" y2="88.7034" gradientUnits="userSpaceOnUse">
<stop stop-color="#FFEEEE"/>
<stop offset="1" stop-color="#FBD2BF"/>
</linearGradient>
<linearGradient id="paint3_linear_3206_469" x1="57.6841" y1="62.7377" x2="66.7935" y2="88.7034" gradientUnits="userSpaceOnUse">
<stop stop-color="#FFEEEE"/>
<stop offset="1" stop-color="#FBD2BF"/>
</linearGradient>
<clipPath id="clip0_3206_469">
<rect width="128" height="128" fill="white"/>
</clipPath>
</defs>
</svg>
