<svg width="128" height="128" viewBox="0 0 128 128" fill="none" xmlns="http://www.w3.org/2000/svg">
<g clip-path="url(#clip0_3477_432)">
<path d="M19 17C19 13.6863 21.6863 11 25 11L86.5147 11C88.106 11 89.6321 11.6321 90.7574 12.7574L107.243 29.2426C108.368 30.3679 109 31.894 109 33.4853V115C109 118.314 106.314 121 103 121H25C21.6863 121 19 118.314 19 115V17Z" fill="black" fill-opacity="0.15"/>
<path d="M19 13C19 10.7909 20.7909 9 23 9L87.3431 9C88.404 9 89.4214 9.42143 90.1716 10.1716L107.828 27.8284C108.579 28.5786 109 29.596 109 30.6569V115C109 117.209 107.209 119 105 119H23C20.7909 119 19 117.209 19 115V13Z" fill="url(#paint0_linear_3477_432)"/>
<path d="M86 9H86.576C88.2116 9 89.7762 9.6677 90.9079 10.8486L107.332 27.9867C108.402 29.1037 109 30.591 109 32.1381V33C108.361 31.6666 107.014 30.8182 105.535 30.8182H94.0909C90.7772 30.8182 88.0909 28.1319 88.0909 24.8182V12.4493C88.0909 10.9998 87.2851 9.67049 86 9Z" fill="black" fill-opacity="0.15"/>
<path d="M87 9H87.5147C89.106 9 90.6321 9.63214 91.7574 10.7574L107.243 26.2426C108.368 27.3679 109 28.894 109 30.4853V31C108.387 29.7743 107.134 29 105.764 29H95C91.6863 29 89 26.3137 89 23V12.2361C89 10.8657 88.2257 9.61287 87 9Z" fill="#CF74E0"/>
<path d="M84 46C84 50.4183 75.0457 54 64 54C52.9543 54 44 50.4183 44 46C44 41.5817 52.9543 38 64 38C75.0457 38 84 41.5817 84 46Z" fill="url(#paint1_linear_3477_432)"/>
<path d="M64 56C75.0457 56 84 52.4183 84 48V58C84 62.4183 75.0457 66 64 66C52.9543 66 44 62.4183 44 58V48C44 52.4183 52.9543 56 64 56Z" fill="url(#paint2_linear_3477_432)"/>
<path d="M64 68C75.0457 68 84 64.4183 84 60V70C84 74.4183 75.0457 78 64 78C52.9543 78 44 74.4183 44 70V60C44 64.4183 52.9543 68 64 68Z" fill="url(#paint3_linear_3477_432)"/>
<path d="M64 80C75.0457 80 84 76.4183 84 72V82C84 86.4183 75.0457 90 64 90C52.9543 90 44 86.4183 44 82V72C44 76.4183 52.9543 80 64 80Z" fill="url(#paint4_linear_3477_432)"/>
</g>
<defs>
<linearGradient id="paint0_linear_3477_432" x1="49" y1="9" x2="119.108" y2="81.8396" gradientUnits="userSpaceOnUse">
<stop stop-color="#BF3DED"/>
<stop offset="1" stop-color="#8F15BA"/>
</linearGradient>
<linearGradient id="paint1_linear_3477_432" x1="64" y1="38" x2="64" y2="90" gradientUnits="userSpaceOnUse">
<stop stop-color="#EAC8F1"/>
<stop offset="1" stop-color="#F3B9FF"/>
</linearGradient>
<linearGradient id="paint2_linear_3477_432" x1="64" y1="38" x2="64" y2="90" gradientUnits="userSpaceOnUse">
<stop stop-color="#EAC8F1"/>
<stop offset="1" stop-color="#F3B9FF"/>
</linearGradient>
<linearGradient id="paint3_linear_3477_432" x1="64" y1="38" x2="64" y2="90" gradientUnits="userSpaceOnUse">
<stop stop-color="#EAC8F1"/>
<stop offset="1" stop-color="#F3B9FF"/>
</linearGradient>
<linearGradient id="paint4_linear_3477_432" x1="64" y1="38" x2="64" y2="90" gradientUnits="userSpaceOnUse">
<stop stop-color="#EAC8F1"/>
<stop offset="1" stop-color="#F3B9FF"/>
</linearGradient>
<clipPath id="clip0_3477_432">
<rect width="128" height="128" fill="white"/>
</clipPath>
</defs>
</svg>
