<svg width="128" height="128" viewBox="0 0 128 128" fill="none" xmlns="http://www.w3.org/2000/svg">
<g clip-path="url(#clip0_3306_417)">
<circle cx="64" cy="54" r="45" fill="url(#paint0_linear_3306_417)"/>
<circle cx="64" cy="54" r="15" fill="url(#paint1_linear_3306_417)"/>
<circle cx="64" cy="54" r="10" fill="#CF74E0"/>
<path d="M109 115V36.9999C109 33.6862 106.314 30.9999 103 30.9999H85C81.6863 30.9999 79 33.6863 79 37C79 42.5 74 51 64 51C54 51 49 42.5 49 37C49 33.6863 46.3137 30.9999 43 30.9999H25C21.6863 30.9999 19 33.6862 19 36.9999V115C19 118.314 21.6863 121 25 121H103C106.314 121 109 118.314 109 115Z" fill="black" fill-opacity="0.15"/>
<path d="M109 115V33.0065C109 30.7974 107.209 29.0065 105 29.0065H83C80.7909 29.0065 79 30.7816 79 32.9907V35.0062C79 40.5058 74 49.0051 64 49.0051C54 49.0051 49 40.5058 49 35.0062V33.0034C49 30.7943 47.2091 29.0065 45 29.0065H23C20.7909 29.0065 19 30.7974 19 33.0065V115C19 117.209 20.7909 119 23 119H105C107.209 119 109 117.209 109 115Z" fill="url(#paint2_linear_3306_417)"/>
<path d="M40.7131 99.9545C41.4278 102.622 45.0344 103.973 48.7687 102.972C52.0714 102.087 54.3679 99.6593 54.3601 97.2645L54.3602 75.3792C54.3602 74.877 54.7328 74.4526 55.2307 74.3876L74.2895 71.8987C74.8881 71.8205 75.4189 72.2866 75.4189 72.8903L75.4189 84.5012L75.419 90.2532C75.419 90.8935 74.8232 91.3681 74.1842 91.3277C73.2314 91.2675 72.2108 91.3645 71.1805 91.6406C67.4462 92.6412 64.9984 95.6146 65.7131 98.282C66.4278 100.949 70.0344 102.3 73.7687 101.3C77.113 100.404 79.4256 97.9253 79.3586 95.5015C79.3509 95.2201 79.4184 86.0815 79.4189 86.0017L79.4189 85.9975L79.4189 65.0265C79.4189 63.8201 78.3589 62.8883 77.1625 63.043L52.1625 66.2758C51.1654 66.4048 50.419 67.2539 50.419 68.2593L50.419 91.9258C50.419 92.566 49.8233 93.0406 49.1843 93.0002C48.2314 92.94 47.2108 93.0371 46.1805 93.3131C42.4463 94.3137 39.9984 97.2872 40.7131 99.9545Z" fill="url(#paint3_linear_3306_417)"/>
</g>
<defs>
<linearGradient id="paint0_linear_3306_417" x1="48.9181" y1="20.4545" x2="86.405" y2="95.6095" gradientUnits="userSpaceOnUse">
<stop stop-color="#505A62"/>
<stop offset="1" stop-color="#1F1F1F"/>
</linearGradient>
<linearGradient id="paint1_linear_3306_417" x1="54.75" y1="37.95" x2="73.6959" y2="69.1167" gradientUnits="userSpaceOnUse">
<stop stop-color="#363D43"/>
<stop offset="1" stop-color="#181818"/>
</linearGradient>
<linearGradient id="paint2_linear_3306_417" x1="49" y1="29" x2="104.803" y2="99.8612" gradientUnits="userSpaceOnUse">
<stop stop-color="#BF3DED"/>
<stop offset="1" stop-color="#8F15BA"/>
</linearGradient>
<linearGradient id="paint3_linear_3306_417" x1="55.7069" y1="65.0844" x2="65.9707" y2="103.389" gradientUnits="userSpaceOnUse">
<stop stop-color="#EAC8F1"/>
<stop offset="1" stop-color="#F3B9FF"/>
</linearGradient>
<clipPath id="clip0_3306_417">
<rect width="128" height="128" fill="white"/>
</clipPath>
</defs>
</svg>
