<svg width="128" height="128" viewBox="0 0 128 128" fill="none" xmlns="http://www.w3.org/2000/svg">
<g clip-path="url(#clip0_3346_438)">
<path d="M20 16C20 12.6863 22.6863 10 26 10L87.5147 10C89.106 10 90.6321 10.6321 91.7574 11.7574L108.243 28.2426C109.368 29.3679 110 30.894 110 32.4853V114C110 117.314 107.314 120 104 120H26C22.6863 120 20 117.314 20 114V16Z" fill="black" fill-opacity="0.15"/>
<path d="M20 14C20 10.6863 22.6863 8 26 8L87.5147 8C89.106 8 90.6321 8.63214 91.7574 9.75736L108.243 26.2426C109.368 27.3679 110 28.894 110 30.4853V112C110 115.314 107.314 118 104 118H26C22.6863 118 20 115.314 20 112V14Z" fill="url(#paint0_linear_3346_438)"/>
<path d="M87 8H87.576C89.2116 8 90.7762 8.6677 91.9079 9.84857L108.332 26.9867C109.402 28.1037 110 29.591 110 31.1381V32C109.361 30.6666 108.014 29.8182 106.535 29.8182H95.0909C91.7772 29.8182 89.0909 27.1319 89.0909 23.8182V11.4493C89.0909 9.9998 88.2851 8.67049 87 8Z" fill="black" fill-opacity="0.15"/>
<path d="M88 8H88.5147C90.106 8 91.6321 8.63214 92.7574 9.75736L108.243 25.2426C109.368 26.3679 110 27.894 110 29.4853V30C109.387 28.7743 108.134 28 106.764 28H96C92.6863 28 90 25.3137 90 22V11.2361C90 9.86566 89.2257 8.61287 88 8Z" fill="#1B71D7"/>
<path fill-rule="evenodd" clip-rule="evenodd" d="M87.3828 55.1188C87.3828 52.2607 85.858 49.6197 83.3828 48.1906L68.0001 39.3094C65.5249 37.8803 62.4753 37.8803 60.0001 39.3094L44.6174 48.1906C42.1422 49.6197 40.6174 52.2607 40.6174 55.1188V72.8812C40.6174 75.7393 42.1422 78.3803 44.6174 79.8094L60.0001 88.6906C62.4753 90.1197 65.5249 90.1197 68.0001 88.6906L83.3828 79.8094C85.858 78.3803 87.3828 75.7393 87.3828 72.8812V55.1188ZM67.1216 48.3074C69.8976 48.8596 72.4714 50.137 74.5851 52.0017C74.9992 52.3671 74.9972 53.0029 74.6067 53.3934L71.0375 56.9626C70.647 57.3532 70.0169 57.3481 69.5853 57.0035C68.4705 56.1136 67.1551 55.4998 65.7466 55.2197C64.01 54.8743 62.21 55.0515 60.5742 55.7291C58.9384 56.4067 57.5402 57.5542 56.5565 59.0264C55.5728 60.4986 55.0478 62.2294 55.0478 64C55.0478 65.7706 55.5728 67.5015 56.5565 68.9737C57.5402 70.4459 58.9384 71.5933 60.5742 72.2709C62.21 72.9485 64.0101 73.1258 65.7466 72.7803C67.1551 72.5002 68.4705 71.8864 69.5853 70.9965C70.0169 70.6519 70.647 70.6469 71.0375 71.0374L74.6067 74.6066C74.9972 74.9971 74.9992 75.6329 74.5851 75.9983C72.4714 77.863 69.8976 79.1404 67.1216 79.6926C64.0179 80.3099 60.8008 79.9931 57.8772 78.7821C54.9536 77.5711 52.4547 75.5203 50.6966 72.8891C48.9385 70.2579 48.0001 67.1645 48.0001 64C48.0001 60.8355 48.9385 57.7421 50.6966 55.1109C52.4547 52.4797 54.9536 50.4289 57.8772 49.2179C60.8008 48.0069 64.0179 47.6901 67.1216 48.3074ZM73 65.0195V67H71V65L69.0001 65.0195L69 63H71V61H73V63H75V65.0195L73 65.0195ZM81 67V65H83V63H81V61H79V63H77V65H79V67H81Z" fill="url(#paint1_linear_3346_438)"/>
</g>
<defs>
<linearGradient id="paint0_linear_3346_438" x1="59.7059" y1="13.2537" x2="70.0492" y2="112.271" gradientUnits="userSpaceOnUse">
<stop stop-color="#3397F5"/>
<stop offset="1" stop-color="#126CD7"/>
</linearGradient>
<linearGradient id="paint1_linear_3346_438" x1="64.0001" y1="38.4595" x2="64.0001" y2="91" gradientUnits="userSpaceOnUse">
<stop stop-color="#EFF3F5"/>
<stop offset="1" stop-color="#B4D8F1"/>
</linearGradient>
<clipPath id="clip0_3346_438">
<rect width="128" height="128" fill="white"/>
</clipPath>
</defs>
</svg>
