<svg width="128" height="128" viewBox="0 0 128 128" fill="none" xmlns="http://www.w3.org/2000/svg">
<g clip-path="url(#clip0_3439_443)">
<path d="M19 17C19 13.6863 21.6863 11 25 11L86.5147 11C88.106 11 89.6321 11.6321 90.7574 12.7574L107.243 29.2426C108.368 30.3679 109 31.894 109 33.4853V115C109 118.314 106.314 121 103 121H25C21.6863 121 19 118.314 19 115V17Z" fill="black" fill-opacity="0.15"/>
<path d="M19 15C19 11.6863 21.6863 9 25 9L86.5147 9C88.106 9 89.6321 9.63214 90.7574 10.7574L107.243 27.2426C108.368 28.3679 109 29.894 109 31.4853V113C109 116.314 106.314 119 103 119H25C21.6863 119 19 116.314 19 113V15Z" fill="url(#paint0_linear_3439_443)"/>
<path d="M86 9H86.576C88.2116 9 89.7762 9.6677 90.9079 10.8486L107.332 27.9867C108.402 29.1037 109 30.591 109 32.1381V33C108.361 31.6666 107.014 30.8182 105.535 30.8182H94.0909C90.7772 30.8182 88.0909 28.1319 88.0909 24.8182V12.4493C88.0909 10.9998 87.2851 9.67049 86 9Z" fill="black" fill-opacity="0.15"/>
<path d="M87 9H87.5147C89.106 9 90.6321 9.63214 91.7574 10.7574L107.243 26.2426C108.368 27.3679 109 28.894 109 30.4853V31C108.387 29.7743 107.134 29 105.764 29H95C91.6863 29 89 26.3137 89 23V12.2361C89 10.8657 88.2257 9.61287 87 9Z" fill="#247FEA"/>
<path fill-rule="evenodd" clip-rule="evenodd" d="M42.9937 41.0326C42.442 41.0334 42 41.4808 42 42.0326V86C42 86.5523 42.4477 87 43 87H54.8409C55.3932 87 55.8409 86.5523 55.8409 86V68.9675H59.7273C61.5818 68.9675 63.4318 72.1884 64.125 73.7988L70.9329 86.4732C71.1072 86.7976 71.4456 87 71.8139 87H85.2366C86.0133 87 86.4944 86.1554 86.0946 85.4895C83.0896 80.4845 77.8151 71.7637 76.6364 69.8521C76.1935 69.1339 75.5497 68.5785 74.826 68.1355C73.9098 67.5747 73.9972 65.683 74.9808 65.2513C78.6448 63.643 82.4659 60.2806 82.4659 54.0651C82.4659 42.8713 73.2614 41 69.1705 41C66.0327 41 51.0077 41.0209 42.9937 41.0326ZM56.9091 58.7944C56.3568 58.7944 55.9091 58.3467 55.9091 57.7944V52.071C55.9091 51.5187 56.3568 51.071 56.9091 51.071H64.3636C69.75 51.071 69.3409 58.7944 64.3636 58.7944H56.9091Z" fill="url(#paint1_linear_3439_443)"/>
</g>
<defs>
<linearGradient id="paint0_linear_3439_443" x1="64" y1="9" x2="64" y2="119" gradientUnits="userSpaceOnUse">
<stop stop-color="#64B4F4"/>
<stop offset="1" stop-color="#4989D5"/>
</linearGradient>
<linearGradient id="paint1_linear_3439_443" x1="64.9865" y1="41.4973" x2="64.9865" y2="86.5027" gradientUnits="userSpaceOnUse">
<stop stop-color="#EFF3F5"/>
<stop offset="1" stop-color="#DBE4E8"/>
</linearGradient>
<clipPath id="clip0_3439_443">
<rect width="128" height="128" fill="white"/>
</clipPath>
</defs>
</svg>
