<svg width="128" height="128" viewBox="0 0 128 128" fill="none" xmlns="http://www.w3.org/2000/svg">
<g clip-path="url(#clip0_3420_479)">
<path d="M19 17C19 13.6863 21.6863 11 25 11L86.5147 11C88.106 11 89.6321 11.6321 90.7574 12.7574L107.243 29.2426C108.368 30.3679 109 31.894 109 33.4853V115C109 118.314 106.314 121 103 121H25C21.6863 121 19 118.314 19 115V17Z" fill="black" fill-opacity="0.15"/>
<path d="M19 13C19 10.7909 20.7909 9 23 9L87.3431 9C88.404 9 89.4214 9.42143 90.1716 10.1716L107.828 27.8284C108.579 28.5786 109 29.596 109 30.6569V115C109 117.209 107.209 119 105 119H23C20.7909 119 19 117.209 19 115V13Z" fill="url(#paint0_linear_3420_479)"/>
<path d="M86 9H86.576C88.2116 9 89.7762 9.6677 90.9079 10.8486L107.332 27.9867C108.402 29.1037 109 30.591 109 32.1381V33C108.361 31.6666 107.014 30.8182 105.535 30.8182H94.0909C90.7772 30.8182 88.0909 28.1319 88.0909 24.8182V12.4493C88.0909 10.9998 87.2851 9.67049 86 9Z" fill="black" fill-opacity="0.15"/>
<path d="M87 9H87.5147C89.106 9 90.6321 9.63214 91.7574 10.7574L107.243 26.2426C108.368 27.3679 109 28.894 109 30.4853V31C108.387 29.7743 107.134 29 105.764 29H95C91.6863 29 89 26.3137 89 23V12.2361C89 10.8657 88.2257 9.61287 87 9Z" fill="#CF74E0"/>
<path d="M55.8672 96L53.4062 91.3027L50.9844 96H48.084L51.7656 89.457L48.3281 83.2363H51.1504L53.4648 87.6797L55.7012 83.2363H58.5234L55.1055 89.457L58.9238 96H55.8672ZM67.4395 96L67.2051 88.7832L67.1172 85.9023L66.502 87.8555L65.0859 92.2012H63.582L62.3027 87.8555L61.7656 85.9023L61.6973 88.7246L61.4824 96H59.4414L60.0664 83.2363H62.7812L63.9043 86.8594L64.4414 88.9004L64.9785 86.9766L66.1602 83.2363H68.9238L69.5586 96H67.4395ZM71.9219 96V83.2363H74.3633V93.9395H79.7539V96H71.9219Z" fill="url(#paint1_linear_3420_479)"/>
<path d="M77.4372 44.8207C77.8032 44.4476 78.3949 44.4193 78.7948 44.7558L87.4451 52.0328C87.9198 52.4321 87.9201 53.1629 87.4457 53.5627L78.7949 60.853C78.395 61.19 77.8029 61.1619 77.4366 60.7886L76.4882 59.8218C76.0776 59.4032 76.1136 58.7228 76.5661 58.3499L82.3328 53.5966C82.817 53.1976 82.8183 52.4564 82.3356 52.0556L76.5605 47.2605C76.1105 46.8869 76.0759 46.2084 76.4855 45.7909L77.4372 44.8207Z" fill="url(#paint2_linear_3420_479)"/>
<path d="M61.8679 64.2862C61.7414 64.7098 61.3518 65 60.9097 65H59.7132C59.044 65 58.5636 64.3554 58.7549 63.7142L65.9139 39.7142C66.0403 39.2904 66.43 39 66.8722 39H68.079C68.7483 39 69.2287 39.6449 69.0371 40.2862L61.8679 64.2862Z" fill="url(#paint3_linear_3420_479)"/>
<path d="M50.9173 60.7928C50.5507 61.1641 49.9603 61.1911 49.5613 60.8549L40.9082 53.5627C40.4338 53.1629 40.4341 52.4321 40.9088 52.0328L49.5614 44.7538C49.9604 44.4182 50.5504 44.4454 50.9167 44.8165L51.8742 45.7863C52.2877 46.2051 52.2519 46.8886 51.797 47.2619L46.0246 51.9985C45.539 52.397 45.5368 53.1394 46.02 53.5408L51.8062 58.3471C52.2571 58.7216 52.2907 59.4018 51.8789 59.8189L50.9173 60.7928Z" fill="url(#paint4_linear_3420_479)"/>
</g>
<defs>
<linearGradient id="paint0_linear_3420_479" x1="49" y1="9" x2="119.108" y2="81.8396" gradientUnits="userSpaceOnUse">
<stop stop-color="#BF3DED"/>
<stop offset="1" stop-color="#8F15BA"/>
</linearGradient>
<linearGradient id="paint1_linear_3420_479" x1="63.51" y1="80" x2="63.51" y2="102.233" gradientUnits="userSpaceOnUse">
<stop stop-color="#EAC8F1"/>
<stop offset="1" stop-color="#F3B9FF"/>
</linearGradient>
<linearGradient id="paint2_linear_3420_479" x1="81.6604" y1="44.1594" x2="81.6604" y2="60.8741" gradientUnits="userSpaceOnUse">
<stop stop-color="#EAC8F1"/>
<stop offset="1" stop-color="#F3B9FF"/>
</linearGradient>
<linearGradient id="paint3_linear_3420_479" x1="63.5648" y1="39" x2="63.5648" y2="64.1334" gradientUnits="userSpaceOnUse">
<stop stop-color="#EAC8F1"/>
<stop offset="1" stop-color="#F3B9FF"/>
</linearGradient>
<linearGradient id="paint4_linear_3420_479" x1="45.9429" y1="44.1594" x2="45.9429" y2="60.8741" gradientUnits="userSpaceOnUse">
<stop stop-color="#EAC8F1"/>
<stop offset="1" stop-color="#F3B9FF"/>
</linearGradient>
<clipPath id="clip0_3420_479">
<rect width="128" height="128" fill="white"/>
</clipPath>
</defs>
</svg>
