<svg width="128" height="128" viewBox="0 0 128 128" fill="none" xmlns="http://www.w3.org/2000/svg">
<g clip-path="url(#clip0_3306_456)">
<path d="M19 17C19 13.6863 21.6863 11 25 11L86.5147 11C88.106 11 89.6321 11.6321 90.7574 12.7574L107.243 29.2426C108.368 30.3679 109 31.894 109 33.4853V115C109 118.314 106.314 121 103 121H25C21.6863 121 19 118.314 19 115V17Z" fill="black" fill-opacity="0.15"/>
<path d="M19 15C19 11.6863 21.6863 9 25 9L86.5147 9C88.106 9 89.6321 9.63214 90.7574 10.7574L107.243 27.2426C108.368 28.3679 109 29.894 109 31.4853V113C109 116.314 106.314 119 103 119H25C21.6863 119 19 116.314 19 113V15Z" fill="url(#paint0_linear_3306_456)"/>
<path d="M86 9H86.576C88.2116 9 89.7762 9.6677 90.9079 10.8486L107.332 27.9867C108.402 29.1037 109 30.591 109 32.1381V33C108.361 31.6666 107.014 30.8182 105.535 30.8182H94.0909C90.7772 30.8182 88.0909 28.1319 88.0909 24.8182V12.4493C88.0909 10.9998 87.2851 9.67049 86 9Z" fill="black" fill-opacity="0.15"/>
<path d="M87 9H87.5147C89.106 9 90.6321 9.63214 91.7574 10.7574L107.243 26.2426C108.368 27.3679 109 28.894 109 30.4853V31C108.387 29.7743 107.134 29 105.764 29H95C91.6863 29 89 26.3137 89 23V12.2361C89 10.8657 88.2257 9.61287 87 9Z" fill="#FFC328"/>
<path d="M58 31C55 31 53.5 32.5 53.5 35.5C53.5 37 53.5 40 53.5 41.5C53.5 44.5 52 46 49 46C52 46 53.5 47.5 53.5 50.5V56.5C53.5 59.5 55 61 58 61M70 31C73 31 74.5 32.5 74.5 35.5V41.5C74.5 44.5 76 46 79 46C76 46 74.5 47.5 74.5 50.5V56.5C74.5 59.5 73 61 70 61" stroke="#FFF8E2" stroke-width="3" stroke-linejoin="round"/>
<path d="M57.8105 95.502C57.2441 95.7298 56.694 95.8991 56.1602 96.0098C55.6328 96.1204 55.0827 96.1758 54.5098 96.1758C53.5918 96.1758 52.778 96.0423 52.0684 95.7754C51.3652 95.502 50.7695 95.0983 50.2812 94.5645C49.7995 94.0306 49.4316 93.3698 49.1777 92.582C48.9303 91.7878 48.8066 90.8665 48.8066 89.8184C48.8066 88.7441 48.9434 87.7904 49.2168 86.957C49.4902 86.1172 49.8809 85.4108 50.3887 84.8379C50.8965 84.2585 51.5117 83.819 52.2344 83.5195C52.9635 83.2135 53.7806 83.0605 54.6855 83.0605C54.9785 83.0605 55.252 83.0671 55.5059 83.0801C55.7663 83.0931 56.0202 83.1191 56.2676 83.1582C56.515 83.1908 56.7656 83.2363 57.0195 83.2949C57.2734 83.3535 57.5371 83.4284 57.8105 83.5195V85.9023C57.2572 85.6419 56.7298 85.4564 56.2285 85.3457C55.7272 85.235 55.2715 85.1797 54.8613 85.1797C54.2559 85.1797 53.7383 85.2904 53.3086 85.5117C52.8789 85.7266 52.5241 86.0326 52.2441 86.4297C51.9707 86.8203 51.7689 87.2891 51.6387 87.8359C51.5085 88.3763 51.4434 88.972 51.4434 89.623C51.4434 90.3132 51.5085 90.9316 51.6387 91.4785C51.7754 92.0189 51.9837 92.4779 52.2637 92.8555C52.5436 93.2331 52.9017 93.5228 53.3379 93.7246C53.7741 93.9199 54.2917 94.0176 54.8906 94.0176C55.1055 94.0176 55.3366 93.998 55.584 93.959C55.8379 93.9134 56.0918 93.8581 56.3457 93.793C56.6061 93.7214 56.86 93.64 57.1074 93.5488C57.3613 93.4512 57.5957 93.3535 57.8105 93.2559V95.502ZM68.9629 92.1426C68.9629 92.8392 68.8327 93.4447 68.5723 93.959C68.3184 94.4733 67.9603 94.8997 67.498 95.2383C67.0358 95.5703 66.4857 95.8177 65.8477 95.9805C65.2096 96.1432 64.513 96.2246 63.7578 96.2246C63.0872 96.2246 62.4395 96.1855 61.8145 96.1074C61.1895 96.0293 60.571 95.8991 59.959 95.7168V93.3438C60.2585 93.4479 60.571 93.5456 60.8965 93.6367C61.222 93.7279 61.5475 93.8092 61.873 93.8809C62.2051 93.946 62.5339 93.998 62.8594 94.0371C63.1849 94.0762 63.5007 94.0957 63.8066 94.0957C64.2624 94.0957 64.6497 94.0566 64.9688 93.9785C65.2878 93.9004 65.5482 93.793 65.75 93.6562C65.9518 93.5195 66.0983 93.3568 66.1895 93.168C66.2806 92.9792 66.3262 92.7708 66.3262 92.543C66.3262 92.2305 66.235 91.9701 66.0527 91.7617C65.877 91.5469 65.6426 91.3581 65.3496 91.1953C65.0566 91.0326 64.7214 90.8861 64.3438 90.7559C63.9727 90.6257 63.5918 90.4857 63.2012 90.3359C62.8171 90.1862 62.4362 90.0169 62.0586 89.8281C61.6875 89.6393 61.3555 89.4049 61.0625 89.125C60.7695 88.8451 60.5319 88.513 60.3496 88.1289C60.1738 87.7383 60.0859 87.2695 60.0859 86.7227C60.0859 86.2214 60.1771 85.7461 60.3594 85.2969C60.5417 84.8477 60.8281 84.457 61.2188 84.125C61.6094 83.7865 62.1107 83.5195 62.7227 83.3242C63.3346 83.1224 64.0736 83.0215 64.9395 83.0215C65.1934 83.0215 65.457 83.0345 65.7305 83.0605C66.0104 83.0801 66.2839 83.1094 66.5508 83.1484C66.8242 83.181 67.0846 83.2233 67.332 83.2754C67.5859 83.321 67.8171 83.3698 68.0254 83.4219V85.6191C67.8171 85.541 67.5892 85.4694 67.3418 85.4043C67.0944 85.3392 66.8372 85.2839 66.5703 85.2383C66.3099 85.1862 66.0462 85.1471 65.7793 85.1211C65.5124 85.0951 65.2585 85.082 65.0176 85.082C64.5944 85.082 64.2363 85.1178 63.9434 85.1895C63.6504 85.2546 63.4095 85.349 63.2207 85.4727C63.0319 85.5898 62.8952 85.7363 62.8105 85.9121C62.7259 86.0879 62.6836 86.2832 62.6836 86.498C62.6836 86.765 62.7715 86.9961 62.9473 87.1914C63.1296 87.3802 63.3672 87.5527 63.6602 87.709C63.9596 87.8587 64.2949 88.002 64.666 88.1387C65.0436 88.2689 65.4277 88.4121 65.8184 88.5684C66.2155 88.7181 66.5996 88.8906 66.9707 89.0859C67.3483 89.2812 67.6836 89.5189 67.9766 89.7988C68.276 90.0788 68.5137 90.4108 68.6895 90.7949C68.8717 91.1725 68.9629 91.6217 68.9629 92.1426ZM79.959 92.1426C79.959 92.8392 79.8288 93.4447 79.5684 93.959C79.3145 94.4733 78.9564 94.8997 78.4941 95.2383C78.0319 95.5703 77.4818 95.8177 76.8438 95.9805C76.2057 96.1432 75.5091 96.2246 74.7539 96.2246C74.0833 96.2246 73.4355 96.1855 72.8105 96.1074C72.1855 96.0293 71.5671 95.8991 70.9551 95.7168V93.3438C71.2546 93.4479 71.5671 93.5456 71.8926 93.6367C72.2181 93.7279 72.5436 93.8092 72.8691 93.8809C73.2012 93.946 73.5299 93.998 73.8555 94.0371C74.181 94.0762 74.4967 94.0957 74.8027 94.0957C75.2585 94.0957 75.6458 94.0566 75.9648 93.9785C76.2839 93.9004 76.5443 93.793 76.7461 93.6562C76.9479 93.5195 77.0944 93.3568 77.1855 93.168C77.2767 92.9792 77.3223 92.7708 77.3223 92.543C77.3223 92.2305 77.2311 91.9701 77.0488 91.7617C76.873 91.5469 76.6387 91.3581 76.3457 91.1953C76.0527 91.0326 75.7174 90.8861 75.3398 90.7559C74.9688 90.6257 74.5879 90.4857 74.1973 90.3359C73.8132 90.1862 73.4323 90.0169 73.0547 89.8281C72.6836 89.6393 72.3516 89.4049 72.0586 89.125C71.7656 88.8451 71.528 88.513 71.3457 88.1289C71.1699 87.7383 71.082 87.2695 71.082 86.7227C71.082 86.2214 71.1732 85.7461 71.3555 85.2969C71.5378 84.8477 71.8242 84.457 72.2148 84.125C72.6055 83.7865 73.1068 83.5195 73.7188 83.3242C74.3307 83.1224 75.0697 83.0215 75.9355 83.0215C76.1895 83.0215 76.4531 83.0345 76.7266 83.0605C77.0065 83.0801 77.2799 83.1094 77.5469 83.1484C77.8203 83.181 78.0807 83.2233 78.3281 83.2754C78.582 83.321 78.8132 83.3698 79.0215 83.4219V85.6191C78.8132 85.541 78.5853 85.4694 78.3379 85.4043C78.0905 85.3392 77.8333 85.2839 77.5664 85.2383C77.306 85.1862 77.0423 85.1471 76.7754 85.1211C76.5085 85.0951 76.2546 85.082 76.0137 85.082C75.5905 85.082 75.2324 85.1178 74.9395 85.1895C74.6465 85.2546 74.4056 85.349 74.2168 85.4727C74.028 85.5898 73.8913 85.7363 73.8066 85.9121C73.722 86.0879 73.6797 86.2832 73.6797 86.498C73.6797 86.765 73.7676 86.9961 73.9434 87.1914C74.1257 87.3802 74.3633 87.5527 74.6562 87.709C74.9557 87.8587 75.291 88.002 75.6621 88.1387C76.0397 88.2689 76.4238 88.4121 76.8145 88.5684C77.2116 88.7181 77.5957 88.8906 77.9668 89.0859C78.3444 89.2812 78.6797 89.5189 78.9727 89.7988C79.2721 90.0788 79.5098 90.4108 79.6855 90.7949C79.8678 91.1725 79.959 91.6217 79.959 92.1426Z" fill="#FFF8E2"/>
</g>
<defs>
<linearGradient id="paint0_linear_3306_456" x1="65.3636" y1="9" x2="65.3636" y2="92.9474" gradientUnits="userSpaceOnUse">
<stop stop-color="#FFE483"/>
<stop offset="1" stop-color="#F7C33B"/>
</linearGradient>
<clipPath id="clip0_3306_456">
<rect width="128" height="128" fill="white"/>
</clipPath>
</defs>
</svg>
