<svg width="128" height="128" viewBox="0 0 128 128" fill="none" xmlns="http://www.w3.org/2000/svg">
<g clip-path="url(#clip0_3408_411)">
<path d="M19 17C19 13.6863 21.6863 11 25 11L86.5147 11C88.106 11 89.6321 11.6321 90.7574 12.7574L107.243 29.2426C108.368 30.3679 109 31.894 109 33.4853V115C109 118.314 106.314 121 103 121H25C21.6863 121 19 118.314 19 115V17Z" fill="black" fill-opacity="0.15"/>
<path d="M19 15C19 11.6863 21.6863 9 25 9L86.5147 9C88.106 9 89.6321 9.63214 90.7574 10.7574L107.243 27.2426C108.368 28.3679 109 29.894 109 31.4853V113C109 116.314 106.314 119 103 119H25C21.6863 119 19 116.314 19 113V15Z" fill="url(#paint0_linear_3408_411)"/>
<path d="M86 9H86.576C88.2116 9 89.7762 9.6677 90.9079 10.8486L107.332 27.9867C108.402 29.1037 109 30.591 109 32.1381V33C108.361 31.6666 107.014 30.8182 105.535 30.8182H94.0909C90.7772 30.8182 88.0909 28.1319 88.0909 24.8182V12.4493C88.0909 10.9998 87.2851 9.67049 86 9Z" fill="black" fill-opacity="0.15"/>
<path d="M87 9H87.5147C89.106 9 90.6321 9.63214 91.7574 10.7574L107.243 26.2426C108.368 27.3679 109 28.894 109 30.4853V31C108.387 29.7743 107.134 29 105.764 29H95C91.6863 29 89 26.3137 89 23V12.2361C89 10.8657 88.2257 9.61287 87 9Z" fill="#03A269"/>
<path d="M73 64C73 63.4477 73.4477 63 74 63V63C74.5523 63 75 63.4477 75 64V64C75 64.5523 74.5523 65 74 65V65C73.4477 65 73 64.5523 73 64V64Z" fill="url(#paint1_linear_3408_411)"/>
<path fill-rule="evenodd" clip-rule="evenodd" d="M87.3828 53.9641C87.3828 51.8205 86.2392 49.8397 84.3828 48.7679L67.0001 38.7321C65.1437 37.6603 62.8565 37.6603 61.0001 38.7321L43.6174 48.7679C41.761 49.8397 40.6174 51.8205 40.6174 53.9641V74.0359C40.6174 76.1795 41.761 78.1603 43.6174 79.2321L61.0001 89.2679C62.8565 90.3397 65.1437 90.3397 67.0001 89.2679L84.3828 79.2321C86.2392 78.1603 87.3828 76.1795 87.3828 74.0359V53.9641ZM67.1216 48.3074C69.0661 48.6942 70.9114 49.4369 72.5689 50.4879C74.2124 51.5302 74.1982 53.8019 72.8221 55.178V55.178C71.446 56.5542 69.2171 56.4691 67.4184 55.726C66.8815 55.5042 66.3218 55.3341 65.7466 55.2197C64.01 54.8743 62.21 55.0515 60.5742 55.7291C58.9384 56.4067 57.5402 57.5542 56.5565 59.0264C55.5728 60.4986 55.0478 62.2294 55.0478 64C55.0478 65.7706 55.5728 67.5015 56.5565 68.9737C57.5402 70.4459 58.9384 71.5933 60.5742 72.2709C62.21 72.9485 64.0101 73.1258 65.7466 72.7803C66.3218 72.6659 66.8815 72.4959 67.4184 72.2741C69.2171 71.531 71.446 71.4459 72.8221 72.822V72.822C74.1982 74.1981 74.2124 76.4698 72.5689 77.5121C70.9114 78.5632 69.0661 79.3058 67.1216 79.6926C64.0179 80.3099 60.8008 79.9931 57.8772 78.7821C54.9536 77.5711 52.4547 75.5203 50.6966 72.8891C48.9385 70.2579 48.0001 67.1645 48.0001 64C48.0001 60.8355 48.9385 57.7421 50.6966 55.1109C52.4547 52.4797 54.9536 50.4289 57.8772 49.2179C60.8008 48.0069 64.0179 47.6901 67.1216 48.3074ZM70 61.5C70 61.2239 70.2239 61 70.5 61V61C70.7761 61 71 60.7761 71 60.5V60.5C71 60.2239 71.2239 60 71.5 60H72.5C72.7761 60 73 60.2239 73 60.5V60.5C73 60.7761 73.2239 61 73.5 61H74.5C74.7761 61 75 60.7761 75 60.5V60.5C75 60.2239 75.2239 60 75.5 60H76.5C76.7761 60 77 60.2239 77 60.5V60.5C77 60.7761 77.2239 61 77.5 61V61C77.7761 61 78 61.2239 78 61.5V62.5C78 62.7761 77.7761 63 77.5 63V63C77.2239 63 77 63.2239 77 63.5V64.5C77 64.7761 77.2239 65 77.5 65V65C77.7761 65 78 65.2239 78 65.5V66.5C78 66.7761 77.7761 67 77.5 67V67C77.2239 67 77 67.2239 77 67.5V67.5C77 67.7761 76.7761 68 76.5 68H75.5C75.2239 68 75 67.7761 75 67.5V67.5C75 67.2239 74.7761 67 74.5 67H73.5C73.2239 67 73 67.2239 73 67.5V67.5C73 67.7761 72.7761 68 72.5 68H71.5C71.2239 68 71 67.7761 71 67.5V67.5C71 67.2239 70.7761 67 70.5 67V67C70.2239 67 70 66.7761 70 66.5V65.5C70 65.2239 70.2239 65 70.5 65V65C70.7761 65 71 64.7761 71 64.5V63.5C71 63.2239 70.7761 63 70.5 63V63C70.2239 63 70 62.7761 70 62.5V61.5ZM73 64C73 63.4477 73.4477 63 74 63V63C74.5523 63 75 63.4477 75 64V64C75 64.5523 74.5523 65 74 65V65C73.4477 65 73 64.5523 73 64V64Z" fill="url(#paint2_linear_3408_411)"/>
</g>
<defs>
<linearGradient id="paint0_linear_3408_411" x1="58.7059" y1="13.8057" x2="67.3757" y2="104.539" gradientUnits="userSpaceOnUse">
<stop stop-color="#3FD383"/>
<stop offset="1" stop-color="#15B279"/>
</linearGradient>
<linearGradient id="paint1_linear_3408_411" x1="64.0001" y1="37" x2="64.0001" y2="91" gradientUnits="userSpaceOnUse">
<stop stop-color="#EEFFF3"/>
<stop offset="1" stop-color="#AAFDDF"/>
</linearGradient>
<linearGradient id="paint2_linear_3408_411" x1="64.0001" y1="37" x2="64.0001" y2="91" gradientUnits="userSpaceOnUse">
<stop stop-color="#EEFFF3"/>
<stop offset="1" stop-color="#AAFDDF"/>
</linearGradient>
<clipPath id="clip0_3408_411">
<rect width="128" height="128" fill="white"/>
</clipPath>
</defs>
</svg>
