<svg width="128" height="128" viewBox="0 0 128 128" fill="none" xmlns="http://www.w3.org/2000/svg">
<g clip-path="url(#clip0_3336_419)">
<path d="M19 17C19 13.6863 21.6863 11 25 11L86.5147 11C88.106 11 89.6321 11.6321 90.7574 12.7574L107.243 29.2426C108.368 30.3679 109 31.894 109 33.4853V115C109 118.314 106.314 121 103 121H25C21.6863 121 19 118.314 19 115V17Z" fill="black" fill-opacity="0.15"/>
<path d="M19 15C19 11.6863 21.6863 9 25 9L86.5147 9C88.106 9 89.6321 9.63214 90.7574 10.7574L107.243 27.2426C108.368 28.3679 109 29.894 109 31.4853V113C109 116.314 106.314 119 103 119H25C21.6863 119 19 116.314 19 113V15Z" fill="url(#paint0_linear_3336_419)"/>
<path d="M86 9H86.576C88.2116 9 89.7762 9.6677 90.9079 10.8486L107.332 27.9867C108.402 29.1037 109 30.591 109 32.1381V33C108.361 31.6666 107.014 30.8182 105.535 30.8182H94.0909C90.7772 30.8182 88.0909 28.1319 88.0909 24.8182V12.4493C88.0909 10.9998 87.2851 9.67049 86 9Z" fill="black" fill-opacity="0.15"/>
<path d="M87 9H87.5147C89.106 9 90.6321 9.63214 91.7574 10.7574L107.243 26.2426C108.368 27.3679 109 28.894 109 30.4853V31C108.387 29.7743 107.134 29 105.764 29H95C91.6863 29 89 26.3137 89 23V12.2361C89 10.8657 88.2257 9.61287 87 9Z" fill="#8395A6"/>
<path d="M89 64C89 77.8071 77.8071 89 64 89C50.1929 89 39 77.8071 39 64C39 50.1929 50.1929 39 64 39C77.8071 39 89 50.1929 89 64ZM42.1801 64C42.1801 76.0508 51.9492 85.8199 64 85.8199C76.0508 85.8199 85.8199 76.0508 85.8199 64C85.8199 51.9492 76.0508 42.1801 64 42.1801C51.9492 42.1801 42.1801 51.9492 42.1801 64Z" fill="url(#paint1_linear_3336_419)"/>
<path d="M74.6066 53.3934C74.9971 53.0029 74.9991 52.3671 74.5849 52.0017C72.4713 50.137 69.8975 48.8596 67.1214 48.3074C64.0177 47.6901 60.8007 48.0069 57.8771 49.2179C54.9534 50.4289 52.4546 52.4797 50.6965 55.1109C48.9384 57.7421 48 60.8355 48 64C48 67.1645 48.9384 70.2579 50.6965 72.8891C52.4546 75.5203 54.9534 77.5711 57.8771 78.7821C60.8007 79.9931 64.0178 80.3099 67.1214 79.6926C69.8975 79.1404 72.4713 77.863 74.5849 75.9983C74.9991 75.6329 74.9971 74.9971 74.6066 74.6066L73.1384 73.1384C72.7479 72.7479 72.1172 72.7515 71.6953 73.108C70.1576 74.4072 68.3113 75.2997 66.3262 75.6945C64.0132 76.1546 61.6158 75.9185 59.437 75.016C57.2583 74.1135 55.396 72.5852 54.0859 70.6244C52.7757 68.6636 52.0764 66.3583 52.0764 64C52.0764 61.6417 52.7757 59.3364 54.0859 57.3756C55.396 55.4148 57.2583 53.8865 59.437 52.984C61.6158 52.0815 64.0132 51.8454 66.3262 52.3055C68.3113 52.7003 70.1576 53.5928 71.6953 54.892C72.1172 55.2485 72.7479 55.2521 73.1384 54.8616L74.6066 53.3934Z" fill="url(#paint2_linear_3336_419)"/>
</g>
<defs>
<linearGradient id="paint0_linear_3336_419" x1="51.6428" y1="20.3077" x2="91.4919" y2="90.2559" gradientUnits="userSpaceOnUse">
<stop stop-color="#677B8D"/>
<stop offset="1" stop-color="#39464D"/>
</linearGradient>
<linearGradient id="paint1_linear_3336_419" x1="64" y1="39" x2="64" y2="89" gradientUnits="userSpaceOnUse">
<stop stop-color="#DBE4E8"/>
<stop offset="1" stop-color="#B9C3C7"/>
</linearGradient>
<linearGradient id="paint2_linear_3336_419" x1="64" y1="48" x2="64" y2="80" gradientUnits="userSpaceOnUse">
<stop stop-color="#DBE4E8"/>
<stop offset="1" stop-color="#B9C3C7"/>
</linearGradient>
<clipPath id="clip0_3336_419">
<rect width="128" height="128" fill="white"/>
</clipPath>
</defs>
</svg>
