<svg width="128" height="128" viewBox="0 0 128 128" fill="none" xmlns="http://www.w3.org/2000/svg">
<g clip-path="url(#clip0_3188_438)">
<path d="M19 17C19 13.6863 21.6863 11 25 11L86.5147 11C88.106 11 89.6321 11.6321 90.7574 12.7574L107.243 29.2426C108.368 30.3679 109 31.894 109 33.4853V115C109 118.314 106.314 121 103 121H25C21.6863 121 19 118.314 19 115V17Z" fill="black" fill-opacity="0.15"/>
<path d="M19 15C19 11.6863 21.6863 9 25 9L86.5147 9C88.106 9 89.6321 9.63214 90.7574 10.7574L107.243 27.2426C108.368 28.3679 109 29.894 109 31.4853V113C109 116.314 106.314 119 103 119H25C21.6863 119 19 116.314 19 113V15Z" fill="url(#paint0_linear_3188_438)"/>
<path d="M86 9H86.576C88.2116 9 89.7762 9.6677 90.9079 10.8486L107.332 27.9867C108.402 29.1037 109 30.591 109 32.1381V33C108.361 31.6666 107.014 30.8182 105.535 30.8182H94.0909C90.7772 30.8182 88.0909 28.1319 88.0909 24.8182V12.4493C88.0909 10.9998 87.2851 9.67049 86 9Z" fill="black" fill-opacity="0.15"/>
<path d="M87 9H87.5147C89.106 9 90.6321 9.63214 91.7574 10.7574L107.243 26.2426C108.368 27.3679 109 28.894 109 30.4853V31C108.387 29.7743 107.134 29 105.764 29H95C91.6863 29 89 26.3137 89 23V12.2361C89 10.8657 88.2257 9.61287 87 9Z" fill="#FFD4A0"/>
<path d="M67.5 59.7692C67.5 62.6985 64.8333 64.4769 63.5 65C68 59.2462 61 59.2462 61 53.4923C61 48.8892 69.3333 44.6 73.5 43.0308C70.3333 44.9487 64 49.5169 64 52.4462C64 56.1077 67.5 56.1077 67.5 59.7692Z" fill="url(#paint1_linear_3188_438)"/>
<path d="M57 52.9692C57 57.9908 59 60.8154 61 62.9077C58.6667 61.6872 53.5 57.4677 53.5 52.4462C53.5 46.1692 67 40.0706 67 35.1846C67 32.6738 66 31 66 31C66 31 68 33.6154 68 36.7538C68 43.0308 57 46.6923 57 52.9692Z" fill="url(#paint2_linear_3188_438)"/>
<path d="M43.9998 60.5C43.9998 59.3 44.6664 58.3333 44.9998 58C43.9998 58.1667 42.2998 58.8 41.4998 60C40.4998 61.5 39 64 44.4999 77C45.3157 78.9282 46.8084 80.6861 48.5 82.1266C48.6773 82.2776 47.5 84.5 50.5 86.5C53.8541 88.7361 58 89 58 89C58 89 54.7408 88.2509 53 87C50 85 50.5 84 50.5 84C53.8479 86.0669 56 86 56 86C56 86 50.2862 84.6266 46.4997 78C44.4998 74.5 42.6664 66.8333 42.4997 64C43.4997 65.3333 47.7473 68.9885 58.9998 69.5C69.9997 70 77.1664 68 78.9997 66.5C79.1664 69.8333 78.4996 78.5 74.9997 82C71.7012 85.2985 62.9998 86.5 57.9998 86.5C59.1664 86.6667 63.3998 86.8 70.9998 86C72.2875 85.8644 74.4217 85.1413 74.4217 85.1413C74.4217 85.1413 73.9522 86.9096 69.5 88C65.9898 88.8597 58.5 89 58.5 89C58.5 89 65.8236 90.6091 70.9998 89.5C78 88 77.3739 83.267 77.5928 83.0593C80.1483 80.6329 81.278 77.268 81.9997 75C84.333 74.3333 90.9998 73.5 90.9998 67.5C90.9998 63.9 86.9998 63.3333 84.9998 63.5V66C85.9998 66 87.9997 66.6 87.9997 69C87.9997 71.4 84.4997 72 82.4997 72C82.833 69.8333 82.9998 64.7 82.9998 61.5C82.9998 58.3 74.9998 56.1667 70.9998 55.5C73.9997 56.1256 80.9998 58 80.9998 61.5C80.9998 63.5 75.4998 67 61.4998 67C47.4998 67 43.9998 62 43.9998 60.5Z" fill="url(#paint3_linear_3188_438)"/>
<path d="M40 87C40 85 42 83.8333 43 83.5C41 83.6667 37 85.7211 37 88C37 91.2 42.3333 93 45 93.5C45 93.8333 46.2 94.8 51 96C57 97.5 65 97 71.5 96.5C76.7 96.1 78.6667 94.3333 79 93.5C81.6667 92.8333 87 90.8 87 88C87 85.2 81.6667 83.5 79 83C80.3333 83.6667 83 85.3 83 86.5C83 88 80 93 62 93C44 93 40 89.5 40 87Z" fill="url(#paint4_linear_3188_438)"/>
</g>
<defs>
<linearGradient id="paint0_linear_3188_438" x1="64" y1="9" x2="64" y2="119" gradientUnits="userSpaceOnUse">
<stop stop-color="#FFBE71"/>
<stop offset="1" stop-color="#FFA943"/>
</linearGradient>
<linearGradient id="paint1_linear_3188_438" x1="63.5" y1="31" x2="63.5" y2="93.5" gradientUnits="userSpaceOnUse">
<stop stop-color="#BB8444"/>
<stop offset="1" stop-color="#976020"/>
</linearGradient>
<linearGradient id="paint2_linear_3188_438" x1="63.5" y1="31" x2="63.5" y2="93.5" gradientUnits="userSpaceOnUse">
<stop stop-color="#BB8444"/>
<stop offset="1" stop-color="#976020"/>
</linearGradient>
<linearGradient id="paint3_linear_3188_438" x1="65.764" y1="55.5" x2="65.764" y2="118.717" gradientUnits="userSpaceOnUse">
<stop stop-color="#BB8444"/>
<stop offset="1" stop-color="#976020"/>
</linearGradient>
<linearGradient id="paint4_linear_3188_438" x1="62" y1="83" x2="62" y2="108.735" gradientUnits="userSpaceOnUse">
<stop stop-color="#BB8444"/>
<stop offset="1" stop-color="#976020"/>
</linearGradient>
<clipPath id="clip0_3188_438">
<rect width="128" height="128" fill="white"/>
</clipPath>
</defs>
</svg>
