<svg width="128" height="128" viewBox="0 0 128 128" fill="none" xmlns="http://www.w3.org/2000/svg">
<g clip-path="url(#clip0_3307_494)">
<path d="M19 17C19 13.6863 21.6863 11 25 11L86.5147 11C88.106 11 89.6321 11.6321 90.7574 12.7574L107.243 29.2426C108.368 30.3679 109 31.894 109 33.4853V115C109 118.314 106.314 121 103 121H25C21.6863 121 19 118.314 19 115V17Z" fill="black" fill-opacity="0.15"/>
<path d="M19 15C19 11.6863 21.6863 9 25 9L86.5147 9C88.106 9 89.6321 9.63214 90.7574 10.7574L107.243 27.2426C108.368 28.3679 109 29.894 109 31.4853V113C109 116.314 106.314 119 103 119H25C21.6863 119 19 116.314 19 113V15Z" fill="url(#paint0_linear_3307_494)"/>
<path d="M86 9H86.576C88.2116 9 89.7762 9.6677 90.9079 10.8486L107.332 27.9867C108.402 29.1037 109 30.591 109 32.1381V33C108.361 31.6666 107.014 30.8182 105.535 30.8182H94.0909C90.7772 30.8182 88.0909 28.1319 88.0909 24.8182V12.4493C88.0909 10.9998 87.2851 9.67049 86 9Z" fill="black" fill-opacity="0.15"/>
<path d="M87 9H87.5147C89.106 9 90.6321 9.63214 91.7574 10.7574L107.243 26.2426C108.368 27.3679 109 28.894 109 30.4853V31C108.387 29.7743 107.134 29 105.764 29H95C91.6863 29 89 26.3137 89 23V12.2361C89 10.8657 88.2257 9.61287 87 9Z" fill="#247FEA"/>
<path d="M41.2203 57.9709C41.2203 57.4186 41.668 56.9709 42.2203 56.9709H45.7007C46.2529 56.9709 46.7007 57.4186 46.7007 57.9709V61.5631C46.7007 62.1154 46.2529 62.5631 45.7007 62.5631H42.2203C41.668 62.5631 41.2203 62.1154 41.2203 61.5631V57.9709Z" fill="url(#paint1_linear_3307_494)"/>
<path d="M47.8043 57.9709C47.8043 57.4186 48.2521 56.9709 48.8043 56.9709H52.2847C52.837 56.9709 53.2847 57.4186 53.2847 57.9709V61.5631C53.2847 62.1154 52.837 62.5631 52.2847 62.5631H48.8043C48.2521 62.5631 47.8043 62.1154 47.8043 61.5631V57.9709Z" fill="url(#paint2_linear_3307_494)"/>
<path d="M54.3883 57.9709C54.3883 57.4186 54.8361 56.9709 55.3883 56.9709H58.8687C59.421 56.9709 59.8687 57.4186 59.8687 57.9709V61.5631C59.8687 62.1154 59.421 62.5631 58.8687 62.5631H55.3883C54.8361 62.5631 54.3883 62.1154 54.3883 61.5631V57.9709Z" fill="url(#paint3_linear_3307_494)"/>
<path d="M60.9343 57.9709C60.9343 57.4186 61.382 56.9709 61.9343 56.9709H65.4146C65.9669 56.9709 66.4146 57.4186 66.4146 57.9709V61.5631C66.4146 62.1154 65.9669 62.5631 65.4146 62.5631H61.9343C61.382 62.5631 60.9343 62.1154 60.9343 61.5631V57.9709Z" fill="url(#paint4_linear_3307_494)"/>
<path d="M67.5183 57.9709C67.5183 57.4186 67.966 56.9709 68.5183 56.9709H71.9986C72.5509 56.9709 72.9986 57.4186 72.9986 57.9709V61.5631C72.9986 62.1154 72.5509 62.5631 71.9986 62.5631H68.5183C67.966 62.5631 67.5183 62.1154 67.5183 61.5631V57.9709Z" fill="url(#paint5_linear_3307_494)"/>
<path d="M47.8043 51.4466C47.8043 50.8943 48.2521 50.4466 48.8043 50.4466H52.2847C52.837 50.4466 53.2847 50.8943 53.2847 51.4466V55.0388C53.2847 55.5911 52.837 56.0388 52.2847 56.0388H48.8043C48.2521 56.0388 47.8043 55.5911 47.8043 55.0388V51.4466Z" fill="url(#paint6_linear_3307_494)"/>
<path d="M54.3883 51.4466C54.3883 50.8943 54.8361 50.4466 55.3883 50.4466H58.8687C59.421 50.4466 59.8687 50.8943 59.8687 51.4466V55.0388C59.8687 55.5911 59.421 56.0388 58.8687 56.0388H55.3883C54.8361 56.0388 54.3883 55.5911 54.3883 55.0388V51.4466Z" fill="url(#paint7_linear_3307_494)"/>
<path d="M60.9343 51.4466C60.9343 50.8943 61.382 50.4466 61.9343 50.4466H65.4146C65.9669 50.4466 66.4146 50.8943 66.4146 51.4466V55.0388C66.4146 55.5911 65.9669 56.0388 65.4146 56.0388H61.9343C61.382 56.0388 60.9343 55.5911 60.9343 55.0388V51.4466Z" fill="url(#paint8_linear_3307_494)"/>
<path d="M60.9343 45C60.9343 44.4477 61.382 44 61.9343 44H65.4146C65.9669 44 66.4146 44.4477 66.4146 45V48.5922C66.4146 49.1445 65.9669 49.5922 65.4146 49.5922H61.9343C61.382 49.5922 60.9343 49.1445 60.9343 48.5922V45Z" fill="url(#paint9_linear_3307_494)"/>
<path d="M37.1308 64.2565C37.1921 63.785 37.604 63.4563 38.0795 63.4563H76.5175C77.4035 63.4563 78.0099 62.2503 77.6578 61.4372C77.2529 60.502 76.9186 59.3134 76.9186 57.9806C76.9186 55.8351 77.785 54.0174 78.4174 52.9133C78.6782 52.458 79.2613 52.304 79.6762 52.6252C80.9411 53.6045 82.4341 55.4507 83.0677 57.6176C83.2398 58.2062 83.8429 58.5947 84.446 58.4837C87.3313 57.9531 89.2403 58.9071 90.3807 59.6516C90.7536 59.895 90.9052 60.3691 90.7101 60.7695C89.7952 62.6465 87.4624 65.4103 83.3423 65.6863C82.9349 65.7136 82.5674 65.9565 82.4064 66.3316C79.7306 72.5655 72.2934 84 55.0734 84C38.4955 84 36.3706 70.0987 37.1308 64.2565Z" fill="url(#paint10_linear_3307_494)"/>
</g>
<defs>
<linearGradient id="paint0_linear_3307_494" x1="64" y1="9" x2="64" y2="119" gradientUnits="userSpaceOnUse">
<stop stop-color="#64B4F4"/>
<stop offset="1" stop-color="#4989D5"/>
</linearGradient>
<linearGradient id="paint1_linear_3307_494" x1="64.5838" y1="44.4324" x2="64.5838" y2="83.5676" gradientUnits="userSpaceOnUse">
<stop stop-color="#EFF3F5"/>
<stop offset="1" stop-color="#DBE4E8"/>
</linearGradient>
<linearGradient id="paint2_linear_3307_494" x1="64.5838" y1="44.4324" x2="64.5838" y2="83.5676" gradientUnits="userSpaceOnUse">
<stop stop-color="#EFF3F5"/>
<stop offset="1" stop-color="#DBE4E8"/>
</linearGradient>
<linearGradient id="paint3_linear_3307_494" x1="64.5838" y1="44.4324" x2="64.5838" y2="83.5676" gradientUnits="userSpaceOnUse">
<stop stop-color="#EFF3F5"/>
<stop offset="1" stop-color="#DBE4E8"/>
</linearGradient>
<linearGradient id="paint4_linear_3307_494" x1="64.5838" y1="44.4324" x2="64.5838" y2="83.5676" gradientUnits="userSpaceOnUse">
<stop stop-color="#EFF3F5"/>
<stop offset="1" stop-color="#DBE4E8"/>
</linearGradient>
<linearGradient id="paint5_linear_3307_494" x1="64.5838" y1="44.4324" x2="64.5838" y2="83.5676" gradientUnits="userSpaceOnUse">
<stop stop-color="#EFF3F5"/>
<stop offset="1" stop-color="#DBE4E8"/>
</linearGradient>
<linearGradient id="paint6_linear_3307_494" x1="64.5838" y1="44.4324" x2="64.5838" y2="83.5676" gradientUnits="userSpaceOnUse">
<stop stop-color="#EFF3F5"/>
<stop offset="1" stop-color="#DBE4E8"/>
</linearGradient>
<linearGradient id="paint7_linear_3307_494" x1="64.5838" y1="44.4324" x2="64.5838" y2="83.5676" gradientUnits="userSpaceOnUse">
<stop stop-color="#EFF3F5"/>
<stop offset="1" stop-color="#DBE4E8"/>
</linearGradient>
<linearGradient id="paint8_linear_3307_494" x1="64.5838" y1="44.4324" x2="64.5838" y2="83.5676" gradientUnits="userSpaceOnUse">
<stop stop-color="#EFF3F5"/>
<stop offset="1" stop-color="#DBE4E8"/>
</linearGradient>
<linearGradient id="paint9_linear_3307_494" x1="64.5838" y1="44.4324" x2="64.5838" y2="83.5676" gradientUnits="userSpaceOnUse">
<stop stop-color="#EFF3F5"/>
<stop offset="1" stop-color="#DBE4E8"/>
</linearGradient>
<linearGradient id="paint10_linear_3307_494" x1="64.5838" y1="44.4324" x2="64.5838" y2="83.5676" gradientUnits="userSpaceOnUse">
<stop stop-color="#EFF3F5"/>
<stop offset="1" stop-color="#DBE4E8"/>
</linearGradient>
<clipPath id="clip0_3307_494">
<rect width="128" height="128" fill="white"/>
</clipPath>
</defs>
</svg>
