<svg width="128" height="128" viewBox="0 0 128 128" fill="none" xmlns="http://www.w3.org/2000/svg">
<g clip-path="url(#clip0_3307_504)">
<path d="M19 17C19 13.6863 21.6863 11 25 11L86.5147 11C88.106 11 89.6321 11.6321 90.7574 12.7574L107.243 29.2426C108.368 30.3679 109 31.894 109 33.4853V115C109 118.314 106.314 121 103 121H25C21.6863 121 19 118.314 19 115V17Z" fill="black" fill-opacity="0.15"/>
<path d="M19 15C19 11.6863 21.6863 9 25 9L86.5147 9C88.106 9 89.6321 9.63214 90.7574 10.7574L107.243 27.2426C108.368 28.3679 109 29.894 109 31.4853V113C109 116.314 106.314 119 103 119H25C21.6863 119 19 116.314 19 113V15Z" fill="url(#paint0_linear_3307_504)"/>
<path d="M86 9H86.576C88.2116 9 89.7762 9.6677 90.9079 10.8486L107.332 27.9867C108.402 29.1037 109 30.591 109 32.1381V33C108.361 31.6666 107.014 30.8182 105.535 30.8182H94.0909C90.7772 30.8182 88.0909 28.1319 88.0909 24.8182V12.4493C88.0909 10.9998 87.2851 9.67049 86 9Z" fill="black" fill-opacity="0.15"/>
<path d="M87 9H87.5147C89.106 9 90.6321 9.63214 91.7574 10.7574L107.243 26.2426C108.368 27.3679 109 28.894 109 30.4853V31C108.387 29.7743 107.134 29 105.764 29H95C91.6863 29 89 26.3137 89 23V12.2361C89 10.8657 88.2257 9.61287 87 9Z" fill="#1B71D7"/>
<path fill-rule="evenodd" clip-rule="evenodd" d="M64 85C75.598 85 85 75.598 85 64C85 52.402 75.598 43 64 43C52.402 43 43 52.402 43 64C43 75.598 52.402 85 64 85ZM64 89C77.8071 89 89 77.8071 89 64C89 50.1929 77.8071 39 64 39C50.1929 39 39 50.1929 39 64C39 77.8071 50.1929 89 64 89Z" fill="url(#paint1_linear_3307_504)"/>
<path fill-rule="evenodd" clip-rule="evenodd" d="M56.5487 48.7207C54.3952 52.5308 53 57.9287 53 64C53 70.0713 54.3952 75.4692 56.5487 79.2793C58.7366 83.1502 61.4487 85 64 85C66.5513 85 69.2634 83.1502 71.4513 79.2793C73.6048 75.4692 75 70.0713 75 64C75 57.9287 73.6048 52.5308 71.4513 48.7207C69.2634 44.8498 66.5513 43 64 43C61.4487 43 58.7366 44.8498 56.5487 48.7207ZM53.0665 46.7524C55.5837 42.299 59.3716 39 64 39C68.6284 39 72.4163 42.299 74.9335 46.7524C77.485 51.2667 79 57.3687 79 64C79 70.6313 77.485 76.7333 74.9335 81.2476C72.4163 85.701 68.6284 89 64 89C59.3716 89 55.5837 85.701 53.0665 81.2476C50.515 76.7333 49 70.6313 49 64C49 57.3687 50.515 51.2667 53.0665 46.7524Z" fill="url(#paint2_linear_3307_504)"/>
<path d="M86 62C87.1046 62 88 62.8954 88 64V64C88 65.1046 87.1046 66 86 66L42 66C40.8954 66 40 65.1046 40 64V64C40 62.8954 40.8954 62 42 62L86 62Z" fill="url(#paint3_linear_3307_504)"/>
<path d="M80.2331 79.6553C79.6656 80.187 78.8216 80.2823 78.1224 79.9421C74.412 78.1369 69.4803 77.0001 64 77.0001C58.5197 77.0001 53.5881 78.1369 49.8776 79.9421C49.1784 80.2823 48.3344 80.187 47.7669 79.6553V79.6553C46.8908 78.8345 47.0641 77.4022 48.1466 76.883C52.5355 74.7782 58.3488 73.0001 64 73.0001C69.6512 73.0001 75.4645 74.7782 79.8534 76.883C80.9359 77.4022 81.1092 78.8345 80.2331 79.6553V79.6553Z" fill="url(#paint4_linear_3307_504)"/>
<path d="M47.66 48.1695C48.2802 47.4856 49.2877 47.3302 50.1226 47.7241C53.8039 49.4611 58.6395 50.5487 64 50.5487C69.3605 50.5487 74.1961 49.4611 77.8774 47.7241C78.7123 47.3302 79.7197 47.4856 80.3399 48.1695V48.1695C81.1907 49.1076 80.9494 50.5915 79.7968 51.1162C75.4146 53.1107 69.6269 54.5487 64 54.5487C58.373 54.5487 52.5854 53.1107 48.2032 51.1162C47.0505 50.5915 46.8093 49.1076 47.66 48.1695V48.1695Z" fill="url(#paint5_linear_3307_504)"/>
<path d="M62 42C62 40.8954 62.8954 40 64 40V40C65.1046 40 66 40.8954 66 42V86C66 87.1046 65.1046 88 64 88V88C62.8954 88 62 87.1046 62 86V42Z" fill="url(#paint6_linear_3307_504)"/>
</g>
<defs>
<linearGradient id="paint0_linear_3307_504" x1="58.7059" y1="14.2537" x2="69.0492" y2="113.271" gradientUnits="userSpaceOnUse">
<stop stop-color="#3397F5"/>
<stop offset="1" stop-color="#126CD7"/>
</linearGradient>
<linearGradient id="paint1_linear_3307_504" x1="64" y1="40.3514" x2="64" y2="89" gradientUnits="userSpaceOnUse">
<stop stop-color="#EFF3F5"/>
<stop offset="1" stop-color="#B4D8F1"/>
</linearGradient>
<linearGradient id="paint2_linear_3307_504" x1="64" y1="40.3514" x2="64" y2="89" gradientUnits="userSpaceOnUse">
<stop stop-color="#EFF3F5"/>
<stop offset="1" stop-color="#B4D8F1"/>
</linearGradient>
<linearGradient id="paint3_linear_3307_504" x1="64" y1="40.3514" x2="64" y2="89" gradientUnits="userSpaceOnUse">
<stop stop-color="#EFF3F5"/>
<stop offset="1" stop-color="#B4D8F1"/>
</linearGradient>
<linearGradient id="paint4_linear_3307_504" x1="64" y1="40.3514" x2="64" y2="89" gradientUnits="userSpaceOnUse">
<stop stop-color="#EFF3F5"/>
<stop offset="1" stop-color="#B4D8F1"/>
</linearGradient>
<linearGradient id="paint5_linear_3307_504" x1="64" y1="40.3514" x2="64" y2="89" gradientUnits="userSpaceOnUse">
<stop stop-color="#EFF3F5"/>
<stop offset="1" stop-color="#B4D8F1"/>
</linearGradient>
<linearGradient id="paint6_linear_3307_504" x1="64" y1="40.3514" x2="64" y2="89" gradientUnits="userSpaceOnUse">
<stop stop-color="#EFF3F5"/>
<stop offset="1" stop-color="#B4D8F1"/>
</linearGradient>
<clipPath id="clip0_3307_504">
<rect width="128" height="128" fill="white"/>
</clipPath>
</defs>
</svg>
