<svg width="24" height="24" viewBox="0 0 24 24" fill="none" xmlns="http://www.w3.org/2000/svg">
<g clip-path="url(#clip0_1118_338)">
<circle cx="12" cy="12" r="10" fill="url(#paint0_linear_1118_338)"/>
<path fill-rule="evenodd" clip-rule="evenodd" d="M7.5999 11C7.5999 9.12226 9.12213 7.60002 10.9999 7.60002C12.8777 7.60002 14.3999 9.12226 14.3999 11C14.3999 12.8778 12.8777 14.4 10.9999 14.4C9.12213 14.4 7.5999 12.8778 7.5999 11ZM10.9999 6.40002C8.45939 6.40002 6.3999 8.45951 6.3999 11C6.3999 13.5405 8.45939 15.6 10.9999 15.6C12.0539 15.6 13.025 15.2456 13.8007 14.6494L16.5756 17.4243C16.81 17.6586 17.1899 17.6586 17.4242 17.4243C17.6585 17.19 17.6585 16.8101 17.4242 16.5758L14.6492 13.8008C15.2454 13.0252 15.5999 12.054 15.5999 11C15.5999 8.45951 13.5404 6.40002 10.9999 6.40002Z" fill="url(#paint1_linear_1118_338)"/>
</g>
<defs>
<linearGradient id="paint0_linear_1118_338" x1="10.8235" y1="2.95523" x2="12.3677" y2="21.0228" gradientUnits="userSpaceOnUse">
<stop stop-color="#42B0FF"/>
<stop offset="0.506666" stop-color="#3397F5"/>
<stop offset="1" stop-color="#126CD7"/>
</linearGradient>
<linearGradient id="paint1_linear_1118_338" x1="11.9999" y1="6.70273" x2="11.9999" y2="17.6" gradientUnits="userSpaceOnUse">
<stop stop-color="#EFF3F5"/>
<stop offset="1" stop-color="#B4D8F1"/>
</linearGradient>
<clipPath id="clip0_1118_338">
<rect width="24" height="24" fill="white"/>
</clipPath>
</defs>
</svg>
