<svg width="24" height="24" viewBox="0 0 24 24" fill="none" xmlns="http://www.w3.org/2000/svg">
<g clip-path="url(#clip0_1118_284)">
<circle cx="12" cy="12" r="10" fill="url(#paint0_linear_1118_284)"/>
<path d="M21 12C21 13.9006 20.3983 15.7524 19.2812 17.2901L12 12H21Z" fill="#5A9D70"/>
<path d="M19.2812 17.2901C18.164 18.8277 16.5887 19.9722 14.7812 20.5595L12 12L19.2812 17.2901Z" fill="#AAC217"/>
<path d="M14.7812 20.5595C12.9736 21.1468 11.0264 21.1468 9.21885 20.5595L12 12L14.7812 20.5595Z" fill="#CEC107"/>
<path d="M9.21885 20.5595C7.41126 19.9722 5.836 18.8277 4.71885 17.2901L12 12L9.21885 20.5595Z" fill="#DBAF14"/>
<path d="M4.71885 17.2901C3.60169 15.7524 3 13.9006 3 12L12 12L4.71885 17.2901Z" fill="#EB4B20"/>
<path d="M3 12C3 10.0994 3.60169 8.24756 4.71885 6.70993L12 12L3 12Z" fill="#E51B4B"/>
<path d="M4.71885 6.70993C5.836 5.1723 7.41126 4.02781 9.21885 3.44049L12 12L4.71885 6.70993Z" fill="#C82889"/>
<path d="M9.21885 3.44049C11.0264 2.85317 12.9736 2.85317 14.7812 3.44049L12 12L9.21885 3.44049Z" fill="#645BB2"/>
<path d="M14.7812 3.44049C16.5887 4.02781 18.164 5.17231 19.2812 6.70994L12 12L14.7812 3.44049Z" fill="#5D7A9C"/>
<path d="M19.2812 6.70994C20.3983 8.24756 21 10.0994 21 12L12 12L19.2812 6.70994Z" fill="#5C8D73"/>
</g>
<defs>
<linearGradient id="paint0_linear_1118_284" x1="9.25395" y1="4.54546" x2="18.283" y2="20.1911" gradientUnits="userSpaceOnUse">
<stop stop-color="#5A6978"/>
<stop offset="1" stop-color="#3C3B3B"/>
</linearGradient>
<clipPath id="clip0_1118_284">
<rect width="24" height="24" fill="white"/>
</clipPath>
</defs>
</svg>
