<svg width="24" height="24" viewBox="0 0 24 24" fill="none" xmlns="http://www.w3.org/2000/svg">
<g clip-path="url(#clip0_1119_458)">
<path d="M22 13V11C22 10.4477 21.5523 10 21 10H19C18.4477 10 18 10.4477 18 11V13C18 13.5523 18.4477 14 19 14H21C21.5523 14 22 13.5523 22 13Z" fill="url(#paint0_linear_1119_458)"/>
<rect x="2" y="6" width="18" height="12" rx="2" fill="url(#paint1_linear_1119_458)"/>
<path d="M3 8C3 7.44772 3.44772 7 4 7H12.1802C12.6569 7 13.0673 7.33646 13.1608 7.80388L14.7608 15.8039C14.8845 16.4227 14.4112 17 13.7802 17H4C3.44772 17 3 16.5523 3 16V8Z" fill="url(#paint2_linear_1119_458)"/>
</g>
<defs>
<linearGradient id="paint0_linear_1119_458" x1="19.4508" y1="10.5091" x2="21.2566" y2="13.6382" gradientUnits="userSpaceOnUse">
<stop stop-color="#5A6978"/>
<stop offset="1" stop-color="#3C3B3B"/>
</linearGradient>
<linearGradient id="paint1_linear_1119_458" x1="8.52855" y1="7.52727" x2="12.7222" y2="18.4276" gradientUnits="userSpaceOnUse">
<stop stop-color="#5A6978"/>
<stop offset="1" stop-color="#3C3B3B"/>
</linearGradient>
<linearGradient id="paint2_linear_1119_458" x1="8.29412" y1="7.43689" x2="8.83412" y2="15.7255" gradientUnits="userSpaceOnUse">
<stop stop-color="#3FD383"/>
<stop offset="1" stop-color="#15B279"/>
</linearGradient>
<clipPath id="clip0_1119_458">
<rect width="24" height="24" fill="white"/>
</clipPath>
</defs>
</svg>
