<svg width="24" height="24" viewBox="0 0 24 24" fill="none" xmlns="http://www.w3.org/2000/svg">
<g clip-path="url(#clip0_1081_181)">
<path d="M9.83922 20.1961L9.23922 17.1961C9.11546 16.5773 9.58876 16 10.2198 16H13.7802C14.4112 16 14.8845 16.5773 14.7608 17.1961L14.1608 20.1961C14.0673 20.6635 13.6569 21 13.1802 21H10.8198C10.3431 21 9.93271 20.6635 9.83922 20.1961Z" fill="url(#paint0_linear_1081_181)"/>
<rect x="2" y="3" width="20" height="14" rx="2" fill="url(#paint1_linear_1081_181)"/>
<rect x="3" y="4" width="18" height="12" rx="1" fill="url(#paint2_linear_1081_181)"/>
<path d="M15.5 21H8.5C8.22386 21 8 20.7761 8 20.5C8 20.2239 8.22386 20 8.5 20H15.5C15.7761 20 16 20.2239 16 20.5C16 20.7761 15.7761 21 15.5 21Z" fill="url(#paint3_linear_1081_181)"/>
</g>
<defs>
<linearGradient id="paint0_linear_1081_181" x1="11.1762" y1="16.6364" x2="13.2127" y2="20.8711" gradientUnits="userSpaceOnUse">
<stop stop-color="#5A6978"/>
<stop offset="1" stop-color="#3C3B3B"/>
</linearGradient>
<linearGradient id="paint1_linear_1081_181" x1="9.25395" y1="4.78182" x2="14.3242" y2="17.333" gradientUnits="userSpaceOnUse">
<stop stop-color="#5A6978"/>
<stop offset="1" stop-color="#3C3B3B"/>
</linearGradient>
<linearGradient id="paint2_linear_1081_181" x1="10.9412" y1="4.57314" x2="11.5613" y2="15.4575" gradientUnits="userSpaceOnUse">
<stop stop-color="#42B0FF"/>
<stop offset="0.506666" stop-color="#3397F5"/>
<stop offset="1" stop-color="#126CD7"/>
</linearGradient>
<linearGradient id="paint3_linear_1081_181" x1="10.9016" y1="20.1273" x2="10.9764" y2="21.1647" gradientUnits="userSpaceOnUse">
<stop stop-color="#5A6978"/>
<stop offset="1" stop-color="#3C3B3B"/>
</linearGradient>
<clipPath id="clip0_1081_181">
<rect width="24" height="24" fill="white"/>
</clipPath>
</defs>
</svg>
