<svg width="24" height="24" viewBox="0 0 24 24" fill="none" xmlns="http://www.w3.org/2000/svg">
<g clip-path="url(#clip0_1105_141)">
<path d="M3 16.2278C3 16.0764 3.01718 15.9255 3.05122 15.7781L5.64224 4.55028C5.85166 3.64282 6.65971 3 7.59103 3H16.409C17.3403 3 18.1483 3.64282 18.3578 4.55028L20.9488 15.7781C20.9828 15.9255 21 16.0764 21 16.2278V19C21 20.1046 20.1046 21 19 21H5C3.89543 21 3 20.1046 3 19L3 16.2278Z" fill="url(#paint0_linear_1105_141)"/>
<rect x="3" y="16" width="18" height="5" rx="1" fill="url(#paint1_linear_1105_141)"/>
</g>
<defs>
<linearGradient id="paint0_linear_1105_141" x1="12" y1="3" x2="12" y2="21" gradientUnits="userSpaceOnUse">
<stop stop-color="#C8D4DC"/>
<stop offset="1" stop-color="#919FA6"/>
</linearGradient>
<linearGradient id="paint1_linear_1105_141" x1="9.52855" y1="16.6364" x2="10.3434" y2="21.7198" gradientUnits="userSpaceOnUse">
<stop stop-color="#5A6978"/>
<stop offset="1" stop-color="#3C3B3B"/>
</linearGradient>
<clipPath id="clip0_1105_141">
<rect width="24" height="24" fill="white"/>
</clipPath>
</defs>
</svg>
