<svg width="24" height="24" viewBox="0 0 24 24" fill="none" xmlns="http://www.w3.org/2000/svg">
<g clip-path="url(#clip0_1118_262)">
<path d="M9.83922 20.1961L9.23922 17.1961C9.11546 16.5773 9.58876 16 10.2198 16H13.7802C14.4112 16 14.8845 16.5773 14.7608 17.1961L14.1608 20.1961C14.0673 20.6635 13.6569 21 13.1802 21H10.8198C10.3431 21 9.93271 20.6635 9.83922 20.1961Z" fill="url(#paint0_linear_1118_262)"/>
<rect x="2" y="3" width="20" height="14" rx="2" fill="url(#paint1_linear_1118_262)"/>
<rect x="3" y="4" width="18" height="12" rx="1" fill="url(#paint2_linear_1118_262)"/>
<path d="M15.5 21H8.5C8.22386 21 8 20.7761 8 20.5C8 20.2239 8.22386 20 8.5 20H15.5C15.7761 20 16 20.2239 16 20.5C16 20.7761 15.7761 21 15.5 21Z" fill="url(#paint3_linear_1118_262)"/>
<path d="M12 7C8.68629 7 6 9.68629 6 13C6 14.0929 6.48949 15.1175 7 16H17C17.5105 15.1175 18 14.0929 18 13C18 9.68629 15.3137 7 12 7Z" fill="url(#paint4_linear_1118_262)"/>
<path d="M12 12C10.3431 12 9 13.1939 9 14.6667C9 14.9629 9.04454 15.2478 9.13719 15.5141C9.24839 15.8335 9.57905 16 9.91733 16H14.0827C14.4209 16 14.7516 15.8335 14.8628 15.5141C14.9555 15.2478 15 14.9629 15 14.6667C15 13.1939 13.6569 12 12 12Z" fill="url(#paint5_linear_1118_262)"/>
</g>
<defs>
<linearGradient id="paint0_linear_1118_262" x1="11.1762" y1="16.6364" x2="13.2127" y2="20.8711" gradientUnits="userSpaceOnUse">
<stop stop-color="#5A6978"/>
<stop offset="1" stop-color="#3C3B3B"/>
</linearGradient>
<linearGradient id="paint1_linear_1118_262" x1="9.25395" y1="4.78182" x2="14.3242" y2="17.333" gradientUnits="userSpaceOnUse">
<stop stop-color="#5A6978"/>
<stop offset="1" stop-color="#3C3B3B"/>
</linearGradient>
<linearGradient id="paint2_linear_1118_262" x1="10.9412" y1="4.57313" x2="11.5613" y2="15.4575" gradientUnits="userSpaceOnUse">
<stop stop-color="#30B8F2"/>
<stop offset="1" stop-color="#0597E9"/>
</linearGradient>
<linearGradient id="paint3_linear_1118_262" x1="10.9016" y1="20.1273" x2="10.9764" y2="21.1647" gradientUnits="userSpaceOnUse">
<stop stop-color="#5A6978"/>
<stop offset="1" stop-color="#3C3B3B"/>
</linearGradient>
<linearGradient id="paint4_linear_1118_262" x1="11.2941" y1="7.36844" x2="11.6786" y2="14.3671" gradientUnits="userSpaceOnUse">
<stop stop-color="#3397F5"/>
<stop offset="1" stop-color="#126CD7"/>
</linearGradient>
<linearGradient id="paint5_linear_1118_262" x1="12" y1="12.1081" x2="12" y2="16" gradientUnits="userSpaceOnUse">
<stop stop-color="#C1DEF6"/>
<stop offset="1" stop-color="#5EBBFF"/>
</linearGradient>
<clipPath id="clip0_1118_262">
<rect width="24" height="24" fill="white"/>
</clipPath>
</defs>
</svg>
