<svg width="24" height="24" viewBox="0 0 24 24" fill="none" xmlns="http://www.w3.org/2000/svg">
<g clip-path="url(#clip0_953_206)">
<path d="M20.4 16.1139V20C20.4 20.2209 20.2209 20.4 20 20.4H4C3.77909 20.4 3.6 20.2209 3.6 20V16.1139C3.6 16.0836 3.60344 16.0534 3.61024 16.0239L6.40576 3.91006C6.44764 3.72856 6.60925 3.6 6.79551 3.6H17.2045C17.3907 3.6 17.5524 3.72856 17.5942 3.91006L20.3898 16.0239C20.3966 16.0534 20.4 16.0836 20.4 16.1139Z" stroke="black" stroke-width="1.2"/>
<mask id="path-2-inside-1_953_206" fill="white">
<rect x="3" y="16" width="18" height="5" rx="1"/>
</mask>
<rect x="3" y="16" width="18" height="5" rx="1" stroke="black" stroke-width="2.4" mask="url(#path-2-inside-1_953_206)"/>
<path d="M9 13L13 7" stroke="#111111" stroke-width="1.2" stroke-linecap="round"/>
<path d="M12 13H15" stroke="#111111" stroke-width="1.2" stroke-linecap="round"/>
</g>
<defs>
<clipPath id="clip0_953_206">
<rect width="24" height="24" fill="white"/>
</clipPath>
</defs>
</svg>
