<?xml version="1.0" encoding="UTF-8" standalone="no"?>
<svg xmlns:inkscape="http://www.inkscape.org/namespaces/inkscape" xmlns:sodipodi="http://sodipodi.sourceforge.net/DTD/sodipodi-0.dtd" xmlns="http://www.w3.org/2000/svg" xmlns:svg="http://www.w3.org/2000/svg" width="24" height="24" viewBox="0 0 24 24" fill="none" version="1.1" id="svg4" sodipodi:docname="drive-removable-media.svg" inkscape:version="1.4 (e7c3feb100, 2024-10-09)">
    <defs id="defs1">
        <style id="current-color-scheme" type="text/css">
            .ColorScheme-Text { color:#e6f0f5; }
            .ColorScheme-Highlight { color:#2179cb; }
            .ColorScheme-Background { color:#e4e4e4; }
        </style>
    </defs>
    <sodipodi:namedview id="namedview4" pagecolor="#ffffff" bordercolor="#000000" borderopacity="0.25" inkscape:showpageshadow="2" inkscape:pageopacity="0.0" inkscape:pagecheckerboard="0" inkscape:deskcolor="#d1d1d1" inkscape:zoom="33.291667" inkscape:cx="11.984981" inkscape:cy="12" inkscape:window-width="1920" inkscape:window-height="1008" inkscape:window-x="0" inkscape:window-y="0" inkscape:window-maximized="1" inkscape:current-layer="svg4"/>
    <g clip-path="url(#clip0_945_344)" id="g4">
        <path id="path2" d="m 15,8 c 0,-0.55228 0.4477,-1 1,-1 h 2 c 0.5523,0 1,0.44772 1,1 v 2 h -4 z m -1,3 c 0,-0.5523 0.4477,-1 1,-1 h 4 c 0.5523,0 1,0.4477 1,1 v 7 c 0,1.1046 -0.8954,2 -2,2 h -2 c -1.1046,0 -2,-0.8954 -2,-2 z" style="stroke:#000000;stroke-opacity:1"/>
        <path d="M12 19C8.13401 19 5 15.866 5 12C5 8.13401 8.13401 5 12 5C13.0112 5 13.9722 5.21439 14.8403 5.6002" stroke="black" stroke-width="1.2" stroke-linecap="round" id="path3"/>
        <path d="M12 14C10.8954 14 10 13.1046 10 12C10 10.8954 10.8954 10 12 10" stroke="black" stroke-width="1.2" stroke-linecap="round" id="path4"/>
        <path id="path2" d="m 15,8 c 0,-0.55228 0.4477,-1 1,-1 h 2 c 0.5523,0 1,0.44772 1,1 v 2 h -4 z m -1,3 c 0,-0.5523 0.4477,-1 1,-1 h 4 c 0.5523,0 1,0.4477 1,1 v 7 c 0,1.1046 -0.8954,2 -2,2 h -2 c -1.1046,0 -2,-0.8954 -2,-2 z" style="stroke:currentColor;opacity:0.5;" class="ColorScheme-Highlight"/>
        <path d="M12 19C8.13401 19 5 15.866 5 12C5 8.13401 8.13401 5 12 5C13.0112 5 13.9722 5.21439 14.8403 5.6002" style="stroke:currentColor;opacity:0.5;" class="ColorScheme-Highlight" stroke-width="1.2" stroke-linecap="round" id="path3"/>
        <path d="M12 14C10.8954 14 10 13.1046 10 12C10 10.8954 10.8954 10 12 10" style="stroke:currentColor;opacity:0.5;" class="ColorScheme-Highlight" stroke-width="1.2" stroke-linecap="round" id="path4"/>
    </g>
    <defs id="defs4">
        <clipPath id="clip0_945_344">
            <rect width="24" height="24" fill="white" id="rect4"/>
        </clipPath>
    </defs>
</svg>
