<?xml version="1.0"?>
<svg xmlns="http://www.w3.org/2000/svg" width="24" height="24" viewBox="0 0 24 24" fill="none">
    <defs id="defs1">
        <style id="current-color-scheme" type="text/css">
            .ColorScheme-Text { color:#e6f0f5; }
            .ColorScheme-Highlight { color:#2179cb; }
            .ColorScheme-Background { color:#e4e4e4; }
        </style>
    </defs>
    <g clip-path="url(#clip0_889_205)">
        <rect x="5" y="5.00003" width="14" height="14" rx="2" stroke="#ffffff" stroke-width="1.2"/>
        <path d="M10 10.618L10 13.382C10 14.1253 10.7823 14.6088 11.4472 14.2764L14.2111 12.8944C14.9482 12.5259 14.9482 11.4741 14.2111 11.1056L11.4472 9.72361C10.7823 9.39116 10 9.87465 10 10.618Z" stroke="#ffffff" stroke-width="1.2"/>
        <rect x="5" y="5.00003" width="14" height="14" rx="2" style="stroke:currentColor;opacity:0.5" class="ColorScheme-Highlight" stroke-width="1.2"/>
        <path d="M10 10.618L10 13.382C10 14.1253 10.7823 14.6088 11.4472 14.2764L14.2111 12.8944C14.9482 12.5259 14.9482 11.4741 14.2111 11.1056L11.4472 9.72361C10.7823 9.39116 10 9.87465 10 10.618Z" style="stroke:currentColor;opacity:0.5" class="ColorScheme-Highlight" stroke-width="1.2"/>
    </g>
    <defs>
        <clipPath id="clip0_889_205">
            <rect width="24" height="24" fill="white"/>
        </clipPath>
    </defs>
</svg>
