<?xml version="1.0" encoding="UTF-8" standalone="no"?>
<svg xmlns:inkscape="http://www.inkscape.org/namespaces/inkscape" xmlns:sodipodi="http://sodipodi.sourceforge.net/DTD/sodipodi-0.dtd" xmlns="http://www.w3.org/2000/svg" xmlns:svg="http://www.w3.org/2000/svg" width="24" height="24" viewBox="0 0 24 24" fill="none" version="1.1" id="svg1" sodipodi:docname="folder-locked.svg" inkscape:version="1.4 (e7c3feb100, 2024-10-09)">
   <defs id="defs1">
      <style id="current-color-scheme" type="text/css">
         .ColorScheme-Text { color:#e6f0f5; }
         .ColorScheme-Highlight { color:#2179cb; }
         .ColorScheme-Background { color:#e4e4e4; }
      </style>
   </defs>
   <defs id="defs1"/>
   <sodipodi:namedview id="namedview1" pagecolor="#ffffff" bordercolor="#ffffff" borderopacity="0.25" inkscape:showpageshadow="2" inkscape:pageopacity="0.0" inkscape:pagecheckerboard="0" inkscape:deskcolor="#d1d1d1" inkscape:zoom="23.540763" inkscape:cx="16.31213" inkscape:cy="14.761628" inkscape:window-width="1920" inkscape:window-height="1008" inkscape:window-x="0" inkscape:window-y="0" inkscape:window-maximized="1" inkscape:current-layer="svg1"/>
   <rect x="4" y="12" width="16" height="8" rx="1" fill="#ffffff" id="rect1"/>
   <path d="M 17.0396,12.022169 V 8.3420484 c 0,0 0,0 0,0 0,-8e-6 0,-4.4161518 -5.0396,-4.4161518 -5.0395997,0 -5.0395997,4.4161518 -5.0395997,4.4161518 0,0 0,0 0,0 v 3.6801206" stroke="#ffffff" stroke-width="1.08402" stroke-linecap="round" id="path1" style="stroke-linecap:butt"/>
   <rect x="4" y="12" width="16" height="8" rx="1" style="fill:currentColor;opacity:0.5" class="ColorScheme-Highlight" id="rect1"/>
   <path d="M 17.0396,12.022169 V 8.3420484 c 0,0 0,0 0,0 0,-8e-6 0,-4.4161518 -5.0396,-4.4161518 -5.0395997,0 -5.0395997,4.4161518 -5.0395997,4.4161518 0,0 0,0 0,0 v 3.6801206" style="stroke:currentColor;opacity:0.5;stroke-linecap:butt" class="ColorScheme-Highlight" stroke-width="1.08402" stroke-linecap="round" id="path1"/>
</svg>
