<svg width="24" height="24" viewBox="0 0 24 24" fill="none" xmlns="http://www.w3.org/2000/svg">
<g clip-path="url(#clip0_3017_2223)">
<mask id="mask0_3017_2223" style="mask-type:luminance" maskUnits="userSpaceOnUse" x="0" y="0" width="24" height="24">
<path d="M24 0H0V24H24V0Z" fill="white"/>
</mask>
<g mask="url(#mask0_3017_2223)">
<path d="M17 5H7C5.89543 5 5 5.89543 5 7V17C5 18.1046 5.89543 19 7 19H17C18.1046 19 19 18.1046 19 17V7C19 5.89543 18.1046 5 17 5Z" stroke="#DDDDDD" stroke-width="1.2"/>
<path d="M10 10.618V13.382C10 14.1253 10.7823 14.6088 11.4472 14.2764L14.2111 12.8944C14.9482 12.5259 14.9482 11.4741 14.2111 11.1056L11.4472 9.72356C10.7823 9.39111 10 9.8746 10 10.618Z" stroke="#DDDDDD" stroke-width="1.2"/>
</g>
</g>
<defs>
<clipPath id="clip0_3017_2223">
<rect width="24" height="24" fill="white"/>
</clipPath>
</defs>
</svg>
