<?xml version="1.0" encoding="UTF-8" standalone="no"?>
<svg xmlns:inkscape="http://www.inkscape.org/namespaces/inkscape" xmlns:sodipodi="http://sodipodi.sourceforge.net/DTD/sodipodi-0.dtd" xmlns="http://www.w3.org/2000/svg" xmlns:svg="http://www.w3.org/2000/svg" width="24" height="24" viewBox="0 0 24 24" fill="none" version="1.1" id="svg3" sodipodi:docname="folder-downloads.svg" inkscape:version="1.4 (e7c3feb100, 2024-10-09)">
    <defs id="defs1">
        <style id="current-color-scheme" type="text/css">
            .ColorScheme-Text { color:#e6f0f5; }
            .ColorScheme-Highlight { color:#2179cb; }
            .ColorScheme-Background { color:#e4e4e4; }
        </style>
    </defs>
    <sodipodi:namedview id="namedview3" pagecolor="#ffffff" bordercolor="#ffffff" borderopacity="0.25" inkscape:showpageshadow="2" inkscape:pageopacity="0.0" inkscape:pagecheckerboard="0" inkscape:deskcolor="#d1d1d1" inkscape:zoom="23.540763" inkscape:cx="8.6233398" inkscape:cy="11.873022" inkscape:window-width="1920" inkscape:window-height="1008" inkscape:window-x="0" inkscape:window-y="0" inkscape:window-maximized="1" inkscape:current-layer="svg3"/>
    <g clip-path="url(#clip0_889_190)" id="g3" style="stroke-width:1.3;stroke-dasharray:none">
        <path id="path2" d="m 6,13 5.2929,5.2929 c 0.3905,0.3905 1.0237,0.3905 1.4142,0 L 18,13 M 6,19 h 12" style="fill:none;stroke:#ffffff;stroke-opacity:1;stroke-linecap:round;stroke-width:1.3;stroke-dasharray:none"/>
        <path d="M 10,13 V 6 c 0,-0.55228 0.4477,-1 1,-1 h 2 c 0.5523,0 1,0.44772 1,1 v 7" stroke="#ffffff" stroke-width="1.2" stroke-linecap="round" stroke-linejoin="round" id="path3" style="display:inline;stroke-width:1.3;stroke-dasharray:none"/>
        <path id="path2" d="m 6,13 5.2929,5.2929 c 0.3905,0.3905 1.0237,0.3905 1.4142,0 L 18,13 M 6,19 h 12" style="fill:none;stroke:currentColor;opacity:0.5;stroke-linecap:round;stroke-width:1.3;stroke-dasharray:none" class="ColorScheme-Highlight"/>
        <path d="M 10,13 V 6 c 0,-0.55228 0.4477,-1 1,-1 h 2 c 0.5523,0 1,0.44772 1,1 v 7" class="ColorScheme-Highlight" stroke-width="1.2" stroke-linecap="round" stroke-linejoin="round" id="path3" style="stroke:currentColor;opacity:0.5;display:inline;stroke-width:1.3;stroke-dasharray:none"/>
    </g>
    <defs id="defs3">
        <clipPath id="clip0_889_190">
            <rect width="24" height="24" fill="white" id="rect3"/>
        </clipPath>
    </defs>
</svg>
