<svg width="24" height="24" viewBox="0 0 24 24" fill="none" xmlns="http://www.w3.org/2000/svg">
<g clip-path="url(#clip0_3017_2156)">
<mask id="mask0_3017_2156" style="mask-type:luminance" maskUnits="userSpaceOnUse" x="0" y="0" width="24" height="24">
<path d="M24 0H0V24H24V0Z" fill="white"/>
</mask>
<g mask="url(#mask0_3017_2156)">
<path d="M7 18C8.10457 18 9 17.1046 9 16C9 14.8954 8.10457 14 7 14C5.89543 14 5 14.8954 5 16C5 17.1046 5.89543 18 7 18Z" stroke="#DDDDDD" stroke-width="1.2"/>
<path d="M16 18C17.1046 18 18 17.1046 18 16C18 14.8954 17.1046 14 16 14C14.8954 14 14 14.8954 14 16C14 17.1046 14.8954 18 16 18Z" stroke="#DDDDDD" stroke-width="1.2"/>
<path d="M9 16V7C9 6.44772 9.44772 6 10 6H17C17.5523 6 18 6.44772 18 7V16" stroke="#DDDDDD" stroke-width="1.2" stroke-linecap="round" stroke-linejoin="round"/>
<path d="M9 9H18" stroke="#DDDDDD" stroke-width="1.2" stroke-linecap="round" stroke-linejoin="round"/>
</g>
</g>
<defs>
<clipPath id="clip0_3017_2156">
<rect width="24" height="24" fill="white"/>
</clipPath>
</defs>
</svg>
