<?xml version="1.0" encoding="UTF-8" standalone="no"?>
<svg xmlns:inkscape="http://www.inkscape.org/namespaces/inkscape" xmlns:sodipodi="http://sodipodi.sourceforge.net/DTD/sodipodi-0.dtd" xmlns="http://www.w3.org/2000/svg" xmlns:svg="http://www.w3.org/2000/svg" width="24" height="24" viewBox="0 0 24 24" fill="none" version="1.1" id="svg2" sodipodi:docname="folder-images.svg" inkscape:version="1.4 (e7c3feb100, 2024-10-09)">
    <defs id="defs1">
        <style id="current-color-scheme" type="text/css">
            .ColorScheme-Text { color:#e6f0f5; }
            .ColorScheme-Highlight { color:#2179cb; }
            .ColorScheme-Background { color:#e4e4e4; }
        </style>
    </defs>
    <sodipodi:namedview id="namedview2" pagecolor="#ffffff" bordercolor="#ffffff" borderopacity="0.25" inkscape:showpageshadow="2" inkscape:pageopacity="0.0" inkscape:pagecheckerboard="0" inkscape:deskcolor="#d1d1d1" inkscape:zoom="33.291667" inkscape:cx="11.984981" inkscape:cy="12" inkscape:window-width="1920" inkscape:window-height="1008" inkscape:window-x="0" inkscape:window-y="0" inkscape:window-maximized="1" inkscape:current-layer="svg2"/>
    <g clip-path="url(#clip0_889_200)" id="g1">
        <path id="circle1" style="stroke:#ffffff;stroke-width:1.2" d="M 16,9.5 A 1.5,1.5 0 0 1 14.5,11 1.5,1.5 0 0 1 13,9.5 1.5,1.5 0 0 1 14.5,8 1.5,1.5 0 0 1 16,9.5 Z M 5,16 9.23748,13.3585 c 0.34724,-0.2165 0.79132,-0.1996 1.12112,0.0427 l 2.3953,1.7599 c 0.336,0.2468 0.7899,0.2593 1.1389,0.0314 l 1.4786,-0.9657 c 0.342,-0.2233 0.7854,-0.2162 1.1201,0.018 L 19,16 M 7,5 h 10 c 1.108,0 2,0.892 2,2 v 10 c 0,1.108 -0.892,2 -2,2 H 7 C 5.892,19 5,18.108 5,17 V 7 C 5,5.892 5.892,5 7,5 Z"/>
        <path id="circle1" style="stroke:currentColor;opacity:0.5;stroke-width:1.2" class="ColorScheme-Highlight" d="M 16,9.5 A 1.5,1.5 0 0 1 14.5,11 1.5,1.5 0 0 1 13,9.5 1.5,1.5 0 0 1 14.5,8 1.5,1.5 0 0 1 16,9.5 Z M 5,16 9.23748,13.3585 c 0.34724,-0.2165 0.79132,-0.1996 1.12112,0.0427 l 2.3953,1.7599 c 0.336,0.2468 0.7899,0.2593 1.1389,0.0314 l 1.4786,-0.9657 c 0.342,-0.2233 0.7854,-0.2162 1.1201,0.018 L 19,16 M 7,5 h 10 c 1.108,0 2,0.892 2,2 v 10 c 0,1.108 -0.892,2 -2,2 H 7 C 5.892,19 5,18.108 5,17 V 7 C 5,5.892 5.892,5 7,5 Z"/>
    </g>
    <defs id="defs2">
        <clipPath id="clip0_889_200">
            <rect width="24" height="24" fill="white" id="rect2"/>
        </clipPath>
    </defs>
</svg>
