<svg width="24" height="24" viewBox="0 0 24 24" fill="none" xmlns="http://www.w3.org/2000/svg">
<path d="M3 12C4.22727 10.6667 7.74545 8 12 8C16.2545 8 19.7727 10.6667 21 12" stroke="#111111" stroke-width="1.2" stroke-linecap="round"/>
<circle cx="12" cy="13" r="5" stroke="#111111" stroke-width="1.2"/>
<path fill-rule="evenodd" clip-rule="evenodd" d="M14.9888 12.7389C14.6972 12.9051 14.3597 13 14 13C12.8954 13 12 12.1046 12 11C12 10.6403 12.0949 10.3028 12.2611 10.0112C12.1751 10.0038 12.088 10 12 10C10.3431 10 9 11.3431 9 13C9 14.6569 10.3431 16 12 16C13.6569 16 15 14.6569 15 13C15 12.912 14.9962 12.8249 14.9888 12.7389Z" fill="#111111"/>
</svg>
