<svg width="128" height="128" viewBox="0 0 128 128" fill="none" xmlns="http://www.w3.org/2000/svg">
<g clip-path="url(#clip0_731_1293)">
<path d="M17.9999 66.0003C15.7908 66.0003 13.9833 64.2065 14.1598 62.0045C14.5765 56.8071 15.8043 51.6984 17.8059 46.8661C20.3187 40.7998 24.0016 35.2878 28.6446 30.6449C33.2875 26.002 38.7994 22.319 44.8657 19.8063C49.698 17.8047 54.8067 16.5769 60.0041 16.1602C62.2062 15.9836 63.9999 17.7911 63.9999 20.0003L63.9999 62.0003C63.9999 64.2094 62.209 66.0003 59.9999 66.0003L17.9999 66.0003Z" fill="black" fill-opacity="0.15"/>
<path d="M110 66C112.209 66 114.017 67.7937 113.84 69.9958C113.423 75.1932 112.196 80.3019 110.194 85.1342C107.681 91.2005 103.998 96.7124 99.3553 101.355C94.7124 105.998 89.2004 109.681 83.1342 112.194C78.3018 114.196 73.1932 115.423 67.9958 115.84C65.7937 116.017 64 114.209 64 112L64 70C64 67.7909 65.7909 66 68 66H110Z" fill="black" fill-opacity="0.15"/>
<path d="M102 66C103.105 66 104.005 66.8961 103.95 67.9993C103.589 75.2088 101.283 82.2002 97.2588 88.2228C92.8635 94.8008 86.6164 99.9277 79.3073 102.955C71.9983 105.983 63.9556 106.775 56.1964 105.231C48.4371 103.688 41.3098 99.8784 35.7157 94.2843C30.1216 88.6902 26.312 81.5629 24.7686 73.8036C23.2252 66.0444 24.0173 58.0017 27.0448 50.6927C30.0723 43.3836 35.1992 37.1365 41.7772 32.7412C47.7998 28.717 54.7912 26.4107 62.0007 26.05C63.1039 25.9948 64 26.8954 64 28V64C64 65.1046 64.8954 66 66 66H102Z" fill="black" fill-opacity="0.15"/>
<path d="M17.9999 64.0003C15.7908 64.0003 13.9833 62.2065 14.1598 60.0045C14.5765 54.8071 15.8043 49.6984 17.8059 44.8661C20.3187 38.7998 24.0016 33.2878 28.6446 28.6449C33.2875 24.002 38.7994 20.319 44.8657 17.8063C49.698 15.8047 54.8067 14.5769 60.0041 14.1602C62.2062 13.9836 63.9999 15.7911 63.9999 18.0003L63.9999 60.0003C63.9999 62.2094 62.209 64.0003 59.9999 64.0003L17.9999 64.0003Z" fill="url(#paint0_linear_731_1293)"/>
<path d="M110 64C112.209 64 114.017 65.7937 113.84 67.9958C113.423 73.1932 112.196 78.3019 110.194 83.1342C107.681 89.2005 103.998 94.7124 99.3553 99.3553C94.7124 103.998 89.2004 107.681 83.1342 110.194C78.3018 112.196 73.1932 113.423 67.9958 113.84C65.7937 114.017 64 112.209 64 110L64 68C64 65.7909 65.7909 64 68 64H110Z" fill="url(#paint1_linear_731_1293)"/>
<path d="M102 64C103.105 64 104.005 64.8961 103.95 65.9993C103.589 73.2088 101.283 80.2002 97.2588 86.2228C92.8635 92.8008 86.6164 97.9277 79.3073 100.955C71.9983 103.983 63.9556 104.775 56.1964 103.231C48.4371 101.688 41.3098 97.8784 35.7157 92.2843C30.1216 86.6902 26.312 79.5629 24.7686 71.8036C23.2252 64.0444 24.0173 56.0017 27.0448 48.6927C30.0723 41.3836 35.1992 35.1365 41.7772 30.7412C47.7998 26.717 54.7912 24.4107 62.0007 24.05C63.1039 23.9948 64 24.8954 64 26V62C64 63.1046 64.8954 64 66 64H102Z" fill="url(#paint2_linear_731_1293)"/>
<circle cx="64" cy="64" r="30" fill="url(#paint3_linear_731_1293)"/>
<circle cx="64" cy="66" r="20" fill="black" fill-opacity="0.15"/>
<circle cx="64" cy="64" r="20" fill="url(#paint4_linear_731_1293)"/>
</g>
<defs>
<linearGradient id="paint0_linear_731_1293" x1="34.8113" y1="19.9093" x2="76.4634" y2="103.415" gradientUnits="userSpaceOnUse">
<stop stop-color="#505A62"/>
<stop offset="1" stop-color="#1F1F1F"/>
</linearGradient>
<linearGradient id="paint1_linear_731_1293" x1="47.2423" y1="26.7273" x2="88.8944" y2="110.233" gradientUnits="userSpaceOnUse">
<stop stop-color="#505A62"/>
<stop offset="1" stop-color="#1F1F1F"/>
</linearGradient>
<linearGradient id="paint2_linear_731_1293" x1="64" y1="24" x2="79.3333" y2="104" gradientUnits="userSpaceOnUse">
<stop stop-color="#E9F8FF"/>
<stop offset="1" stop-color="#AFC4CE"/>
</linearGradient>
<linearGradient id="paint3_linear_731_1293" x1="60.4706" y1="36.6213" x2="64.3514" y2="86.2608" gradientUnits="userSpaceOnUse">
<stop stop-color="#42B0FF"/>
<stop offset="1" stop-color="#39C190"/>
</linearGradient>
<linearGradient id="paint4_linear_731_1293" x1="57.2969" y1="49.0909" x2="73.9578" y2="82.4931" gradientUnits="userSpaceOnUse">
<stop stop-color="#505A62"/>
<stop offset="1" stop-color="#1F1F1F"/>
</linearGradient>
<clipPath id="clip0_731_1293">
<rect width="128" height="128" fill="white"/>
</clipPath>
</defs>
</svg>
