<svg width="128" height="128" viewBox="0 0 128 128" fill="none" xmlns="http://www.w3.org/2000/svg">
<g clip-path="url(#clip0_731_1251)">
<path d="M109 113V15C109 11.6863 106.314 9 103 9H25C21.6863 9 19 11.6863 19 15V113C19 116.314 21.6863 119 25 119H103C106.314 119 109 116.314 109 113Z" fill="url(#paint0_linear_731_1251)"/>
<path d="M109 115V27C109 23.6863 106.314 21 103 21H25C21.6863 21 19 23.6863 19 27V115C19 118.314 21.6863 121 25 121H103C106.314 121 109 118.314 109 115Z" fill="black" fill-opacity="0.15"/>
<path d="M109 113V25C109 21.6863 106.314 19 103 19H25C21.6863 19 19 21.6863 19 25V113C19 116.314 21.6863 119 25 119H103C106.314 119 109 116.314 109 113Z" fill="url(#paint1_linear_731_1251)"/>
<rect x="38" y="6" width="4" height="20" rx="2" fill="black" fill-opacity="0.15"/>
<rect x="86" y="6" width="4" height="20" rx="2" fill="black" fill-opacity="0.15"/>
<rect x="26" y="6" width="4" height="20" rx="2" fill="black" fill-opacity="0.15"/>
<rect x="74" y="6" width="4" height="20" rx="2" fill="black" fill-opacity="0.15"/>
<rect x="50" y="6" width="4" height="20" rx="2" fill="black" fill-opacity="0.15"/>
<rect x="98" y="6" width="4" height="20" rx="2" fill="black" fill-opacity="0.15"/>
<rect x="62" y="6" width="4" height="20" rx="2" fill="black" fill-opacity="0.15"/>
<rect x="38" y="4" width="4" height="20" rx="2" fill="url(#paint2_linear_731_1251)"/>
<rect x="86" y="4" width="4" height="20" rx="2" fill="url(#paint3_linear_731_1251)"/>
<rect x="26" y="4" width="4" height="20" rx="2" fill="url(#paint4_linear_731_1251)"/>
<rect x="74" y="4" width="4" height="20" rx="2" fill="url(#paint5_linear_731_1251)"/>
<rect x="50" y="4" width="4" height="20" rx="2" fill="url(#paint6_linear_731_1251)"/>
<rect x="98" y="4" width="4" height="20" rx="2" fill="url(#paint7_linear_731_1251)"/>
<rect x="62" y="4" width="4" height="20" rx="2" fill="url(#paint8_linear_731_1251)"/>
<path fill-rule="evenodd" clip-rule="evenodd" d="M64 71C69.5228 71 74 66.5228 74 61C74 55.4772 69.5228 51 64 51C58.4772 51 54 55.4772 54 61C54 66.5228 58.4772 71 64 71ZM48 86.6364C48 80.2098 55.1634 75 64 75C72.8366 75 80 80.2098 80 86.6364V89C80 90.1046 79.1046 91 78 91H50C48.8954 91 48 90.1046 48 89V86.6364Z" fill="black" fill-opacity="0.15"/>
<path fill-rule="evenodd" clip-rule="evenodd" d="M64 69C69.5228 69 74 64.5228 74 59C74 53.4772 69.5228 49 64 49C58.4772 49 54 53.4772 54 59C54 64.5228 58.4772 69 64 69ZM48 84.6364C48 78.2098 55.1634 73 64 73C72.8366 73 80 78.2098 80 84.6364V87C80 88.1046 79.1046 89 78 89H50C48.8954 89 48 88.1046 48 87V84.6364Z" fill="url(#paint9_linear_731_1251)"/>
</g>
<defs>
<linearGradient id="paint0_linear_731_1251" x1="64" y1="119" x2="64" y2="9" gradientUnits="userSpaceOnUse">
<stop stop-color="#A27540"/>
<stop offset="1" stop-color="#DFBF6E"/>
</linearGradient>
<linearGradient id="paint1_linear_731_1251" x1="64" y1="119" x2="64" y2="19" gradientUnits="userSpaceOnUse">
<stop stop-color="#A27540"/>
<stop offset="1" stop-color="#EFCE76"/>
</linearGradient>
<linearGradient id="paint2_linear_731_1251" x1="39.4508" y1="6.05595" x2="45.555" y2="8.67513" gradientUnits="userSpaceOnUse">
<stop stop-color="#677B8D"/>
<stop offset="1" stop-color="#39464D"/>
</linearGradient>
<linearGradient id="paint3_linear_731_1251" x1="87.4508" y1="6.05595" x2="93.555" y2="8.67513" gradientUnits="userSpaceOnUse">
<stop stop-color="#677B8D"/>
<stop offset="1" stop-color="#39464D"/>
</linearGradient>
<linearGradient id="paint4_linear_731_1251" x1="27.4508" y1="6.05595" x2="33.555" y2="8.67513" gradientUnits="userSpaceOnUse">
<stop stop-color="#677B8D"/>
<stop offset="1" stop-color="#39464D"/>
</linearGradient>
<linearGradient id="paint5_linear_731_1251" x1="75.4508" y1="6.05595" x2="81.555" y2="8.67513" gradientUnits="userSpaceOnUse">
<stop stop-color="#677B8D"/>
<stop offset="1" stop-color="#39464D"/>
</linearGradient>
<linearGradient id="paint6_linear_731_1251" x1="51.4508" y1="6.05595" x2="57.555" y2="8.67513" gradientUnits="userSpaceOnUse">
<stop stop-color="#677B8D"/>
<stop offset="1" stop-color="#39464D"/>
</linearGradient>
<linearGradient id="paint7_linear_731_1251" x1="99.4508" y1="6.05595" x2="105.555" y2="8.67513" gradientUnits="userSpaceOnUse">
<stop stop-color="#677B8D"/>
<stop offset="1" stop-color="#39464D"/>
</linearGradient>
<linearGradient id="paint8_linear_731_1251" x1="63.4508" y1="6.05595" x2="69.555" y2="8.67513" gradientUnits="userSpaceOnUse">
<stop stop-color="#677B8D"/>
<stop offset="1" stop-color="#39464D"/>
</linearGradient>
<linearGradient id="paint9_linear_731_1251" x1="64.4848" y1="49" x2="64.4848" y2="79.5263" gradientUnits="userSpaceOnUse">
<stop stop-color="#FFF4D6"/>
<stop offset="1" stop-color="#F0CB7E"/>
</linearGradient>
<clipPath id="clip0_731_1251">
<rect width="128" height="128" fill="white"/>
</clipPath>
</defs>
</svg>
