<svg width="128" height="128" viewBox="0 0 128 128" fill="none" xmlns="http://www.w3.org/2000/svg">
<g clip-path="url(#clip0_731_1364)">
<path d="M91.203 18.3661C85.4566 12.11 78.4343 11 64 11C49.5657 11 42.5434 12.11 36.797 18.3661C29.5798 26.2232 22.3627 98.9018 34.5763 110.688C44.3472 120.116 56.2277 121 64 121C71.7723 121 83.6528 120.116 93.4237 110.688C105.637 98.9018 98.4202 26.2232 91.203 18.3661Z" fill="black" fill-opacity="0.15"/>
<path d="M90.4474 16.3661C84.8605 10.11 78.0333 8.99999 64 9C49.9667 8.99999 43.1394 10.11 37.5526 16.3661C30.5359 24.2232 23.5193 96.9018 35.3936 108.688C44.8931 118.116 56.4436 119 64 119C71.5564 119 83.1069 118.116 92.6064 108.688C104.481 96.9018 97.4641 24.2232 90.4474 16.3661Z" fill="url(#paint0_linear_731_1364)"/>
<rect x="63" y="9" width="2" height="51" rx="1" fill="url(#paint1_linear_731_1364)"/>
<rect x="57" y="21" width="14" height="26" rx="7" fill="url(#paint2_linear_731_1364)"/>
<rect x="59" y="23" width="10" height="22" rx="5" fill="url(#paint3_linear_731_1364)"/>
</g>
<defs>
<linearGradient id="paint0_linear_731_1364" x1="64" y1="9" x2="64" y2="119" gradientUnits="userSpaceOnUse">
<stop stop-color="#EFF3F5"/>
<stop offset="1" stop-color="#D9E0E4"/>
</linearGradient>
<linearGradient id="paint1_linear_731_1364" x1="63.7254" y1="14.2396" x2="67.314" y2="14.5417" gradientUnits="userSpaceOnUse">
<stop stop-color="#677B8D"/>
<stop offset="1" stop-color="#39464D"/>
</linearGradient>
<linearGradient id="paint2_linear_731_1364" x1="61.6539" y1="24.3091" x2="75.1709" y2="38.901" gradientUnits="userSpaceOnUse">
<stop stop-color="#505A62"/>
<stop offset="1" stop-color="#1F1F1F"/>
</linearGradient>
<linearGradient id="paint3_linear_731_1364" x1="64" y1="23" x2="64" y2="45" gradientUnits="userSpaceOnUse">
<stop stop-color="#EFF3F5"/>
<stop offset="1" stop-color="#B9C3C7"/>
</linearGradient>
<clipPath id="clip0_731_1364">
<rect width="128" height="128" fill="white"/>
</clipPath>
</defs>
</svg>
