<svg width="128" height="128" viewBox="0 0 128 128" fill="none" xmlns="http://www.w3.org/2000/svg">
<g clip-path="url(#clip0_830_230)">
<rect x="4" y="16" width="100" height="70" rx="10" fill="black" fill-opacity="0.15"/>
<rect x="24" y="46" width="100" height="70" rx="10" fill="black" fill-opacity="0.15"/>
<rect x="4" y="14" width="100" height="70" rx="10" fill="url(#paint0_linear_830_230)"/>
<rect x="9" y="19" width="90" height="55" rx="6" fill="url(#paint1_linear_830_230)"/>
<rect x="24" y="44" width="100" height="70" rx="10" fill="url(#paint2_linear_830_230)"/>
<rect x="29" y="49" width="90" height="55" rx="6" fill="url(#paint3_linear_830_230)"/>
<path d="M55.3604 68.653L46.1972 55.5358C45.2711 54.2101 46.2196 52.3904 47.8368 52.3904L49.6207 52.3904C50.7253 52.3904 51.6213 51.4838 51.6138 50.3792C51.52 36.5472 50.5994 37.1727 57 37.0241C63.445 36.8744 62.8961 37.0104 62.8326 50.3799C62.8273 51.4844 63.723 52.3904 64.8276 52.3904L66.1632 52.3904C67.7804 52.3904 68.7289 54.2101 67.8028 55.5358L58.6396 68.653C57.8435 69.7925 56.1565 69.7925 55.3604 68.653Z" fill="black" fill-opacity="0.15"/>
<path d="M55.3604 66.653L46.1972 53.5358C45.2711 52.2101 46.2196 50.3904 47.8368 50.3904L49.6207 50.3904C50.7253 50.3904 51.6213 49.4838 51.6138 48.3792C51.52 34.5472 50.5994 35.1727 57 35.0241C63.445 34.8744 62.8961 35.0104 62.8326 48.3799C62.8273 49.4844 63.723 50.3904 64.8276 50.3904L66.1632 50.3904C67.7804 50.3904 68.7289 52.2101 67.8028 53.5358L58.6396 66.653C57.8435 67.7925 56.1565 67.7925 55.3604 66.653Z" fill="url(#paint4_linear_830_230)"/>
<path d="M74 70.3703L74 87.2522C74 87.8045 74.448 88.2538 75.0002 88.2424C76.6095 88.2094 77.9983 88.09 79.243 87.8389C80.3068 87.6244 83.6227 92.4069 84.524 91.972C85.3453 91.5757 83.7617 85.983 84.524 85.3591C85.4914 84.5673 86.4405 83.575 87.4454 82.3388C87.7661 81.9442 87.7248 81.3712 87.3606 81.0163L75.6978 69.6541C75.0642 69.0368 74 69.4857 74 70.3703Z" fill="black" fill-opacity="0.15"/>
<path d="M73.5 70.3703L73.5 87.2522C73.5 88.0777 74.1713 88.7595 75.0104 88.7423C76.6283 88.7091 78.0425 88.5893 79.3211 88.3332C79.3323 88.336 79.3848 88.3475 79.493 88.4084C79.6443 88.4936 79.8353 88.636 80.0627 88.8332C80.5109 89.2218 81.0286 89.7586 81.5643 90.3142L81.5845 90.3352C82.1161 90.8865 82.6676 91.4576 83.1455 91.8614C83.3829 92.062 83.6268 92.2429 83.8599 92.3585C84.0683 92.4618 84.4083 92.5831 84.7413 92.4223C85.0779 92.2599 85.1796 91.9027 85.2196 91.6937C85.2671 91.4461 85.274 91.1482 85.263 90.8415C85.2409 90.2233 85.14 89.4419 85.042 88.6866L85.0389 88.6624C84.94 87.9007 84.8444 87.1635 84.8174 86.5769C84.8037 86.2795 84.8091 86.0453 84.8336 85.8786C84.8472 85.7852 84.8632 85.7393 84.8699 85.7221C85.8609 84.9066 86.8246 83.8953 87.8333 82.6542C88.3221 82.0529 88.2536 81.1883 87.7095 80.6582L76.0467 69.2959C75.0963 68.37 73.5 69.0434 73.5 70.3703Z" stroke="black" stroke-opacity="0.15"/>
<path d="M73.5 68.3703L73.5 85.2522C73.5 86.0777 74.1713 86.7595 75.0104 86.7423C76.6283 86.7091 78.0425 86.5893 79.3211 86.3332C79.3323 86.336 79.3848 86.3475 79.493 86.4084C79.6443 86.4936 79.8353 86.636 80.0627 86.8332C80.5109 87.2218 81.0286 87.7586 81.5643 88.3142L81.5845 88.3352C82.1161 88.8865 82.6676 89.4576 83.1455 89.8614C83.3829 90.062 83.6268 90.2429 83.8599 90.3585C84.0683 90.4618 84.4083 90.5831 84.7413 90.4223C85.0779 90.2599 85.1796 89.9027 85.2196 89.6937C85.2671 89.4461 85.274 89.1482 85.263 88.8415C85.2409 88.2233 85.14 87.4419 85.042 86.6866L85.0389 86.6624C84.94 85.9007 84.8444 85.1635 84.8174 84.5769C84.8037 84.2795 84.8091 84.0453 84.8336 83.8786C84.8472 83.7852 84.8632 83.7393 84.8699 83.7221C85.8609 82.9066 86.8246 81.8953 87.8333 80.6542C88.3221 80.0529 88.2536 79.1883 87.7095 78.6582L76.0467 67.2959C75.0963 66.37 73.5 67.0434 73.5 68.3703Z" fill="url(#paint5_linear_830_230)" stroke="url(#paint6_linear_830_230)"/>
</g>
<defs>
<linearGradient id="paint0_linear_830_230" x1="37.2423" y1="22.9091" x2="59.9601" y2="87.974" gradientUnits="userSpaceOnUse">
<stop stop-color="#505A62"/>
<stop offset="1" stop-color="#1F1F1F"/>
</linearGradient>
<linearGradient id="paint1_linear_830_230" x1="48.7059" y1="21.6269" x2="51.3128" y2="71.5394" gradientUnits="userSpaceOnUse">
<stop stop-color="#589FF2"/>
<stop offset="0.506666" stop-color="#177BCC"/>
<stop offset="1" stop-color="#1C60AF"/>
</linearGradient>
<linearGradient id="paint2_linear_830_230" x1="57.2423" y1="52.9091" x2="79.9601" y2="117.974" gradientUnits="userSpaceOnUse">
<stop stop-color="#505A62"/>
<stop offset="1" stop-color="#1F1F1F"/>
</linearGradient>
<linearGradient id="paint3_linear_830_230" x1="68.7059" y1="51.6269" x2="71.3128" y2="101.539" gradientUnits="userSpaceOnUse">
<stop stop-color="#42B0FF"/>
<stop offset="0.506666" stop-color="#3397F5"/>
<stop offset="1" stop-color="#126CD7"/>
</linearGradient>
<linearGradient id="paint4_linear_830_230" x1="57" y1="35" x2="57" y2="69" gradientUnits="userSpaceOnUse">
<stop stop-color="#DBE4E8"/>
<stop offset="1" stop-color="#B9C3C7"/>
</linearGradient>
<linearGradient id="paint5_linear_830_230" x1="75" y1="67.5" x2="73.3407" y2="88.6234" gradientUnits="userSpaceOnUse">
<stop stop-color="#505A62"/>
<stop offset="1" stop-color="#1F1F1F"/>
</linearGradient>
<linearGradient id="paint6_linear_830_230" x1="81" y1="66" x2="81" y2="90" gradientUnits="userSpaceOnUse">
<stop stop-color="#DBE4E8"/>
<stop offset="1" stop-color="#B9C3C7"/>
</linearGradient>
<clipPath id="clip0_830_230">
<rect width="128" height="128" fill="white"/>
</clipPath>
</defs>
</svg>
