<svg width="128" height="128" viewBox="0 0 128 128" fill="none" xmlns="http://www.w3.org/2000/svg">
<path d="M20 20V88C20 91.3137 22.6863 94 26 94H102C105.314 94 108 91.3137 108 88V26.4C108 23.0863 105.314 20.4 102 20.4H63.7061C62.0242 20.4 60.4196 19.6941 59.2832 18.4544L56.9835 15.9457C55.8471 14.7059 54.2424 14 52.5606 14L26 14C22.6863 14 20 16.6863 20 20Z" fill="url(#paint0_linear_3583_616)"/>
<path d="M14 50.4C14 45.9817 17.5817 42.4 22 42.4H48.7224C50.9612 42.4 53.0975 41.4619 54.6125 39.8136L55.7405 38.5864C57.2554 36.9381 59.3918 36 61.6305 36H106C110.418 36 114 39.5817 114 44V108C114 112.418 110.418 116 106 116H22C17.5817 116 14 112.418 14 108L14 50.4Z" fill="black" fill-opacity="0.15"/>
<path d="M14 50.4C14 45.9817 17.5817 42.4 22 42.4H48.7224C50.9612 42.4 53.0975 41.4619 54.6125 39.8136L55.7405 38.5864C57.2554 36.9381 59.3918 36 61.6305 36H106C110.418 36 114 39.5817 114 44V108C114 112.418 110.418 116 106 116H22C17.5817 116 14 112.418 14 108L14 50.4Z" fill="url(#paint1_linear_3583_616)"/>
<path d="M57 76V68.4999C57 68.4999 57 68.4999 57 68.4999C57 68.4999 57 61 64.5 61C72 61 72 68.4999 72 68.4999C72 68.4999 72 68.4999 72 68.4999V76" stroke="url(#paint2_linear_3583_616)" stroke-width="4"/>
<rect x="49" y="72" width="30" height="19" rx="2" fill="url(#paint3_linear_3583_616)"/>
<defs>
<linearGradient id="paint0_linear_3583_616" x1="49.2532" y1="24.1818" x2="80.6306" y2="93.3789" gradientUnits="userSpaceOnUse">
<stop stop-color="#505A62"/>
<stop offset="1" stop-color="#1F1F1F"/>
</linearGradient>
<linearGradient id="paint1_linear_3583_616" x1="50.2697" y1="44.2238" x2="72.3286" y2="103.38" gradientUnits="userSpaceOnUse">
<stop stop-color="#677B8D"/>
<stop offset="1" stop-color="#39464D"/>
</linearGradient>
<linearGradient id="paint2_linear_3583_616" x1="64.5" y1="61" x2="64.5" y2="76" gradientUnits="userSpaceOnUse">
<stop stop-color="#EFF3F5"/>
<stop offset="1" stop-color="#B4D8F1"/>
</linearGradient>
<linearGradient id="paint3_linear_3583_616" x1="64" y1="72.5135" x2="64" y2="91" gradientUnits="userSpaceOnUse">
<stop stop-color="#EFF3F5"/>
<stop offset="1" stop-color="#B4D8F1"/>
</linearGradient>
</defs>
</svg>
