<svg width="128" height="128" viewBox="0 0 128 128" fill="none" xmlns="http://www.w3.org/2000/svg">
<defs>
    <style id="current-color-scheme" type="text/css">
        .ColorScheme-Text { color:#e6f0f5; }
        .ColorScheme-Highlight { color:#2179cb; }
        .ColorScheme-Background { color:#e4e4e4; }
    </style>
</defs>
<path fill-rule="evenodd" clip-rule="evenodd" d="M51 17.0365V25V25.0001C45.5034 26.7413 40.4849 29.5574 36.1912 33.2014L30.4998 29.9155C28.336 28.6662 25.5504 28.8007 23.7179 30.4992C21.837 32.2424 19.4986 34.8108 17.3686 38.5C14.9582 42.6749 13.735 46.4203 13.212 49.0041C12.8252 50.9154 13.9077 52.6676 15.5964 53.6426L21.886 57.2739C21.3051 60.0917 21 63.0102 21 66C21 68.9898 21.3051 71.9083 21.886 74.7261L15.5964 78.3574C13.9077 79.3324 12.8252 81.0846 13.212 82.9959C13.735 85.5797 14.9582 89.3251 17.3686 93.5C19.4986 97.1892 21.837 99.7576 23.7179 101.501C25.5504 103.199 28.336 103.334 30.4998 102.084L36.1912 98.7986C40.4849 102.443 45.5034 105.259 51 107V107V114.963C51 116.913 51.9763 118.727 53.8249 119.348C56.324 120.187 60.1793 121 65 121C69.2599 121 72.6535 120.259 75.1036 119.502C77.4907 118.764 79 116.419 79 113.92V107C79 106.772 78.9873 106.547 78.9625 106.325C84.0587 104.434 88.699 101.604 92.6733 98.0449C92.9302 98.2577 93.2084 98.452 93.5071 98.6244L100.404 102.606C102.092 103.581 104.151 103.642 105.613 102.352C107.589 100.607 110.221 97.6749 112.631 93.5C114.761 89.8108 115.816 86.5014 116.386 84.0009C116.94 81.5647 115.664 79.0851 113.5 77.8358L107.507 74.3756C107.113 74.1481 106.704 73.9704 106.287 73.8405C106.755 71.2983 107 68.6777 107 66C107 63.3223 106.755 60.7017 106.287 58.1595C106.704 58.0296 107.113 57.8519 107.507 57.6244L113.5 54.1642C115.664 52.915 116.94 50.4353 116.386 47.9991C115.816 45.4986 114.761 42.1892 112.631 38.5C110.221 34.3251 107.589 31.393 105.613 29.6482C104.151 28.3576 102.092 28.4189 100.404 29.3939L93.5071 33.3756C93.2084 33.5481 92.9302 33.7423 92.6733 33.9551C88.699 30.3965 84.0587 27.5664 78.9625 25.6747C78.9873 25.4532 79 25.2281 79 25V18.0797C79 15.5812 77.4907 13.236 75.1036 12.4982C72.6535 11.741 69.2599 11 65 11C60.1793 11 56.324 11.8133 53.8249 12.6524C51.9763 13.273 51 15.0866 51 17.0365Z" fill="black" fill-opacity="0.15"/>
<path fill-rule="evenodd" clip-rule="evenodd" d="M51 15.0365V23V23.0001C45.5034 24.7413 40.4849 27.5574 36.1912 31.2014L30.4998 27.9155C28.336 26.6662 25.5504 26.8007 23.7179 28.4992C21.837 30.2424 19.4986 32.8108 17.3686 36.5C14.9582 40.6749 13.735 44.4203 13.212 47.0041C12.8252 48.9154 13.9077 50.6676 15.5964 51.6426L21.886 55.2739C21.3051 58.0917 21 61.0102 21 64C21 66.9898 21.3051 69.9083 21.886 72.7261L15.5964 76.3574C13.9077 77.3324 12.8252 79.0846 13.212 80.9959C13.735 83.5797 14.9582 87.3251 17.3686 91.5C19.4986 95.1892 21.837 97.7576 23.7179 99.5008C25.5504 101.199 28.336 101.334 30.4998 100.084L36.1912 96.7986C40.4849 100.443 45.5034 103.259 51 105V105V112.963C51 114.913 51.9763 116.727 53.8249 117.348C56.324 118.187 60.1793 119 65 119C69.2599 119 72.6535 118.259 75.1036 117.502C77.4907 116.764 79 114.419 79 111.92V105C79 104.772 78.9873 104.547 78.9625 104.325C84.0587 102.434 88.699 99.6035 92.6733 96.0449C92.9302 96.2577 93.2084 96.452 93.5071 96.6244L100.404 100.606C102.092 101.581 104.151 101.642 105.613 100.352C107.589 98.607 110.221 95.6749 112.631 91.5C114.761 87.8108 115.816 84.5014 116.386 82.0009C116.94 79.5647 115.664 77.0851 113.5 75.8358L107.507 72.3756C107.113 72.1481 106.704 71.9704 106.287 71.8405C106.755 69.2983 107 66.6777 107 64C107 61.3223 106.755 58.7017 106.287 56.1595C106.704 56.0296 107.113 55.8519 107.507 55.6244L113.5 52.1642C115.664 50.915 116.94 48.4353 116.386 45.9991C115.816 43.4986 114.761 40.1892 112.631 36.5C110.221 32.3251 107.589 29.393 105.613 27.6482C104.151 26.3576 102.092 26.4189 100.404 27.3939L93.5071 31.3756C93.2084 31.5481 92.9302 31.7423 92.6733 31.9551C88.699 28.3965 84.0587 25.5664 78.9625 23.6747C78.9873 23.4532 79 23.2281 79 23V16.0797C79 13.5812 77.4907 11.236 75.1036 10.4982C72.6535 9.74098 69.2599 9 65 9C60.1793 9 56.324 9.81335 53.8249 10.6524C51.9763 11.273 51 13.0866 51 15.0365Z" fill="url(#paint0_linear_731_378)"/>
<rect x="35" y="49" width="60" height="8" rx="4" fill="white" fill-opacity="0.2"/>
<rect x="35" y="49" width="49" height="8" rx="4" fill="url(#paint1_linear_731_378)"/>
<rect x="35" y="71" width="60" height="8" rx="4" fill="white" fill-opacity="0.2"/>
<rect x="35" y="71" width="30" height="8" rx="4" fill="url(#paint2_linear_731_378)"/>
<circle cx="80" cy="55" r="7" fill="black" fill-opacity="0.15"/>
<circle cx="64" cy="77" r="7" fill="black" fill-opacity="0.15"/>
<circle cx="80" cy="53" r="7" fill="#EEEEEE"/>
<circle cx="64" cy="75" r="7" fill="#EEEEEE"/>
<defs>
<linearGradient id="paint0_linear_731_378" x1="47.5" y1="23" x2="95" y2="112.5" gradientUnits="userSpaceOnUse">
<stop stop-color="#505A62"/>
<stop offset="1" stop-color="#1F1F1F"/>
</linearGradient>
<linearGradient id="paint1_linear_731_378" x1="35" y1="53" x2="84" y2="53" gradientUnits="userSpaceOnUse">
<stop style="stop-color:currentColor;stop-opacity:0.8" class="ColorScheme-Highlight"/>
<stop offset="1" style="stop-color:currentColor" class="ColorScheme-Highlight"/>
</linearGradient>
<linearGradient id="paint2_linear_731_378" x1="35" y1="75" x2="65" y2="75" gradientUnits="userSpaceOnUse">
<stop style="stop-color:currentColor;stop-opacity:0.8" class="ColorScheme-Highlight"/>
<stop offset="1" style="stop-color:currentColor" class="ColorScheme-Highlight"/>
</linearGradient>
</defs>
</svg>
