<?xml version="1.0" encoding="UTF-8" standalone="no"?>
<svg xmlns:inkscape="http://www.inkscape.org/namespaces/inkscape" xmlns:sodipodi="http://sodipodi.sourceforge.net/DTD/sodipodi-0.dtd" xmlns="http://www.w3.org/2000/svg" xmlns:svg="http://www.w3.org/2000/svg" width="24" height="24" viewBox="0 0 24 24" fill="none" version="1.1" id="svg10" sodipodi:docname="kdeconnect-tray.svg" inkscape:version="1.4 (e7c3feb100, 2024-10-09)">
  <defs id="defs1">
    <style id="current-color-scheme" type="text/css">
      .ColorScheme-Text { color:#e6f0f5; }
      .ColorScheme-Text { color:#2179cb; }
      .ColorScheme-Background { color:#e4e4e4; }
    </style>
  </defs>
  <sodipodi:namedview id="namedview10" pagecolor="#ffffff" bordercolor="#ffffff" borderopacity="0.25" inkscape:showpageshadow="2" inkscape:pageopacity="0.0" inkscape:pagecheckerboard="0" inkscape:deskcolor="#d1d1d1" inkscape:zoom="21.890847" inkscape:cx="12.288241" inkscape:cy="18.249636" inkscape:window-width="1920" inkscape:window-height="952" inkscape:window-x="0" inkscape:window-y="0" inkscape:window-maximized="1" inkscape:current-layer="g9"/>
  <g clip-path="url(#clip0_965_236)" id="g9">
    <path id="path1" d="m 9,19 h 6 M 8,3 h 8 c 1.108,0 2,0.892 2,2 v 14 c 0,1.108 -0.892,2 -2,2 H 8 C 6.892,21 6,20.108 6,19 V 5 C 6,3.892 6.892,3 8,3 Z" style="stroke:#ffffff;stroke-opacity:1;stroke-linejoin:round;stroke-linecap:round;stroke-width:1.2;stroke-dasharray:none"/>
    <path id="rect23-0" style="opacity:1;mix-blend-mode:normal;fill:#ffffff;fill-opacity:1;stroke-width:1;stroke-linecap:round;stroke-linejoin:round;stroke-dasharray:none;paint-order:stroke markers fill" d="m 11.613281,8.2539062 c -0.304215,0 -0.550781,0.2446129 -0.550781,0.5488282 v 1.046875 L 10.294922,9.1367188 C 10.072068,8.929635 9.7266143,8.9431627 9.5195312,9.1660156 L 8.9921875,9.7324219 C 8.7851045,9.9552748 8.7966776,10.302683 9.0195312,10.509766 L 9.6152344,11.0625 h -0.8125 c -0.304216,0 -0.5488282,0.246566 -0.5488282,0.550781 v 0.773438 c 1e-7,0.304215 0.2446122,0.550781 0.5488282,0.550781 h 0.8105468 l -0.59375,0.550781 c -0.2229533,0.206977 -0.2362724,0.554392 -0.029297,0.777344 l 0.5273437,0.568359 c 0.2069756,0.222953 0.5524371,0.23432 0.7753911,0.02734 l 0.769531,-0.71484 v 1.050782 c 0,0.304216 0.246566,0.548828 0.550781,0.548828 h 0.773438 c 0.304215,0 0.550781,-0.244612 0.550781,-0.548828 v -1.046875 l 0.767578,0.71289 c 0.222853,0.207089 0.568308,0.193556 0.775391,-0.0293 l 0.527343,-0.566406 c 0.207079,-0.222852 0.19551,-0.570261 -0.02734,-0.777344 L 14.384766,12.9375 h 0.8125 c 0.304215,0 0.548828,-0.246566 0.548828,-0.550781 v -0.773438 c 0,-0.304215 -0.244613,-0.550781 -0.548828,-0.550781 h -0.810547 l 0.59375,-0.550781 c 0.222953,-0.206976 0.236272,-0.5543913 0.0293,-0.777344 L 14.482422,9.1660156 C 14.275446,8.9430629 13.929984,8.9316961 13.707031,9.1386719 L 12.9375,9.8535156 V 8.8027344 c 0,-0.3042153 -0.246566,-0.5488282 -0.550781,-0.5488282 z M 12,9.6699219 A 2.3297408,2.3297408 0 0 1 14.330078,12 2.3297408,2.3297408 0 0 1 12,14.330078 2.3297408,2.3297408 0 0 1 9.6699219,12 2.3297408,2.3297408 0 0 1 12,9.6699219 Z"/>
    <path id="path1" d="m 9,19 h 6 M 8,3 h 8 c 1.108,0 2,0.892 2,2 v 14 c 0,1.108 -0.892,2 -2,2 H 8 C 6.892,21 6,20.108 6,19 V 5 C 6,3.892 6.892,3 8,3 Z" style="stroke:currentColor;opacity:1;stroke-linejoin:round;stroke-linecap:round;stroke-width:1.2;stroke-dasharray:none" class="ColorScheme-Text"/>
    <path id="rect23-0" style="opacity:1;mix-blend-mode:normal;fill:currentColor;opacity:1;stroke-width:1;stroke-linecap:round;stroke-linejoin:round;stroke-dasharray:none;paint-order:stroke markers fill" class="ColorScheme-Text" d="m 11.613281,8.2539062 c -0.304215,0 -0.550781,0.2446129 -0.550781,0.5488282 v 1.046875 L 10.294922,9.1367188 C 10.072068,8.929635 9.7266143,8.9431627 9.5195312,9.1660156 L 8.9921875,9.7324219 C 8.7851045,9.9552748 8.7966776,10.302683 9.0195312,10.509766 L 9.6152344,11.0625 h -0.8125 c -0.304216,0 -0.5488282,0.246566 -0.5488282,0.550781 v 0.773438 c 1e-7,0.304215 0.2446122,0.550781 0.5488282,0.550781 h 0.8105468 l -0.59375,0.550781 c -0.2229533,0.206977 -0.2362724,0.554392 -0.029297,0.777344 l 0.5273437,0.568359 c 0.2069756,0.222953 0.5524371,0.23432 0.7753911,0.02734 l 0.769531,-0.71484 v 1.050782 c 0,0.304216 0.246566,0.548828 0.550781,0.548828 h 0.773438 c 0.304215,0 0.550781,-0.244612 0.550781,-0.548828 v -1.046875 l 0.767578,0.71289 c 0.222853,0.207089 0.568308,0.193556 0.775391,-0.0293 l 0.527343,-0.566406 c 0.207079,-0.222852 0.19551,-0.570261 -0.02734,-0.777344 L 14.384766,12.9375 h 0.8125 c 0.304215,0 0.548828,-0.246566 0.548828,-0.550781 v -0.773438 c 0,-0.304215 -0.244613,-0.550781 -0.548828,-0.550781 h -0.810547 l 0.59375,-0.550781 c 0.222953,-0.206976 0.236272,-0.5543913 0.0293,-0.777344 L 14.482422,9.1660156 C 14.275446,8.9430629 13.929984,8.9316961 13.707031,9.1386719 L 12.9375,9.8535156 V 8.8027344 c 0,-0.3042153 -0.246566,-0.5488282 -0.550781,-0.5488282 z M 12,9.6699219 A 2.3297408,2.3297408 0 0 1 14.330078,12 2.3297408,2.3297408 0 0 1 12,14.330078 2.3297408,2.3297408 0 0 1 9.6699219,12 2.3297408,2.3297408 0 0 1 12,9.6699219 Z"/>
  </g>
  <defs id="defs10">
    <linearGradient id="swatch18" inkscape:swatch="solid">
      <stop style="stop-color:#ffffff;stop-opacity:1;" offset="0" id="stop18"/>
    </linearGradient>
    <clipPath id="clip0_965_236">
      <rect width="24" height="24" fill="white" id="rect10"/>
    </clipPath>
  </defs>
</svg>
