<svg width="24" height="24" viewBox="0 0 24 24" fill="none" xmlns="http://www.w3.org/2000/svg">
<circle cx="12" cy="18" r="1" fill="#ffffff"/>
<path opacity="0.2" fill-rule="evenodd" clip-rule="evenodd" d="M11.9999 14.1C10.1872 14.1 8.83327 15.0152 8.42417 15.4243C8.18985 15.6586 7.80995 15.6586 7.57564 15.4243C7.34132 15.1899 7.34132 14.81 7.57564 14.5757C8.16654 13.9848 9.8126 12.9 11.9999 12.9C14.1872 12.9 15.8333 13.9848 16.4242 14.5757C16.6585 14.81 16.6585 15.1899 16.4242 15.4243C16.1899 15.6586 15.81 15.6586 15.5756 15.4243C15.1665 15.0152 13.8126 14.1 11.9999 14.1Z" fill="#ffffff"/>
<path opacity="0.2" fill-rule="evenodd" clip-rule="evenodd" d="M11.9999 10.1C9.12301 10.1 6.7885 11.0599 5.42417 12.4243C5.18985 12.6586 4.80995 12.6586 4.57564 12.4243C4.34132 12.1899 4.34132 11.81 4.57564 11.5757C6.2113 9.94007 8.8768 8.89999 11.9999 8.89999C15.123 8.89999 17.7885 9.94007 19.4242 11.5757C19.6585 11.81 19.6585 12.1899 19.4242 12.4243C19.1899 12.6586 18.81 12.6586 18.5756 12.4243C17.2113 11.0599 14.8768 10.1 11.9999 10.1Z" fill="#ffffff"/>
<path opacity="0.2" fill-rule="evenodd" clip-rule="evenodd" d="M12 6.27659C7.26317 6.27659 4.27861 8.49909 2.9421 9.83877C2.70845 10.073 2.35067 10.0492 2.14298 9.78576C1.93529 9.52228 1.95634 9.11883 2.18999 8.88463C3.68366 7.38743 6.92552 5 12 5C17.0745 5 20.3163 7.38743 21.81 8.88463C22.0437 9.11883 22.0647 9.52228 21.857 9.78576C21.6493 10.0492 21.2916 10.073 21.0579 9.83877C19.7214 8.49909 16.7368 6.27659 12 6.27659Z" fill="#ffffff"/>
</svg>
