<svg width="24" height="24" viewBox="0 0 24 24" fill="none" xmlns="http://www.w3.org/2000/svg">
<g clip-path="url(#clip0_3646_655)">
<path d="M9 16H15.5M12 4H18C19.1046 4 20 4.89543 20 6V13.5" stroke="#DDDDDD" stroke-width="1.2" stroke-linecap="round"/>
<rect x="4" y="4" width="6" height="8" rx="2" stroke="#DDDDDD" stroke-width="1.2"/>
<path d="M7 12V16.5C7 18.433 8.567 20 10.5 20V20H15" stroke="#DDDDDD" stroke-width="1.2" stroke-linecap="round"/>
<path d="M7 7V9" stroke="#DDDDDD" stroke-width="1.2" stroke-linecap="round"/>
<path d="M12 16V20" stroke="#DDDDDD" stroke-width="1.2" stroke-linecap="round" stroke-linejoin="round"/>
<rect x="16" y="19" width="6" height="3" fill="#DDDDDD"/>
<path d="M21 20L21 18.1818C21 18.1818 21 18.1818 21 18.1818C21 18.1818 21 16 19 16C17 16 17 18.1818 17 18.1818C17 18.1818 17 18.1818 17 18.1818L17 20" stroke="#DDDDDD" stroke-width="1.2" stroke-linecap="round"/>
</g>
<defs>
<clipPath id="clip0_3646_655">
<rect width="24" height="24" fill="white"/>
</clipPath>
</defs>
</svg>
