<?xml version="1.0" encoding="UTF-8" standalone="no"?>
<svg xmlns:inkscape="http://www.inkscape.org/namespaces/inkscape" xmlns:sodipodi="http://sodipodi.sourceforge.net/DTD/sodipodi-0.dtd" xmlns="http://www.w3.org/2000/svg" xmlns:svg="http://www.w3.org/2000/svg" width="24" height="24" viewBox="0 0 24 24" fill="none" version="1.1" id="svg3" sodipodi:docname="update-none.svg" inkscape:version="1.4 (e7c3feb100, 2024-10-09)">
    <defs id="defs1">
        <style id="current-color-scheme" type="text/css">
            .ColorScheme-Text { color:#e6f0f5; }
            .ColorScheme-Text { color:#2179cb; }
            .ColorScheme-Background { color:#e4e4e4; }
        </style>
    </defs>
    <defs id="defs3"/>
    <sodipodi:namedview id="namedview3" pagecolor="#ffffff" bordercolor="#ffffff" borderopacity="0.25" inkscape:showpageshadow="2" inkscape:pageopacity="0.0" inkscape:pagecheckerboard="0" inkscape:deskcolor="#d1d1d1" inkscape:zoom="5.4727118" inkscape:cx="-39.925362" inkscape:cy="6.8521788" inkscape:window-width="1920" inkscape:window-height="1018" inkscape:window-x="0" inkscape:window-y="0" inkscape:window-maximized="1" inkscape:current-layer="svg3"/>
    <path d="M12 8L15 12.3787L13.2414 12.3787L13.2414 14.2702C13.2414 15.2224 12.4695 15.9943 11.5172 15.9943C11.0411 15.9943 10.6552 15.6084 10.6552 15.1323L10.6552 12.3787L9 12.3787L12 8Z" stroke="currentColor" stroke-width="1.2" stroke-linejoin="round" id="path1" class="ColorScheme-Text"/>
    <path id="path3" d="m 4,12 c 0,-4.41828 3.58172,-8 8,-8 4.4183,0 8,3.58172 8,8 0,4.4183 -3.5817,8 -8,8 C 8.70515,20 5.87552,18.0081 4.64957,15.1629 M 4,18 v -3 h 3" style="stroke:currentColor;stroke-opacity:1;stroke-width:1.2;stroke-dasharray:none;stroke-linejoin:round;stroke-linecap:round" class="ColorScheme-Text"/>
    <path id="path4" d="m 4,12 c 0,-4.41828 3.58172,-8 8,-8 4.4183,0 8,3.58172 8,8 0,4.4183 -3.5817,8 -8,8 C 8.70515,20 5.87552,18.0081 4.64957,15.1629 M 4,18 v -3 h 3" style="opacity:1;stroke-width:1.2;stroke-dasharray:none;stroke-linejoin:round;stroke-linecap:round;stroke:currentColor;stroke-opacity:1" class="ColorScheme-Text"/>
</svg>
