<svg width="24" height="24" viewBox="0 0 24 24" fill="none" xmlns="http://www.w3.org/2000/svg">
<g clip-path="url(#clip0_975_237)">
<path d="M12.6768 9.21675L16.4968 5.64002C16.8082 5.34854 17.2912 5.3454 17.6063 5.63281C17.9586 5.95414 17.9621 6.50755 17.6141 6.83344L13.7941 10.4102C13.4827 10.7017 12.9997 10.7049 12.6846 10.4175C12.3323 10.0961 12.3287 9.54266 12.6768 9.21675Z" fill="url(#paint0_linear_975_237)"/>
<path d="M11.9898 9.2611C12.3872 8.9316 12.9701 8.95878 13.3351 9.32383L13.6633 9.65211C14.0338 10.0226 14.0555 10.6163 13.7131 11.0128L5.96229 19.989C5.58254 20.4288 4.90922 20.4534 4.49837 20.0425L2.77625 18.3203C2.35975 17.9037 2.39166 17.2192 2.8451 16.8433L11.9898 9.2611Z" fill="url(#paint1_linear_975_237)"/>
<path d="M19.445 9.67859L12.6855 2.70699C12.3052 2.31478 12.3857 1.7217 12.9271 1.79458C13.4884 1.87015 14.2081 2.15293 15 2.5C17.2662 3.49325 19.6364 5.14985 21.879 7.26628C22.2807 7.64533 22.2797 8.27978 21.8892 8.67031L20.87 9.68957C20.4752 10.0844 19.8336 10.0794 19.445 9.67859Z" fill="url(#paint2_linear_975_237)"/>
</g>
<defs>
<linearGradient id="paint0_linear_975_237" x1="17.0344" y1="6.14192" x2="17.6716" y2="9.55415" gradientUnits="userSpaceOnUse">
<stop stop-color="#8395A6"/>
<stop offset="1" stop-color="#677B8D"/>
</linearGradient>
<linearGradient id="paint1_linear_975_237" x1="11.544" y1="10.021" x2="13.2618" y2="17.4704" gradientUnits="userSpaceOnUse">
<stop stop-color="#5A6978"/>
<stop offset="1" stop-color="#3C3B3B"/>
</linearGradient>
<linearGradient id="paint2_linear_975_237" x1="18.4564" y1="3.82311" x2="16.0119" y2="6.26745" gradientUnits="userSpaceOnUse">
<stop stop-color="#C8D4DC"/>
<stop offset="1" stop-color="#919FA6"/>
</linearGradient>
<clipPath id="clip0_975_237">
<rect width="24" height="24" fill="white"/>
</clipPath>
</defs>
</svg>
