<?xml version="1.0" encoding="UTF-8" standalone="no"?>
<svg
   width="128"
   height="128"
   viewBox="0 0 128 128"
   fill="none"
   version="1.1"
   id="svg10"
   sodipodi:docname="folder-documents.svg"
   inkscape:version="1.4 (e7c3feb100, 2024-10-09)"
   xmlns:inkscape="http://www.inkscape.org/namespaces/inkscape"
   xmlns:sodipodi="http://sodipodi.sourceforge.net/DTD/sodipodi-0.dtd"
   xmlns="http://www.w3.org/2000/svg"
   xmlns:svg="http://www.w3.org/2000/svg">
  <sodipodi:namedview
     id="namedview10"
     pagecolor="#ffffff"
     bordercolor="#000000"
     borderopacity="0.25"
     inkscape:showpageshadow="2"
     inkscape:pageopacity="0.0"
     inkscape:pagecheckerboard="0"
     inkscape:deskcolor="#d1d1d1"
     inkscape:zoom="5.8046875"
     inkscape:cx="63.913863"
     inkscape:cy="64"
     inkscape:window-width="1920"
     inkscape:window-height="952"
     inkscape:window-x="0"
     inkscape:window-y="0"
     inkscape:window-maximized="1"
     inkscape:current-layer="svg10" />
  <defs
     id="defs1">
    <style
       id="current-color-scheme"
       type="text/css">
        .ColorScheme-Text { color:#e6f0f5; }
        .ColorScheme-Highlight { color:#2179cb; }
        .ColorScheme-Background { color:#e4e4e4; }
    </style>
  </defs>
  <path
     style="fill:currentColor;opacity:0.5"
     class="ColorScheme-Highlight"
     d="M20 20V88C20 91.3137 22.6863 94 26 94H102C105.314 94 108 91.3137 108 88V26.4C108 23.0863 105.314 20.4 102 20.4H63.7061C62.0242 20.4 60.4196 19.6941 59.2832 18.4544L56.9835 15.9457C55.8471 14.7059 54.2424 14 52.5606 14L26 14C22.6863 14 20 16.6863 20 20Z"
     id="path1" />
  <path
     style="fill:currentColor"
     class="ColorScheme-Background"
     d="M14 50.4C14 45.9817 17.5817 42.4 22 42.4H48.7224C50.9612 42.4 53.0975 41.4619 54.6125 39.8136L55.7405 38.5864C57.2554 36.9381 59.3918 36 61.6305 36H106C110.418 36 114 39.5817 114 44V108C114 112.418 110.418 116 106 116H22C17.5817 116 14 112.418 14 108L14 50.4Z"
     fill-opacity="0.15"
     id="path2" />
  <path
     d="M14 48.4C14 43.9817 17.5817 40.4 22 40.4H48.7224C50.9612 40.4 53.0975 39.4619 54.6125 37.8136L55.7405 36.5864C57.2554 34.9381 59.3918 34 61.6305 34H106C110.418 34 114 37.5817 114 42V106C114 110.418 110.418 114 106 114H22C17.5817 114 14 110.418 14 106L14 48.4Z"
     fill="url(#paint0_linear_853_174)"
     id="path3" />
  <path
     d="M48 55.3333C48 53.8606 49.1939 52.6667 50.6667 52.6667H69.3333C70.0181 52.6667 70.6766 52.9301 71.1724 53.4023L79.1724 61.0214C79.7009 61.5247 80 62.2226 80 62.9524V92.6667C80 94.1394 78.8061 95.3333 77.3333 95.3333H50.6667C49.1939 95.3333 48 94.1394 48 92.6667V55.3333Z"
     fill="url(#paint1_linear_853_174)"
     id="path4"
     style="fill:#ffffff;fill-opacity:1" />
  <path
     d="M68 60V56.5549C68 56.2484 67.7516 56 67.4451 56C67.185 56 66.9599 56.1806 66.9034 56.4345L66.2691 59.2892C65.6586 62.0364 68.0006 64.5384 70.782 64.1105L77.5436 63.0702C77.8062 63.0298 78 62.8039 78 62.5382C78 62.241 77.759 62 77.4618 62H70C68.8954 62 68 61.1046 68 60Z"
     fill="url(#paint2_linear_853_174)"
     id="path5" />
  <defs
     id="defs10">
    <linearGradient
       id="paint0_linear_853_174"
       x1="58.1176"
       y1="37.8209"
       x2="63.072"
       y2="110.28"
       gradientUnits="userSpaceOnUse">
      <stop
         style="stop-color:currentColor"
         class="ColorScheme-Highlight"
         id="stop5" />
      <stop
         offset="1"
         style="stop-color:currentColor"
         class="ColorScheme-Highlight"
         id="stop6" />
    </linearGradient>
    <linearGradient
       id="paint1_linear_853_174"
       x1="64"
       y1="52.6667"
       x2="64"
       y2="95.3333"
       gradientUnits="userSpaceOnUse">
      <stop
         stop-color="#EFF4F6"
         id="stop7" />
      <stop
         offset="1"
         stop-color="#B5D8F1"
         id="stop8" />
    </linearGradient>
    <linearGradient
       id="paint2_linear_853_174"
       x1="71.5"
       y1="56"
       x2="71.5"
       y2="65"
       gradientUnits="userSpaceOnUse">
      <stop
         style="stop-color:currentColor"
         class="ColorScheme-Highlight"
         id="stop9" />
      <stop
         offset="1"
         style="stop-color:currentColor"
         class="ColorScheme-Highlight"
         id="stop10" />
    </linearGradient>
  </defs>
</svg>
