<svg width="128" height="128" viewBox="0 0 128 128" fill="none" xmlns="http://www.w3.org/2000/svg">
<g clip-path="url(#clip0_731_573)">
<path d="M57.2292 94.0289C51.0125 87.1905 40.6115 82.5496 36.0724 49.5327C36.0275 49.2063 36.146 48.8679 36.3902 48.6469L45.9215 40.0234C46.2616 39.7157 46.7673 39.6788 47.1484 39.9337L61.5612 49.5745C61.6798 49.6539 61.779 49.7531 61.8486 49.8777C63.8141 53.3947 64.5911 64.4751 69.2224 77.8646C73.4367 90.049 75.8644 103.104 76.3909 115.78C76.4367 116.881 74.7899 117.254 74.2621 116.286C69.7745 108.06 62.473 99.7971 57.2292 94.0289Z" fill="#2875A7" fill-opacity="0.25"/>
<path d="M57.2292 92.0289C51.0125 85.1905 40.6115 80.5496 36.0724 47.5327C36.0275 47.2063 36.146 46.8679 36.3902 46.6469L45.9215 38.0234C46.2616 37.7157 46.7673 37.6788 47.1484 37.9337L61.5612 47.5745C61.6798 47.6539 61.779 47.7531 61.8486 47.8777C63.8141 51.3947 64.5911 62.4751 69.2224 75.8646C73.4367 88.049 75.8644 101.104 76.3909 113.78C76.4367 114.881 74.7899 115.254 74.2621 114.286C69.7745 106.06 62.473 97.7971 57.2292 92.0289Z" fill="url(#paint0_linear_731_573)"/>
<path d="M109.017 87.5973C72.3591 69.4625 60.5249 53.6216 58.1782 40.2464C57.986 39.1512 56.1658 38.8816 55.7729 39.9218L43.31 72.914C43.1941 73.2208 43.2278 73.557 43.4231 73.8205C51.0037 84.0442 79.8722 96.877 108.866 89.4297C109.751 89.2026 109.835 88.0022 109.017 87.5973Z" fill="#007793" fill-opacity="0.25"/>
<path d="M30.0282 23.7184C25.8774 26.1506 22.3379 27.6394 19.6011 28.5121C18.5333 28.8526 18.4074 30.9447 19.5051 31.1706C24.8896 32.2788 29.9385 32.634 33.2708 37.0289C37.7262 42.9048 34.8333 60.8269 42.125 71.4039C49.2166 81.6905 78.4769 94.9785 107.866 87.4297C108.751 87.2026 108.835 86.0022 108.017 85.5973C66.2499 64.9349 56.7083 47.2505 56.7083 32.7981C56.7083 22.5479 62.1679 20.6932 68.9518 20.2574C70.0152 20.1891 70.3106 18.7298 69.3158 18.348C65.927 17.0476 61.8388 16.1045 54.1042 16.1045C43.1667 16.1045 35.3542 20.5976 30.0282 23.7184Z" fill="url(#paint1_linear_731_573)"/>
<path d="M58.7935 41.1203C47.5739 49.9814 37.264 56.3701 42.3975 72.3462C42.3975 67.9959 46.2002 65.5485 52.0501 61.7835L52.0778 61.7657C57.2359 58.446 76.8653 55.949 90.848 50.1323C104.022 44.6521 110.62 37.2254 114.345 28.4896C114.649 27.7776 114.042 27.0278 113.277 27.1513C97.5902 29.6869 69.605 32.5816 58.7935 41.1203Z" fill="#1578AF" fill-opacity="0.15"/>
<path d="M57.7935 39.1203C46.5739 47.9814 36.264 54.3701 41.3975 70.3462C41.3975 65.9959 45.2002 63.5485 51.0501 59.7835L51.0778 59.7657C56.2359 56.446 75.8653 53.949 89.848 48.1323C103.022 42.6521 109.62 35.2254 113.345 26.4896C113.649 25.7776 113.042 25.0278 112.277 25.1513C96.5902 27.6869 68.605 30.5816 57.7935 39.1203Z" fill="url(#paint2_linear_731_573)"/>
<path d="M57.8068 39.0858C46.5788 47.9566 36.2612 54.3525 41.3985 70.3462C41.3985 65.9842 45.2161 61.5922 51.0861 57.8129C56.248 54.4896 76.2988 50.7685 89.2492 44.2256C101.464 38.0546 106.675 27.1822 110.246 18.037C110.528 17.316 109.917 16.5714 109.158 16.7237C93.6736 19.8318 68.6251 30.5386 57.8068 39.0858Z" fill="url(#paint3_linear_731_573)"/>
<path d="M57.8858 38.9428C46.6079 47.8542 36.2444 54.2793 41.4045 70.3462C41.4046 65.9643 44.5782 60.9971 50.4743 57.2006C55.6592 53.862 73.4961 47.356 86.0699 40.4034C97.9437 33.8379 103.503 20.1347 107.128 10.6342C107.404 9.91104 106.792 9.17197 106.038 9.34937C90.7946 12.9388 68.9713 30.1832 58.0494 38.8135L57.8858 38.9428Z" fill="url(#paint4_linear_731_573)"/>
</g>
<defs>
<linearGradient id="paint0_linear_731_573" x1="53" y1="58.5" x2="55.6882" y2="119.88" gradientUnits="userSpaceOnUse">
<stop stop-color="#55C1F0"/>
<stop offset="0.341666" stop-color="#3DAAF2"/>
<stop offset="1" stop-color="#021926"/>
</linearGradient>
<linearGradient id="paint1_linear_731_573" x1="55.5" y1="16" x2="86.8383" y2="95.0733" gradientUnits="userSpaceOnUse">
<stop stop-color="#9CE7FF"/>
<stop offset="0.0916663" stop-color="#64D1F4"/>
<stop offset="0.351666" stop-color="#36A7E6"/>
<stop offset="1" stop-color="#0096B7"/>
</linearGradient>
<linearGradient id="paint2_linear_731_573" x1="103.733" y1="9.34682" x2="44.1595" y2="66.5741" gradientUnits="userSpaceOnUse">
<stop stop-color="#43B4F3"/>
<stop offset="0.606666" stop-color="#549FC8"/>
</linearGradient>
<linearGradient id="paint3_linear_731_573" x1="103.781" y1="9.27934" x2="44.1421" y2="66.5486" gradientUnits="userSpaceOnUse">
<stop stop-color="#79C7F2"/>
<stop offset="0.606666" stop-color="#64B6E5"/>
</linearGradient>
<linearGradient id="paint4_linear_731_573" x1="104.064" y1="9" x2="44.1532" y2="66.5237" gradientUnits="userSpaceOnUse">
<stop stop-color="#C1E0F9"/>
<stop offset="0.606666" stop-color="#98E6FF"/>
</linearGradient>
<clipPath id="clip0_731_573">
<rect width="128" height="128" fill="white"/>
</clipPath>
</defs>
</svg>
