<svg width="128" height="128" viewBox="0 0 128 128" fill="none" xmlns="http://www.w3.org/2000/svg">
<g clip-path="url(#clip0_731_977)">
<path d="M19 17C19 13.6863 21.6863 11 25 11L77.0147 11C78.606 11 80.1321 11.6321 81.2574 12.7574L107.243 38.7426C108.368 39.8679 109 41.394 109 42.9853V115C109 118.314 106.314 121 103 121H25C21.6863 121 19 118.314 19 115V17Z" fill="black" fill-opacity="0.15"/>
<path d="M21 15C21 12.7909 22.7909 11 25 11H77.0147C78.0756 11 79.093 11.4214 79.8431 12.1716L105.828 38.1569C106.579 38.907 107 39.9244 107 40.9853V113C107 115.209 105.209 117 103 117H25C22.7909 117 21 115.209 21 113V15Z" fill="url(#paint0_linear_731_977)" stroke="url(#paint1_linear_731_977)" stroke-width="4"/>
<path d="M74 9H76.2378C77.8584 9 79.4101 9.65557 80.5398 10.8175L107.302 38.3444C108.391 39.4643 109 40.9648 109 42.5268V45C108.027 42.998 105.996 41.7273 103.77 41.7273H83.1818C79.8681 41.7273 77.1818 39.041 77.1818 35.7273V14.2143C77.1818 12.0174 75.9537 10.0048 74 9Z" fill="black" fill-opacity="0.15"/>
<path d="M75 9H77.1511C78.7424 9 80.2685 9.63214 81.3937 10.7574L107.243 36.6063C108.368 37.7315 109 39.2576 109 40.8489V43C108.053 41.1057 106.117 39.9091 103.999 39.9091H84.0909C80.7772 39.9091 78.0909 37.2228 78.0909 33.9091V14.0012C78.0909 11.8833 76.8943 9.94716 75 9Z" fill="url(#paint2_linear_731_977)"/>
<rect x="40" y="58" width="48" height="34" rx="4" fill="url(#paint3_linear_731_977)"/>
<path d="M56.2409 104H71.7591C73.7047 104 74.5048 101.503 72.9215 100.373L66.325 95.6607C64.9342 94.6673 63.0658 94.6673 61.675 95.6607L55.0785 100.373C53.4952 101.503 54.2953 104 56.2409 104Z" fill="url(#paint4_linear_731_977)"/>
<path d="M58 70.2361L58 79.7639C58 81.2507 59.5646 82.2177 60.8944 81.5528L70.4223 76.7889C71.8964 76.0518 71.8964 73.9482 70.4223 73.2111L60.8944 68.4472C59.5646 67.7823 58 68.7493 58 70.2361Z" fill="url(#paint5_linear_731_977)"/>
</g>
<defs>
<linearGradient id="paint0_linear_731_977" x1="64" y1="9" x2="64" y2="119" gradientUnits="userSpaceOnUse">
<stop stop-color="#EFF3F5"/>
<stop offset="1" stop-color="#F8E1D5"/>
</linearGradient>
<linearGradient id="paint1_linear_731_977" x1="64" y1="9" x2="64" y2="119" gradientUnits="userSpaceOnUse">
<stop stop-color="#FF9C71"/>
<stop offset="0.6" stop-color="#FF6B00"/>
<stop offset="1" stop-color="#D05C1B"/>
</linearGradient>
<linearGradient id="paint2_linear_731_977" x1="92" y1="9" x2="92" y2="43" gradientUnits="userSpaceOnUse">
<stop stop-color="#FF9C71"/>
<stop offset="0.606666" stop-color="#FF6B00"/>
<stop offset="1" stop-color="#D05C1B"/>
</linearGradient>
<linearGradient id="paint3_linear_731_977" x1="64" y1="58" x2="64" y2="92" gradientUnits="userSpaceOnUse">
<stop stop-color="#FF9C71"/>
<stop offset="1" stop-color="#FF6B00"/>
</linearGradient>
<linearGradient id="paint4_linear_731_977" x1="64" y1="94" x2="64" y2="104" gradientUnits="userSpaceOnUse">
<stop stop-color="#FF9C71"/>
<stop offset="1" stop-color="#FF6B00"/>
</linearGradient>
<linearGradient id="paint5_linear_731_977" x1="66" y1="67" x2="66" y2="83" gradientUnits="userSpaceOnUse">
<stop stop-color="#FFE3D8"/>
<stop offset="1" stop-color="#F8CFB2"/>
</linearGradient>
<clipPath id="clip0_731_977">
<rect width="128" height="128" fill="white"/>
</clipPath>
</defs>
</svg>
