<svg width="128" height="128" viewBox="0 0 128 128" fill="none" xmlns="http://www.w3.org/2000/svg">
<g clip-path="url(#clip0_731_987)">
<path d="M19 17C19 13.6863 21.6863 11 25 11L77.0147 11C78.606 11 80.1321 11.6321 81.2574 12.7574L107.243 38.7426C108.368 39.8679 109 41.394 109 42.9853V115C109 118.314 106.314 121 103 121H25C21.6863 121 19 118.314 19 115V17Z" fill="black" fill-opacity="0.15"/>
<path d="M21 15C21 12.7909 22.7909 11 25 11H77.0147C78.0756 11 79.093 11.4214 79.8431 12.1716L105.828 38.1569C106.579 38.907 107 39.9244 107 40.9853V113C107 115.209 105.209 117 103 117H25C22.7909 117 21 115.209 21 113V15Z" fill="url(#paint0_linear_731_987)" stroke="url(#paint1_linear_731_987)" stroke-width="4"/>
<path d="M74 9H76.2378C77.8584 9 79.4101 9.65557 80.5398 10.8175L107.302 38.3444C108.391 39.4643 109 40.9648 109 42.5268V45C108.027 42.998 105.996 41.7273 103.77 41.7273H83.1818C79.8681 41.7273 77.1818 39.041 77.1818 35.7273V14.2143C77.1818 12.0174 75.9537 10.0048 74 9Z" fill="black" fill-opacity="0.15"/>
<path d="M75 9H77.1511C78.7424 9 80.2685 9.63214 81.3937 10.7574L107.243 36.6063C108.368 37.7315 109 39.2576 109 40.8489V43C108.053 41.1057 106.117 39.9091 103.999 39.9091H84.0909C80.7772 39.9091 78.0909 37.2228 78.0909 33.9091V14.0012C78.0909 11.8833 76.8943 9.94716 75 9Z" fill="url(#paint2_linear_731_987)"/>
<path d="M40 88.8889L43.092 92.9699C44.0644 94.2533 46.0775 93.92 46.5844 92.3916L55.5455 65.3705C55.8168 64.5523 56.5819 64 57.4438 64H88" stroke="url(#paint3_linear_731_987)" stroke-width="4" stroke-linecap="round"/>
<path d="M61 76.0189C61.5 75.0126 63 73 65 73C67 73 68.8333 75.2642 69.5 76.3962L81 93" stroke="url(#paint4_linear_731_987)" stroke-width="4" stroke-linecap="round"/>
<path d="M61 93L81 73" stroke="url(#paint5_linear_731_987)" stroke-width="4" stroke-linecap="round"/>
</g>
<defs>
<linearGradient id="paint0_linear_731_987" x1="64" y1="9" x2="64" y2="119" gradientUnits="userSpaceOnUse">
<stop stop-color="#EFF3F5"/>
<stop offset="1" stop-color="#CFE0EA"/>
</linearGradient>
<linearGradient id="paint1_linear_731_987" x1="64" y1="9" x2="64" y2="119" gradientUnits="userSpaceOnUse">
<stop stop-color="#BFCAD0"/>
<stop offset="1" stop-color="#919FA6"/>
</linearGradient>
<linearGradient id="paint2_linear_731_987" x1="92" y1="9" x2="92" y2="43" gradientUnits="userSpaceOnUse">
<stop stop-color="#C8D4DC"/>
<stop offset="1" stop-color="#919FA6"/>
</linearGradient>
<linearGradient id="paint3_linear_731_987" x1="64" y1="64" x2="64" y2="96" gradientUnits="userSpaceOnUse">
<stop stop-color="#B9C3C7"/>
<stop offset="1" stop-color="#919FA6"/>
</linearGradient>
<linearGradient id="paint4_linear_731_987" x1="71" y1="73" x2="71" y2="93" gradientUnits="userSpaceOnUse">
<stop stop-color="#B9C3C7"/>
<stop offset="1" stop-color="#919FA6"/>
</linearGradient>
<linearGradient id="paint5_linear_731_987" x1="71" y1="73" x2="71" y2="93" gradientUnits="userSpaceOnUse">
<stop stop-color="#B9C3C7"/>
<stop offset="1" stop-color="#919FA6"/>
</linearGradient>
<clipPath id="clip0_731_987">
<rect width="128" height="128" fill="white"/>
</clipPath>
</defs>
</svg>
