<svg width="24" height="24" viewBox="0 0 24 24" fill="none" xmlns="http://www.w3.org/2000/svg">
<g clip-path="url(#clip0_3017_2851)">
<mask id="mask0_3017_2851" style="mask-type:luminance" maskUnits="userSpaceOnUse" x="0" y="0" width="24" height="24">
<path d="M24 0H0V24H24V0Z" fill="white"/>
</mask>
<g mask="url(#mask0_3017_2851)">
<path d="M16 3H8C6.89543 3 6 3.89543 6 5V19C6 20.1046 6.89543 21 8 21H16C17.1046 21 18 20.1046 18 19V5C18 3.89543 17.1046 3 16 3Z" stroke="#DDDDDD" stroke-width="1.2"/>
<path d="M9 19H15" stroke="#DDDDDD" stroke-width="1.2" stroke-linecap="round" stroke-linejoin="round"/>
<path d="M12 14C13.1046 14 14 13.1046 14 12C14 10.8954 13.1046 10 12 10C10.8954 10 10 10.8954 10 12C10 13.1046 10.8954 14 12 14Z" stroke="#DDDDDD" stroke-width="1.2"/>
<path d="M14.9 11.5H14.6C14.2686 11.5 14 11.7686 14 12.1C14 12.4314 14.2686 12.7 14.6 12.7H14.9C15.2314 12.7 15.5 12.4314 15.5 12.1C15.5 11.7686 15.2314 11.5 14.9 11.5Z" fill="#DDDDDD"/>
<path d="M9.4 11.5H9.1C8.76863 11.5 8.5 11.7686 8.5 12.1C8.5 12.4314 8.76863 12.7 9.1 12.7H9.4C9.73137 12.7 10 12.4314 10 12.1C10 11.7686 9.73137 11.5 9.4 11.5Z" fill="#DDDDDD"/>
<path d="M14.404 13.6971L14.1918 13.4849C13.9575 13.2506 13.5776 13.2506 13.3433 13.4849C13.109 13.7192 13.109 14.0991 13.3433 14.3335L13.5554 14.5456C13.7898 14.7799 14.1697 14.7799 14.404 14.5456C14.6383 14.3113 14.6383 13.9314 14.404 13.6971Z" fill="#DDDDDD"/>
<path d="M10.5153 9.80803L10.3032 9.5959C10.0689 9.36158 9.68896 9.36158 9.45464 9.5959C9.22033 9.83021 9.22033 10.2101 9.45464 10.4444L9.66677 10.6566C9.90109 10.8909 10.281 10.8909 10.5153 10.6566C10.7496 10.4222 10.7496 10.0423 10.5153 9.80803Z" fill="#DDDDDD"/>
<path d="M12.5 14.9V14.6C12.5 14.2686 12.2314 14 11.9 14C11.5686 14 11.3 14.2686 11.3 14.6V14.9C11.3 15.2314 11.5686 15.5 11.9 15.5C12.2314 15.5 12.5 15.2314 12.5 14.9Z" fill="#DDDDDD"/>
<path d="M12.5 9.4V9.1C12.5 8.76863 12.2314 8.5 11.9 8.5C11.5686 8.5 11.3 8.76863 11.3 9.1V9.4C11.3 9.73137 11.5686 10 11.9 10C12.2314 10 12.5 9.73137 12.5 9.4Z" fill="#DDDDDD"/>
<path d="M13.6969 9.59578L13.4848 9.80791C13.2505 10.0422 13.2505 10.4221 13.4848 10.6564C13.7191 10.8908 14.099 10.8908 14.3333 10.6564L14.5455 10.4443C14.7798 10.21 14.7798 9.8301 14.5455 9.59578C14.3112 9.36147 13.9313 9.36147 13.6969 9.59578Z" fill="#DDDDDD"/>
<path d="M9.80827 13.4849L9.59614 13.6971C9.36182 13.9314 9.36182 14.3113 9.59614 14.5456C9.83045 14.7799 10.2104 14.7799 10.4447 14.5456L10.6568 14.3335C10.8911 14.0992 10.8911 13.7193 10.6568 13.4849C10.4225 13.2506 10.0426 13.2506 9.80827 13.4849Z" fill="#DDDDDD"/>
</g>
</g>
<defs>
<clipPath id="clip0_3017_2851">
<rect width="24" height="24" fill="white"/>
</clipPath>
</defs>
</svg>
