<?xml version="1.0" encoding="UTF-8" standalone="no"?>
<svg xmlns:inkscape="http://www.inkscape.org/namespaces/inkscape" xmlns:sodipodi="http://sodipodi.sourceforge.net/DTD/sodipodi-0.dtd" xmlns="http://www.w3.org/2000/svg" xmlns:svg="http://www.w3.org/2000/svg" width="24" height="24" viewBox="0 0 24 24" fill="none" version="1.1" id="svg4" sodipodi:docname="network-wired-activated.svg" inkscape:version="1.4 (e7c3feb100, 2024-10-09)">
  <defs id="defs1">
    <style id="current-color-scheme" type="text/css">
      .ColorScheme-Text { color:#e6f0f5; }
      .ColorScheme-Highlight { color:#2179cb; }
      .ColorScheme-Background { color:#e4e4e4; }
    </style>
  </defs>
  <sodipodi:namedview id="namedview4" pagecolor="#ffffff" bordercolor="#ffffff" borderopacity="0.25" inkscape:showpageshadow="2" inkscape:pageopacity="0.0" inkscape:pagecheckerboard="0" inkscape:deskcolor="#d1d1d1" inkscape:zoom="30.958333" inkscape:cx="11.983849" inkscape:cy="12" inkscape:window-width="1920" inkscape:window-height="952" inkscape:window-x="0" inkscape:window-y="0" inkscape:window-maximized="1" inkscape:current-layer="svg4"/>
  <g clip-path="url(#clip0_932_230)" id="g4">
    <path id="path4" d="m 12,16 v 4 M 7,7 v 2 m 0,3 v 4.5 c 0,1.933 1.567,3.5 3.5,3.5 v 0 H 16 M 6,4 h 2 c 1.108,0 2,0.892 2,2 v 4 c 0,1.108 -0.892,2 -2,2 H 6 C 4.892,12 4,11.108 4,10 V 6 C 4,4.892 4.892,4 6,4 Z m 3,12 h 9 c 1.1046,0 2,-0.8954 2,-2 V 6 C 20,4.89543 19.1046,4 18,4 h -6" style="stroke:#ffffff;stroke-opacity:1;stroke-width:1.2;stroke-dasharray:none;stroke-linecap:round;stroke-linejoin:round"/>
    <path id="path4" d="m 12,16 v 4 M 7,7 v 2 m 0,3 v 4.5 c 0,1.933 1.567,3.5 3.5,3.5 v 0 H 16 M 6,4 h 2 c 1.108,0 2,0.892 2,2 v 4 c 0,1.108 -0.892,2 -2,2 H 6 C 4.892,12 4,11.108 4,10 V 6 C 4,4.892 4.892,4 6,4 Z m 3,12 h 9 c 1.1046,0 2,-0.8954 2,-2 V 6 C 20,4.89543 19.1046,4 18,4 h -6" style="stroke:currentColor;opacity:0.5;stroke-width:1.2;stroke-dasharray:none;stroke-linecap:round;stroke-linejoin:round" class="ColorScheme-Highlight"/>
  </g>
  <defs id="defs4">
    <clipPath id="clip0_932_230">
      <rect width="24" height="24" fill="white" id="rect4"/>
    </clipPath>
  </defs>
</svg>
