<svg width="24" height="24" viewBox="0 0 24 24" fill="none" xmlns="http://www.w3.org/2000/svg">
<g clip-path="url(#clip0_3017_3081)">
<mask id="mask0_3017_3081" style="mask-type:luminance" maskUnits="userSpaceOnUse" x="0" y="0" width="24" height="24">
<path d="M24 0H0V24H24V0Z" fill="white"/>
</mask>
<g mask="url(#mask0_3017_3081)">
<path d="M7 6H6V7H7V6Z" fill="#DDDDDD"/>
<path d="M9 8H8V9H9V8Z" fill="#DDDDDD"/>
<path d="M8 9H7V10H8V9Z" fill="#DDDDDD"/>
<path d="M7 10H6V11H7V10Z" fill="#DDDDDD"/>
<path d="M10 9H9V10H10V9Z" fill="#DDDDDD"/>
<path d="M11 10H10V11H11V10Z" fill="#DDDDDD"/>
<path d="M10 7H9V8H10V7Z" fill="#DDDDDD"/>
<path d="M11 6H10V7H11V6Z" fill="#DDDDDD"/>
<path d="M8 7H7V8H8V7Z" fill="#DDDDDD"/>
<path d="M14 6H13V7H14V6Z" fill="#DDDDDD"/>
<path d="M16 8H15V9H16V8Z" fill="#DDDDDD"/>
<path d="M15 9H14V10H15V9Z" fill="#DDDDDD"/>
<path d="M14 10H13V11H14V10Z" fill="#DDDDDD"/>
<path d="M17 9H16V10H17V9Z" fill="#DDDDDD"/>
<path d="M18 10H17V11H18V10Z" fill="#DDDDDD"/>
<path d="M17 7H16V8H17V7Z" fill="#DDDDDD"/>
<path d="M18 6H17V7H18V6Z" fill="#DDDDDD"/>
<path d="M15 7H14V8H15V7Z" fill="#DDDDDD"/>
<path d="M8 17H7V18H8V17Z" fill="#DDDDDD"/>
<path d="M9 16H8V17H9V16Z" fill="#DDDDDD"/>
<path d="M10 15H9V16H10V15Z" fill="#DDDDDD"/>
<path d="M14 14H10V15H14V14Z" fill="#DDDDDD"/>
<path d="M15 15H14V16H15V15Z" fill="#DDDDDD"/>
<path d="M16 16H15V17H16V16Z" fill="#DDDDDD"/>
<path d="M17 17H16V18H17V17Z" fill="#DDDDDD"/>
<path d="M18 4H6C4.89543 4 4 4.89543 4 6V18C4 19.1046 4.89543 20 6 20H18C19.1046 20 20 19.1046 20 18V6C20 4.89543 19.1046 4 18 4Z" stroke="#DDDDDD" stroke-width="1.2"/>
</g>
</g>
<defs>
<clipPath id="clip0_3017_3081">
<rect width="24" height="24" fill="white"/>
</clipPath>
</defs>
</svg>
