<svg width="24" height="24" viewBox="0 0 24 24" fill="none" xmlns="http://www.w3.org/2000/svg">
<path d="M12 8L15 12.3787H13.2414V14.2702C13.2414 15.2224 12.4695 15.9943 11.5172 15.9943C11.0411 15.9943 10.6552 15.6084 10.6552 15.1323V12.3787H9L12 8Z" stroke="#DDDDDD" stroke-width="1.2" stroke-linejoin="round"/>
<path d="M4 18V15H7" stroke="#DDDDDD" stroke-width="1.2" stroke-linecap="round" stroke-linejoin="round"/>
<path d="M4 12C4 7.58172 7.58172 4 12 4C16.4183 4 20 7.58172 20 12C20 13.0609 19.7935 14.0736 19.4185 15M4.64957 15.1629C5.87552 18.0081 8.70515 20 12 20C13.0609 20 14.0736 19.7935 15 19.4185" stroke="#DDDDDD" stroke-width="1.2" stroke-linecap="round"/>
<path d="M18 20C19.1046 20 20 19.1046 20 18C20 16.8954 19.1046 16 18 16C16.8954 16 16 16.8954 16 18C16 19.1046 16.8954 20 18 20Z" fill="#DDDDDD"/>
</svg>
