<svg width="24" height="24" viewBox="0 0 24 24" fill="none" xmlns="http://www.w3.org/2000/svg">
<g clip-path="url(#clip0_1004_260)">
<path d="M4.18163 10.1419L4.26591 9.77571C4.3704 9.3217 4.77456 9 5.24043 9H18.7596C19.2254 9 19.6296 9.3217 19.7341 9.7757L19.8184 10.1419C19.9243 10.602 19.6939 11.0735 19.2659 11.2728L16.2745 12.6653C15.8534 12.8614 15.6227 13.3216 15.7176 13.7762L17.1408 20.5948C17.2489 21.1129 16.9347 21.6255 16.424 21.7642L16.29 21.8006C15.856 21.9184 15.3968 21.7321 15.1676 21.3453L12.8603 17.4517C12.473 16.7981 11.527 16.7981 11.1397 17.4517L8.8324 21.3453C8.60318 21.7321 8.14397 21.9184 7.71005 21.8006L7.57605 21.7642C7.06531 21.6255 6.75107 21.1129 6.8592 20.5948L8.28242 13.7762C8.37733 13.3216 8.14665 12.8614 7.72555 12.6653L4.73412 11.2728C4.30608 11.0735 4.07573 10.602 4.18163 10.1419Z" fill="url(#paint0_linear_1004_260)"/>
<circle cx="12" cy="5" r="3" fill="url(#paint1_linear_1004_260)"/>
</g>
<defs>
<linearGradient id="paint0_linear_1004_260" x1="12" y1="9" x2="12" y2="22" gradientUnits="userSpaceOnUse">
<stop stop-color="#F7C33B"/>
<stop offset="0.62" stop-color="#FFB951"/>
</linearGradient>
<linearGradient id="paint1_linear_1004_260" x1="12" y1="2" x2="12" y2="8" gradientUnits="userSpaceOnUse">
<stop stop-color="#F8E9B3"/>
<stop offset="0.606666" stop-color="#F7C33B"/>
<stop offset="1" stop-color="#FFB951"/>
</linearGradient>
<clipPath id="clip0_1004_260">
<rect width="24" height="24" fill="white"/>
</clipPath>
</defs>
</svg>
