<svg width="24" height="24" viewBox="0 0 24 24" fill="none" xmlns="http://www.w3.org/2000/svg">
<g clip-path="url(#clip0_1105_132)">
<path d="M18.9939 12.2222C19.1023 7.69822 17.8018 2 12 2C6.19824 2 4.89767 7.69822 5.00609 12.2222C5.11086 16.5939 6.3936 22 12 22C17.6064 22 18.8891 16.5939 18.9939 12.2222Z" fill="url(#paint0_linear_1105_132)"/>
<path fill-rule="evenodd" clip-rule="evenodd" d="M11.8087 6.04154C11.9955 5.95711 12.2106 6.00378 12.3536 6.15978L14.8536 8.88704C15.0488 9.10005 15.0488 9.44542 14.8536 9.65843L12.7071 12L14.8536 14.3416C15.0488 14.5546 15.0488 14.8999 14.8536 15.113L12.3536 17.8402C12.2106 17.9962 11.9955 18.0429 11.8087 17.9585C11.6218 17.874 11.5 17.6751 11.5 17.4545V13.3168L9.85355 15.113C9.65829 15.326 9.34171 15.326 9.14645 15.113C8.95118 14.8999 8.95118 14.5546 9.14645 14.3416L11.2929 12L9.14645 9.65843C8.95118 9.44542 8.95118 9.10005 9.14645 8.88704C9.34171 8.67403 9.65829 8.67403 9.85355 8.88704L11.5 10.6832V6.54547C11.5 6.32485 11.6218 6.12596 11.8087 6.04154ZM12.5 13.3168L13.7929 14.7273L12.5 16.1377V13.3168ZM12.5 10.6832V7.86231L13.7929 9.27273L12.5 10.6832Z" fill="url(#paint1_linear_1105_132)"/>
</g>
<defs>
<linearGradient id="paint0_linear_1105_132" x1="11.1765" y1="2.95523" x2="13.3659" y2="20.8874" gradientUnits="userSpaceOnUse">
<stop stop-color="#42B0FF"/>
<stop offset="0.506666" stop-color="#3397F5"/>
<stop offset="1" stop-color="#126CD7"/>
</linearGradient>
<linearGradient id="paint1_linear_1105_132" x1="12" y1="6.32432" x2="12" y2="18" gradientUnits="userSpaceOnUse">
<stop stop-color="#EFF3F5"/>
<stop offset="1" stop-color="#B4D8F1"/>
</linearGradient>
<clipPath id="clip0_1105_132">
<rect width="24" height="24" fill="white"/>
</clipPath>
</defs>
</svg>
