<?xml version="1.0" encoding="UTF-8" standalone="no"?>
<svg
   width="128"
   height="128"
   viewBox="0 0 128 128"
   fill="none"
   version="1.1"
   id="svg7"
   sodipodi:docname="user-home.svg"
   inkscape:version="1.4 (e7c3feb100, 2024-10-09)"
   xmlns:inkscape="http://www.inkscape.org/namespaces/inkscape"
   xmlns:sodipodi="http://sodipodi.sourceforge.net/DTD/sodipodi-0.dtd"
   xmlns="http://www.w3.org/2000/svg"
   xmlns:svg="http://www.w3.org/2000/svg">
  <sodipodi:namedview
     id="namedview7"
     pagecolor="#ffffff"
     bordercolor="#000000"
     borderopacity="0.25"
     inkscape:showpageshadow="2"
     inkscape:pageopacity="0.0"
     inkscape:pagecheckerboard="0"
     inkscape:deskcolor="#d1d1d1"
     inkscape:zoom="5.8046875"
     inkscape:cx="63.913863"
     inkscape:cy="64"
     inkscape:window-width="1920"
     inkscape:window-height="952"
     inkscape:window-x="0"
     inkscape:window-y="0"
     inkscape:window-maximized="1"
     inkscape:current-layer="svg7" />
  <defs
     id="defs1">
    <style
       id="current-color-scheme"
       type="text/css">
   .ColorScheme-Text { color:#e6f0f5; }
   .ColorScheme-Highlight { color:#2179cb; }
   .ColorScheme-Background { color:#e4e4e4; }
  </style>
  </defs>
  <path
     style="fill:currentColor;opacity:0.5"
     class="ColorScheme-Highlight"
     d="M20 20V88C20 91.3137 22.6863 94 26 94H102C105.314 94 108 91.3137 108 88V26.4C108 23.0863 105.314 20.4 102 20.4H63.7061C62.0242 20.4 60.4196 19.6941 59.2832 18.4544L56.9835 15.9457C55.8471 14.7059 54.2424 14 52.5606 14L26 14C22.6863 14 20 16.6863 20 20Z"
     id="path1" />
  <path
     style="display:inline;fill:currentColor"
     class="ColorScheme-Background"
     d="m 14,50.4 c 0,-4.4183 3.5817,-8 8,-8 h 26.7224 c 2.2388,0 4.3751,-0.9381 5.8901,-2.5864 l 1.128,-1.2272 C 57.2554,36.9381 59.3918,36 61.6305,36 H 106 c 4.418,0 8,3.5817 8,8 v 64 c 0,4.418 -3.582,8 -8,8 H 22 c -4.4183,0 -8,-3.582 -8,-8 z"
     fill-opacity="0.15"
     id="path2" />
  <path
     d="m 14,48.4 c 0,-4.4183 3.5817,-8 8,-8 h 26.7224 c 2.2388,0 4.3751,-0.9381 5.8901,-2.5864 l 1.128,-1.2272 C 57.2554,34.9381 59.3918,34 61.6305,34 H 106 c 4.418,0 8,3.5817 8,8 v 64 c 0,4.418 -3.582,8 -8,8 H 22 c -4.4183,0 -8,-3.582 -8,-8 z"
     fill="url(#paint0_linear_875_63)"
     id="path3"
     style="display:inline" />
  <path
     id="rect3"
     d="m 64.5,54.806641 c -0.7735,0 -1.54695,0.224025 -2.21875,0.671875 l -16.5,11 C 44.66845,67.220416 44,68.469241 44,69.806641 V 91 c 0,2.2091 1.7909,4 4,4 h 5.453125 c 2.2092,0 4,-1.7909 4,-4 v -6.09375 c 0,-2.2091 1.7909,-4 4,-4 h 5.453125 c 2.2092,0 4,1.7909 4,4 V 91 c 0,2.2091 1.7909,4 4,4 H 81 c 2.2091,0 4,-1.7909 4,-4 V 69.806641 c 0,-1.3374 -0.66845,-2.586225 -1.78125,-3.328125 L 80,64.332031 V 59 c 0,-1.108 -0.892,-2 -2,-2 h -2 c -1.108,0 -2,0.892 -2,2 v 1.332031 L 66.71875,55.478516 C 66.04695,55.030666 65.2735,54.806641 64.5,54.806641 Z"
     style="display:inline;fill:#ffffff;fill-opacity:1" />
  <defs
     id="defs7">
    <linearGradient
       id="paint0_linear_875_63"
       x1="58.1176"
       y1="37.8209"
       x2="63.072"
       y2="110.28"
       gradientUnits="userSpaceOnUse">
      <stop
         style="stop-color:currentColor"
         class="ColorScheme-Highlight"
         id="stop4" />
      <stop
         offset="1"
         style="stop-color:currentColor"
         class="ColorScheme-Highlight"
         id="stop5" />
    </linearGradient>
    <linearGradient
       id="paint1_linear_875_63"
       x1="64.5"
       y1="55.1081"
       x2="64.5"
       y2="95"
       gradientUnits="userSpaceOnUse">
      <stop
         stop-color="#EFF3F5"
         id="stop6" />
      <stop
         offset="1"
         stop-color="#B4D8F1"
         id="stop7" />
    </linearGradient>
  </defs>
</svg>
