<svg width="128" height="128" viewBox="0 0 128 128" fill="none" xmlns="http://www.w3.org/2000/svg">
<g clip-path="url(#clip0_3181_356)">
<path d="M19 17C19 13.6863 21.6863 11 25 11L86.5147 11C88.106 11 89.6321 11.6321 90.7574 12.7574L107.243 29.2426C108.368 30.3679 109 31.894 109 33.4853V115C109 118.314 106.314 121 103 121H25C21.6863 121 19 118.314 19 115V17Z" fill="black" fill-opacity="0.15"/>
<path d="M19 15C19 11.6863 21.6863 9 25 9L86.5147 9C88.106 9 89.6321 9.63214 90.7574 10.7574L107.243 27.2426C108.368 28.3679 109 29.894 109 31.4853V113C109 116.314 106.314 119 103 119H25C21.6863 119 19 116.314 19 113V15Z" fill="url(#paint0_linear_3181_356)"/>
<path d="M86 9H86.576C88.2116 9 89.7762 9.6677 90.9079 10.8486L107.332 27.9867C108.402 29.1037 109 30.591 109 32.1381V33C108.361 31.6666 107.014 30.8182 105.535 30.8182H94.0909C90.7772 30.8182 88.0909 28.1319 88.0909 24.8182V12.4493C88.0909 10.9998 87.2851 9.67049 86 9Z" fill="black" fill-opacity="0.15"/>
<path d="M87 9H87.5147C89.106 9 90.6321 9.63214 91.7574 10.7574L107.243 26.2426C108.368 27.3679 109 28.894 109 30.4853V31C108.387 29.7743 107.134 29 105.764 29H95C91.6863 29 89 26.3137 89 23V12.2361C89 10.8657 88.2257 9.61287 87 9Z" fill="#FFD4A0"/>
<path fill-rule="evenodd" clip-rule="evenodd" d="M59 9C57.8954 9 57 9.89543 57 11V13C57 14.1046 57.8954 15 59 15H62C63.1046 15 64 14.1046 64 13V11C64 9.89543 63.1046 9 62 9H59ZM59 21C57.8954 21 57 21.8954 57 23V25C57 26.1046 57.8954 27 59 27H62C63.1046 27 64 26.1046 64 25V23C64 21.8954 63.1046 21 62 21H59ZM64 29C64 27.8954 64.8954 27 66 27H69C70.1046 27 71 27.8954 71 29V31C71 32.1046 70.1046 33 69 33H66C64.8954 33 64 32.1046 64 31V29ZM66 15C64.8954 15 64 15.8954 64 17V19C64 20.1046 64.8954 21 66 21H69C70.1046 21 71 20.1046 71 19V17C71 15.8954 70.1046 15 69 15H66ZM57 35C57 33.8954 57.8954 33 59 33H62C63.1046 33 64 33.8954 64 35V37C64 38.1046 63.1046 39 62 39H59C57.8954 39 57 38.1046 57 37V35ZM66 39C64.8954 39 64 39.8954 64 41V43C64 44.1046 64.8954 45 66 45H69C70.1046 45 71 44.1046 71 43V41C71 39.8954 70.1046 39 69 39H66ZM64 53C64 51.8954 64.8954 51 66 51H69C70.1046 51 71 51.8954 71 53V60C71 61.1046 70.1046 62 69 62H66C64.8954 62 64 61.1046 64 60V53ZM59 45C57.8954 45 57 45.8954 57 47V49C57 50.1046 57.8954 51 59 51H62C63.1046 51 64 50.1046 64 49V47C64 45.8954 63.1046 45 62 45H59Z" fill="url(#paint1_linear_3181_356)"/>
<path d="M57.5469 95.9023C57.1172 96 56.6842 96.0781 56.248 96.1367C55.8118 96.1953 55.3984 96.2246 55.0078 96.2246C54.3568 96.2246 53.7936 96.1562 53.3184 96.0195C52.8496 95.8828 52.459 95.6745 52.1465 95.3945C51.8405 95.1146 51.6126 94.7598 51.4629 94.3301C51.3197 93.8939 51.248 93.3763 51.248 92.7773V87.9336H48.582V86.0781H51.248V83.5391L53.6895 82.9043V86.0781H57.5469V87.9336H53.6895V92.6016C53.6895 93.168 53.8197 93.5977 54.0801 93.8906C54.3405 94.1771 54.7767 94.3203 55.3887 94.3203C55.7793 94.3203 56.1602 94.2878 56.5312 94.2227C56.9023 94.1576 57.2409 94.0827 57.5469 93.998V95.9023ZM66.5801 96L66.5215 94.7012C66.3132 94.9225 66.0951 95.1276 65.8672 95.3164C65.6393 95.4987 65.3887 95.6582 65.1152 95.7949C64.8418 95.9316 64.5423 96.0358 64.2168 96.1074C63.8978 96.1855 63.5462 96.2246 63.1621 96.2246C62.6543 96.2246 62.2083 96.1497 61.8242 96C61.4401 95.8503 61.1178 95.6419 60.8574 95.375C60.597 95.1081 60.3984 94.7858 60.2617 94.4082C60.1315 94.0306 60.0664 93.6139 60.0664 93.1582C60.0664 92.6895 60.1641 92.2565 60.3594 91.8594C60.5612 91.4622 60.8639 91.1204 61.2676 90.834C61.6777 90.5475 62.1855 90.3229 62.791 90.1602C63.403 89.9974 64.1191 89.916 64.9395 89.916H66.2383V89.3203C66.2383 89.0664 66.2025 88.8385 66.1309 88.6367C66.0592 88.4284 65.9421 88.2526 65.7793 88.1094C65.623 87.9661 65.418 87.8555 65.1641 87.7773C64.9102 87.6992 64.5977 87.6602 64.2266 87.6602C63.6406 87.6602 63.0612 87.7285 62.4883 87.8652C61.9219 87.9954 61.3717 88.181 60.8379 88.4219V86.5176C61.3132 86.3288 61.86 86.1725 62.4785 86.0488C63.1035 85.9251 63.7513 85.8633 64.4219 85.8633C65.1576 85.8633 65.7891 85.9349 66.3164 86.0781C66.8438 86.2148 67.2767 86.4232 67.6152 86.7031C67.9603 86.9831 68.2142 87.3346 68.377 87.7578C68.5397 88.1745 68.6211 88.6628 68.6211 89.2227V96H66.5801ZM66.2383 91.6152H64.7832C64.3796 91.6152 64.0378 91.6543 63.7578 91.7324C63.4779 91.8105 63.25 91.918 63.0742 92.0547C62.8984 92.1914 62.7682 92.3509 62.6836 92.5332C62.6055 92.709 62.5664 92.8978 62.5664 93.0996C62.5664 93.5033 62.6966 93.8125 62.957 94.0273C63.2174 94.2357 63.5723 94.3398 64.0215 94.3398C64.3535 94.3398 64.6986 94.2194 65.0566 93.9785C65.4147 93.7376 65.8086 93.3926 66.2383 92.9434V91.6152ZM77.7422 89.9355C77.7552 89.5645 77.7357 89.2487 77.6836 88.9883C77.638 88.7279 77.5599 88.513 77.4492 88.3438C77.3451 88.1745 77.2148 88.0508 77.0586 87.9727C76.9023 87.8945 76.7233 87.8555 76.5215 87.8555C76.1699 87.8555 75.8053 88.002 75.4277 88.2949C75.0566 88.5814 74.6465 89.0566 74.1973 89.7207V96H71.7559V86.0781H73.9141L74.002 87.5234C74.1647 87.2695 74.347 87.0417 74.5488 86.8398C74.7572 86.638 74.985 86.4655 75.2324 86.3223C75.4863 86.1725 75.7663 86.0586 76.0723 85.9805C76.3783 85.9023 76.7135 85.8633 77.0781 85.8633C77.5794 85.8633 78.0221 85.9512 78.4062 86.127C78.7969 86.2962 79.1224 86.5501 79.3828 86.8887C79.6497 87.2272 79.8451 87.6536 79.9688 88.168C80.099 88.6758 80.1543 89.265 80.1348 89.9355H77.7422Z" fill="white"/>
</g>
<defs>
<linearGradient id="paint0_linear_3181_356" x1="64" y1="9" x2="64" y2="119" gradientUnits="userSpaceOnUse">
<stop stop-color="#FFBE71"/>
<stop offset="1" stop-color="#FFA943"/>
</linearGradient>
<linearGradient id="paint1_linear_3181_356" x1="64" y1="9" x2="64" y2="62" gradientUnits="userSpaceOnUse">
<stop stop-color="#BB8444"/>
<stop offset="1" stop-color="#976020"/>
</linearGradient>
<clipPath id="clip0_3181_356">
<rect width="128" height="128" fill="white"/>
</clipPath>
</defs>
</svg>
