<svg width="128" height="128" viewBox="0 0 128 128" fill="none" xmlns="http://www.w3.org/2000/svg">
<g clip-path="url(#clip0_3181_345)">
<path d="M19 17C19 13.6863 21.6863 11 25 11L86.5147 11C88.106 11 89.6321 11.6321 90.7574 12.7574L107.243 29.2426C108.368 30.3679 109 31.894 109 33.4853V115C109 118.314 106.314 121 103 121H25C21.6863 121 19 118.314 19 115V17Z" fill="black" fill-opacity="0.15"/>
<path d="M19 15C19 11.6863 21.6863 9 25 9L86.5147 9C88.106 9 89.6321 9.63214 90.7574 10.7574L107.243 27.2426C108.368 28.3679 109 29.894 109 31.4853V113C109 116.314 106.314 119 103 119H25C21.6863 119 19 116.314 19 113V15Z" fill="url(#paint0_linear_3181_345)"/>
<path d="M86 9H86.576C88.2116 9 89.7762 9.6677 90.9079 10.8486L107.332 27.9867C108.402 29.1037 109 30.591 109 32.1381V33C108.361 31.6666 107.014 30.8182 105.535 30.8182H94.0909C90.7772 30.8182 88.0909 28.1319 88.0909 24.8182V12.4493C88.0909 10.9998 87.2851 9.67049 86 9Z" fill="black" fill-opacity="0.15"/>
<path d="M87 9H87.5147C89.106 9 90.6321 9.63214 91.7574 10.7574L107.243 26.2426C108.368 27.3679 109 28.894 109 30.4853V31C108.387 29.7743 107.134 29 105.764 29H95C91.6863 29 89 26.3137 89 23V12.2361C89 10.8657 88.2257 9.61287 87 9Z" fill="#D9D9D9"/>
<path d="M50.7132 83.9865C50.4074 84.4464 50.5314 85.069 51.0032 85.3561C55.5574 88.1278 60.8874 89.3756 66.2151 88.9017C71.8754 88.3982 77.1952 85.9813 81.2979 82.0494C85.4007 78.1175 88.0414 72.9052 88.785 67.2714C89.4849 61.9687 88.4648 56.5904 85.8892 51.9226C85.6224 51.439 85.0056 51.2887 84.5331 51.5746L73.411 58.305C72.9385 58.591 72.7923 59.2041 73.0296 59.7028C73.8565 61.4403 74.1677 63.3868 73.914 65.3086C73.6166 67.5621 72.5603 69.647 70.9192 71.2198C69.2781 72.7925 67.1501 73.7593 64.886 73.9607C62.9552 74.1324 61.0237 73.7388 59.3229 72.8388C58.8347 72.5805 58.216 72.7005 57.9102 73.1605L50.7132 83.9865Z" fill="url(#paint1_linear_3181_345)"/>
<path d="M75.8275 43.1168C76.0997 42.6362 75.9315 42.024 75.4405 41.7713C70.5414 39.2497 64.9364 38.4131 59.4982 39.4087C53.7315 40.4644 48.5192 43.5131 44.7723 48.022C41.0255 52.5309 38.9824 58.2132 39.0001 64.0757C39.0168 69.6042 40.8653 74.9614 44.2411 79.3162C44.5794 79.7527 45.212 79.8059 45.6346 79.4504L55.5825 71.0814C56.0052 70.7259 56.0548 70.0975 55.7433 69.6415C54.6177 67.9942 54.0061 66.0406 54 64.0303C53.9929 61.6853 54.8102 59.4124 56.3089 57.6088C57.8077 55.8052 59.8926 54.5857 62.1993 54.1635C64.1767 53.8015 66.2093 54.0451 68.0348 54.8501C68.5401 55.0729 69.1488 54.9091 69.4209 54.4285L75.8275 43.1168Z" fill="url(#paint2_linear_3181_345)"/>
<path d="M73 64C73 68.9706 68.9706 73 64 73C59.0294 73 55 68.9706 55 64C55 59.0294 59.0294 55 64 55C68.9706 55 73 59.0294 73 64ZM58.6 64C58.6 66.9823 61.0177 69.4 64 69.4C66.9823 69.4 69.4 66.9823 69.4 64C69.4 61.0177 66.9823 58.6 64 58.6C61.0177 58.6 58.6 61.0177 58.6 64Z" fill="url(#paint3_linear_3181_345)"/>
</g>
<defs>
<linearGradient id="paint0_linear_3181_345" x1="64" y1="9" x2="64" y2="119" gradientUnits="userSpaceOnUse">
<stop stop-color="#CCCCCC"/>
<stop offset="1" stop-color="#AAAAAA"/>
</linearGradient>
<linearGradient id="paint1_linear_3181_345" x1="64" y1="39" x2="64" y2="89" gradientUnits="userSpaceOnUse">
<stop stop-color="#F4F4F4"/>
<stop offset="1" stop-color="#DADADA"/>
</linearGradient>
<linearGradient id="paint2_linear_3181_345" x1="64" y1="39" x2="64" y2="89" gradientUnits="userSpaceOnUse">
<stop stop-color="#F4F4F4"/>
<stop offset="1" stop-color="#DADADA"/>
</linearGradient>
<linearGradient id="paint3_linear_3181_345" x1="64" y1="39" x2="64" y2="88.5" gradientUnits="userSpaceOnUse">
<stop stop-color="#F4F4F4"/>
<stop offset="1" stop-color="#DADADA"/>
</linearGradient>
<clipPath id="clip0_3181_345">
<rect width="128" height="128" fill="white"/>
</clipPath>
</defs>
</svg>
