<svg width="128" height="128" viewBox="0 0 128 128" fill="none" xmlns="http://www.w3.org/2000/svg">
<g clip-path="url(#clip0_3204_436)">
<path d="M19 17C19 13.6863 21.6863 11 25 11L86.5147 11C88.106 11 89.6321 11.6321 90.7574 12.7574L107.243 29.2426C108.368 30.3679 109 31.894 109 33.4853V115C109 118.314 106.314 121 103 121H25C21.6863 121 19 118.314 19 115V17Z" fill="black" fill-opacity="0.15"/>
<path d="M19 15C19 11.6863 21.6863 9 25 9L86.5147 9C88.106 9 89.6321 9.63214 90.7574 10.7574L107.243 27.2426C108.368 28.3679 109 29.894 109 31.4853V113C109 116.314 106.314 119 103 119H25C21.6863 119 19 116.314 19 113V15Z" fill="url(#paint0_linear_3204_436)"/>
<path d="M86 9H86.576C88.2116 9 89.7762 9.6677 90.9079 10.8486L107.332 27.9867C108.402 29.1037 109 30.591 109 32.1381V33C108.361 31.6666 107.014 30.8182 105.535 30.8182H94.0909C90.7772 30.8182 88.0909 28.1319 88.0909 24.8182V12.4493C88.0909 10.9998 87.2851 9.67049 86 9Z" fill="black" fill-opacity="0.15"/>
<path d="M87 9H87.5147C89.106 9 90.6321 9.63214 91.7574 10.7574L107.243 26.2426C108.368 27.3679 109 28.894 109 30.4853V31C108.387 29.7743 107.134 29 105.764 29H95C91.6863 29 89 26.3137 89 23V12.2361C89 10.8657 88.2257 9.61287 87 9Z" fill="#DB3333"/>
<path fill-rule="evenodd" clip-rule="evenodd" d="M59 9C57.8954 9 57 9.89543 57 11V13C57 14.1046 57.8954 15 59 15H62C63.1046 15 64 14.1046 64 13V11C64 9.89543 63.1046 9 62 9H59ZM59 21C57.8954 21 57 21.8954 57 23V25C57 26.1046 57.8954 27 59 27H62C63.1046 27 64 26.1046 64 25V23C64 21.8954 63.1046 21 62 21H59ZM64 29C64 27.8954 64.8954 27 66 27H69C70.1046 27 71 27.8954 71 29V31C71 32.1046 70.1046 33 69 33H66C64.8954 33 64 32.1046 64 31V29ZM66 15C64.8954 15 64 15.8954 64 17V19C64 20.1046 64.8954 21 66 21H69C70.1046 21 71 20.1046 71 19V17C71 15.8954 70.1046 15 69 15H66ZM57 35C57 33.8954 57.8954 33 59 33H62C63.1046 33 64 33.8954 64 35V37C64 38.1046 63.1046 39 62 39H59C57.8954 39 57 38.1046 57 37V35ZM66 39C64.8954 39 64 39.8954 64 41V43C64 44.1046 64.8954 45 66 45H69C70.1046 45 71 44.1046 71 43V41C71 39.8954 70.1046 39 69 39H66ZM64 53C64 51.8954 64.8954 51 66 51H69C70.1046 51 71 51.8954 71 53V60C71 61.1046 70.1046 62 69 62H66C64.8954 62 64 61.1046 64 60V53ZM59 45C57.8954 45 57 45.8954 57 47V49C57 50.1046 57.8954 51 59 51H62C63.1046 51 64 50.1046 64 49V47C64 45.8954 63.1046 45 62 45H59Z" fill="url(#paint1_linear_3204_436)"/>
<path d="M51.5488 95.9023C51.1191 96 50.6862 96.0781 50.25 96.1367C49.8138 96.1953 49.4004 96.2246 49.0098 96.2246C48.3587 96.2246 47.7956 96.1562 47.3203 96.0195C46.8516 95.8828 46.4609 95.6745 46.1484 95.3945C45.8424 95.1146 45.6146 94.7598 45.4648 94.3301C45.3216 93.8939 45.25 93.3763 45.25 92.7773V87.9336H42.584V86.0781H45.25V83.5391L47.6914 82.9043V86.0781H51.5488V87.9336H47.6914V92.6016C47.6914 93.168 47.8216 93.5977 48.082 93.8906C48.3424 94.1771 48.7786 94.3203 49.3906 94.3203C49.7812 94.3203 50.1621 94.2878 50.5332 94.2227C50.9043 94.1576 51.2428 94.0827 51.5488 93.998V95.9023ZM60.582 96L60.5234 94.7012C60.3151 94.9225 60.097 95.1276 59.8691 95.3164C59.6413 95.4987 59.3906 95.6582 59.1172 95.7949C58.8438 95.9316 58.5443 96.0358 58.2188 96.1074C57.8997 96.1855 57.5482 96.2246 57.1641 96.2246C56.6562 96.2246 56.2103 96.1497 55.8262 96C55.4421 95.8503 55.1198 95.6419 54.8594 95.375C54.599 95.1081 54.4004 94.7858 54.2637 94.4082C54.1335 94.0306 54.0684 93.6139 54.0684 93.1582C54.0684 92.6895 54.166 92.2565 54.3613 91.8594C54.5632 91.4622 54.8659 91.1204 55.2695 90.834C55.6797 90.5475 56.1875 90.3229 56.793 90.1602C57.4049 89.9974 58.1211 89.916 58.9414 89.916H60.2402V89.3203C60.2402 89.0664 60.2044 88.8385 60.1328 88.6367C60.0612 88.4284 59.944 88.2526 59.7812 88.1094C59.625 87.9661 59.4199 87.8555 59.166 87.7773C58.9121 87.6992 58.5996 87.6602 58.2285 87.6602C57.6426 87.6602 57.0632 87.7285 56.4902 87.8652C55.9238 87.9954 55.3737 88.181 54.8398 88.4219V86.5176C55.3151 86.3288 55.862 86.1725 56.4805 86.0488C57.1055 85.9251 57.7533 85.8633 58.4238 85.8633C59.1595 85.8633 59.791 85.9349 60.3184 86.0781C60.8457 86.2148 61.2786 86.4232 61.6172 86.7031C61.9622 86.9831 62.2161 87.3346 62.3789 87.7578C62.5417 88.1745 62.623 88.6628 62.623 89.2227V96H60.582ZM60.2402 91.6152H58.7852C58.3815 91.6152 58.0397 91.6543 57.7598 91.7324C57.4798 91.8105 57.252 91.918 57.0762 92.0547C56.9004 92.1914 56.7702 92.3509 56.6855 92.5332C56.6074 92.709 56.5684 92.8978 56.5684 93.0996C56.5684 93.5033 56.6986 93.8125 56.959 94.0273C57.2194 94.2357 57.5742 94.3398 58.0234 94.3398C58.3555 94.3398 58.7005 94.2194 59.0586 93.9785C59.4167 93.7376 59.8105 93.3926 60.2402 92.9434V91.6152ZM71.7441 89.9355C71.7572 89.5645 71.7376 89.2487 71.6855 88.9883C71.64 88.7279 71.5618 88.513 71.4512 88.3438C71.347 88.1745 71.2168 88.0508 71.0605 87.9727C70.9043 87.8945 70.7253 87.8555 70.5234 87.8555C70.1719 87.8555 69.8073 88.002 69.4297 88.2949C69.0586 88.5814 68.6484 89.0566 68.1992 89.7207V96H65.7578V86.0781H67.916L68.0039 87.5234C68.1667 87.2695 68.349 87.0417 68.5508 86.8398C68.7591 86.638 68.987 86.4655 69.2344 86.3223C69.4883 86.1725 69.7682 86.0586 70.0742 85.9805C70.3802 85.9023 70.7155 85.8633 71.0801 85.8633C71.5814 85.8633 72.0241 85.9512 72.4082 86.127C72.7988 86.2962 73.1243 86.5501 73.3848 86.8887C73.6517 87.2272 73.847 87.6536 73.9707 88.168C74.1009 88.6758 74.1562 89.265 74.1367 89.9355H71.7441ZM76.4609 96V94.3398L81.3145 88.1191H76.5781V86.0781H84.459V87.7578L79.7129 93.9004H84.5371V96H76.4609Z" fill="white"/>
</g>
<defs>
<linearGradient id="paint0_linear_3204_436" x1="64" y1="9" x2="64" y2="119" gradientUnits="userSpaceOnUse">
<stop stop-color="#FF7373"/>
<stop offset="1" stop-color="#FF3E3E"/>
</linearGradient>
<linearGradient id="paint1_linear_3204_436" x1="64" y1="9" x2="64" y2="62" gradientUnits="userSpaceOnUse">
<stop stop-color="#FFEEEE"/>
<stop offset="1" stop-color="#FBD2BF"/>
</linearGradient>
<clipPath id="clip0_3204_436">
<rect width="128" height="128" fill="white"/>
</clipPath>
</defs>
</svg>
