<svg width="128" height="128" viewBox="0 0 128 128" fill="none" xmlns="http://www.w3.org/2000/svg">
<g clip-path="url(#clip0_3197_269)">
<path d="M19 17C19 13.6863 21.6863 11 25 11L86.5147 11C88.106 11 89.6321 11.6321 90.7574 12.7574L107.243 29.2426C108.368 30.3679 109 31.894 109 33.4853V115C109 118.314 106.314 121 103 121H25C21.6863 121 19 118.314 19 115V17Z" fill="black" fill-opacity="0.15"/>
<path d="M19 15C19 11.6863 21.6863 9 25 9L86.5147 9C88.106 9 89.6321 9.63214 90.7574 10.7574L107.243 27.2426C108.368 28.3679 109 29.894 109 31.4853V113C109 116.314 106.314 119 103 119H25C21.6863 119 19 116.314 19 113V15Z" fill="url(#paint0_linear_3197_269)"/>
<path d="M86 9H86.576C88.2116 9 89.7762 9.6677 90.9079 10.8486L107.332 27.9867C108.402 29.1037 109 30.591 109 32.1381V33C108.361 31.6666 107.014 30.8182 105.535 30.8182H94.0909C90.7772 30.8182 88.0909 28.1319 88.0909 24.8182V12.4493C88.0909 10.9998 87.2851 9.67049 86 9Z" fill="black" fill-opacity="0.15"/>
<path d="M87 9H87.5147C89.106 9 90.6321 9.63214 91.7574 10.7574L107.243 26.2426C108.368 27.3679 109 28.894 109 30.4853V31C108.387 29.7743 107.134 29 105.764 29H95C91.6863 29 89 26.3137 89 23V12.2361C89 10.8657 88.2257 9.61287 87 9Z" fill="#FFC328"/>
<path d="M72.4096 99.0678V82.4389C72.4096 81.8866 72.8574 81.4407 73.4096 81.4407H76.6145C77.1667 81.4407 77.6145 81.8865 77.6145 82.4388V99.0678C77.6145 103.034 75.4458 107 69.8072 107C65.9825 107 63.5506 104.677 62.4586 102.985C62.1695 102.537 62.3733 101.963 62.8486 101.721L65.5394 100.355C65.9937 100.124 66.5467 100.274 66.8716 100.666C67.6022 101.549 68.739 102.593 69.8072 102.593C71.5422 102.593 72.4096 100.39 72.4096 99.0678Z" fill="url(#paint1_linear_3197_269)"/>
<path d="M95.8758 85.8713L93.5419 87.1887C93.1123 87.4312 92.5872 87.3115 92.2866 86.9202C91.738 86.206 90.925 85.4068 89.3253 85.4068C87.5904 85.4068 86.2892 86.7288 86.2892 88.0508C86.2892 89.3729 86.7229 90.2542 91.0602 92.0169C95.3976 93.7797 98 96.4237 98 99.9492C98 103.475 95.3976 107 89.3253 107C85.1895 107 82.5418 104.658 81.2216 102.964C80.8835 102.531 81.0254 101.915 81.4896 101.62L83.4385 100.382C83.8363 100.13 84.3536 100.192 84.6912 100.521C85.827 101.627 87.1007 102.593 89.3253 102.593C91.0602 102.593 92.7952 101.712 92.7952 99.9492C92.7952 98.1864 91.9277 97.3051 87.5904 95.5424C83.253 93.7797 81.5181 91.5763 81.5181 88.0508C81.5181 84.5254 84.1205 81 89.3253 81C92.817 81 95.1294 83.0659 96.2112 84.5991C96.5169 85.0324 96.3377 85.6106 95.8758 85.8713Z" fill="url(#paint2_linear_3197_269)"/>
</g>
<defs>
<linearGradient id="paint0_linear_3197_269" x1="65.3636" y1="9" x2="65.3636" y2="92.9474" gradientUnits="userSpaceOnUse">
<stop stop-color="#FFE483"/>
<stop offset="1" stop-color="#F7C33B"/>
</linearGradient>
<linearGradient id="paint1_linear_3197_269" x1="73.9672" y1="84.3091" x2="82.6126" y2="108.308" gradientUnits="userSpaceOnUse">
<stop stop-color="#505A62"/>
<stop offset="1" stop-color="#1F1F1F"/>
</linearGradient>
<linearGradient id="paint2_linear_3197_269" x1="73.9672" y1="84.3091" x2="82.6126" y2="108.308" gradientUnits="userSpaceOnUse">
<stop stop-color="#505A62"/>
<stop offset="1" stop-color="#1F1F1F"/>
</linearGradient>
<clipPath id="clip0_3197_269">
<rect width="128" height="128" fill="white"/>
</clipPath>
</defs>
</svg>
