<svg width="128" height="128" viewBox="0 0 128 128" fill="none" xmlns="http://www.w3.org/2000/svg">
<g clip-path="url(#clip0_3198_320)">
<path d="M19 17C19 13.6863 21.6863 11 25 11L86.5147 11C88.106 11 89.6321 11.6321 90.7574 12.7574L107.243 29.2426C108.368 30.3679 109 31.894 109 33.4853V115C109 118.314 106.314 121 103 121H25C21.6863 121 19 118.314 19 115V17Z" fill="black" fill-opacity="0.15"/>
<path d="M19 15C19 11.6863 21.6863 9 25 9L86.5147 9C88.106 9 89.6321 9.63214 90.7574 10.7574L107.243 27.2426C108.368 28.3679 109 29.894 109 31.4853V113C109 116.314 106.314 119 103 119H25C21.6863 119 19 116.314 19 113V15Z" fill="url(#paint0_linear_3198_320)"/>
<path d="M86 9H86.576C88.2116 9 89.7762 9.6677 90.9079 10.8486L107.332 27.9867C108.402 29.1037 109 30.591 109 32.1381V33C108.361 31.6666 107.014 30.8182 105.535 30.8182H94.0909C90.7772 30.8182 88.0909 28.1319 88.0909 24.8182V12.4493C88.0909 10.9998 87.2851 9.67049 86 9Z" fill="black" fill-opacity="0.15"/>
<path d="M87 9H87.5147C89.106 9 90.6321 9.63214 91.7574 10.7574L107.243 26.2426C108.368 27.3679 109 28.894 109 30.4853V31C108.387 29.7743 107.134 29 105.764 29H95C91.6863 29 89 26.3137 89 23V12.2361C89 10.8657 88.2257 9.61287 87 9Z" fill="#247FEA"/>
<path fill-rule="evenodd" clip-rule="evenodd" d="M36.4085 77.8982L37.7284 71.6461C37.741 71.5868 37.7933 71.5443 37.8548 71.5443H44.9542C48.3292 71.5443 53.5863 68.668 54.3651 62.7237C55.144 56.7794 52.1584 53.6474 47.4854 53.6474H35.9722C35.9101 53.6474 35.8591 53.6906 35.8471 53.7506L31.0305 77.8475C31.0147 77.9265 31.0761 78 31.1578 78H36.2814C36.3429 78 36.3959 77.9575 36.4085 77.8982ZM40.6706 57.4825L38.6586 67.7732H43.3965C46.1224 67.7732 48.1993 65.6639 48.7835 62.7237C49.3676 59.7835 48.5239 57.4825 45.4085 57.4825H40.6706Z" fill="url(#paint1_linear_3198_320)"/>
<path d="M55.0618 71.4165C54.432 71.4165 53.959 70.8414 54.0806 70.2235L58.49 47.807C58.5823 47.3381 58.9933 47 59.4712 47H62.7544C63.3843 47 63.8574 47.5754 63.7355 48.1934L62.9081 52.3901C62.7862 53.0081 63.2592 53.5835 63.8892 53.5835H69.1631C73.0573 53.5835 75.5236 55.6928 74.8746 59.1443C74.3981 61.6781 73.2294 67.4198 72.572 70.6203C72.4765 71.0851 72.0678 71.4165 71.5933 71.4165H68.3481C67.7246 71.4165 67.2528 70.8538 67.364 70.2403C67.971 66.889 68.9329 61.6017 69.1631 60.4227C69.4876 58.7608 68.9035 57.4186 67.1511 57.4186H62.7717C62.2981 57.4186 61.8895 57.7507 61.7928 58.2143L59.2042 70.6207C59.1075 71.0843 58.6989 71.4165 58.2253 71.4165H55.0618Z" fill="url(#paint2_linear_3198_320)"/>
<path fill-rule="evenodd" clip-rule="evenodd" d="M78.9201 77.8982L80.24 71.6461C80.2525 71.5868 80.3049 71.5443 80.3664 71.5443H87.4658C90.8407 71.5443 96.0979 68.668 96.8767 62.7237C97.6556 56.7794 94.67 53.6474 89.997 53.6474H78.4838C78.4217 53.6474 78.3707 53.6906 78.3587 53.7506L73.5421 77.8475C73.5263 77.9265 73.5877 78 73.6694 78H78.793C78.8545 78 78.9075 77.9575 78.9201 77.8982ZM83.1822 57.4825L81.1702 67.7732H85.9081C88.634 67.7732 90.7109 65.6639 91.2951 62.7237C91.8792 59.7835 91.0355 57.4825 87.9201 57.4825H83.1822Z" fill="url(#paint3_linear_3198_320)"/>
</g>
<defs>
<linearGradient id="paint0_linear_3198_320" x1="64" y1="9" x2="64" y2="119" gradientUnits="userSpaceOnUse">
<stop stop-color="#64B4F4"/>
<stop offset="1" stop-color="#4989D5"/>
</linearGradient>
<linearGradient id="paint1_linear_3198_320" x1="64.7135" y1="47.3351" x2="64.7135" y2="77.6649" gradientUnits="userSpaceOnUse">
<stop stop-color="#EFF3F5"/>
<stop offset="1" stop-color="#DBE4E8"/>
</linearGradient>
<linearGradient id="paint2_linear_3198_320" x1="64.7135" y1="47.3351" x2="64.7135" y2="77.6649" gradientUnits="userSpaceOnUse">
<stop stop-color="#EFF3F5"/>
<stop offset="1" stop-color="#DBE4E8"/>
</linearGradient>
<linearGradient id="paint3_linear_3198_320" x1="64.7135" y1="47.3351" x2="64.7135" y2="77.6649" gradientUnits="userSpaceOnUse">
<stop stop-color="#EFF3F5"/>
<stop offset="1" stop-color="#DBE4E8"/>
</linearGradient>
<clipPath id="clip0_3198_320">
<rect width="128" height="128" fill="white"/>
</clipPath>
</defs>
</svg>
