<?xml version="1.0" encoding="UTF-8" standalone="no"?>
<svg xmlns:inkscape="http://www.inkscape.org/namespaces/inkscape" xmlns:sodipodi="http://sodipodi.sourceforge.net/DTD/sodipodi-0.dtd" xmlns="http://www.w3.org/2000/svg" xmlns:svg="http://www.w3.org/2000/svg" width="24" height="24" viewBox="0 0 24 24" fill="none" version="1.1" id="svg2" sodipodi:docname="activities.svg" inkscape:version="1.4 (e7c3feb100, 2024-10-09)">
  <defs id="defs1">
    <style id="current-color-scheme" type="text/css">
         .ColorScheme-Text { color:#e6f0f5; }
         .ColorScheme-Highlight { color:#2179cb; }
         .ColorScheme-Background { color:#e4e4e4; }
      </style>
  </defs>
  <defs id="defs2"/>
  <sodipodi:namedview id="namedview2" pagecolor="#ffffff" bordercolor="#ffffff" borderopacity="0.25" inkscape:showpageshadow="2" inkscape:pageopacity="0.0" inkscape:pagecheckerboard="0" inkscape:deskcolor="#d1d1d1" showgrid="true" inkscape:zoom="11.770382" inkscape:cx="-12.404016" inkscape:cy="21.197273" inkscape:window-width="1920" inkscape:window-height="1008" inkscape:window-x="0" inkscape:window-y="0" inkscape:window-maximized="1" inkscape:current-layer="svg2">
    <inkscape:grid id="grid2" units="px" originx="0" originy="0" spacingx="1" spacingy="1" empcolor="#0099e5" empopacity="0.30196078" color="#0099e5" opacity="0.14902" empspacing="5" enabled="true" visible="true"/>
  </sodipodi:namedview>
  <path d="M4 6C4 4.89543 4.89543 4 6 4H18C19.1046 4 20 4.89543 20 6V11H4V6Z" stroke="#ffffff" stroke-width="1.2" stroke-linejoin="round" id="path1" style="stroke-linecap:square;stroke-linejoin:round"/>
  <path d="m 3.421777,12.747027 h 17.156446 v 5.36139 c 0,1.184437 -0.960118,2.144556 -2.144556,2.144556 H 5.5663325 c -1.1844059,0 -2.1445555,-0.960119 -2.1445555,-2.144556 z" fill="#ffffff" stroke="#ffffff" stroke-width="1.28673" stroke-linejoin="round" id="path2" style="stroke:none;stroke-opacity:1;stroke-width:1.287;stroke-dasharray:none;stroke-linecap:square;stroke-linejoin:round"/>
  <path d="M4 6C4 4.89543 4.89543 4 6 4H18C19.1046 4 20 4.89543 20 6V11H4V6Z" stroke-width="1.2" stroke-linejoin="round" id="path1" style="stroke:currentColor;opacity:0.5;stroke-linecap:square;stroke-linejoin:round" class="ColorScheme-Highlight"/>
  <path d="m 3.421777,12.747027 h 17.156446 v 5.36139 c 0,1.184437 -0.960118,2.144556 -2.144556,2.144556 H 5.5663325 c -1.1844059,0 -2.1445555,-0.960119 -2.1445555,-2.144556 z" stroke-width="1.28673" stroke-linejoin="round" id="path2" style="fill:currentColor;stroke:none;opacity:0.5;stroke-width:1.287;stroke-dasharray:none;stroke-linecap:square;stroke-linejoin:round" class="ColorScheme-Highlight"/>
</svg>
