<?xml version="1.0" encoding="UTF-8" standalone="no"?>
<svg xmlns:inkscape="http://www.inkscape.org/namespaces/inkscape" xmlns:sodipodi="http://sodipodi.sourceforge.net/DTD/sodipodi-0.dtd" xmlns="http://www.w3.org/2000/svg" xmlns:svg="http://www.w3.org/2000/svg" width="24" height="24" viewBox="0 0 24 24" fill="none" version="1.1" id="svg1" sodipodi:docname="dialog-cancel-symbolic.svg" inkscape:version="1.4 (e7c3feb100, 2024-10-09)">
  <defs id="defs1">
    <style id="current-color-scheme" type="text/css">
      .ColorScheme-Text { color:#e6f0f5; }
      .ColorScheme-Highlight { color:#2179cb; }
      .ColorScheme-Background { color:#e4e4e4; }
    </style>
  </defs>
  <sodipodi:namedview id="namedview1" pagecolor="#ffffff" bordercolor="#ffffff" borderopacity="0.25" inkscape:showpageshadow="2" inkscape:pageopacity="0.0" inkscape:pagecheckerboard="0" inkscape:deskcolor="#d1d1d1" inkscape:zoom="33.291667" inkscape:cx="11.984981" inkscape:cy="12" inkscape:window-width="1920" inkscape:window-height="1008" inkscape:window-x="0" inkscape:window-y="0" inkscape:window-maximized="1" inkscape:current-layer="svg1"/>
  <g clip-path="url(#clip0_1166_177)" id="g1">
    <path id="path1" d="m 6,6 12,12 m 2,-6 a 8,8 0 0 1 -8,8 8,8 0 0 1 -8,-8 8,8 0 0 1 8,-8 8,8 0 0 1 8,8 z" style="stroke:#ffffff;stroke-opacity:1;stroke-linejoin:round;stroke-linecap:butt;stroke-width:1.3;stroke-dasharray:none"/>
    <path id="path1" d="m 6,6 12,12 m 2,-6 a 8,8 0 0 1 -8,8 8,8 0 0 1 -8,-8 8,8 0 0 1 8,-8 8,8 0 0 1 8,8 z" style="stroke:currentColor;opacity:0.5;stroke-linejoin:round;stroke-linecap:butt;stroke-width:1.3;stroke-dasharray:none" class="ColorScheme-Highlight"/>
  </g>
  <defs id="defs1">
    <clipPath id="clip0_1166_177">
      <rect width="24" height="24" fill="white" id="rect1"/>
    </clipPath>
  </defs>
</svg>
