<svg width="24" height="24" viewBox="0 0 24 24" fill="none" xmlns="http://www.w3.org/2000/svg">
<g clip-path="url(#clip0_3017_1427)">
<mask id="mask0_3017_1427" style="mask-type:luminance" maskUnits="userSpaceOnUse" x="0" y="0" width="24" height="24">
<path d="M24 0H0V24H24V0Z" fill="white"/>
</mask>
<g mask="url(#mask0_3017_1427)">
<path d="M13 8H7C5.89543 8 5 8.89543 5 10V18C5 19.1046 5.89543 20 7 20H13C14.1046 20 15 19.1046 15 18V10C15 8.89543 14.1046 8 13 8Z" stroke="#DDDDDD" stroke-width="1.2" stroke-linejoin="round"/>
<path d="M15 16H17C18.1046 16 19 15.1046 19 14V6C19 4.89543 18.1046 4 17 4H11.0001C9.89543 4 9 4.89543 9 6V8" stroke="#DDDDDD" stroke-width="1.2" stroke-linecap="round" stroke-linejoin="round"/>
</g>
</g>
<defs>
<clipPath id="clip0_3017_1427">
<rect width="24" height="24" fill="white"/>
</clipPath>
</defs>
</svg>
