<?xml version="1.0" encoding="UTF-8" standalone="no"?>
<svg
   width="24"
   height="24"
   viewBox="0 0 24 24"
   fill="none"
   version="1.1"
   id="svg4"
   sodipodi:docname="edit-clear.svg"
   inkscape:version="1.4 (e7c3feb100, 2024-10-09)"
   xmlns:inkscape="http://www.inkscape.org/namespaces/inkscape"
   xmlns:sodipodi="http://sodipodi.sourceforge.net/DTD/sodipodi-0.dtd"
   xmlns="http://www.w3.org/2000/svg"
   xmlns:svg="http://www.w3.org/2000/svg">
  <sodipodi:namedview
     id="namedview4"
     pagecolor="#ffffff"
     bordercolor="#ffffff"
     borderopacity="0.25"
     inkscape:showpageshadow="2"
     inkscape:pageopacity="0.0"
     inkscape:pagecheckerboard="0"
     inkscape:deskcolor="#d1d1d1"
     inkscape:zoom="33.291667"
     inkscape:cx="11.984981"
     inkscape:cy="12"
     inkscape:window-width="1920"
     inkscape:window-height="1008"
     inkscape:window-x="0"
     inkscape:window-y="0"
     inkscape:window-maximized="1"
     inkscape:current-layer="svg4" />
  <defs
     id="defs1">
    <style
       id="current-color-scheme"
       type="text/css">
            .ColorScheme-Text { color:#e6f0f5; }
            .ColorScheme-Highlight { color:#2179cb; }
            .ColorScheme-Background { color:#e4e4e4; }
        </style>
  </defs>
  <g
     id="g4"
     transform="matrix(-1,0,0,1,25.167801,0)">
    <path
       d="m 14,9 -6,6 m 0,-6 6,6"
       stroke="#ffffff"
       stroke-width="1.2"
       stroke-linecap="round"
       id="path1" />
    <path
       d="m 5,20 h 9.1716 c 0.5304,0 1.0391,-0.2107 1.4142,-0.5858 l 6,-6 c 0.781,-0.781 0.781,-2.0474 0,-2.8284 l -6,-6.00001 C 15.2107,4.21071 14.702,4 14.1716,4 H 5 C 3.89543,4 3,4.89543 3,6 v 12 c 0,1.1046 0.89543,2 2,2 z"
       stroke="#ffffff"
       stroke-width="1.2"
       stroke-linecap="round"
       id="path2" />
    <path
       d="m 14,9 -6,6 m 0,-6 6,6"
       style="opacity:0.5;stroke:currentColor"
       class="ColorScheme-Highlight"
       stroke-width="1.2"
       stroke-linecap="round"
       id="path3" />
    <path
       d="m 5,20 h 9.1716 c 0.5304,0 1.0391,-0.2107 1.4142,-0.5858 l 6,-6 c 0.781,-0.781 0.781,-2.0474 0,-2.8284 l -6,-6.00001 C 15.2107,4.21071 14.702,4 14.1716,4 H 5 C 3.89543,4 3,4.89543 3,6 v 12 c 0,1.1046 0.89543,2 2,2 z"
       style="opacity:0.5;stroke:currentColor"
       class="ColorScheme-Highlight"
       stroke-width="1.2"
       stroke-linecap="round"
       id="path4" />
  </g>
</svg>
