<svg width="24" height="24" viewBox="0 0 24 24" fill="none" xmlns="http://www.w3.org/2000/svg">
<path d="M4.29289 15.7071L15.2929 4.70708C15.6834 4.31655 16.3166 4.31655 16.7071 4.70708L19.2929 7.29286C19.6834 7.68339 19.6834 8.31655 19.2929 8.70708L8.29289 19.7071C8.10536 19.8946 7.851 20 7.58579 20H5C4.44772 20 4 19.5523 4 19V16.4142C4 16.149 4.10536 15.8946 4.29289 15.7071Z" stroke="#DDDDDD" stroke-width="1.2" stroke-linecap="round"/>
<path d="M14 6L18 10" stroke="#DDDDDD" stroke-width="1.2"/>
<path d="M4 16C4.5 16.1667 5.7 16.7 6.5 17.5C7.3 18.3 7.83333 19.5 8 20" stroke="#DDDDDD" stroke-width="1.2"/>
</svg>
