<?xml version="1.0"?>
<svg xmlns="http://www.w3.org/2000/svg" width="24" height="24" viewBox="0 0 24 24" fill="none">
    <defs id="defs1">
        <style id="current-color-scheme" type="text/css">
            .ColorScheme-Text { color:#e6f0f5; }
            .ColorScheme-Highlight { color:#2179cb; }
            .ColorScheme-Background { color:#e4e4e4; }
        </style>
    </defs>
    <g clip-path="url(#clip0_887_178)">
        <path d="M5 10.2019V18C5 18.5523 5.44772 19 6 19H8.59375C9.14603 19 9.59375 18.5523 9.59375 18V15.1875C9.59375 14.6352 10.0415 14.1875 10.5938 14.1875H13.1875C13.7398 14.1875 14.1875 14.6352 14.1875 15.1875V18C14.1875 18.5523 14.6352 19 15.1875 19H18C18.5523 19 19 18.5523 19 18V10.2019C19 9.8675 18.8329 9.55527 18.5547 9.3698L12.5547 5.3698C12.2188 5.14587 11.7812 5.14587 11.4453 5.3698L5.4453 9.3698C5.1671 9.55527 5 9.8675 5 10.2019Z" stroke="#ffffff" stroke-width="1.2" stroke-linecap="round" stroke-linejoin="round"/>
        <path d="M5 10.2019V18C5 18.5523 5.44772 19 6 19H8.59375C9.14603 19 9.59375 18.5523 9.59375 18V15.1875C9.59375 14.6352 10.0415 14.1875 10.5938 14.1875H13.1875C13.7398 14.1875 14.1875 14.6352 14.1875 15.1875V18C14.1875 18.5523 14.6352 19 15.1875 19H18C18.5523 19 19 18.5523 19 18V10.2019C19 9.8675 18.8329 9.55527 18.5547 9.3698L12.5547 5.3698C12.2188 5.14587 11.7812 5.14587 11.4453 5.3698L5.4453 9.3698C5.1671 9.55527 5 9.8675 5 10.2019Z" style="stroke:currentColor;opacity:0.5" class="ColorScheme-Highlight" stroke-width="1.2" stroke-linecap="round" stroke-linejoin="round"/>
    </g>
    <defs>
        <clipPath id="clip0_887_178">
            <rect width="24" height="24" fill="white"/>
        </clipPath>
    </defs>
</svg>
