<svg width="24" height="24" viewBox="0 0 24 24" fill="none" xmlns="http://www.w3.org/2000/svg">
<g clip-path="url(#clip0_3017_1471)">
<mask id="mask0_3017_1471" style="mask-type:luminance" maskUnits="userSpaceOnUse" x="0" y="0" width="24" height="24">
<path d="M24 0H0V24H24V0Z" fill="white"/>
</mask>
<g mask="url(#mask0_3017_1471)">
<path d="M5 10.202V18.0001C5 18.5524 5.44772 19.0001 6 19.0001H8.59375C9.14603 19.0001 9.59375 18.5524 9.59375 18.0001V15.1876C9.59375 14.6353 10.0415 14.1876 10.5938 14.1876H13.1875C13.7398 14.1876 14.1875 14.6353 14.1875 15.1876V18.0001C14.1875 18.5524 14.6352 19.0001 15.1875 19.0001H18C18.5523 19.0001 19 18.5524 19 18.0001V10.202C19 9.86755 18.8329 9.55532 18.5547 9.36985L12.5547 5.36985C12.2188 5.14592 11.7812 5.14592 11.4453 5.36985L5.4453 9.36985C5.1671 9.55532 5 9.86755 5 10.202Z" stroke="#DDDDDD" stroke-width="1.2" stroke-linecap="round" stroke-linejoin="round"/>
</g>
</g>
<defs>
<clipPath id="clip0_3017_1471">
<rect width="24" height="24" fill="white"/>
</clipPath>
</defs>
</svg>
