<svg width="24" height="24" viewBox="0 0 24 24" fill="none" xmlns="http://www.w3.org/2000/svg">
<g clip-path="url(#clip0_3017_1532)">
<mask id="mask0_3017_1532" style="mask-type:luminance" maskUnits="userSpaceOnUse" x="0" y="0" width="24" height="24">
<path d="M24 0H0V24H24V0Z" fill="white"/>
</mask>
<g mask="url(#mask0_3017_1532)">
<path d="M9.94918 3C6.49893 3.7829 3.7829 6.49893 3 9.94918M14.0508 3C17.5011 3.7829 20.2171 6.49893 21 9.94918M21 14.0508C20.2171 17.5011 17.5011 20.2171 14.0508 21M9.94918 21C6.49893 20.2171 3.7829 17.5011 3 14.0508" stroke="#DDDDDD" stroke-width="1.2"/>
<path d="M10.2328 7C8.72637 7.53244 7.53244 8.72637 7 10.2328M13.7672 7C15.2736 7.53244 16.4676 8.72637 17 10.2328M17 13.7672C16.4676 15.2736 15.2736 16.4676 13.7672 17M10.2328 17C8.72637 16.4676 7.53244 15.2736 7 13.7672" stroke="#DDDDDD" stroke-width="1.2"/>
<path d="M13 2H11C10.4477 2 10 2.44772 10 3V7C10 7.55228 10.4477 8 11 8H13C13.5523 8 14 7.55228 14 7V3C14 2.44772 13.5523 2 13 2Z" stroke="#DDDDDD" stroke-width="1.2"/>
<path d="M13 16H11C10.4477 16 10 16.4477 10 17V21C10 21.5523 10.4477 22 11 22H13C13.5523 22 14 21.5523 14 21V17C14 16.4477 13.5523 16 13 16Z" stroke="#DDDDDD" stroke-width="1.2"/>
<path d="M22 13V11C22 10.4477 21.5523 10 21 10H17C16.4477 10 16 10.4477 16 11V13C16 13.5523 16.4477 14 17 14H21C21.5523 14 22 13.5523 22 13Z" stroke="#DDDDDD" stroke-width="1.2"/>
<path d="M8 13V11C8 10.4477 7.55228 10 7 10H3C2.44772 10 2 10.4477 2 11V13C2 13.5523 2.44772 14 3 14H7C7.55228 14 8 13.5523 8 13Z" stroke="#DDDDDD" stroke-width="1.2"/>
</g>
</g>
<defs>
<clipPath id="clip0_3017_1532">
<rect width="24" height="24" fill="white"/>
</clipPath>
</defs>
</svg>
