<?xml version="1.0" encoding="UTF-8" standalone="no"?>
<svg xmlns:inkscape="http://www.inkscape.org/namespaces/inkscape" xmlns:sodipodi="http://sodipodi.sourceforge.net/DTD/sodipodi-0.dtd" xmlns="http://www.w3.org/2000/svg" xmlns:svg="http://www.w3.org/2000/svg" width="24" height="24" viewBox="0 0 24 24" fill="none" version="1.1" id="svg4" sodipodi:docname="media-playlist-repeat.svg" inkscape:version="1.4 (e7c3feb100, 2024-10-09)">
   <defs id="defs1">
      <style id="current-color-scheme" type="text/css">
         .ColorScheme-Text { color:#e6f0f5; }
         .ColorScheme-Highlight { color:#2179cb; }
         .ColorScheme-Background { color:#e4e4e4; }
      </style>
   </defs>
   <defs id="defs4"/>
   <sodipodi:namedview id="namedview4" pagecolor="#ffffff" bordercolor="#ffffff" borderopacity="0.25" inkscape:showpageshadow="2" inkscape:pageopacity="0.0" inkscape:pagecheckerboard="0" inkscape:deskcolor="#d1d1d1" inkscape:zoom="33.291667" inkscape:cx="11.984981" inkscape:cy="12" inkscape:window-width="1920" inkscape:window-height="1008" inkscape:window-x="0" inkscape:window-y="0" inkscape:window-maximized="1" inkscape:current-layer="svg4"/>
   <path id="path3" d="m 16,5 2,2 -2,2 m 2,-1.99998 c 0,0 -5.2663,0 -8,0 C 4,7 4,12 4,12" style="stroke:#ffffff;stroke-opacity:1;stroke-linecap:round;stroke-linejoin:round;stroke-width:1.2;stroke-dasharray:none"/>
   <path id="path4" d="M 7,19 5,17 7,15 m -1,2 c 0,0 5.2663,0 8,0 6,0 6,-5 6,-5" style="stroke:#ffffff;stroke-opacity:1;stroke-linecap:round;stroke-linejoin:round;stroke-width:1.2;stroke-dasharray:none"/>
   <path id="path3" d="m 16,5 2,2 -2,2 m 2,-1.99998 c 0,0 -5.2663,0 -8,0 C 4,7 4,12 4,12" style="stroke:currentColor;opacity:0.5;stroke-linecap:round;stroke-linejoin:round;stroke-width:1.2;stroke-dasharray:none" class="ColorScheme-Highlight"/>
   <path id="path4" d="M 7,19 5,17 7,15 m -1,2 c 0,0 5.2663,0 8,0 6,0 6,-5 6,-5" style="stroke:currentColor;opacity:0.5;stroke-linecap:round;stroke-linejoin:round;stroke-width:1.2;stroke-dasharray:none" class="ColorScheme-Highlight"/>
</svg>
