<?xml version="1.0"?>
<svg xmlns="http://www.w3.org/2000/svg" width="24" height="24" viewBox="0 0 24 24" fill="none">
    <defs id="defs1">
        <style id="current-color-scheme" type="text/css">
            .ColorScheme-Text { color:#e6f0f5; }
            .ColorScheme-Highlight { color:#2179cb; }
            .ColorScheme-Background { color:#e4e4e4; }
        </style>
    </defs>
    <path d="M16.5 9.58333C16.5 7.05203 14.4853 5 12 5C9.51472 5 7.5 7.05203 7.5 9.58333L7.5 11.9444C7.5 13.1667 6.5 14.4907 6 15H12.0002H18C17.5 14.4907 16.5 13.1667 16.5 11.9444L16.5 9.58333Z" stroke="#ffffff" stroke-width="1.2" stroke-linecap="round" stroke-linejoin="round"/>
    <path d="M14 17C14 18.1046 13.1046 19 12 19C10.8954 19 10 18.1046 10 17" stroke="#ffffff" stroke-width="1.2" stroke-linecap="round" stroke-linejoin="round"/>
    <path d="M16.5 9.58333C16.5 7.05203 14.4853 5 12 5C9.51472 5 7.5 7.05203 7.5 9.58333L7.5 11.9444C7.5 13.1667 6.5 14.4907 6 15H12.0002H18C17.5 14.4907 16.5 13.1667 16.5 11.9444L16.5 9.58333Z" style="stroke:currentColor;opacity:0.5" class="ColorScheme-Highlight" stroke-width="1.2" stroke-linecap="round" stroke-linejoin="round"/>
    <path d="M14 17C14 18.1046 13.1046 19 12 19C10.8954 19 10 18.1046 10 17" style="stroke:currentColor;opacity:0.5" class="ColorScheme-Highlight" stroke-width="1.2" stroke-linecap="round" stroke-linejoin="round"/>
</svg>
