<svg width="24" height="24" viewBox="0 0 24 24" fill="none" xmlns="http://www.w3.org/2000/svg">
<g clip-path="url(#clip0_3017_1649)">
<mask id="mask0_3017_1649" style="mask-type:luminance" maskUnits="userSpaceOnUse" x="0" y="0" width="24" height="24">
<path d="M24 0H0V24H24V0Z" fill="white"/>
</mask>
<g mask="url(#mask0_3017_1649)">
<path d="M15.0614 4.60901C16.7714 5.3173 18.1829 6.59658 19.0553 8.22887C19.9278 9.86117 20.2073 11.7454 19.8462 13.5607C19.4852 15.376 18.5058 17.0099 17.0751 18.1841C15.6444 19.3582 13.8508 20 12 20C10.1491 20 8.35559 19.3582 6.92487 18.1841C5.49415 17.0099 4.51482 15.376 4.15373 13.5607C3.79265 11.7454 4.07217 9.86117 4.94465 8.22888C5.81713 6.59658 7.22859 5.3173 8.93855 4.60901" stroke="#DDDDDD" stroke-width="1.2" stroke-linecap="round"/>
<path d="M12 3V12" stroke="#DDDDDD" stroke-width="1.2" stroke-linecap="round"/>
</g>
</g>
<defs>
<clipPath id="clip0_3017_1649">
<rect width="24" height="24" fill="white"/>
</clipPath>
</defs>
</svg>
