<?xml version="1.0" encoding="UTF-8" standalone="no"?>
<svg xmlns:inkscape="http://www.inkscape.org/namespaces/inkscape" xmlns:sodipodi="http://sodipodi.sourceforge.net/DTD/sodipodi-0.dtd" xmlns="http://www.w3.org/2000/svg" xmlns:svg="http://www.w3.org/2000/svg" width="24" height="24" viewBox="0 0 24 24" fill="none" version="1.1" id="svg5" sodipodi:docname="tools-check-spelling.svg" inkscape:version="1.4 (e7c3feb100, 2024-10-09)">
  <defs id="defs1">
    <style id="current-color-scheme" type="text/css">
      .ColorScheme-Text { color:#e6f0f5; }
      .ColorScheme-Highlight { color:#2179cb; }
      .ColorScheme-Background { color:#e4e4e4; }
    </style>
  </defs>
  <sodipodi:namedview id="namedview5" pagecolor="#ffffff" bordercolor="#ffffff" borderopacity="0.25" inkscape:showpageshadow="2" inkscape:pageopacity="0.0" inkscape:pagecheckerboard="0" inkscape:deskcolor="#d1d1d1" inkscape:zoom="33.291667" inkscape:cx="11.984981" inkscape:cy="12" inkscape:window-width="1920" inkscape:window-height="1008" inkscape:window-x="0" inkscape:window-y="0" inkscape:window-maximized="1" inkscape:current-layer="svg5"/>
  <g clip-path="url(#clip0_1119_419)" id="g2">
    <path fill-rule="evenodd" clip-rule="evenodd" d="M12.9258 3.62137C12.7732 3.24833 12.4116 3.00337 12.0085 3.00003C11.6055 2.99669 11.2399 3.23563 11.0811 3.60608L5.08111 17.6061C4.86356 18.1137 5.09871 18.7016 5.60634 18.9191C6.11397 19.1367 6.70185 18.9015 6.9194 18.3939L8.81024 13.982C8.87176 13.9938 8.93528 14 9.00026 14H15.0003C15.0037 14 15.0072 14 15.0107 13.9999L15.5747 15.3786C15.7838 15.8898 16.3677 16.1347 16.8789 15.9255C17.3901 15.7164 17.6349 15.1325 17.4258 14.6214L12.9258 3.62137ZM14.1925 12L11.9788 6.58864L9.65965 12H14.1925Z" fill="url(#paint0_linear_1119_419)" id="path1"/>
    <path fill-rule="evenodd" clip-rule="evenodd" d="M22.2074 14.7929C22.5979 15.1834 22.5979 15.8166 22.2074 16.2071L17.2074 21.2071C16.8168 21.5976 16.1837 21.5976 15.7931 21.2071L13.7931 19.2071C13.4026 18.8166 13.4026 18.1834 13.7931 17.7929C14.1837 17.4024 14.8168 17.4024 15.2074 17.7929L16.5002 19.0858L20.7931 14.7929C21.1837 14.4024 21.8168 14.4024 22.2074 14.7929Z" fill="url(#paint1_linear_1119_419)" id="path2"/>
  </g>
  <defs id="defs5">
    <linearGradient id="paint0_linear_1119_419" x1="7.39593" y1="2.43999" x2="18.4293" y2="16.6202" gradientUnits="userSpaceOnUse">
      <stop stop-color="#4D5863" id="stop2" offset="0"/>
      <stop offset="0" stop-color="#262626" id="stop3"/>
    </linearGradient>
    <linearGradient id="paint1_linear_1119_419" x1="17.4708" y1="14.8058" x2="17.8238" y2="20.611" gradientUnits="userSpaceOnUse">
      <stop stop-color="#3FD383" id="stop4"/>
      <stop offset="1" stop-color="#15B279" id="stop5"/>
    </linearGradient>
    <clipPath id="clip0_1119_419">
      <rect width="24" height="24" fill="white" id="rect5"/>
    </clipPath>
  </defs>
</svg>
