<svg width="24" height="24" viewBox="0 0 24 24" fill="none" xmlns="http://www.w3.org/2000/svg">
<g clip-path="url(#clip0_3017_1663)">
<mask id="mask0_3017_1663" style="mask-type:luminance" maskUnits="userSpaceOnUse" x="0" y="0" width="24" height="24">
<path d="M24 0H0V24H24V0Z" fill="white"/>
</mask>
<g mask="url(#mask0_3017_1663)">
<path fill-rule="evenodd" clip-rule="evenodd" d="M12.9258 3.62137C12.7732 3.24833 12.4116 3.00337 12.0085 3.00003C11.6055 2.99669 11.2399 3.23563 11.0811 3.60608L5.08111 17.6061C4.86356 18.1137 5.09871 18.7016 5.60634 18.9191C6.11397 19.1367 6.70185 18.9015 6.9194 18.3939L8.81024 13.982C8.87176 13.9938 8.93528 14 9.00026 14H15.0003C15.0037 14 15.0072 14 15.0107 13.9999L15.5747 15.3786C15.7838 15.8898 16.3677 16.1347 16.8789 15.9255C17.3901 15.7164 17.6349 15.1325 17.4258 14.6214L12.9258 3.62137ZM14.1925 12L11.9788 6.58864L9.65965 12H14.1925Z" fill="url(#paint0_linear_3017_1663)"/>
<path fill-rule="evenodd" clip-rule="evenodd" d="M22.2072 14.7929C22.5977 15.1834 22.5977 15.8166 22.2072 16.2071L17.2072 21.2071C16.8166 21.5976 16.1835 21.5976 15.7929 21.2071L13.7929 19.2071C13.4024 18.8166 13.4024 18.1834 13.7929 17.7929C14.1835 17.4024 14.8166 17.4024 15.2072 17.7929L16.5 19.0858L20.7929 14.7929C21.1835 14.4024 21.8166 14.4024 22.2072 14.7929Z" fill="url(#paint1_linear_3017_1663)"/>
</g>
</g>
<defs>
<linearGradient id="paint0_linear_3017_1663" x1="7.39593" y1="2.43999" x2="18.4293" y2="16.6202" gradientUnits="userSpaceOnUse">
<stop stop-color="#4D5863"/>
<stop offset="1" stop-color="#262626"/>
</linearGradient>
<linearGradient id="paint1_linear_3017_1663" x1="17.4706" y1="14.8058" x2="17.8236" y2="20.611" gradientUnits="userSpaceOnUse">
<stop stop-color="#3FD383"/>
<stop offset="1" stop-color="#15B279"/>
</linearGradient>
<clipPath id="clip0_3017_1663">
<rect width="24" height="24" fill="white"/>
</clipPath>
</defs>
</svg>
