<svg width="24" height="24" viewBox="0 0 24 24" fill="none" xmlns="http://www.w3.org/2000/svg">
<g clip-path="url(#clip0_3017_1695)">
<mask id="mask0_3017_1695" style="mask-type:luminance" maskUnits="userSpaceOnUse" x="0" y="0" width="24" height="24">
<path d="M24 0H0V24H24V0Z" fill="white"/>
</mask>
<g mask="url(#mask0_3017_1695)">
<path d="M9 4H5C4.44772 4 4 4.44772 4 5V9C4 9.55228 4.44772 10 5 10H9C9.55228 10 10 9.55228 10 9V5C10 4.44772 9.55228 4 9 4Z" stroke="#DDDDDD" stroke-width="1.2"/>
<path d="M9 14H5C4.44772 14 4 14.4477 4 15V19C4 19.5523 4.44772 20 5 20H9C9.55228 20 10 19.5523 10 19V15C10 14.4477 9.55228 14 9 14Z" fill="#DDDDDD" stroke="#DDDDDD" stroke-width="1.2"/>
<path d="M19 4H15C14.4477 4 14 4.44772 14 5V9C14 9.55228 14.4477 10 15 10H19C19.5523 10 20 9.55228 20 9V5C20 4.44772 19.5523 4 19 4Z" fill="#DDDDDD" stroke="#DDDDDD" stroke-width="1.2"/>
<path d="M19 14H15C14.4477 14 14 14.4477 14 15V19C14 19.5523 14.4477 20 15 20H19C19.5523 20 20 19.5523 20 19V15C20 14.4477 19.5523 14 19 14Z" stroke="#DDDDDD" stroke-width="1.2"/>
</g>
</g>
<defs>
<clipPath id="clip0_3017_1695">
<rect width="24" height="24" fill="white"/>
</clipPath>
</defs>
</svg>
