<?xml version="1.0" encoding="UTF-8" standalone="no"?>
<svg xmlns:inkscape="http://www.inkscape.org/namespaces/inkscape" xmlns:sodipodi="http://sodipodi.sourceforge.net/DTD/sodipodi-0.dtd" xmlns="http://www.w3.org/2000/svg" xmlns:svg="http://www.w3.org/2000/svg" width="24" height="24" viewBox="0 0 24 24" fill="none" version="1.1" id="svg4" sodipodi:docname="view-list-tree.svg" inkscape:version="1.4 (e7c3feb100, 2024-10-09)">
  <defs id="defs1">
    <style id="current-color-scheme" type="text/css">
      .ColorScheme-Text { color:#e6f0f5; }
      .ColorScheme-Highlight { color:#2179cb; }
      .ColorScheme-Background { color:#e4e4e4; }
    </style>
  </defs>
  <sodipodi:namedview id="namedview4" pagecolor="#ffffff" bordercolor="#ffffff" borderopacity="0.25" inkscape:showpageshadow="2" inkscape:pageopacity="0.0" inkscape:pagecheckerboard="0" inkscape:deskcolor="#d1d1d1" inkscape:zoom="33.291667" inkscape:cx="11.984981" inkscape:cy="12" inkscape:window-width="1920" inkscape:window-height="1008" inkscape:window-x="0" inkscape:window-y="0" inkscape:window-maximized="1" inkscape:current-layer="g4"/>
  <g clip-path="url(#clip0_956_404)" id="g4">
    <path id="path4" d="m 14,17 h -2 c -1.1046,0 -2,-0.8954 -2,-2 V 7 m 0,0 h 4 m 1,-3 h 4 c 0.554,0 1,0.446 1,1 v 4 c 0,0.554 -0.446,1 -1,1 H 15 C 14.446,10 14,9.554 14,9 V 5 C 14,4.446 14.446,4 15,4 Z M 5,4 h 4 c 0.554,0 1,0.446 1,1 v 4 c 0,0.554 -0.446,1 -1,1 H 5 C 4.446,10 4,9.554 4,9 V 5 C 4,4.446 4.446,4 5,4 Z" style="stroke:#ffffff;stroke-opacity:1;stroke-width:1.2;stroke-dasharray:none;stroke-linejoin:round;stroke-linecap:round"/>
    <path id="path1" d="m 14,17 h -2 c -1.1046,0 -2,-0.8954 -2,-2 V 7 m 0,0 h 4 m 1,-3 h 4 c 0.554,0 1,0.446 1,1 v 4 c 0,0.554 -0.446,1 -1,1 H 15 C 14.446,10 14,9.554 14,9 V 5 C 14,4.446 14.446,4 15,4 Z M 5,4 h 4 c 0.554,0 1,0.446 1,1 v 4 c 0,0.554 -0.446,1 -1,1 H 5 C 4.446,10 4,9.554 4,9 V 5 C 4,4.446 4.446,4 5,4 Z" style="stroke:currentColor;opacity:0.5;stroke-width:1.2;stroke-dasharray:none;stroke-linejoin:round;stroke-linecap:round" class="ColorScheme-Highlight"/>
    <rect x="13.399249" y="13.399249" width="7.2015018" height="7.2015018" rx="1.2002503" fill="#ffffff" stroke="#ffffff" stroke-width="1.4403" id="rect3" inkscape:label="solid" style="stroke:none"/>
    <rect x="13.399249" y="13.399249" width="7.2015018" height="7.2015018" rx="1.2002503" style="fill:currentColor;opacity:0.5;stroke:none" class="ColorScheme-Highlight" stroke-width="1.4403" id="rect1" inkscape:label="solid"/>
  </g>
  <defs id="defs4">
    <clipPath id="clip0_956_404">
      <rect width="24" height="24" fill="white" id="rect4"/>
    </clipPath>
  </defs>
</svg>
