<?xml version="1.0" encoding="UTF-8" standalone="no"?>
<svg xmlns:inkscape="http://www.inkscape.org/namespaces/inkscape" xmlns:sodipodi="http://sodipodi.sourceforge.net/DTD/sodipodi-0.dtd" xmlns="http://www.w3.org/2000/svg" xmlns:svg="http://www.w3.org/2000/svg" width="24" height="24" viewBox="0 0 24 24" fill="none" version="1.1" id="svg2" sodipodi:docname="viewimage.svg" inkscape:version="1.4 (e7c3feb100, 2024-10-09)">
  <defs id="defs1">
    <style id="current-color-scheme" type="text/css">
      .ColorScheme-Text { color:#e6f0f5; }
      .ColorScheme-Highlight { color:#2179cb; }
      .ColorScheme-Background { color:#e4e4e4; }
    </style>
  </defs>
  <sodipodi:namedview id="namedview2" pagecolor="#ffffff" bordercolor="#ffffff" borderopacity="0.25" inkscape:showpageshadow="2" inkscape:pageopacity="0.0" inkscape:pagecheckerboard="0" inkscape:deskcolor="#d1d1d1" inkscape:zoom="33.291667" inkscape:cx="11.984981" inkscape:cy="12" inkscape:window-width="1920" inkscape:window-height="1008" inkscape:window-x="0" inkscape:window-y="0" inkscape:window-maximized="1" inkscape:current-layer="svg2"/>
  <g clip-path="url(#clip0_3067_306)" id="g1">
    <path id="path1" d="M 8.65989,14.136 4.62861,15.7486 C 4.24895,15.9004 4,16.2681 4,16.677 V 18 c 0,1.1046 0.89543,2 2,2 h 12 c 1.1046,0 2,-0.8954 2,-2 v -2.382 c 0,-0.3787 -0.214,-0.725 -0.5528,-0.8944 l -3,-1.5 c -0.2815,-0.1408 -0.6129,-0.1408 -0.8944,0 l -3.1823,1.5912 c -0.2372,0.1186 -0.5119,0.1381 -0.7635,0.0542 L 9.34751,14.1158 C 9.12313,14.041 8.8795,14.0482 8.65989,14.136 Z M 6,4 h 12 c 1.108,0 2,0.892 2,2 v 12 c 0,1.108 -0.892,2 -2,2 H 6 C 4.892,20 4,19.108 4,18 V 6 C 4,4.892 4.892,4 6,4 Z" style="stroke:#ffffff;stroke-opacity:1"/>
    <circle cx="9" cy="9" r="2" stroke="#ffffff" stroke-width="1.2" id="circle1"/>
    <path id="path1" d="M 8.65989,14.136 4.62861,15.7486 C 4.24895,15.9004 4,16.2681 4,16.677 V 18 c 0,1.1046 0.89543,2 2,2 h 12 c 1.1046,0 2,-0.8954 2,-2 v -2.382 c 0,-0.3787 -0.214,-0.725 -0.5528,-0.8944 l -3,-1.5 c -0.2815,-0.1408 -0.6129,-0.1408 -0.8944,0 l -3.1823,1.5912 c -0.2372,0.1186 -0.5119,0.1381 -0.7635,0.0542 L 9.34751,14.1158 C 9.12313,14.041 8.8795,14.0482 8.65989,14.136 Z M 6,4 h 12 c 1.108,0 2,0.892 2,2 v 12 c 0,1.108 -0.892,2 -2,2 H 6 C 4.892,20 4,19.108 4,18 V 6 C 4,4.892 4.892,4 6,4 Z" style="stroke:currentColor;opacity:0.5" class="ColorScheme-Highlight"/>
    <circle cx="9" cy="9" r="2" style="stroke:currentColor;opacity:0.5;" class="ColorScheme-Highlight" stroke-width="1.2" id="circle1"/>
  </g>
  <defs id="defs2">
    <clipPath id="clip0_3067_306">
      <rect width="24" height="24" fill="white" id="rect2"/>
    </clipPath>
  </defs>
</svg>
