<?xml version="1.0" encoding="UTF-8" standalone="no"?>
<svg xmlns:inkscape="http://www.inkscape.org/namespaces/inkscape" xmlns:sodipodi="http://sodipodi.sourceforge.net/DTD/sodipodi-0.dtd" xmlns="http://www.w3.org/2000/svg" xmlns:svg="http://www.w3.org/2000/svg" width="24" height="24" viewBox="0 0 24 24" fill="none" version="1.1" id="svg2" sodipodi:docname="view-refresh.svg" inkscape:version="1.4 (e7c3feb100, 2024-10-09)">
  <defs id="defs1">
    <style id="current-color-scheme" type="text/css">
      .ColorScheme-Text { color:#e6f0f5; }
      .ColorScheme-Highlight { color:#2179cb; }
      .ColorScheme-Background { color:#e4e4e4; }
    </style>
  </defs>
  <sodipodi:namedview id="namedview2" pagecolor="#ffffff" bordercolor="#ffffff" borderopacity="0.25" inkscape:showpageshadow="2" inkscape:pageopacity="0.0" inkscape:pagecheckerboard="0" inkscape:deskcolor="#d1d1d1" inkscape:zoom="33.291667" inkscape:cx="11.984981" inkscape:cy="12" inkscape:window-width="1920" inkscape:window-height="1008" inkscape:window-x="0" inkscape:window-y="0" inkscape:window-maximized="1" inkscape:current-layer="svg2"/>
  <g clip-path="url(#clip0_1171_350)" id="g2">
    <path id="path2" d="m 20,6 v 3 h -3 m 3,3 c 0,4.4183 -3.5817,8 -8,8 -4.41828,0 -8,-3.5817 -8,-8 0,-4.41828 3.58172,-8 8,-8 3.2949,0 6.1245,1.99185 7.3504,4.8371" style="stroke:#ffffff;stroke-opacity:1;stroke-linecap:round;stroke-linejoin:round;stroke-width:1.1;stroke-dasharray:none"/>
    <path id="path2" d="m 20,6 v 3 h -3 m 3,3 c 0,4.4183 -3.5817,8 -8,8 -4.41828,0 -8,-3.5817 -8,-8 0,-4.41828 3.58172,-8 8,-8 3.2949,0 6.1245,1.99185 7.3504,4.8371" style="stroke:currentColor;opacity:0.5;stroke-linecap:round;stroke-linejoin:round;stroke-width:1.1;stroke-dasharray:none" class="ColorScheme-Highlight"/>
  </g>
  <defs id="defs2">
    <clipPath id="clip0_1171_350">
      <rect width="24" height="24" fill="white" id="rect2"/>
    </clipPath>
  </defs>
</svg>
