<svg width="24" height="24" viewBox="0 0 24 24" fill="none" xmlns="http://www.w3.org/2000/svg">
<g clip-path="url(#clip0_3069_352)">
<mask id="mask0_3069_352" style="mask-type:luminance" maskUnits="userSpaceOnUse" x="0" y="0" width="24" height="24">
<path d="M24 0H0V24H24V0Z" fill="white"/>
</mask>
<g mask="url(#mask0_3069_352)">
<path d="M18 4H6C4.89543 4 4 4.89543 4 6V18C4 19.1046 4.89543 20 6 20H18C19.1046 20 20 19.1046 20 18V6C20 4.89543 19.1046 4 18 4Z" stroke="#DDDDDD" stroke-width="1.2"/>
<path d="M8.65989 14.136L4.62861 15.7486C4.24895 15.9004 4 16.2681 4 16.677V18C4 19.1046 4.89543 20 6 20H18C19.1046 20 20 19.1046 20 18V15.618C20 15.2393 19.786 14.893 19.4472 14.7236L16.4472 13.2236C16.1657 13.0828 15.8343 13.0828 15.5528 13.2236L12.3705 14.8148C12.1333 14.9334 11.8586 14.9529 11.607 14.869L9.34751 14.1158C9.12313 14.041 8.8795 14.0482 8.65989 14.136Z" stroke="#DDDDDD" stroke-width="1.2" stroke-linecap="round" stroke-linejoin="round"/>
<path d="M9 11C10.1046 11 11 10.1046 11 9C11 7.89543 10.1046 7 9 7C7.89543 7 7 7.89543 7 9C7 10.1046 7.89543 11 9 11Z" stroke="#DDDDDD" stroke-width="1.2"/>
</g>
</g>
<defs>
<clipPath id="clip0_3069_352">
<rect width="24" height="24" fill="white"/>
</clipPath>
</defs>
</svg>
