<svg width="128" height="128" viewBox="0 0 128 128" fill="none" xmlns="http://www.w3.org/2000/svg">
<g clip-path="url(#clip0_3197_305)">
<path d="M19 17C19 13.6863 21.6863 11 25 11L86.5147 11C88.106 11 89.6321 11.6321 90.7574 12.7574L107.243 29.2426C108.368 30.3679 109 31.894 109 33.4853V115C109 118.314 106.314 121 103 121H25C21.6863 121 19 118.314 19 115V17Z" fill="black" fill-opacity="0.15"/>
<path d="M19 15C19 11.6863 21.6863 9 25 9L86.5147 9C88.106 9 89.6321 9.63214 90.7574 10.7574L107.243 27.2426C108.368 28.3679 109 29.894 109 31.4853V113C109 116.314 106.314 119 103 119H25C21.6863 119 19 116.314 19 113V15Z" fill="url(#paint0_linear_3197_305)"/>
<path d="M86 9H86.576C88.2116 9 89.7762 9.6677 90.9079 10.8486L107.332 27.9867C108.402 29.1037 109 30.591 109 32.1381V33C108.361 31.6666 107.014 30.8182 105.535 30.8182H94.0909C90.7772 30.8182 88.0909 28.1319 88.0909 24.8182V12.4493C88.0909 10.9998 87.2851 9.67049 86 9Z" fill="black" fill-opacity="0.15"/>
<path d="M87 9H87.5147C89.106 9 90.6321 9.63214 91.7574 10.7574L107.243 26.2426C108.368 27.3679 109 28.894 109 30.4853V31C108.387 29.7743 107.134 29 105.764 29H95C91.6863 29 89 26.3137 89 23V12.2361C89 10.8657 88.2257 9.61287 87 9Z" fill="#247FEA"/>
<path fill-rule="evenodd" clip-rule="evenodd" d="M54.781 59.3023C53.9429 58.9858 55.4095 53.8795 55.4095 51.1787C55.4095 47.8026 53.9429 46.5366 51.7429 45.2706C50.2034 44.3847 48.8189 45.2638 48.1222 46.0157C47.9469 46.2049 47.7255 46.3508 47.4724 46.4004C46.2288 46.6442 44.2024 47.1076 43.6762 47.4861C42.9429 48.0136 42 49.7016 42 50.4401C42 50.902 43.6642 51.4798 45.0414 51.8613C45.6021 52.0166 45.9369 52.6013 45.7979 53.1662C44.9148 56.7558 44.3805 63.1766 47.8667 66.6874C50.6854 69.5261 53.2652 69.9057 54.9264 69.5748C55.6377 69.4331 56.4989 69.8142 56.617 70.5298C57.2463 74.3445 58.0473 80.5869 57.6095 83.6732C57.2268 86.3709 55.8087 88.6694 54.6756 90.0479C54.2428 90.5744 54.3527 91.395 54.9957 91.6207C55.9604 91.9593 57.1525 92.1828 58.0286 91.7968C59.3147 91.2301 60.9606 78.1307 61.7093 70.855C61.7619 70.3437 62.1916 69.9579 62.7056 69.9579H62.9529C63.5611 69.9579 64.0286 70.4954 63.9478 71.0982C63.6246 73.5121 63.1954 77.1099 63.2667 78.1871C63.3714 79.7696 68.2952 82.3016 68.2952 83.6732C68.2952 85.0447 65.4667 86.9437 65.4667 87.8932C65.4667 88.8427 69.6571 88.4207 69.8667 87.8932V87.8932C70.1518 87.1753 71.0631 86.875 71.5744 87.4542L71.7977 87.7072C71.9055 87.8294 72.0409 87.9266 72.1992 87.9652C72.5251 88.0447 72.9982 88.09 73.3238 87.8932C73.8476 87.5767 73.5333 85.8887 73.3238 85.0447C73.2131 84.5987 72.7002 84.0668 72.2137 83.6557C71.8417 83.3413 71.688 82.8209 71.8932 82.3791C72.4423 81.1966 73.2341 79.5736 73.6381 79.0311C74.2667 78.1871 74.7905 77.0266 75 76.4991C75.2095 75.9715 74.7905 73.8615 75 71.435C75.0794 70.5149 75.3817 69.4636 75.7372 68.5037C76.0636 67.6222 77.2945 67.7668 77.5493 68.6716C77.6637 69.0777 77.7918 69.51 77.9333 69.9579C78.6667 72.279 79.6095 73.6505 79.9238 74.178C80.2381 74.7055 80.8667 78.9256 80.8667 81.8796C80.8667 84.8337 79.2952 88.8427 79.5048 89.1593C79.7143 89.4758 82.6476 90.0033 83.381 88.8427C84.1143 87.6822 82.3333 85.4667 82.3333 82.6181C82.3333 79.7696 82.8571 77.2376 82.8571 76.4991C82.8571 75.7605 81.7048 70.802 81.7048 67.7424C81.7048 66.981 81.7453 66.227 81.8075 65.5231C81.8961 64.5197 83.0335 64.46 83.2121 65.4514C83.3144 66.0194 83.381 66.5609 83.381 67.0039C83.381 68.7974 82.7524 71.3295 83.381 71.7515C84.0095 72.1735 86 67.7424 86 64.9994C86 62.2737 85.4828 61.3189 84.8596 60.1683L84.8476 60.1463C84.219 58.9858 82.1238 56.6647 81.3905 55.5042C80.6571 54.3437 80.6571 53.3942 79.2952 51.1787C77.9333 48.9631 76.0476 42 71.7524 42C67.4571 42 65.3619 43.899 63.7905 45.5871C62.219 47.2751 62.3238 48.7521 60.7524 50.4401C59.181 52.1282 57.7143 52.1282 56.5619 54.9767C55.64 57.2555 55.619 59.6188 54.781 59.3023ZM71 76.8057C71 78.9099 70.1593 80.2318 69.5748 80.7971C69.4269 80.94 69.2222 81.0055 69.018 80.9807C67.4628 80.7917 66 79.2555 66 77.9762C66 77.1215 66.8075 76.4897 67.475 76.1462C67.7795 75.9895 68.0269 75.7263 68.1008 75.3919C68.1992 74.9469 68.3396 74.2904 68.5 73.4892C68.8125 71.9286 69.3333 68.9048 70.0625 69.0023C70.7917 69.0998 71 73.7819 71 76.8057Z" fill="url(#paint1_linear_3197_305)"/>
</g>
<defs>
<linearGradient id="paint0_linear_3197_305" x1="64" y1="9" x2="64" y2="119" gradientUnits="userSpaceOnUse">
<stop stop-color="#64B4F4"/>
<stop offset="1" stop-color="#4989D5"/>
</linearGradient>
<linearGradient id="paint1_linear_3197_305" x1="64.4757" y1="42.5405" x2="64.4757" y2="91.4595" gradientUnits="userSpaceOnUse">
<stop stop-color="#EFF3F5"/>
<stop offset="1" stop-color="#DBE4E8"/>
</linearGradient>
<clipPath id="clip0_3197_305">
<rect width="128" height="128" fill="white"/>
</clipPath>
</defs>
</svg>
