<svg width="128" height="128" viewBox="0 0 128 128" fill="none" xmlns="http://www.w3.org/2000/svg">
<g clip-path="url(#clip0_3146_371)">
<path d="M19 17C19 13.6863 21.6863 11 25 11L86.5147 11C88.106 11 89.6321 11.6321 90.7574 12.7574L107.243 29.2426C108.368 30.3679 109 31.894 109 33.4853V115C109 118.314 106.314 121 103 121H25C21.6863 121 19 118.314 19 115V17Z" fill="black" fill-opacity="0.15"/>
<path d="M19 15C19 11.6863 21.6863 9 25 9L86.5147 9C88.106 9 89.6321 9.63214 90.7574 10.7574L107.243 27.2426C108.368 28.3679 109 29.894 109 31.4853V113C109 116.314 106.314 119 103 119H25C21.6863 119 19 116.314 19 113V15Z" fill="url(#paint0_linear_3146_371)"/>
<path d="M86 9H86.576C88.2116 9 89.7762 9.6677 90.9079 10.8486L107.332 27.9867C108.402 29.1037 109 30.591 109 32.1381V33C108.361 31.6666 107.014 30.8182 105.535 30.8182H94.0909C90.7772 30.8182 88.0909 28.1319 88.0909 24.8182V12.4493C88.0909 10.9998 87.2851 9.67049 86 9Z" fill="black" fill-opacity="0.15"/>
<path d="M87 9H87.5147C89.106 9 90.6321 9.63214 91.7574 10.7574L107.243 26.2426C108.368 27.3679 109 28.894 109 30.4853V31C108.387 29.7743 107.134 29 105.764 29H95C91.6863 29 89 26.3137 89 23V12.2361C89 10.8657 88.2257 9.61287 87 9Z" fill="#247FEA"/>
<path d="M62 40.1547C63.2376 39.4402 64.7624 39.4402 66 40.1547L83.6506 50.3453C84.8882 51.0598 85.6506 52.3803 85.6506 53.8094V74.1906C85.6506 75.6197 84.8882 76.9402 83.6506 77.6547L66 87.8453C64.7624 88.5598 63.2376 88.5598 62 87.8453L44.3494 77.6547C43.1118 76.9402 42.3494 75.6197 42.3494 74.1906V53.8094C42.3494 52.3803 43.1118 51.0598 44.3494 50.3453L62 40.1547Z" fill="url(#paint1_linear_3146_371)"/>
<path d="M47.4856 54.8254L64 64V82.3005C64 83.063 63.1809 83.5449 62.5144 83.1746L46.5144 74.2858C46.1969 74.1094 46 73.7748 46 73.4116V55.6995C46 54.937 46.8191 54.4551 47.4856 54.8254Z" fill="url(#paint2_linear_3146_371)"/>
<path d="M64 44.7831V64L80.5006 54.833C81.1702 54.461 81.19 53.505 80.5364 53.1056L65.5215 43.9298C64.8551 43.5226 64 44.0021 64 44.7831Z" fill="url(#paint3_linear_3146_371)"/>
</g>
<defs>
<linearGradient id="paint0_linear_3146_371" x1="64" y1="9" x2="64" y2="119" gradientUnits="userSpaceOnUse">
<stop stop-color="#64B4F4"/>
<stop offset="1" stop-color="#4989D5"/>
</linearGradient>
<linearGradient id="paint1_linear_3146_371" x1="64.5405" y1="39.5405" x2="64.5405" y2="88.4595" gradientUnits="userSpaceOnUse">
<stop stop-color="#EFF3F5"/>
<stop offset="1" stop-color="#DBE4E8"/>
</linearGradient>
<linearGradient id="paint2_linear_3146_371" x1="55" y1="54" x2="55" y2="84" gradientUnits="userSpaceOnUse">
<stop stop-color="#59A3E8"/>
<stop offset="1" stop-color="#5298E0"/>
</linearGradient>
<linearGradient id="paint3_linear_3146_371" x1="73" y1="43" x2="73" y2="64" gradientUnits="userSpaceOnUse">
<stop stop-color="#5CA7EB"/>
<stop offset="1" stop-color="#579FE5"/>
</linearGradient>
<clipPath id="clip0_3146_371">
<rect width="128" height="128" fill="white"/>
</clipPath>
</defs>
</svg>
