<svg width="128" height="128" viewBox="0 0 128 128" fill="none" xmlns="http://www.w3.org/2000/svg">
<g clip-path="url(#clip0_3209_255)">
<path d="M19 17C19 13.6863 21.6863 11 25 11L86.5147 11C88.106 11 89.6321 11.6321 90.7574 12.7574L107.243 29.2426C108.368 30.3679 109 31.894 109 33.4853V115C109 118.314 106.314 121 103 121H25C21.6863 121 19 118.314 19 115V17Z" fill="black" fill-opacity="0.15"/>
<path d="M19 15C19 11.6863 21.6863 9 25 9L86.5147 9C88.106 9 89.6321 9.63214 90.7574 10.7574L107.243 27.2426C108.368 28.3679 109 29.894 109 31.4853V113C109 116.314 106.314 119 103 119H25C21.6863 119 19 116.314 19 113V15Z" fill="url(#paint0_linear_3209_255)"/>
<path d="M86 9H86.576C88.2116 9 89.7762 9.6677 90.9079 10.8486L107.332 27.9867C108.402 29.1037 109 30.591 109 32.1381V33C108.361 31.6666 107.014 30.8182 105.535 30.8182H94.0909C90.7772 30.8182 88.0909 28.1319 88.0909 24.8182V12.4493C88.0909 10.9998 87.2851 9.67049 86 9Z" fill="black" fill-opacity="0.15"/>
<path d="M87 9H87.5147C89.106 9 90.6321 9.63214 91.7574 10.7574L107.243 26.2426C108.368 27.3679 109 28.894 109 30.4853V31C108.387 29.7743 107.134 29 105.764 29H95C91.6863 29 89 26.3137 89 23V12.2361C89 10.8657 88.2257 9.61287 87 9Z" fill="#FFC328"/>
<path fill-rule="evenodd" clip-rule="evenodd" d="M59 9C57.8954 9 57 9.89543 57 11V13C57 14.1046 57.8954 15 59 15H62C63.1046 15 64 14.1046 64 13V11C64 9.89543 63.1046 9 62 9H59ZM59 21C57.8954 21 57 21.8954 57 23V25C57 26.1046 57.8954 27 59 27H62C63.1046 27 64 26.1046 64 25V23C64 21.8954 63.1046 21 62 21H59ZM64 29C64 27.8954 64.8954 27 66 27H69C70.1046 27 71 27.8954 71 29V31C71 32.1046 70.1046 33 69 33H66C64.8954 33 64 32.1046 64 31V29ZM66 15C64.8954 15 64 15.8954 64 17V19C64 20.1046 64.8954 21 66 21H69C70.1046 21 71 20.1046 71 19V17C71 15.8954 70.1046 15 69 15H66ZM57 35C57 33.8954 57.8954 33 59 33H62C63.1046 33 64 33.8954 64 35V37C64 38.1046 63.1046 39 62 39H59C57.8954 39 57 38.1046 57 37V35ZM66 39C64.8954 39 64 39.8954 64 41V43C64 44.1046 64.8954 45 66 45H69C70.1046 45 71 44.1046 71 43V41C71 39.8954 70.1046 39 69 39H66ZM64 53C64 51.8954 64.8954 51 66 51H69C70.1046 51 71 51.8954 71 53V60C71 61.1046 70.1046 62 69 62H66C64.8954 62 64 61.1046 64 60V53ZM59 45C57.8954 45 57 45.8954 57 47V49C57 50.1046 57.8954 51 59 51H62C63.1046 51 64 50.1046 64 49V47C64 45.8954 63.1046 45 62 45H59Z" fill="url(#paint1_linear_3209_255)"/>
<path d="M49.4707 96V94.3398L54.3242 88.1191H49.5879V86.0781H57.4688V87.7578L52.7227 93.9004H57.5469V96H49.4707ZM66.1992 83.3633C66.1992 83.5781 66.1602 83.7799 66.082 83.9688C66.0039 84.1576 65.8932 84.3236 65.75 84.4668C65.6133 84.6035 65.4505 84.7142 65.2617 84.7988C65.0729 84.877 64.8678 84.916 64.6465 84.916C64.4251 84.916 64.2168 84.877 64.0215 84.7988C63.8327 84.7142 63.6667 84.6035 63.5234 84.4668C63.3867 84.3236 63.2793 84.1576 63.2012 83.9688C63.123 83.7799 63.084 83.5781 63.084 83.3633C63.084 83.1484 63.123 82.9466 63.2012 82.7578C63.2793 82.569 63.3867 82.403 63.5234 82.2598C63.6667 82.1165 63.8327 82.0059 64.0215 81.9277C64.2168 81.8431 64.4251 81.8008 64.6465 81.8008C64.8678 81.8008 65.0729 81.8431 65.2617 81.9277C65.4505 82.0059 65.6133 82.1165 65.75 82.2598C65.8932 82.403 66.0039 82.569 66.082 82.7578C66.1602 82.9466 66.1992 83.1484 66.1992 83.3633ZM63.5625 87.9336H60.7598V86.0781H66.0039V94.1445H68.8652V96H60.418V94.1445H63.5625V87.9336ZM80.2812 90.8633C80.2812 91.7747 80.151 92.5625 79.8906 93.2266C79.6367 93.8906 79.2786 94.444 78.8164 94.8867C78.3607 95.3229 77.8203 95.6484 77.1953 95.8633C76.5703 96.0716 75.89 96.1758 75.1543 96.1758C74.9069 96.1758 74.6595 96.1595 74.4121 96.127C74.1647 96.0944 73.9401 96.0521 73.7383 96V99.877H71.3555V86.0781H73.416L73.4746 87.543C73.6764 87.2891 73.8848 87.0579 74.0996 86.8496C74.321 86.6413 74.5586 86.4655 74.8125 86.3223C75.0664 86.1725 75.3398 86.0586 75.6328 85.9805C75.9258 85.9023 76.2546 85.8633 76.6191 85.8633C77.2051 85.8633 77.7259 85.9805 78.1816 86.2148C78.6374 86.4492 79.0182 86.7845 79.3242 87.2207C79.6367 87.6504 79.8743 88.1745 80.0371 88.793C80.1999 89.4049 80.2812 90.0951 80.2812 90.8633ZM77.7812 90.9609C77.7812 90.4141 77.7422 89.9486 77.6641 89.5645C77.5859 89.1803 77.472 88.8646 77.3223 88.6172C77.179 88.3698 77 88.1908 76.7852 88.0801C76.5768 87.9629 76.3359 87.9043 76.0625 87.9043C75.6589 87.9043 75.2715 88.0671 74.9004 88.3926C74.5358 88.7181 74.1484 89.1608 73.7383 89.7207V94.0566C73.9271 94.1283 74.1582 94.1868 74.4316 94.2324C74.7116 94.278 74.9948 94.3008 75.2812 94.3008C75.6589 94.3008 76.0007 94.2227 76.3066 94.0664C76.6191 93.9102 76.8828 93.6888 77.0977 93.4023C77.319 93.1159 77.4883 92.7676 77.6055 92.3574C77.7227 91.9408 77.7812 91.4753 77.7812 90.9609Z" fill="white"/>
</g>
<defs>
<linearGradient id="paint0_linear_3209_255" x1="65.3636" y1="9" x2="65.3636" y2="92.9474" gradientUnits="userSpaceOnUse">
<stop stop-color="#FFE483"/>
<stop offset="1" stop-color="#F7C33B"/>
</linearGradient>
<linearGradient id="paint1_linear_3209_255" x1="64" y1="9" x2="64" y2="62" gradientUnits="userSpaceOnUse">
<stop stop-color="#FBF9F3"/>
<stop offset="1" stop-color="#FFE9AF"/>
</linearGradient>
<clipPath id="clip0_3209_255">
<rect width="128" height="128" fill="white"/>
</clipPath>
</defs>
</svg>
