<svg width="128" height="128" viewBox="0 0 128 128" fill="none" xmlns="http://www.w3.org/2000/svg">
<g clip-path="url(#clip0_3306_445)">
<path d="M19 17C19 13.6863 21.6863 11 25 11L86.5147 11C88.106 11 89.6321 11.6321 90.7574 12.7574L107.243 29.2426C108.368 30.3679 109 31.894 109 33.4853V115C109 118.314 106.314 121 103 121H25C21.6863 121 19 118.314 19 115V17Z" fill="black" fill-opacity="0.15"/>
<path d="M19 15C19 11.6863 21.6863 9 25 9L86.5147 9C88.106 9 89.6321 9.63214 90.7574 10.7574L107.243 27.2426C108.368 28.3679 109 29.894 109 31.4853V113C109 116.314 106.314 119 103 119H25C21.6863 119 19 116.314 19 113V15Z" fill="url(#paint0_linear_3306_445)"/>
<path d="M86 9H86.576C88.2116 9 89.7762 9.6677 90.9079 10.8486L107.332 27.9867C108.402 29.1037 109 30.591 109 32.1381V33C108.361 31.6666 107.014 30.8182 105.535 30.8182H94.0909C90.7772 30.8182 88.0909 28.1319 88.0909 24.8182V12.4493C88.0909 10.9998 87.2851 9.67049 86 9Z" fill="black" fill-opacity="0.15"/>
<path d="M87 9H87.5147C89.106 9 90.6321 9.63214 91.7574 10.7574L107.243 26.2426C108.368 27.3679 109 28.894 109 30.4853V31C108.387 29.7743 107.134 29 105.764 29H95C91.6863 29 89 26.3137 89 23V12.2361C89 10.8657 88.2257 9.61287 87 9Z" fill="#1B71D7"/>
<path d="M55.172 51.12C58.3187 51.12 60.812 51.8667 62.652 53.36C64.492 54.84 65.412 57.3467 65.412 60.88C65.412 62.8 65.052 64.5667 64.332 66.18C63.612 67.78 62.492 69.0733 60.972 70.06C59.4654 71.0333 57.5854 71.52 55.332 71.52H52.852V79H47.692V51.12H55.172ZM54.972 67.32C56.7187 67.32 58.032 66.8 58.912 65.76C59.8054 64.7067 60.252 63.1733 60.252 61.16C60.252 59.76 60.0787 58.6267 59.732 57.76C59.3854 56.88 58.812 56.2267 58.012 55.8C57.2254 55.3733 56.172 55.16 54.852 55.16H52.852V67.32H54.972ZM74.607 79.36C72.7004 79.36 71.2004 79.1267 70.107 78.66C69.027 78.18 68.2604 77.6667 67.807 77.12L69.287 73.32C70.9937 74.7333 72.807 75.44 74.727 75.44C75.5937 75.44 76.2337 75.2667 76.647 74.92C77.0737 74.56 77.287 74.12 77.287 73.6C77.287 73.04 76.9204 72.5267 76.187 72.06C75.467 71.58 74.3937 71.0267 72.967 70.4C72.047 70 71.247 69.58 70.567 69.14C69.887 68.7 69.2937 68.1067 68.787 67.36C68.2937 66.6 68.047 65.68 68.047 64.6C68.047 63.4 68.3404 62.3533 68.927 61.46C69.527 60.5667 70.3937 59.88 71.527 59.4C72.6604 58.92 74.0204 58.68 75.607 58.68C76.5537 58.68 77.4404 58.7867 78.267 59C79.107 59.2 79.8204 59.4533 80.407 59.76C80.9937 60.0533 81.4204 60.3333 81.687 60.6L80.327 64.2C79.7137 63.7333 79.007 63.34 78.207 63.02C77.4204 62.6867 76.607 62.52 75.767 62.52C74.767 62.52 74.0604 62.6533 73.647 62.92C73.247 63.1733 73.047 63.6 73.047 64.2C73.047 64.8 73.3404 65.3 73.927 65.7C74.527 66.1 75.447 66.5467 76.687 67.04C78.4737 67.7467 79.847 68.5867 80.807 69.56C81.767 70.52 82.247 71.6933 82.247 73.08C82.247 74.24 81.9804 75.2933 81.447 76.24C80.927 77.1733 80.0937 77.9267 78.947 78.5C77.8137 79.0733 76.367 79.36 74.607 79.36Z" fill="url(#paint1_linear_3306_445)"/>
</g>
<defs>
<linearGradient id="paint0_linear_3306_445" x1="58.7059" y1="14.2537" x2="69.0492" y2="113.271" gradientUnits="userSpaceOnUse">
<stop stop-color="#3397F5"/>
<stop offset="1" stop-color="#126CD7"/>
</linearGradient>
<linearGradient id="paint1_linear_3306_445" x1="64" y1="39" x2="64" y2="90" gradientUnits="userSpaceOnUse">
<stop stop-color="#27496F"/>
<stop offset="1" stop-color="#001834"/>
</linearGradient>
<clipPath id="clip0_3306_445">
<rect width="128" height="128" fill="white"/>
</clipPath>
</defs>
</svg>
