<svg width="128" height="128" viewBox="0 0 128 128" fill="none" xmlns="http://www.w3.org/2000/svg">
<g clip-path="url(#clip0_3458_611)">
<path d="M19 17C19 13.6863 21.6863 11 25 11L86.5147 11C88.106 11 89.6321 11.6321 90.7574 12.7574L107.243 29.2426C108.368 30.3679 109 31.894 109 33.4853V115C109 118.314 106.314 121 103 121H25C21.6863 121 19 118.314 19 115V17Z" fill="black" fill-opacity="0.15"/>
<path d="M19 13C19 10.7909 20.7909 9 23 9L87.3431 9C88.404 9 89.4214 9.42143 90.1716 10.1716L107.828 27.8284C108.579 28.5786 109 29.596 109 30.6569V115C109 117.209 107.209 119 105 119H23C20.7909 119 19 117.209 19 115V13Z" fill="url(#paint0_linear_3458_611)"/>
<path d="M86 9H86.576C88.2116 9 89.7762 9.6677 90.9079 10.8486L107.332 27.9867C108.402 29.1037 109 30.591 109 32.1381V33C108.361 31.6666 107.014 30.8182 105.535 30.8182H94.0909C90.7772 30.8182 88.0909 28.1319 88.0909 24.8182V12.4493C88.0909 10.9998 87.2851 9.67049 86 9Z" fill="black" fill-opacity="0.15"/>
<path d="M87 9H87.5147C89.106 9 90.6321 9.63214 91.7574 10.7574L107.243 26.2426C108.368 27.3679 109 28.894 109 30.4853V31C108.387 29.7743 107.134 29 105.764 29H95C91.6863 29 89 26.3137 89 23V12.2361C89 10.8657 88.2257 9.61287 87 9Z" fill="#CF74E0"/>
<path d="M34 56.638V52C34 51.4477 34.4477 51 35 51H54C54.5523 51 55 51.4477 55 52V56.638C55 56.8796 54.8041 57.0755 54.5625 57.0755C54.3209 57.0755 54.1268 56.8791 54.1084 56.6382C53.9257 54.2332 52.2513 52.3019 50.1875 52.3019H48.125C47.5727 52.3019 47.125 52.7496 47.125 53.3019V70.9623C47.125 72.2642 48.4375 73.1321 49.3125 73.1321H50.191C50.4307 73.1321 50.625 73.3264 50.625 73.566C50.625 73.8057 50.4307 74 50.191 74H38.809C38.5693 74 38.375 73.8057 38.375 73.566C38.375 73.3264 38.5691 73.1321 38.8088 73.1321H39.6875C40.5625 73.1321 41.875 72.2642 41.875 70.9623V53.299C41.875 52.7467 41.4277 52.3019 40.8754 52.3019H38.8125C36.7487 52.3019 35.0743 54.2332 34.8916 56.6382C34.8732 56.8791 34.6791 57.0755 34.4375 57.0755C34.1959 57.0755 34 56.8796 34 56.638Z" fill="url(#paint1_linear_3458_611)"/>
<path d="M70.7544 51.8519H70.3028C70.0676 51.8519 69.8772 51.6612 69.8772 51.4259C69.8772 51.1907 70.0679 51 70.3031 51H80.8548C81.09 51 81.2807 51.1907 81.2807 51.4259C81.2807 51.6612 81.0893 51.8497 80.8549 51.8691C79.3234 51.9959 78.2832 52.8095 79.0877 53.9815C79.6445 54.7925 81.1582 56.9081 82.271 58.4568C82.6557 58.9921 83.4487 59.0183 83.8829 58.5222C85.6456 56.5087 88.1655 53.7881 87.4211 52.7037C87.0594 52.1769 85.9864 51.9374 85.2145 51.8715C84.9801 51.8515 84.7895 51.6612 84.7895 51.4259C84.7895 51.1907 84.9802 51 85.2154 51H93.1355C93.3707 51 93.5614 51.1907 93.5614 51.4259C93.5614 51.6612 93.3702 51.8503 93.1352 51.8591C92.1036 51.8977 91.5511 52.1004 90.9298 52.7037C90.28 53.3348 86.5709 57.6673 84.4004 60.2213C84.1107 60.5622 84.084 61.052 84.3334 61.4233C86.6413 64.8592 90.709 70.9098 91.3684 71.8704C91.9318 72.691 92.9097 73.0175 93.5761 73.1144C93.8089 73.1483 94 73.3388 94 73.5741C94 73.8093 93.8093 74 93.5741 74H83.461C83.2258 74 83.0351 73.8093 83.0351 73.5741C83.0351 73.3388 83.2257 73.1491 83.4603 73.1317C84.2208 73.0755 85.2281 72.862 85.2281 72.2963C85.2281 71.7043 82.8006 68.2834 81.1089 65.9993C80.7414 65.5031 80.0174 65.4618 79.5998 65.9166C77.7561 67.9249 75.1404 70.9878 75.1404 71.8704C75.1404 72.7648 76.7075 73.0723 77.7849 73.1352C78.0197 73.1489 78.2105 73.3388 78.2105 73.5741C78.2105 73.8093 78.0198 74 77.7846 74H69.4259C69.1907 74 69 73.8093 69 73.5741C69 73.3388 69.1907 73.1483 69.4249 73.126C70.2706 73.0456 71.6261 72.7275 72.5088 71.8704C73.4786 70.9286 77.0048 66.7811 79.04 64.3578C79.3286 64.0143 79.3516 63.5245 79.1043 63.1502C76.4479 59.1286 72.418 51.8519 70.7544 51.8519Z" fill="url(#paint2_linear_3458_611)"/>
<path d="M70.6875 57V62.3773C70.6875 62.6189 70.4916 62.8148 70.25 62.8148C70.0084 62.8148 69.8139 62.6177 69.8007 62.3764C69.6073 58.8513 67.0682 57.2778 64.125 57.2778H60.7493C60.197 57.2778 59.75 57.7255 59.75 58.2778V65.6481C59.75 66.2004 60.2026 66.6608 60.7457 66.5602C63.3286 66.0816 64.4223 63.7322 64.5497 61.5482C64.5638 61.307 64.7584 61.1111 65 61.1111C65.2416 61.1111 65.4375 61.307 65.4375 61.5486V72.5995C65.4375 72.8412 65.2416 73.037 65 73.037C64.7584 73.037 64.5637 72.8404 64.5527 72.5991C64.4401 70.1426 63.3504 68.3458 60.7482 67.9903C60.201 67.9155 59.75 68.3735 59.75 68.9258V75.1667C59.75 76.8704 60.625 77.2963 62.375 77.2963H64.125C65.875 77.2963 68.0625 76.4444 69.375 75.1667C70.2175 74.3465 70.553 73.7868 70.728 73.1576C70.8045 72.8826 71.042 72.675 71.3275 72.675C71.683 72.675 71.9566 72.989 71.9078 73.3412L71.2444 78.137C71.176 78.6317 70.7531 79 70.2538 79H51.6389C51.286 79 51 78.714 51 78.3611C51 78.0083 51.286 77.7222 51.6388 77.7222H51.875C52.75 77.7222 54.0625 77.2963 54.0625 75.5926V58.9815C54.0625 57.2778 52.75 56.8519 51.875 56.8519H51.4256C51.1904 56.8519 51 56.6612 51 56.4259C51 56.1907 51.1907 56 51.4259 56H69.6875C70.2398 56 70.6875 56.4477 70.6875 57Z" fill="url(#paint3_linear_3458_611)"/>
</g>
<defs>
<linearGradient id="paint0_linear_3458_611" x1="49" y1="9" x2="119.108" y2="81.8396" gradientUnits="userSpaceOnUse">
<stop stop-color="#BF3DED"/>
<stop offset="1" stop-color="#8F15BA"/>
</linearGradient>
<linearGradient id="paint1_linear_3458_611" x1="43.87" y1="51" x2="43.87" y2="73.2334" gradientUnits="userSpaceOnUse">
<stop stop-color="#EAC8F1"/>
<stop offset="1" stop-color="#F3B9FF"/>
</linearGradient>
<linearGradient id="paint2_linear_3458_611" x1="80.75" y1="51" x2="80.75" y2="73.2334" gradientUnits="userSpaceOnUse">
<stop stop-color="#EAC8F1"/>
<stop offset="1" stop-color="#F3B9FF"/>
</linearGradient>
<linearGradient id="paint3_linear_3458_611" x1="60.87" y1="56" x2="60.87" y2="78.2334" gradientUnits="userSpaceOnUse">
<stop stop-color="#EAC8F1"/>
<stop offset="1" stop-color="#F3B9FF"/>
</linearGradient>
<clipPath id="clip0_3458_611">
<rect width="128" height="128" fill="white"/>
</clipPath>
</defs>
</svg>
