<svg width="128" height="128" viewBox="0 0 128 128" fill="none" xmlns="http://www.w3.org/2000/svg">
<g clip-path="url(#clip0_3422_423)">
<path d="M19 17C19 13.6863 21.6863 11 25 11L86.5147 11C88.106 11 89.6321 11.6321 90.7574 12.7574L107.243 29.2426C108.368 30.3679 109 31.894 109 33.4853V115C109 118.314 106.314 121 103 121H25C21.6863 121 19 118.314 19 115V17Z" fill="black" fill-opacity="0.15"/>
<path d="M19 15C19 11.6863 21.6863 9 25 9L86.5147 9C88.106 9 89.6321 9.63214 90.7574 10.7574L107.243 27.2426C108.368 28.3679 109 29.894 109 31.4853V113C109 116.314 106.314 119 103 119H25C21.6863 119 19 116.314 19 113V15Z" fill="url(#paint0_linear_3422_423)"/>
<path d="M86 9H86.576C88.2116 9 89.7762 9.6677 90.9079 10.8486L107.332 27.9867C108.402 29.1037 109 30.591 109 32.1381V33C108.361 31.6666 107.014 30.8182 105.535 30.8182H94.0909C90.7772 30.8182 88.0909 28.1319 88.0909 24.8182V12.4493C88.0909 10.9998 87.2851 9.67049 86 9Z" fill="black" fill-opacity="0.15"/>
<path d="M87 9H87.5147C89.106 9 90.6321 9.63214 91.7574 10.7574L107.243 26.2426C108.368 27.3679 109 28.894 109 30.4853V31C108.387 29.7743 107.134 29 105.764 29H95C91.6863 29 89 26.3137 89 23V12.2361C89 10.8657 88.2257 9.61287 87 9Z" fill="#FFB393"/>
<path fill-rule="evenodd" clip-rule="evenodd" d="M51.6658 50.2101H61.9768C63.0019 50.2101 63.8329 51.0411 63.8329 52.0662V52.0662H46.4798C36.5067 52.0662 36.5067 76 46.4798 76H50.0701V70.8225C50.0701 66.4265 53.5606 63.2027 58.3477 63.2027H69.8167C74.1051 63.2027 76 59.1975 76 56.4622V44.6418C76 37.022 51.6658 37.2174 51.6658 44.6418V50.2101ZM57.0512 47.2794C58.318 47.2794 59.345 46.2734 59.345 45.0325C59.345 43.7916 58.318 42.7857 57.0512 42.7857C55.7844 42.7857 54.7574 43.7916 54.7574 45.0325C54.7574 46.2734 55.7844 47.2794 57.0512 47.2794Z" fill="url(#paint1_linear_3422_423)"/>
<path fill-rule="evenodd" clip-rule="evenodd" d="M76.3342 77.7899L66.0232 77.7899C64.9981 77.7899 64.1671 76.9589 64.1671 75.9338V75.9338L81.5202 75.9338C91.4933 75.9338 91.4933 52 81.5202 52L77.9299 52L77.9299 57.1775C77.9299 61.5735 74.4394 64.7973 69.6523 64.7973L58.1833 64.7973C53.8949 64.7973 52 68.8025 52 71.5378L52 83.3582C52 90.978 76.3342 90.7826 76.3342 83.3582L76.3342 77.7899ZM70.9488 80.7206C69.682 80.7206 68.655 81.7266 68.655 82.9675C68.655 84.2084 69.682 85.2143 70.9488 85.2143C72.2156 85.2143 73.2426 84.2084 73.2426 82.9675C73.2426 81.7266 72.2156 80.7206 70.9488 80.7206Z" fill="url(#paint2_linear_3422_423)"/>
</g>
<defs>
<linearGradient id="paint0_linear_3422_423" x1="64" y1="9" x2="64" y2="119" gradientUnits="userSpaceOnUse">
<stop stop-color="#FF9C71"/>
<stop offset="1" stop-color="#FF6B00"/>
</linearGradient>
<linearGradient id="paint1_linear_3422_423" x1="57" y1="39" x2="57" y2="89" gradientUnits="userSpaceOnUse">
<stop stop-color="#F5F2EF"/>
<stop offset="1" stop-color="#F1D1B4"/>
</linearGradient>
<linearGradient id="paint2_linear_3422_423" x1="64" y1="39" x2="64" y2="89" gradientUnits="userSpaceOnUse">
<stop stop-color="#F5F2EF"/>
<stop offset="1" stop-color="#F1D1B4"/>
</linearGradient>
<clipPath id="clip0_3422_423">
<rect width="128" height="128" fill="white"/>
</clipPath>
</defs>
</svg>
