<svg width="128" height="128" viewBox="0 0 128 128" fill="none" xmlns="http://www.w3.org/2000/svg">
<g clip-path="url(#clip0_3332_407)">
<path d="M19 17C19 13.6863 21.6863 11 25 11L86.5147 11C88.106 11 89.6321 11.6321 90.7574 12.7574L107.243 29.2426C108.368 30.3679 109 31.894 109 33.4853V115C109 118.314 106.314 121 103 121H25C21.6863 121 19 118.314 19 115V17Z" fill="black" fill-opacity="0.15"/>
<path d="M19 13C19 10.7909 20.7909 9 23 9L87.3431 9C88.404 9 89.4214 9.42143 90.1716 10.1716L107.828 27.8284C108.579 28.5786 109 29.596 109 30.6569V115C109 117.209 107.209 119 105 119H23C20.7909 119 19 117.209 19 115V13Z" fill="url(#paint0_linear_3332_407)"/>
<path d="M86 9H86.576C88.2116 9 89.7762 9.6677 90.9079 10.8486L107.332 27.9867C108.402 29.1037 109 30.591 109 32.1381V33C108.361 31.6666 107.014 30.8182 105.535 30.8182H94.0909C90.7772 30.8182 88.0909 28.1319 88.0909 24.8182V12.4493C88.0909 10.9998 87.2851 9.67049 86 9Z" fill="black" fill-opacity="0.15"/>
<path d="M87 9H87.5147C89.106 9 90.6321 9.63214 91.7574 10.7574L107.243 26.2426C108.368 27.3679 109 28.894 109 30.4853V31C108.387 29.7743 107.134 29 105.764 29H95C91.6863 29 89 26.3137 89 23V12.2361C89 10.8657 88.2257 9.61287 87 9Z" fill="#CF74E0"/>
<path fill-rule="evenodd" clip-rule="evenodd" d="M40 49C39.4477 49 39 49.4477 39 50V54.9599C39 55.5122 39.4477 55.9599 40 55.9599L43.8878 55.96C44.4401 55.96 44.8878 56.4077 44.8878 56.96V70.808C44.8878 71.3603 44.4401 71.808 43.8878 71.808H40C39.4477 71.808 39 72.2557 39 72.808V78C39 78.5523 39.4477 79 40 79H59.6634C60.2157 79 60.6634 78.5523 60.6634 78V72.808C60.6634 72.2557 60.2157 71.808 59.6634 71.808H56.1659C55.6136 71.808 55.1659 71.3603 55.1659 70.808V67.9999H61.6195C62.5756 67.9999 64.2488 68.56 64.7268 70.184C65.2049 71.808 66.261 75.8399 66.5 76.9999C66.739 78.1599 68.3122 79 69.9854 79H83C88.034 79 88.9285 75.3341 88.9957 68.0026C89.0007 67.4503 88.5523 66.9999 88 66.9999H82V69.4999C82 71.9999 79.9341 71.9999 78.5 71.9999C77.0659 71.9999 75.239 71.1239 75 69.4999C74.8156 68.2471 73.9838 66.78 72.9548 65.5357C72.5158 65.0049 72.6434 64.1705 73.206 63.773C75.0209 62.491 77 60.2034 77 57C77 53.056 73.5707 49 69.0293 49H40ZM56.1659 60.136C55.6136 60.136 55.1659 59.6883 55.1659 59.136V56.96C55.1659 56.4077 55.6136 55.96 56.1659 55.96H62.8146C67.5951 55.96 67.5951 60.136 62.8146 60.136H56.1659Z" fill="url(#paint1_linear_3332_407)"/>
</g>
<defs>
<linearGradient id="paint0_linear_3332_407" x1="49" y1="9" x2="119.108" y2="81.8396" gradientUnits="userSpaceOnUse">
<stop stop-color="#BF3DED"/>
<stop offset="1" stop-color="#8F15BA"/>
</linearGradient>
<linearGradient id="paint1_linear_3332_407" x1="62.5" y1="49" x2="62.5" y2="78.0001" gradientUnits="userSpaceOnUse">
<stop stop-color="#EAC8F1"/>
<stop offset="1" stop-color="#F3B9FF"/>
</linearGradient>
<clipPath id="clip0_3332_407">
<rect width="128" height="128" fill="white"/>
</clipPath>
</defs>
</svg>
