<svg width="128" height="128" viewBox="0 0 128 128" fill="none" xmlns="http://www.w3.org/2000/svg">
<g clip-path="url(#clip0_3419_417)">
<path d="M19 17C19 13.6863 21.6863 11 25 11L86.5147 11C88.106 11 89.6321 11.6321 90.7574 12.7574L107.243 29.2426C108.368 30.3679 109 31.894 109 33.4853V115C109 118.314 106.314 121 103 121H25C21.6863 121 19 118.314 19 115V17Z" fill="black" fill-opacity="0.15"/>
<path d="M19 15C19 11.6863 21.6863 9 25 9L86.5147 9C88.106 9 89.6321 9.63214 90.7574 10.7574L107.243 27.2426C108.368 28.3679 109 29.894 109 31.4853V113C109 116.314 106.314 119 103 119H25C21.6863 119 19 116.314 19 113V15Z" fill="url(#paint0_linear_3419_417)"/>
<path d="M86 9H86.576C88.2116 9 89.7762 9.6677 90.9079 10.8486L107.332 27.9867C108.402 29.1037 109 30.591 109 32.1381V33C108.361 31.6666 107.014 30.8182 105.535 30.8182H94.0909C90.7772 30.8182 88.0909 28.1319 88.0909 24.8182V12.4493C88.0909 10.9998 87.2851 9.67049 86 9Z" fill="black" fill-opacity="0.15"/>
<path d="M87 9H87.5147C89.106 9 90.6321 9.63214 91.7574 10.7574L107.243 26.2426C108.368 27.3679 109 28.894 109 30.4853V31C108.387 29.7743 107.134 29 105.764 29H95C91.6863 29 89 26.3137 89 23V12.2361C89 10.8657 88.2257 9.61287 87 9Z" fill="#8395A6"/>
<path fill-rule="evenodd" clip-rule="evenodd" d="M50.5637 56.0624C53.3024 56.0624 54.83 57.4579 55.7637 58.4448C56.0161 58.7117 56.391 58.8224 56.7462 58.7287L63.4752 56.955C64.0533 56.8026 64.3683 56.1818 64.0837 55.6561C62.4361 52.6121 58.1749 48 52.2419 48C43.3153 48 34.4628 53.9576 33.1032 64.7313C32.0678 72.9365 38.9591 80 47.5643 80C54.7699 80 59.5025 75.6763 61.9272 72.2132C62.4614 71.4504 63.9596 71.5431 64.4444 72.3382C66.4482 75.6246 70.8997 80 77.9148 80C86.9843 80 94.1074 71.9565 95.5 65C97.0497 57.2586 92.6762 48 82 48C69.8152 48 65.5431 55.9618 63.8419 60.334C63.6896 60.7255 63.3171 60.9855 62.897 60.9855H50.0479C49.6646 60.9855 49.315 61.2046 49.1479 61.5496L46.9029 66.1851C46.5813 66.8492 47.0651 67.621 47.8029 67.621H53.6092C54.4442 67.621 54.9597 68.621 54.4279 69.2648C53.3282 70.596 51.7058 71.9732 48.7784 71.9732C45.7434 71.9732 41.4747 69.8684 41.9228 64.7313C42.5226 57.8533 47.9333 56.0862 50.5637 56.0624ZM78.5576 72.1159C83.0538 72.1159 86.3794 68.6198 87.4484 64.9097C88.5175 61.1996 85.5531 55.9911 81.0569 55.9911C76.5607 55.9911 73.193 58.8094 71.809 62.7692C70.425 66.7291 73.1302 72.1159 78.5576 72.1159Z" fill="url(#paint1_linear_3419_417)"/>
</g>
<defs>
<linearGradient id="paint0_linear_3419_417" x1="51.6428" y1="20.3077" x2="91.4919" y2="90.2559" gradientUnits="userSpaceOnUse">
<stop stop-color="#677B8D"/>
<stop offset="1" stop-color="#39464D"/>
</linearGradient>
<linearGradient id="paint1_linear_3419_417" x1="65" y1="47" x2="65" y2="79" gradientUnits="userSpaceOnUse">
<stop stop-color="#DBE4E8"/>
<stop offset="1" stop-color="#B9C3C7"/>
</linearGradient>
<clipPath id="clip0_3419_417">
<rect width="128" height="128" fill="white"/>
</clipPath>
</defs>
</svg>
