<svg width="128" height="128" viewBox="0 0 128 128" fill="none" xmlns="http://www.w3.org/2000/svg">
<g clip-path="url(#clip0_3460_626)">
<path d="M19 17C19 13.6863 21.6863 11 25 11L86.5147 11C88.106 11 89.6321 11.6321 90.7574 12.7574L107.243 29.2426C108.368 30.3679 109 31.894 109 33.4853V115C109 118.314 106.314 121 103 121H25C21.6863 121 19 118.314 19 115V17Z" fill="black" fill-opacity="0.15"/>
<path d="M19 15C19 11.6863 21.6863 9 25 9L86.5147 9C88.106 9 89.6321 9.63214 90.7574 10.7574L107.243 27.2426C108.368 28.3679 109 29.894 109 31.4853V113C109 116.314 106.314 119 103 119H25C21.6863 119 19 116.314 19 113V15Z" fill="url(#paint0_linear_3460_626)"/>
<path d="M86 9H86.576C88.2116 9 89.7762 9.6677 90.9079 10.8486L107.332 27.9867C108.402 29.1037 109 30.591 109 32.1381V33C108.361 31.6666 107.014 30.8182 105.535 30.8182H94.0909C90.7772 30.8182 88.0909 28.1319 88.0909 24.8182V12.4493C88.0909 10.9998 87.2851 9.67049 86 9Z" fill="black" fill-opacity="0.15"/>
<path d="M87 9H87.5147C89.106 9 90.6321 9.63214 91.7574 10.7574L107.243 26.2426C108.368 27.3679 109 28.894 109 30.4853V31C108.387 29.7743 107.134 29 105.764 29H95C91.6863 29 89 26.3137 89 23V12.2361C89 10.8657 88.2257 9.61287 87 9Z" fill="#247FEA"/>
<path d="M89 64C89 77.8071 77.8071 89 64 89C50.1929 89 39 77.8071 39 64C39 50.1929 50.1929 39 64 39C77.8071 39 89 50.1929 89 64ZM42.5 64C42.5 75.8741 52.1259 85.5 64 85.5C75.8741 85.5 85.5 75.8741 85.5 64C85.5 52.1259 75.8741 42.5 64 42.5C52.1259 42.5 42.5 52.1259 42.5 64Z" fill="url(#paint1_linear_3460_626)"/>
<circle cx="64" cy="55" r="4" fill="url(#paint2_linear_3460_626)"/>
<rect x="61" y="63" width="6" height="16" rx="2" fill="url(#paint3_linear_3460_626)"/>
</g>
<defs>
<linearGradient id="paint0_linear_3460_626" x1="64" y1="9" x2="64" y2="119" gradientUnits="userSpaceOnUse">
<stop stop-color="#64B4F4"/>
<stop offset="1" stop-color="#4989D5"/>
</linearGradient>
<linearGradient id="paint1_linear_3460_626" x1="64.5405" y1="39.5405" x2="64.5405" y2="88.4595" gradientUnits="userSpaceOnUse">
<stop stop-color="#EFF3F5"/>
<stop offset="1" stop-color="#DBE4E8"/>
</linearGradient>
<linearGradient id="paint2_linear_3460_626" x1="64.0865" y1="51.0865" x2="64.0865" y2="58.9135" gradientUnits="userSpaceOnUse">
<stop stop-color="#EFF3F5"/>
<stop offset="1" stop-color="#DBE4E8"/>
</linearGradient>
<linearGradient id="paint3_linear_3460_626" x1="64.0649" y1="63.173" x2="64.0649" y2="78.827" gradientUnits="userSpaceOnUse">
<stop stop-color="#EFF3F5"/>
<stop offset="1" stop-color="#DBE4E8"/>
</linearGradient>
<clipPath id="clip0_3460_626">
<rect width="128" height="128" fill="white"/>
</clipPath>
</defs>
</svg>
