<svg width="24" height="24" viewBox="0 0 24 24" fill="none" xmlns="http://www.w3.org/2000/svg">
<defs>
<style type="text/css" id="current-color-scheme">
.ColorScheme-Text { color:#111111; }
</style>
</defs>
<g clip-path="url(#clip0_952_523)">
<path d="M4 5H10C9.77778 7.1321 9.34952 11.301 8 14C6.5 17 4.66667 18.3604 4 19" stroke="currentColor" stroke-width="1.2" stroke-linecap="round" stroke-linejoin="round" class="ColorScheme-Text" />
<path d="M5 9C5 9 6.12197 10.0855 7.4 11.5C9.61538 13.9519 11 16.5 11 16.5" stroke="currentColor" stroke-width="1.2" stroke-linecap="round" stroke-linejoin="round" class="ColorScheme-Text" />
<path d="M12 5H19C18.7716 7.1321 17.6446 11.4415 16 14C14.3554 16.5585 11.6852 18.3604 11 19" stroke="currentColor" stroke-width="1.2" stroke-linecap="round" stroke-linejoin="round" class="ColorScheme-Text" />
<path d="M13 6C13 6.98485 13.32 9.69091 15 13C16.68 16.3091 19.0667 18.4091 20 19" stroke="currentColor" stroke-width="1.2" stroke-linecap="round" stroke-linejoin="round" class="ColorScheme-Text" />
</g>
<defs>
<clipPath id="clip0_952_523">
<rect width="24" height="24" fill="white"/>
</clipPath>
</defs>
</svg>
