<svg width="24" height="24" viewBox="0 0 24 24" fill="none" xmlns="http://www.w3.org/2000/svg">
<defs>
<style type="text/css" id="current-color-scheme">
.ColorScheme-Text { color:#111111; }
</style>
</defs>
<g clip-path="url(#clip0_965_236)">
<rect x="6" y="3" width="12" height="18" rx="2" stroke="currentColor" stroke-width="1.2" class="ColorScheme-Text" />
<path d="M9 19H15" stroke="currentColor" stroke-width="1.2" stroke-linecap="round" stroke-linejoin="round" class="ColorScheme-Text" />
<circle cx="12" cy="12" r="2" stroke="currentColor" stroke-width="1.2" class="ColorScheme-Text" />
<rect x="14" y="11.5" width="1.5" height="1.2" rx="0.6" fill="currentColor" class="ColorScheme-Text" />
<rect x="8.5" y="11.5" width="1.5" height="1.2" rx="0.6" fill="currentColor" class="ColorScheme-Text" />
<rect x="13.7676" y="13.0607" width="1.5" height="1.2" rx="0.6" transform="rotate(45 13.7676 13.0607)" fill="currentColor" class="ColorScheme-Text" />
<rect x="9.87891" y="9.17163" width="1.5" height="1.2" rx="0.6" transform="rotate(45 9.87891 9.17163)" fill="currentColor" class="ColorScheme-Text" />
<rect x="12.5" y="14" width="1.5" height="1.2" rx="0.6" transform="rotate(90 12.5 14)" fill="currentColor" class="ColorScheme-Text" />
<rect x="12.5" y="8.5" width="1.5" height="1.2" rx="0.6" transform="rotate(90 12.5 8.5)" fill="currentColor" class="ColorScheme-Text" />
<rect x="13.0605" y="10.2322" width="1.5" height="1.2" rx="0.6" transform="rotate(-45 13.0605 10.2322)" fill="currentColor" class="ColorScheme-Text" />
<rect x="9.17188" y="14.1213" width="1.5" height="1.2" rx="0.6" transform="rotate(-45 9.17188 14.1213)" fill="currentColor" class="ColorScheme-Text" />
</g>
<defs>
<clipPath id="clip0_965_236">
<rect width="24" height="24" fill="white"/>
</clipPath>
</defs>
</svg>
