<svg width="24" height="24" viewBox="0 0 24 24" fill="none" xmlns="http://www.w3.org/2000/svg">
<defs>
<style type="text/css" id="current-color-scheme">
.ColorScheme-Text { color:#111111; }
</style>
</defs>
<g clip-path="url(#clip0_945_374)">
<rect x="4" y="8" width="16" height="11" rx="2" stroke="currentColor" stroke-width="1.2" class="ColorScheme-Text" />
<path d="M12 8C12 6.5 13 6.5 13 5" stroke="currentColor" stroke-width="1.2" stroke-linecap="round" stroke-linejoin="round" class="ColorScheme-Text" />
<circle cx="9.6" cy="10.6" r="0.6" fill="currentColor" class="ColorScheme-Text" />
<circle cx="10.6" cy="12.6" r="0.6" fill="currentColor" class="ColorScheme-Text" />
<circle cx="9.6" cy="14.6" r="0.6" fill="currentColor" class="ColorScheme-Text" />
<circle cx="7.6" cy="14.6" r="0.6" fill="currentColor" class="ColorScheme-Text" />
<circle cx="7.6" cy="10.6" r="0.6" fill="currentColor" class="ColorScheme-Text" />
<circle cx="11.6" cy="10.6" r="0.6" fill="currentColor" class="ColorScheme-Text" />
<circle cx="13.6" cy="10.6" r="0.6" fill="currentColor" class="ColorScheme-Text" />
<circle cx="12.6" cy="12.6" r="0.6" fill="currentColor" class="ColorScheme-Text" />
<circle cx="11.6" cy="14.6" r="0.6" fill="currentColor" class="ColorScheme-Text" />
<circle cx="14.6" cy="12.6" r="0.6" fill="currentColor" class="ColorScheme-Text" />
<circle cx="13.6" cy="14.6" r="0.6" fill="currentColor" class="ColorScheme-Text" />
<circle cx="16.6" cy="12.6" r="0.6" fill="currentColor" class="ColorScheme-Text" />
<rect x="15" y="10" width="2.2" height="1.2" rx="0.6" fill="currentColor" class="ColorScheme-Text" />
<rect x="15" y="14" width="2.2" height="1.2" rx="0.6" fill="currentColor" class="ColorScheme-Text" />
<rect x="7" y="12" width="2.2" height="1.2" rx="0.6" fill="currentColor" class="ColorScheme-Text" />
<rect x="9" y="16" width="6" height="1.2" rx="0.6" fill="currentColor" class="ColorScheme-Text" />
</g>
<defs>
<clipPath id="clip0_945_374">
<rect width="24" height="24" fill="white"/>
</clipPath>
</defs>
</svg>
