<?xml version="1.0" encoding="UTF-8" standalone="no"?>
<svg xmlns:inkscape="http://www.inkscape.org/namespaces/inkscape" xmlns:sodipodi="http://sodipodi.sourceforge.net/DTD/sodipodi-0.dtd" xmlns="http://www.w3.org/2000/svg" xmlns:svg="http://www.w3.org/2000/svg" width="24" height="24" viewBox="0 0 24 24" fill="none" version="1.1" id="svg3" sodipodi:docname="plasmavault.svg" inkscape:version="1.4 (e7c3feb100, 2024-10-09)">
    <defs id="defs1">
        <style id="current-color-scheme" type="text/css">
            .ColorScheme-Text { color:#e6f0f5; }
            .ColorScheme-Highlight { color:#2179cb; }
            .ColorScheme-Background { color:#e4e4e4; }
        </style>
    </defs>
    <sodipodi:namedview id="namedview3" pagecolor="#ffffff" bordercolor="#000000" borderopacity="0.25" inkscape:showpageshadow="2" inkscape:pageopacity="0.0" inkscape:pagecheckerboard="0" inkscape:deskcolor="#d1d1d1" inkscape:zoom="33.791667" inkscape:cx="12.014797" inkscape:cy="12" inkscape:window-width="1920" inkscape:window-height="1020" inkscape:window-x="0" inkscape:window-y="0" inkscape:window-maximized="1" inkscape:current-layer="g3"/>
    <g clip-path="url(#clip0_3579_609)" id="g3">
        <path id="path2" d="M 5,10.5 V 6 C 5,4.89543 5.89543,4 7,4 h 2.17157 c 0.53044,0 1.03913,0.21071 1.41423,0.58579 l 0.8284,0.82842 C 11.7893,5.78929 12.298,6 12.8284,6 H 17 c 1.1046,0 2,0.89543 2,2 v 0.5 m -15,3 V 18 c 0,1.1046 0.89543,2 2,2 h 12 c 1.1046,0 2,-0.8954 2,-2 V 9.5 c 0,-0.55228 -0.4477,-1 -1,-1 h -7.1716 c -0.5304,0 -1.0391,0.21071 -1.4142,0.58579 L 9.58579,9.91421 C 9.21071,10.2893 8.70201,10.5 8.17157,10.5 H 5 c -0.55228,0 -1,0.4477 -1,1 z" style="stroke:#000000;stroke-opacity:1;stroke-linejoin:round;stroke-linecap:round;stroke-width:1.2;stroke-dasharray:none"/>
        <path id="path3" d="m 16,13.993835 v -0.812035 0 c 0,0 0,-2.1818 -2,-2.1818 -2,0 -2,2.1818 -2,2.1818 v 0 l -0.02959,0.752849 M 11,14 h 6 c 0.554,0 1,0.446 1,1 v 2 c 0,0.554 -0.446,1 -1,1 h -6 c -0.554,0 -1,-0.446 -1,-1 v -2 c 0,-0.554 0.446,-1 1,-1 z" style="stroke:#000000;stroke-linecap:round;stroke-linejoin:round;stroke-opacity:1;stroke-width:1.2;stroke-dasharray:none" sodipodi:nodetypes="cccscccsssssssss"/>
        <path id="path2" d="M 5,10.5 V 6 C 5,4.89543 5.89543,4 7,4 h 2.17157 c 0.53044,0 1.03913,0.21071 1.41423,0.58579 l 0.8284,0.82842 C 11.7893,5.78929 12.298,6 12.8284,6 H 17 c 1.1046,0 2,0.89543 2,2 v 0.5 m -15,3 V 18 c 0,1.1046 0.89543,2 2,2 h 12 c 1.1046,0 2,-0.8954 2,-2 V 9.5 c 0,-0.55228 -0.4477,-1 -1,-1 h -7.1716 c -0.5304,0 -1.0391,0.21071 -1.4142,0.58579 L 9.58579,9.91421 C 9.21071,10.2893 8.70201,10.5 8.17157,10.5 H 5 c -0.55228,0 -1,0.4477 -1,1 z" style="stroke:currentColor;opacity:0.5;stroke-linejoin:round;stroke-linecap:round;stroke-width:1.2;stroke-dasharray:none" class="ColorScheme-Highlight"/>
        <path id="path3" d="m 16,13.993835 v -0.812035 0 c 0,0 0,-2.1818 -2,-2.1818 -2,0 -2,2.1818 -2,2.1818 v 0 l -0.02959,0.752849 M 11,14 h 6 c 0.554,0 1,0.446 1,1 v 2 c 0,0.554 -0.446,1 -1,1 h -6 c -0.554,0 -1,-0.446 -1,-1 v -2 c 0,-0.554 0.446,-1 1,-1 z" style="stroke:currentColor;stroke-linecap:round;stroke-linejoin:round;opacity:0.5;stroke-width:1.2;stroke-dasharray:none" class="ColorScheme-Highlight" sodipodi:nodetypes="cccscccsssssssss"/>
    </g>
    <defs id="defs3">
        <clipPath id="clip0_3579_609">
            <rect width="24" height="24" fill="white" id="rect3"/>
        </clipPath>
    </defs>
</svg>
