<svg width="24" height="24" viewBox="0 0 24 24" fill="none" xmlns="http://www.w3.org/2000/svg">
<g clip-path="url(#clip0_3031_449)">
<path d="M9.83922 20.1961L9.23922 17.1961C9.11546 16.5773 9.58876 16 10.2198 16H13.7802C14.4112 16 14.8845 16.5773 14.7608 17.1961L14.1608 20.1961C14.0673 20.6635 13.6569 21 13.1802 21H10.8198C10.3431 21 9.93271 20.6635 9.83922 20.1961Z" fill="url(#paint0_linear_3031_449)"/>
<rect x="2" y="3" width="20" height="14" rx="2" fill="url(#paint1_linear_3031_449)"/>
<rect x="3" y="4" width="18" height="12" rx="2" fill="url(#paint2_linear_3031_449)"/>
<path d="M15.5 21H8.5C8.22386 21 8 20.7761 8 20.5C8 20.2239 8.22386 20 8.5 20H15.5C15.7761 20 16 20.2239 16 20.5C16 20.7761 15.7761 21 15.5 21Z" fill="url(#paint3_linear_3031_449)"/>
<rect x="10" y="8" width="4" height="4" rx="2" fill="url(#paint4_linear_3031_449)"/>
</g>
<defs>
<linearGradient id="paint0_linear_3031_449" x1="11.1762" y1="16.6364" x2="13.2127" y2="20.8711" gradientUnits="userSpaceOnUse">
<stop stop-color="#5A6978"/>
<stop offset="1" stop-color="#3C3B3B"/>
</linearGradient>
<linearGradient id="paint1_linear_3031_449" x1="9.25395" y1="4.78182" x2="14.3242" y2="17.333" gradientUnits="userSpaceOnUse">
<stop stop-color="#5A6978"/>
<stop offset="1" stop-color="#3C3B3B"/>
</linearGradient>
<linearGradient id="paint2_linear_3031_449" x1="6.45" y1="3.58" x2="12.3931" y2="18.245" gradientUnits="userSpaceOnUse">
<stop stop-color="#4D5863"/>
<stop offset="1" stop-color="#262626"/>
</linearGradient>
<linearGradient id="paint3_linear_3031_449" x1="10.9016" y1="20.1273" x2="10.9764" y2="21.1647" gradientUnits="userSpaceOnUse">
<stop stop-color="#5A6978"/>
<stop offset="1" stop-color="#3C3B3B"/>
</linearGradient>
<linearGradient id="paint4_linear_3031_449" x1="12" y1="8.10811" x2="12" y2="12" gradientUnits="userSpaceOnUse">
<stop stop-color="#EFF3F5"/>
<stop offset="1" stop-color="#B4D8F1"/>
</linearGradient>
<clipPath id="clip0_3031_449">
<rect width="24" height="24" fill="white"/>
</clipPath>
</defs>
</svg>
