<svg width="24" height="24" viewBox="0 0 24 24" fill="none" xmlns="http://www.w3.org/2000/svg">
<g clip-path="url(#clip0_1119_432)">
<circle cx="12" cy="12" r="9" fill="url(#paint0_linear_1119_432)"/>
<circle cx="12" cy="12" r="8" fill="url(#paint1_linear_1119_432)"/>
<path fill-rule="evenodd" clip-rule="evenodd" d="M11.9999 6.89999C12.3313 6.89999 12.5999 7.16862 12.5999 7.49999V11.7515L14.9242 14.0757C15.1585 14.31 15.1585 14.6899 14.9242 14.9243C14.6899 15.1586 14.31 15.1586 14.0756 14.9243L11.5756 12.4243C11.4631 12.3117 11.3999 12.1591 11.3999 12V7.49999C11.3999 7.16862 11.6685 6.89999 11.9999 6.89999Z" fill="url(#paint2_linear_1119_432)"/>
</g>
<defs>
<linearGradient id="paint0_linear_1119_432" x1="9.52855" y1="5.29091" x2="17.6547" y2="19.372" gradientUnits="userSpaceOnUse">
<stop stop-color="#5A6978"/>
<stop offset="1" stop-color="#3C3B3B"/>
</linearGradient>
<linearGradient id="paint1_linear_1119_432" x1="12" y1="4" x2="12" y2="20" gradientUnits="userSpaceOnUse">
<stop stop-color="#EFF3F5"/>
<stop offset="1" stop-color="#C7CFD4"/>
</linearGradient>
<linearGradient id="paint2_linear_1119_432" x1="12.1091" y1="6.61299" x2="17.6927" y2="10.7576" gradientUnits="userSpaceOnUse">
<stop stop-color="#4D5863"/>
<stop offset="1" stop-color="#262626"/>
</linearGradient>
<clipPath id="clip0_1119_432">
<rect width="24" height="24" fill="white"/>
</clipPath>
</defs>
</svg>
