<svg width="24" height="24" viewBox="0 0 24 24" fill="none" xmlns="http://www.w3.org/2000/svg">
<g clip-path="url(#clip0_1364_516)">
<mask id="mask0_1364_516" style="mask-type:luminance" maskUnits="userSpaceOnUse" x="0" y="0" width="24" height="24">
<path d="M24 0H0V24H24V0Z" fill="white"/>
</mask>
<g mask="url(#mask0_1364_516)">
<path d="M10 14H18C18.5523 14 19 14.4477 19 15V17C19 17.5523 18.5523 18 18 18H10C9.44771 18 9 17.5523 9 17V15C9 14.4477 9.44771 14 10 14Z" fill="#DDDDDD" stroke="#DDDDDD" stroke-width="1.2"/>
<path d="M6 6H18C18.5523 6 19 6.44772 19 7V9C19 9.55228 18.5523 10 18 10H6C5.44771 10 5 9.55228 5 9V7C5 6.44772 5.44771 6 6 6Z" fill="#DDDDDD" stroke="#DDDDDD" stroke-width="1.2"/>
<path d="M19 3V21" stroke="#DDDDDD" stroke-width="1.2" stroke-linecap="round"/>
</g>
</g>
<defs>
<clipPath id="clip0_1364_516">
<rect width="24" height="24" fill="white"/>
</clipPath>
</defs>
</svg>
