<svg width="24" height="24" viewBox="0 0 24 24" fill="none" xmlns="http://www.w3.org/2000/svg">
<g clip-path="url(#clip0_1364_545)">
<mask id="mask0_1364_545" style="mask-type:luminance" maskUnits="userSpaceOnUse" x="0" y="0" width="24" height="24">
<path d="M24 0H0V24H24V0Z" fill="white"/>
</mask>
<g mask="url(#mask0_1364_545)">
<path d="M14 14H6C5.44772 14 5 14.4477 5 15V17C5 17.5523 5.44772 18 6 18H14C14.5523 18 15 17.5523 15 17V15C15 14.4477 14.5523 14 14 14Z" fill="#DDDDDD" stroke="#DDDDDD" stroke-width="1.2"/>
<path d="M18 6H6C5.44772 6 5 6.44772 5 7V9C5 9.55228 5.44772 10 6 10H18C18.5523 10 19 9.55228 19 9V7C19 6.44772 18.5523 6 18 6Z" fill="#DDDDDD" stroke="#DDDDDD" stroke-width="1.2"/>
<path d="M5 3V21" stroke="#DDDDDD" stroke-width="1.2" stroke-linecap="round"/>
</g>
</g>
<defs>
<clipPath id="clip0_1364_545">
<rect width="24" height="24" fill="white"/>
</clipPath>
</defs>
</svg>
