<svg width="24" height="24" viewBox="0 0 24 24" fill="none" xmlns="http://www.w3.org/2000/svg">
<g clip-path="url(#clip0_1364_524)">
<mask id="mask0_1364_524" style="mask-type:luminance" maskUnits="userSpaceOnUse" x="0" y="0" width="24" height="24">
<path d="M24 0H0V24H24V0Z" fill="white"/>
</mask>
<g mask="url(#mask0_1364_524)">
<path d="M16 14H8C7.44772 14 7 14.4477 7 15V17C7 17.5523 7.44772 18 8 18H16C16.5523 18 17 17.5523 17 17V15C17 14.4477 16.5523 14 16 14Z" fill="#DDDDDD" stroke="#DDDDDD" stroke-width="1.2"/>
<path d="M18 6H6C5.44772 6 5 6.44772 5 7V9C5 9.55228 5.44772 10 6 10H18C18.5523 10 19 9.55228 19 9V7C19 6.44772 18.5523 6 18 6Z" fill="#DDDDDD" stroke="#DDDDDD" stroke-width="1.2"/>
<path d="M12 3V21" stroke="#DDDDDD" stroke-width="1.2" stroke-linecap="round"/>
</g>
</g>
<defs>
<clipPath id="clip0_1364_524">
<rect width="24" height="24" fill="white"/>
</clipPath>
</defs>
</svg>
