<svg width="24" height="24" viewBox="0 0 24 24" fill="none" xmlns="http://www.w3.org/2000/svg">
<g clip-path="url(#clip0_3017_1323)">
<mask id="mask0_3017_1323" style="mask-type:luminance" maskUnits="userSpaceOnUse" x="0" y="0" width="24" height="24">
<path d="M24 0H0V24H24V0Z" fill="white"/>
</mask>
<g mask="url(#mask0_3017_1323)">
<path d="M12 5V4" stroke="#DDDDDD" stroke-width="1.2" stroke-linecap="round" stroke-linejoin="round"/>
<path d="M12 20V19" stroke="#DDDDDD" stroke-width="1.2" stroke-linecap="round" stroke-linejoin="round"/>
<path d="M16.9497 7.05025L17.6568 6.34314" stroke="#DDDDDD" stroke-width="1.2" stroke-linecap="round" stroke-linejoin="round"/>
<path d="M6 17.7071L6.70711 17" stroke="#DDDDDD" stroke-width="1.2" stroke-linecap="round" stroke-linejoin="round"/>
<path d="M7.05037 7.05025L6.34326 6.34314" stroke="#DDDDDD" stroke-width="1.2" stroke-linecap="round" stroke-linejoin="round"/>
<path d="M17.7071 17.7071L17 17" stroke="#DDDDDD" stroke-width="1.2" stroke-linecap="round" stroke-linejoin="round"/>
<path d="M5 12H4" stroke="#DDDDDD" stroke-width="1.2" stroke-linecap="round" stroke-linejoin="round"/>
<path d="M20 12H19" stroke="#DDDDDD" stroke-width="1.2" stroke-linecap="round" stroke-linejoin="round"/>
<path d="M12 16C14.2091 16 16 14.2091 16 12C16 9.79086 14.2091 8 12 8C9.79086 8 8 9.79086 8 12C8 14.2091 9.79086 16 12 16Z" stroke="#DDDDDD" stroke-width="1.2"/>
</g>
</g>
<defs>
<clipPath id="clip0_3017_1323">
<rect width="24" height="24" fill="white"/>
</clipPath>
</defs>
</svg>
