<svg width="24" height="24" viewBox="0 0 24 24" fill="none" xmlns="http://www.w3.org/2000/svg">
<g clip-path="url(#clip0_3037_229)">
<path d="M12 20H7C6.44772 20 6 19.5523 6 19V5C6 4.44772 6.44772 4 7 4H14C14.2568 4 14.5037 4.09877 14.6897 4.27586L17.6897 7.13301C17.8878 7.32175 18 7.58347 18 7.85714V13" stroke="#DDDDDD" stroke-width="1.2" stroke-linecap="round"/>
<path d="M14 4V7C14 7.55228 14.4477 8 15 8H18" stroke="#DDDDDD" stroke-width="1.2" stroke-linecap="round" stroke-linejoin="round"/>
<path d="M15 17V21C15 21.5523 15.4477 22 16 22H20C20.5523 22 21 21.5523 21 21V18C21 17.4477 20.5523 17 20 17H18.4142C18.149 17 17.8946 16.8946 17.7071 16.7071L17.2929 16.2929C17.1054 16.1054 16.851 16 16.5858 16H16C15.4477 16 15 16.4477 15 17Z" stroke="#DDDDDD" stroke-width="1.2" stroke-linecap="round"/>
</g>
<defs>
<clipPath id="clip0_3037_229">
<rect width="24" height="24" fill="white"/>
</clipPath>
</defs>
</svg>
