<svg width="24" height="24" viewBox="0 0 24 24" fill="none" xmlns="http://www.w3.org/2000/svg">
<g clip-path="url(#clip0_3037_238)">
<path d="M4 6C4 4.89543 4.89543 4 6 4H15.1716C15.702 4 16.2107 4.21071 16.5858 4.58579L19.4142 7.41421C19.7893 7.78929 20 8.29799 20 8.82843V18C20 19.1046 19.1046 20 18 20H6C4.89543 20 4 19.1046 4 18V6Z" stroke="#DDDDDD" stroke-width="1.2"/>
<path d="M8 4H15C15.5523 4 16 4.44772 16 5V8C16 8.55228 15.5523 9 15 9H9C8.44772 9 8 8.55228 8 8V4Z" stroke="#DDDDDD" stroke-width="1.2"/>
<path d="M17 20L7 20L7 14C7 13.4477 7.44771 13 8 13L16 13C16.5523 13 17 13.4477 17 14L17 20Z" stroke="#DDDDDD" stroke-width="1.2"/>
</g>
<defs>
<clipPath id="clip0_3037_238">
<rect width="24" height="24" fill="white"/>
</clipPath>
</defs>
</svg>
