<svg width="24" height="24" viewBox="0 0 24 24" fill="none" xmlns="http://www.w3.org/2000/svg">
<g clip-path="url(#clip0_3069_392)">
<mask id="mask0_3069_392" style="mask-type:luminance" maskUnits="userSpaceOnUse" x="0" y="0" width="24" height="24">
<path d="M24 0H0V24H24V0Z" fill="white"/>
</mask>
<g mask="url(#mask0_3069_392)">
<path d="M12 20C16.4183 20 20 16.4183 20 12C20 7.58172 16.4183 4 12 4C7.58172 4 4 7.58172 4 12C4 16.4183 7.58172 20 12 20Z" stroke="#DDDDDD" stroke-width="1.2"/>
<path d="M12 10C12.5523 10 13 9.55228 13 9C13 8.44772 12.5523 8 12 8C11.4477 8 11 8.44772 11 9C11 9.55228 11.4477 10 12 10Z" fill="#DDDDDD"/>
<path d="M12 12V16" stroke="#DDDDDD" stroke-width="1.2" stroke-linecap="round"/>
</g>
</g>
<defs>
<clipPath id="clip0_3069_392">
<rect width="24" height="24" fill="white"/>
</clipPath>
</defs>
</svg>
