<svg width="24" height="24" viewBox="0 0 24 24" fill="none" xmlns="http://www.w3.org/2000/svg">
<g clip-path="url(#clip0_1364_480)">
<mask id="mask0_1364_480" style="mask-type:luminance" maskUnits="userSpaceOnUse" x="0" y="0" width="24" height="24">
<path d="M24 0H0V24H24V0Z" fill="white"/>
</mask>
<g mask="url(#mask0_1364_480)">
<path d="M18 14H6C5.44772 14 5 14.4477 5 15V17C5 17.5523 5.44772 18 6 18H18C18.5523 18 19 17.5523 19 17V15C19 14.4477 18.5523 14 18 14Z" stroke="#DDDDDD" stroke-width="1.2"/>
<path d="M18 6H6C5.44772 6 5 6.44772 5 7V9C5 9.55228 5.44772 10 6 10H18C18.5523 10 19 9.55228 19 9V7C19 6.44772 18.5523 6 18 6Z" stroke="#DDDDDD" stroke-width="1.2"/>
</g>
</g>
<defs>
<clipPath id="clip0_1364_480">
<rect width="24" height="24" fill="white"/>
</clipPath>
</defs>
</svg>
