<svg width="24" height="24" viewBox="0 0 24 24" fill="none" xmlns="http://www.w3.org/2000/svg">
<g clip-path="url(#clip0_1364_509)">
<mask id="mask0_1364_509" style="mask-type:luminance" maskUnits="userSpaceOnUse" x="0" y="0" width="24" height="24">
<path d="M24 0H0V24H24V0Z" fill="white"/>
</mask>
<g mask="url(#mask0_1364_509)">
<path d="M14 6V18C14 18.5523 14.4477 19 15 19H17C17.5523 19 18 18.5523 18 18V6C18 5.44771 17.5523 5 17 5H15C14.4477 5 14 5.44771 14 6Z" stroke="#DDDDDD" stroke-width="1.2"/>
<path d="M6 6L6 18C6 18.5523 6.44772 19 7 19H9C9.55228 19 10 18.5523 10 18V6C10 5.44771 9.55228 5 9 5H7C6.44772 5 6 5.44771 6 6Z" stroke="#DDDDDD" stroke-width="1.2"/>
</g>
</g>
<defs>
<clipPath id="clip0_1364_509">
<rect width="24" height="24" fill="white"/>
</clipPath>
</defs>
</svg>
