<svg width="24" height="24" viewBox="0 0 24 24" fill="none" xmlns="http://www.w3.org/2000/svg">
<g clip-path="url(#clip0_3502_457)">
<rect x="6" y="6" width="1" height="1" fill="#DDDDDD"/>
<rect x="8" y="8" width="1" height="1" fill="#DDDDDD"/>
<rect x="7" y="9" width="1" height="1" fill="#DDDDDD"/>
<rect x="6" y="10" width="1" height="1" fill="#DDDDDD"/>
<rect x="9" y="9" width="1" height="1" fill="#DDDDDD"/>
<rect x="10" y="10" width="1" height="1" fill="#DDDDDD"/>
<rect x="9" y="7" width="1" height="1" fill="#DDDDDD"/>
<rect x="10" y="6" width="1" height="1" fill="#DDDDDD"/>
<rect x="7" y="7" width="1" height="1" fill="#DDDDDD"/>
<rect x="13" y="6" width="1" height="1" fill="#DDDDDD"/>
<rect x="15" y="8" width="1" height="1" fill="#DDDDDD"/>
<rect x="14" y="9" width="1" height="1" fill="#DDDDDD"/>
<rect x="13" y="10" width="1" height="1" fill="#DDDDDD"/>
<rect x="16" y="9" width="1" height="1" fill="#DDDDDD"/>
<rect x="17" y="10" width="1" height="1" fill="#DDDDDD"/>
<rect x="16" y="7" width="1" height="1" fill="#DDDDDD"/>
<rect x="17" y="6" width="1" height="1" fill="#DDDDDD"/>
<rect x="14" y="7" width="1" height="1" fill="#DDDDDD"/>
<rect x="7" y="17" width="1" height="1" fill="#DDDDDD"/>
<rect x="8" y="16" width="1" height="1" fill="#DDDDDD"/>
<rect x="9" y="15" width="1" height="1" fill="#DDDDDD"/>
<rect x="10" y="14" width="4" height="1" fill="#DDDDDD"/>
<rect x="14" y="15" width="1" height="1" fill="#DDDDDD"/>
<rect x="15" y="16" width="1" height="1" fill="#DDDDDD"/>
<rect x="16" y="17" width="1" height="1" fill="#DDDDDD"/>
<rect x="4" y="4" width="16" height="16" rx="2" stroke="#DDDDDD" stroke-width="1.2"/>
</g>
<defs>
<clipPath id="clip0_3502_457">
<rect width="24" height="24" fill="white"/>
</clipPath>
</defs>
</svg>
