<svg width="24" height="24" viewBox="0 0 24 24" fill="none" xmlns="http://www.w3.org/2000/svg">
<g clip-path="url(#clip0_1364_553)">
<mask id="mask0_1364_553" style="mask-type:luminance" maskUnits="userSpaceOnUse" x="0" y="0" width="24" height="24">
<path d="M24 0H0V24H24V0Z" fill="white"/>
</mask>
<g mask="url(#mask0_1364_553)">
<path d="M8 4H5C4.44772 4 4 4.44772 4 5V8C4 8.55228 4.44772 9 5 9H8C8.55228 9 9 8.55228 9 8V5C9 4.44772 8.55228 4 8 4Z" stroke="#DDDDDD" stroke-width="1.2"/>
<path d="M11 12H5C4.44772 12 4 12.4477 4 13V19C4 19.5523 4.44772 20 5 20H11C11.5523 20 12 19.5523 12 19V13C12 12.4477 11.5523 12 11 12Z" fill="#DDDDDD" stroke="#DDDDDD" stroke-width="1.2"/>
<path d="M19 15H16C15.4477 15 15 15.4477 15 16V19C15 19.5523 15.4477 20 16 20H19C19.5523 20 20 19.5523 20 19V16C20 15.4477 19.5523 15 19 15Z" stroke="#DDDDDD" stroke-width="1.2"/>
<path d="M14 4H19C19.5523 4 20 4.44772 20 5V10" stroke="#DDDDDD" stroke-width="1.2" stroke-linecap="round"/>
<path d="M19 5L14 10" stroke="#DDDDDD" stroke-width="1.2" stroke-linecap="round"/>
</g>
</g>
<defs>
<clipPath id="clip0_1364_553">
<rect width="24" height="24" fill="white"/>
</clipPath>
</defs>
</svg>
