<svg width="24" height="24" viewBox="0 0 24 24" fill="none" xmlns="http://www.w3.org/2000/svg">
<g clip-path="url(#clip0_3069_468)">
<mask id="mask0_3069_468" style="mask-type:luminance" maskUnits="userSpaceOnUse" x="0" y="0" width="24" height="24">
<path d="M24 0H0V24H24V0Z" fill="white"/>
</mask>
<g mask="url(#mask0_3069_468)">
<path d="M6 10V7C6 5.89543 6.89543 5 8 5H16C17.1046 5 18 5.89543 18 7V10L17.1977 17.2209C17.0851 18.2337 16.229 19 15.2099 19H8.79009C7.77099 19 6.91486 18.2337 6.80232 17.2209L6 10Z" stroke="#DDDDDD" stroke-width="1.2"/>
<path d="M18 7C18 8.10457 17.1046 9 16 9H8C6.89543 9 6 8.10457 6 7C6 5.89543 6.89543 5 8 5H16C17.1046 5 18 5.89543 18 7Z" stroke="#DDDDDD" stroke-width="1.2"/>
<path d="M10 12V16" stroke="#DDDDDD" stroke-width="1.2" stroke-linecap="round"/>
<path d="M14 12V16" stroke="#DDDDDD" stroke-width="1.2" stroke-linecap="round"/>
</g>
</g>
<defs>
<clipPath id="clip0_3069_468">
<rect width="24" height="24" fill="white"/>
</clipPath>
</defs>
</svg>
