<svg width="24" height="24" viewBox="0 0 24 24" fill="none" xmlns="http://www.w3.org/2000/svg">
<g clip-path="url(#clip0_3017_1684)">
<mask id="mask0_3017_1684" style="mask-type:luminance" maskUnits="userSpaceOnUse" x="0" y="0" width="24" height="24">
<path d="M24 0H0V24H24V0Z" fill="white"/>
</mask>
<g mask="url(#mask0_3017_1684)">
<path d="M9 4H5C4.44772 4 4 4.44772 4 5V9C4 9.55228 4.44772 10 5 10H9C9.55228 10 10 9.55228 10 9V5C10 4.44772 9.55228 4 9 4Z" stroke="#DDDDDD" stroke-width="1.2" stroke-linejoin="round"/>
<path d="M9 14H5C4.44772 14 4 14.4477 4 15V19C4 19.5523 4.44772 20 5 20H9C9.55228 20 10 19.5523 10 19V15C10 14.4477 9.55228 14 9 14Z" fill="#DDDDDD" stroke="#DDDDDD" stroke-width="1.2" stroke-linejoin="round"/>
<path d="M13 5H20" stroke="#DDDDDD" stroke-width="1.2" stroke-linecap="round"/>
<path d="M13 15H18" stroke="#DDDDDD" stroke-width="1.2" stroke-linecap="round"/>
<path d="M13 9H20" stroke="#DDDDDD" stroke-width="1.2" stroke-linecap="round"/>
<path d="M13 19H18" stroke="#DDDDDD" stroke-width="1.2" stroke-linecap="round"/>
</g>
</g>
<defs>
<clipPath id="clip0_3017_1684">
<rect width="24" height="24" fill="white"/>
</clipPath>
</defs>
</svg>
