<svg width="24" height="24" viewBox="0 0 24 24" fill="none" xmlns="http://www.w3.org/2000/svg">
<g clip-path="url(#clip0_3017_2676)">
<mask id="mask0_3017_2676" style="mask-type:luminance" maskUnits="userSpaceOnUse" x="0" y="0" width="24" height="24">
<path d="M24 0H0V24H24V0Z" fill="white"/>
</mask>
<g mask="url(#mask0_3017_2676)">
<path d="M8.5 5.75691L10.5514 4.7272C11.2164 4.3934 12 4.87686 12 5.62092V9.50005M4.91674 7.55557L3.55139 8.24092C3.21337 8.41059 3 8.75644 3 9.13465V12V14.8654C3 15.2436 3.21337 15.5895 3.55138 15.7591L10.5514 19.2729C11.2164 19.6067 12 19.1233 12 18.3792V14.5" stroke="#DDDDDD" stroke-width="1.2" stroke-linecap="round"/>
<path opacity="0.2" d="M15 9C16.2183 9.70015 17 10.7837 17 12C17 12.5825 16.8207 13.1346 16.5 13.6287" stroke="#DDDDDD" stroke-width="1.2" stroke-linecap="round"/>
<path opacity="0.2" d="M18 6C19.8274 7.4003 21 9.56749 21 12C21 13.6756 20.4436 15.2254 19.5 16.4853" stroke="#DDDDDD" stroke-width="1.2" stroke-linecap="round"/>
<path d="M4 4L20 20" stroke="#DDDDDD" stroke-width="1.2" stroke-linecap="round"/>
</g>
</g>
<defs>
<clipPath id="clip0_3017_2676">
<rect width="24" height="24" fill="white"/>
</clipPath>
</defs>
</svg>
