<svg width="24" height="24" viewBox="0 0 24 24" fill="none" xmlns="http://www.w3.org/2000/svg">
<g clip-path="url(#clip0_3017_3155)">
<mask id="mask0_3017_3155" style="mask-type:luminance" maskUnits="userSpaceOnUse" x="0" y="0" width="24" height="24">
<path d="M24 0H0V24H24V0Z" fill="white"/>
</mask>
<g mask="url(#mask0_3017_3155)">
<path d="M12 5.62092V12V18.3792C12 19.1233 11.2164 19.6067 10.5514 19.2729L3.55138 15.7591C3.21337 15.5895 3 15.2436 3 14.8654V12V9.13465C3 8.75644 3.21337 8.41059 3.55138 8.24092L10.5514 4.7272C11.2164 4.3934 12 4.87686 12 5.62092Z" stroke="#DDDDDD" stroke-width="1.2"/>
<path d="M15 9C16.2183 9.70015 17 10.7837 17 12C17 13.2163 16.2183 14.2999 15 15" stroke="#DDDDDD" stroke-width="1.2" stroke-linecap="round"/>
<path d="M17 6C19.4366 7.4003 21 9.56749 21 12C21 14.4325 19.4366 16.5997 17 18" stroke="#DDDDDD" stroke-width="1.2" stroke-linecap="round"/>
</g>
</g>
<defs>
<clipPath id="clip0_3017_3155">
<rect width="24" height="24" fill="white"/>
</clipPath>
</defs>
</svg>
