<svg width="24" height="24" viewBox="0 0 24 24" fill="none" xmlns="http://www.w3.org/2000/svg">
<g clip-path="url(#clip0_3017_2876)">
<mask id="mask0_3017_2876" style="mask-type:luminance" maskUnits="userSpaceOnUse" x="0" y="0" width="24" height="24">
<path d="M24 0H0V24H24V0Z" fill="white"/>
</mask>
<g mask="url(#mask0_3017_2876)">
<path d="M18 8H6C4.89543 8 4 8.89543 4 10V17C4 18.1046 4.89543 19 6 19H18C19.1046 19 20 18.1046 20 17V10C20 8.89543 19.1046 8 18 8Z" stroke="#DDDDDD" stroke-width="1.2"/>
<path d="M12 8C12 6.5 13 6.5 13 5" stroke="#DDDDDD" stroke-width="1.2" stroke-linecap="round" stroke-linejoin="round"/>
<path d="M9.6 11.2C9.93137 11.2 10.2 10.9314 10.2 10.6C10.2 10.2686 9.93137 10 9.6 10C9.26863 10 9 10.2686 9 10.6C9 10.9314 9.26863 11.2 9.6 11.2Z" fill="#DDDDDD"/>
<path d="M10.6 13.2C10.9314 13.2 11.2 12.9314 11.2 12.6C11.2 12.2686 10.9314 12 10.6 12C10.2686 12 10 12.2686 10 12.6C10 12.9314 10.2686 13.2 10.6 13.2Z" fill="#DDDDDD"/>
<path d="M9.6 15.2C9.93137 15.2 10.2 14.9314 10.2 14.6C10.2 14.2686 9.93137 14 9.6 14C9.26863 14 9 14.2686 9 14.6C9 14.9314 9.26863 15.2 9.6 15.2Z" fill="#DDDDDD"/>
<path d="M7.6 15.2C7.93137 15.2 8.2 14.9314 8.2 14.6C8.2 14.2686 7.93137 14 7.6 14C7.26863 14 7 14.2686 7 14.6C7 14.9314 7.26863 15.2 7.6 15.2Z" fill="#DDDDDD"/>
<path d="M7.6 11.2C7.93137 11.2 8.2 10.9314 8.2 10.6C8.2 10.2686 7.93137 10 7.6 10C7.26863 10 7 10.2686 7 10.6C7 10.9314 7.26863 11.2 7.6 11.2Z" fill="#DDDDDD"/>
<path d="M11.6 11.2C11.9314 11.2 12.2 10.9314 12.2 10.6C12.2 10.2686 11.9314 10 11.6 10C11.2686 10 11 10.2686 11 10.6C11 10.9314 11.2686 11.2 11.6 11.2Z" fill="#DDDDDD"/>
<path d="M13.6 11.2C13.9314 11.2 14.2 10.9314 14.2 10.6C14.2 10.2686 13.9314 10 13.6 10C13.2686 10 13 10.2686 13 10.6C13 10.9314 13.2686 11.2 13.6 11.2Z" fill="#DDDDDD"/>
<path d="M12.6 13.2C12.9314 13.2 13.2 12.9314 13.2 12.6C13.2 12.2686 12.9314 12 12.6 12C12.2686 12 12 12.2686 12 12.6C12 12.9314 12.2686 13.2 12.6 13.2Z" fill="#DDDDDD"/>
<path d="M11.6 15.2C11.9314 15.2 12.2 14.9314 12.2 14.6C12.2 14.2686 11.9314 14 11.6 14C11.2686 14 11 14.2686 11 14.6C11 14.9314 11.2686 15.2 11.6 15.2Z" fill="#DDDDDD"/>
<path d="M14.6 13.2C14.9314 13.2 15.2 12.9314 15.2 12.6C15.2 12.2686 14.9314 12 14.6 12C14.2686 12 14 12.2686 14 12.6C14 12.9314 14.2686 13.2 14.6 13.2Z" fill="#DDDDDD"/>
<path d="M13.6 15.2C13.9314 15.2 14.2 14.9314 14.2 14.6C14.2 14.2686 13.9314 14 13.6 14C13.2686 14 13 14.2686 13 14.6C13 14.9314 13.2686 15.2 13.6 15.2Z" fill="#DDDDDD"/>
<path d="M16.6 13.2C16.9314 13.2 17.2 12.9314 17.2 12.6C17.2 12.2686 16.9314 12 16.6 12C16.2686 12 16 12.2686 16 12.6C16 12.9314 16.2686 13.2 16.6 13.2Z" fill="#DDDDDD"/>
<path d="M16.6 10H15.6C15.2686 10 15 10.2686 15 10.6C15 10.9314 15.2686 11.2 15.6 11.2H16.6C16.9314 11.2 17.2 10.9314 17.2 10.6C17.2 10.2686 16.9314 10 16.6 10Z" fill="#DDDDDD"/>
<path d="M16.6 14H15.6C15.2686 14 15 14.2686 15 14.6C15 14.9314 15.2686 15.2 15.6 15.2H16.6C16.9314 15.2 17.2 14.9314 17.2 14.6C17.2 14.2686 16.9314 14 16.6 14Z" fill="#DDDDDD"/>
<path d="M8.6 12H7.6C7.26863 12 7 12.2686 7 12.6C7 12.9314 7.26863 13.2 7.6 13.2H8.6C8.93137 13.2 9.2 12.9314 9.2 12.6C9.2 12.2686 8.93137 12 8.6 12Z" fill="#DDDDDD"/>
<path d="M14.4 16H9.6C9.26863 16 9 16.2686 9 16.6C9 16.9314 9.26863 17.2 9.6 17.2H14.4C14.7314 17.2 15 16.9314 15 16.6C15 16.2686 14.7314 16 14.4 16Z" fill="#DDDDDD"/>
</g>
</g>
<defs>
<clipPath id="clip0_3017_2876">
<rect width="24" height="24" fill="white"/>
</clipPath>
</defs>
</svg>
