<svg width="24" height="24" viewBox="0 0 24 24" fill="none" xmlns="http://www.w3.org/2000/svg">
<g clip-path="url(#clip0_3017_2931)">
<mask id="mask0_3017_2931" style="mask-type:luminance" maskUnits="userSpaceOnUse" x="0" y="0" width="24" height="24">
<path d="M24 0H0V24H24V0Z" fill="white"/>
</mask>
<g mask="url(#mask0_3017_2931)">
<path d="M9 6H8C6.89543 6 6 6.89543 6 8V18C6 19.1046 6.89543 20 8 20H16C17.1046 20 18 19.1046 18 18V8C18 6.89543 17.1046 6 16 6H15" stroke="#DDDDDD" stroke-width="1.2"/>
<path d="M14 4H10C9.44772 4 9 4.44772 9 5V7C9 7.55228 9.44772 8 10 8H14C14.5523 8 15 7.55228 15 7V5C15 4.44772 14.5523 4 14 4Z" stroke="#DDDDDD" stroke-width="1.2"/>
<path d="M9 12H15" stroke="#DDDDDD" stroke-width="1.2" stroke-linecap="round"/>
<path d="M9 15H13" stroke="#DDDDDD" stroke-width="1.2" stroke-linecap="round"/>
</g>
</g>
<defs>
<clipPath id="clip0_3017_2931">
<rect width="24" height="24" fill="white"/>
</clipPath>
</defs>
</svg>
