<svg width="24" height="24" viewBox="0 0 24 24" fill="none" xmlns="http://www.w3.org/2000/svg">
<g clip-path="url(#clip0_3017_2956)">
<mask id="mask0_3017_2956" style="mask-type:luminance" maskUnits="userSpaceOnUse" x="0" y="0" width="24" height="24">
<path d="M24 0H0V24H24V0Z" fill="white"/>
</mask>
<g mask="url(#mask0_3017_2956)">
<path d="M12 20C16.4183 20 20 16.4183 20 12C20 7.58172 16.4183 4 12 4C7.58172 4 4 7.58172 4 12C4 16.4183 7.58172 20 12 20Z" stroke="#DDDDDD" stroke-width="1.2"/>
<path d="M11.5547 9.03645L14.7519 11.1679C15.3457 11.5638 15.3457 12.4362 14.7519 12.8321L11.5547 14.9635C10.8901 15.4066 10 14.9302 10 14.1315V9.8685C10 9.0698 10.8901 8.59341 11.5547 9.03645Z" fill="#DDDDDD" stroke="#DDDDDD" stroke-width="1.2"/>
</g>
</g>
<defs>
<clipPath id="clip0_3017_2956">
<rect width="24" height="24" fill="white"/>
</clipPath>
</defs>
</svg>
