<svg width="24" height="24" viewBox="0 0 24 24" fill="none" xmlns="http://www.w3.org/2000/svg">
<g clip-path="url(#clip0_3017_2990)">
<mask id="mask0_3017_2990" style="mask-type:luminance" maskUnits="userSpaceOnUse" x="0" y="0" width="24" height="24">
<path d="M24 0H0V24H24V0Z" fill="white"/>
</mask>
<g mask="url(#mask0_3017_2990)">
<path d="M9 16H18C19.1046 16 20 15.1046 20 14V6C20 4.89543 19.1046 4 18 4H12" stroke="#DDDDDD" stroke-width="1.2" stroke-linecap="round"/>
<path d="M8 4H6C4.89543 4 4 4.89543 4 6V10C4 11.1046 4.89543 12 6 12H8C9.10457 12 10 11.1046 10 10V6C10 4.89543 9.10457 4 8 4Z" stroke="#DDDDDD" stroke-width="1.2"/>
<path d="M7 12V16.5C7 18.433 8.567 20 10.5 20H16" stroke="#DDDDDD" stroke-width="1.2" stroke-linecap="round"/>
<path d="M7 7V9" stroke="#DDDDDD" stroke-width="1.2" stroke-linecap="round"/>
<path d="M12 16V20" stroke="#DDDDDD" stroke-width="1.2" stroke-linecap="round" stroke-linejoin="round"/>
</g>
</g>
<defs>
<clipPath id="clip0_3017_2990">
<rect width="24" height="24" fill="white"/>
</clipPath>
</defs>
</svg>
