<svg width="24" height="24" viewBox="0 0 24 24" fill="none" xmlns="http://www.w3.org/2000/svg">
<path d="M12 21C11.1111 21 4 17.4 4 13.8V5.48592C4 5.10172 4.21857 4.75309 4.57348 4.60596C5.79757 4.09852 8.81529 3 12 3C15.1847 3 18.2024 4.09852 19.4265 4.60596C19.7814 4.75309 20 5.10121 20 5.48541V13.8C20 17.4 12.8889 21 12 21Z" stroke="#DDDDDD" stroke-width="1.2"/>
<path d="M11.5833 18.7938C10.2231 18.0982 6 15.7491 6 13.4V6.86792C6 6.46359 6.24403 6.09992 6.62652 5.96883C7.64387 5.62016 9.76722 5 12 5C14.2328 5 16.3561 5.62016 17.3735 5.96883C17.756 6.09992 18 6.46311 18 6.86744V13.4C18 15.7491 13.7769 18.0982 12.4167 18.7938C12.1533 18.9285 11.8467 18.9285 11.5833 18.7938Z" fill="#DDDDDD"/>
</svg>
