<svg width="128" height="128" viewBox="0 0 128 128" fill="none" xmlns="http://www.w3.org/2000/svg">
<g clip-path="url(#clip0_731_405)">
<path d="M19 17C19 13.6863 21.6863 11 25 11L86.5147 11C88.106 11 89.6321 11.6321 90.7574 12.7574L107.243 29.2426C108.368 30.3679 109 31.894 109 33.4853V115C109 118.314 106.314 121 103 121H25C21.6863 121 19 118.314 19 115V17Z" fill="black" fill-opacity="0.15"/>
<path d="M19 15C19 11.6863 21.6863 9 25 9L86.5147 9C88.106 9 89.6321 9.63214 90.7574 10.7574L107.243 27.2426C108.368 28.3679 109 29.894 109 31.4853V113C109 116.314 106.314 119 103 119H25C21.6863 119 19 116.314 19 113V15Z" fill="url(#paint0_linear_731_405)"/>
<path fill-rule="evenodd" clip-rule="evenodd" d="M52 17C50.8954 17 50 17.8954 50 19V27C50 28.1046 50.8954 29 52 29H62C63.1046 29 64 28.1046 64 27V19C64 17.8954 63.1046 17 62 17H52ZM66 29C64.8954 29 64 29.8954 64 31V39C64 40.1046 64.8954 41 66 41H76C77.1046 41 78 40.1046 78 39V31C78 29.8954 77.1046 29 76 29H66ZM50 43C50 41.8954 50.8954 41 52 41H62C63.1046 41 64 41.8954 64 43V51C64 52.1046 63.1046 53 62 53H52C50.8954 53 50 52.1046 50 51V43ZM66 53C64.8954 53 64 53.8954 64 55V63C64 64.1046 64.8954 65 66 65H76C77.1046 65 78 64.1046 78 63V55C78 53.8954 77.1046 53 76 53H66ZM64 79C64 77.8954 64.8954 77 66 77H76C77.1046 77 78 77.8954 78 79V97C78 98.1046 77.1046 99 76 99H66C64.8954 99 64 98.1046 64 97V79ZM52 65C50.8954 65 50 65.8954 50 67V75C50 76.1046 50.8954 77 52 77H62C63.1046 77 64 76.1046 64 75V67C64 65.8954 63.1046 65 62 65H52Z" fill="black" fill-opacity="0.15"/>
<path fill-rule="evenodd" clip-rule="evenodd" d="M52 15C50.8954 15 50 15.8954 50 17V25C50 26.1046 50.8954 27 52 27H62C63.1046 27 64 26.1046 64 25V17C64 15.8954 63.1046 15 62 15H52ZM66 27C64.8954 27 64 27.8954 64 29V37C64 38.1046 64.8954 39 66 39H76C77.1046 39 78 38.1046 78 37V29C78 27.8954 77.1046 27 76 27H66ZM50 41C50 39.8954 50.8954 39 52 39H62C63.1046 39 64 39.8954 64 41V49C64 50.1046 63.1046 51 62 51H52C50.8954 51 50 50.1046 50 49V41ZM66 51C64.8954 51 64 51.8954 64 53V61C64 62.1046 64.8954 63 66 63H76C77.1046 63 78 62.1046 78 61V53C78 51.8954 77.1046 51 76 51H66ZM64 77C64 75.8954 64.8954 75 66 75H76C77.1046 75 78 75.8954 78 77V95C78 96.1046 77.1046 97 76 97H66C64.8954 97 64 96.1046 64 95V77ZM52 63C50.8954 63 50 63.8954 50 65V73C50 74.1046 50.8954 75 52 75H62C63.1046 75 64 74.1046 64 73V65C64 63.8954 63.1046 63 62 63H52Z" fill="url(#paint1_linear_731_405)"/>
<g filter="url(#filter0_i_731_405)">
<rect x="67" y="77" width="8" height="8" rx="2" fill="#DBE4E8"/>
</g>
<path d="M86 9H86.576C88.2116 9 89.7762 9.6677 90.9079 10.8486L107.332 27.9867C108.402 29.1037 109 30.591 109 32.1381V33C108.361 31.6666 107.014 30.8182 105.535 30.8182H94.0909C90.7772 30.8182 88.0909 28.1319 88.0909 24.8182V12.4493C88.0909 10.9998 87.2851 9.67049 86 9Z" fill="black" fill-opacity="0.15"/>
<path d="M87 9H87.5147C89.106 9 90.6321 9.63214 91.7574 10.7574L107.243 26.2426C108.368 27.3679 109 28.894 109 30.4853V31C108.387 29.7743 107.134 29 105.764 29H95C91.6863 29 89 26.3137 89 23V12.2361C89 10.8657 88.2257 9.61287 87 9Z" fill="url(#paint2_linear_731_405)"/>
<path d="M87 9H87.5147C89.106 9 90.6321 9.63214 91.7574 10.7574L107.243 26.2426C108.368 27.3679 109 28.894 109 30.4853V31C108.387 29.7743 107.134 29 105.764 29H95C91.6863 29 89 26.3137 89 23V12.2361C89 10.8657 88.2257 9.61287 87 9Z" fill="url(#paint3_linear_731_405)" fill-opacity="0.2"/>
</g>
<defs>
<filter id="filter0_i_731_405" x="67" y="77" width="8" height="10" filterUnits="userSpaceOnUse" color-interpolation-filters="sRGB">
<feFlood flood-opacity="0" result="BackgroundImageFix"/>
<feBlend mode="normal" in="SourceGraphic" in2="BackgroundImageFix" result="shape"/>
<feColorMatrix in="SourceAlpha" type="matrix" values="0 0 0 0 0 0 0 0 0 0 0 0 0 0 0 0 0 0 127 0" result="hardAlpha"/>
<feOffset dy="2"/>
<feGaussianBlur stdDeviation="2"/>
<feComposite in2="hardAlpha" operator="arithmetic" k2="-1" k3="1"/>
<feColorMatrix type="matrix" values="0 0 0 0 1 0 0 0 0 1 0 0 0 0 1 0 0 0 0.25 0"/>
<feBlend mode="normal" in2="shape" result="effect1_innerShadow_731_405"/>
</filter>
<linearGradient id="paint0_linear_731_405" x1="64" y1="9" x2="64" y2="119" gradientUnits="userSpaceOnUse">
<stop stop-color="#EFF3F5"/>
<stop offset="1" stop-color="#D9E0E4"/>
</linearGradient>
<linearGradient id="paint1_linear_731_405" x1="64" y1="15" x2="64" y2="75" gradientUnits="userSpaceOnUse">
<stop stop-color="#B4B8BC"/>
<stop offset="1" stop-color="#505A62"/>
</linearGradient>
<linearGradient id="paint2_linear_731_405" x1="98" y1="9" x2="98" y2="31" gradientUnits="userSpaceOnUse">
<stop stop-color="#D9E0E4"/>
<stop offset="1" stop-color="#DBE4E8"/>
</linearGradient>
<linearGradient id="paint3_linear_731_405" x1="98" y1="9" x2="98" y2="31" gradientUnits="userSpaceOnUse">
<stop stop-color="#EEF3F5"/>
<stop offset="1" stop-color="#EBF0F2"/>
</linearGradient>
<clipPath id="clip0_731_405">
<rect width="128" height="128" fill="white"/>
</clipPath>
</defs>
</svg>
