<svg width="128" height="128" viewBox="0 0 128 128" fill="none" xmlns="http://www.w3.org/2000/svg">
<g clip-path="url(#clip0_731_1333)">
<path d="M64.619 12.6584C61.6496 13.7482 59.5434 15.4188 58.2697 16.775C57.6948 17.3872 58.2314 18.2201 59.0598 18.0819L68.5511 16.4986C68.9087 16.439 69.2706 16.5775 69.4969 16.8608L88.9551 41.216C89.3007 41.6485 89.9319 41.718 90.3633 41.3709L95.9775 36.8533C96.492 36.4393 96.4698 35.6515 95.9218 35.283C95.1075 34.7354 94.0698 34.072 93.1905 33.6022C93.0347 33.519 92.8879 33.442 92.7498 33.3709C92.0824 33.0271 91.921 31.8675 92.4887 31.3763C92.8172 31.0921 93.1389 30.771 93.3894 30.5061C93.6433 30.2377 93.7093 29.8445 93.5172 29.5288C93.0158 28.7052 91.9314 27.4112 90.0827 26.3174C89.0196 25.6885 88.1116 25.261 87.391 24.9791C86.8277 24.7587 86.6177 23.779 87.0752 23.3833C87.3741 23.1247 87.6674 22.7972 87.9065 22.5017C88.1985 22.1409 88.154 21.6268 87.8243 21.3C86.9911 20.4739 85.6697 19.2549 84.4687 18.4255C83.7184 17.9075 82.905 17.4662 82.1887 17.1236C81.5375 16.8121 81.4543 15.8018 81.9624 15.289C82.135 15.1149 82.3041 14.9008 82.4577 14.6823C82.8134 14.1766 82.5252 13.5111 81.9227 13.3724C80.655 13.0805 78.7995 12.7596 77.0501 12.7596C75.7598 12.7596 74.6617 12.973 73.8332 13.2281C73.2432 13.4098 72.5388 12.871 72.5388 12.2537C72.5388 12.0702 72.5114 11.8521 72.4751 11.6464C72.409 11.2712 72.0995 10.9971 71.7185 11.0002C70.5566 11.0098 68.1902 11.3478 64.619 12.6584Z" fill="black" fill-opacity="0.15"/>
<path d="M64.619 10.6584C61.6496 11.7482 59.5434 13.4188 58.2697 14.775C57.6948 15.3872 58.2314 16.2201 59.0598 16.0819L68.5511 14.4986C68.9087 14.439 69.2706 14.5775 69.4969 14.8608L88.9551 39.216C89.3007 39.6485 89.9319 39.718 90.3633 39.3709L95.9775 34.8533C96.492 34.4393 96.4698 33.6515 95.9218 33.283C95.1075 32.7354 94.0698 32.072 93.1905 31.6022C93.0347 31.519 92.8879 31.442 92.7498 31.3709C92.0824 31.0271 91.921 29.8675 92.4887 29.3763C92.8172 29.0921 93.1389 28.771 93.3894 28.5061C93.6433 28.2377 93.7093 27.8445 93.5172 27.5288C93.0158 26.7052 91.9314 25.4112 90.0827 24.3174C89.0196 23.6885 88.1116 23.261 87.391 22.9791C86.8277 22.7587 86.6177 21.779 87.0752 21.3833C87.3741 21.1247 87.6674 20.7972 87.9065 20.5017C88.1985 20.1409 88.154 19.6268 87.8243 19.3C86.9911 18.4739 85.6697 17.2549 84.4687 16.4255C83.7184 15.9075 82.905 15.4662 82.1887 15.1236C81.5375 14.8121 81.4543 13.8018 81.9624 13.289C82.135 13.1149 82.3041 12.9008 82.4577 12.6823C82.8134 12.1766 82.5252 11.5111 81.9227 11.3724C80.655 11.0805 78.7995 10.7596 77.0501 10.7596C75.7598 10.7596 74.6617 10.973 73.8332 11.2281C73.2432 11.4098 72.5388 10.871 72.5388 10.2537C72.5388 10.0702 72.5114 9.85209 72.4751 9.64644C72.409 9.27119 72.0995 8.99706 71.7185 9.00021C70.5566 9.00982 68.1902 9.3478 64.619 10.6584Z" fill="url(#paint0_linear_731_1333)"/>
<path d="M28.5238 57.9786C17.5891 63.1048 14 70.9102 14 71.9081C14 72.7791 20.5596 67.2084 22.2281 65.7772C22.4803 65.561 22.7804 65.4104 23.1047 65.3386L73.4326 54.1874C74.3483 53.9846 75 53.1727 75 52.2348V36.098C75 35.818 74.9302 35.5423 74.797 35.296C73.9231 33.6804 70.3613 34.4289 69.7739 36.1692C68.6907 39.3788 66.6878 42.7356 63.1735 45.1595C54.9779 50.812 39.9354 52.6289 28.5238 57.9786Z" fill="url(#paint1_linear_731_1333)"/>
<path d="M65.0708 48.9913C67.708 47.1178 69.5315 45.2973 70.8048 43.5799C72.1136 41.8147 75.438 41.9489 75.6385 44.1371C75.8553 46.504 76 49.1183 76 51.8468C76 58.6081 73.4745 63.8752 71.563 66.6032C70.9912 67.4192 69.8521 67.5619 68.9108 67.235C66.9534 66.5553 63.381 65.8182 57.9209 65.8182C51.5949 65.8182 47.2366 68.3623 45.1288 70.2738C44.4871 70.8557 43.5818 71.1227 42.7561 70.8607C39.1789 69.7258 32.9278 68.2365 28.5041 68.8777C23.4379 69.6119 14 74.8716 14 73.8748C14 72.8779 16.0837 69.2856 25.2356 63.5746C36.6755 56.4359 59.7595 52.7646 65.0708 48.9913Z" fill="black" fill-opacity="0.15"/>
<path d="M65.0708 46.9913C67.708 45.1178 69.5315 43.2973 70.8048 41.5799C72.1136 39.8147 75.438 39.9489 75.6385 42.1371C75.8553 44.504 76 47.1183 76 49.8468C76 56.6081 73.4745 61.8752 71.563 64.6032C70.9912 65.4192 69.8521 65.5619 68.9108 65.235C66.9534 64.5553 63.381 63.8182 57.9209 63.8182C51.5949 63.8182 47.2366 66.3623 45.1288 68.2738C44.4871 68.8557 43.5818 69.1227 42.7561 68.8607C39.1789 67.7258 32.9278 66.2365 28.5041 66.8777C23.4379 67.6119 14 72.8716 14 71.8748C14 70.8779 16.0837 67.2856 25.2356 61.5746C36.6755 54.4359 59.7595 50.7646 65.0708 46.9913Z" fill="url(#paint2_linear_731_1333)"/>
<g filter="url(#filter0_di_731_1333)">
<path d="M95.3724 33.7191C91.2378 38.059 89.5983 39.5435 87 41.123V61.0641C88.2831 60.8667 91.4075 60.6692 93.6402 61.459C95.8728 62.2487 97.7782 64.8154 98.4519 66L110 35.7922C108.396 30.0336 106 19 105 19C104 19 99.5105 29.3754 95.3724 33.7191Z" fill="url(#paint3_linear_731_1333)"/>
</g>
<path d="M93 52.518C93 35.4759 77.5705 16.7179 65.6245 14.2687C64.3544 14.0083 63.3948 15.2147 63.7022 16.4742L65.3525 23.2354C65.4036 23.4448 65.4862 23.6412 65.6008 23.8239C68.3701 28.2388 73.9655 37.663 74.0454 47.1192C74.127 56.7747 70.56 65.6475 65.4297 74.3206C55.7044 90.7617 37.389 97.4079 27.9346 98.4369C26.8582 98.5541 26 99.4364 26 100.519V119C26 120.105 26.895 121.003 27.9994 120.989C38.4801 120.852 52.708 119.193 70.5991 101.522C81.9516 90.3092 93 70.7907 93 52.518Z" fill="black" fill-opacity="0.15"/>
<path d="M93 50.518C93 33.4759 77.5705 14.7179 65.6245 12.2687C64.3544 12.0083 63.3948 13.2147 63.7022 14.4742L65.3525 21.2354C65.4036 21.4448 65.4862 21.6412 65.6008 21.8239C68.3701 26.2388 73.9655 35.663 74.0454 45.1192C74.127 54.7747 70.56 63.6475 65.4297 72.3206C55.7044 88.7617 37.389 95.4079 27.9346 96.4369C26.8582 96.5541 26 97.4364 26 98.5192V117C26 118.105 26.895 119.003 27.9994 118.989C38.4801 118.852 52.708 117.193 70.5991 99.522C81.9516 88.3092 93 68.7907 93 50.518Z" fill="url(#paint4_linear_731_1333)"/>
<path d="M52.8719 22.3448C56.018 19.9504 56.3685 14 63.2587 14C70.1489 14 72 19.6355 72 22.3448C72 25.0542 69.429 28.3054 63.2587 30.2562C57.0884 32.2069 53.3861 30.4729 49.2726 31.665C45.9817 32.6187 45 36 44 36C43 36 42.1972 31.9901 43.5136 28.9557C45.2618 25.3793 49.1697 25.1626 52.8719 22.3448Z" fill="black" fill-opacity="0.15"/>
<path d="M52.8719 20.3448C56.018 17.9504 56.3685 12 63.2587 12C70.1489 12 72 17.6355 72 20.3448C72 23.0542 69.429 26.3054 63.2587 28.2562C57.0884 30.2069 53.3861 28.4729 49.2726 29.665C45.9817 30.6187 45 34 44 34C43 34 42.1972 29.9901 43.5136 26.9557C45.2618 23.3793 49.1697 23.1626 52.8719 20.3448Z" fill="url(#paint5_linear_731_1333)"/>
<path d="M100.292 56.9674C108.744 41.3882 103.946 21 104.93 21C105.914 21 114 25.396 114 51.872C114 76.2248 102.709 87.4897 96.8277 90.226C96.6635 90.3024 96.4875 90.3251 96.3079 90.3014C89.4179 89.3912 80.9939 87.6396 71.432 87.6396C68.5354 87.6396 65.9657 88.8977 64.5792 89.8355C64.1772 90.1074 63.6398 90.11 63.2464 89.8256C60.0329 87.5028 52.4 83.98 42.6754 85.2418C32.2035 86.6005 20 96.9312 20 95.9321C20 94.933 21.4018 89.7976 27.8333 85.2418C35.8728 79.5469 43.8092 77.3489 65.4539 76.4497C87.0987 75.5505 92.9737 70.4552 100.292 56.9674Z" fill="black" fill-opacity="0.15"/>
<path d="M100.292 54.9674C108.744 39.3882 103.946 19 104.93 19C105.914 19 114 23.396 114 49.872C114 74.2248 102.709 85.4897 96.8277 88.226C96.6635 88.3024 96.4875 88.3251 96.3079 88.3014C89.4179 87.3912 80.9939 85.6396 71.432 85.6396C68.5354 85.6396 65.9657 86.8977 64.5792 87.8355C64.1772 88.1074 63.6398 88.11 63.2464 87.8256C60.0329 85.5028 52.4 81.98 42.6754 83.2418C32.2035 84.6005 20 94.9312 20 93.9321C20 92.933 21.4018 87.7976 27.8333 83.2418C35.8728 77.5469 43.8092 75.3489 65.4539 74.4497C87.0987 73.5505 92.9737 68.4552 100.292 54.9674Z" fill="url(#paint6_linear_731_1333)"/>
<rect x="26" y="99" width="86" height="22" rx="2" fill="black" fill-opacity="0.15"/>
<rect x="26" y="97" width="86" height="22" rx="2" fill="url(#paint7_linear_731_1333)"/>
<path fill-rule="evenodd" clip-rule="evenodd" d="M26 104C26 103.448 26.4477 103 27 103H38.3239C38.8762 103 39.3239 103.448 39.3239 104V112C39.3239 112.552 38.8762 113 38.3239 113H27C26.4477 113 26 112.552 26 112V104ZM98.6761 104C98.6761 103.448 99.1238 103 99.6761 103H111C111.552 103 112 103.448 112 104V112C112 112.552 111.552 113 111 113H99.6761C99.1238 113 98.6761 112.552 98.6761 112V104ZM58.3005 104C58.3005 103.448 57.8528 103 57.3005 103H43.1503C42.598 103 42.1503 103.448 42.1503 104V112C42.1503 112.552 42.598 113 43.1503 113H57.3005C57.8528 113 58.3005 112.552 58.3005 112V104ZM60.925 104C60.925 103.448 61.3727 103 61.925 103H76.0752C76.6275 103 77.0752 103.448 77.0752 104V112C77.0752 112.552 76.6275 113 76.0752 113H61.925C61.3727 113 60.925 112.552 60.925 112V104ZM96.0516 104C96.0516 103.448 95.6039 103 95.0516 103H80.9014C80.3491 103 79.9014 103.448 79.9014 104V112C79.9014 112.552 80.3491 113 80.9014 113H95.0516C95.6039 113 96.0516 112.552 96.0516 112V104Z" fill="url(#paint8_linear_731_1333)"/>
</g>
<defs>
<filter id="filter0_di_731_1333" x="79" y="15" width="39" height="63" filterUnits="userSpaceOnUse" color-interpolation-filters="sRGB">
<feFlood flood-opacity="0" result="BackgroundImageFix"/>
<feColorMatrix in="SourceAlpha" type="matrix" values="0 0 0 0 0 0 0 0 0 0 0 0 0 0 0 0 0 0 127 0" result="hardAlpha"/>
<feOffset dy="4"/>
<feGaussianBlur stdDeviation="4"/>
<feComposite in2="hardAlpha" operator="out"/>
<feColorMatrix type="matrix" values="0 0 0 0 0 0 0 0 0 0 0 0 0 0 0 0 0 0 0.25 0"/>
<feBlend mode="normal" in2="BackgroundImageFix" result="effect1_dropShadow_731_1333"/>
<feBlend mode="normal" in="SourceGraphic" in2="effect1_dropShadow_731_1333" result="shape"/>
<feColorMatrix in="SourceAlpha" type="matrix" values="0 0 0 0 0 0 0 0 0 0 0 0 0 0 0 0 0 0 127 0" result="hardAlpha"/>
<feOffset dy="-4"/>
<feGaussianBlur stdDeviation="4"/>
<feComposite in2="hardAlpha" operator="arithmetic" k2="-1" k3="1"/>
<feColorMatrix type="matrix" values="0 0 0 0 0 0 0 0 0 0 0 0 0 0 0 0 0 0 0.25 0"/>
<feBlend mode="normal" in2="shape" result="effect2_innerShadow_731_1333"/>
</filter>
<linearGradient id="paint0_linear_731_1333" x1="74.6471" y1="10.4806" x2="76.5074" y2="38.5666" gradientUnits="userSpaceOnUse">
<stop stop-color="#5EBBFF"/>
<stop offset="0.506666" stop-color="#3397F5"/>
<stop offset="1" stop-color="#126CD7"/>
</linearGradient>
<linearGradient id="paint1_linear_731_1333" x1="40.9118" y1="30.0971" x2="43.3605" y2="69.9018" gradientUnits="userSpaceOnUse">
<stop stop-color="#5EBBFF"/>
<stop offset="0.506666" stop-color="#3397F5"/>
<stop offset="1" stop-color="#126CD7"/>
</linearGradient>
<linearGradient id="paint2_linear_731_1333" x1="36.6825" y1="36.1095" x2="46.0023" y2="66.9659" gradientUnits="userSpaceOnUse">
<stop stop-color="#677B8D"/>
<stop offset="1" stop-color="#39464D"/>
</linearGradient>
<linearGradient id="paint3_linear_731_1333" x1="95.4145" y1="23.8438" x2="115.242" y2="44.5042" gradientUnits="userSpaceOnUse">
<stop stop-color="#677B8D"/>
<stop offset="1" stop-color="#39464D"/>
</linearGradient>
<linearGradient id="paint4_linear_731_1333" x1="50.3007" y1="22.9928" x2="93.4351" y2="80.9729" gradientUnits="userSpaceOnUse">
<stop stop-color="#677B8D"/>
<stop offset="1" stop-color="#39464D"/>
</linearGradient>
<linearGradient id="paint5_linear_731_1333" x1="53.5182" y1="14.2615" x2="59.3423" y2="30.7321" gradientUnits="userSpaceOnUse">
<stop stop-color="#677B8D"/>
<stop offset="1" stop-color="#39464D"/>
</linearGradient>
<linearGradient id="paint6_linear_731_1333" x1="61.4694" y1="22.5788" x2="66.0933" y2="90.4502" gradientUnits="userSpaceOnUse">
<stop stop-color="#5EBBFF"/>
<stop offset="0.506666" stop-color="#3397F5"/>
<stop offset="1" stop-color="#126CD7"/>
</linearGradient>
<linearGradient id="paint7_linear_731_1333" x1="57.192" y1="99.2602" x2="59.368" y2="117.52" gradientUnits="userSpaceOnUse">
<stop stop-color="#677B8D"/>
<stop offset="1" stop-color="#39464D"/>
</linearGradient>
<linearGradient id="paint8_linear_731_1333" x1="26.5207" y1="109.869" x2="111.379" y2="104.532" gradientUnits="userSpaceOnUse">
<stop stop-color="#3397F5"/>
<stop offset="0.515" stop-color="#5EBBFF"/>
<stop offset="1" stop-color="#126CD7"/>
</linearGradient>
<clipPath id="clip0_731_1333">
<rect width="128" height="128" fill="white"/>
</clipPath>
</defs>
</svg>
