<svg width="128" height="128" viewBox="0 0 128 128" fill="none" xmlns="http://www.w3.org/2000/svg">
<path d="M19 55.5V26.5114C19 24.0818 20.47 21.9142 22.7965 21.2138C29.0899 19.3192 43.0981 16 64 16C84.9019 16 98.9101 19.3192 105.204 21.2138C107.53 21.9142 109 24.0792 109 26.5087V55.5C109 90.5 75.25 116 64 116C52.75 116 19 90 19 55.5Z" fill="black" fill-opacity="0.15"/>
<path d="M19 53.5V24.5114C19 22.0818 20.47 19.9142 22.7965 19.2138C29.0899 17.3192 43.0981 14 64 14C84.9019 14 98.9101 17.3192 105.204 19.2138C107.53 19.9142 109 22.0792 109 24.5087V53.5C109 88.5 75.25 114 64 114C52.75 114 19 88 19 53.5Z" fill="url(#paint0_linear_731_1356)"/>
<path d="M22 53.5V24.5114C22 23.2799 22.7187 22.3702 23.6613 22.0865C29.7025 20.2678 43.4192 17 64 17C84.5808 17 98.2975 20.2678 104.339 22.0865C105.283 22.3707 106 23.279 106 24.5087V53.5C106 70.0208 98.0231 84.456 88.5062 94.849C83.76 100.032 78.6974 104.133 74.1985 106.918C69.5652 109.786 65.9442 111 64 111C62.0701 111 58.4568 109.767 53.8166 106.857C49.3154 104.034 44.2495 99.8852 39.4996 94.6679C29.9709 84.2015 22 69.7643 22 53.5Z" stroke="url(#paint1_linear_731_1356)" stroke-width="6"/>
<path d="M68.129 39.2882V56.7954C68.129 57.3477 68.5767 57.7954 69.129 57.7954H78.1319C78.9305 57.7954 79.4069 58.6854 78.964 59.3499L61.7031 85.2508C61.1544 86.0742 59.871 85.6857 59.871 84.6962V67.033C59.871 66.4807 59.4233 66.033 58.871 66.033H49.8741C49.0742 66.033 48.5981 65.1406 49.0434 64.4763L66.2984 38.7314C66.8485 37.9106 68.129 38.3 68.129 39.2882Z" fill="black" fill-opacity="0.15"/>
<path d="M68.129 37.2882V54.7954C68.129 55.3477 68.5767 55.7954 69.129 55.7954H78.1319C78.9305 55.7954 79.4069 56.6854 78.964 57.3499L61.7031 83.2508C61.1544 84.0742 59.871 83.6857 59.871 82.6962V65.033C59.871 64.4807 59.4233 64.033 58.871 64.033H49.8741C49.0742 64.033 48.5981 63.1406 49.0434 62.4763L66.2984 36.7314C66.8485 35.9106 68.129 36.3 68.129 37.2882Z" fill="url(#paint2_linear_731_1356)"/>
<defs>
<linearGradient id="paint0_linear_731_1356" x1="58.7059" y1="18.3689" x2="65.8823" y2="100.984" gradientUnits="userSpaceOnUse">
<stop stop-color="#3FD383"/>
<stop offset="1" stop-color="#15B279"/>
</linearGradient>
<linearGradient id="paint1_linear_731_1356" x1="64" y1="14" x2="64" y2="114" gradientUnits="userSpaceOnUse">
<stop stop-color="#677B8D"/>
<stop offset="1" stop-color="#39464D"/>
</linearGradient>
<linearGradient id="paint2_linear_731_1356" x1="64.4848" y1="34" x2="64.4848" y2="73.6842" gradientUnits="userSpaceOnUse">
<stop stop-color="white"/>
<stop offset="1" stop-color="#DBE4E8"/>
</linearGradient>
</defs>
</svg>
