<svg width="128" height="128" viewBox="0 0 128 128" fill="none" xmlns="http://www.w3.org/2000/svg">
<g clip-path="url(#clip0_3023_3280)">
<path d="M114 106V26C114 20.4772 109.523 16 104 16H24C18.4772 16 14 20.4772 14 26V106C14 111.523 18.4772 116 24 116H104C109.523 116 114 111.523 114 106Z" fill="black" fill-opacity="0.15"/>
<path d="M114 104V24C114 18.4772 109.523 14 104 14H24C18.4772 14 14 18.4772 14 24V104C14 109.523 18.4772 114 24 114H104C109.523 114 114 109.523 114 104Z" fill="url(#paint0_linear_3023_3280)"/>
<circle cx="64" cy="66" r="40" fill="black" fill-opacity="0.15"/>
<circle cx="64" cy="64" r="40" fill="url(#paint1_linear_3023_3280)"/>
<circle cx="64" cy="64" r="30" fill="url(#paint2_linear_3023_3280)"/>
<circle cx="64" cy="64" r="15" fill="url(#paint3_linear_3023_3280)"/>
<circle cx="50" cy="50" r="6" fill="url(#paint4_linear_3023_3280)"/>
</g>
<defs>
<linearGradient id="paint0_linear_3023_3280" x1="50.2697" y1="24.2797" x2="82.5221" y2="93.4738" gradientUnits="userSpaceOnUse">
<stop stop-color="#677B8D"/>
<stop offset="1" stop-color="#39464D"/>
</linearGradient>
<linearGradient id="paint1_linear_3023_3280" x1="64" y1="24" x2="64" y2="104" gradientUnits="userSpaceOnUse">
<stop stop-color="#DBE4E8"/>
<stop offset="1" stop-color="#C1DEF6"/>
</linearGradient>
<linearGradient id="paint2_linear_3023_3280" x1="60.4706" y1="36.6213" x2="64.3514" y2="86.2608" gradientUnits="userSpaceOnUse">
<stop stop-color="#42B0FF"/>
<stop offset="1" stop-color="#39C190"/>
</linearGradient>
<linearGradient id="paint3_linear_3023_3280" x1="59.8809" y1="52.0839" x2="69.5566" y2="72.8421" gradientUnits="userSpaceOnUse">
<stop stop-color="#677B8D"/>
<stop offset="1" stop-color="#39464D"/>
</linearGradient>
<linearGradient id="paint4_linear_3023_3280" x1="50" y1="44" x2="50" y2="56" gradientUnits="userSpaceOnUse">
<stop stop-color="#E3EEF8"/>
<stop offset="1" stop-color="#C1DEF6"/>
</linearGradient>
<clipPath id="clip0_3023_3280">
<rect width="128" height="128" fill="white"/>
</clipPath>
</defs>
</svg>
