<svg width="128" height="128" viewBox="0 0 128 128" fill="none" xmlns="http://www.w3.org/2000/svg">
<g clip-path="url(#clip0_731_584)">
<path d="M99 111V21C99 15.4772 94.5229 11 89 11H39C33.4772 11 29 15.4771 29 21V111C29 116.523 33.4772 121 39 121H89C94.5229 121 99 116.523 99 111Z" fill="black" fill-opacity="0.15"/>
<path d="M99 109V19C99 13.4772 94.5229 9 89 9H39C33.4772 9 29 13.4771 29 19V109C29 114.523 33.4772 119 39 119H89C94.5229 119 99 114.523 99 109Z" fill="url(#paint0_linear_731_584)"/>
<rect x="34" y="19" width="60" height="90" rx="6" fill="url(#paint1_linear_731_584)"/>
<path fill-rule="evenodd" clip-rule="evenodd" d="M60 55.3333C61.4728 55.3333 62.6667 54.1394 62.6667 52.6667C62.6667 51.1939 61.4728 50 60 50C58.5272 50 57.3333 51.1939 57.3333 52.6667C57.3333 54.1394 58.5272 55.3333 60 55.3333ZM71.75 51.3333L80 59.3333L71.75 67.3333L68 63.697L72.5 59.3333L68 54.9697L71.75 51.3333ZM56 63.3333C56 65.5425 54.2091 67.3333 52 67.3333C49.7909 67.3333 48 65.5425 48 63.3333C48 61.1242 49.7909 59.3333 52 59.3333C54.2091 59.3333 56 61.1242 56 63.3333ZM60 82C62.9455 82 65.3333 79.6122 65.3333 76.6667C65.3333 73.7211 62.9455 71.3333 60 71.3333C57.0545 71.3333 54.6667 73.7211 54.6667 76.6667C54.6667 79.6122 57.0545 82 60 82Z" fill="black" fill-opacity="0.15"/>
<path fill-rule="evenodd" clip-rule="evenodd" d="M60 53.3333C61.4728 53.3333 62.6667 52.1394 62.6667 50.6667C62.6667 49.1939 61.4728 48 60 48C58.5272 48 57.3333 49.1939 57.3333 50.6667C57.3333 52.1394 58.5272 53.3333 60 53.3333ZM71.75 49.3333L80 57.3333L71.75 65.3333L68 61.697L72.5 57.3333L68 52.9697L71.75 49.3333ZM56 61.3333C56 63.5425 54.2091 65.3333 52 65.3333C49.7909 65.3333 48 63.5425 48 61.3333C48 59.1242 49.7909 57.3333 52 57.3333C54.2091 57.3333 56 59.1242 56 61.3333ZM60 80C62.9455 80 65.3333 77.6122 65.3333 74.6667C65.3333 71.7211 62.9455 69.3333 60 69.3333C57.0545 69.3333 54.6667 71.7211 54.6667 74.6667C54.6667 77.6122 57.0545 80 60 80Z" fill="url(#paint2_linear_731_584)"/>
</g>
<defs>
<linearGradient id="paint0_linear_731_584" x1="52.2696" y1="23" x2="107.964" y2="94.0551" gradientUnits="userSpaceOnUse">
<stop stop-color="#505A62"/>
<stop offset="1" stop-color="#1F1F1F"/>
</linearGradient>
<linearGradient id="paint1_linear_731_584" x1="60.4706" y1="23.2985" x2="70.8002" y2="103.872" gradientUnits="userSpaceOnUse">
<stop stop-color="#42B0FF"/>
<stop offset="0.506666" stop-color="#3397F5"/>
<stop offset="1" stop-color="#126CD7"/>
</linearGradient>
<linearGradient id="paint2_linear_731_584" x1="64" y1="48" x2="64" y2="80" gradientUnits="userSpaceOnUse">
<stop stop-color="#E3EEF8"/>
<stop offset="1" stop-color="#C1DEF6"/>
</linearGradient>
<clipPath id="clip0_731_584">
<rect width="128" height="128" fill="white"/>
</clipPath>
</defs>
</svg>
