<svg width="128" height="128" viewBox="0 0 128 128" fill="none" xmlns="http://www.w3.org/2000/svg">
<g clip-path="url(#clip0_731_814)">
<ellipse cx="63.9445" cy="66.4414" rx="44.961" ry="44.6897" fill="black" fill-opacity="0.15"/>
<g filter="url(#filter0_i_731_814)">
<path d="M60.3897 12.1922L54.9808 25.8563C54.4788 27.1244 54.6925 28.5827 55.9125 29.1923C57.4579 29.9644 60.0513 30.6897 64.0748 30.6897C68.1223 30.6897 70.7947 29.9558 72.3905 29.1785C73.6247 28.5774 73.8465 27.1194 73.3332 25.8462L67.8187 12.1687C66.4679 8.81829 61.7193 8.83329 60.3897 12.1922Z" fill="black" fill-opacity="0.15"/>
</g>
<g filter="url(#filter1_i_731_814)">
<path d="M60.3897 120.691L54.9808 107.026C54.4788 105.758 54.6925 104.3 55.9125 103.69C57.4579 102.918 60.0513 102.193 64.0748 102.193C68.1223 102.193 70.7947 102.927 72.3905 103.704C73.6247 104.305 73.8465 105.763 73.3332 107.037L67.8187 120.714C66.4679 124.064 61.7193 124.049 60.3897 120.691Z" fill="black" fill-opacity="0.15"/>
</g>
<g filter="url(#filter2_i_731_814)">
<path d="M99.9884 25.5983L86.4622 31.4504C85.2144 31.9903 84.3347 33.1622 84.7607 34.4469C85.302 36.0795 86.6195 38.4189 89.4705 41.2527C92.3385 44.1034 94.7544 45.4625 96.4362 46.0324C97.7328 46.4717 98.917 45.6031 99.4558 44.3513L105.278 30.8234C106.707 27.5047 103.318 24.1577 99.9884 25.5983Z" fill="black" fill-opacity="0.15"/>
</g>
<g filter="url(#filter3_i_731_814)">
<path d="M22.8535 102.268L28.7411 88.8232C29.2842 87.5829 30.4633 86.7085 31.7558 87.1319C33.3983 87.67 35.7519 88.9795 38.6029 91.8133C41.471 94.664 42.8383 97.0653 43.4116 98.737C43.8536 100.026 42.9797 101.203 41.7203 101.738L28.1103 107.526C24.7714 108.946 21.4041 105.577 22.8535 102.268Z" fill="black" fill-opacity="0.15"/>
</g>
<g filter="url(#filter4_i_731_814)">
<path d="M118.451 62.8799L104.743 57.519C103.486 57.0274 102.042 57.2354 101.43 58.4383C100.649 59.9721 99.9133 62.5547 99.9133 66.571C99.9133 70.611 100.658 73.2727 101.443 74.8565C102.047 76.0737 103.491 76.2894 104.753 75.7866L118.474 70.3212C121.845 68.9784 121.83 64.2015 118.451 62.8799Z" fill="black" fill-opacity="0.15"/>
</g>
<g filter="url(#filter5_i_731_814)">
<path d="M9.43812 62.8798L23.1459 57.5189C24.4029 57.0273 25.8471 57.2353 26.4593 58.4383C27.2399 59.972 27.9757 62.5547 27.9757 66.5709C27.9757 70.611 27.2312 73.2726 26.4455 74.8565C25.8417 76.0736 24.398 76.2894 23.1358 75.7866L9.41481 70.3211C6.04374 68.9783 6.05871 64.2015 9.43812 62.8798Z" fill="black" fill-opacity="0.15"/>
</g>
<g filter="url(#filter6_i_731_814)">
<path d="M22.8535 30.6151L28.7411 44.0596C29.2842 45.2999 30.4633 46.1743 31.7558 45.7509C33.3983 45.2128 35.7519 43.9033 38.6029 41.0695C41.471 38.2187 42.8383 35.8175 43.4116 34.1458C43.8536 32.857 42.9797 31.68 41.7203 31.1444L28.1103 25.357C24.7714 23.9373 21.4041 27.3054 22.8535 30.6151Z" fill="black" fill-opacity="0.15"/>
</g>
<ellipse cx="63.9445" cy="64.4414" rx="44.961" ry="44.6897" fill="url(#paint0_linear_731_814)"/>
<path d="M60.3897 10.1922L54.9808 23.8563C54.4788 25.1244 54.6925 26.5827 55.9125 27.1923C57.4579 27.9644 60.0513 28.6897 64.0748 28.6897C68.1223 28.6897 70.7947 27.9558 72.3905 27.1785C73.6247 26.5774 73.8465 25.1194 73.3332 23.8462L67.8187 10.1687C66.4679 6.81829 61.7193 6.83329 60.3897 10.1922Z" fill="url(#paint1_linear_731_814)"/>
<path d="M60.3897 118.691L54.9808 105.026C54.4788 103.758 54.6925 102.3 55.9125 101.69C57.4579 100.918 60.0513 100.193 64.0748 100.193C68.1223 100.193 70.7947 100.927 72.3905 101.704C73.6247 102.305 73.8465 103.763 73.3332 105.037L67.8187 118.714C66.4679 122.064 61.7193 122.049 60.3897 118.691Z" fill="url(#paint2_linear_731_814)"/>
<path d="M99.9884 23.5983L86.4622 29.4504C85.2144 29.9903 84.3347 31.1622 84.7607 32.4469C85.302 34.0795 86.6195 36.4189 89.4705 39.2527C92.3385 42.1034 94.7544 43.4625 96.4362 44.0324C97.7328 44.4717 98.917 43.6031 99.4558 42.3513L105.278 28.8234C106.707 25.5047 103.318 22.1577 99.9884 23.5983Z" fill="url(#paint3_linear_731_814)"/>
<path d="M22.8535 100.268L28.7411 86.8232C29.2842 85.5829 30.4633 84.7085 31.7558 85.1319C33.3983 85.67 35.7519 86.9795 38.6029 89.8133C41.471 92.664 42.8383 95.0653 43.4116 96.737C43.8536 98.0258 42.9797 99.2028 41.7203 99.7384L28.1103 105.526C24.7714 106.946 21.4041 103.577 22.8535 100.268Z" fill="url(#paint4_linear_731_814)"/>
<path d="M118.451 60.8799L104.743 55.519C103.486 55.0274 102.042 55.2354 101.43 56.4383C100.649 57.9721 99.9133 60.5547 99.9133 64.571C99.9133 68.611 100.658 71.2727 101.443 72.8565C102.047 74.0737 103.491 74.2894 104.753 73.7866L118.474 68.3212C121.845 66.9784 121.83 62.2015 118.451 60.8799Z" fill="url(#paint5_linear_731_814)"/>
<path d="M9.43812 60.8798L23.1459 55.5189C24.4029 55.0273 25.8471 55.2353 26.4593 56.4383C27.2399 57.972 27.9757 60.5547 27.9757 64.5709C27.9757 68.611 27.2312 71.2726 26.4455 72.8565C25.8417 74.0736 24.398 74.2894 23.1358 73.7866L9.41481 68.3211C6.04374 66.9783 6.05871 62.2015 9.43812 60.8798Z" fill="url(#paint6_linear_731_814)"/>
<path d="M22.8535 28.6151L28.7411 42.0596C29.2842 43.2999 30.4633 44.1743 31.7558 43.7509C33.3983 43.2128 35.7519 41.9033 38.6029 39.0695C41.471 36.2187 42.8383 33.8175 43.4116 32.1458C43.8536 30.857 42.9797 29.68 41.7203 29.1444L28.1103 23.357C24.7714 21.9373 21.4041 25.3054 22.8535 28.6151Z" fill="url(#paint7_linear_731_814)"/>
<path d="M99.9884 105.284L86.4622 99.4324C85.2144 98.8925 84.3347 97.7206 84.7607 96.4359C85.302 94.8032 86.6195 92.4638 89.4705 89.63C92.3385 86.7793 94.7544 85.4202 96.4362 84.8504C97.7328 84.411 98.917 85.2796 99.4558 86.5315L105.278 100.059C106.707 103.378 103.318 106.725 99.9884 105.284Z" fill="url(#paint8_linear_731_814)"/>
<rect x="52" y="48" width="4" height="40" rx="2" fill="black" fill-opacity="0.15"/>
<path d="M79.5453 55.7359L59.114 46.939C57.7696 46.3601 56.3142 46.7281 56.1516 48.1828C55.9207 50.2494 56.0222 53.7942 56.0222 59.3761C56.0222 65.0025 55.9191 68.6623 56.1572 70.7948C56.3207 72.259 57.775 72.6308 59.1243 72.0391L79.5699 63.073C82.773 61.6684 82.7577 57.119 79.5453 55.7359Z" fill="black" fill-opacity="0.15"/>
<rect x="52" y="46" width="4" height="40" rx="2" fill="url(#paint9_linear_731_814)"/>
<path d="M79.5453 53.7359L59.114 44.939C57.7696 44.3601 56.3142 44.7281 56.1516 46.1828C55.9207 48.2494 56.0222 51.7942 56.0222 57.3761C56.0222 63.0025 55.9191 66.6623 56.1572 68.7948C56.3207 70.259 57.775 70.6308 59.1243 70.0391L79.5699 61.073C82.773 59.6684 82.7577 55.119 79.5453 53.7359Z" fill="url(#paint10_linear_731_814)"/>
</g>
<defs>
<filter id="filter0_i_731_814" x="54.7281" y="5.66443" width="18.8632" height="25.0252" filterUnits="userSpaceOnUse" color-interpolation-filters="sRGB">
<feFlood flood-opacity="0" result="BackgroundImageFix"/>
<feBlend mode="normal" in="SourceGraphic" in2="BackgroundImageFix" result="shape"/>
<feColorMatrix in="SourceAlpha" type="matrix" values="0 0 0 0 0 0 0 0 0 0 0 0 0 0 0 0 0 0 127 0" result="hardAlpha"/>
<feOffset dy="-4"/>
<feGaussianBlur stdDeviation="4"/>
<feComposite in2="hardAlpha" operator="arithmetic" k2="-1" k3="1"/>
<feColorMatrix type="matrix" values="0 0 0 0 0 0 0 0 0 0 0 0 0 0 0 0 0 0 0.25 0"/>
<feBlend mode="normal" in2="shape" result="effect1_innerShadow_731_814"/>
</filter>
<filter id="filter1_i_731_814" x="54.7281" y="98.1931" width="18.8632" height="25.0252" filterUnits="userSpaceOnUse" color-interpolation-filters="sRGB">
<feFlood flood-opacity="0" result="BackgroundImageFix"/>
<feBlend mode="normal" in="SourceGraphic" in2="BackgroundImageFix" result="shape"/>
<feColorMatrix in="SourceAlpha" type="matrix" values="0 0 0 0 0 0 0 0 0 0 0 0 0 0 0 0 0 0 127 0" result="hardAlpha"/>
<feOffset dy="-4"/>
<feGaussianBlur stdDeviation="4"/>
<feComposite in2="hardAlpha" operator="arithmetic" k2="-1" k3="1"/>
<feColorMatrix type="matrix" values="0 0 0 0 0 0 0 0 0 0 0 0 0 0 0 0 0 0 0.25 0"/>
<feBlend mode="normal" in2="shape" result="effect1_innerShadow_731_814"/>
</filter>
<filter id="filter2_i_731_814" x="84.652" y="21.2546" width="20.962" height="24.8933" filterUnits="userSpaceOnUse" color-interpolation-filters="sRGB">
<feFlood flood-opacity="0" result="BackgroundImageFix"/>
<feBlend mode="normal" in="SourceGraphic" in2="BackgroundImageFix" result="shape"/>
<feColorMatrix in="SourceAlpha" type="matrix" values="0 0 0 0 0 0 0 0 0 0 0 0 0 0 0 0 0 0 127 0" result="hardAlpha"/>
<feOffset dy="-4"/>
<feGaussianBlur stdDeviation="4"/>
<feComposite in2="hardAlpha" operator="arithmetic" k2="-1" k3="1"/>
<feColorMatrix type="matrix" values="0 0 0 0 0 0 0 0 0 0 0 0 0 0 0 0 0 0 0.25 0"/>
<feBlend mode="normal" in2="shape" result="effect1_innerShadow_731_814"/>
</filter>
<filter id="filter3_i_731_814" x="22.5077" y="83.0239" width="21.0201" height="24.8355" filterUnits="userSpaceOnUse" color-interpolation-filters="sRGB">
<feFlood flood-opacity="0" result="BackgroundImageFix"/>
<feBlend mode="normal" in="SourceGraphic" in2="BackgroundImageFix" result="shape"/>
<feColorMatrix in="SourceAlpha" type="matrix" values="0 0 0 0 0 0 0 0 0 0 0 0 0 0 0 0 0 0 127 0" result="hardAlpha"/>
<feOffset dy="-4"/>
<feGaussianBlur stdDeviation="4"/>
<feComposite in2="hardAlpha" operator="arithmetic" k2="-1" k3="1"/>
<feColorMatrix type="matrix" values="0 0 0 0 0 0 0 0 0 0 0 0 0 0 0 0 0 0 0.25 0"/>
<feBlend mode="normal" in2="shape" result="effect1_innerShadow_731_814"/>
</filter>
<filter id="filter4_i_731_814" x="99.9133" y="53.2715" width="21.0807" height="22.768" filterUnits="userSpaceOnUse" color-interpolation-filters="sRGB">
<feFlood flood-opacity="0" result="BackgroundImageFix"/>
<feBlend mode="normal" in="SourceGraphic" in2="BackgroundImageFix" result="shape"/>
<feColorMatrix in="SourceAlpha" type="matrix" values="0 0 0 0 0 0 0 0 0 0 0 0 0 0 0 0 0 0 127 0" result="hardAlpha"/>
<feOffset dy="-4"/>
<feGaussianBlur stdDeviation="4"/>
<feComposite in2="hardAlpha" operator="arithmetic" k2="-1" k3="1"/>
<feColorMatrix type="matrix" values="0 0 0 0 0 0 0 0 0 0 0 0 0 0 0 0 0 0 0.25 0"/>
<feBlend mode="normal" in2="shape" result="effect1_innerShadow_731_814"/>
</filter>
<filter id="filter5_i_731_814" x="6.89502" y="53.2714" width="21.0807" height="22.768" filterUnits="userSpaceOnUse" color-interpolation-filters="sRGB">
<feFlood flood-opacity="0" result="BackgroundImageFix"/>
<feBlend mode="normal" in="SourceGraphic" in2="BackgroundImageFix" result="shape"/>
<feColorMatrix in="SourceAlpha" type="matrix" values="0 0 0 0 0 0 0 0 0 0 0 0 0 0 0 0 0 0 127 0" result="hardAlpha"/>
<feOffset dy="-4"/>
<feGaussianBlur stdDeviation="4"/>
<feComposite in2="hardAlpha" operator="arithmetic" k2="-1" k3="1"/>
<feColorMatrix type="matrix" values="0 0 0 0 0 0 0 0 0 0 0 0 0 0 0 0 0 0 0.25 0"/>
<feBlend mode="normal" in2="shape" result="effect1_innerShadow_731_814"/>
</filter>
<filter id="filter6_i_731_814" x="22.5077" y="21.0234" width="21.0201" height="24.8355" filterUnits="userSpaceOnUse" color-interpolation-filters="sRGB">
<feFlood flood-opacity="0" result="BackgroundImageFix"/>
<feBlend mode="normal" in="SourceGraphic" in2="BackgroundImageFix" result="shape"/>
<feColorMatrix in="SourceAlpha" type="matrix" values="0 0 0 0 0 0 0 0 0 0 0 0 0 0 0 0 0 0 127 0" result="hardAlpha"/>
<feOffset dy="-4"/>
<feGaussianBlur stdDeviation="4"/>
<feComposite in2="hardAlpha" operator="arithmetic" k2="-1" k3="1"/>
<feColorMatrix type="matrix" values="0 0 0 0 0 0 0 0 0 0 0 0 0 0 0 0 0 0 0.25 0"/>
<feBlend mode="normal" in2="shape" result="effect1_innerShadow_731_814"/>
</filter>
<linearGradient id="paint0_linear_731_814" x1="48.8757" y1="31.1273" x2="85.9683" y2="105.943" gradientUnits="userSpaceOnUse">
<stop stop-color="#505A62"/>
<stop offset="1" stop-color="#1F1F1F"/>
</linearGradient>
<linearGradient id="paint1_linear_731_814" x1="61.4228" y1="3.74123" x2="72.1156" y2="20.2266" gradientUnits="userSpaceOnUse">
<stop stop-color="#5A6978"/>
<stop offset="1" stop-color="#484848"/>
</linearGradient>
<linearGradient id="paint2_linear_731_814" x1="70.5246" y1="123.491" x2="69.6574" y2="106.214" gradientUnits="userSpaceOnUse">
<stop stop-color="#1A2228"/>
<stop offset="1" stop-color="#3C3B3B"/>
</linearGradient>
<linearGradient id="paint3_linear_731_814" x1="96.7892" y1="21.7246" x2="102.1" y2="37.528" gradientUnits="userSpaceOnUse">
<stop stop-color="#5A6978"/>
<stop offset="1" stop-color="#3C3B3B"/>
</linearGradient>
<linearGradient id="paint4_linear_731_814" x1="36.2193" y1="110.368" x2="36.8229" y2="88.3777" gradientUnits="userSpaceOnUse">
<stop stop-color="#1A2228"/>
<stop offset="1" stop-color="#3C3B3B"/>
</linearGradient>
<linearGradient id="paint5_linear_731_814" x1="110.121" y1="45.2515" x2="122.328" y2="68.4636" gradientUnits="userSpaceOnUse">
<stop stop-color="#435260"/>
<stop offset="1" stop-color="#3C3B3B"/>
</linearGradient>
<linearGradient id="paint6_linear_731_814" x1="8.69515" y1="51.1197" x2="17.7053" y2="71.402" gradientUnits="userSpaceOnUse">
<stop stop-color="#5A6978"/>
<stop offset="1" stop-color="#3C3B3B"/>
</linearGradient>
<linearGradient id="paint7_linear_731_814" x1="23.8884" y1="17.9952" x2="37.9663" y2="32.2019" gradientUnits="userSpaceOnUse">
<stop stop-color="#5A6978"/>
<stop offset="1" stop-color="#494949"/>
</linearGradient>
<linearGradient id="paint8_linear_731_814" x1="101.442" y1="105.915" x2="97.0253" y2="90.9489" gradientUnits="userSpaceOnUse">
<stop stop-color="#1A2228"/>
<stop offset="1" stop-color="#3C3B3B"/>
</linearGradient>
<linearGradient id="paint9_linear_731_814" x1="54" y1="46" x2="54" y2="86" gradientUnits="userSpaceOnUse">
<stop stop-color="#E0EAEE"/>
<stop offset="1" stop-color="#CCD1D4"/>
</linearGradient>
<linearGradient id="paint10_linear_731_814" x1="59.2" y1="45.35" x2="61.1988" y2="69.7157" gradientUnits="userSpaceOnUse">
<stop stop-color="#F95D5D"/>
<stop offset="1" stop-color="#CD4242"/>
</linearGradient>
<clipPath id="clip0_731_814">
<rect width="128" height="128" fill="white"/>
</clipPath>
</defs>
</svg>
