<svg width="128" height="128" viewBox="0 0 128 128" fill="none" xmlns="http://www.w3.org/2000/svg">
<g clip-path="url(#clip0_731_1278)">
<path d="M13 110C13 113.314 15.6863 116 19 116H91.3431C92.404 116 93.4214 115.579 94.1716 114.828L111.828 97.1716C112.579 96.4214 113 95.404 113 94.3431V22C113 18.6863 110.314 16 107 16H19C15.6863 16 13 18.6863 13 22V110Z" fill="black" fill-opacity="0.15"/>
<path d="M14 108C14 111.314 16.6863 114 20 114L92.3431 114C93.404 114 94.4214 113.579 95.1716 112.828L112.828 95.1716C113.579 94.4214 114 93.404 114 92.3431V20C114 16.6863 111.314 14 108 14H20C16.6863 14 14 16.6863 14 20V108Z" fill="url(#paint0_linear_731_1278)"/>
<path d="M90 114H90.8619C92.409 114 93.8963 113.402 95.0133 112.332L112.151 95.9079C113.332 94.7762 114 93.2116 114 91.576V91C113.33 92.2851 112 93.0909 110.551 93.0909H98.1818C94.8681 93.0909 92.1818 95.7772 92.1818 99.0909V110.535C92.1818 112.014 91.3334 113.361 90 114Z" fill="black" fill-opacity="0.15"/>
<path d="M92 114H92.5147C94.106 114 95.6321 113.368 96.7574 112.243L112.243 96.7574C113.368 95.6321 114 94.106 114 92.5147V92C113.387 93.2257 112.134 94 110.764 94H100C96.6863 94 94 96.6863 94 100V110.764C94 112.134 93.2257 113.387 92 114Z" fill="url(#paint1_linear_731_1278)"/>
<path d="M14 22C14 18.6863 16.6863 16 20 16H108C111.314 16 114 18.6863 114 22V36H14V22Z" fill="black" fill-opacity="0.15"/>
<path d="M14 20C14 16.6863 16.6863 14 20 14H108C111.314 14 114 16.6863 114 20V34H14V20Z" fill="url(#paint2_linear_731_1278)"/>
<g filter="url(#filter0_i_731_1278)">
<path d="M36.9062 100.464L44 87.6066H47L50 91.1066V93.6066L37.6035 101.133C37.1656 101.399 36.6587 100.913 36.9062 100.464Z" fill="black" fill-opacity="0.15"/>
</g>
<path d="M44.8386 88.9768C44.05 88.818 43.7541 87.846 44.3206 87.2747L83.1249 48.1394C84.295 46.9593 86.2015 46.9552 87.3766 48.1303L90.151 50.9047C91.34 52.0937 91.3197 54.0276 90.106 55.1914L50.3466 93.3153C49.7629 93.875 48.7914 93.5704 48.6317 92.7776C48.5502 92.3728 48.2338 92.0564 47.8289 91.9748L47.2486 91.858C46.4921 91.7057 45.9009 91.1144 45.7486 90.358L45.6298 89.7679C45.5494 89.369 45.2376 89.0571 44.8386 88.9768Z" fill="black" fill-opacity="0.15"/>
<g filter="url(#filter1_i_731_1278)">
<path d="M36.9062 98.4641L44 85.6066H47L50 89.1066V91.6066L37.6035 99.133C37.1656 99.3989 36.6587 98.9126 36.9062 98.4641Z" fill="url(#paint3_linear_731_1278)"/>
</g>
<g filter="url(#filter2_i_731_1278)">
<path d="M36.9164 98.4569L38.3571 95.8637C38.4453 95.705 38.6148 95.6068 38.788 95.6611C38.9779 95.7208 39.239 95.8455 39.5 96.1066C39.8384 96.4449 39.9477 97.0449 39.9831 97.3975C40.0005 97.5713 39.9088 97.7332 39.7595 97.8239L37.613 99.1271C37.1745 99.3934 36.6673 98.9054 36.9164 98.4569Z" fill="url(#paint4_linear_731_1278)"/>
</g>
<path d="M44.8386 86.9768C44.05 86.818 43.7541 85.846 44.3206 85.2747L83.1249 46.1394C84.295 44.9593 86.2015 44.9552 87.3766 46.1303L90.151 48.9047C91.34 50.0937 91.3197 52.0276 90.106 53.1914L50.3466 91.3153C49.7629 91.875 48.7914 91.5704 48.6317 90.7776C48.5502 90.3728 48.2338 90.0564 47.8289 89.9748L47.2486 89.858C46.4921 89.7057 45.9009 89.1144 45.7486 88.358L45.6298 87.7679C45.5494 87.369 45.2376 87.0571 44.8386 86.9768Z" fill="url(#paint5_linear_731_1278)"/>
</g>
<defs>
<filter id="filter0_i_731_1278" x="36.8411" y="83.6066" width="13.1589" height="17.6021" filterUnits="userSpaceOnUse" color-interpolation-filters="sRGB">
<feFlood flood-opacity="0" result="BackgroundImageFix"/>
<feBlend mode="normal" in="SourceGraphic" in2="BackgroundImageFix" result="shape"/>
<feColorMatrix in="SourceAlpha" type="matrix" values="0 0 0 0 0 0 0 0 0 0 0 0 0 0 0 0 0 0 127 0" result="hardAlpha"/>
<feOffset dy="-4"/>
<feGaussianBlur stdDeviation="4"/>
<feComposite in2="hardAlpha" operator="arithmetic" k2="-1" k3="1"/>
<feColorMatrix type="matrix" values="0 0 0 0 0 0 0 0 0 0 0 0 0 0 0 0 0 0 0.05 0"/>
<feBlend mode="normal" in2="shape" result="effect1_innerShadow_731_1278"/>
</filter>
<filter id="filter1_i_731_1278" x="36.8411" y="81.6066" width="13.1589" height="17.6021" filterUnits="userSpaceOnUse" color-interpolation-filters="sRGB">
<feFlood flood-opacity="0" result="BackgroundImageFix"/>
<feBlend mode="normal" in="SourceGraphic" in2="BackgroundImageFix" result="shape"/>
<feColorMatrix in="SourceAlpha" type="matrix" values="0 0 0 0 0 0 0 0 0 0 0 0 0 0 0 0 0 0 127 0" result="hardAlpha"/>
<feOffset dy="-4"/>
<feGaussianBlur stdDeviation="4"/>
<feComposite in2="hardAlpha" operator="arithmetic" k2="-1" k3="1"/>
<feColorMatrix type="matrix" values="0 0 0 0 0 0 0 0 0 0 0 0 0 0 0 0 0 0 0.05 0"/>
<feBlend mode="normal" in2="shape" result="effect1_innerShadow_731_1278"/>
</filter>
<filter id="filter2_i_731_1278" x="36.8506" y="91.6461" width="3.13463" height="7.5567" filterUnits="userSpaceOnUse" color-interpolation-filters="sRGB">
<feFlood flood-opacity="0" result="BackgroundImageFix"/>
<feBlend mode="normal" in="SourceGraphic" in2="BackgroundImageFix" result="shape"/>
<feColorMatrix in="SourceAlpha" type="matrix" values="0 0 0 0 0 0 0 0 0 0 0 0 0 0 0 0 0 0 127 0" result="hardAlpha"/>
<feOffset dy="-4"/>
<feGaussianBlur stdDeviation="4"/>
<feComposite in2="hardAlpha" operator="arithmetic" k2="-1" k3="1"/>
<feColorMatrix type="matrix" values="0 0 0 0 0 0 0 0 0 0 0 0 0 0 0 0 0 0 0.25 0"/>
<feBlend mode="normal" in2="shape" result="effect1_innerShadow_731_1278"/>
</filter>
<linearGradient id="paint0_linear_731_1278" x1="65.5151" y1="37.6842" x2="65.5152" y2="114" gradientUnits="userSpaceOnUse">
<stop stop-color="#FFDC81"/>
<stop offset="1" stop-color="#F8B95A"/>
</linearGradient>
<linearGradient id="paint1_linear_731_1278" x1="103" y1="114" x2="103" y2="92" gradientUnits="userSpaceOnUse">
<stop stop-color="#F7C33B"/>
<stop offset="1" stop-color="#F8E9B3"/>
</linearGradient>
<linearGradient id="paint2_linear_731_1278" x1="64" y1="14" x2="64" y2="34" gradientUnits="userSpaceOnUse">
<stop stop-color="#F8E9B3"/>
<stop offset="1" stop-color="#F8E9B3"/>
</linearGradient>
<linearGradient id="paint3_linear_731_1278" x1="43" y1="85.6066" x2="43" y2="100.107" gradientUnits="userSpaceOnUse">
<stop stop-color="#F8E9B3"/>
<stop offset="1" stop-color="#F8E9B3"/>
</linearGradient>
<linearGradient id="paint4_linear_731_1278" x1="36.7667" y1="96.4841" x2="38.8312" y2="100.366" gradientUnits="userSpaceOnUse">
<stop stop-color="#363D43"/>
<stop offset="1" stop-color="#181818"/>
</linearGradient>
<linearGradient id="paint5_linear_731_1278" x1="62.0287" y1="68.0426" x2="68.4697" y2="74.2055" gradientUnits="userSpaceOnUse">
<stop stop-color="#FF6E6E"/>
<stop offset="1" stop-color="#CD4242"/>
</linearGradient>
<clipPath id="clip0_731_1278">
<rect width="128" height="128" fill="white"/>
</clipPath>
</defs>
</svg>
