<svg width="128" height="128" viewBox="0 0 128 128" fill="none" xmlns="http://www.w3.org/2000/svg">
<g clip-path="url(#clip0_731_1464)">
<rect x="9" y="26" width="110" height="80" rx="6" fill="black" fill-opacity="0.15"/>
<rect x="9" y="24" width="110" height="80" rx="6" fill="url(#paint0_linear_731_1464)"/>
<rect x="12" y="27" width="6" height="20" rx="3" fill="url(#paint1_linear_731_1464)"/>
<rect x="54" y="27" width="6" height="20" rx="3" fill="url(#paint2_linear_731_1464)"/>
<rect x="96" y="27" width="6" height="20" rx="3" fill="url(#paint3_linear_731_1464)"/>
<rect x="26" y="27" width="6" height="20" rx="3" fill="url(#paint4_linear_731_1464)"/>
<rect x="68" y="27" width="6" height="20" rx="3" fill="url(#paint5_linear_731_1464)"/>
<rect x="110" y="27" width="6" height="20" rx="3" fill="url(#paint6_linear_731_1464)"/>
<rect x="40" y="27" width="6" height="30" rx="3" fill="url(#paint7_linear_731_1464)"/>
<rect x="82" y="27" width="6" height="30" rx="3" fill="url(#paint8_linear_731_1464)"/>
</g>
<defs>
<linearGradient id="paint0_linear_731_1464" x1="65.6667" y1="24" x2="65.6667" y2="85.0526" gradientUnits="userSpaceOnUse">
<stop stop-color="#FFDC81"/>
<stop offset="1" stop-color="#F8B95A"/>
</linearGradient>
<linearGradient id="paint1_linear_731_1464" x1="15" y1="47" x2="15" y2="27" gradientUnits="userSpaceOnUse">
<stop stop-color="#A27540"/>
<stop offset="1" stop-color="#C89B67"/>
</linearGradient>
<linearGradient id="paint2_linear_731_1464" x1="57" y1="47" x2="57" y2="27" gradientUnits="userSpaceOnUse">
<stop stop-color="#A27540"/>
<stop offset="1" stop-color="#C89B67"/>
</linearGradient>
<linearGradient id="paint3_linear_731_1464" x1="99" y1="47" x2="99" y2="27" gradientUnits="userSpaceOnUse">
<stop stop-color="#A27540"/>
<stop offset="1" stop-color="#C89B67"/>
</linearGradient>
<linearGradient id="paint4_linear_731_1464" x1="29" y1="47" x2="29" y2="27" gradientUnits="userSpaceOnUse">
<stop stop-color="#A27540"/>
<stop offset="1" stop-color="#C89B67"/>
</linearGradient>
<linearGradient id="paint5_linear_731_1464" x1="71" y1="47" x2="71" y2="27" gradientUnits="userSpaceOnUse">
<stop stop-color="#A27540"/>
<stop offset="1" stop-color="#C89B67"/>
</linearGradient>
<linearGradient id="paint6_linear_731_1464" x1="113" y1="47" x2="113" y2="27" gradientUnits="userSpaceOnUse">
<stop stop-color="#A27540"/>
<stop offset="1" stop-color="#C89B67"/>
</linearGradient>
<linearGradient id="paint7_linear_731_1464" x1="43" y1="57" x2="43" y2="27" gradientUnits="userSpaceOnUse">
<stop stop-color="#A27540"/>
<stop offset="1" stop-color="#C89B67"/>
</linearGradient>
<linearGradient id="paint8_linear_731_1464" x1="85" y1="57" x2="85" y2="27" gradientUnits="userSpaceOnUse">
<stop stop-color="#A27540"/>
<stop offset="1" stop-color="#C89B67"/>
</linearGradient>
<clipPath id="clip0_731_1464">
<rect width="128" height="128" fill="white"/>
</clipPath>
</defs>
</svg>
