<svg width="128" height="128" viewBox="0 0 128 128" fill="none" xmlns="http://www.w3.org/2000/svg">
<g clip-path="url(#clip0_731_925)">
<path d="M124 106V26C124 20.4772 119.523 16 114 16H14C8.47715 16 4 20.4772 4 26V106C4 111.523 8.47715 116 14 116H114C119.523 116 124 111.523 124 106Z" fill="black" fill-opacity="0.15"/>
<path d="M124 104V24C124 18.4772 119.523 14 114 14H14C8.47715 14 4 18.4772 4 24V104C4 109.523 8.47715 114 14 114H114C119.523 114 124 109.523 124 104Z" fill="url(#paint0_linear_731_925)"/>
<rect x="9" y="19" width="110" height="80" rx="6" fill="url(#paint1_linear_731_925)"/>
<g filter="url(#filter0_i_731_925)">
<circle cx="23" cy="35" r="9" fill="black" fill-opacity="0.15"/>
</g>
<g filter="url(#filter1_i_731_925)">
<circle cx="23" cy="61" r="9" fill="black" fill-opacity="0.15"/>
</g>
<g filter="url(#filter2_i_731_925)">
<circle cx="23" cy="87" r="9" fill="black" fill-opacity="0.15"/>
</g>
<circle cx="23" cy="33" r="9" fill="url(#paint2_linear_731_925)"/>
<circle cx="23" cy="59" r="9" fill="url(#paint3_linear_731_925)"/>
<circle cx="23" cy="85" r="9" fill="url(#paint4_linear_731_925)"/>
<circle cx="23" cy="33" r="5" fill="url(#paint5_linear_731_925)"/>
<circle cx="23" cy="59" r="5" fill="url(#paint6_linear_731_925)"/>
<circle cx="23" cy="85" r="5" fill="url(#paint7_linear_731_925)"/>
<rect x="67" y="26" width="4" height="30" transform="rotate(90 67 26)" fill="#EBF0F2"/>
<rect x="57" y="52" width="4" height="20" transform="rotate(90 57 52)" fill="#EBF0F2"/>
<rect x="61" y="78" width="4" height="24" transform="rotate(90 61 78)" fill="#EBF0F2"/>
<rect x="59" y="62" width="4" height="22" transform="rotate(90 59 62)" fill="#B9C3C7"/>
<rect x="77" y="36" width="4" height="40" transform="rotate(90 77 36)" fill="#B9C3C7"/>
<rect x="88" y="62" width="4" height="22" transform="rotate(90 88 62)" fill="#B9C3C7"/>
<rect x="65" y="88" width="4" height="28" transform="rotate(90 65 88)" fill="#B9C3C7"/>
<rect x="99" y="36" width="4" height="16" transform="rotate(90 99 36)" fill="#B9C3C7"/>
<rect x="95" y="88" width="4" height="24" transform="rotate(90 95 88)" fill="#B9C3C7"/>
</g>
<defs>
<filter id="filter0_i_731_925" x="14" y="22" width="18" height="22" filterUnits="userSpaceOnUse" color-interpolation-filters="sRGB">
<feFlood flood-opacity="0" result="BackgroundImageFix"/>
<feBlend mode="normal" in="SourceGraphic" in2="BackgroundImageFix" result="shape"/>
<feColorMatrix in="SourceAlpha" type="matrix" values="0 0 0 0 0 0 0 0 0 0 0 0 0 0 0 0 0 0 127 0" result="hardAlpha"/>
<feOffset dy="-4"/>
<feGaussianBlur stdDeviation="4"/>
<feComposite in2="hardAlpha" operator="arithmetic" k2="-1" k3="1"/>
<feColorMatrix type="matrix" values="0 0 0 0 0 0 0 0 0 0 0 0 0 0 0 0 0 0 0.05 0"/>
<feBlend mode="normal" in2="shape" result="effect1_innerShadow_731_925"/>
</filter>
<filter id="filter1_i_731_925" x="14" y="48" width="18" height="22" filterUnits="userSpaceOnUse" color-interpolation-filters="sRGB">
<feFlood flood-opacity="0" result="BackgroundImageFix"/>
<feBlend mode="normal" in="SourceGraphic" in2="BackgroundImageFix" result="shape"/>
<feColorMatrix in="SourceAlpha" type="matrix" values="0 0 0 0 0 0 0 0 0 0 0 0 0 0 0 0 0 0 127 0" result="hardAlpha"/>
<feOffset dy="-4"/>
<feGaussianBlur stdDeviation="4"/>
<feComposite in2="hardAlpha" operator="arithmetic" k2="-1" k3="1"/>
<feColorMatrix type="matrix" values="0 0 0 0 0 0 0 0 0 0 0 0 0 0 0 0 0 0 0.05 0"/>
<feBlend mode="normal" in2="shape" result="effect1_innerShadow_731_925"/>
</filter>
<filter id="filter2_i_731_925" x="14" y="74" width="18" height="22" filterUnits="userSpaceOnUse" color-interpolation-filters="sRGB">
<feFlood flood-opacity="0" result="BackgroundImageFix"/>
<feBlend mode="normal" in="SourceGraphic" in2="BackgroundImageFix" result="shape"/>
<feColorMatrix in="SourceAlpha" type="matrix" values="0 0 0 0 0 0 0 0 0 0 0 0 0 0 0 0 0 0 127 0" result="hardAlpha"/>
<feOffset dy="-4"/>
<feGaussianBlur stdDeviation="4"/>
<feComposite in2="hardAlpha" operator="arithmetic" k2="-1" k3="1"/>
<feColorMatrix type="matrix" values="0 0 0 0 0 0 0 0 0 0 0 0 0 0 0 0 0 0 0.05 0"/>
<feBlend mode="normal" in2="shape" result="effect1_innerShadow_731_925"/>
</filter>
<linearGradient id="paint0_linear_731_925" x1="43.8908" y1="26.7273" x2="80.8508" y2="115.646" gradientUnits="userSpaceOnUse">
<stop stop-color="#979CA2"/>
<stop offset="1" stop-color="#1F1F1F"/>
</linearGradient>
<linearGradient id="paint1_linear_731_925" x1="48.8967" y1="27.2238" x2="69.3843" y2="87.6605" gradientUnits="userSpaceOnUse">
<stop stop-color="#677B8D"/>
<stop offset="1" stop-color="#39464D"/>
</linearGradient>
<linearGradient id="paint2_linear_731_925" x1="23" y1="24" x2="23" y2="42" gradientUnits="userSpaceOnUse">
<stop stop-color="#EFF3F5"/>
<stop offset="1" stop-color="#CFDAE0"/>
</linearGradient>
<linearGradient id="paint3_linear_731_925" x1="23" y1="50" x2="23" y2="68" gradientUnits="userSpaceOnUse">
<stop stop-color="#EFF3F5"/>
<stop offset="1" stop-color="#CFDAE0"/>
</linearGradient>
<linearGradient id="paint4_linear_731_925" x1="23" y1="76" x2="23" y2="94" gradientUnits="userSpaceOnUse">
<stop stop-color="#EFF3F5"/>
<stop offset="1" stop-color="#CFDAE0"/>
</linearGradient>
<linearGradient id="paint5_linear_731_925" x1="23" y1="28" x2="23" y2="38" gradientUnits="userSpaceOnUse">
<stop stop-color="#ED3D3D"/>
<stop offset="1" stop-color="#CD4242"/>
</linearGradient>
<linearGradient id="paint6_linear_731_925" x1="23" y1="54" x2="23" y2="64" gradientUnits="userSpaceOnUse">
<stop stop-color="#64B4F4"/>
<stop offset="1" stop-color="#4989D5"/>
</linearGradient>
<linearGradient id="paint7_linear_731_925" x1="23" y1="80" x2="23" y2="90" gradientUnits="userSpaceOnUse">
<stop stop-color="#64B4F4"/>
<stop offset="1" stop-color="#4989D5"/>
</linearGradient>
<clipPath id="clip0_731_925">
<rect width="128" height="128" fill="white"/>
</clipPath>
</defs>
</svg>
