<svg width="128" height="128" viewBox="0 0 128 128" fill="none" xmlns="http://www.w3.org/2000/svg">
<g clip-path="url(#clip0_731_772)">
<path fill-rule="evenodd" clip-rule="evenodd" d="M28 115C28 113.343 29.3431 112 31 112C32.6569 112 34 113.343 34 115V123C34 124.657 32.6569 126 31 126C29.3431 126 28 124.657 28 123V115ZM39 115C39 113.343 40.3431 112 42 112C43.6569 112 45 113.343 45 115V123C45 124.657 43.6569 126 42 126C40.3431 126 39 124.657 39 123V115ZM53 112C51.3431 112 50 113.343 50 115V123C50 124.657 51.3431 126 53 126C54.6569 126 56 124.657 56 123V115C56 113.343 54.6569 112 53 112ZM61 115C61 113.343 62.3431 112 64 112C65.6569 112 67 113.343 67 115V123C67 124.657 65.6569 126 64 126C62.3431 126 61 124.657 61 123V115ZM75 112C73.3431 112 72 113.343 72 115V123C72 124.657 73.3431 126 75 126C76.6569 126 78 124.657 78 123V115C78 113.343 76.6569 112 75 112ZM83 115C83 113.343 84.3431 112 86 112C87.6569 112 89 113.343 89 115V123C89 124.657 87.6569 126 86 126C84.3431 126 83 124.657 83 123V115ZM97 112C95.3431 112 94 113.343 94 115V123C94 124.657 95.3431 126 97 126C98.6569 126 100 124.657 100 123V115C100 113.343 98.6569 112 97 112Z" fill="black" fill-opacity="0.15"/>
<path fill-rule="evenodd" clip-rule="evenodd" d="M28 113C28 111.343 29.3431 110 31 110C32.6569 110 34 111.343 34 113V121C34 122.657 32.6569 124 31 124C29.3431 124 28 122.657 28 121V113ZM39 113C39 111.343 40.3431 110 42 110C43.6569 110 45 111.343 45 113V121C45 122.657 43.6569 124 42 124C40.3431 124 39 122.657 39 121V113ZM53 110C51.3431 110 50 111.343 50 113V121C50 122.657 51.3431 124 53 124C54.6569 124 56 122.657 56 121V113C56 111.343 54.6569 110 53 110ZM61 113C61 111.343 62.3431 110 64 110C65.6569 110 67 111.343 67 113V121C67 122.657 65.6569 124 64 124C62.3431 124 61 122.657 61 121V113ZM75 110C73.3431 110 72 111.343 72 113V121C72 122.657 73.3431 124 75 124C76.6569 124 78 122.657 78 121V113C78 111.343 76.6569 110 75 110ZM83 113C83 111.343 84.3431 110 86 110C87.6569 110 89 111.343 89 113V121C89 122.657 87.6569 124 86 124C84.3431 124 83 122.657 83 121V113ZM97 110C95.3431 110 94 111.343 94 113V121C94 122.657 95.3431 124 97 124C98.6569 124 100 122.657 100 121V113C100 111.343 98.6569 110 97 110Z" fill="url(#paint0_linear_731_772)"/>
<rect x="19" y="16" width="90" height="100" rx="6" fill="black" fill-opacity="0.15"/>
<rect x="19" y="14" width="90" height="100" rx="6" fill="url(#paint1_linear_731_772)"/>
<circle cx="64" cy="56" r="30" fill="black" fill-opacity="0.15"/>
<circle cx="64" cy="54" r="30" fill="url(#paint2_linear_731_772)"/>
<path d="M94.3046 71.2056C99.1385 61.9636 99.548 50.6466 94.5935 40.7613C94.0986 39.7738 92.8691 39.4477 91.9125 40L67.0129 54.3758C65.6767 55.1473 65.6802 57.0771 67.0193 57.8436L91.646 71.9408C92.5906 72.4816 93.8002 72.1701 94.3046 71.2056Z" fill="black" fill-opacity="0.15"/>
<path d="M94.3046 69.2056C99.1385 59.9636 99.548 48.6466 94.5935 38.7613C94.0986 37.7738 92.8691 37.4477 91.9125 38L67.0129 52.3758C65.6767 53.1473 65.6802 55.0771 67.0193 55.8436L91.646 69.9408C92.5906 70.4816 93.8002 70.1701 94.3046 69.2056Z" fill="url(#paint3_linear_731_772)"/>
<path d="M95.9764 35.4069C89.6398 25.4721 78.6446 18.7008 66.0004 18.0513C64.8973 17.9946 64 18.8954 64 20V52.5508C64 54.0871 65.6602 55.0497 66.9935 54.2865L95.2746 38.0988C96.2292 37.5524 96.5679 36.3342 95.9764 35.4069Z" fill="black" fill-opacity="0.15"/>
<path d="M95.9764 33.4069C89.6398 23.4721 78.6446 16.7008 66.0004 16.0513C64.8973 15.9946 64 16.8954 64 18V50.5508C64 52.0871 65.6602 53.0497 66.9935 52.2865L95.2746 36.0988C96.2292 35.5524 96.5679 34.3342 95.9764 33.4069Z" fill="url(#paint4_linear_731_772)"/>
<circle cx="64" cy="56" r="10" fill="black" fill-opacity="0.15"/>
<circle cx="64" cy="54" r="10" fill="url(#paint5_linear_731_772)"/>
<path d="M41.6603 106.321C36.8773 109.082 30.7614 107.443 28 102.66C25.2386 97.8773 26.8773 91.7614 31.6603 89C35.104 87.0117 56.833 80.4527 68.7308 76.9356C70.7332 76.3437 72.1574 78.8105 70.6436 80.2487C61.6489 88.7939 45.104 104.332 41.6603 106.321Z" fill="black" fill-opacity="0.15"/>
<path d="M41.6603 104.321C36.8773 107.082 30.7614 105.443 28 100.66C25.2386 95.8773 26.8773 89.7614 31.6603 87C35.104 85.0117 56.833 78.4527 68.7308 74.9356C70.7332 74.3437 72.1574 76.8105 70.6436 78.2487C61.6489 86.7939 45.104 102.332 41.6603 104.321Z" fill="url(#paint6_linear_731_772)"/>
<circle cx="37" cy="95" r="5" fill="url(#paint7_linear_731_772)"/>
</g>
<defs>
<linearGradient id="paint0_linear_731_772" x1="54.1725" y1="120.684" x2="54.1725" y2="110" gradientUnits="userSpaceOnUse">
<stop stop-color="#F2CB68"/>
<stop offset="1" stop-color="#EF9816"/>
</linearGradient>
<linearGradient id="paint1_linear_731_772" x1="48.9181" y1="26.7273" x2="93.132" y2="106.505" gradientUnits="userSpaceOnUse">
<stop stop-color="#505A62"/>
<stop offset="1" stop-color="#1F1F1F"/>
</linearGradient>
<linearGradient id="paint2_linear_731_772" x1="64" y1="24" x2="64" y2="84" gradientUnits="userSpaceOnUse">
<stop stop-color="#DBE4E8"/>
<stop offset="1" stop-color="#B9C3C7"/>
</linearGradient>
<linearGradient id="paint3_linear_731_772" x1="82.5" y1="41.5" x2="84.4047" y2="67.8624" gradientUnits="userSpaceOnUse">
<stop stop-color="#42B0FF"/>
<stop offset="0.506666" stop-color="#3397F5"/>
<stop offset="1" stop-color="#126CD7"/>
</linearGradient>
<linearGradient id="paint4_linear_731_772" x1="81" y1="16" x2="81" y2="45" gradientUnits="userSpaceOnUse">
<stop stop-color="#F2CB68"/>
<stop offset="1" stop-color="#EF9816"/>
</linearGradient>
<linearGradient id="paint5_linear_731_772" x1="64" y1="44" x2="64" y2="64" gradientUnits="userSpaceOnUse">
<stop stop-color="#BFCAD0"/>
<stop offset="1" stop-color="#919FA6"/>
</linearGradient>
<linearGradient id="paint6_linear_731_772" x1="70.5" y1="76" x2="28" y2="100.66" gradientUnits="userSpaceOnUse">
<stop stop-color="#6E7B87"/>
<stop offset="1" stop-color="#363D43"/>
</linearGradient>
<linearGradient id="paint7_linear_731_772" x1="37" y1="90" x2="37" y2="100" gradientUnits="userSpaceOnUse">
<stop stop-color="#BFCAD0"/>
<stop offset="1" stop-color="#919FA6"/>
</linearGradient>
<clipPath id="clip0_731_772">
<rect width="128" height="128" fill="white"/>
</clipPath>
</defs>
</svg>
