<svg width="128" height="128" viewBox="0 0 128 128" fill="none" xmlns="http://www.w3.org/2000/svg">
<g clip-path="url(#clip0_731_675)">
<path d="M119 108V28C119 22.4772 114.523 18 109 18H19C13.4771 18 9 22.4772 9 28V108C9 113.523 13.4771 118 19 118H109C114.523 118 119 113.523 119 108Z" fill="black" fill-opacity="0.15"/>
<path d="M119 106V26C119 20.4772 114.523 16 109 16H19C13.4771 16 9 20.4772 9 26V106C9 111.523 13.4771 116 19 116H109C114.523 116 119 111.523 119 106Z" fill="url(#paint0_linear_731_675)"/>
<rect x="14" y="21" width="100" height="80" rx="6" fill="url(#paint1_linear_731_675)"/>
<path d="M35 94H25C22.7909 94 21 92.2091 21 90V80" stroke="#C1DEF6" stroke-width="4"/>
<path d="M92 28H102C104.209 28 106 29.7909 106 32V42" stroke="#C1DEF6" stroke-width="4"/>
<path d="M35 28H25C22.7909 28 21 29.7909 21 32V42" stroke="#C1DEF6" stroke-width="4"/>
<rect x="46" y="51" width="40" height="30" rx="4" fill="black" fill-opacity="0.15"/>
<rect x="46" y="50" width="40" height="30" rx="4" fill="url(#paint2_linear_731_675)"/>
<circle cx="66" cy="65" r="10" fill="url(#paint3_linear_731_675)"/>
<circle cx="103" cy="102" r="20" fill="black" fill-opacity="0.15"/>
<circle cx="103" cy="100" r="20" fill="url(#paint4_linear_731_675)"/>
<circle cx="103" cy="100" r="12" fill="url(#paint5_linear_731_675)"/>
</g>
<defs>
<linearGradient id="paint0_linear_731_675" x1="45.5666" y1="28.7273" x2="84.7883" y2="115.224" gradientUnits="userSpaceOnUse">
<stop stop-color="#505A62"/>
<stop offset="1" stop-color="#1F1F1F"/>
</linearGradient>
<linearGradient id="paint1_linear_731_675" x1="58.1176" y1="24.8209" x2="63.072" y2="97.2803" gradientUnits="userSpaceOnUse">
<stop stop-color="#42B0FF"/>
<stop offset="0.506666" stop-color="#3397F5"/>
<stop offset="1" stop-color="#126CD7"/>
</linearGradient>
<linearGradient id="paint2_linear_731_675" x1="66" y1="50" x2="66" y2="80" gradientUnits="userSpaceOnUse">
<stop stop-color="#E3EEF8"/>
<stop offset="1" stop-color="#C1DEF6"/>
</linearGradient>
<linearGradient id="paint3_linear_731_675" x1="62.6485" y1="57.5455" x2="70.9789" y2="74.2466" gradientUnits="userSpaceOnUse">
<stop stop-color="#505A62"/>
<stop offset="1" stop-color="#1F1F1F"/>
</linearGradient>
<linearGradient id="paint4_linear_731_675" x1="103" y1="80" x2="103" y2="120" gradientUnits="userSpaceOnUse">
<stop stop-color="#ED3D3D"/>
<stop offset="1" stop-color="#CD4242"/>
</linearGradient>
<linearGradient id="paint5_linear_731_675" x1="103" y1="88" x2="103" y2="112" gradientUnits="userSpaceOnUse">
<stop stop-color="#EFF3F5"/>
<stop offset="1" stop-color="#D9E0E4"/>
</linearGradient>
<clipPath id="clip0_731_675">
<rect width="128" height="128" fill="white"/>
</clipPath>
</defs>
</svg>
