<svg width="128" height="128" viewBox="0 0 128 128" fill="none" xmlns="http://www.w3.org/2000/svg">
<g clip-path="url(#clip0_731_1087)">
<path d="M68.2426 118.326L116.326 70.2426C118.669 67.8995 118.669 64.1005 116.326 61.7574L68.2426 13.6741C65.8995 11.331 62.1005 11.331 59.7574 13.6741L11.6741 61.7574C9.33095 64.1005 9.33095 67.8995 11.6741 70.2426L59.7574 118.326C62.1005 120.669 65.8995 120.669 68.2426 118.326Z" fill="black" fill-opacity="0.15"/>
<path d="M68.2426 116.326L116.326 68.2426C118.669 65.8995 118.669 62.1005 116.326 59.7574L68.2426 11.6741C65.8995 9.33095 62.1005 9.33095 59.7574 11.6741L11.6741 59.7574C9.33095 62.1005 9.33095 65.8995 11.6741 68.2426L59.7574 116.326C62.1005 118.669 65.8995 118.669 68.2426 116.326Z" fill="url(#paint0_linear_731_1087)"/>
<rect x="18" y="20" width="40" height="10" rx="2" fill="black"/>
<rect x="80" y="20" width="33" height="10" rx="2" fill="black"/>
<path d="M25 111V29C25 27.8954 25.8954 27 27 27H45.5C46.6046 27 47.5 27.8954 47.5 29V64.6315C47.5 66.4516 49.7336 67.3256 50.9688 65.9889L86.4062 27.6426C86.7847 27.2329 87.3172 27 87.875 27H110.505C112.238 27 113.151 29.0521 111.991 30.3389L38.0958 112.339C37.7165 112.76 37.1766 113 36.61 113H27C25.8954 113 25 112.105 25 111Z" fill="black"/>
<rect x="16" y="18" width="40" height="10" rx="2" fill="#D9D9D9"/>
<rect x="78" y="18" width="33" height="10" rx="2" fill="#D9D9D9"/>
<path d="M23 109V27C23 25.8954 23.8954 25 25 25H43.5C44.6046 25 45.5 25.8954 45.5 27V62.6315C45.5 64.4516 47.7336 65.3256 48.9688 63.9889L84.4062 25.6426C84.7847 25.2329 85.3172 25 85.875 25H108.505C110.238 25 111.151 27.0521 109.991 28.3389L36.0958 110.339C35.7165 110.76 35.1766 111 34.61 111H25C23.8954 111 23 110.105 23 109Z" fill="#D9D9D9"/>
<path d="M63.7708 78.3675C64.0431 77.5509 64.8073 77 65.6682 77H69.4518C70.8169 77 71.7809 78.3374 71.3492 79.6325L70.6825 81.6325C70.4103 82.4491 69.646 83 68.7852 83H65.0015C63.6364 83 62.6725 81.6626 63.1042 80.3675L63.7708 78.3675Z" fill="black"/>
<path d="M58.8848 90.0257C59.089 89.4131 59.6622 89 60.3078 89H65.4518C66.8169 89 67.7809 90.3374 67.3492 91.6325L61.701 108.577C61.4677 109.277 61.9887 110 62.7267 110V110C63.4646 110 63.9857 110.723 63.7523 111.423L63.5686 111.974C63.3644 112.587 62.7912 113 62.1455 113H56.0015C54.6364 113 53.6725 111.663 54.1042 110.368L59.9105 92.9487C60.066 92.482 59.7186 92 59.2267 92V92C58.7347 92 58.3873 91.518 58.5429 91.0513L58.8848 90.0257Z" fill="black"/>
<path d="M73.8848 90.0257C74.089 89.4131 74.6622 89 75.3078 89H83.2267L76.701 108.577C76.4677 109.277 76.9887 110 77.7267 110V110C78.4646 110 78.9857 110.723 78.7523 111.423L78.5686 111.974C78.3644 112.587 77.7912 113 77.1455 113H71.0015C69.6364 113 68.6725 111.663 69.1042 110.368L74.9105 92.9487C75.066 92.482 74.7186 92 74.2267 92V92C73.7347 92 73.3873 91.518 73.5429 91.0513L73.8848 90.0257Z" fill="black"/>
<path d="M88.8848 90.0257C89.089 89.4131 89.6622 89 90.3078 89H98.2267L91.701 108.577C91.4677 109.277 91.9887 110 92.7267 110V110C93.4646 110 93.9857 110.723 93.7523 111.423L93.5686 111.974C93.3644 112.587 92.7912 113 92.1455 113H86.0015C84.6364 113 83.6725 111.663 84.1042 110.368L89.9105 92.9487C90.066 92.482 89.7186 92 89.2267 92V92C88.7347 92 88.3873 91.518 88.5429 91.0513L88.8848 90.0257Z" fill="black"/>
<path d="M103.885 90.0257C104.089 89.4131 104.662 89 105.308 89H110.452C111.817 89 112.781 90.3374 112.349 91.6325L106.701 108.577C106.468 109.277 106.989 110 107.727 110V110C108.465 110 108.986 110.723 108.752 111.423L108.569 111.974C108.364 112.587 107.791 113 107.146 113H101.002C99.6364 113 98.6725 111.663 99.1042 110.368L104.91 92.9487C105.066 92.482 104.719 92 104.227 92V92C103.735 92 103.387 91.518 103.543 91.0513L103.885 90.0257Z" fill="black"/>
<path d="M90.2267 93H87.2313C86.147 93 85.2894 92.0818 85.3633 91C85.4373 89.9182 84.5797 89 83.4953 89H83.169C82.2025 89 81.3743 89.6912 81.2013 90.6421L80.2267 96H90.2267V93Z" fill="black"/>
<path d="M105.227 93H102.231C101.147 93 100.289 92.0818 100.363 91C100.437 89.9182 99.5797 89 98.4953 89H98.169C97.2025 89 96.3743 89.6912 96.2013 90.6421L95.2267 96H105.227V93Z" fill="black"/>
<path d="M61.7708 76.3675C62.0431 75.5509 62.8073 75 63.6682 75H67.4518C68.8169 75 69.7809 76.3374 69.3492 77.6325L68.6825 79.6325C68.4103 80.4491 67.646 81 66.7852 81H63.0015C61.6364 81 60.6725 79.6626 61.1042 78.3675L61.7708 76.3675Z" fill="#D9D9D9"/>
<path d="M56.8848 88.0257C57.089 87.4131 57.6622 87 58.3078 87H63.4518C64.8169 87 65.7809 88.3374 65.3492 89.6325L59.701 106.577C59.4677 107.277 59.9887 108 60.7267 108C61.4646 108 61.9857 108.723 61.7523 109.423L61.5686 109.974C61.3644 110.587 60.7912 111 60.1455 111H54.0015C52.6364 111 51.6725 109.663 52.1042 108.368L57.9105 90.9487C58.066 90.482 57.7186 90 57.2267 90C56.7347 90 56.3873 89.518 56.5429 89.0513L56.8848 88.0257Z" fill="#D9D9D9"/>
<path d="M71.8848 88.0257C72.089 87.4131 72.6622 87 73.3078 87H81.2267L74.701 106.577C74.4677 107.277 74.9887 108 75.7267 108C76.4646 108 76.9857 108.723 76.7523 109.423L76.5686 109.974C76.3644 110.587 75.7912 111 75.1455 111H69.0015C67.6364 111 66.6725 109.663 67.1042 108.368L72.9105 90.9487C73.066 90.482 72.7186 90 72.2267 90C71.7347 90 71.3873 89.518 71.5429 89.0513L71.8848 88.0257Z" fill="#D9D9D9"/>
<path d="M86.7708 88.3675C87.0431 87.5509 87.8073 87 88.6682 87H96.2267L89.701 106.577C89.4677 107.277 89.9887 108 90.7267 108C91.4646 108 91.9857 108.723 91.7523 109.423L91.5686 109.974C91.3644 110.587 90.7912 111 90.1455 111H83.6393C82.3861 111 81.4416 109.861 81.674 108.629L84.8646 91.7178C84.952 91.2543 85.2005 90.8365 85.5662 90.5384L85.7766 90.3669C86.0706 90.1272 86.2904 89.809 86.4103 89.4492L86.7708 88.3675Z" fill="#D9D9D9"/>
<path d="M101.771 88.3675C102.043 87.5509 102.807 87 103.668 87H108.452C109.817 87 110.781 88.3374 110.349 89.6325L104.701 106.577C104.468 107.277 104.989 108 105.727 108V108C106.465 108 106.986 108.723 106.752 109.423L106.569 109.974C106.364 110.587 105.791 111 105.146 111H98.6393C97.3861 111 96.4416 109.861 96.674 108.629L99.8646 91.7178C99.952 91.2543 100.201 90.8365 100.566 90.5384L100.777 90.3669C101.071 90.1272 101.29 89.809 101.41 89.4492L101.771 88.3675Z" fill="#D9D9D9"/>
<path d="M88.2267 91H86C84.8954 91 84 90.1046 84 89C84 87.8954 83.1046 87 82 87H81.169C80.2025 87 79.3743 87.6912 79.2013 88.6421L78.2267 94H88.2267V91Z" fill="#D9D9D9"/>
<path d="M103.227 91H100.5C99.3954 91 98.5 90.1046 98.5 89C98.5 87.8954 97.6046 87 96.5 87H96.169C95.2025 87 94.3743 87.6912 94.2013 88.6421L93.2267 94H103.227V91Z" fill="#D9D9D9"/>
</g>
<defs>
<linearGradient id="paint0_linear_731_1087" x1="55" y1="28" x2="84.5254" y2="87.2414" gradientUnits="userSpaceOnUse">
<stop stop-color="#58E44B"/>
<stop offset="1" stop-color="#06953F"/>
</linearGradient>
<clipPath id="clip0_731_1087">
<rect width="128" height="128" fill="white"/>
</clipPath>
</defs>
</svg>
