<?xml version="1.0" encoding="UTF-8" standalone="no"?>
<svg xmlns:inkscape="http://www.inkscape.org/namespaces/inkscape" xmlns:sodipodi="http://sodipodi.sourceforge.net/DTD/sodipodi-0.dtd" xmlns="http://www.w3.org/2000/svg" xmlns:svg="http://www.w3.org/2000/svg" width="24" height="24" viewBox="0 0 24 24" fill="none" version="1.1" id="svg4" sodipodi:docname="configure.svg" inkscape:version="1.4 (e7c3feb100, 2024-10-09)">
  <defs id="defs1">
    <style id="current-color-scheme" type="text/css">
      .ColorScheme-Text { color:#e6f0f5; }
      .ColorScheme-Text { color:#2179cb; }
      .ColorScheme-Background { color:#e4e4e4; }
    </style>
  </defs>
  <sodipodi:namedview id="namedview4" pagecolor="#ffffff" bordercolor="#ffffff" borderopacity="0.25" inkscape:showpageshadow="2" inkscape:pageopacity="0.0" inkscape:pagecheckerboard="0" inkscape:deskcolor="#d1d1d1" inkscape:zoom="22.627417" inkscape:cx="12.506951" inkscape:cy="9.0819027" inkscape:window-width="1920" inkscape:window-height="1008" inkscape:window-x="0" inkscape:window-y="0" inkscape:window-maximized="1" inkscape:current-layer="g4"/>
  <g clip-path="url(#clip0_1138_180)" id="g4">
    <path id="path2" style="fill:#ffffff;fill-opacity:1;stroke:#ffffff;stroke-width:1.3;stroke-linecap:round;stroke-linejoin:round;stroke-dasharray:none;stroke-opacity:1" d="M 21,7 H 14 M 10,7 H 3" sodipodi:nodetypes="cccc"/>
    <path id="path4" d="M 21,17 H 11 M 7,17 H 3 m 8,0 a 2,2 0 0 1 -2,2 2,2 0 0 1 -2,-2 2,2 0 0 1 2,-2 2,2 0 0 1 2,2 z" style="stroke:#ffffff;stroke-opacity:1;stroke-linejoin:round;stroke-linecap:round;stroke-width:1.3;stroke-dasharray:none"/>
    <path id="path1" style="fill:currentColor;stroke:currentColor;stroke-width:1.3;stroke-linecap:round;stroke-linejoin:round;stroke-dasharray:none;opacity:1" d="M 21,7 H 14 M 10,7 H 3" class="ColorScheme-Text" sodipodi:nodetypes="cccc"/>
    <path id="path3" d="M 21,17 H 11 M 7,17 H 3 m 8,0 a 2,2 0 0 1 -2,2 2,2 0 0 1 -2,-2 2,2 0 0 1 2,-2 2,2 0 0 1 2,2 z" style="stroke:currentColor;stroke-linejoin:round;stroke-linecap:round;stroke-width:1.3;stroke-dasharray:none;opacity:1" class="ColorScheme-Text"/>
    <circle style="fill:#ffffff;stroke:none;stroke-width:1.93584;stroke-linecap:round;stroke-linejoin:round" id="circle3" cx="11.754879" cy="6.9647818" r="2.6990085"/>
    <circle style="display:inline;opacity:1;fill:currentColor;stroke:none;stroke-width:1.93584;stroke-linecap:round;stroke-linejoin:round" class="ColorScheme-Text" id="circle4" cx="11.754879" cy="6.9647818" r="2.6990085"/>
  </g>
  <defs id="defs4">
    <clipPath id="clip0_1138_180">
      <rect width="24" height="24" fill="white" id="rect4"/>
    </clipPath>
  </defs>
</svg>
