<?xml version="1.0" encoding="UTF-8" standalone="no"?>
<svg
   width="24"
   height="24"
   viewBox="0 0 24 24"
   fill="none"
   version="1.1"
   id="svg2"
   sodipodi:docname="edit-undo.svg"
   inkscape:version="1.4 (e7c3feb100, 2024-10-09)"
   xmlns:inkscape="http://www.inkscape.org/namespaces/inkscape"
   xmlns:sodipodi="http://sodipodi.sourceforge.net/DTD/sodipodi-0.dtd"
   xmlns="http://www.w3.org/2000/svg"
   xmlns:svg="http://www.w3.org/2000/svg">
  <defs
     id="defs1">
    <style
       id="current-color-scheme"
       type="text/css">
      .ColorScheme-Text { color:#e6f0f5; }
      .ColorScheme-Text { color:#2179cb; }
      .ColorScheme-Background { color:#e4e4e4; }
    </style>
  </defs>
  <sodipodi:namedview
     id="namedview2"
     pagecolor="#ffffff"
     bordercolor="#ffffff"
     borderopacity="0.25"
     inkscape:showpageshadow="2"
     inkscape:pageopacity="0.0"
     inkscape:pagecheckerboard="0"
     inkscape:deskcolor="#d1d1d1"
     inkscape:zoom="33.291667"
     inkscape:cx="12"
     inkscape:cy="12"
     inkscape:window-width="1233"
     inkscape:window-height="1080"
     inkscape:window-x="0"
     inkscape:window-y="0"
     inkscape:window-maximized="0"
     inkscape:current-layer="svg2" />
  <g
     clip-path="url(#clip0_1171_288)"
     id="g2">
    <path
       id="path2"
       d="m 15,3 5,5 -5,5 m 0,6 h -5 c 0,0 0,0 0,0 0,0 -6,0 -6,-5.5 C 4,8 10,8 10,8 c 0,0 0,0 0,0 h 9"
       style="stroke:#ffffff;stroke-opacity:1;stroke-width:1.2;stroke-dasharray:none;stroke-linejoin:round;stroke-linecap:round" />
    <path
       id="path1"
       d="m 15,3 5,5 -5,5 m 0,6 h -5 c 0,0 0,0 0,0 0,0 -6,0 -6,-5.5 C 4,8 10,8 10,8 c 0,0 0,0 0,0 h 9"
       style="stroke:currentColor;opacity:1;stroke-width:1.2;stroke-dasharray:none;stroke-linejoin:round;stroke-linecap:round"
       class="ColorScheme-Text" />
  </g>
  <defs
     id="defs2">
    <clipPath
       id="clip0_1171_288">
      <rect
         width="24"
         height="24"
         fill="white"
         transform="matrix(-1 0 0 1 24 0)"
         id="rect2" />
    </clipPath>
  </defs>
</svg>
