<?xml version="1.0"?>
<svg xmlns="http://www.w3.org/2000/svg" width="24" height="24" viewBox="0 0 24 24" fill="none">
    <defs id="defs1">
        <style id="current-color-scheme" type="text/css">
            .ColorScheme-Text { color:#e6f0f5; }
            .ColorScheme-Text { color:#2179cb; }
            .ColorScheme-Background { color:#e4e4e4; }
        </style>
    </defs>
    <path d="M14 9L8 15M8 9L14 15" stroke="#ffffff" stroke-width="1.2" stroke-linecap="round"/>
    <path d="M5 20H14.1716C14.702 20 15.2107 19.7893 15.5858 19.4142L21.5858 13.4142C22.3668 12.6332 22.3668 11.3668 21.5858 10.5858L15.5858 4.58579C15.2107 4.21071 14.702 4 14.1716 4H5C3.89543 4 3 4.89543 3 6V18C3 19.1046 3.89543 20 5 20Z" stroke="#ffffff" stroke-width="1.2" stroke-linecap="round"/>
    <path d="M14 9L8 15M8 9L14 15" style="stroke:currentColor;opacity:1" class="ColorScheme-Text" stroke-width="1.2" stroke-linecap="round"/>
    <path d="M5 20H14.1716C14.702 20 15.2107 19.7893 15.5858 19.4142L21.5858 13.4142C22.3668 12.6332 22.3668 11.3668 21.5858 10.5858L15.5858 4.58579C15.2107 4.21071 14.702 4 14.1716 4H5C3.89543 4 3 4.89543 3 6V18C3 19.1046 3.89543 20 5 20Z" style="stroke:currentColor;opacity:1" class="ColorScheme-Text" stroke-width="1.2" stroke-linecap="round"/>
</svg>
