<?xml version="1.0" encoding="UTF-8" standalone="no"?>
<svg xmlns:inkscape="http://www.inkscape.org/namespaces/inkscape" xmlns:sodipodi="http://sodipodi.sourceforge.net/DTD/sodipodi-0.dtd" xmlns="http://www.w3.org/2000/svg" xmlns:svg="http://www.w3.org/2000/svg" width="24" height="24" viewBox="0 0 24 24" fill="none" version="1.1" id="svg3" sodipodi:docname="entry-edit.svg" inkscape:version="1.4 (e7c3feb100, 2024-10-09)">
   <defs id="defs1">
      <style id="current-color-scheme" type="text/css">
         .ColorScheme-Text { color:#e6f0f5; }
         .ColorScheme-Text { color:#2179cb; }
         .ColorScheme-Background { color:#e4e4e4; }
      </style>
   </defs>
   <defs id="defs3"/>
   <sodipodi:namedview id="namedview3" pagecolor="#ffffff" bordercolor="#ffffff" borderopacity="0.25" inkscape:showpageshadow="2" inkscape:pageopacity="0.0" inkscape:pagecheckerboard="0" inkscape:deskcolor="#d1d1d1" inkscape:zoom="33.291667" inkscape:cx="11.984981" inkscape:cy="12" inkscape:window-width="1920" inkscape:window-height="1008" inkscape:window-x="0" inkscape:window-y="0" inkscape:window-maximized="1" inkscape:current-layer="svg3"/>
   <path id="path3" d="m 4,16 c 0.5,0.1667 1.7,0.7 2.5,1.5 0.8,0.8 1.33333,2 1.5,2.5 m 6,-14 4,4 M 4.29289,15.7071 15.2929,4.70711 c 0.3905,-0.39053 1.0237,-0.39053 1.4142,0 l 2.5858,2.58578 c 0.3905,0.39053 0.3905,1.02369 0,1.41422 L 8.29289,19.7071 C 8.10536,19.8946 7.851,20 7.58579,20 H 5 C 4.44772,20 4,19.5523 4,19 V 16.4142 C 4,16.149 4.10536,15.8946 4.29289,15.7071 Z" style="stroke:#ffffff;stroke-opacity:1"/>
   <path id="path3" d="m 4,16 c 0.5,0.1667 1.7,0.7 2.5,1.5 0.8,0.8 1.33333,2 1.5,2.5 m 6,-14 4,4 M 4.29289,15.7071 15.2929,4.70711 c 0.3905,-0.39053 1.0237,-0.39053 1.4142,0 l 2.5858,2.58578 c 0.3905,0.39053 0.3905,1.02369 0,1.41422 L 8.29289,19.7071 C 8.10536,19.8946 7.851,20 7.58579,20 H 5 C 4.44772,20 4,19.5523 4,19 V 16.4142 C 4,16.149 4.10536,15.8946 4.29289,15.7071 Z" style="stroke:currentColor;opacity:1" class="ColorScheme-Text"/>
</svg>
