<?xml version="1.0" encoding="UTF-8" standalone="no"?>
<svg xmlns:inkscape="http://www.inkscape.org/namespaces/inkscape" xmlns:sodipodi="http://sodipodi.sourceforge.net/DTD/sodipodi-0.dtd" xmlns="http://www.w3.org/2000/svg" xmlns:svg="http://www.w3.org/2000/svg" width="24" height="24" viewBox="0 0 24 24" fill="none" version="1.1" id="svg4" sodipodi:docname="media-playlist-shuffle.svg" inkscape:version="1.4 (e7c3feb100, 2024-10-09)">
   <defs id="defs1">
      <style id="current-color-scheme" type="text/css">
         .ColorScheme-Text { color:#e6f0f5; }
         .ColorScheme-Text { color:#2179cb; }
         .ColorScheme-Background { color:#e4e4e4; }
      </style>
   </defs>
   <defs id="defs4"/>
   <sodipodi:namedview id="namedview4" pagecolor="#ffffff" bordercolor="#ffffff" borderopacity="0.25" inkscape:showpageshadow="2" inkscape:pageopacity="0.0" inkscape:pagecheckerboard="0" inkscape:deskcolor="#d1d1d1" inkscape:zoom="33.291667" inkscape:cx="11.984981" inkscape:cy="12" inkscape:window-width="1920" inkscape:window-height="1008" inkscape:window-x="0" inkscape:window-y="0" inkscape:window-maximized="1" inkscape:current-layer="svg4"/>
   <path id="path4" style="stroke:#ffffff;stroke-opacity:1;stroke-linejoin:round;stroke-linecap:round;stroke-width:1.2;stroke-dasharray:none" d="M 4,7 H 6.58452 C 8.39328,7 10.0694,7.94901 11,9.5 v 0 M 20,17 H 16.6213 C 15.2631,17 13.9604,16.4604 13,15.5 v 0 m 5,3.5 2,-2 -2,-2 m 2,-8 h -2.7037 c -2.7614,0 -5,2.23858 -5,5 v 0 c 0,2.7614 -2.2386,5 -5,5 H 4 M 18,5 20,7 18,9"/>
   <path id="path4" style="stroke:currentColor;opacity:1;stroke-linejoin:round;stroke-linecap:round;stroke-width:1.2;stroke-dasharray:none" d="M 4,7 H 6.58452 C 8.39328,7 10.0694,7.94901 11,9.5 v 0 M 20,17 H 16.6213 C 15.2631,17 13.9604,16.4604 13,15.5 v 0 m 5,3.5 2,-2 -2,-2 m 2,-8 h -2.7037 c -2.7614,0 -5,2.23858 -5,5 v 0 c 0,2.7614 -2.2386,5 -5,5 H 4 M 18,5 20,7 18,9" class="ColorScheme-Text"/>
</svg>
