<?xml version="1.0"?>
<svg xmlns="http://www.w3.org/2000/svg" width="24" height="24" viewBox="0 0 24 24" fill="none">
    <defs id="defs1">
        <style id="current-color-scheme" type="text/css">
            .ColorScheme-Text { color:#e6f0f5; }
            .ColorScheme-Text { color:#2179cb; }
            .ColorScheme-Background { color:#e4e4e4; }
        </style>
    </defs>
    <path d="M14.5369 18.022L22.6742 12.8437C23.2917 12.4507 23.2917 11.5493 22.6742 11.1563L14.5369 5.97801C13.8711 5.55437 13 6.03258 13 6.82167L13 17.1783C13 17.9674 13.8712 18.4456 14.5369 18.022Z" stroke="#ffffff" stroke-width="1.2" stroke-linecap="round" stroke-linejoin="round"/>
    <path d="M2.53688 18.022L10.6742 12.8437C11.2917 12.4507 11.2917 11.5493 10.6742 11.1563L2.53688 5.97801C1.87115 5.55437 0.999999 6.03258 0.999999 6.82167L1 17.1783C1 17.9674 1.87115 18.4456 2.53688 18.022Z" stroke="#ffffff" stroke-width="1.2" stroke-linecap="round" stroke-linejoin="round"/>
    <path d="M14.5369 18.022L22.6742 12.8437C23.2917 12.4507 23.2917 11.5493 22.6742 11.1563L14.5369 5.97801C13.8711 5.55437 13 6.03258 13 6.82167L13 17.1783C13 17.9674 13.8712 18.4456 14.5369 18.022Z" style="stroke:currentColor;opacity:1" class="ColorScheme-Text" stroke-width="1.2" stroke-linecap="round" stroke-linejoin="round"/>
    <path d="M2.53688 18.022L10.6742 12.8437C11.2917 12.4507 11.2917 11.5493 10.6742 11.1563L2.53688 5.97801C1.87115 5.55437 0.999999 6.03258 0.999999 6.82167L1 17.1783C1 17.9674 1.87115 18.4456 2.53688 18.022Z" style="stroke:currentColor;opacity:1" class="ColorScheme-Text" stroke-width="1.2" stroke-linecap="round" stroke-linejoin="round"/>
</svg>
