<?xml version="1.0" encoding="UTF-8" standalone="no"?>
<svg xmlns:inkscape="http://www.inkscape.org/namespaces/inkscape" xmlns:sodipodi="http://sodipodi.sourceforge.net/DTD/sodipodi-0.dtd" xmlns="http://www.w3.org/2000/svg" xmlns:svg="http://www.w3.org/2000/svg" width="24" height="24" viewBox="0 0 24 24" fill="none" version="1.1" id="svg4" sodipodi:docname="replace.svg" inkscape:version="1.4 (e7c3feb100, 2024-10-09)">
  <defs id="defs1">
    <style id="current-color-scheme" type="text/css">
      .ColorScheme-Text { color:#e6f0f5; }
      .ColorScheme-Text { color:#2179cb; }
      .ColorScheme-Background { color:#e4e4e4; }
    </style>
  </defs>
  <sodipodi:namedview id="namedview4" pagecolor="#ffffff" bordercolor="#ffffff" borderopacity="0.25" inkscape:showpageshadow="2" inkscape:pageopacity="0.0" inkscape:pagecheckerboard="0" inkscape:deskcolor="#d1d1d1" inkscape:zoom="33.291667" inkscape:cx="11.984981" inkscape:cy="12" inkscape:window-width="1920" inkscape:window-height="1008" inkscape:window-x="0" inkscape:window-y="0" inkscape:window-maximized="1" inkscape:current-layer="g4"/>
  <g clip-path="url(#clip0_3570_725)" id="g4">
    <path id="circle1" style="display:inline;stroke:#ffffff;stroke-width:1.2;stroke-linecap:round" d="m 17.6,10.6 a 7,7 0 0 1 -7,7 7,7 0 0 1 -7,-7 7,7 0 0 1 7,-7 7,7 0 0 1 7,7 z m -2,5 4,4"/>
    <circle cx="6.6996245" cy="10.579474" r="1" fill="#ffffff" id="circle2"/>
    <circle cx="10.699624" cy="10.579474" r="1" fill="#ffffff" id="circle3"/>
    <circle cx="14.699624" cy="10.579474" r="1" fill="#ffffff" id="circle4"/>
    <path id="circle1" style="display:inline;stroke:currentColor;opacity:1;stroke-width:1.2;stroke-linecap:round" class="ColorScheme-Text" d="m 17.6,10.6 a 7,7 0 0 1 -7,7 7,7 0 0 1 -7,-7 7,7 0 0 1 7,-7 7,7 0 0 1 7,7 z m -2,5 4,4"/>
    <circle cx="6.6996245" cy="10.579474" r="1" style="fill:currentColor;opacity:1;" class="ColorScheme-Text" id="circle2"/>
    <circle cx="10.699624" cy="10.579474" r="1" style="fill:currentColor;opacity:1;" class="ColorScheme-Text" id="circle3"/>
    <circle cx="14.699624" cy="10.579474" r="1" style="fill:currentColor;opacity:1;" class="ColorScheme-Text" id="circle4"/>
  </g>
  <defs id="defs4">
    <clipPath id="clip0_3570_725">
      <rect width="24" height="24" fill="white" id="rect4"/>
    </clipPath>
  </defs>
</svg>
