<?xml version="1.0" encoding="UTF-8" standalone="no"?>
<svg xmlns:inkscape="http://www.inkscape.org/namespaces/inkscape" xmlns:sodipodi="http://sodipodi.sourceforge.net/DTD/sodipodi-0.dtd" xmlns="http://www.w3.org/2000/svg" xmlns:svg="http://www.w3.org/2000/svg" width="24" height="24" viewBox="0 0 24 24" fill="none" version="1.1" id="svg4" sodipodi:docname="tab-new.svg" inkscape:version="1.4 (e7c3feb100, 2024-10-09)">
  <defs id="defs1">
    <style id="current-color-scheme" type="text/css">
      .ColorScheme-Text { color:#e6f0f5; }
      .ColorScheme-Text { color:#2179cb; }
      .ColorScheme-Background { color:#e4e4e4; }
    </style>
  </defs>
  <sodipodi:namedview id="namedview4" pagecolor="#ffffff" bordercolor="#ffffff" borderopacity="0.25" inkscape:showpageshadow="2" inkscape:pageopacity="0.0" inkscape:pagecheckerboard="0" inkscape:deskcolor="#d1d1d1" inkscape:zoom="33.291667" inkscape:cx="11.984981" inkscape:cy="12" inkscape:window-width="1920" inkscape:window-height="1008" inkscape:window-x="0" inkscape:window-y="0" inkscape:window-maximized="1" inkscape:current-layer="g4"/>
  <g clip-path="url(#clip0_3062_227)" id="g4">
    <path id="path3" d="m 18,16 v 6 m -3,-3 h 6" style="stroke:#ffffff;stroke-opacity:1;stroke-linejoin:round;stroke-linecap:round"/>
    <path id="path4" d="M 16,7 V 6 C 16,4.89543 15.1046,4 14,4 h -2 c -1.1046,0 -2,0.89543 -2,2 v 1 m 2,13 H 6 C 4.89543,20 4,19.1046 4,18 V 6 C 4,4.89543 4.89543,4 6,4 h 2 c 1.10457,0 2,0.89543 2,2 v 1 h 8 c 1.1046,0 2,0.89543 2,2 v 4" style="stroke:#ffffff;stroke-opacity:1;stroke-linecap:round;stroke-linejoin:round"/>
    <path id="path3" d="m 18,16 v 6 m -3,-3 h 6" style="stroke:currentColor;opacity:1;stroke-linejoin:round;stroke-linecap:round" class="ColorScheme-Text"/>
    <path id="path4" d="M 16,7 V 6 C 16,4.89543 15.1046,4 14,4 h -2 c -1.1046,0 -2,0.89543 -2,2 v 1 m 2,13 H 6 C 4.89543,20 4,19.1046 4,18 V 6 C 4,4.89543 4.89543,4 6,4 h 2 c 1.10457,0 2,0.89543 2,2 v 1 h 8 c 1.1046,0 2,0.89543 2,2 v 4" style="stroke:currentColor;opacity:1;stroke-linecap:round;stroke-linejoin:round" class="ColorScheme-Text"/>
  </g>
  <defs id="defs4">
    <clipPath id="clip0_3062_227">
      <rect width="24" height="24" fill="white" id="rect4"/>
    </clipPath>
  </defs>
</svg>
