<?xml version="1.0" encoding="UTF-8" standalone="no"?>
<svg xmlns:inkscape="http://www.inkscape.org/namespaces/inkscape" xmlns:sodipodi="http://sodipodi.sourceforge.net/DTD/sodipodi-0.dtd" xmlns="http://www.w3.org/2000/svg" xmlns:svg="http://www.w3.org/2000/svg" width="24" height="24" viewBox="0 0 24 24" fill="none" version="1.1" id="svg2" sodipodi:docname="view-visible.svg" inkscape:version="1.4 (e7c3feb100, 2024-10-09)">
    <defs id="defs1">
        <style id="current-color-scheme" type="text/css">
            .ColorScheme-Text { color:#e6f0f5; }
            .ColorScheme-Text { color:#2179cb; }
            .ColorScheme-Background { color:#e4e4e4; }
        </style>
    </defs>
    <defs id="defs2"/>
    <sodipodi:namedview id="namedview2" pagecolor="#ffffff" bordercolor="#ffffff" borderopacity="0.25" inkscape:showpageshadow="2" inkscape:pageopacity="0.0" inkscape:pagecheckerboard="0" inkscape:deskcolor="#d1d1d1" inkscape:zoom="33.291667" inkscape:cx="11.984981" inkscape:cy="12" inkscape:window-width="1920" inkscape:window-height="1008" inkscape:window-x="0" inkscape:window-y="0" inkscape:window-maximized="1" inkscape:current-layer="svg2"/>
    <path id="circle1" style="stroke:#ffffff;stroke-width:1.2;fill:none;fill-opacity:1;stroke-linecap:round;stroke-linejoin:round" d="m 17,13 a 5,5 0 0 1 -5,5 5,5 0 0 1 -5,-5 5,5 0 0 1 5,-5 5,5 0 0 1 5,5 z M 3,12 c 1.22727,-1.3333 4.74545,-4 9,-4 4.2545,0 7.7727,2.6667 9,4"/>
    <path fill-rule="evenodd" clip-rule="evenodd" d="M14.9888 12.7389C14.6972 12.9051 14.3597 13 14 13C12.8954 13 12 12.1046 12 11C12 10.6403 12.0949 10.3028 12.2611 10.0112C12.1751 10.0038 12.088 10 12 10C10.3431 10 9 11.3431 9 13C9 14.6569 10.3431 16 12 16C13.6569 16 15 14.6569 15 13C15 12.912 14.9962 12.8249 14.9888 12.7389Z" fill="#ffffff" id="path2"/>
    <path id="circle1" style="stroke:currentColor;stroke-width:1.2;fill:none;opacity:1;stroke-linecap:round;stroke-linejoin:round" d="m 17,13 a 5,5 0 0 1 -5,5 5,5 0 0 1 -5,-5 5,5 0 0 1 5,-5 5,5 0 0 1 5,5 z M 3,12 c 1.22727,-1.3333 4.74545,-4 9,-4 4.2545,0 7.7727,2.6667 9,4" class="ColorScheme-Text"/>
    <path fill-rule="evenodd" clip-rule="evenodd" d="M14.9888 12.7389C14.6972 12.9051 14.3597 13 14 13C12.8954 13 12 12.1046 12 11C12 10.6403 12.0949 10.3028 12.2611 10.0112C12.1751 10.0038 12.088 10 12 10C10.3431 10 9 11.3431 9 13C9 14.6569 10.3431 16 12 16C13.6569 16 15 14.6569 15 13C15 12.912 14.9962 12.8249 14.9888 12.7389Z" style="fill:currentColor;opacity:1" class="ColorScheme-Text" id="path2"/>
</svg>
