<?xml version="1.0" encoding="UTF-8" standalone="no"?>
<svg xmlns:inkscape="http://www.inkscape.org/namespaces/inkscape" xmlns:sodipodi="http://sodipodi.sourceforge.net/DTD/sodipodi-0.dtd" xmlns="http://www.w3.org/2000/svg" xmlns:svg="http://www.w3.org/2000/svg" width="24" height="24" viewBox="0 0 24 24" fill="none" version="1.1" id="svg4" sodipodi:docname="view-right-close-symbolic.svg" inkscape:version="1.4 (e7c3feb100, 2024-10-09)">
  <defs id="defs1">
    <style id="current-color-scheme" type="text/css">
      .ColorScheme-Text { color:#e6f0f5; }
      .ColorScheme-Text { color:#2179cb; }
      .ColorScheme-Background { color:#e4e4e4; }
    </style>
  </defs>
  <sodipodi:namedview id="namedview4" pagecolor="#ffffff" bordercolor="#ffffff" borderopacity="0.25" inkscape:showpageshadow="2" inkscape:pageopacity="0.0" inkscape:pagecheckerboard="0" inkscape:deskcolor="#d1d1d1" inkscape:zoom="33.291667" inkscape:cx="11.984981" inkscape:cy="12" inkscape:window-width="1920" inkscape:window-height="1008" inkscape:window-x="0" inkscape:window-y="0" inkscape:window-maximized="1" inkscape:current-layer="svg4"/>
  <g clip-path="url(#clip0_1178_213)" id="g4">
    <path id="path4" d="m 15.9995,12 -4,4 m 0.001,-4 4,4 M 8,8 V 20 M 4,8 H 20 M 6,4 h 12 c 1.108,0 2,0.892 2,2 v 12 c 0,1.108 -0.892,2 -2,2 H 6 C 4.892,20 4,19.108 4,18 V 6 C 4,4.892 4.892,4 6,4 Z" style="stroke:#ffffff;stroke-opacity:1;stroke-linejoin:round;stroke-linecap:round"/>
    <path id="path4" d="m 15.9995,12 -4,4 m 0.001,-4 4,4 M 8,8 V 20 M 4,8 H 20 M 6,4 h 12 c 1.108,0 2,0.892 2,2 v 12 c 0,1.108 -0.892,2 -2,2 H 6 C 4.892,20 4,19.108 4,18 V 6 C 4,4.892 4.892,4 6,4 Z" style="stroke:currentColor;opacity:1;stroke-linejoin:round;stroke-linecap:round" class="ColorScheme-Text"/>
  </g>
  <defs id="defs4">
    <clipPath id="clip0_1178_213">
      <rect width="24" height="24" fill="white" id="rect4"/>
    </clipPath>
  </defs>
</svg>
