<svg width="128" height="128" viewBox="0 0 128 128" fill="none" xmlns="http://www.w3.org/2000/svg">
<g clip-path="url(#clip0_3144_340)">
<path d="M19 17C19 13.6863 21.6863 11 25 11L86.5147 11C88.106 11 89.6321 11.6321 90.7574 12.7574L107.243 29.2426C108.368 30.3679 109 31.894 109 33.4853V115C109 118.314 106.314 121 103 121H25C21.6863 121 19 118.314 19 115V17Z" fill="black" fill-opacity="0.15"/>
<path d="M19 15C19 11.6863 21.6863 9 25 9L86.5147 9C88.106 9 89.6321 9.63214 90.7574 10.7574L107.243 27.2426C108.368 28.3679 109 29.894 109 31.4853V113C109 116.314 106.314 119 103 119H25C21.6863 119 19 116.314 19 113V15Z" fill="url(#paint0_linear_3144_340)"/>
<path d="M86 9H86.576C88.2116 9 89.7762 9.6677 90.9079 10.8486L107.332 27.9867C108.402 29.1037 109 30.591 109 32.1381V33C108.361 31.6666 107.014 30.8182 105.535 30.8182H94.0909C90.7772 30.8182 88.0909 28.1319 88.0909 24.8182V12.4493C88.0909 10.9998 87.2851 9.67049 86 9Z" fill="black" fill-opacity="0.15"/>
<path d="M87 9H87.5147C89.106 9 90.6321 9.63214 91.7574 10.7574L107.243 26.2426C108.368 27.3679 109 28.894 109 30.4853V31C108.387 29.7743 107.134 29 105.764 29H95C91.6863 29 89 26.3137 89 23V12.2361C89 10.8657 88.2257 9.61287 87 9Z" fill="#F95D5D"/>
<path fill-rule="evenodd" clip-rule="evenodd" d="M56.7243 65.5448C57.9222 62.4824 59.4072 58.4631 59.9063 56.7405C59.7822 56.3597 59.5757 55.9134 59.3294 55.381C58.4614 53.5049 57.0986 50.5593 57.0986 45.6395C57.0986 35.6869 66.8321 37.7923 66.8321 46.2137C66.8321 52.9509 66 56 65 59.5C65.6239 60.457 66.5326 62.2527 67.5809 63.6308C68.6291 65.0089 70.6382 67.1397 71.5117 68.0329C71.5117 68.0329 77.1578 67.071 82.3683 67.6501C90.9787 68.6071 90.9787 77.0285 83.6786 77.0285C77.8385 77.0285 72.3852 73.3282 70.3886 71.4781C69.2031 71.6057 66.3455 72.014 64.3988 72.6264C62.4521 73.2389 59.4696 74.5404 58.2217 75.1146C57.9497 75.498 57.6304 75.9808 57.2623 76.5373C55.2724 79.5462 51.8588 84.7077 46.8034 87.9381C40.8131 91.7661 36.5087 84.3016 40.6266 80.4737C44.7016 76.6856 49.6936 74.7718 52.6993 73.6195L52.7934 73.5834C53.4798 72.3712 55.5263 68.6071 56.7243 65.5448ZM50 76C47.7905 77.1022 43.0132 79.8511 41.5801 82.0295C39.7886 84.7526 42.4758 86.5031 45.163 83.1965C47.3128 80.5513 49.2834 77.2967 50 76ZM64 44.8361C64 48.9279 62.5185 52.6503 61.7778 54C61.1852 52.6503 60 48.9279 60 44.8361C60 39.7213 64 39.7213 64 44.8361ZM63.5714 63C63.381 63.7805 62.4258 66.1099 61.7778 67.4375C60.8492 69.34 60.2857 70.2846 60 71C60.381 70.8049 62.4286 70.2976 63.5714 69.8293C64.7143 69.361 66.381 68.9837 67 68.8537C66.619 68.3333 65.8571 67.0976 65.1429 65.9268C64.8126 65.3856 64.4383 64.6608 64.0993 64.0043C63.9072 63.6323 63.7264 63.2823 63.5714 63ZM80.5713 73.9175C77.7022 73.3297 74.0626 71.1622 73 70.2437C73.225 70.2264 73.4399 70.2095 73.6478 70.193C75.6493 70.0349 77.0163 69.9269 80.7705 70.06C85.9509 70.2437 84.1577 74.6522 80.5713 73.9175Z" fill="#D9D9D9"/>
</g>
<defs>
<linearGradient id="paint0_linear_3144_340" x1="64" y1="9" x2="64" y2="119" gradientUnits="userSpaceOnUse">
<stop stop-color="#FF3E3E"/>
<stop offset="1" stop-color="#CF000F"/>
</linearGradient>
<clipPath id="clip0_3144_340">
<rect width="128" height="128" fill="white"/>
</clipPath>
</defs>
</svg>
