<svg width="128" height="128" viewBox="0 0 128 128" fill="none" xmlns="http://www.w3.org/2000/svg">
<g clip-path="url(#clip0_3181_379)">
<path d="M19 17C19 13.6863 21.6863 11 25 11L86.5147 11C88.106 11 89.6321 11.6321 90.7574 12.7574L107.243 29.2426C108.368 30.3679 109 31.894 109 33.4853V115C109 118.314 106.314 121 103 121H25C21.6863 121 19 118.314 19 115V17Z" fill="black" fill-opacity="0.15"/>
<path d="M19 15C19 11.6863 21.6863 9 25 9L86.5147 9C88.106 9 89.6321 9.63214 90.7574 10.7574L107.243 27.2426C108.368 28.3679 109 29.894 109 31.4853V113C109 116.314 106.314 119 103 119H25C21.6863 119 19 116.314 19 113V15Z" fill="url(#paint0_linear_3181_379)"/>
<path d="M86 9H86.576C88.2116 9 89.7762 9.6677 90.9079 10.8486L107.332 27.9867C108.402 29.1037 109 30.591 109 32.1381V33C108.361 31.6666 107.014 30.8182 105.535 30.8182H94.0909C90.7772 30.8182 88.0909 28.1319 88.0909 24.8182V12.4493C88.0909 10.9998 87.2851 9.67049 86 9Z" fill="black" fill-opacity="0.15"/>
<path d="M87 9H87.5147C89.106 9 90.6321 9.63214 91.7574 10.7574L107.243 26.2426C108.368 27.3679 109 28.894 109 30.4853V31C108.387 29.7743 107.134 29 105.764 29H95C91.6863 29 89 26.3137 89 23V12.2361C89 10.8657 88.2257 9.61287 87 9Z" fill="#FFA4D5"/>
<path d="M61.1148 60.9452C61.1148 51.9899 69.7705 52.3991 74.0984 53.7232C70.8525 50.1122 60.0328 51.5566 60.0328 59.5008C60.0328 66.7229 62.5574 72.5005 69.7705 72.5005C75.541 72.5005 86 67.8062 86 54.4454C86 41.0846 76.2623 38.5565 67.9672 37.1121C62.9927 36.2459 42 40.001 42 62.3896C42 82.9002 59.3115 90.676 67.9672 92C60.0328 89.6001 45.9672 84.0555 45.9672 60.9452C45.9672 50.0237 57.2086 42.0608 66.8852 42.1676C75.1255 42.2585 82.0328 48.8643 82.0328 57.3342C82.0328 75.7504 61.1148 72.1394 61.1148 60.9452Z" fill="url(#paint1_linear_3181_379)"/>
</g>
<defs>
<linearGradient id="paint0_linear_3181_379" x1="49" y1="9" x2="119.108" y2="81.8396" gradientUnits="userSpaceOnUse">
<stop stop-color="#FFA4D5"/>
<stop offset="1" stop-color="#ED3D72"/>
</linearGradient>
<linearGradient id="paint1_linear_3181_379" x1="64" y1="37" x2="64" y2="92" gradientUnits="userSpaceOnUse">
<stop stop-color="#FFEEEE"/>
<stop offset="1" stop-color="#FBD2BF"/>
</linearGradient>
<clipPath id="clip0_3181_379">
<rect width="128" height="128" fill="white"/>
</clipPath>
</defs>
</svg>
