<svg width="128" height="128" viewBox="0 0 128 128" fill="none" xmlns="http://www.w3.org/2000/svg">
<g clip-path="url(#clip0_3139_258)">
<path d="M19 17C19 13.6863 21.6863 11 25 11L86.5147 11C88.106 11 89.6321 11.6321 90.7574 12.7574L107.243 29.2426C108.368 30.3679 109 31.894 109 33.4853V115C109 118.314 106.314 121 103 121H25C21.6863 121 19 118.314 19 115V17Z" fill="black" fill-opacity="0.15"/>
<path d="M19 15C19 11.6863 21.6863 9 25 9L86.5147 9C88.106 9 89.6321 9.63214 90.7574 10.7574L107.243 27.2426C108.368 28.3679 109 29.894 109 31.4853V113C109 116.314 106.314 119 103 119H25C21.6863 119 19 116.314 19 113V15Z" fill="url(#paint0_linear_3139_258)"/>
<path d="M86 9H86.576C88.2116 9 89.7762 9.6677 90.9079 10.8486L107.332 27.9867C108.402 29.1037 109 30.591 109 32.1381V33C108.361 31.6666 107.014 30.8182 105.535 30.8182H94.0909C90.7772 30.8182 88.0909 28.1319 88.0909 24.8182V12.4493C88.0909 10.9998 87.2851 9.67049 86 9Z" fill="black" fill-opacity="0.15"/>
<path d="M87 9H87.5147C89.106 9 90.6321 9.63214 91.7574 10.7574L107.243 26.2426C108.368 27.3679 109 28.894 109 30.4853V31C108.387 29.7743 107.134 29 105.764 29H95C91.6863 29 89 26.3137 89 23V12.2361C89 10.8657 88.2257 9.61287 87 9Z" fill="#FFC328"/>
<path d="M58 31C55 31 53.5 32.5 53.5 35.5C53.5 37 53.5 40 53.5 41.5C53.5 44.5 52 46 49 46C52 46 53.5 47.5 53.5 50.5V56.5C53.5 59.5 55 61 58 61M70 31C73 31 74.5 32.5 74.5 35.5V41.5C74.5 44.5 76 46 79 46C76 46 74.5 47.5 74.5 50.5V56.5C74.5 59.5 73 61 70 61" stroke="#FFF8E2" stroke-width="3" stroke-linejoin="round"/>
<path d="M50.8457 92.1816C50.8457 92.7806 50.7513 93.3275 50.5625 93.8223C50.3737 94.3171 50.097 94.7402 49.7324 95.0918C49.3678 95.4434 48.9154 95.7168 48.375 95.9121C47.8346 96.1009 47.2064 96.1953 46.4902 96.1953C45.9629 96.1953 45.4551 96.1335 44.9668 96.0098C44.4785 95.8861 44.0521 95.7298 43.6875 95.541V93.2168C43.8503 93.3535 44.0391 93.4805 44.2539 93.5977C44.4753 93.7148 44.7096 93.819 44.957 93.9102C45.2044 93.9948 45.4583 94.0632 45.7188 94.1152C45.9792 94.1608 46.2363 94.1836 46.4902 94.1836C46.7051 94.1836 46.9264 94.1445 47.1543 94.0664C47.3887 93.9883 47.597 93.8581 47.7793 93.6758C47.9616 93.4935 48.1113 93.2559 48.2285 92.9629C48.3457 92.6634 48.4043 92.2956 48.4043 91.8594V85.2188H43.7852V83.2363H50.8457V92.1816ZM62.9648 92.1426C62.9648 92.8392 62.8346 93.4447 62.5742 93.959C62.3203 94.4733 61.9622 94.8997 61.5 95.2383C61.0378 95.5703 60.4876 95.8177 59.8496 95.9805C59.2116 96.1432 58.515 96.2246 57.7598 96.2246C57.0892 96.2246 56.4414 96.1855 55.8164 96.1074C55.1914 96.0293 54.5729 95.8991 53.9609 95.7168V93.3438C54.2604 93.4479 54.5729 93.5456 54.8984 93.6367C55.224 93.7279 55.5495 93.8092 55.875 93.8809C56.207 93.946 56.5358 93.998 56.8613 94.0371C57.1868 94.0762 57.5026 94.0957 57.8086 94.0957C58.2643 94.0957 58.6517 94.0566 58.9707 93.9785C59.2897 93.9004 59.5501 93.793 59.752 93.6562C59.9538 93.5195 60.1003 93.3568 60.1914 93.168C60.2826 92.9792 60.3281 92.7708 60.3281 92.543C60.3281 92.2305 60.237 91.9701 60.0547 91.7617C59.8789 91.5469 59.6445 91.3581 59.3516 91.1953C59.0586 91.0326 58.7233 90.8861 58.3457 90.7559C57.9746 90.6257 57.5938 90.4857 57.2031 90.3359C56.819 90.1862 56.4382 90.0169 56.0605 89.8281C55.6895 89.6393 55.3574 89.4049 55.0645 89.125C54.7715 88.8451 54.5339 88.513 54.3516 88.1289C54.1758 87.7383 54.0879 87.2695 54.0879 86.7227C54.0879 86.2214 54.179 85.7461 54.3613 85.2969C54.5436 84.8477 54.8301 84.457 55.2207 84.125C55.6113 83.7865 56.1126 83.5195 56.7246 83.3242C57.3366 83.1224 58.0755 83.0215 58.9414 83.0215C59.1953 83.0215 59.459 83.0345 59.7324 83.0605C60.0124 83.0801 60.2858 83.1094 60.5527 83.1484C60.8262 83.181 61.0866 83.2233 61.334 83.2754C61.5879 83.321 61.819 83.3698 62.0273 83.4219V85.6191C61.819 85.541 61.5911 85.4694 61.3438 85.4043C61.0964 85.3392 60.8392 85.2839 60.5723 85.2383C60.3118 85.1862 60.0482 85.1471 59.7812 85.1211C59.5143 85.0951 59.2604 85.082 59.0195 85.082C58.5964 85.082 58.2383 85.1178 57.9453 85.1895C57.6523 85.2546 57.4115 85.349 57.2227 85.4727C57.0339 85.5898 56.8971 85.7363 56.8125 85.9121C56.7279 86.0879 56.6855 86.2832 56.6855 86.498C56.6855 86.765 56.7734 86.9961 56.9492 87.1914C57.1315 87.3802 57.3691 87.5527 57.6621 87.709C57.9616 87.8587 58.2969 88.002 58.668 88.1387C59.0456 88.2689 59.4297 88.4121 59.8203 88.5684C60.2174 88.7181 60.6016 88.8906 60.9727 89.0859C61.3503 89.2812 61.6855 89.5189 61.9785 89.7988C62.278 90.0788 62.5156 90.4108 62.6914 90.7949C62.8737 91.1725 62.9648 91.6217 62.9648 92.1426ZM74.6348 89.5645C74.6348 90.7233 74.498 91.7227 74.2246 92.5625C73.9577 93.4023 73.5866 94.0924 73.1113 94.6328C72.6426 95.1732 72.0892 95.5736 71.4512 95.834C70.8197 96.0944 70.1426 96.2246 69.4199 96.2246C67.7402 96.2246 66.4772 95.668 65.6309 94.5547C64.7845 93.4349 64.3613 91.8105 64.3613 89.6816C64.3613 88.5228 64.4948 87.5234 64.7617 86.6836C65.0352 85.8438 65.4062 85.1536 65.875 84.6133C66.3503 84.0729 66.9036 83.6725 67.5352 83.4121C68.1732 83.1517 68.8535 83.0215 69.5762 83.0215C71.2559 83.0215 72.5189 83.5781 73.3652 84.6914C74.2116 85.8047 74.6348 87.429 74.6348 89.5645ZM72.0957 89.6816C72.0957 88.1712 71.8939 87.0449 71.4902 86.3027C71.0866 85.5605 70.4225 85.1895 69.498 85.1895C69.0358 85.1895 68.6419 85.2871 68.3164 85.4824C67.9909 85.6712 67.7207 85.9512 67.5059 86.3223C67.2975 86.6934 67.1445 87.1523 67.0469 87.6992C66.9492 88.2396 66.9004 88.8613 66.9004 89.5645C66.9004 91.0749 67.1022 92.2012 67.5059 92.9434C67.916 93.6855 68.5801 94.0566 69.498 94.0566C69.9603 94.0566 70.3542 93.9622 70.6797 93.7734C71.0117 93.5781 71.2819 93.2949 71.4902 92.9238C71.6986 92.5527 71.8516 92.097 71.9492 91.5566C72.0469 91.0098 72.0957 90.3848 72.0957 89.6816ZM82.2227 96L78.8047 88.3828L78.1016 86.7422V92.0352V96H75.9141V83.2363H78.8633L82.3496 90.9023L82.9648 92.3965V86.7617V83.2363H85.1523V96H82.2227Z" fill="#FFF8E2"/>
</g>
<defs>
<linearGradient id="paint0_linear_3139_258" x1="65.3636" y1="9" x2="65.3636" y2="92.9474" gradientUnits="userSpaceOnUse">
<stop stop-color="#FFE483"/>
<stop offset="1" stop-color="#F7C33B"/>
</linearGradient>
<clipPath id="clip0_3139_258">
<rect width="128" height="128" fill="white"/>
</clipPath>
</defs>
</svg>
