<svg width="128" height="128" viewBox="0 0 128 128" fill="none" xmlns="http://www.w3.org/2000/svg">
<g clip-path="url(#clip0_3420_443)">
<path d="M19 17C19 13.6863 21.6863 11 25 11L86.5147 11C88.106 11 89.6321 11.6321 90.7574 12.7574L107.243 29.2426C108.368 30.3679 109 31.894 109 33.4853V115C109 118.314 106.314 121 103 121H25C21.6863 121 19 118.314 19 115V17Z" fill="black" fill-opacity="0.15"/>
<path d="M19 15C19 11.6863 21.6863 9 25 9L86.5147 9C88.106 9 89.6321 9.63214 90.7574 10.7574L107.243 27.2426C108.368 28.3679 109 29.894 109 31.4853V113C109 116.314 106.314 119 103 119H25C21.6863 119 19 116.314 19 113V15Z" fill="url(#paint0_linear_3420_443)"/>
<path d="M86 9H86.576C88.2116 9 89.7762 9.6677 90.9079 10.8486L107.332 27.9867C108.402 29.1037 109 30.591 109 32.1381V33C108.361 31.6666 107.014 30.8182 105.535 30.8182H94.0909C90.7772 30.8182 88.0909 28.1319 88.0909 24.8182V12.4493C88.0909 10.9998 87.2851 9.67049 86 9Z" fill="black" fill-opacity="0.15"/>
<path d="M87 9H87.5147C89.106 9 90.6321 9.63214 91.7574 10.7574L107.243 26.2426C108.368 27.3679 109 28.894 109 30.4853V31C108.387 29.7743 107.134 29 105.764 29H95C91.6863 29 89 26.3137 89 23V12.2361C89 10.8657 88.2257 9.61287 87 9Z" fill="#D9D9D9"/>
<path d="M49.901 62.8014L39.0401 46.5558C38.5959 45.8913 39.0722 45 39.8714 45H46.7142C47.0494 45 47.3623 45.1679 47.5476 45.4473L59.0595 62.8044C59.2802 63.1372 59.2818 63.5694 59.0636 63.9038L47.5469 81.5466C47.3623 81.8295 47.0473 82 46.7095 82H39.855C39.0591 82 38.5821 81.1153 39.0197 80.4503L49.9051 63.9069C50.126 63.571 50.1245 63.1356 49.901 62.8014Z" fill="url(#paint1_linear_3420_443)"/>
<path d="M62.1707 62.8014L51.3098 46.5558C50.8655 45.8913 51.3418 45 52.1411 45H58.8853C59.2212 45 59.5346 45.1686 59.7197 45.4488L82.8405 80.4488C83.2796 81.1136 82.8029 82 82.0061 82H75.339C75.0075 82 74.6975 81.8357 74.5114 81.5614L67.8568 71.7525C67.4572 71.1636 66.5878 71.1687 66.1952 71.7622L59.7198 81.5517C59.5346 81.8316 59.2213 82 58.8857 82H52.1247C51.3287 82 50.8518 81.1153 51.2893 80.4503L62.1748 63.9069C62.3957 63.571 62.3941 63.1356 62.1707 62.8014Z" fill="url(#paint2_linear_3420_443)"/>
<path d="M73.5387 61.5305L70.7717 57.3475C70.332 56.6827 70.8087 55.7958 71.6058 55.7958H89C89.5523 55.7958 90 56.2435 90 56.7958V60.9788C90 61.5311 89.5523 61.9788 89 61.9788H74.3727C74.0371 61.9788 73.7238 61.8104 73.5387 61.5305Z" fill="url(#paint3_linear_3420_443)"/>
<path d="M79.5776 70.7434L76.9628 66.6585C76.5367 65.9929 77.0147 65.1194 77.805 65.1194H89C89.5523 65.1194 90 65.5671 90 66.1194V70.2042C90 70.7565 89.5523 71.2042 89 71.2042H80.4199C80.0789 71.2042 79.7615 71.0305 79.5776 70.7434Z" fill="url(#paint4_linear_3420_443)"/>
</g>
<defs>
<linearGradient id="paint0_linear_3420_443" x1="64" y1="9" x2="64" y2="119" gradientUnits="userSpaceOnUse">
<stop stop-color="#CCCCCC"/>
<stop offset="1" stop-color="#AAAAAA"/>
</linearGradient>
<linearGradient id="paint1_linear_3420_443" x1="64" y1="45" x2="64" y2="82" gradientUnits="userSpaceOnUse">
<stop stop-color="#F4F4F4"/>
<stop offset="1" stop-color="#DADADA"/>
</linearGradient>
<linearGradient id="paint2_linear_3420_443" x1="64" y1="45" x2="64" y2="82" gradientUnits="userSpaceOnUse">
<stop stop-color="#F4F4F4"/>
<stop offset="1" stop-color="#DADADA"/>
</linearGradient>
<linearGradient id="paint3_linear_3420_443" x1="64" y1="45" x2="64" y2="82" gradientUnits="userSpaceOnUse">
<stop stop-color="#F4F4F4"/>
<stop offset="1" stop-color="#DADADA"/>
</linearGradient>
<linearGradient id="paint4_linear_3420_443" x1="64" y1="45" x2="64" y2="82" gradientUnits="userSpaceOnUse">
<stop stop-color="#F4F4F4"/>
<stop offset="1" stop-color="#DADADA"/>
</linearGradient>
<clipPath id="clip0_3420_443">
<rect width="128" height="128" fill="white"/>
</clipPath>
</defs>
</svg>
