<svg width="128" height="128" viewBox="0 0 128 128" fill="none" xmlns="http://www.w3.org/2000/svg">
<g clip-path="url(#clip0_3447_453)">
<path d="M19 17C19 13.6863 21.6863 11 25 11L86.5147 11C88.106 11 89.6321 11.6321 90.7574 12.7574L107.243 29.2426C108.368 30.3679 109 31.894 109 33.4853V115C109 118.314 106.314 121 103 121H25C21.6863 121 19 118.314 19 115V17Z" fill="black" fill-opacity="0.15"/>
<path d="M19 15C19 11.6863 21.6863 9 25 9L86.5147 9C88.106 9 89.6321 9.63214 90.7574 10.7574L107.243 27.2426C108.368 28.3679 109 29.894 109 31.4853V113C109 116.314 106.314 119 103 119H25C21.6863 119 19 116.314 19 113V15Z" fill="url(#paint0_linear_3447_453)"/>
<path d="M86 9H86.576C88.2116 9 89.7762 9.6677 90.9079 10.8486L107.332 27.9867C108.402 29.1037 109 30.591 109 32.1381V33C108.361 31.6666 107.014 30.8182 105.535 30.8182H94.0909C90.7772 30.8182 88.0909 28.1319 88.0909 24.8182V12.4493C88.0909 10.9998 87.2851 9.67049 86 9Z" fill="black" fill-opacity="0.15"/>
<path d="M87 9H87.5147C89.106 9 90.6321 9.63214 91.7574 10.7574L107.243 26.2426C108.368 27.3679 109 28.894 109 30.4853V31C108.387 29.7743 107.134 29 105.764 29H95C91.6863 29 89 26.3137 89 23V12.2361C89 10.8657 88.2257 9.61287 87 9Z" fill="#FFA4D5"/>
<path fill-rule="evenodd" clip-rule="evenodd" d="M57.5058 55.907C57.3176 57.8295 58.9364 61.6744 66.9176 61.6744C76.8941 61.6744 88 53.6744 88 44.9302C88 37.4884 78.4 36 74.4471 36C58.2588 36 40 48.4651 40 58.1395C40 64.3406 46.6728 68.7531 51.427 71.897C52.8063 72.8091 54.024 73.6144 54.8706 74.3256C50.3529 76.3721 42.6353 80.8744 42.6353 86.2326C42.6353 91.0698 45.6471 92 48.6588 92C52.6118 92 60.1412 86.2326 60.1412 80.4651C60.1412 77.7776 59.6809 76.4549 59.3144 75.4018C59.2749 75.2885 59.2366 75.1782 59.2 75.0698C63.1529 74.3256 68.5518 74.8728 71.0588 77.4884C74.4471 81.0233 71.8118 84 69.9294 84.9302C71.4353 84.8682 74.2588 83.6279 74.2588 79.907C74.2588 75.2558 68.4235 72.2791 64.2824 72.2791C61.644 72.2791 60.7008 72.5151 59.1902 72.8931C58.8039 72.9897 58.3806 73.0957 57.8824 73.2093C56.9338 72.0039 55.1072 70.4658 53.1576 68.8241C49.6909 65.905 45.8353 62.6584 45.8353 60.3721C45.8353 50.5116 63.7176 40.2791 75.9529 40.2791C91.3882 40.2791 79.5294 58.8837 66.9176 58.8837C60.8941 58.8837 58.1333 56.8992 57.5058 55.907ZM54.3059 85.3023C56.7153 83.0698 56.8157 78.1705 56.3765 76.3721C55.1843 77.0543 52.4612 78.8279 50.3529 80.4651C47.7176 82.5116 45.8353 86.4186 47.5294 87.907C48.6588 88.8992 51.2941 88.093 54.3059 85.3023Z" fill="url(#paint1_linear_3447_453)"/>
</g>
<defs>
<linearGradient id="paint0_linear_3447_453" x1="49" y1="9" x2="119.108" y2="81.8396" gradientUnits="userSpaceOnUse">
<stop stop-color="#FFA4D5"/>
<stop offset="1" stop-color="#ED3D72"/>
</linearGradient>
<linearGradient id="paint1_linear_3447_453" x1="64" y1="36" x2="64" y2="92" gradientUnits="userSpaceOnUse">
<stop stop-color="#FFEEEE"/>
<stop offset="1" stop-color="#FBD2BF"/>
</linearGradient>
<clipPath id="clip0_3447_453">
<rect width="128" height="128" fill="white"/>
</clipPath>
</defs>
</svg>
