<svg width="128" height="128" viewBox="0 0 128 128" fill="none" xmlns="http://www.w3.org/2000/svg">
<g clip-path="url(#clip0_3420_455)">
<path d="M19 17C19 13.6863 21.6863 11 25 11L86.5147 11C88.106 11 89.6321 11.6321 90.7574 12.7574L107.243 29.2426C108.368 30.3679 109 31.894 109 33.4853V115C109 118.314 106.314 121 103 121H25C21.6863 121 19 118.314 19 115V17Z" fill="black" fill-opacity="0.15"/>
<path d="M19 15C19 11.6863 21.6863 9 25 9L86.5147 9C88.106 9 89.6321 9.63214 90.7574 10.7574L107.243 27.2426C108.368 28.3679 109 29.894 109 31.4853V113C109 116.314 106.314 119 103 119H25C21.6863 119 19 116.314 19 113V15Z" fill="url(#paint0_linear_3420_455)"/>
<path d="M86 9H86.576C88.2116 9 89.7762 9.6677 90.9079 10.8486L107.332 27.9867C108.402 29.1037 109 30.591 109 32.1381V33C108.361 31.6666 107.014 30.8182 105.535 30.8182H94.0909C90.7772 30.8182 88.0909 28.1319 88.0909 24.8182V12.4493C88.0909 10.9998 87.2851 9.67049 86 9Z" fill="black" fill-opacity="0.15"/>
<path d="M87 9H87.5147C89.106 9 90.6321 9.63214 91.7574 10.7574L107.243 26.2426C108.368 27.3679 109 28.894 109 30.4853V31C108.387 29.7743 107.134 29 105.764 29H95C91.6863 29 89 26.3137 89 23V12.2361C89 10.8657 88.2257 9.61287 87 9Z" fill="#1B71D7"/>
<path d="M44 62.8046V45C44 44.4477 44.4477 44 45 44H61.6918C62.5672 44 63.0201 45.0453 62.4213 45.6839L45.7295 63.4885C45.1095 64.1498 44 63.7111 44 62.8046Z" fill="url(#paint1_linear_3420_455)"/>
<path d="M45.6948 82.295L63.2908 64.5932C63.6818 64.1998 64.3182 64.1998 64.7092 64.5932L82.3052 82.295C82.9323 82.9258 82.4854 84 81.596 84H46.404C45.5146 84 45.0677 82.9258 45.6948 82.295Z" fill="url(#paint2_linear_3420_455)"/>
<path d="M44.2716 66.8224L65.443 44.3148C65.632 44.1139 65.8955 44 66.1714 44H79.0141C79.8997 44 80.3483 45.0662 79.729 45.6993L45.7148 80.4693C45.0881 81.1099 44 80.6662 44 79.77V67.5075C44 67.2529 44.0971 67.0078 44.2716 66.8224Z" fill="url(#paint3_linear_3420_455)"/>
</g>
<defs>
<linearGradient id="paint0_linear_3420_455" x1="58.7059" y1="14.2537" x2="69.0492" y2="113.271" gradientUnits="userSpaceOnUse">
<stop stop-color="#3397F5"/>
<stop offset="1" stop-color="#126CD7"/>
</linearGradient>
<linearGradient id="paint1_linear_3420_455" x1="64" y1="45.0811" x2="64" y2="84" gradientUnits="userSpaceOnUse">
<stop stop-color="#EFF3F5"/>
<stop offset="1" stop-color="#B4D8F1"/>
</linearGradient>
<linearGradient id="paint2_linear_3420_455" x1="64" y1="45.0811" x2="64" y2="84" gradientUnits="userSpaceOnUse">
<stop stop-color="#EFF3F5"/>
<stop offset="1" stop-color="#B4D8F1"/>
</linearGradient>
<linearGradient id="paint3_linear_3420_455" x1="64" y1="45.0811" x2="64" y2="84" gradientUnits="userSpaceOnUse">
<stop stop-color="#EFF3F5"/>
<stop offset="1" stop-color="#B4D8F1"/>
</linearGradient>
<clipPath id="clip0_3420_455">
<rect width="128" height="128" fill="white"/>
</clipPath>
</defs>
</svg>
