<svg width="128" height="128" viewBox="0 0 128 128" fill="none" xmlns="http://www.w3.org/2000/svg">
<g clip-path="url(#clip0_3408_420)">
<path d="M19 17C19 13.6863 21.6863 11 25 11L86.5147 11C88.106 11 89.6321 11.6321 90.7574 12.7574L107.243 29.2426C108.368 30.3679 109 31.894 109 33.4853V115C109 118.314 106.314 121 103 121H25C21.6863 121 19 118.314 19 115V17Z" fill="black" fill-opacity="0.15"/>
<path d="M19 15C19 11.6863 21.6863 9 25 9L86.5147 9C88.106 9 89.6321 9.63214 90.7574 10.7574L107.243 27.2426C108.368 28.3679 109 29.894 109 31.4853V113C109 116.314 106.314 119 103 119H25C21.6863 119 19 116.314 19 113V15Z" fill="url(#paint0_linear_3408_420)"/>
<path d="M86 9H86.576C88.2116 9 89.7762 9.6677 90.9079 10.8486L107.332 27.9867C108.402 29.1037 109 30.591 109 32.1381V33C108.361 31.6666 107.014 30.8182 105.535 30.8182H94.0909C90.7772 30.8182 88.0909 28.1319 88.0909 24.8182V12.4493C88.0909 10.9998 87.2851 9.67049 86 9Z" fill="black" fill-opacity="0.15"/>
<path d="M87 9H87.5147C89.106 9 90.6321 9.63214 91.7574 10.7574L107.243 26.2426C108.368 27.3679 109 28.894 109 30.4853V31C108.387 29.7743 107.134 29 105.764 29H95C91.6863 29 89 26.3137 89 23V12.2361C89 10.8657 88.2257 9.61287 87 9Z" fill="#247FEA"/>
<path fill-rule="evenodd" clip-rule="evenodd" d="M87.3828 55.1188C87.3828 52.2607 85.858 49.6197 83.3828 48.1906L68.0001 39.3094C65.5249 37.8803 62.4753 37.8803 60.0001 39.3094L44.6174 48.1906C42.1422 49.6197 40.6174 52.2607 40.6174 55.1188V72.8812C40.6174 75.7393 42.1422 78.3803 44.6174 79.8094L60.0001 88.6906C62.4753 90.1197 65.5249 90.1197 68.0001 88.6906L83.3828 79.8094C85.858 78.3803 87.3828 75.7393 87.3828 72.8812V55.1188ZM68.1216 48.3074C70.8976 48.8596 73.4714 50.137 75.5851 52.0017C75.9992 52.3671 75.9972 53.0029 75.6067 53.3934L72.0375 56.9626C71.647 57.3532 71.0169 57.3481 70.5853 57.0035C69.4705 56.1136 68.1551 55.4998 66.7466 55.2197C65.01 54.8743 63.21 55.0515 61.5742 55.7291C59.9384 56.4067 58.5402 57.5542 57.5565 59.0264C56.5728 60.4986 56.0478 62.2294 56.0478 64C56.0478 65.7706 56.5728 67.5015 57.5565 68.9737C58.5402 70.4459 59.9384 71.5933 61.5742 72.2709C63.21 72.9485 65.0101 73.1258 66.7466 72.7803C68.1551 72.5002 69.4705 71.8864 70.5853 70.9965C71.0169 70.6519 71.647 70.6469 72.0375 71.0374L75.6067 74.6066C75.9972 74.9971 75.9992 75.6329 75.5851 75.9983C73.4714 77.863 70.8976 79.1404 68.1216 79.6926C65.0179 80.3099 61.8008 79.9931 58.8772 78.7821C55.9536 77.5711 53.4547 75.5203 51.6966 72.8891C49.9385 70.2579 49.0001 67.1645 49.0001 64C49.0001 60.8355 49.9385 57.7421 51.6966 55.1109C53.4547 52.4797 55.9536 50.4289 58.8772 49.2179C61.8008 48.0069 65.0179 47.6901 68.1216 48.3074Z" fill="url(#paint1_linear_3408_420)"/>
</g>
<defs>
<linearGradient id="paint0_linear_3408_420" x1="64" y1="9" x2="64" y2="119" gradientUnits="userSpaceOnUse">
<stop stop-color="#64B4F4"/>
<stop offset="1" stop-color="#4989D5"/>
</linearGradient>
<linearGradient id="paint1_linear_3408_420" x1="64.5057" y1="37.5838" x2="64.5057" y2="90.4162" gradientUnits="userSpaceOnUse">
<stop stop-color="#EFF3F5"/>
<stop offset="1" stop-color="#DBE4E8"/>
</linearGradient>
<clipPath id="clip0_3408_420">
<rect width="128" height="128" fill="white"/>
</clipPath>
</defs>
</svg>
