<svg width="128" height="128" viewBox="0 0 128 128" fill="none" xmlns="http://www.w3.org/2000/svg">
<g clip-path="url(#clip0_731_1231)">
<g filter="url(#filter0_i_731_1231)">
<path d="M21.9553 73.9502C10.7432 71.1983 4.37955 66.6119 13.0159 57.1331L52.8644 15.7018C58.319 9.58653 66.5008 9.28077 73.319 15.7018C80.1372 22.1229 106.804 49.9476 112.561 55.7572C118.319 61.5667 119.986 63.0956 118.471 69.6695C116.955 76.2435 86.0463 82.053 86.0463 86.4866C86.0463 90.9202 95.2887 90.1558 95.2887 95.5067C95.2887 98.0802 92.2584 101.181 85.2887 102.845C78.319 104.509 74.6826 107.906 74.6826 109.572C74.6826 112.782 79.8342 111.407 79.3796 114.006C78.9251 116.605 65.5917 123.179 59.9857 120.274C54.3796 117.369 58.319 112.782 49.8341 111.407C41.3493 110.031 42.1069 107.279 45.8947 103.457C49.6826 99.6346 52.2584 98.7173 35.7432 92.602C19.2281 86.4866 19.3796 86.3337 28.1675 81.7473C36.9553 77.1608 33.1675 76.7021 21.9553 73.9502Z" fill="black" fill-opacity="0.15"/>
</g>
<g filter="url(#filter1_i_731_1231)">
<path d="M32.5475 101.467C37.4094 99.0907 42.2652 99.9817 42.9196 101.467C43.5739 102.951 40.1644 108 35.3026 108C30.4408 108 27.6857 103.842 32.5475 101.467Z" fill="black" fill-opacity="0.15"/>
</g>
<g filter="url(#filter2_i_731_1231)">
<path d="M110.296 90.07C105.363 89.3951 101.651 93.7819 101.038 95.4691C100.426 97.1564 107.261 98 113.028 98C118.795 98 115.229 90.7449 110.296 90.07Z" fill="black" fill-opacity="0.15"/>
</g>
<g filter="url(#filter3_i_731_1231)">
<path d="M105 105.297C105 102.483 103.332 100 100.452 100C97.5713 100 98.0262 103.642 98.0262 105.297C98.0262 106.952 105 108.111 105 105.297Z" fill="black" fill-opacity="0.15"/>
</g>
<path d="M21.9553 71.9502C10.7432 69.1983 4.37955 64.6119 13.0159 55.1331L52.8644 13.7018C58.319 7.58653 66.5008 7.28077 73.319 13.7018C80.1372 20.1229 106.804 47.9476 112.561 53.7572C118.319 59.5667 119.986 61.0956 118.471 67.6695C116.955 74.2435 86.0463 80.053 86.0463 84.4866C86.0463 88.9202 95.2887 88.1558 95.2887 93.5067C95.2887 96.0802 92.2584 99.1811 85.2887 100.845C78.319 102.509 74.6826 105.906 74.6826 107.572C74.6826 110.782 79.8342 109.407 79.3796 112.006C78.9251 114.605 65.5917 121.179 59.9857 118.274C54.3796 115.369 58.319 110.782 49.8341 109.407C41.3493 108.031 42.1069 105.279 45.8947 101.457C49.6826 97.6346 52.2584 96.7173 35.7432 90.602C19.2281 84.4866 19.3796 84.3337 28.1675 79.7473C36.9553 75.1608 33.1675 74.7021 21.9553 71.9502Z" fill="url(#paint0_linear_731_1231)"/>
<path d="M32.5475 99.4665C37.4094 97.0907 42.2652 97.9817 42.9196 99.4665C43.5739 100.951 40.1644 106 35.3026 106C30.4408 106 27.6857 101.842 32.5475 99.4665Z" fill="url(#paint1_linear_731_1231)"/>
<path d="M110.296 88.07C105.363 87.3951 101.651 91.7819 101.038 93.4691C100.426 95.1564 107.261 96 113.028 96C118.795 96 115.229 88.7449 110.296 88.07Z" fill="url(#paint2_linear_731_1231)"/>
<path d="M105 103.297C105 100.483 103.332 98 100.452 98C97.5713 98 98.0262 101.642 98.0262 103.297C98.0262 104.952 105 106.111 105 103.297Z" fill="url(#paint3_linear_731_1231)"/>
<path d="M39.4356 33.0021C42.5359 29.7944 51.2169 21.0877 56.7975 15.436C59.8978 12.3025 66.0261 12.0755 69.6638 15.436C73.3016 18.7965 84.5455 29.7944 86.7157 32.2384C88.4519 34.1935 88.0592 36.9226 87.6458 38.0428L79.1199 31.4746L77.2597 40.945L70.5939 37.4318L59.7428 44L56.0224 29.7944L50.1317 39.8758H41.6058C38.8155 39.8758 36.3352 36.2098 39.4356 33.0021Z" fill="url(#paint4_linear_731_1231)"/>
</g>
<defs>
<filter id="filter0_i_731_1231" x="9" y="7" width="110" height="114" filterUnits="userSpaceOnUse" color-interpolation-filters="sRGB">
<feFlood flood-opacity="0" result="BackgroundImageFix"/>
<feBlend mode="normal" in="SourceGraphic" in2="BackgroundImageFix" result="shape"/>
<feColorMatrix in="SourceAlpha" type="matrix" values="0 0 0 0 0 0 0 0 0 0 0 0 0 0 0 0 0 0 127 0" result="hardAlpha"/>
<feOffset dy="-4"/>
<feGaussianBlur stdDeviation="4"/>
<feComposite in2="hardAlpha" operator="arithmetic" k2="-1" k3="1"/>
<feColorMatrix type="matrix" values="0 0 0 0 0 0 0 0 0 0 0 0 0 0 0 0 0 0 0.25 0"/>
<feBlend mode="normal" in2="shape" result="effect1_innerShadow_731_1231"/>
</filter>
<filter id="filter1_i_731_1231" x="30" y="96" width="13" height="12" filterUnits="userSpaceOnUse" color-interpolation-filters="sRGB">
<feFlood flood-opacity="0" result="BackgroundImageFix"/>
<feBlend mode="normal" in="SourceGraphic" in2="BackgroundImageFix" result="shape"/>
<feColorMatrix in="SourceAlpha" type="matrix" values="0 0 0 0 0 0 0 0 0 0 0 0 0 0 0 0 0 0 127 0" result="hardAlpha"/>
<feOffset dy="-4"/>
<feGaussianBlur stdDeviation="4"/>
<feComposite in2="hardAlpha" operator="arithmetic" k2="-1" k3="1"/>
<feColorMatrix type="matrix" values="0 0 0 0 0 0 0 0 0 0 0 0 0 0 0 0 0 0 0.25 0"/>
<feBlend mode="normal" in2="shape" result="effect1_innerShadow_731_1231"/>
</filter>
<filter id="filter2_i_731_1231" x="101" y="86" width="15" height="12" filterUnits="userSpaceOnUse" color-interpolation-filters="sRGB">
<feFlood flood-opacity="0" result="BackgroundImageFix"/>
<feBlend mode="normal" in="SourceGraphic" in2="BackgroundImageFix" result="shape"/>
<feColorMatrix in="SourceAlpha" type="matrix" values="0 0 0 0 0 0 0 0 0 0 0 0 0 0 0 0 0 0 127 0" result="hardAlpha"/>
<feOffset dy="-4"/>
<feGaussianBlur stdDeviation="4"/>
<feComposite in2="hardAlpha" operator="arithmetic" k2="-1" k3="1"/>
<feColorMatrix type="matrix" values="0 0 0 0 0 0 0 0 0 0 0 0 0 0 0 0 0 0 0.25 0"/>
<feBlend mode="normal" in2="shape" result="effect1_innerShadow_731_1231"/>
</filter>
<filter id="filter3_i_731_1231" x="98" y="96" width="7" height="11" filterUnits="userSpaceOnUse" color-interpolation-filters="sRGB">
<feFlood flood-opacity="0" result="BackgroundImageFix"/>
<feBlend mode="normal" in="SourceGraphic" in2="BackgroundImageFix" result="shape"/>
<feColorMatrix in="SourceAlpha" type="matrix" values="0 0 0 0 0 0 0 0 0 0 0 0 0 0 0 0 0 0 127 0" result="hardAlpha"/>
<feOffset dy="-4"/>
<feGaussianBlur stdDeviation="4"/>
<feComposite in2="hardAlpha" operator="arithmetic" k2="-1" k3="1"/>
<feColorMatrix type="matrix" values="0 0 0 0 0 0 0 0 0 0 0 0 0 0 0 0 0 0 0.25 0"/>
<feBlend mode="normal" in2="shape" result="effect1_innerShadow_731_1231"/>
</filter>
<linearGradient id="paint0_linear_731_1231" x1="30.0833" y1="5.15" x2="99.5517" y2="119.428" gradientUnits="userSpaceOnUse">
<stop stop-color="#363D43"/>
<stop offset="1" stop-color="#181818"/>
</linearGradient>
<linearGradient id="paint1_linear_731_1231" x1="32.4917" y1="97.72" x2="36.2269" y2="107.705" gradientUnits="userSpaceOnUse">
<stop stop-color="#363D43"/>
<stop offset="1" stop-color="#181818"/>
</linearGradient>
<linearGradient id="paint2_linear_731_1231" x1="113.125" y1="87.72" x2="109.786" y2="98.0197" gradientUnits="userSpaceOnUse">
<stop stop-color="#363D43"/>
<stop offset="1" stop-color="#181818"/>
</linearGradient>
<linearGradient id="paint3_linear_731_1231" x1="103.658" y1="97.755" x2="99.2376" y2="105.027" gradientUnits="userSpaceOnUse">
<stop stop-color="#363D43"/>
<stop offset="1" stop-color="#181818"/>
</linearGradient>
<linearGradient id="paint4_linear_731_1231" x1="63" y1="13" x2="63" y2="44" gradientUnits="userSpaceOnUse">
<stop stop-color="#EFF3F5"/>
<stop offset="1" stop-color="#D9E0E4"/>
</linearGradient>
<clipPath id="clip0_731_1231">
<rect width="128" height="128" fill="white"/>
</clipPath>
</defs>
</svg>
