<svg width="128" height="128" viewBox="0 0 128 128" fill="none" xmlns="http://www.w3.org/2000/svg">
<g clip-path="url(#clip0_731_1447)">
<circle cx="64" cy="66" r="50" fill="black" fill-opacity="0.15"/>
<circle cx="64" cy="64" r="50" fill="url(#paint0_linear_731_1447)"/>
<circle cx="64" cy="64" r="25" fill="url(#paint1_linear_731_1447)"/>
<circle cx="64" cy="64" r="25" fill="url(#paint2_linear_731_1447)"/>
<circle cx="64.0001" cy="64" r="15" fill="url(#paint3_linear_731_1447)"/>
<circle cx="64.0001" cy="64" r="10" fill="url(#paint4_linear_731_1447)"/>
<path d="M19 100.684C19 93.6105 20.2609 88.4737 20.8913 86.7895C20.8913 88.8947 21.2696 93.9895 22.7826 97.5263C24.7027 102.015 28.1861 104.011 28.9404 104.401C28.3192 104.059 25.9348 102.388 25.9348 96.8947C25.9348 92.4737 27.8261 89.3158 27.8261 84.8947C27.8261 79.8421 23.6232 73.5263 21.5217 71C24.6739 73.5263 31.7348 79.3368 37.2826 84.8947C44.2174 91.8421 48 100.053 48 106.368C48 110.789 47.3696 119 34.1304 119C20.8913 119 19 109.526 19 100.684Z" fill="url(#paint5_linear_731_1447)"/>
<path d="M31.1184 89.5C31.1184 84.94 29.8783 81.2667 29.2582 80C34.8388 85.7 46 95.8333 46 105.333C46 112.3 43.5197 118 36.699 118C29.8783 118 27.398 118 23.6776 112.933C21.573 110.067 21.8174 103.856 22.4375 100.9C23.2642 102.167 25.5378 105.08 28.0181 106.6C30.4983 108.12 31.5318 107.656 31.7385 107.233C31.3251 105.967 30.4983 102.547 30.4983 99C30.4983 94.5667 31.1184 95.2 31.1184 89.5Z" fill="url(#paint6_linear_731_1447)"/>
<path d="M32.125 100.957C32.125 96.5741 33.375 91.8261 34 90C34 91.4203 34.2362 95.0997 36.5 97.3045C39 99.7394 44 102.783 44 108.261C44 115.566 37.75 118.609 30.875 116.175C25.375 114.227 24 108.058 24 105.218C24.625 106.232 26.625 108.505 29.625 109.479C32.625 110.453 35.0417 110.29 35.875 110.087C34.625 108.87 32.125 105.339 32.125 100.957Z" fill="url(#paint7_linear_731_1447)"/>
<path d="M78.0001 98.375C78.0001 83.375 95.9801 70.875 107.76 69C105.28 70.875 100.32 76 100.32 81.5C100.32 88.375 102.18 89.625 102.18 94C102.18 97.5 100.113 100.042 99.0801 100.875C100.94 99.8333 104.66 96.875 104.66 93.375C104.66 89.875 104.247 86.9167 104.04 85.875C105.9 88.375 109 95.25 109 103.375C109 110.25 104.66 119 94.1201 119C83.5801 119 78.0001 113.375 78.0001 98.375Z" fill="url(#paint8_linear_731_1447)"/>
<path d="M80.0001 98.4597C80.0001 89.2942 93.0562 77.6676 99.5843 73C98.1102 74.6973 95.1621 79.3649 95.1621 84.4569C95.1621 90.8218 97.0573 94.0043 97.0573 97.8232C97.0573 100.878 95.3726 104.188 94.5303 105.461C95.3726 105.673 97.5627 105.843 99.5843 104.825C101.606 103.806 103.796 100.581 104.638 99.0962C105.27 101.642 105.523 108.134 101.48 113.736C96.4256 120.737 86.3176 120.101 83.1588 115.645C80.0001 111.19 80.0001 109.917 80.0001 98.4597Z" fill="url(#paint9_linear_731_1447)"/>
<path d="M86.6184 97.2612C90.0161 92.7567 91.6745 87.8769 92.079 86C92.4835 89.1281 93.2924 91.005 93.2924 99.138C93.2924 103.517 91.6745 107.063 90.8655 108.522C91.27 108.939 92.807 109.774 95.7193 109.774C98.6316 109.774 101.787 106.854 103 105.394C102.191 107.688 100.088 112.651 98.1462 114.153C95.7193 116.03 89.0453 119.158 83.5848 114.778C78.1243 110.399 82.3713 102.892 86.6184 97.2612Z" fill="url(#paint10_linear_731_1447)"/>
<path d="M39 100.364C39 89.0909 45.4112 77.7879 48.6168 73.5455C48.3115 73.9727 47.7009 76.0253 47.7009 80.8182C47.7009 85.611 49.5327 89.7849 50.4486 91.2727C50.2959 89.7576 49.8991 87 51.3645 82.6364C53.1963 77.1818 60.0654 70.8182 60.0654 64C60.0654 58.5455 57.3178 55.0606 55.9439 54C67.8505 61.2727 74.2617 71.6364 74.2617 80.3636C74.2617 89.0909 72.8878 90.8182 72.8878 90.8182C74.7196 89 78.8411 86.2727 78.8411 79.4545C78.8411 74.7273 76.3988 68.0909 75.1776 65.3636C83.8785 76.2727 88 89.4545 88 100.364C88 114 80.215 124 64.6449 124C49.0748 124 39 114.455 39 100.364Z" fill="url(#paint11_linear_731_1447)"/>
<path d="M43.4954 106.727C42.0552 100.182 44.0955 90.9697 45.2956 87.1818C45.1456 88.697 45.4756 92.8182 47.9959 97.1818C50.5162 101.545 53.2465 104.152 54.2966 104.909C53.8466 104.303 52.03 101.389 52.9465 94.9091C54.2966 85.3636 62.8476 78.5455 62.8476 71.2727C62.8476 66.5455 62.5476 64.4545 62.3976 64C64.9479 68.0909 70.0485 72.1818 70.0485 85.3636C70.0485 92.6364 68.5483 97.7879 67.7982 99.4545C68.2482 98.5455 69.7784 96.3636 72.2987 94.9091C75.4491 93.0909 77.2493 92.6364 79.0495 89.9091C80.4897 87.7273 80.5497 84.1515 80.3996 82.6364C83.1 89.4545 84.0001 98.0909 84.0001 105.364C84.0001 114.455 76.3492 124 63.7477 124C51.1463 124 45.2956 114.909 43.4954 106.727Z" fill="url(#paint12_linear_731_1447)"/>
<path d="M45.7965 111.48C47.5995 118.392 53.4593 123 65.6298 123C78.2509 123 80.5047 117.01 82.3077 108.716C83.7501 102.08 82.6082 93.049 81.857 89.3627C81.7067 91.0523 81.0456 94.8 79.6032 96.2745C77.8002 98.1176 74.6449 99.5 72.3911 101.343C70.5881 102.818 69.2358 105.491 68.785 106.643C67.8835 105.184 66.5313 102.633 66.5313 98.5784C66.5313 93.5098 68.785 90.7451 68.785 85.2157C68.785 80.7922 67.583 77.2288 66.982 76C66.8318 77.0752 65.9903 80.1471 63.8267 83.8333C61.1222 88.4412 57.0654 93.049 57.0654 98.5784C57.0654 103.002 58.5679 107.18 59.3192 108.716C58.1171 108.716 54.8116 107.978 51.2055 105.029C47.5995 102.08 46.097 97.0425 45.7965 94.8922C45.1955 98.1176 44.3541 105.951 45.7965 111.48Z" fill="url(#paint13_linear_731_1447)"/>
</g>
<defs>
<linearGradient id="paint0_linear_731_1447" x1="64" y1="14" x2="64" y2="114" gradientUnits="userSpaceOnUse">
<stop stop-color="#EFF3F5"/>
<stop offset="1" stop-color="#D9E0E4"/>
</linearGradient>
<linearGradient id="paint1_linear_731_1447" x1="64" y1="39" x2="64" y2="89" gradientUnits="userSpaceOnUse">
<stop stop-color="#D9E0E4"/>
<stop offset="1" stop-color="#B9C3C7"/>
</linearGradient>
<linearGradient id="paint2_linear_731_1447" x1="64" y1="39" x2="64" y2="89" gradientUnits="userSpaceOnUse">
<stop stop-color="#D9E0E4"/>
<stop offset="1" stop-color="#B9C3C7"/>
</linearGradient>
<linearGradient id="paint3_linear_731_1447" x1="64.0001" y1="79" x2="64.0001" y2="49" gradientUnits="userSpaceOnUse">
<stop stop-color="#677B8D"/>
<stop offset="1" stop-color="#919FA6"/>
</linearGradient>
<linearGradient id="paint4_linear_731_1447" x1="57.8334" y1="53.3" x2="70.464" y2="74.0778" gradientUnits="userSpaceOnUse">
<stop stop-color="#363D43"/>
<stop offset="1" stop-color="#181818"/>
</linearGradient>
<linearGradient id="paint5_linear_731_1447" x1="33.5" y1="71" x2="33.5" y2="119" gradientUnits="userSpaceOnUse">
<stop offset="0.361666" stop-color="#FF753A"/>
<stop offset="1" stop-color="#FCEA44"/>
</linearGradient>
<linearGradient id="paint6_linear_731_1447" x1="34.3636" y1="80" x2="34.3636" y2="109" gradientUnits="userSpaceOnUse">
<stop offset="0.441666" stop-color="#FCC639"/>
<stop offset="1" stop-color="#FCDF44"/>
</linearGradient>
<linearGradient id="paint7_linear_731_1447" x1="34.303" y1="90" x2="34.303" y2="110.605" gradientUnits="userSpaceOnUse">
<stop stop-color="#FFFA81"/>
<stop offset="1" stop-color="#FCE944"/>
</linearGradient>
<linearGradient id="paint8_linear_731_1447" x1="93.5001" y1="69" x2="93.5001" y2="119" gradientUnits="userSpaceOnUse">
<stop offset="0.361666" stop-color="#FF753A"/>
<stop offset="1" stop-color="#FCEA44"/>
</linearGradient>
<linearGradient id="paint9_linear_731_1447" x1="92.8788" y1="73" x2="92.8788" y2="108.105" gradientUnits="userSpaceOnUse">
<stop offset="0.441666" stop-color="#FCC639"/>
<stop offset="1" stop-color="#FCDF44"/>
</linearGradient>
<linearGradient id="paint10_linear_731_1447" x1="92.3334" y1="86" x2="92.3334" y2="109.658" gradientUnits="userSpaceOnUse">
<stop stop-color="#FFFA81"/>
<stop offset="1" stop-color="#FCE944"/>
</linearGradient>
<linearGradient id="paint11_linear_731_1447" x1="63.5" y1="54" x2="63.5" y2="124" gradientUnits="userSpaceOnUse">
<stop offset="0.361666" stop-color="#FF753A"/>
<stop offset="1" stop-color="#FCEA44"/>
</linearGradient>
<linearGradient id="paint12_linear_731_1447" x1="64.1213" y1="64" x2="64.1213" y2="109.789" gradientUnits="userSpaceOnUse">
<stop offset="0.441666" stop-color="#FCC639"/>
<stop offset="1" stop-color="#FCDF44"/>
</linearGradient>
<linearGradient id="paint13_linear_731_1447" x1="64.5758" y1="76" x2="64.5758" y2="111.868" gradientUnits="userSpaceOnUse">
<stop stop-color="#FFFA81"/>
<stop offset="1" stop-color="#FCE944"/>
</linearGradient>
<clipPath id="clip0_731_1447">
<rect width="128" height="128" fill="white"/>
</clipPath>
</defs>
</svg>
