<svg width="128" height="128" viewBox="0 0 128 128" fill="none" xmlns="http://www.w3.org/2000/svg">
<g clip-path="url(#clip0_731_1060)">
<path d="M34 13C34 10.7909 35.7909 9 38 9H90C92.2091 9 94 10.7909 94 13V69H34V13Z" fill="url(#paint0_linear_731_1060)"/>
<rect x="19" y="71" width="90" height="50" rx="6" fill="black" fill-opacity="0.15"/>
<rect x="19" y="69" width="90" height="50" rx="6" fill="url(#paint1_linear_731_1060)"/>
<rect x="47" y="34" width="12" height="10" fill="url(#paint2_linear_731_1060)"/>
<rect x="69" y="34" width="12" height="10" fill="url(#paint3_linear_731_1060)"/>
<path fill-rule="evenodd" clip-rule="evenodd" d="M61 85.3333C62.4728 85.3333 63.6667 84.1394 63.6667 82.6667C63.6667 81.1939 62.4728 80 61 80C59.5272 80 58.3333 81.1939 58.3333 82.6667C58.3333 84.1394 59.5272 85.3333 61 85.3333ZM72.75 81.3333L81 89.3333L72.75 97.3333L69 93.697L73.5 89.3333L69 84.9697L72.75 81.3333ZM57 93.3333C57 95.5425 55.2091 97.3333 53 97.3333C50.7909 97.3333 49 95.5425 49 93.3333C49 91.1242 50.7909 89.3333 53 89.3333C55.2091 89.3333 57 91.1242 57 93.3333ZM61 112C63.9455 112 66.3333 109.612 66.3333 106.667C66.3333 103.721 63.9455 101.333 61 101.333C58.0545 101.333 55.6667 103.721 55.6667 106.667C55.6667 109.612 58.0545 112 61 112Z" fill="black" fill-opacity="0.15"/>
<path fill-rule="evenodd" clip-rule="evenodd" d="M61 83.3333C62.4728 83.3333 63.6667 82.1394 63.6667 80.6667C63.6667 79.1939 62.4728 78 61 78C59.5272 78 58.3333 79.1939 58.3333 80.6667C58.3333 82.1394 59.5272 83.3333 61 83.3333ZM72.75 79.3333L81 87.3333L72.75 95.3333L69 91.697L73.5 87.3333L69 82.9697L72.75 79.3333ZM57 91.3333C57 93.5425 55.2091 95.3333 53 95.3333C50.7909 95.3333 49 93.5425 49 91.3333C49 89.1242 50.7909 87.3333 53 87.3333C55.2091 87.3333 57 89.1242 57 91.3333ZM61 110C63.9455 110 66.3333 107.612 66.3333 104.667C66.3333 101.721 63.9455 99.3333 61 99.3333C58.0545 99.3333 55.6667 101.721 55.6667 104.667C55.6667 107.612 58.0545 110 61 110Z" fill="url(#paint4_linear_731_1060)"/>
</g>
<defs>
<linearGradient id="paint0_linear_731_1060" x1="64" y1="9" x2="75.5" y2="69" gradientUnits="userSpaceOnUse">
<stop stop-color="#E9F8FF"/>
<stop offset="1" stop-color="#AFC4CE"/>
</linearGradient>
<linearGradient id="paint1_linear_731_1060" x1="58.7059" y1="71.3881" x2="60.8614" y2="116.785" gradientUnits="userSpaceOnUse">
<stop stop-color="#42B0FF"/>
<stop offset="0.506666" stop-color="#3397F5"/>
<stop offset="1" stop-color="#126CD7"/>
</linearGradient>
<linearGradient id="paint2_linear_731_1060" x1="50.9891" y1="35.2727" x2="54.6851" y2="44.1646" gradientUnits="userSpaceOnUse">
<stop stop-color="#505A62"/>
<stop offset="1" stop-color="#1F1F1F"/>
</linearGradient>
<linearGradient id="paint3_linear_731_1060" x1="72.9891" y1="35.2727" x2="76.6851" y2="44.1646" gradientUnits="userSpaceOnUse">
<stop stop-color="#505A62"/>
<stop offset="1" stop-color="#1F1F1F"/>
</linearGradient>
<linearGradient id="paint4_linear_731_1060" x1="65" y1="78" x2="65" y2="110" gradientUnits="userSpaceOnUse">
<stop stop-color="#E3EEF8"/>
<stop offset="1" stop-color="#C1DEF6"/>
</linearGradient>
<clipPath id="clip0_731_1060">
<rect width="128" height="128" fill="white"/>
</clipPath>
</defs>
</svg>
