<svg width="128" height="128" viewBox="0 0 128 128" fill="none" xmlns="http://www.w3.org/2000/svg">
<g clip-path="url(#clip0_3023_3323)">
<path d="M114 26C114 22.6863 111.314 20 108 20H20C16.6863 20 14 22.6863 14 26V86.7273C14 90.041 16.6863 92.7273 20 92.7273H62.5203C63.4751 92.7273 64.3985 93.0688 65.1235 93.6902L89.215 114.34C91.8097 116.564 95.8182 114.721 95.8182 111.303V96.7273C95.8182 94.5181 97.609 92.7273 99.8182 92.7273H108C111.314 92.7273 114 90.041 114 86.7273V26Z" fill="url(#paint0_linear_3023_3323)"/>
<path d="M68 39.9633V57V74.0367C68 75.4541 66.5663 76.4217 65.2518 75.8915L41.2518 66.2108C40.4954 65.9057 40 65.1717 40 64.356V57V49.644C40 48.8283 40.4954 48.0943 41.2518 47.7892L65.2518 38.1085C66.5663 37.5783 68 38.5459 68 39.9633Z" fill="black" fill-opacity="0.15"/>
<path fill-rule="evenodd" clip-rule="evenodd" d="M72.7542 49.1647C73.2155 48.4766 74.1473 48.2928 74.8354 48.7542C77.6124 50.6161 79.5 53.5781 79.5 57C79.5 60.422 77.6124 63.3839 74.8354 65.2459C74.1473 65.7073 73.2155 65.5235 72.7542 64.8354C72.2928 64.1473 72.4766 63.2155 73.1647 62.7542C75.2608 61.3488 76.5 59.2539 76.5 57C76.5 54.7461 75.2608 52.6513 73.1647 51.2459C72.4766 50.7846 72.2928 49.8528 72.7542 49.1647Z" fill="black" fill-opacity="0.15"/>
<path fill-rule="evenodd" clip-rule="evenodd" d="M76.7542 42.1647C77.2155 41.4766 78.1473 41.2928 78.8354 41.7542C84.049 45.2498 87.5 50.7401 87.5 57C87.5 63.2599 84.049 68.7502 78.8354 72.2459C78.1473 72.7073 77.2155 72.5235 76.7542 71.8354C76.2928 71.1473 76.4766 70.2155 77.1647 69.7542C81.6973 66.7151 84.5 62.0919 84.5 57C84.5 51.9082 81.6973 47.285 77.1647 44.2459C76.4766 43.7846 76.2928 42.8528 76.7542 42.1647Z" fill="black" fill-opacity="0.15"/>
<path d="M68 37.9633V55V72.0367C68 73.4541 66.5663 74.4217 65.2518 73.8915L41.2518 64.2108C40.4954 63.9057 40 63.1717 40 62.356V55V47.644C40 46.8283 40.4954 46.0943 41.2518 45.7892L65.2518 36.1085C66.5663 35.5783 68 36.5459 68 37.9633Z" fill="url(#paint1_linear_3023_3323)"/>
<path fill-rule="evenodd" clip-rule="evenodd" d="M72.7542 47.1647C73.2155 46.4766 74.1473 46.2928 74.8354 46.7542C77.6124 48.6161 79.5 51.5781 79.5 55C79.5 58.422 77.6124 61.3839 74.8354 63.2459C74.1473 63.7073 73.2155 63.5235 72.7542 62.8354C72.2928 62.1473 72.4766 61.2155 73.1647 60.7542C75.2608 59.3488 76.5 57.2539 76.5 55C76.5 52.7461 75.2608 50.6513 73.1647 49.2459C72.4766 48.7846 72.2928 47.8528 72.7542 47.1647Z" fill="url(#paint2_linear_3023_3323)"/>
<path fill-rule="evenodd" clip-rule="evenodd" d="M76.7542 40.1647C77.2155 39.4766 78.1473 39.2928 78.8354 39.7542C84.049 43.2498 87.5 48.7401 87.5 55C87.5 61.2599 84.049 66.7502 78.8354 70.2459C78.1473 70.7073 77.2155 70.5235 76.7542 69.8354C76.2928 69.1473 76.4766 68.2155 77.1647 67.7542C81.6973 64.7151 84.5 60.0919 84.5 55C84.5 49.9082 81.6973 45.285 77.1647 42.2459C76.4766 41.7846 76.2928 40.8528 76.7542 40.1647Z" fill="url(#paint3_linear_3023_3323)"/>
</g>
<defs>
<linearGradient id="paint0_linear_3023_3323" x1="69.8824" y1="24.3689" x2="63.4144" y2="107.101" gradientUnits="userSpaceOnUse">
<stop stop-color="#2CC673"/>
<stop offset="1" stop-color="#008867"/>
</linearGradient>
<linearGradient id="paint1_linear_3023_3323" x1="54.4242" y1="35" x2="54.4242" y2="65.5263" gradientUnits="userSpaceOnUse">
<stop stop-color="#E1FFEF"/>
<stop offset="1" stop-color="#C4FFDF"/>
</linearGradient>
<linearGradient id="paint2_linear_3023_3323" x1="76.106" y1="46.4999" x2="76.106" y2="59.4738" gradientUnits="userSpaceOnUse">
<stop stop-color="#E1FFEF"/>
<stop offset="1" stop-color="#C4FFDF"/>
</linearGradient>
<linearGradient id="paint3_linear_3023_3323" x1="82.1666" y1="39.4999" x2="82.1666" y2="63.158" gradientUnits="userSpaceOnUse">
<stop stop-color="#E1FFEF"/>
<stop offset="1" stop-color="#C4FFDF"/>
</linearGradient>
<clipPath id="clip0_3023_3323">
<rect width="128" height="128" fill="white"/>
</clipPath>
</defs>
</svg>
