<svg width="128" height="128" viewBox="0 0 128 128" fill="none" xmlns="http://www.w3.org/2000/svg">
<g clip-path="url(#clip0_731_1009)">
<path d="M119 31C119 27.6863 116.314 25 113 25H25C21.6863 25 19 27.6863 19 31V91.7273C19 95.041 21.6863 97.7273 25 97.7273H66.7805C68.2127 97.7273 69.5977 98.2396 70.6852 99.1717L94.215 119.34C96.8097 121.564 100.818 119.721 100.818 116.303V103.727C100.818 100.414 103.504 97.7273 106.818 97.7273H113C116.314 97.7273 119 95.041 119 91.7273V31Z" fill="black" fill-opacity="0.15"/>
<path d="M119 29C119 25.6863 116.314 23 113 23H25C21.6863 23 19 25.6863 19 29V89.7273C19 93.041 21.6863 95.7273 25 95.7273H66.7805C68.2127 95.7273 69.5977 96.2396 70.6852 97.1717L94.215 117.34C96.8097 119.564 100.818 117.721 100.818 114.303V101.727C100.818 98.4136 103.504 95.7273 106.818 95.7273H113C116.314 95.7273 119 93.041 119 89.7273V29Z" fill="url(#paint0_linear_731_1009)"/>
<path d="M9 21C9 17.6863 11.6863 15 15 15H103C106.314 15 109 17.6863 109 21V81.7273C109 85.041 106.314 87.7273 103 87.7273H61.2195C59.7873 87.7273 58.4023 88.2396 57.3148 89.1717L33.785 109.34C31.1903 111.564 27.1818 109.721 27.1818 106.303V93.7273C27.1818 90.4136 24.4955 87.7273 21.1818 87.7273H15C11.6863 87.7273 9 85.041 9 81.7273V21Z" fill="black" fill-opacity="0.15"/>
<path d="M9 19C9 15.6863 11.6863 13 15 13H103C106.314 13 109 15.6863 109 19V79.7273C109 83.041 106.314 85.7273 103 85.7273H61.2195C59.7873 85.7273 58.4023 86.2396 57.3148 87.1717L33.785 107.34C31.1903 109.564 27.1818 107.721 27.1818 104.303V91.7273C27.1818 88.4136 24.4955 85.7273 21.1818 85.7273H15C11.6863 85.7273 9 83.041 9 79.7273V19Z" fill="url(#paint1_linear_731_1009)"/>
<circle cx="40" cy="48" r="7" fill="url(#paint2_linear_731_1009)"/>
<circle cx="59" cy="48" r="7" fill="url(#paint3_linear_731_1009)"/>
<circle cx="78" cy="48" r="7" fill="url(#paint4_linear_731_1009)"/>
<path d="M29 32H25C23.8954 32 23 32.8954 23 34V62C23 63.1046 23.8954 64 25 64H29" stroke="url(#paint5_linear_731_1009)" stroke-width="4" stroke-linecap="round"/>
<path d="M89 32H93C94.1046 32 95 32.8954 95 34V62C95 63.1046 94.1046 64 93 64H89" stroke="url(#paint6_linear_731_1009)" stroke-width="4" stroke-linecap="round"/>
</g>
<defs>
<linearGradient id="paint0_linear_731_1009" x1="75.9297" y1="22.858" x2="25.0529" y2="120.844" gradientUnits="userSpaceOnUse">
<stop stop-color="#41ADCF"/>
<stop offset="1" stop-color="#005593"/>
</linearGradient>
<linearGradient id="paint1_linear_731_1009" x1="52.0703" y1="12.858" x2="102.947" y2="110.844" gradientUnits="userSpaceOnUse">
<stop stop-color="#4FF4F4"/>
<stop offset="1" stop-color="#0096C5"/>
</linearGradient>
<linearGradient id="paint2_linear_731_1009" x1="40" y1="41" x2="40" y2="55" gradientUnits="userSpaceOnUse">
<stop stop-color="#D7FFFD"/>
<stop offset="1" stop-color="#C4F9F9"/>
</linearGradient>
<linearGradient id="paint3_linear_731_1009" x1="59" y1="41" x2="59" y2="55" gradientUnits="userSpaceOnUse">
<stop stop-color="#D7FFFD"/>
<stop offset="1" stop-color="#C4F9F9"/>
</linearGradient>
<linearGradient id="paint4_linear_731_1009" x1="78" y1="41" x2="78" y2="55" gradientUnits="userSpaceOnUse">
<stop stop-color="#D7FFFD"/>
<stop offset="1" stop-color="#C4F9F9"/>
</linearGradient>
<linearGradient id="paint5_linear_731_1009" x1="26" y1="32" x2="26" y2="64" gradientUnits="userSpaceOnUse">
<stop stop-color="#D7FFFD"/>
<stop offset="1" stop-color="#C4F9F9"/>
</linearGradient>
<linearGradient id="paint6_linear_731_1009" x1="92" y1="32" x2="92" y2="64" gradientUnits="userSpaceOnUse">
<stop stop-color="#D7FFFD"/>
<stop offset="1" stop-color="#C4F9F9"/>
</linearGradient>
<clipPath id="clip0_731_1009">
<rect width="128" height="128" fill="white"/>
</clipPath>
</defs>
</svg>
