<svg width="128" height="128" viewBox="0 0 128 128" fill="none" xmlns="http://www.w3.org/2000/svg">
<circle cx="64" cy="66" r="50" fill="black" fill-opacity="0.15"/>
<circle cx="64" cy="64" r="50" fill="url(#paint0_linear_731_444)"/>
<circle cx="45" cy="51" r="8" fill="url(#paint1_linear_731_444)"/>
<circle cx="83" cy="51" r="8" fill="url(#paint2_linear_731_444)"/>
<path d="M64 93C51.2049 93 45.2694 82.8413 44 77.7619L48.2308 77C50.2821 80.4286 54.3846 86.4545 64 86.4545C73.6154 86.4545 77.7179 80.4286 79.7692 77L84 77.7619C82.7306 82.8413 76.7951 93 64 93Z" fill="url(#paint3_linear_731_444)"/>
<defs>
<linearGradient id="paint0_linear_731_444" x1="64" y1="14" x2="64" y2="114" gradientUnits="userSpaceOnUse">
<stop stop-color="#F8E9B3"/>
<stop offset="0.606666" stop-color="#F7C33B"/>
<stop offset="1" stop-color="#FFB951"/>
</linearGradient>
<linearGradient id="paint1_linear_731_444" x1="45" y1="43" x2="45" y2="59" gradientUnits="userSpaceOnUse">
<stop stop-color="#C87E27"/>
<stop offset="1" stop-color="#BD721A"/>
</linearGradient>
<linearGradient id="paint2_linear_731_444" x1="83" y1="43" x2="83" y2="59" gradientUnits="userSpaceOnUse">
<stop stop-color="#C87E27"/>
<stop offset="1" stop-color="#BD721A"/>
</linearGradient>
<linearGradient id="paint3_linear_731_444" x1="64" y1="77" x2="64" y2="93" gradientUnits="userSpaceOnUse">
<stop stop-color="#C87E27"/>
<stop offset="1" stop-color="#BD721A"/>
</linearGradient>
</defs>
</svg>
