<svg width="128" height="128" viewBox="0 0 128 128" fill="none" xmlns="http://www.w3.org/2000/svg">
<g clip-path="url(#clip0_731_1244)">
<path d="M112 46.7083L87.5078 22.9583L76.375 33.7538L89.7344 46.7083L76.375 59.6629L87.5078 70.4583L112 46.7083Z" fill="black" fill-opacity="0.15"/>
<circle cx="52.625" cy="26.9167" r="7.91667" fill="black" fill-opacity="0.15"/>
<circle cx="28.875" cy="58.5833" r="11.875" fill="black" fill-opacity="0.15"/>
<circle cx="52.625" cy="98.1666" r="15.8333" fill="black" fill-opacity="0.15"/>
<path d="M112 44.7083L87.5078 20.9583L76.375 31.7538L89.7344 44.7083L76.375 57.6629L87.5078 68.4583L112 44.7083Z" fill="url(#paint0_linear_731_1244)"/>
<circle cx="52.625" cy="24.9167" r="7.91667" fill="url(#paint1_linear_731_1244)"/>
<circle cx="28.875" cy="56.5833" r="11.875" fill="url(#paint2_linear_731_1244)"/>
<circle cx="52.625" cy="96.1666" r="15.8333" fill="url(#paint3_linear_731_1244)"/>
</g>
<defs>
<linearGradient id="paint0_linear_731_1244" x1="94.1875" y1="20.9583" x2="94.1875" y2="68.4583" gradientUnits="userSpaceOnUse">
<stop stop-color="#EFF3F5"/>
<stop offset="1" stop-color="#D9E0E4"/>
</linearGradient>
<linearGradient id="paint1_linear_731_1244" x1="52.625" y1="17" x2="52.625" y2="32.8333" gradientUnits="userSpaceOnUse">
<stop stop-color="#FF9C71"/>
<stop offset="1" stop-color="#FF6B00"/>
</linearGradient>
<linearGradient id="paint2_linear_731_1244" x1="27.4779" y1="45.7459" x2="29.0141" y2="65.3949" gradientUnits="userSpaceOnUse">
<stop stop-color="#3FD383"/>
<stop offset="1" stop-color="#15B279"/>
</linearGradient>
<linearGradient id="paint3_linear_731_1244" x1="50.7622" y1="81.8458" x2="53.2072" y2="110.453" gradientUnits="userSpaceOnUse">
<stop stop-color="#5EBBFF"/>
<stop offset="0.506666" stop-color="#3397F5"/>
<stop offset="1" stop-color="#126CD7"/>
</linearGradient>
<clipPath id="clip0_731_1244">
<rect width="128" height="128" fill="white"/>
</clipPath>
</defs>
</svg>
