<svg width="24" height="24" viewBox="0 0 24 24" fill="none" xmlns="http://www.w3.org/2000/svg">
<g clip-path="url(#clip0_3017_2014)">
<mask id="mask0_3017_2014" style="mask-type:luminance" maskUnits="userSpaceOnUse" x="0" y="0" width="24" height="24">
<path d="M24 0H0V24H24V0Z" fill="white"/>
</mask>
<g mask="url(#mask0_3017_2014)">
<path d="M14 11C14 10.4477 14.4477 10 15 10H19C19.5523 10 20 10.4477 20 11V18C20 19.1046 19.1046 20 18 20H16C14.8954 20 14 19.1046 14 18V11Z" stroke="#DDDDDD" stroke-width="1.2"/>
<path d="M15 8C15 7.44772 15.4477 7 16 7H18C18.5523 7 19 7.44772 19 8V10H15V8Z" stroke="#DDDDDD" stroke-width="1.2"/>
<path d="M12 19C8.13401 19 5 15.866 5 12C5 8.13401 8.13401 5 12 5C13.0112 5 13.9722 5.21439 14.8403 5.6002" stroke="#DDDDDD" stroke-width="1.2" stroke-linecap="round"/>
<path d="M12 14C10.8954 14 10 13.1046 10 12C10 10.8954 10.8954 10 12 10" stroke="#DDDDDD" stroke-width="1.2" stroke-linecap="round"/>
</g>
</g>
<defs>
<clipPath id="clip0_3017_2014">
<rect width="24" height="24" fill="white"/>
</clipPath>
</defs>
</svg>
