<?xml version="1.0" encoding="UTF-8" standalone="no"?>
<svg xmlns:inkscape="http://www.inkscape.org/namespaces/inkscape" xmlns:sodipodi="http://sodipodi.sourceforge.net/DTD/sodipodi-0.dtd" xmlns="http://www.w3.org/2000/svg" xmlns:svg="http://www.w3.org/2000/svg" width="24" height="24" viewBox="0 0 24 24" fill="none" version="1.1" id="svg16" sodipodi:docname="input-keyboard.svg" inkscape:version="1.4 (e7c3feb100, 2024-10-09)">
    <defs id="defs1">
        <style id="current-color-scheme" type="text/css">
            .ColorScheme-Text { color:#e6f0f5; }
            .ColorScheme-Highlight { color:#2179cb; }
            .ColorScheme-Background { color:#e4e4e4; }
        </style>
    </defs>
    <sodipodi:namedview id="namedview16" pagecolor="#ffffff" bordercolor="#ffffff" borderopacity="0.25" inkscape:showpageshadow="2" inkscape:pageopacity="0.0" inkscape:pagecheckerboard="0" inkscape:deskcolor="#d1d1d1" inkscape:zoom="33.291667" inkscape:cx="11.984981" inkscape:cy="12" inkscape:window-width="1920" inkscape:window-height="1008" inkscape:window-x="0" inkscape:window-y="0" inkscape:window-maximized="1" inkscape:current-layer="g15"/>
    <g clip-path="url(#clip0_945_374)" id="g15">
        <path id="path1" d="M 12,8 C 12,6.5 13,6.5 13,5 M 6,8 h 12 c 1.108,0 2,0.892 2,2 v 7 c 0,1.108 -0.892,2 -2,2 H 6 C 4.892,19 4,18.108 4,17 V 10 C 4,8.892 4.892,8 6,8 Z" style="stroke:#ffffff;stroke-opacity:1;stroke-linecap:round;stroke-width:1.1;stroke-dasharray:none"/>
        <circle cx="9.6" cy="10.6" r="0.6" fill="#ffffff" id="circle1"/>
        <circle cx="10.6" cy="12.6" r="0.6" fill="#ffffff" id="circle2"/>
        <circle cx="9.6" cy="14.6" r="0.6" fill="#ffffff" id="circle3"/>
        <circle cx="7.6" cy="14.6" r="0.6" fill="#ffffff" id="circle4"/>
        <circle cx="7.6" cy="10.6" r="0.6" fill="#ffffff" id="circle5"/>
        <circle cx="11.6" cy="10.6" r="0.6" fill="#ffffff" id="circle6"/>
        <circle cx="13.6" cy="10.6" r="0.6" fill="#ffffff" id="circle7"/>
        <circle cx="12.6" cy="12.6" r="0.6" fill="#ffffff" id="circle8"/>
        <circle cx="11.6" cy="14.6" r="0.6" fill="#ffffff" id="circle9"/>
        <circle cx="14.6" cy="12.6" r="0.6" fill="#ffffff" id="circle10"/>
        <circle cx="13.6" cy="14.6" r="0.6" fill="#ffffff" id="circle11"/>
        <circle cx="16.6" cy="12.6" r="0.6" fill="#ffffff" id="circle12"/>
        <rect x="15" y="10" width="2.2" height="1.2" rx="0.6" fill="#ffffff" id="rect12"/>
        <rect x="15" y="14" width="2.2" height="1.2" rx="0.6" fill="#ffffff" id="rect13"/>
        <rect x="7" y="12" width="2.2" height="1.2" rx="0.6" fill="#ffffff" id="rect14"/>
        <rect x="9" y="16" width="6" height="1.2" rx="0.6" fill="#ffffff" id="rect15"/>
        <path id="path1" d="M 12,8 C 12,6.5 13,6.5 13,5 M 6,8 h 12 c 1.108,0 2,0.892 2,2 v 7 c 0,1.108 -0.892,2 -2,2 H 6 C 4.892,19 4,18.108 4,17 V 10 C 4,8.892 4.892,8 6,8 Z" style="stroke:currentColor;opacity:0.5;stroke-linecap:round;stroke-width:1.1;stroke-dasharray:none" class="ColorScheme-Highlight"/>
        <circle cx="9.6" cy="10.6" r="0.6" style="fill:currentColor;opacity:0.5;" class="ColorScheme-Highlight" id="circle1"/>
        <circle cx="10.6" cy="12.6" r="0.6" style="fill:currentColor;opacity:0.5;" class="ColorScheme-Highlight" id="circle2"/>
        <circle cx="9.6" cy="14.6" r="0.6" style="fill:currentColor;opacity:0.5;" class="ColorScheme-Highlight" id="circle3"/>
        <circle cx="7.6" cy="14.6" r="0.6" style="fill:currentColor;opacity:0.5;" class="ColorScheme-Highlight" id="circle4"/>
        <circle cx="7.6" cy="10.6" r="0.6" style="fill:currentColor;opacity:0.5;" class="ColorScheme-Highlight" id="circle5"/>
        <circle cx="11.6" cy="10.6" r="0.6" style="fill:currentColor;opacity:0.5;" class="ColorScheme-Highlight" id="circle6"/>
        <circle cx="13.6" cy="10.6" r="0.6" style="fill:currentColor;opacity:0.5;" class="ColorScheme-Highlight" id="circle7"/>
        <circle cx="12.6" cy="12.6" r="0.6" style="fill:currentColor;opacity:0.5;" class="ColorScheme-Highlight" id="circle8"/>
        <circle cx="11.6" cy="14.6" r="0.6" style="fill:currentColor;opacity:0.5;" class="ColorScheme-Highlight" id="circle9"/>
        <circle cx="14.6" cy="12.6" r="0.6" style="fill:currentColor;opacity:0.5;" class="ColorScheme-Highlight" id="circle10"/>
        <circle cx="13.6" cy="14.6" r="0.6" style="fill:currentColor;opacity:0.5;" class="ColorScheme-Highlight" id="circle11"/>
        <circle cx="16.6" cy="12.6" r="0.6" style="fill:currentColor;opacity:0.5;" class="ColorScheme-Highlight" id="circle12"/>
        <rect x="15" y="10" width="2.2" height="1.2" rx="0.6" style="fill:currentColor;opacity:0.5;" class="ColorScheme-Highlight" id="rect12"/>
        <rect x="15" y="14" width="2.2" height="1.2" rx="0.6" style="fill:currentColor;opacity:0.5;" class="ColorScheme-Highlight" id="rect13"/>
        <rect x="7" y="12" width="2.2" height="1.2" rx="0.6" style="fill:currentColor;opacity:0.5;" class="ColorScheme-Highlight" id="rect14"/>
        <rect x="9" y="16" width="6" height="1.2" rx="0.6" style="fill:currentColor;opacity:0.5;" class="ColorScheme-Highlight" id="rect15"/>
    </g>
    <defs id="defs16">
        <clipPath id="clip0_945_374">
            <rect width="24" height="24" fill="white" id="rect16"/>
        </clipPath>
    </defs>
</svg>
