<svg width="24" height="24" viewBox="0 0 24 24" fill="none" xmlns="http://www.w3.org/2000/svg">
<g clip-path="url(#clip0_1081_149)">
<path d="M20.9064 15.4783C20.4902 13.4825 20.1159 11.5031 19.8531 10.0466C19.7043 9.22188 18.6622 8.91393 18.096 9.53168L14.5298 13.422C14.2187 13.7614 14.1797 14.2701 14.4356 14.6528C15.0462 15.5655 15.2719 15.8858 16.6012 17.7718C18.3247 20.2172 21.5951 18.781 20.9064 15.4783Z" fill="url(#paint0_linear_1081_149)"/>
<path d="M4.34035 9.243C4.6176 8.162 5.75433 6.00001 8.08324 6.00001H15.3214C21.5595 6.00005 21.5595 14.1075 15.3214 14.1075H10.1524C9.89156 14.1075 9.63942 14.2101 9.51527 14.4394C9.21201 14.9996 8.8264 16.0669 7.25173 17.9451C5.49679 20.0384 2.42753 18.837 3.09282 15.9183C3.75812 12.9996 4.20173 10.0537 4.34035 9.243Z" fill="url(#paint1_linear_1081_149)"/>
<circle cx="8" cy="10" r="2" fill="url(#paint2_linear_1081_149)"/>
<circle cx="16" cy="10" r="2" fill="url(#paint3_linear_1081_149)"/>
</g>
<defs>
<linearGradient id="paint0_linear_1081_149" x1="18.4613" y1="9.39994" x2="12.7534" y2="15.6945" gradientUnits="userSpaceOnUse">
<stop stop-color="#8395A6"/>
<stop offset="1" stop-color="#677B8D"/>
</linearGradient>
<linearGradient id="paint1_linear_1081_149" x1="11.5" y1="6" x2="11.5" y2="19" gradientUnits="userSpaceOnUse">
<stop stop-color="#C8D4DC"/>
<stop offset="1" stop-color="#919FA6"/>
</linearGradient>
<linearGradient id="paint2_linear_1081_149" x1="7.24053" y1="8.50898" x2="8.97215" y2="11.7571" gradientUnits="userSpaceOnUse">
<stop stop-color="#5A6978"/>
<stop offset="1" stop-color="#3C3B3B"/>
</linearGradient>
<linearGradient id="paint3_linear_1081_149" x1="15.2405" y1="8.50898" x2="16.9721" y2="11.7571" gradientUnits="userSpaceOnUse">
<stop stop-color="#5A6978"/>
<stop offset="1" stop-color="#3C3B3B"/>
</linearGradient>
<clipPath id="clip0_1081_149">
<rect width="24" height="24" fill="white"/>
</clipPath>
</defs>
</svg>
