<svg width="24" height="24" viewBox="0 0 24 24" fill="none" xmlns="http://www.w3.org/2000/svg">
<g clip-path="url(#clip0_1081_158)">
<path d="M8.92881 17.7141C8.55149 18.1824 7.8495 18.224 7.42422 17.7987L6.20109 16.5756C5.77581 16.1503 5.81736 15.4483 6.28571 15.071C7.36238 14.2036 9.18606 12.6951 10.4023 11.4789C13.1075 8.77361 17.1941 4.68701 18.8223 3.05882C19.2128 2.66829 19.8446 2.66971 20.2351 3.06023L20.9396 3.76468C21.3301 4.1552 21.3315 4.78696 20.941 5.17748C19.3128 6.80567 15.2262 10.8923 12.5209 13.5975C11.3047 14.8137 9.79624 16.6374 8.92881 17.7141Z" fill="url(#paint0_linear_1081_158)"/>
<path d="M7.71892 16.27C7.13446 15.6855 6.6142 15.442 6.35265 15.3765C6.09813 15.3128 5.97938 15.4417 5.89464 15.5896C4.77451 17.5446 3.28367 19.9002 3.15946 20.3841C3.09794 20.6239 3.36185 20.8831 3.60311 20.8278C4.11371 20.7109 6.65126 19.1077 8.36679 18.0618C8.52128 17.9676 8.64075 17.7926 8.59392 17.6178C8.53273 17.3894 8.30338 16.8544 7.71892 16.27Z" fill="url(#paint1_linear_1081_158)"/>
</g>
<defs>
<linearGradient id="paint0_linear_1081_158" x1="7.38034" y1="17.0233" x2="5.16547" y2="8.84042" gradientUnits="userSpaceOnUse">
<stop stop-color="#505A62"/>
<stop offset="1" stop-color="#1F2528"/>
</linearGradient>
<linearGradient id="paint1_linear_1081_158" x1="4.2728" y1="20.3252" x2="5.3973" y2="15.4763" gradientUnits="userSpaceOnUse">
<stop stop-color="#505A62"/>
<stop offset="1" stop-color="#2B353E"/>
</linearGradient>
<clipPath id="clip0_1081_158">
<rect width="24" height="24" fill="white"/>
</clipPath>
</defs>
</svg>
