<svg width="24" height="24" viewBox="0 0 24 24" fill="none" xmlns="http://www.w3.org/2000/svg">
<g clip-path="url(#clip0_979_335)">
<path d="M8 4C8 3.44772 8.44772 3 9 3H17.0858C17.351 3 17.6054 3.10536 17.7929 3.29289L21.7071 7.20711C21.8946 7.39464 22 7.649 22 7.91421V20C22 20.5523 21.5523 21 21 21H9C8.44772 21 8 20.5523 8 20V4Z" fill="url(#paint0_linear_979_335)"/>
<path d="M17 7V3H17.2108C17.476 3 17.7304 3.10536 17.9179 3.29289L21.7071 7.08211C21.8946 7.26964 22 7.524 22 7.78921V8H18C17.4477 8 17 7.55228 17 7Z" fill="url(#paint1_linear_979_335)"/>
<path d="M2 4C2 3.44772 2.44772 3 3 3H11.0858C11.351 3 11.6054 3.10536 11.7929 3.29289L15.7071 7.20711C15.8946 7.39464 16 7.649 16 7.91421V20C16 20.5523 15.5523 21 15 21H3C2.44772 21 2 20.5523 2 20V4Z" fill="url(#paint2_linear_979_335)"/>
<path d="M11 7V3H11.2108C11.476 3 11.7304 3.10536 11.9179 3.29289L15.7071 7.08211C15.8946 7.26964 16 7.524 16 7.78921V8H12C11.4477 8 11 7.55228 11 7Z" fill="url(#paint3_linear_979_335)"/>
</g>
<defs>
<linearGradient id="paint0_linear_979_335" x1="14.1765" y1="3.78639" x2="15.6674" y2="18.6194" gradientUnits="userSpaceOnUse">
<stop stop-color="#3FD383"/>
<stop offset="1" stop-color="#15B279"/>
</linearGradient>
<linearGradient id="paint1_linear_979_335" x1="19.5" y1="3" x2="19.5" y2="8" gradientUnits="userSpaceOnUse">
<stop stop-color="#667585"/>
<stop offset="1" stop-color="#374653"/>
</linearGradient>
<linearGradient id="paint2_linear_979_335" x1="8.17647" y1="3.8597" x2="9.95489" y2="20.0439" gradientUnits="userSpaceOnUse">
<stop stop-color="#42B0FF"/>
<stop offset="0.506666" stop-color="#3397F5"/>
<stop offset="1" stop-color="#126CD7"/>
</linearGradient>
<linearGradient id="paint3_linear_979_335" x1="13.5" y1="3" x2="13.5" y2="8" gradientUnits="userSpaceOnUse">
<stop stop-color="#667585"/>
<stop offset="1" stop-color="#374653"/>
</linearGradient>
<clipPath id="clip0_979_335">
<rect width="24" height="24" fill="white"/>
</clipPath>
</defs>
</svg>
