<svg width="128" height="128" viewBox="0 0 128 128" fill="none" xmlns="http://www.w3.org/2000/svg">
<g clip-path="url(#clip0_3204_454)">
<path d="M19 17C19 13.6863 21.6863 11 25 11L86.5147 11C88.106 11 89.6321 11.6321 90.7574 12.7574L107.243 29.2426C108.368 30.3679 109 31.894 109 33.4853V115C109 118.314 106.314 121 103 121H25C21.6863 121 19 118.314 19 115V17Z" fill="black" fill-opacity="0.15"/>
<path d="M19 13C19 10.7909 20.7909 9 23 9L87.3431 9C88.404 9 89.4214 9.42143 90.1716 10.1716L107.828 27.8284C108.579 28.5786 109 29.596 109 30.6569V115C109 117.209 107.209 119 105 119H23C20.7909 119 19 117.209 19 115V13Z" fill="url(#paint0_linear_3204_454)"/>
<path d="M86 9H86.576C88.2116 9 89.7762 9.6677 90.9079 10.8486L107.332 27.9867C108.402 29.1037 109 30.591 109 32.1381V33C108.361 31.6666 107.014 30.8182 105.535 30.8182H94.0909C90.7772 30.8182 88.0909 28.1319 88.0909 24.8182V12.4493C88.0909 10.9998 87.2851 9.67049 86 9Z" fill="black" fill-opacity="0.15"/>
<path d="M87 9H87.5147C89.106 9 90.6321 9.63214 91.7574 10.7574L107.243 26.2426C108.368 27.3679 109 28.894 109 30.4853V31C108.387 29.7743 107.134 29 105.764 29H95C91.6863 29 89 26.3137 89 23V12.2361C89 10.8657 88.2257 9.61287 87 9Z" fill="#CF74E0"/>
<path fill-rule="evenodd" clip-rule="evenodd" d="M84.9237 66.0262L84.9227 66.0266L84.9215 66.027C84.5329 66.1633 84.1464 66.2989 83.7677 66.4388C81.6372 67.2255 79.6631 67.9545 78.5566 69.3857C77.4895 70.766 77.5289 72.52 77.5699 74.3435C77.6105 76.1499 77.6526 78.0245 76.6222 79.6714C73.9593 83.9276 66.785 87 61.9208 87C45.6109 87 36 78.2907 36 67.0714C36 55.8522 49.6087 42 65.9186 42C84.4887 42 93 48.6857 93 56.1429C93 63.1928 88.8273 64.6567 84.9237 66.0262ZM78.0235 61.6346C78.8416 63.6025 76.8379 66.2998 73.5482 67.6592C70.2584 69.0186 66.9284 68.5254 66.1103 66.5575C65.2922 64.5895 67.2958 61.8922 70.5856 60.5328C73.8753 59.1734 77.2054 59.6667 78.0235 61.6346ZM75.0747 50.7429C73.5271 50.4857 73.3982 47.2714 74.6878 46.6285C78.0407 46.1142 82.1674 46.6285 82.8122 47.9143C83.457 49.2 80.8778 49.5857 79.8462 49.5857C79.428 49.5857 78.8192 49.818 78.14 50.0772C77.1433 50.4576 75.995 50.8958 75.0747 50.7429ZM57.2783 46.6285C57.0147 47.6513 57.8968 47.6486 58 49.5C58.129 51.8143 59.2127 51.6428 61.5339 51C62.303 50.787 63.1429 50.7716 63.9175 50.7574C65.4809 50.7287 66.7785 50.7049 66.6923 49.0714C66.5633 46.6285 63.3394 45.9857 61.5339 45.7285C61.2467 45.6876 60.9856 45.6402 60.7429 45.5961C59.4595 45.3631 57.6306 45.2614 57.2783 46.6285ZM48.5836 56.7913C47.4264 56.6533 47.1018 56.5143 46.5 56C43.7919 53.6857 45.4131 52.8 46.8316 52.6714C48.2502 52.5428 51.3452 52.2857 53.6665 54.2143C55.9877 56.1428 52.5059 57.8143 50.5715 57.1714C49.9004 56.9484 49.1983 56.8646 48.5836 56.7913ZM41.2873 64.7571C41.2961 64.8449 41.3037 64.9339 41.3113 65.0232C41.4155 66.2421 41.525 67.5242 44.7692 66.6857C48.2511 65.7857 48.8959 62.3143 45.543 61.8C42.19 61.2857 37.4185 62.8285 41.2873 64.7571ZM50.5715 77.4855C48.6371 78.6426 43.0918 76.3284 42.9629 74.6569C42.9629 71.3141 49.5398 71.9569 49.4108 73.6284C49.3556 74.3442 49.9155 74.9422 50.4217 75.4828C51.0973 76.2045 51.6773 76.824 50.5715 77.4855Z" fill="url(#paint1_linear_3204_454)"/>
</g>
<defs>
<linearGradient id="paint0_linear_3204_454" x1="49" y1="9" x2="119.108" y2="81.8396" gradientUnits="userSpaceOnUse">
<stop stop-color="#BF3DED"/>
<stop offset="1" stop-color="#8F15BA"/>
</linearGradient>
<linearGradient id="paint1_linear_3204_454" x1="64.5" y1="42" x2="64.5" y2="87" gradientUnits="userSpaceOnUse">
<stop stop-color="#EAC8F1"/>
<stop offset="1" stop-color="#F3B9FF"/>
</linearGradient>
<clipPath id="clip0_3204_454">
<rect width="128" height="128" fill="white"/>
</clipPath>
</defs>
</svg>
