<svg width="128" height="128" viewBox="0 0 128 128" fill="none" xmlns="http://www.w3.org/2000/svg">
<g clip-path="url(#clip0_3271_453)">
<path d="M19 17C19 13.6863 21.6863 11 25 11L86.5147 11C88.106 11 89.6321 11.6321 90.7574 12.7574L107.243 29.2426C108.368 30.3679 109 31.894 109 33.4853V115C109 118.314 106.314 121 103 121H25C21.6863 121 19 118.314 19 115V17Z" fill="black" fill-opacity="0.15"/>
<path d="M19 15C19 11.6863 21.6863 9 25 9L86.5147 9C88.106 9 89.6321 9.63214 90.7574 10.7574L107.243 27.2426C108.368 28.3679 109 29.894 109 31.4853V113C109 116.314 106.314 119 103 119H25C21.6863 119 19 116.314 19 113V15Z" fill="url(#paint0_linear_3271_453)"/>
<path d="M86 9H86.576C88.2116 9 89.7762 9.6677 90.9079 10.8486L107.332 27.9867C108.402 29.1037 109 30.591 109 32.1381V33C108.361 31.6666 107.014 30.8182 105.535 30.8182H94.0909C90.7772 30.8182 88.0909 28.1319 88.0909 24.8182V12.4493C88.0909 10.9998 87.2851 9.67049 86 9Z" fill="black" fill-opacity="0.15"/>
<path d="M87 9H87.5147C89.106 9 90.6321 9.63214 91.7574 10.7574L107.243 26.2426C108.368 27.3679 109 28.894 109 30.4853V31C108.387 29.7743 107.134 29 105.764 29H95C91.6863 29 89 26.3137 89 23V12.2361C89 10.8657 88.2257 9.61287 87 9Z" fill="#8395A6"/>
<path d="M81.7185 60.6628L62.3518 48.0106C61.6867 47.5761 60.8049 48.0533 60.8049 48.8478L60.8049 54.5C60.8049 55.0523 60.3426 55.4982 59.7906 55.5174C45.0469 56.0306 43.8022 67.8076 45.6705 76.786C45.8967 77.8732 47.7766 77.7202 48.1529 76.6754C49.621 72.5995 52.9932 68.4013 59.8052 68.027C60.3567 67.9967 60.8049 68.4477 60.8049 69L60.8049 74.1522C60.8049 74.9467 61.6867 75.4239 62.3518 74.9894L81.7185 62.3372C82.3226 61.9425 82.3226 61.0575 81.7185 60.6628Z" fill="url(#paint1_linear_3271_453)"/>
</g>
<defs>
<linearGradient id="paint0_linear_3271_453" x1="51.6428" y1="20.3077" x2="91.4919" y2="90.2559" gradientUnits="userSpaceOnUse">
<stop stop-color="#677B8D"/>
<stop offset="1" stop-color="#39464D"/>
</linearGradient>
<linearGradient id="paint1_linear_3271_453" x1="64" y1="47" x2="64" y2="82" gradientUnits="userSpaceOnUse">
<stop stop-color="#DBE4E8"/>
<stop offset="1" stop-color="#B9C3C7"/>
</linearGradient>
<clipPath id="clip0_3271_453">
<rect width="128" height="128" fill="white"/>
</clipPath>
</defs>
</svg>
