<svg width="128" height="128" viewBox="0 0 128 128" fill="none" xmlns="http://www.w3.org/2000/svg">
<g clip-path="url(#clip0_3179_303)">
<path d="M19 17C19 13.6863 21.6863 11 25 11L86.5147 11C88.106 11 89.6321 11.6321 90.7574 12.7574L107.243 29.2426C108.368 30.3679 109 31.894 109 33.4853V115C109 118.314 106.314 121 103 121H25C21.6863 121 19 118.314 19 115V17Z" fill="black" fill-opacity="0.15"/>
<path d="M19 13C19 10.7909 20.7909 9 23 9L87.3431 9C88.404 9 89.4214 9.42143 90.1716 10.1716L107.828 27.8284C108.579 28.5786 109 29.596 109 30.6569V115C109 117.209 107.209 119 105 119H23C20.7909 119 19 117.209 19 115V13Z" fill="url(#paint0_linear_3179_303)"/>
<path d="M86 9H86.576C88.2116 9 89.7762 9.6677 90.9079 10.8486L107.332 27.9867C108.402 29.1037 109 30.591 109 32.1381V33C108.361 31.6666 107.014 30.8182 105.535 30.8182H94.0909C90.7772 30.8182 88.0909 28.1319 88.0909 24.8182V12.4493C88.0909 10.9998 87.2851 9.67049 86 9Z" fill="black" fill-opacity="0.15"/>
<path d="M87 9H87.5147C89.106 9 90.6321 9.63214 91.7574 10.7574L107.243 26.2426C108.368 27.3679 109 28.894 109 30.4853V31C108.387 29.7743 107.134 29 105.764 29H95C91.6863 29 89 26.3137 89 23V12.2361C89 10.8657 88.2257 9.61287 87 9Z" fill="#CF74E0"/>
<path fill-rule="evenodd" clip-rule="evenodd" d="M59 9C57.8954 9 57 9.89543 57 11V13C57 14.1046 57.8954 15 59 15H62C63.1046 15 64 14.1046 64 13V11C64 9.89543 63.1046 9 62 9H59ZM59 21C57.8954 21 57 21.8954 57 23V25C57 26.1046 57.8954 27 59 27H62C63.1046 27 64 26.1046 64 25V23C64 21.8954 63.1046 21 62 21H59ZM64 29C64 27.8954 64.8954 27 66 27H69C70.1046 27 71 27.8954 71 29V31C71 32.1046 70.1046 33 69 33H66C64.8954 33 64 32.1046 64 31V29ZM66 15C64.8954 15 64 15.8954 64 17V19C64 20.1046 64.8954 21 66 21H69C70.1046 21 71 20.1046 71 19V17C71 15.8954 70.1046 15 69 15H66ZM57 35C57 33.8954 57.8954 33 59 33H62C63.1046 33 64 33.8954 64 35V37C64 38.1046 63.1046 39 62 39H59C57.8954 39 57 38.1046 57 37V35ZM66 39C64.8954 39 64 39.8954 64 41V43C64 44.1046 64.8954 45 66 45H69C70.1046 45 71 44.1046 71 43V41C71 39.8954 70.1046 39 69 39H66ZM64 53C64 51.8954 64.8954 51 66 51H69C70.1046 51 71 51.8954 71 53V60C71 61.1046 70.1046 62 69 62H66C64.8954 62 64 61.1046 64 60V53ZM59 45C57.8954 45 57 45.8954 57 47V49C57 50.1046 57.8954 51 59 51H62C63.1046 51 64 50.1046 64 49V47C64 45.8954 63.1046 45 62 45H59Z" fill="url(#paint1_linear_3179_303)"/>
<path d="M52.291 90.8633C52.291 91.7747 52.1608 92.5625 51.9004 93.2266C51.6465 93.8906 51.2884 94.444 50.8262 94.8867C50.3704 95.3229 49.8301 95.6484 49.2051 95.8633C48.5801 96.0716 47.8997 96.1758 47.1641 96.1758C46.4414 96.1758 45.7676 96.1204 45.1426 96.0098C44.5241 95.9056 43.9316 95.7624 43.3652 95.5801V82.2012H45.748V85.4434L45.6504 87.3965C46.0085 86.9342 46.4251 86.5632 46.9004 86.2832C47.3822 86.0033 47.9583 85.8633 48.6289 85.8633C49.2148 85.8633 49.7357 85.9805 50.1914 86.2148C50.6471 86.4492 51.028 86.7845 51.334 87.2207C51.6465 87.6504 51.8841 88.1745 52.0469 88.793C52.2096 89.4049 52.291 90.0951 52.291 90.8633ZM49.791 90.9609C49.791 90.4141 49.752 89.9486 49.6738 89.5645C49.5957 89.1803 49.4818 88.8646 49.332 88.6172C49.1888 88.3698 49.0098 88.1908 48.7949 88.0801C48.5866 87.9629 48.3457 87.9043 48.0723 87.9043C47.6686 87.9043 47.2812 88.0671 46.9102 88.3926C46.5456 88.7181 46.1582 89.1608 45.748 89.7207V94.0566C45.9368 94.1283 46.168 94.1868 46.4414 94.2324C46.7214 94.278 47.0046 94.3008 47.291 94.3008C47.6686 94.3008 48.0104 94.2227 48.3164 94.0664C48.6289 93.9102 48.8926 93.6888 49.1074 93.4023C49.3288 93.1159 49.498 92.7676 49.6152 92.3574C49.7324 91.9408 49.791 91.4753 49.791 90.9609ZM54.4688 96V94.3398L59.3223 88.1191H54.5859V86.0781H62.4668V87.7578L57.7207 93.9004H62.5449V96H54.4688ZM71.1973 83.3633C71.1973 83.5781 71.1582 83.7799 71.0801 83.9688C71.002 84.1576 70.8913 84.3236 70.748 84.4668C70.6113 84.6035 70.4486 84.7142 70.2598 84.7988C70.071 84.877 69.8659 84.916 69.6445 84.916C69.4232 84.916 69.2148 84.877 69.0195 84.7988C68.8307 84.7142 68.6647 84.6035 68.5215 84.4668C68.3848 84.3236 68.2773 84.1576 68.1992 83.9688C68.1211 83.7799 68.082 83.5781 68.082 83.3633C68.082 83.1484 68.1211 82.9466 68.1992 82.7578C68.2773 82.569 68.3848 82.403 68.5215 82.2598C68.6647 82.1165 68.8307 82.0059 69.0195 81.9277C69.2148 81.8431 69.4232 81.8008 69.6445 81.8008C69.8659 81.8008 70.071 81.8431 70.2598 81.9277C70.4486 82.0059 70.6113 82.1165 70.748 82.2598C70.8913 82.403 71.002 82.569 71.0801 82.7578C71.1582 82.9466 71.1973 83.1484 71.1973 83.3633ZM68.5605 87.9336H65.7578V86.0781H71.002V94.1445H73.8633V96H65.416V94.1445H68.5605V87.9336ZM85.2793 90.8633C85.2793 91.7747 85.1491 92.5625 84.8887 93.2266C84.6348 93.8906 84.2767 94.444 83.8145 94.8867C83.3587 95.3229 82.8184 95.6484 82.1934 95.8633C81.5684 96.0716 80.888 96.1758 80.1523 96.1758C79.9049 96.1758 79.6576 96.1595 79.4102 96.127C79.1628 96.0944 78.9382 96.0521 78.7363 96V99.877H76.3535V86.0781H78.4141L78.4727 87.543C78.6745 87.2891 78.8828 87.0579 79.0977 86.8496C79.319 86.6413 79.5566 86.4655 79.8105 86.3223C80.0645 86.1725 80.3379 86.0586 80.6309 85.9805C80.9238 85.9023 81.2526 85.8633 81.6172 85.8633C82.2031 85.8633 82.724 85.9805 83.1797 86.2148C83.6354 86.4492 84.0163 86.7845 84.3223 87.2207C84.6348 87.6504 84.8724 88.1745 85.0352 88.793C85.1979 89.4049 85.2793 90.0951 85.2793 90.8633ZM82.7793 90.9609C82.7793 90.4141 82.7402 89.9486 82.6621 89.5645C82.584 89.1803 82.4701 88.8646 82.3203 88.6172C82.1771 88.3698 81.998 88.1908 81.7832 88.0801C81.5749 87.9629 81.334 87.9043 81.0605 87.9043C80.6569 87.9043 80.2695 88.0671 79.8984 88.3926C79.5339 88.7181 79.1465 89.1608 78.7363 89.7207V94.0566C78.9251 94.1283 79.1562 94.1868 79.4297 94.2324C79.7096 94.278 79.9928 94.3008 80.2793 94.3008C80.6569 94.3008 80.9987 94.2227 81.3047 94.0664C81.6172 93.9102 81.8809 93.6888 82.0957 93.4023C82.3171 93.1159 82.4863 92.7676 82.6035 92.3574C82.7207 91.9408 82.7793 91.4753 82.7793 90.9609Z" fill="white"/>
</g>
<defs>
<linearGradient id="paint0_linear_3179_303" x1="49" y1="9" x2="119.108" y2="81.8396" gradientUnits="userSpaceOnUse">
<stop stop-color="#BF3DED"/>
<stop offset="1" stop-color="#8F15BA"/>
</linearGradient>
<linearGradient id="paint1_linear_3179_303" x1="64" y1="9" x2="64" y2="62" gradientUnits="userSpaceOnUse">
<stop stop-color="#EAC8F1"/>
<stop offset="1" stop-color="#F3B9FF"/>
</linearGradient>
<clipPath id="clip0_3179_303">
<rect width="128" height="128" fill="white"/>
</clipPath>
</defs>
</svg>
