<svg width="128" height="128" viewBox="0 0 128 128" fill="none" xmlns="http://www.w3.org/2000/svg">
<g clip-path="url(#clip0_3420_466)">
<path d="M19 17C19 13.6863 21.6863 11 25 11L86.5147 11C88.106 11 89.6321 11.6321 90.7574 12.7574L107.243 29.2426C108.368 30.3679 109 31.894 109 33.4853V115C109 118.314 106.314 121 103 121H25C21.6863 121 19 118.314 19 115V17Z" fill="black" fill-opacity="0.15"/>
<path d="M19 15C19 11.6863 21.6863 9 25 9L86.5147 9C88.106 9 89.6321 9.63214 90.7574 10.7574L107.243 27.2426C108.368 28.3679 109 29.894 109 31.4853V113C109 116.314 106.314 119 103 119H25C21.6863 119 19 116.314 19 113V15Z" fill="url(#paint0_linear_3420_466)"/>
<path d="M86 9H86.576C88.2116 9 89.7762 9.6677 90.9079 10.8486L107.332 27.9867C108.402 29.1037 109 30.591 109 32.1381V33C108.361 31.6666 107.014 30.8182 105.535 30.8182H94.0909C90.7772 30.8182 88.0909 28.1319 88.0909 24.8182V12.4493C88.0909 10.9998 87.2851 9.67049 86 9Z" fill="black" fill-opacity="0.15"/>
<path d="M87 9H87.5147C89.106 9 90.6321 9.63214 91.7574 10.7574L107.243 26.2426C108.368 27.3679 109 28.894 109 30.4853V31C108.387 29.7743 107.134 29 105.764 29H95C91.6863 29 89 26.3137 89 23V12.2361C89 10.8657 88.2257 9.61287 87 9Z" fill="#1B71D7"/>
<path fill-rule="evenodd" clip-rule="evenodd" d="M62.7697 86C74.7927 86 84.5393 76.2534 84.5393 64.2303C84.5393 52.2073 74.7927 42.4607 62.7697 42.4607C50.7466 42.4607 41 52.2073 41 64.2303C41 76.2534 50.7466 86 62.7697 86ZM72.0393 61.5618C75.5299 61.5618 78.3596 58.7321 78.3596 55.2416C78.3596 51.751 75.5299 48.9213 72.0393 48.9213C68.5488 48.9213 65.7191 51.751 65.7191 55.2416C65.7191 58.7321 68.5488 61.5618 72.0393 61.5618Z" fill="url(#paint1_linear_3420_466)"/>
<path d="M91 42.3202C91 45.8108 88.1703 48.6404 84.6798 48.6404C81.1892 48.6404 78.3596 45.8108 78.3596 42.3202C78.3596 38.8297 81.1892 36 84.6798 36C88.1703 36 91 38.8297 91 42.3202Z" fill="url(#paint2_linear_3420_466)"/>
</g>
<defs>
<linearGradient id="paint0_linear_3420_466" x1="58.7059" y1="14.2537" x2="69.0492" y2="113.271" gradientUnits="userSpaceOnUse">
<stop stop-color="#3397F5"/>
<stop offset="1" stop-color="#126CD7"/>
</linearGradient>
<linearGradient id="paint1_linear_3420_466" x1="66" y1="37.3514" x2="66" y2="86" gradientUnits="userSpaceOnUse">
<stop stop-color="#EFF3F5"/>
<stop offset="1" stop-color="#B4D8F1"/>
</linearGradient>
<linearGradient id="paint2_linear_3420_466" x1="66" y1="37.3514" x2="66" y2="86" gradientUnits="userSpaceOnUse">
<stop stop-color="#EFF3F5"/>
<stop offset="1" stop-color="#B4D8F1"/>
</linearGradient>
<clipPath id="clip0_3420_466">
<rect width="128" height="128" fill="white"/>
</clipPath>
</defs>
</svg>
