<svg width="128" height="128" viewBox="0 0 128 128" fill="none" xmlns="http://www.w3.org/2000/svg">
<g clip-path="url(#clip0_3420_495)">
<path d="M19 17C19 13.6863 21.6863 11 25 11L86.5147 11C88.106 11 89.6321 11.6321 90.7574 12.7574L107.243 29.2426C108.368 30.3679 109 31.894 109 33.4853V115C109 118.314 106.314 121 103 121H25C21.6863 121 19 118.314 19 115V17Z" fill="black" fill-opacity="0.15"/>
<path d="M19 15C19 11.6863 21.6863 9 25 9L86.5147 9C88.106 9 89.6321 9.63214 90.7574 10.7574L107.243 27.2426C108.368 28.3679 109 29.894 109 31.4853V113C109 116.314 106.314 119 103 119H25C21.6863 119 19 116.314 19 113V15Z" fill="url(#paint0_linear_3420_495)"/>
<path d="M86 9H86.576C88.2116 9 89.7762 9.6677 90.9079 10.8486L107.332 27.9867C108.402 29.1037 109 30.591 109 32.1381V33C108.361 31.6666 107.014 30.8182 105.535 30.8182H94.0909C90.7772 30.8182 88.0909 28.1319 88.0909 24.8182V12.4493C88.0909 10.9998 87.2851 9.67049 86 9Z" fill="black" fill-opacity="0.15"/>
<path d="M87 9H87.5147C89.106 9 90.6321 9.63214 91.7574 10.7574L107.243 26.2426C108.368 27.3679 109 28.894 109 30.4853V31C108.387 29.7743 107.134 29 105.764 29H95C91.6863 29 89 26.3137 89 23V12.2361C89 10.8657 88.2257 9.61287 87 9Z" fill="#FFA4D5"/>
<path d="M41.1875 60.2988C41.1875 60.9629 41.0768 61.5781 40.8555 62.1445C40.6341 62.7044 40.3053 63.1895 39.8691 63.5996C39.4329 64.0098 38.8893 64.3288 38.2383 64.5566C37.5872 64.7845 36.832 64.8984 35.9727 64.8984H34.752V69H32.3301V56.2363H36.0703C36.8971 56.2363 37.6263 56.3275 38.2578 56.5098C38.8958 56.6855 39.4297 56.946 39.8594 57.291C40.2956 57.6361 40.6243 58.0625 40.8457 58.5703C41.0736 59.0716 41.1875 59.6478 41.1875 60.2988ZM38.668 60.4648C38.668 60.1263 38.6126 59.8203 38.502 59.5469C38.3978 59.2669 38.235 59.0293 38.0137 58.834C37.7988 58.6387 37.5254 58.4889 37.1934 58.3848C36.8613 58.2806 36.4674 58.2285 36.0117 58.2285H34.752V62.9062H36.0898C36.5065 62.9062 36.8743 62.8509 37.1934 62.7402C37.5124 62.623 37.7793 62.457 37.9941 62.2422C38.2155 62.0273 38.3815 61.7702 38.4922 61.4707C38.6094 61.1712 38.668 60.8359 38.668 60.4648ZM49.5859 69L49.5273 67.7012C49.319 67.9225 49.1009 68.1276 48.873 68.3164C48.6452 68.4987 48.3945 68.6582 48.1211 68.7949C47.8477 68.9316 47.5482 69.0358 47.2227 69.1074C46.9036 69.1855 46.5521 69.2246 46.168 69.2246C45.6602 69.2246 45.2142 69.1497 44.8301 69C44.446 68.8503 44.1237 68.6419 43.8633 68.375C43.6029 68.1081 43.4043 67.7858 43.2676 67.4082C43.1374 67.0306 43.0723 66.6139 43.0723 66.1582C43.0723 65.6895 43.1699 65.2565 43.3652 64.8594C43.5671 64.4622 43.8698 64.1204 44.2734 63.834C44.6836 63.5475 45.1914 63.3229 45.7969 63.1602C46.4089 62.9974 47.125 62.916 47.9453 62.916H49.2441V62.3203C49.2441 62.0664 49.2083 61.8385 49.1367 61.6367C49.0651 61.4284 48.9479 61.2526 48.7852 61.1094C48.6289 60.9661 48.4238 60.8555 48.1699 60.7773C47.916 60.6992 47.6035 60.6602 47.2324 60.6602C46.6465 60.6602 46.0671 60.7285 45.4941 60.8652C44.9277 60.9954 44.3776 61.181 43.8438 61.4219V59.5176C44.319 59.3288 44.8659 59.1725 45.4844 59.0488C46.1094 58.9251 46.7572 58.8633 47.4277 58.8633C48.1634 58.8633 48.7949 58.9349 49.3223 59.0781C49.8496 59.2148 50.2826 59.4232 50.6211 59.7031C50.9661 59.9831 51.2201 60.3346 51.3828 60.7578C51.5456 61.1745 51.627 61.6628 51.627 62.2227V69H49.5859ZM49.2441 64.6152H47.7891C47.3854 64.6152 47.0436 64.6543 46.7637 64.7324C46.4837 64.8105 46.2559 64.918 46.0801 65.0547C45.9043 65.1914 45.7741 65.3509 45.6895 65.5332C45.6113 65.709 45.5723 65.8978 45.5723 66.0996C45.5723 66.5033 45.7025 66.8125 45.9629 67.0273C46.2233 67.2357 46.5781 67.3398 47.0273 67.3398C47.3594 67.3398 47.7044 67.2194 48.0625 66.9785C48.4206 66.7376 48.8145 66.3926 49.2441 65.9434V64.6152ZM62.5449 66.0801C62.5449 66.6465 62.418 67.1315 62.1641 67.5352C61.9167 67.9323 61.5846 68.2578 61.168 68.5117C60.7578 68.7591 60.2891 68.9382 59.7617 69.0488C59.2409 69.166 58.707 69.2246 58.1602 69.2246C57.431 69.2246 56.7734 69.1888 56.1875 69.1172C55.6016 69.0521 55.0482 68.9544 54.5273 68.8242V66.6758C55.1393 66.9297 55.748 67.1152 56.3535 67.2324C56.9655 67.3431 57.5417 67.3984 58.082 67.3984C58.707 67.3984 59.1725 67.3008 59.4785 67.1055C59.791 66.9036 59.9473 66.6432 59.9473 66.3242C59.9473 66.1745 59.9147 66.0378 59.8496 65.9141C59.7845 65.7904 59.6608 65.6732 59.4785 65.5625C59.3027 65.4453 59.0521 65.3281 58.7266 65.2109C58.401 65.0872 57.9746 64.9505 57.4473 64.8008C56.959 64.6641 56.5293 64.5111 56.1582 64.3418C55.7936 64.166 55.4909 63.9609 55.25 63.7266C55.0091 63.4922 54.8268 63.222 54.7031 62.916C54.5859 62.6035 54.5273 62.2389 54.5273 61.8223C54.5273 61.4186 54.6185 61.0378 54.8008 60.6797C54.9831 60.3216 55.2533 60.0091 55.6113 59.7422C55.9759 59.4688 56.4284 59.2539 56.9688 59.0977C57.5091 58.9414 58.1406 58.8633 58.8633 58.8633C59.4883 58.8633 60.0417 58.8958 60.5234 58.9609C61.0052 59.026 61.4316 59.0977 61.8027 59.1758V61.1191C61.2363 60.9368 60.7025 60.8099 60.2012 60.7383C59.7064 60.6602 59.2148 60.6211 58.7266 60.6211C58.2383 60.6211 57.8444 60.709 57.5449 60.8848C57.252 61.0605 57.1055 61.3047 57.1055 61.6172C57.1055 61.7669 57.1348 61.9004 57.1934 62.0176C57.252 62.1348 57.3659 62.2487 57.5352 62.3594C57.7109 62.4701 57.9518 62.5872 58.2578 62.7109C58.5703 62.8281 58.9805 62.9583 59.4883 63.1016C60.0612 63.2643 60.543 63.4401 60.9336 63.6289C61.3242 63.8112 61.6367 64.0195 61.8711 64.2539C62.112 64.4883 62.2845 64.7552 62.3887 65.0547C62.4928 65.3542 62.5449 65.696 62.5449 66.0801ZM73.3848 68.6191C72.916 68.8079 72.431 68.9479 71.9297 69.0391C71.4284 69.1302 70.9043 69.1758 70.3574 69.1758C69.5697 69.1758 68.8633 69.0684 68.2383 68.8535C67.6133 68.6387 67.0827 68.3197 66.6465 67.8965C66.2103 67.4733 65.875 66.9492 65.6406 66.3242C65.4128 65.6992 65.2988 64.9766 65.2988 64.1562C65.2988 63.362 65.4225 62.6426 65.6699 61.998C65.9238 61.3535 66.2786 60.8034 66.7344 60.3477C67.1901 59.8919 67.737 59.5404 68.375 59.293C69.0195 59.0456 69.7357 58.9219 70.5234 58.9219C71.168 58.9219 71.7083 58.9577 72.1445 59.0293C72.5872 59.0944 72.9844 59.179 73.3359 59.2832V61.5977C72.9323 61.3958 72.4928 61.2396 72.0176 61.1289C71.5488 61.0182 71.1029 60.9629 70.6797 60.9629C70.237 60.9629 69.8398 61.0378 69.4883 61.1875C69.1367 61.3372 68.8405 61.5456 68.5996 61.8125C68.3587 62.0794 68.1732 62.4049 68.043 62.7891C67.9193 63.1667 67.8574 63.5833 67.8574 64.0391C67.8574 64.5143 67.9258 64.9408 68.0625 65.3184C68.1992 65.696 68.3913 66.0182 68.6387 66.2852C68.8926 66.5456 69.1953 66.7474 69.5469 66.8906C69.8984 67.0273 70.2891 67.0957 70.7188 67.0957C70.9271 67.0957 71.1452 67.0827 71.373 67.0566C71.6074 67.0241 71.8385 66.9818 72.0664 66.9297C72.3008 66.8711 72.5286 66.806 72.75 66.7344C72.9779 66.6628 73.1895 66.5846 73.3848 66.5V68.6191ZM82.5742 69L82.5156 67.7012C82.3073 67.9225 82.0892 68.1276 81.8613 68.3164C81.6335 68.4987 81.3828 68.6582 81.1094 68.7949C80.8359 68.9316 80.5365 69.0358 80.2109 69.1074C79.8919 69.1855 79.5404 69.2246 79.1562 69.2246C78.6484 69.2246 78.2025 69.1497 77.8184 69C77.4342 68.8503 77.112 68.6419 76.8516 68.375C76.5911 68.1081 76.3926 67.7858 76.2559 67.4082C76.1257 67.0306 76.0605 66.6139 76.0605 66.1582C76.0605 65.6895 76.1582 65.2565 76.3535 64.8594C76.5553 64.4622 76.8581 64.1204 77.2617 63.834C77.6719 63.5475 78.1797 63.3229 78.7852 63.1602C79.3971 62.9974 80.1133 62.916 80.9336 62.916H82.2324V62.3203C82.2324 62.0664 82.1966 61.8385 82.125 61.6367C82.0534 61.4284 81.9362 61.2526 81.7734 61.1094C81.6172 60.9661 81.4121 60.8555 81.1582 60.7773C80.9043 60.6992 80.5918 60.6602 80.2207 60.6602C79.6348 60.6602 79.0553 60.7285 78.4824 60.8652C77.916 60.9954 77.3659 61.181 76.832 61.4219V59.5176C77.3073 59.3288 77.8542 59.1725 78.4727 59.0488C79.0977 58.9251 79.7454 58.8633 80.416 58.8633C81.1517 58.8633 81.7832 58.9349 82.3105 59.0781C82.8379 59.2148 83.2708 59.4232 83.6094 59.7031C83.9544 59.9831 84.2083 60.3346 84.3711 60.7578C84.5339 61.1745 84.6152 61.6628 84.6152 62.2227V69H82.5742ZM82.2324 64.6152H80.7773C80.3737 64.6152 80.0319 64.6543 79.752 64.7324C79.472 64.8105 79.2441 64.918 79.0684 65.0547C78.8926 65.1914 78.7624 65.3509 78.6777 65.5332C78.5996 65.709 78.5605 65.8978 78.5605 66.0996C78.5605 66.5033 78.6908 66.8125 78.9512 67.0273C79.2116 67.2357 79.5664 67.3398 80.0156 67.3398C80.3477 67.3398 80.6927 67.2194 81.0508 66.9785C81.4089 66.7376 81.8027 66.3926 82.2324 65.9434V64.6152ZM90.5527 57.0566H87.75V55.2012H92.9941V67.1445H95.8555V69H87.4082V67.1445H90.5527V57.0566Z" fill="url(#paint1_linear_3420_495)"/>
</g>
<defs>
<linearGradient id="paint0_linear_3420_495" x1="49" y1="9" x2="119.108" y2="81.8396" gradientUnits="userSpaceOnUse">
<stop stop-color="#FFA4D5"/>
<stop offset="1" stop-color="#ED3D72"/>
</linearGradient>
<linearGradient id="paint1_linear_3420_495" x1="64" y1="53" x2="64" y2="76" gradientUnits="userSpaceOnUse">
<stop stop-color="#FFEEEE"/>
<stop offset="1" stop-color="#FBD2BF"/>
</linearGradient>
<clipPath id="clip0_3420_495">
<rect width="128" height="128" fill="white"/>
</clipPath>
</defs>
</svg>
